<?xml version="1.0" encoding="utf-8"?>
<!-- Generator: Adobe Illustrator 16.0.0, SVG Export Plug-In . SVG Version: 6.00 Build 0)  -->
<!DOCTYPE svg PUBLIC "-//W3C//DTD SVG 1.1//EN" "http://www.w3.org/Graphics/SVG/1.1/DTD/svg11.dtd">
<svg version="1.1" xmlns="http://www.w3.org/2000/svg" xmlns:xlink="http://www.w3.org/1999/xlink" x="0px" y="0px" width="500px"
	 height="500px" viewBox="0 0 500 500" enable-background="new 0 0 500 500" xml:space="preserve">
<g id="fond_test" display="none">
	<rect y="-4" display="inline" fill="#43B1E6" width="500" height="504"/>
</g>
<g id="Calque_6">
	<path fill="none" stroke="#344152" stroke-width="7" stroke-miterlimit="10" d="M21.851,467.75"/>
	<path fill="#FFFFFF" stroke="#010202" stroke-width="7" stroke-miterlimit="10" d="M406.084,32.25H104.262c-6.627,0-12,5.373-12,12
		v37.5h29.411c6.628,0,12,5.373,12,12v6c0,6.627-5.372,12-12,12H92.262v69h29.411c6.628,0,12,5.373,12,12v6c0,6.627-5.372,12-12,12
		H92.262v79h29.411c6.628,0,12,5.373,12,12v6c0,6.627-5.372,12-12,12H92.262v68h29.411c6.628,0,12,5.373,12,12v6
		c0,6.627-5.372,12-12,12H92.262v36.5c0,6.627,5.373,12,12,12h301.822c6.627,0,12-5.373,12-12v-410
		C418.084,37.623,412.711,32.25,406.084,32.25z"/>
	<path fill="#FFFFFF" stroke="#010202" stroke-width="7" stroke-miterlimit="10" d="M429.264,57.916h-11.18v69.333h11.18
		c12.786,0,23.153-5.372,23.153-12V69.916C452.417,63.289,442.05,57.916,429.264,57.916z"/>
	<path fill="#FFFFFF" stroke="#010202" stroke-width="7" stroke-miterlimit="10" d="M429.264,161.083h-11.18v69.333h11.18
		c12.786,0,23.153-5.372,23.153-12v-45.333C452.417,166.456,442.05,161.083,429.264,161.083z"/>
	<path fill="#FFFFFF" stroke="#010202" stroke-width="7" stroke-miterlimit="10" d="M429.264,270.084h-11.18v69.333h11.18
		c12.786,0,23.153-5.372,23.153-12v-45.333C452.417,275.457,442.05,270.084,429.264,270.084z"/>
	<path fill="#FFFFFF" stroke="#010202" stroke-width="7" stroke-miterlimit="10" d="M429.264,368.084h-11.18v69.333h11.18
		c12.786,0,23.153-5.372,23.153-12v-45.333C452.417,373.457,442.05,368.084,429.264,368.084z"/>
	<path fill="#FFFFFF" stroke="#010202" stroke-width="7" stroke-miterlimit="10" d="M134.135,99.545c0,6.627-5.373,12-12,12h-62
		c-6.627,0-12-5.373-12-12v-6c0-6.627,5.373-12,12-12h62c6.627,0,12,5.373,12,12V99.545z"/>
	<path fill="#FFFFFF" stroke="#010202" stroke-width="7" stroke-miterlimit="10" d="M134.135,198.545c0,6.627-5.373,12-12,12h-62
		c-6.627,0-12-5.373-12-12v-6c0-6.627,5.373-12,12-12h62c6.627,0,12,5.373,12,12V198.545z"/>
	<path fill="#FFFFFF" stroke="#010202" stroke-width="7" stroke-miterlimit="10" d="M134.135,307.545c0,6.627-5.373,12-12,12h-62
		c-6.627,0-12-5.373-12-12v-6c0-6.627,5.373-12,12-12h62c6.627,0,12,5.373,12,12V307.545z"/>
	<path fill="#FFFFFF" stroke="#010202" stroke-width="7" stroke-miterlimit="10" d="M134.135,405.545c0,6.627-5.373,12-12,12h-62
		c-6.627,0-12-5.373-12-12v-6c0-6.627,5.373-12,12-12h62c6.627,0,12,5.373,12,12V405.545z"/>
	<path fill="none" stroke="#010202" stroke-width="7" stroke-miterlimit="10" d="M314.701,261.751c0,0-14.001,12.333-41.334,12
		c-0.146-0.002-0.282,0.01-0.426,0.013c-0.143-0.003-0.278-0.015-0.425-0.013c-27.333,0.333-41.334-12-41.334-12
		c-41.334,8.667-52,105.749-52,105.749h89.903h3.431h0.851h5.406h87.928C366.701,367.5,356.035,270.418,314.701,261.751z"/>
	<path fill="#B7B7B7" d="M304.231,278.232c0,0-10.829,9.539-31.971,9.282c-0.113-0.002-0.218,0.007-0.329,0.01
		c-0.111-0.003-0.216-0.012-0.328-0.01c-21.142,0.257-31.971-9.282-31.971-9.282c-31.97,6.704-40.22,81.793-40.22,81.793h69.537
		h2.653h0.657h4.182h68.008C344.45,360.025,336.201,284.937,304.231,278.232z"/>
	<path fill="none" stroke="#010202" stroke-width="7" stroke-miterlimit="10" d="M326.673,169.044c0,29.675-24.057,74-53.73,74
		c-29.676,0-53.731-44.326-53.731-74s24.056-53.731,53.731-53.731C302.616,115.313,326.673,139.37,326.673,169.044z"/>
	<path fill="#B7B7B7" d="M320.026,169.706c0,25.658-20.8,63.983-46.456,63.983c-25.659,0-46.458-38.325-46.458-63.983
		c0-25.658,20.799-46.457,46.458-46.457C299.227,123.249,320.026,144.048,320.026,169.706z"/>
</g>
<g id="repère">
</g>
</svg>
