<?xml version="1.0" encoding="utf-8"?>
<!-- Generator: Adobe Illustrator 16.0.0, SVG Export Plug-In . SVG Version: 6.00 Build 0)  -->
<!DOCTYPE svg PUBLIC "-//W3C//DTD SVG 1.1//EN" "http://www.w3.org/Graphics/SVG/1.1/DTD/svg11.dtd">
<svg version="1.1" xmlns="http://www.w3.org/2000/svg" xmlns:xlink="http://www.w3.org/1999/xlink" x="0px" y="0px"
	 width="299.99px" height="219.5px" viewBox="0 0 299.99 219.5" enable-background="new 0 0 299.99 219.5" xml:space="preserve">
<g id="Calque_2">
	<circle fill="#FFFFFF" cx="154.252" cy="109.084" r="83.243"/>
</g>
<g id="Calque_1">
	<g>
		<g>
			<path fill="#FAA61A" d="M154.253,7.324c-56.203,0-101.762,45.559-101.762,101.758c0,56.203,45.559,101.762,101.762,101.762
				c56.199,0,101.76-45.559,101.76-101.762C256.013,52.883,210.452,7.324,154.253,7.324z M154.97,184.594
				c-41.24,0-74.795-33.551-74.795-74.791s33.555-74.789,74.795-74.789s74.795,33.549,74.795,74.789S196.21,184.594,154.97,184.594z
				"/>
			<path fill="#FAA61A" d="M154.97,43.643c-36.482,0-66.164,29.678-66.164,66.16s29.682,66.16,66.164,66.16
				s66.164-29.678,66.164-66.16S191.452,43.643,154.97,43.643z"/>
		</g>
		<path fill="#D11A6F" d="M50.872,47.865c-0.27-14.969-2.021-23.193-8.359-32.838c-0.994-1.518-1.617-1.168-2.512-1.143V47.25
			c0,2.021-0.16,3.666-0.354,3.666h-6.76c-0.193,0-0.354-1.645-0.354-3.666V7.881c-0.539-0.4-1.264-0.914-2.697-0.914
			c-1.719,0-2.41,0.463-3.063,1.12V47.25c0,2.021-0.156,3.666-0.35,3.666H19.38c-0.195,0-0.355-1.645-0.355-3.666V13.885
			c-1.77-0.097-2.469-0.16-3.568,1.879c-4.227,7.83-7.193,19.127-7.193,31.428c0,16.273,4.426,30.006,13.32,35.193v126.479
			c0,2.027,1.643,3.67,3.67,3.67h7.551c2.027,0,3.67-1.643,3.67-3.67V82.805C46.433,77.1,51.075,59.014,50.872,47.865z"/>
		<path fill="#D11A6F" d="M274.347,30.605c0,2.832-0.148,74.432-0.148,77.129c0,1.791,1.977,2.68,3.313,3.08v96.537
			c0,2.025,1.643,3.67,3.67,3.67h6.877c2.027,0,3.67-1.645,3.67-3.67v-99.348V89.936V8.314
			C288.298,4.881,274.347,27.773,274.347,30.605z"/>
	</g>
</g>
</svg>
