<?xml version="1.0" standalone="no"?><!-- Generator: Gravit.io --><svg xmlns="http://www.w3.org/2000/svg" xmlns:xlink="http://www.w3.org/1999/xlink" style="isolation:isolate" viewBox="0 0 300 300" width="300" height="300"><defs><clipPath id="_clipPath_g26ATxhuufAph3MHg95jyNnjgumv88xi"><rect width="300" height="300"/></clipPath></defs><g clip-path="url(#_clipPath_g26ATxhuufAph3MHg95jyNnjgumv88xi)"><path d=" M 150 0 C 67.213 0 0 67.213 0 150 C 0 232.787 67.213 300 150 300 L 150 0 Z " fill="rgb(142,68,173)"/><path d=" M 150 300 C 232.787 300 300 232.787 300 150 C 300 67.213 232.787 0 150 0 L 150 300 Z " fill="rgb(165,105,189)"/><g id="Group"><defs><filter id="luNw5LXj1ojopSuiEWwSO9ZcvwZmmNqt" x="-200%" y="-200%" width="400%" height="400%"><feOffset xmlns="http://www.w3.org/2000/svg" in="SourceAlpha" result="offOut" dx="10" dy="10"/><feGaussianBlur xmlns="http://www.w3.org/2000/svg" in="offOut" result="blurOut" stdDeviation="2.5"/><feComponentTransfer xmlns="http://www.w3.org/2000/svg" in="blurOut" result="opacOut"><feFuncA xmlns="http://www.w3.org/2000/svg" type="table" tableValues="0 0.5"/></feComponentTransfer><feBlend xmlns="http://www.w3.org/2000/svg" in="SourceGraphic" in2="opacOut" mode="normal"/></filter></defs><g filter="url(#luNw5LXj1ojopSuiEWwSO9ZcvwZmmNqt)"><path d=" M 231 56.426 L 69 58.426 L 69 102.92 L 69 242.401 L 198.299 242.401 C 216.345 242.401 231 225.581 231 204.86 L 231 56.426 Z " fill-rule="evenodd" fill="rgb(255,255,255)"/></g><defs><filter id="xYRR3GysdkyUwDlr36wNzNqfn8tbpSUG" x="-200%" y="-200%" width="400%" height="400%"><feOffset xmlns="http://www.w3.org/2000/svg" in="SourceAlpha" result="offOut" dx="2" dy="2"/><feGaussianBlur xmlns="http://www.w3.org/2000/svg" in="offOut" result="blurOut" stdDeviation="2.5"/><feComponentTransfer xmlns="http://www.w3.org/2000/svg" in="blurOut" result="opacOut"><feFuncA xmlns="http://www.w3.org/2000/svg" type="table" tableValues="0 0.5"/></feComponentTransfer><feBlend xmlns="http://www.w3.org/2000/svg" in="SourceGraphic" in2="opacOut" mode="normal"/></filter></defs><g filter="url(#xYRR3GysdkyUwDlr36wNzNqfn8tbpSUG)"><path d=" M 227 51 L 65 53 L 65 97.494 L 65 236.975 L 194.299 236.975 C 212.345 236.975 227 220.155 227 199.434 L 227 51 Z " fill-rule="evenodd" fill="rgb(255,255,255)"/></g><path d=" M 75 113.021 C 75 108.077 79.014 104.062 83.959 104.062 C 88.903 104.062 92.918 108.077 92.918 113.021 C 92.918 117.966 88.903 121.98 83.959 121.98 C 79.014 121.98 75 117.966 75 113.021 Z " fill="rgb(64,64,64)"/><path d="M 58.187 107.561 L 83.297 107.561 C 84.504 107.561 85.484 108.541 85.484 109.748 L 85.484 116.294 C 85.484 117.501 84.504 118.481 83.297 118.481 L 58.187 118.481 C 56.98 118.481 56 117.501 56 116.294 L 56 109.748 C 56 108.541 56.98 107.561 58.187 107.561 Z" style="stroke:none;fill:#C3CFD9;stroke-miterlimit:10;"/><path d=" M 75 82.021 C 75 77.077 79.014 73.062 83.959 73.062 C 88.903 73.062 92.918 77.077 92.918 82.021 C 92.918 86.966 88.903 90.98 83.959 90.98 C 79.014 90.98 75 86.966 75 82.021 Z " fill="rgb(64,64,64)"/><path d=" M 75 143.987 C 75 139.043 79.014 135.029 83.959 135.029 C 88.903 135.029 92.918 139.043 92.918 143.987 C 92.918 148.932 88.903 152.946 83.959 152.946 C 79.014 152.946 75 148.932 75 143.987 Z " fill="rgb(64,64,64)"/><path d=" M 75 175.021 C 75 170.077 79.014 166.062 83.959 166.062 C 88.903 166.062 92.918 170.077 92.918 175.021 C 92.918 179.966 88.903 183.98 83.959 183.98 C 79.014 183.98 75 179.966 75 175.021 Z " fill="rgb(64,64,64)"/><path d=" M 75 205.954 C 75 201.009 79.014 196.995 83.959 196.995 C 88.903 196.995 92.918 201.009 92.918 205.954 C 92.918 210.898 88.903 214.912 83.959 214.912 C 79.014 214.912 75 210.898 75 205.954 Z " fill="rgb(64,64,64)"/><path d="M 58.187 76.561 L 83.297 76.561 C 84.504 76.561 85.484 77.541 85.484 78.748 L 85.484 85.294 C 85.484 86.501 84.504 87.481 83.297 87.481 L 58.187 87.481 C 56.98 87.481 56 86.501 56 85.294 L 56 78.748 C 56 77.541 56.98 76.561 58.187 76.561 Z" style="stroke:none;fill:#C3CFD9;stroke-miterlimit:10;"/><path d="M 110.425 88.012 L 205.575 88.012 C 206.913 88.012 208 88.898 208 89.991 L 208 89.991 C 208 91.083 206.913 91.969 205.575 91.969 L 110.425 91.969 C 109.087 91.969 108 91.083 108 89.991 L 108 89.991 C 108 88.898 109.087 88.012 110.425 88.012 Z" style="stroke:none;fill:#C3CFD9;stroke-miterlimit:10;"/><path d="M 110.425 151.923 L 205.575 151.923 C 206.913 151.923 208 152.81 208 153.902 L 208 153.902 C 208 154.994 206.913 155.881 205.575 155.881 L 110.425 155.881 C 109.087 155.881 108 154.994 108 153.902 L 108 153.902 C 108 152.81 109.087 151.923 110.425 151.923 Z" style="stroke:none;fill:#C3CFD9;stroke-miterlimit:10;"/><path d="M 110.425 110.053 L 205.575 110.053 C 206.913 110.053 208 110.94 208 112.032 L 208 112.032 C 208 113.124 206.913 114.011 205.575 114.011 L 110.425 114.011 C 109.087 114.011 108 113.124 108 112.032 L 108 112.032 C 108 110.94 109.087 110.053 110.425 110.053 Z" style="stroke:none;fill:#C3CFD9;stroke-miterlimit:10;"/><path d="M 110.425 173.964 L 205.575 173.964 C 206.913 173.964 208 174.851 208 175.943 L 208 175.943 C 208 177.035 206.913 177.922 205.575 177.922 L 110.425 177.922 C 109.087 177.922 108 177.035 108 175.943 L 108 175.943 C 108 174.851 109.087 173.964 110.425 173.964 Z" style="stroke:none;fill:#C3CFD9;stroke-miterlimit:10;"/><path d="M 110.425 132.094 L 205.575 132.094 C 206.913 132.094 208 132.981 208 134.073 L 208 134.073 C 208 135.165 206.913 136.052 205.575 136.052 L 110.425 136.052 C 109.087 136.052 108 135.165 108 134.073 L 108 134.073 C 108 132.981 109.087 132.094 110.425 132.094 Z" style="stroke:none;fill:#C3CFD9;stroke-miterlimit:10;"/><path d="M 110.425 196.005 L 205.575 196.005 C 206.913 196.005 208 196.892 208 197.984 L 208 197.984 C 208 199.076 206.913 199.963 205.575 199.963 L 110.425 199.963 C 109.087 199.963 108 199.076 108 197.984 L 108 197.984 C 108 196.892 109.087 196.005 110.425 196.005 Z" style="stroke:none;fill:#C3CFD9;stroke-miterlimit:10;"/><path d="M 58.187 169.561 L 83.297 169.561 C 84.504 169.561 85.484 170.541 85.484 171.748 L 85.484 178.294 C 85.484 179.501 84.504 180.481 83.297 180.481 L 58.187 180.481 C 56.98 180.481 56 179.501 56 178.294 L 56 171.748 C 56 170.541 56.98 169.561 58.187 169.561 Z" style="stroke:none;fill:#C3CFD9;stroke-miterlimit:10;"/><path d="M 58.187 138.494 L 83.297 138.494 C 84.504 138.494 85.484 139.474 85.484 140.681 L 85.484 147.226 C 85.484 148.434 84.504 149.413 83.297 149.413 L 58.187 149.413 C 56.98 149.413 56 148.434 56 147.226 L 56 140.681 C 56 139.474 56.98 138.494 58.187 138.494 Z" style="stroke:none;fill:#C3CFD9;stroke-miterlimit:10;"/><path d="M 58.187 200.494 L 83.297 200.494 C 84.504 200.494 85.484 201.474 85.484 202.681 L 85.484 209.226 C 85.484 210.434 84.504 211.413 83.297 211.413 L 58.187 211.413 C 56.98 211.413 56 210.434 56 209.226 L 56 202.681 C 56 201.474 56.98 200.494 58.187 200.494 Z" style="stroke:none;fill:#C3CFD9;stroke-miterlimit:10;"/></g></g></svg>