<?xml version="1.0" standalone="no"?><!-- Generator: Gravit.io --><svg xmlns="http://www.w3.org/2000/svg" xmlns:xlink="http://www.w3.org/1999/xlink" style="isolation:isolate" viewBox="0 0 300 300" width="300" height="300"><defs><clipPath id="_clipPath_bIf6BghgjZNRro0rjQs6we8iFjiZFSeD"><rect width="300" height="300"/></clipPath></defs><g clip-path="url(#_clipPath_bIf6BghgjZNRro0rjQs6we8iFjiZFSeD)"><path d=" M 150 0 C 67.213 0 0 67.213 0 150 C 0 232.787 67.213 300 150 300 L 150 0 Z " fill="rgb(166,172,175)"/><path d=" M 150 300 C 232.787 300 300 232.787 300 150 C 300 67.213 232.787 0 150 0 L 150 300 Z " fill="rgb(189,195,199)"/><defs><filter id="9KCQSR07ZXtVwEqgQN2rU1UpUDHpajDw" x="-200%" y="-200%" width="400%" height="400%"><feOffset xmlns="http://www.w3.org/2000/svg" in="SourceAlpha" result="offOut" dx="10" dy="10"/><feGaussianBlur xmlns="http://www.w3.org/2000/svg" in="offOut" result="blurOut" stdDeviation="2.5"/><feComponentTransfer xmlns="http://www.w3.org/2000/svg" in="blurOut" result="opacOut"><feFuncA xmlns="http://www.w3.org/2000/svg" type="table" tableValues="0 0.5"/></feComponentTransfer><feBlend xmlns="http://www.w3.org/2000/svg" in="SourceGraphic" in2="opacOut" mode="normal"/></filter></defs><g filter="url(#9KCQSR07ZXtVwEqgQN2rU1UpUDHpajDw)"><path d=" M 229 65.426 L 67 67.426 L 67 111.92 L 67 251.401 L 196.299 251.401 C 214.345 251.401 229 234.581 229 213.86 L 229 65.426 Z " fill-rule="evenodd" fill="rgb(255,255,255)"/></g><defs><filter id="aj98D8KEQ05g2BjZLJLwe0ZpAVHoAEGa" x="-200%" y="-200%" width="400%" height="400%"><feOffset xmlns="http://www.w3.org/2000/svg" in="SourceAlpha" result="offOut" dx="2" dy="2"/><feGaussianBlur xmlns="http://www.w3.org/2000/svg" in="offOut" result="blurOut" stdDeviation="2.5"/><feComponentTransfer xmlns="http://www.w3.org/2000/svg" in="blurOut" result="opacOut"><feFuncA xmlns="http://www.w3.org/2000/svg" type="table" tableValues="0 0.5"/></feComponentTransfer><feBlend xmlns="http://www.w3.org/2000/svg" in="SourceGraphic" in2="opacOut" mode="normal"/></filter></defs><g filter="url(#aj98D8KEQ05g2BjZLJLwe0ZpAVHoAEGa)"><path d=" M 225 60 L 63 62 L 63 106.494 L 63 245.975 L 192.299 245.975 C 210.345 245.975 225 229.155 225 208.434 L 225 60 Z " fill-rule="evenodd" fill="rgb(255,255,255)"/></g><path d=" M 73 122.021 C 73 117.077 77.014 113.062 81.959 113.062 C 86.903 113.062 90.918 117.077 90.918 122.021 C 90.918 126.966 86.903 130.98 81.959 130.98 C 77.014 130.98 73 126.966 73 122.021 Z " fill="rgb(64,64,64)"/><path d="M 56.187 116.561 L 81.297 116.561 C 82.504 116.561 83.484 117.541 83.484 118.748 L 83.484 125.294 C 83.484 126.501 82.504 127.481 81.297 127.481 L 56.187 127.481 C 54.98 127.481 54 126.501 54 125.294 L 54 118.748 C 54 117.541 54.98 116.561 56.187 116.561 Z" style="stroke:none;fill:#C3CFD9;stroke-miterlimit:10;"/><path d=" M 73 91.021 C 73 86.077 77.014 82.062 81.959 82.062 C 86.903 82.062 90.918 86.077 90.918 91.021 C 90.918 95.966 86.903 99.98 81.959 99.98 C 77.014 99.98 73 95.966 73 91.021 Z " fill="rgb(64,64,64)"/><path d=" M 73 152.987 C 73 148.043 77.014 144.029 81.959 144.029 C 86.903 144.029 90.918 148.043 90.918 152.987 C 90.918 157.932 86.903 161.946 81.959 161.946 C 77.014 161.946 73 157.932 73 152.987 Z " fill="rgb(64,64,64)"/><path d=" M 73 184.021 C 73 179.077 77.014 175.062 81.959 175.062 C 86.903 175.062 90.918 179.077 90.918 184.021 C 90.918 188.966 86.903 192.98 81.959 192.98 C 77.014 192.98 73 188.966 73 184.021 Z " fill="rgb(64,64,64)"/><path d=" M 73 214.954 C 73 210.009 77.014 205.995 81.959 205.995 C 86.903 205.995 90.918 210.009 90.918 214.954 C 90.918 219.898 86.903 223.912 81.959 223.912 C 77.014 223.912 73 219.898 73 214.954 Z " fill="rgb(64,64,64)"/><path d="M 56.187 85.561 L 81.297 85.561 C 82.504 85.561 83.484 86.541 83.484 87.748 L 83.484 94.294 C 83.484 95.501 82.504 96.481 81.297 96.481 L 56.187 96.481 C 54.98 96.481 54 95.501 54 94.294 L 54 87.748 C 54 86.541 54.98 85.561 56.187 85.561 Z" style="stroke:none;fill:#C3CFD9;stroke-miterlimit:10;"/><path d="M 108.425 97.012 L 203.575 97.012 C 204.913 97.012 206 97.898 206 98.991 L 206 98.991 C 206 100.083 204.913 100.969 203.575 100.969 L 108.425 100.969 C 107.087 100.969 106 100.083 106 98.991 L 106 98.991 C 106 97.898 107.087 97.012 108.425 97.012 Z" style="stroke:none;fill:#C3CFD9;stroke-miterlimit:10;"/><path d="M 108.425 160.923 L 203.575 160.923 C 204.913 160.923 206 161.81 206 162.902 L 206 162.902 C 206 163.994 204.913 164.881 203.575 164.881 L 108.425 164.881 C 107.087 164.881 106 163.994 106 162.902 L 106 162.902 C 106 161.81 107.087 160.923 108.425 160.923 Z" style="stroke:none;fill:#C3CFD9;stroke-miterlimit:10;"/><path d="M 108.425 119.053 L 203.575 119.053 C 204.913 119.053 206 119.94 206 121.032 L 206 121.032 C 206 122.124 204.913 123.011 203.575 123.011 L 108.425 123.011 C 107.087 123.011 106 122.124 106 121.032 L 106 121.032 C 106 119.94 107.087 119.053 108.425 119.053 Z" style="stroke:none;fill:#C3CFD9;stroke-miterlimit:10;"/><path d="M 108.425 182.964 L 203.575 182.964 C 204.913 182.964 206 183.851 206 184.943 L 206 184.943 C 206 186.035 204.913 186.922 203.575 186.922 L 108.425 186.922 C 107.087 186.922 106 186.035 106 184.943 L 106 184.943 C 106 183.851 107.087 182.964 108.425 182.964 Z" style="stroke:none;fill:#C3CFD9;stroke-miterlimit:10;"/><path d="M 108.425 141.094 L 203.575 141.094 C 204.913 141.094 206 141.981 206 143.073 L 206 143.073 C 206 144.165 204.913 145.052 203.575 145.052 L 108.425 145.052 C 107.087 145.052 106 144.165 106 143.073 L 106 143.073 C 106 141.981 107.087 141.094 108.425 141.094 Z" style="stroke:none;fill:#C3CFD9;stroke-miterlimit:10;"/><path d="M 108.425 205.005 L 203.575 205.005 C 204.913 205.005 206 205.892 206 206.984 L 206 206.984 C 206 208.076 204.913 208.963 203.575 208.963 L 108.425 208.963 C 107.087 208.963 106 208.076 106 206.984 L 106 206.984 C 106 205.892 107.087 205.005 108.425 205.005 Z" style="stroke:none;fill:#C3CFD9;stroke-miterlimit:10;"/><path d="M 56.187 178.561 L 81.297 178.561 C 82.504 178.561 83.484 179.541 83.484 180.748 L 83.484 187.294 C 83.484 188.501 82.504 189.481 81.297 189.481 L 56.187 189.481 C 54.98 189.481 54 188.501 54 187.294 L 54 180.748 C 54 179.541 54.98 178.561 56.187 178.561 Z" style="stroke:none;fill:#C3CFD9;stroke-miterlimit:10;"/><path d="M 56.187 147.494 L 81.297 147.494 C 82.504 147.494 83.484 148.474 83.484 149.681 L 83.484 156.226 C 83.484 157.434 82.504 158.413 81.297 158.413 L 56.187 158.413 C 54.98 158.413 54 157.434 54 156.226 L 54 149.681 C 54 148.474 54.98 147.494 56.187 147.494 Z" style="stroke:none;fill:#C3CFD9;stroke-miterlimit:10;"/><path d="M 56.187 209.494 L 81.297 209.494 C 82.504 209.494 83.484 210.474 83.484 211.681 L 83.484 218.226 C 83.484 219.434 82.504 220.413 81.297 220.413 L 56.187 220.413 C 54.98 220.413 54 219.434 54 218.226 L 54 211.681 C 54 210.474 54.98 209.494 56.187 209.494 Z" style="stroke:none;fill:#C3CFD9;stroke-miterlimit:10;"/></g></svg>