<?xml version="1.0" encoding="utf-8"?>
<!-- Generator: Adobe Illustrator 16.0.0, SVG Export Plug-In . SVG Version: 6.00 Build 0)  -->
<!DOCTYPE svg PUBLIC "-//W3C//DTD SVG 1.1//EN" "http://www.w3.org/Graphics/SVG/1.1/DTD/svg11.dtd">
<svg version="1.1" id="Calque_2" xmlns="http://www.w3.org/2000/svg" xmlns:xlink="http://www.w3.org/1999/xlink" x="0px" y="0px"
	 width="299.99px" height="299.99px" viewBox="0 0 299.99 299.99" enable-background="new 0 0 299.99 299.99" xml:space="preserve">
<ellipse fill="#027EB2" cx="155" cy="277.947" rx="120.25" ry="11.452"/>
<path stroke="#000000" stroke-width="7" stroke-miterlimit="10" d="M114.995,174.745"/>
<path fill="#FFC905" d="M264.511,242.302c-31.387-52.454-33.275-79.544-49.398-155c-16.124-75.458-57.356-78.898-94.807-76.104
	c-37.451,2.794-62.559,64.494-63.849,125.763c-1.29,61.27,7.182,98.462,17.026,113.939c9.846,15.478,19.026,5.159,20.961-14.188
	c1.993-19.936,17.02-2.246,21.347,4.729c15.737,25.369,36.053,24.294,24.941-3.146c-12.905-31.868,7.563-15.771,24.977,6.155
	c17.414,21.929,42.566,19.995,34.184,2.581c-8.386-17.413,4.191-42.244,17.42-19.154
	C235.479,259.575,281.35,270.442,264.511,242.302z M100.76,127.47c-7.979,0-14.445-10.84-14.445-24.213s6.467-24.213,14.445-24.213
	s14.447,10.84,14.447,24.213S108.738,127.47,100.76,127.47z M158.143,127.47c-7.979,0-14.446-10.84-14.446-24.213
	s6.468-24.213,14.446-24.213s14.446,10.84,14.446,24.213S166.122,127.47,158.143,127.47z"/>
</svg>
