<?xml version="1.0" encoding="utf-8"?>
<!-- Generator: Adobe Illustrator 16.0.0, SVG Export Plug-In . SVG Version: 6.00 Build 0)  -->
<!DOCTYPE svg PUBLIC "-//W3C//DTD SVG 1.1//EN" "http://www.w3.org/Graphics/SVG/1.1/DTD/svg11.dtd">
<svg version="1.1" xmlns="http://www.w3.org/2000/svg" xmlns:xlink="http://www.w3.org/1999/xlink" x="0px" y="0px"
	 width="297.635px" height="262.747px" viewBox="0 0 297.635 262.747" enable-background="new 0 0 297.635 262.747"
	 xml:space="preserve">
<g id="Calque_2_1_" display="none">
	<rect x="-126.683" y="-138.126" display="inline" fill="#FFFFFF" width="638" height="504"/>
</g>
<g id="Calque_1" display="none">
	<g id="Calque_2" display="inline">
		<g>
			<path fill="#FFFFFF" d="M229.447,261.75c-74.802,0-200.275-0.394-209.774-0.658c-7.825-0.217-13.774-3.241-16.752-8.518
				c-2.957-5.24-2.482-12.072,1.299-18.746C5.303,231.917,133.52,11.997,136.396,7.792c2.912-4.255,7.579-6.796,12.483-6.796
				c5.202,0,9.91,2.764,13.256,7.783c7.425,11.138,118.843,203.368,129.785,222.654c5.078,8.948,6.111,17.006,2.909,22.69
				c-2.592,4.601-7.922,7.246-15.008,7.447C275.748,261.688,258.329,261.75,229.447,261.75z"/>
			<path d="M148.88,1.994c4.858,0,9.271,2.606,12.427,7.339c7.418,11.128,118.807,203.31,129.748,222.591
				c4.826,8.508,5.887,16.421,2.906,21.709c-2.414,4.285-7.444,6.75-14.168,6.941c-4.064,0.116-21.475,0.178-50.346,0.178
				c-74.795,0-200.251-0.394-209.748-0.656c-7.462-0.208-13.113-3.053-15.911-8.012c-2.781-4.929-2.308-11.403,1.297-17.766
				c1.08-1.906,129.216-221.686,132.134-225.964C139.945,4.372,144.304,1.994,148.88,1.994 M148.88,0
				c-5.164,0-10.16,2.633-13.307,7.229C132.909,11.125,7.579,225.879,3.352,233.336c-8.146,14.377-0.958,28.273,16.293,28.752
				c9.503,0.265,136.468,0.658,209.803,0.658c26.476,0,45.955-0.052,50.403-0.179c16.771-0.479,23-13.896,12.938-31.627
				C282.728,213.209,170.633,19.728,162.965,8.227C159.169,2.532,153.944,0,148.88,0L148.88,0z"/>
		</g>
	</g>
	<g id="Calque_3" display="inline">
		<path fill="#FF0000" d="M139.544,12.846c-2.459,3.702-121.146,207.828-125.049,214.918c-7.52,13.666-16.715,27.213,12.05,28.326
			l242.201-0.541c31.524-0.131,22.229-13.209,12.939-30.063c-9.287-16.855-114.761-200.762-121.838-211.694
			C152.769,2.862,145.296,4.192,139.544,12.846z"/>
	</g>
	<g id="Calque_4" display="inline">
		<polygon fill="#FFFFFF" stroke="#FFFFFF" stroke-width="0.9968" points="149.591,36.383 35.304,234.584 265.583,235.157 		"/>
	</g>
	<g id="Calque_7" display="inline">
		<polygon fill="#231F20" points="119.262,224.805 99.174,224.805 99.174,181.64 119.474,146.81 119.474,103.432 139.135,103.432 
			139.135,146.81 119.261,181.64 		"/>
		<polygon fill="#231F20" points="200.577,224.729 180.488,224.729 180.488,181.564 159.918,146.734 159.918,103.356 
			179.579,103.356 179.579,146.734 200.576,181.564 		"/>
	</g>
</g>
<g id="Calque_3_1_">
	<g>
		<path fill="#EADE00" d="M252.393,155.664c-4.213-0.048-35.668-1.559-35.668-36.144c0-37.069,0-107.323,0-107.323L171.893,1.104
			L138.4,98.874L104.907,1.104L60.074,12.197c0,0,0,70.254,0,107.322c0,34.585-31.455,36.096-35.668,36.144H23.93v105.979H138.4
			h114.47V155.664H252.393z"/>
		<path fill="#EEEEEE" d="M171.893,1.104c0,0-5.91,6.327-33.494,9.424c-27.583-3.097-33.493-9.424-33.493-9.424L138.4,98.874
			L171.893,1.104z"/>
	</g>
	<rect x="23.93" y="183.208" fill="#F4F4E9" width="110.387" height="16.333"/>
	<rect x="142.651" y="183.208" fill="#F4F4E9" width="110.217" height="16.333"/>
	<rect x="23.931" y="224.208" fill="#F4F4E9" width="110.387" height="16.333"/>
	<rect x="142.652" y="224.208" fill="#F4F4E9" width="110.217" height="16.333"/>
</g>
</svg>
