<?xml version="1.0" standalone="no"?><!-- Generator: Gravit.io --><svg xmlns="http://www.w3.org/2000/svg" xmlns:xlink="http://www.w3.org/1999/xlink" style="isolation:isolate" viewBox="0 0 300 300" width="300" height="300"><defs><clipPath id="_clipPath_fJUpnxKp5vv5SZkOEyIaJzRwLoW2t0Et"><rect width="300" height="300"/></clipPath></defs><g clip-path="url(#_clipPath_fJUpnxKp5vv5SZkOEyIaJzRwLoW2t0Et)"><path d=" M 286.495 265.413 L 286.495 284.54 L 228.462 284.54 L 228.462 207.553 L 286.495 265.413 Z " fill="rgb(70,70,70)"/><path d=" M 218.96 198.617 L 218.96 284.54 L 160.928 284.54 L 160.928 209.082 L 186.297 234.722 L 218.96 198.617 Z " fill="rgb(70,70,70)"/><path d=" M 152.319 200.382 L 152.319 284.54 L 94.286 284.54 L 94.286 141.732 L 152.319 200.382 Z " fill="rgb(70,70,70)"/><path d=" M 83.041 130.367 L 83.041 284.54 L 25.008 284.54 L 25.008 71.717 L 83.041 130.367 Z " fill="rgb(70,70,70)"/><path d=" M 83.041 284.54 L 83.041 284.54 L 25.008 284.54 L 25.008 71.717 L 83.041 284.54 Z " fill="rgb(55,55,55)"/><path d=" M 152.319 284.54 L 152.319 284.54 L 94.286 284.54 L 94.286 141.732 L 152.319 284.54 Z " fill="rgb(55,55,55)"/><path d=" M 218.96 284.54 L 218.96 284.54 L 160.928 284.54 L 160.928 209.082 L 218.96 284.54 Z " fill="rgb(55,55,55)"/><path d=" M 286.495 284.54 L 286.495 284.54 L 228.462 284.54 L 228.462 207.553 L 286.495 284.54 Z " fill="rgb(55,55,55)"/><path d=" M 24.403 53.284 L 186.297 217.49 L 221.511 180.103 L 298.056 253.823 L 221.511 139.264 L 186.297 176.483 L 41.262 35.118 L 49.863 26.518 L 1.944 15.46 L 16.688 62.149 L 24.403 53.284 Z " fill="rgb(251,83,156)"/><path d=" M 186.297 176.483 L 186.297 217.49 L 221.511 180.103 L 202.219 160.444 L 186.297 176.483 Z " fill="rgb(185,47,107)"/></g></svg>