<?xml version="1.0" encoding="utf-8"?>
<!-- Generator: Adobe Illustrator 16.0.0, SVG Export Plug-In . SVG Version: 6.00 Build 0)  -->
<!DOCTYPE svg PUBLIC "-//W3C//DTD SVG 1.1//EN" "http://www.w3.org/Graphics/SVG/1.1/DTD/svg11.dtd">
<svg version="1.1" xmlns="http://www.w3.org/2000/svg" xmlns:xlink="http://www.w3.org/1999/xlink" x="0px" y="0px"
	 width="299.991px" height="236.5px" viewBox="0 0 299.991 236.5" enable-background="new 0 0 299.991 236.5" xml:space="preserve">
<g id="Calque_2">
	<circle fill="#FFFFFF" cx="182.522" cy="64.789" r="62.562"/>
</g>
<g id="Calque_1">
	<g>
		<path fill="#007DBA" d="M280.129,72.892c6.244,4.477,9.824,13.021,10.729,25.547c1.438-6.383,1.293-15.479-1.973-22.736
			c-5.609-12.453-14.492-14.11-21.1-15.056c-3.475-0.497-4.561,1.969-5.158,4.647c-1.74,7.764-23.893,106.869-23.893,106.869
			c-4.473-3.888-13.029-5.895-22.484-4.668c-13.223,1.7-23.197,9.063-22.234,16.399c0.969,7.379,12.461,11.972,25.68,10.276
			c13.127-1.675,23.035-8.941,22.264-16.225L266.6,69.808C266.932,67.702,274.061,68.539,280.129,72.892z"/>
		<g>
			<path fill="#FFCB05" d="M226.008,32.409c3.988,1.441,9.129,4.261,13.813,7.055c-6.574-14.758-18.695-26.496-33.709-32.59
				c-0.107,1.003-0.146,2.022-0.08,3.066L226.008,32.409z"/>
			<path fill="#FFCB05" d="M186.583,55.573l29.18-2.961c2.395-7.204,4.285-11.531,6.83-17.957l-20.277-22.857
				c-7.105-0.273-17.158,0.613-23.148,1.459c-1.637,4.867-6.57,20.022-8.129,25.055C176.639,43.8,183.838,51.858,186.583,55.573z"/>
			<path fill="#FFCB05" d="M144.604,47.075c6.922-4.354,14.537-8.747,22.917-11.516c1.705-5.29,6.23-18.604,7.752-23.09
				c-5.045-3.507-9.396-5.538-12.671-6.906c-11.002,3.697-20.635,10.371-27.947,19.052c-1.832,3.955-4.311,10.322-5.436,13.273
				L144.604,47.075z"/>
			<path fill="#FFCB05" d="M145.155,74.948c-1.736-6.193-3.08-17.336-2.482-24.408l-15.445-9.086l-5.162,7.32
				c-1.371,5.156-2.105,10.57-2.105,16.158c0,7.843,1.447,15.354,4.084,22.277c3.117,2.379,6.059,4.875,8.941,6.689L145.155,74.948z
				"/>
			<path fill="#FFCB05" d="M228.346,76.258c-3.406-5.306-8.564-13.779-11.664-19.905l-30.605,3.1
				c-2.826,5.787-8.352,16.557-11.154,21.208l14.758,25.245c6.76-0.556,18.559-1.774,23.686-2.305L228.346,76.258z"/>
			<path fill="#FFCB05" d="M231.965,77.477l-15.275,28.42c1.119,2.62,2.102,6.127,2.648,9.741
				c14.363-10.421,24.117-26.787,25.664-45.482C241.143,72.833,236.194,75.868,231.965,77.477z"/>
			<path fill="#FFCB05" d="M177.135,119.858c2.338-3.316,6.211-8.474,8.922-12.039l-14.436-25.021
				c-5.836,0.142-17.75-1.898-23.74-4.585l-12.266,19.027c2.6,4.934,7.578,12.021,11.342,17.352L177.135,119.858z"/>
			<path fill="#FFCB05" d="M151.501,119.294c9.162,5.256,19.773,8.266,31.089,8.266c0.68,0,1.352-0.016,2.027-0.041
				c-2.84-1.252-5.447-2.521-7.229-3.523L151.501,119.294z"/>
		</g>
		<g>
			<path fill="#007DBA" d="M91.211,107.065c7.693,2.118,15.637-2.404,17.75-10.09c4.295-15.623-12.502-16.623-20.602-22.939
				c-8.416-6.57-8.273-16.664-9.865-13.598C69.565,87.11,81.206,104.313,91.211,107.065z"/>
			<path fill="#FFCB05" d="M124.374,113.474c-1.889-3.369-5.082-6.01-9.102-7.121c-7.989-2.197-16.243,2.496-18.444,10.483
				c-1.115,4.046-0.461,8.149,1.488,11.507l64.979,99.509c0.982,1.318,2.398,2.333,4.107,2.811c4.086,1.119,8.307-1.285,9.43-5.364
				c0.486-1.749,0.32-3.52-0.348-5.065L124.374,113.474z"/>
		</g>
		<g>
			<path fill="#FFCB05" d="M8.264,92.689c8.424-4.128,16.457-6.524,25.602-7.188c9.137-0.662,30.742-0.02,45.002,27.575
				c-1.787,2.475-17.768,21.987-18.662,23.089c-5.838-1.011-26.148-5.786-27.576-25.464C31.204,91.023,13.155,92.076,8.264,92.689z"
				/>
			<g>
				<path fill="#007DBA" d="M188.278,213.417c-1.48-1.687-8.961-8.696-19.275-18.186l11.383,23.322
					c1.004,2.342,1.203,4.962,0.623,7.433C187.233,228.792,193.112,218.927,188.278,213.417z"/>
				<path fill="#007DBA" d="M94.764,130.665l-0.063-0.096l-0.053-0.096c-0.826-1.422-1.381-2.926-1.82-4.464
					c-5.314-4.8-8.572-7.731-8.572-7.731l-18.68,22.828c0,0,37.748,28.25,70.057,52.148L94.764,130.665z"/>
			</g>
		</g>
	</g>
</g>
</svg>
