<?xml version="1.0" encoding="utf-8"?>
<!-- Generator: Adobe Illustrator 16.0.0, SVG Export Plug-In . SVG Version: 6.00 Build 0)  -->
<!DOCTYPE svg PUBLIC "-//W3C//DTD SVG 1.1//EN" "http://www.w3.org/Graphics/SVG/1.1/DTD/svg11.dtd">
<svg version="1.1" id="Calque_1" xmlns="http://www.w3.org/2000/svg" xmlns:xlink="http://www.w3.org/1999/xlink" x="0px" y="0px"
	 width="111.487px" height="300px" viewBox="0 0 111.487 300" enable-background="new 0 0 111.487 300" xml:space="preserve">
<g>
	<path fill-rule="evenodd" clip-rule="evenodd" fill="#ED1C24" d="M99.743,8.268H11.744c-1.104,0-2,0.896-2,2v279.465
		c0,1.104,0.896,2,2,2h87.999c1.105,0,2-0.896,2-2V10.268C101.743,9.163,100.848,8.268,99.743,8.268z M55.744,271.161
		c-11.658,0-21.109-9.451-21.109-21.11c0-11.658,9.451-21.109,21.109-21.109c11.657,0,21.108,9.451,21.108,21.109
		C76.852,261.71,67.401,271.161,55.744,271.161z"/>
	
		<circle fill-rule="evenodd" clip-rule="evenodd" fill="none" stroke="#D1D3D4" stroke-width="3" stroke-miterlimit="10" cx="55.743" cy="250.051" r="21.109"/>
	<rect x="24.744" y="28.069" fill-rule="evenodd" clip-rule="evenodd" fill="#FFFFFF" width="61.999" height="75.538"/>
	<rect x="31.411" y="38.94" fill-rule="evenodd" clip-rule="evenodd" fill="#662D91" width="45.441" height="3.68"/>
	<rect x="31.411" y="51.943" fill-rule="evenodd" clip-rule="evenodd" fill="#662D91" width="45.441" height="3.68"/>
	<rect x="31.411" y="65.838" fill-rule="evenodd" clip-rule="evenodd" fill="#662D91" width="45.441" height="3.68"/>
</g>
</svg>
