<?xml version="1.0" encoding="utf-8"?>
<!-- Generator: Adobe Illustrator 16.0.0, SVG Export Plug-In . SVG Version: 6.00 Build 0)  -->
<!DOCTYPE svg PUBLIC "-//W3C//DTD SVG 1.1//EN" "http://www.w3.org/Graphics/SVG/1.1/DTD/svg11.dtd">
<svg version="1.1" id="Calque_1" xmlns="http://www.w3.org/2000/svg" xmlns:xlink="http://www.w3.org/1999/xlink" x="0px" y="0px"
	 width="200px" height="300px" viewBox="0 0 200 300" enable-background="new 0 0 200 300" xml:space="preserve">
<g>
	<path fill="#FAA61A" d="M106.447,286.129c0,3.082-2.499,5.581-5.581,5.581l0,0c-3.082,0-5.581-2.499-5.581-5.581V103.634
		c0-3.083,2.499-5.581,5.581-5.581l0,0c3.082,0,5.581,2.498,5.581,5.581V286.129z"/>
	<path fill="#D11A6F" d="M100.07,99.218c11.558-17.364,15.657-34.496,15.854-47.707c0.259-17.13-21.797-28.009-24.256-39.801
		c-0.896-4.295-3.5-4.828-6.69,0.028c-3.19,4.858-15.162,21.77-15.373,35.152S77.535,86.466,100.07,99.218z"/>
	<path fill="#D11A6F" d="M100.07,99.218c20.464-4.031,35.511-13.194,45.025-22.36c12.339-11.888,4.519-35.202,11.153-45.256
		c2.416-3.663,0.961-5.886-4.733-4.728c-5.695,1.158-26.132,4.578-35.776,13.856C106.095,50.012,93.24,74.243,100.07,99.218z"/>
	<path fill="#D11A6F" d="M100.07,99.218c17.278,11.683,34.382,15.903,47.591,16.197c17.129,0.381,28.164-21.596,39.974-23.97
		c4.301-0.867,4.854-3.466,0.02-6.691s-21.66-15.318-35.04-15.625C139.233,68.824,112.981,76.774,100.07,99.218z"/>
	<path fill="#D11A6F" d="M100.07,99.218c3.885,20.494,12.938,35.604,22.036,45.185c11.799,12.423,35.17,4.772,45.174,11.479
		c3.646,2.441,5.88,1.003,4.762-4.701c-1.117-5.704-4.391-26.166-13.599-35.874C149.231,105.595,125.094,92.568,100.07,99.218z"/>
	<path fill="#D11A6F" d="M100.07,99.218c-11.809,17.195-16.149,34.268-16.539,47.474c-0.503,17.126,21.393,28.32,23.684,40.146
		c0.835,4.307,3.431,4.877,6.69,0.065c3.26-4.811,15.473-21.549,15.875-34.925C130.182,138.598,122.42,112.29,100.07,99.218z"/>
	<path fill="#D11A6F" d="M100.07,99.218c-20.522,3.735-35.698,12.684-45.343,21.712c-12.508,11.709-5.023,35.134-11.803,45.092
		c-2.466,3.628-1.043,5.871,4.668,4.794c5.711-1.075,26.193-4.201,35.97-13.342C93.34,148.333,106.541,124.288,100.07,99.218z"/>
	<path fill="#D11A6F" d="M100.07,99.218c-17.111-11.932-34.151-16.395-47.354-16.88c-17.122-0.625-28.473,21.188-40.315,23.396
		c-4.311,0.805-4.901,3.396-0.114,6.69c4.788,3.295,21.438,15.628,34.812,16.125C60.475,129.047,86.839,121.472,100.07,99.218z"/>
	<path fill="#D11A6F" d="M100.07,99.218c-3.591-20.55-12.429-35.787-21.386-45.498c-11.62-12.59-35.098-5.274-45.008-12.123
		c-3.609-2.494-5.862-1.087-4.827,4.631c1.035,5.719,4.015,26.225,13.083,36.064C51.005,92.137,74.955,105.509,100.07,99.218z"/>
	<g>
		<path fill="#FAA61A" d="M97.212,105.997c-5.353-4.312-10.771-6.905-15.556-9.196c-13.92-6.664-23.211-11.11-12.153-50.416
			c1,15.311,11.05,29.26,32.203,44.859c2.685,2.88,3.723,5.665,3.03,8.229C103.831,102.826,100.166,105.063,97.212,105.997z"/>
		<path fill="#D11A6F" d="M69.307,48.595c1.782,14.573,11.891,28.011,32.102,42.928c2.601,2.801,3.59,5.44,2.94,7.846
			c-0.843,3.12-4.237,5.24-7.054,6.179c-5.333-4.26-10.71-6.833-15.465-9.11c-7.22-3.457-12.923-6.187-15.445-13.109
			C63.82,76.288,64.713,65.473,69.307,48.595 M69.821,43.819c-16.33,55.935,5.895,45.229,27.305,62.625
			c5.354-1.605,12.579-7.226,4.818-15.522C80.533,75.131,69.821,60.679,69.821,43.819L69.821,43.819z"/>
	</g>
	<g>
		<path fill="#FAA61A" d="M99.462,103.606c-1.973,0-4.227-0.596-6.216-1.638c-0.711-6.837-2.688-12.509-4.434-17.519
			c-5.079-14.573-8.47-24.299,27.213-44.145c-10.161,11.497-12.979,28.456-9.145,54.457
			C106.604,102.059,102.694,103.606,99.462,103.606z"/>
		<path fill="#D11A6F" d="M114.318,41.722c-9.086,11.531-11.5,28.172-7.846,53.023c-0.225,5.534-2.647,8.459-7.011,8.459
			c-1.848,0-3.955-0.542-5.84-1.494c-0.735-6.786-2.696-12.416-4.431-17.394c-2.634-7.559-4.715-13.53-1.579-20.197
			C90.802,57.339,99.105,50.353,114.318,41.722 M118.071,38.721c-51.199,27.82-27.943,36.05-25.203,63.5
			c1.838,0.998,4.26,1.786,6.594,1.786c3.9,0,7.554-2.202,7.816-9.306C103.397,68.383,106.106,50.599,118.071,38.721L118.071,38.721
			z"/>
	</g>
	<g>
		<path fill="#FAA61A" d="M101.383,104.1c-4.474,0-7.144-4.8-8.072-7.787c4.35-5.322,6.982-10.721,9.308-15.49
			c4.787-9.817,8.245-16.911,22.587-16.911c6.857,0,16.007,1.677,27.915,5.12c-15.32,0.889-29.328,10.826-45.087,31.879
			C105.748,103.009,103.494,104.1,101.383,104.1z"/>
		<path fill="#D11A6F" d="M125.205,64.313c6.411,0,14.85,1.478,25.701,4.507c-14.585,1.677-28.082,11.678-43.149,31.791
			c-2.238,2.049-4.383,3.087-6.374,3.087c-4.142,0-6.675-4.413-7.624-7.301c4.297-5.302,6.91-10.66,9.22-15.398
			C107.702,71.312,111.114,64.313,125.205,64.313 M125.205,63.51c-21.854,0-19.095,16.646-32.341,32.713
			c1.079,3.688,4.05,8.278,8.519,8.278c2.027,0,4.364-0.946,6.972-3.35c15.852-21.177,30.306-31.784,47.045-31.784
			c0.095,0,0.19,0,0.285,0.001C142,65.266,132.305,63.51,125.205,63.51L125.205,63.51z"/>
	</g>
	<g>
		<path fill="#FAA61A" d="M158.866,115.592c-8.378-7.523-19.566-11.044-34.947-11.044c-5.812,0-12.17,0.495-19.439,1.514
			c-3.933-0.181-6.623-1.445-7.922-3.763c-1.698-3.027-0.644-7.19,0.812-9.924c6.842-0.663,12.527-2.599,17.55-4.309
			c4.854-1.652,9.045-3.08,13.238-3.08C135.426,84.986,144.179,88.756,158.866,115.592z"/>
		<path fill="#D11A6F" d="M128.157,85.388L128.157,85.388c6.97,0,15.352,3.566,29.295,28.478
			c-8.253-6.611-19.051-9.719-33.533-9.719c-5.81,0-12.162,0.493-19.421,1.507c-3.818-0.182-6.372-1.377-7.591-3.551
			c-1.581-2.818-0.638-6.708,0.717-9.35c6.792-0.687,12.433-2.608,17.424-4.308C119.868,86.805,124.03,85.388,128.157,85.388
			 M128.157,84.585c-8.758,0-17.624,6.167-31.039,7.411c-2.7,4.891-3.934,13.962,7.417,14.464c7.063-0.99,13.505-1.51,19.384-1.51
			c16.053,0,27.886,3.884,36.518,12.704C146.39,91.355,137.333,84.584,128.157,84.585L128.157,84.585z"/>
	</g>
	<g>
		<path fill="#FAA61A" d="M129.876,152.484c-0.78-15.325-10.63-29.416-31.556-45.315c-2.643-2.918-3.64-5.718-2.911-8.272
			c0.952-3.337,4.649-5.522,7.615-6.416c5.291,4.388,10.671,7.059,15.423,9.418C132.27,108.761,141.496,113.34,129.876,152.484z"/>
		<path fill="#D11A6F" d="M102.936,92.929c5.271,4.335,10.61,6.986,15.332,9.33c7.171,3.56,12.835,6.371,15.256,13.33
			c2.463,7.077,1.416,17.878-3.42,34.689c-1.572-14.597-11.487-28.178-31.481-43.382c-2.56-2.838-3.511-5.492-2.828-7.888
			C96.681,95.899,100.105,93.828,102.936,92.929 M103.116,92.036c-5.373,1.529-12.68,7.044-5.039,15.453
			c21.182,16.094,31.686,30.697,31.443,47.557C146.651,99.35,124.277,109.736,103.116,92.036L103.116,92.036z"/>
	</g>
	<g>
		<path fill="#FAA61A" d="M83.272,157.898c10.324-11.35,13.384-28.268,9.923-54.321c0.378-7.209,4.234-8.738,7.403-8.738
			c2.01,0,4.307,0.628,6.334,1.729c0.613,6.846,2.509,12.545,4.183,17.58C115.985,128.792,119.237,138.565,83.272,157.898z"/>
		<path fill="#D11A6F" d="M100.599,94.438v0.803l0,0c1.883,0,4.031,0.572,5.953,1.58c0.639,6.795,2.52,12.452,4.183,17.454
			c2.526,7.596,4.521,13.596,1.29,20.217c-3.286,6.734-11.689,13.601-27.025,22.013c9.25-11.4,11.901-28.005,8.604-52.906
			c0.301-5.468,2.719-8.357,6.996-8.358L100.599,94.438 M100.598,94.438c-3.844,0-7.44,2.184-7.801,9.193
			c3.503,26.37,0.54,44.115-11.593,55.821c51.593-27.084,28.458-35.645,26.109-63.131C105.451,95.273,102.978,94.438,100.598,94.438
			L100.598,94.438z"/>
	</g>
	<g>
		<path fill="#FAA61A" d="M75.028,134.165c-6.922,0-16.241-1.809-28.433-5.524c15.333-0.665,29.457-10.375,45.538-31.229
			c2.282-2.034,4.521-3.093,6.607-3.093c4.524,0,7.153,4.873,8.045,7.903c-4.426,5.258-7.135,10.619-9.527,15.354
			C92.39,127.206,88.873,134.164,75.028,134.165z"/>
		<path fill="#D11A6F" d="M98.74,94.719L98.74,94.719c4.188,0,6.683,4.48,7.598,7.411c-4.373,5.24-7.061,10.559-9.438,15.264
			c-4.803,9.503-8.273,16.37-21.872,16.37c-6.482,0-15.09-1.6-26.221-4.879c14.607-1.463,28.224-11.248,43.598-31.169
			C94.64,95.728,96.771,94.72,98.74,94.719 M98.74,93.917c-2.006,0-4.324,0.92-6.925,3.249c-15.971,20.71-30.425,31.11-46.924,31.11
			c-0.284,0-0.571-0.003-0.856-0.009c14.015,4.421,23.843,6.3,30.994,6.3c21.204,0,18.854-16.521,32.202-32.249
			C106.198,98.587,103.261,93.916,98.74,93.917L98.74,93.917z"/>
	</g>
	<g>
		<path fill="#FAA61A" d="M72.045,113.048c-7.348,0-16.136-3.827-30.53-31.045c8.52,7.873,20.125,11.556,36.256,11.556
			c5.427,0,11.312-0.408,17.988-1.246c3.93,0.237,6.602,1.541,7.867,3.876c1.653,3.052,0.539,7.199-0.956,9.911
			c-6.849,0.564-12.563,2.419-17.609,4.057C80.281,111.708,76.153,113.048,72.045,113.048z"/>
		<path fill="#D11A6F" d="M42.904,83.749c8.426,6.948,19.65,10.211,34.867,10.211c5.424,0,11.301-0.405,17.964-1.24
			c3.815,0.237,6.351,1.469,7.539,3.66c1.539,2.841,0.54,6.716-0.854,9.337c-6.799,0.589-12.469,2.429-17.483,4.057
			c-4.748,1.542-8.849,2.873-12.893,2.873C64.998,112.646,56.585,109.031,42.904,83.749 M39.975,79.919
			c13.803,26.76,22.8,33.53,32.071,33.53c8.67,0,17.58-5.928,30.871-6.967c2.771-4.851,4.136-13.902-7.206-14.568
			c-6.493,0.815-12.457,1.243-17.938,1.243C60.968,93.157,48.733,89.133,39.975,79.919L39.975,79.919z"/>
	</g>
	<circle fill="#D11A6F" stroke="#FAA61A" stroke-width="0.8029" stroke-miterlimit="10" cx="100.07" cy="99.218" r="8.267"/>
</g>
</svg>
