<?xml version="1.0" encoding="utf-8"?>
<!-- Generator: Adobe Illustrator 16.0.0, SVG Export Plug-In . SVG Version: 6.00 Build 0)  -->
<!DOCTYPE svg PUBLIC "-//W3C//DTD SVG 1.1//EN" "http://www.w3.org/Graphics/SVG/1.1/DTD/svg11.dtd">
<svg version="1.1" id="Calque_1" xmlns="http://www.w3.org/2000/svg" xmlns:xlink="http://www.w3.org/1999/xlink" x="0px" y="0px"
	 width="200px" height="300px" viewBox="0 0 200 300" enable-background="new 0 0 200 300" xml:space="preserve">
<g>
	<path d="M106.447,286.129c0,3.082-2.499,5.581-5.582,5.581l0,0c-3.082,0-5.581-2.499-5.581-5.581V103.634
		c0-3.083,2.499-5.581,5.581-5.581l0,0c3.083,0,5.582,2.498,5.582,5.581V286.129z"/>
	<path fill="#ED1C24" d="M100.07,99.218c11.558-17.364,15.658-34.496,15.855-47.707c0.259-17.13-21.797-28.009-24.256-39.801
		c-0.896-4.295-3.5-4.828-6.69,0.028c-3.19,4.858-15.162,21.77-15.373,35.152S77.535,86.466,100.07,99.218z"/>
	<path fill="#FAA61A" d="M100.07,99.218c20.464-4.031,35.511-13.194,45.026-22.36c12.339-11.888,4.519-35.202,11.153-45.256
		c2.416-3.663,0.961-5.886-4.733-4.728c-5.695,1.158-26.132,4.578-35.776,13.856C106.095,50.012,93.24,74.243,100.07,99.218z"/>
	<path fill="#80C342" d="M100.07,99.218c17.279,11.683,34.382,15.903,47.591,16.197c17.129,0.381,28.164-21.596,39.974-23.97
		c4.301-0.867,4.854-3.466,0.02-6.691s-21.66-15.318-35.04-15.625C139.233,68.824,112.981,76.774,100.07,99.218z"/>
	<path fill="#00A77E" d="M100.07,99.218c3.885,20.494,12.939,35.604,22.037,45.185c11.799,12.423,35.17,4.772,45.174,11.479
		c3.646,2.441,5.88,1.003,4.762-4.701c-1.117-5.704-4.391-26.166-13.599-35.874C149.231,105.595,125.094,92.568,100.07,99.218z"/>
	<path fill="#00AEEF" d="M100.07,99.218c-11.809,17.195-16.149,34.268-16.539,47.474c-0.503,17.126,21.393,28.32,23.684,40.146
		c0.835,4.307,3.431,4.877,6.69,0.065c3.26-4.811,15.473-21.549,15.875-34.925C130.182,138.598,122.42,112.29,100.07,99.218z"/>
	<path fill="#0A4E9B" d="M100.07,99.218c-20.522,3.735-35.698,12.684-45.343,21.712c-12.508,11.709-5.023,35.134-11.803,45.092
		c-2.466,3.628-1.043,5.871,4.668,4.794c5.711-1.075,26.193-4.201,35.97-13.342C93.339,148.333,106.541,124.288,100.07,99.218z"/>
	<path fill="#92278F" d="M100.07,99.218c-17.111-11.932-34.151-16.395-47.354-16.88c-17.122-0.625-28.473,21.188-40.315,23.396
		c-4.311,0.805-4.901,3.396-0.114,6.69c4.788,3.295,21.438,15.628,34.812,16.125C60.474,129.047,86.838,121.472,100.07,99.218z"/>
	<path fill="#D11A6F" d="M100.07,99.218c-3.591-20.55-17.642-15.313-26.599-25.023c-2.547-2.76-5.125-20.44-3.871-26.244
		c-12.179-4.293-28.187-1.006-35.924-6.354c-3.609-2.494-5.862-1.087-4.827,4.631c1.035,5.719,4.015,26.225,13.083,36.064
		C51.004,92.137,74.955,105.509,100.07,99.218z"/>
	<g>
		<path fill="#F04E37" d="M97.232,105.887c-5.349-4.299-10.756-6.888-15.534-9.175c-13.811-6.611-23.05-11.033-12.253-49.756
			c1.209,15.121,11.284,28.941,32.202,44.368c2.646,2.841,3.677,5.595,2.993,8.125C103.752,102.743,100.153,104.951,97.232,105.887z
			"/>
		<g>
			<path fill="#ED1C24" d="M69.243,49.599c2.113,14.251,12.236,27.458,32.033,42.072c2.543,2.743,3.513,5.315,2.883,7.647
				c-0.813,3.008-4.076,5.07-6.826,6.009c-5.323-4.234-10.679-6.797-15.418-9.066c-7.18-3.437-12.851-6.152-15.345-12.999
				C64.105,76.495,64.948,65.719,69.243,49.599 M69.821,43.819c-16.33,55.935,5.895,45.229,27.305,62.625
				c5.354-1.605,12.58-7.226,4.819-15.522C80.533,75.131,69.821,60.679,69.821,43.819L69.821,43.819z"/>
		</g>
	</g>
	<g>
		<path fill="#FFC40C" d="M99.461,103.507c-1.942,0-4.16-0.582-6.124-1.603c-0.717-6.825-2.69-12.486-4.434-17.489
			c-5.039-14.458-8.411-24.13,26.676-43.751c-9.879,11.511-12.588,28.397-8.797,54.109
			C106.509,101.976,102.65,103.507,99.461,103.507z"/>
		<g>
			<path fill="#FAA61A" d="M113.562,42.383c-8.624,11.54-10.864,28.028-7.286,52.372c-0.225,5.399-2.579,8.252-6.814,8.252
				c-1.787,0-3.822-0.516-5.655-1.425c-0.746-6.761-2.7-12.368-4.43-17.331c-2.62-7.517-4.688-13.454-1.586-20.048
				C90.856,57.687,99.097,50.693,113.562,42.383 M118.071,38.721c-51.2,27.82-27.944,36.05-25.204,63.5
				c1.838,0.998,4.26,1.786,6.594,1.786c3.901,0,7.554-2.202,7.817-9.306C103.397,68.383,106.106,50.599,118.071,38.721
				L118.071,38.721z"/>
		</g>
	</g>
	<g>
		<path fill="#B7D433" d="M101.382,104.001c-4.391,0-7.028-4.704-7.962-7.668c4.337-5.317,6.965-10.706,9.286-15.468
			c4.771-9.785,8.219-16.855,22.499-16.855c6.743,0,15.71,1.625,27.345,4.96c-15.131,1.099-29.011,11.062-44.596,31.882
			C105.7,102.919,103.468,104.001,101.382,104.001z"/>
		<g>
			<path fill="#80C342" d="M125.205,64.51c6.206,0,14.323,1.39,24.704,4.238c-14.267,2.008-27.536,12.026-42.3,31.729
				c-2.195,2.006-4.29,3.023-6.228,3.023c-3.982,0-6.446-4.228-7.402-7.064c4.271-5.293,6.874-10.629,9.177-15.353
				C107.848,71.462,111.237,64.51,125.205,64.51 M125.205,63.51c-21.854,0-19.095,16.646-32.341,32.713
				c1.079,3.688,4.05,8.278,8.518,8.278c2.028,0,4.365-0.946,6.973-3.35c15.852-21.177,30.306-31.784,47.045-31.784
				c0.095,0,0.19,0,0.285,0.001C141.999,65.266,132.304,63.51,125.205,63.51L125.205,63.51z"/>
		</g>
	</g>
	<g>
		<path fill="#0FB799" d="M158.507,115.143c-8.349-7.282-19.439-10.693-34.588-10.693c-5.815,0-12.179,0.496-19.453,1.515
			c-3.879-0.18-6.542-1.428-7.823-3.713c-1.669-2.976-0.643-7.071,0.788-9.783c6.83-0.669,12.505-2.602,17.52-4.309
			c4.846-1.649,9.029-3.074,13.207-3.074C135.351,85.085,144.01,88.803,158.507,115.143z"/>
		<g>
			<path fill="#00A77E" d="M128.157,85.585L128.157,85.585c6.83,0,15.037,3.472,28.641,27.52
				c-8.186-6.224-18.799-9.155-32.879-9.155c-5.813,0-12.17,0.493-19.431,1.507c-3.735-0.182-6.228-1.342-7.41-3.449
				c-1.524-2.718-0.634-6.474,0.672-9.068c6.766-0.698,12.387-2.612,17.36-4.306C119.915,86.997,124.063,85.585,128.157,85.585
				 M128.157,84.585c-8.758,0-17.624,6.167-31.04,7.411c-2.7,4.891-3.934,13.962,7.417,14.464c7.063-0.99,13.505-1.51,19.384-1.51
				c16.053,0,27.886,3.884,36.518,12.704C146.39,91.355,137.333,84.584,128.157,84.585L128.157,84.585z"/>
		</g>
	</g>
	<g>
		<path fill="#00C2F3" d="M129.941,151.914c-0.992-15.137-10.867-29.1-31.563-44.823c-2.604-2.879-3.595-5.648-2.876-8.167
			c0.936-3.281,4.565-5.438,7.499-6.333c5.286,4.375,10.656,7.041,15.4,9.396C132.117,108.795,141.293,113.349,129.941,151.914z"/>
		<g>
			<path fill="#00AEEF" d="M102.894,93.149c5.262,4.31,10.58,6.95,15.287,9.286c7.13,3.54,12.762,6.335,15.157,13.218
				c2.367,6.802,1.369,17.564-3.156,33.622c-1.908-14.28-11.841-27.63-31.426-42.525c-2.502-2.779-3.435-5.365-2.772-7.688
				C96.838,96.065,100.131,94.05,102.894,93.149 M103.116,92.036c-5.374,1.529-12.68,7.044-5.04,15.453
				c21.182,16.094,31.686,30.697,31.444,47.557C146.651,99.35,124.277,109.736,103.116,92.036L103.116,92.036z"/>
		</g>
	</g>
	<g>
		<path fill="#006EB1" d="M83.722,157.544c10.042-11.369,12.992-28.215,9.57-53.979c0.375-7.114,4.179-8.627,7.306-8.627
			c1.979,0,4.24,0.615,6.241,1.692c0.62,6.834,2.512,12.522,4.184,17.549C115.854,128.708,119.087,138.427,83.722,157.544z"/>
		<g>
			<path fill="#0A4E9B" d="M100.599,94.438v1h0c1.822,0,3.897,0.546,5.767,1.508c0.649,6.77,2.523,12.404,4.182,17.391
				c2.512,7.554,4.496,13.52,1.3,20.068c-3.159,6.473-11.498,13.347-26.083,21.45c8.788-11.415,11.264-27.87,8.035-52.263
				c0.302-5.41,2.589-8.153,6.798-8.154L100.599,94.438 M100.598,94.438c-3.844,0-7.44,2.184-7.801,9.193
				c3.503,26.37,0.54,44.115-11.593,55.821c51.593-27.084,28.458-35.645,26.11-63.131C105.451,95.273,102.978,94.438,100.598,94.438
				L100.598,94.438z"/>
		</g>
	</g>
	<g>
		<path fill="#A256A2" d="M75.027,134.066c-6.809,0-15.946-1.754-27.863-5.356c15.146-0.877,29.143-10.616,45.046-31.239
			c2.25-2.004,4.468-3.054,6.529-3.054c4.441,0,7.037,4.775,7.936,7.782c-4.412,5.254-7.116,10.604-9.505,15.332
			C92.317,127.13,88.812,134.065,75.027,134.066z"/>
		<g>
			<path fill="#92278F" d="M98.74,94.917L98.74,94.917c4.028,0,6.456,4.293,7.377,7.17c-4.346,5.23-7.024,10.529-9.394,15.218
				c-4.771,9.44-8.219,16.261-21.696,16.261c-6.28,0-14.566-1.507-25.225-4.596c14.292-1.798,27.684-11.606,42.746-31.12
				C94.742,95.904,96.825,94.917,98.74,94.917 M98.739,93.917c-2.006,0-4.324,0.92-6.925,3.249
				c-15.971,20.71-30.425,31.11-46.924,31.11c-0.284,0-0.571-0.003-0.856-0.009c14.015,4.421,23.843,6.3,30.994,6.3
				c21.204,0,18.854-16.521,32.202-32.249C106.198,98.587,103.261,93.916,98.739,93.917L98.739,93.917z"/>
		</g>
	</g>
	<g>
		<path fill="#D85B86" d="M72.045,112.949c-7.272,0-15.965-3.773-30.178-30.492c8.499,7.627,20.009,11.2,35.904,11.2
			c5.432,0,11.32-0.408,18.001-1.247c3.875,0.236,6.52,1.522,7.768,3.826c1.626,3,0.54,7.079-0.931,9.769
			c-6.837,0.571-12.539,2.422-17.578,4.057C80.259,111.611,76.137,112.949,72.045,112.949z"/>
		<g>
			<path fill="#D11A6F" d="M43.547,84.519c8.372,6.554,19.416,9.638,34.224,9.638c5.428,0,11.307-0.405,17.971-1.239
				c3.732,0.236,6.208,1.432,7.359,3.557c1.484,2.739,0.54,6.481-0.804,9.056c-6.774,0.601-12.422,2.434-17.42,4.056
				c-4.732,1.536-8.819,2.863-12.832,2.863C65.138,112.449,56.899,108.928,43.547,84.519 M39.974,79.919
				c13.803,26.76,22.8,33.53,32.071,33.53c8.67,0,17.58-5.928,30.871-6.967c2.771-4.851,4.136-13.902-7.207-14.568
				c-6.493,0.815-12.457,1.243-17.938,1.243C60.968,93.157,48.733,89.133,39.974,79.919L39.974,79.919z"/>
		</g>
	</g>
	<circle fill="#FFFFFF" stroke="#FFFFFF" stroke-width="0.8029" stroke-miterlimit="10" cx="100.07" cy="99.218" r="8.267"/>
</g>
</svg>
