<?xml version="1.0" encoding="utf-8"?>
<!-- Generator: Adobe Illustrator 16.0.0, SVG Export Plug-In . SVG Version: 6.00 Build 0)  -->
<!DOCTYPE svg PUBLIC "-//W3C//DTD SVG 1.1//EN" "http://www.w3.org/Graphics/SVG/1.1/DTD/svg11.dtd">
<svg version="1.1" id="Calque_1" xmlns="http://www.w3.org/2000/svg" xmlns:xlink="http://www.w3.org/1999/xlink" x="0px" y="0px"
	 width="230px" height="300px" viewBox="0 0 230 300" enable-background="new 0 0 230 300" xml:space="preserve">
<g>
	<path fill="#FFCB05" d="M119.733,288.493c0,1.789-1.451,3.239-3.24,3.239h-2.991c-1.788,0-3.238-1.45-3.238-3.239V115.77
		c0-1.789,1.45-3.239,3.238-3.239h2.991c1.789,0,3.24,1.45,3.24,3.239V288.493z"/>
	<path fill="#007DBA" d="M114.998,112.53L188.103,8.731c-26.739-0.953-63.304-3.082-82.844,25.178
		c-19.541,28.261-34.05,47.784-34.05,47.784L114.998,112.53z"/>
	<path fill="#FFCB05" d="M114.998,112.53l4.976-7.064c8.057-21.563-25.444-37.832-14.715-71.557
		c-19.541,28.261-34.05,47.784-34.05,47.784L114.998,112.53z"/>
	<path fill="#007DBA" d="M115,112.53l103.798,73.103c0.954-26.739,3.082-63.303-25.178-82.843
		c-28.26-19.542-47.784-34.05-47.784-34.05L115,112.53z"/>
	<path fill="#FFCB05" d="M115,112.53l7.065,4.975c21.563,8.058,37.832-25.444,71.556-14.715
		c-28.26-19.542-47.784-34.05-47.784-34.05L115,112.53z"/>
	<path fill="#007DBA" d="M115.003,112.531L41.899,216.329c26.739,0.954,63.303,3.081,82.844-25.178
		c19.541-28.26,34.051-47.784,34.051-47.784L115.003,112.531z"/>
	<path fill="#FFCB05" d="M115.003,112.531l-4.977,7.064c-8.056,21.562,25.445,37.831,14.716,71.556
		c19.541-28.26,34.051-47.784,34.051-47.784L115.003,112.531z"/>
	<path fill="#007DBA" d="M115,112.541L11.202,39.438c-0.954,26.739-3.082,63.303,25.177,82.844
		c28.261,19.541,47.784,34.05,47.784,34.05L115,112.541z"/>
	<path fill="#FFCB05" d="M115,112.541l-7.064-4.976c-21.562-8.057-37.832,25.445-71.557,14.716
		c28.261,19.541,47.784,34.05,47.784,34.05L115,112.541z"/>
	<circle fill="#007DBA" cx="115" cy="112.541" r="10.673"/>
</g>
</svg>
