<?xml version="1.0" standalone="no"?>
<!DOCTYPE svg PUBLIC "-//W3C//DTD SVG 1.1//EN" "http://www.w3.org/Graphics/SVG/1.1/DTD/svg11.dtd" >
<svg xmlns="http://www.w3.org/2000/svg" xmlns:xlink="http://www.w3.org/1999/xlink" version="1.1">
<metadata></metadata>
<defs>
<font id="kosovaregular" horiz-adv-x="999" >
<font-face units-per-em="2048" ascent="1638" descent="-410" />
<missing-glyph horiz-adv-x="569" />
<glyph horiz-adv-x="0" />
<glyph unicode="&#xd;" horiz-adv-x="569" />
<glyph unicode=" "  horiz-adv-x="569" />
<glyph unicode="&#x09;" horiz-adv-x="569" />
<glyph unicode="&#xa0;" horiz-adv-x="569" />
<glyph unicode="!" horiz-adv-x="294" d="M0 0v181q0 32 25 60q28 27 67 27h88v-182q-1 -33 -28 -62q-10 -8 -17 -12q-22 -12 -42 -12h-93zM0 335v1024q0 33 28 62q9 8 17 12q21 12 42 12h93v-1023q-1 -34 -27 -61q-28 -26 -62 -26h-91z" />
<glyph unicode="&#x22;" horiz-adv-x="549" d="M0 926v519h84q39 0 61 -19q15 -12 22 -26q13 -18 13 -52v-513h-93q-34 0 -64 30q-23 26 -23 61zM268 925v520h84q38 0 60 -18q16 -12 24 -27q11 -21 11 -41v-524h-91q-39 0 -69 34q-19 26 -19 56z" />
<glyph unicode="#" horiz-adv-x="1054" d="M0 384v92q0 32 26 61l13 9q23 16 48 16h71l83 335h-114v87q0 57 52 85q19 7 37 7h69l75 305q5 17 21 36q17 19 46 26q10 2 15 2h118l-91 -369h199l76 309q7 18 22 34q18 17 34 21q15 5 25 5h118l-91 -369h114v-91q0 -39 -33 -67q-25 -21 -56 -21h-69l-83 -335h114v-86 q0 -52 -43 -80q-21 -13 -48 -13h-67q-75 -306 -80 -323q-13 -35 -47 -52q-20 -8 -33 -8h-119l70 283q25 98 25 100h-199q-72 -293 -80 -323q-7 -18 -21 -34q-18 -16 -34 -21q-15 -5 -25 -5h-119l94 379l1 4h-113zM342 562h199l83 335h-199z" />
<glyph unicode="$" d="M0 1075v11q0 82 40 163q15 27 39 58q27 35 63 64q102 75 226 75q0 17 16 38q14 16 25 21q19 9 33 9h84l1 -1v-67h188v-87q0 -53 -46 -81q-20 -11 -46 -11h-96v-380q36 -8 62 -16q48 -17 82 -38q29 -17 60 -42q36 -30 65 -65q32 -43 46 -70q14 -26 27 -64q24 -72 24 -139 v-13q0 -94 -46 -191q-15 -31 -42 -70q-16 -19 -30 -35q-32 -32 -47 -44q-35 -28 -62 -42q-32 -19 -73 -33q-25 -10 -67 -17v-2q0 -22 -19 -47q-17 -16 -29 -20q-15 -7 -27 -7h-84l-1 2v66h-188v87q0 53 46 81q20 11 46 11h96v536h-6q-98 0 -190 57q-24 14 -55 42 q-27 27 -41 44q-34 48 -46 81q-28 68 -28 136zM178 1079q0 -77 62 -136q55 -50 126 -50v374h-3q-50 0 -98 -29q-13 -8 -37 -32q-50 -55 -50 -127zM527 191q20 7 39 16q33 16 58 39q4 3 28 29q63 77 63 173q0 87 -55 162q-10 13 -35 37q-43 37 -91 52l-7 3v-511z" />
<glyph unicode="%" horiz-adv-x="948" d="M0 1094v9q0 52 31 104q9 13 30 36l10 8q58 48 130 48q79 0 141 -58q21 -23 30 -38q29 -51 29 -100v-3l1 -2l-1 -1v-4q0 -48 -28 -99q-39 -61 -108 -86q-32 -11 -63 -11h-3q-73 0 -133 52q-24 24 -31 37q-35 52 -35 108zM80 1098q0 -52 42 -91q36 -29 79 -29q49 0 87 37 q33 37 33 84q0 53 -44 92q-34 28 -76 28q-56 0 -94 -45q-27 -34 -27 -76zM152 0l141 572l103 418l97 394q7 19 21 34q17 16 31 21q16 6 30 6h117l-141 -572l-103 -418l-97 -394q-7 -19 -21 -34q-17 -16 -31 -21q-16 -6 -30 -6h-117zM442 361l1 2v3q0 53 32 105q40 59 106 81 q32 10 58 10h9q52 0 103 -31q57 -36 82 -103q11 -33 11 -62v-10q0 -52 -33 -105q-39 -58 -106 -81q-32 -9 -57 -9h-9q-52 0 -103 31q-58 36 -82 103q-11 32 -11 61v4zM523 361q0 -54 45 -93q34 -27 75 -27q50 0 87 37q34 37 34 84q0 53 -44 92q-35 28 -77 28q-49 0 -87 -38 q-33 -36 -33 -83z" />
<glyph unicode="&#x26;" horiz-adv-x="979" d="M0 442v11q0 98 49 197q16 31 41 65l3 4q-12 47 -12 89v275q0 108 65 205q15 21 36 44q35 35 48 42q21 16 50 31q81 40 161 40h11q86 0 172 -46q28 -15 62 -43q31 -28 41 -42q20 -25 33 -45q52 -90 52 -186v-6q0 -113 -69 -211q-12 -18 -43 -50q-41 -37 -70 -52 q-23 -14 -49 -24q-63 -26 -145 -26q-30 0 -75 -14q-25 -9 -46 -20q28 -27 52 -37q17 -9 41 -14q15 -4 53 -4h102q28 0 55 -21q32 -28 32 -67v-91h-199q-146 0 -253 98q-1 0 -8 -20q-11 -39 -11 -74v-5q0 -90 58 -166q28 -32 46 -44q73 -56 164 -56h3q68 0 134 38 q77 46 112 132q7 19 12 39q14 34 46 50q19 9 39 9h100v-5q0 -112 -59 -217q-17 -32 -48 -69q-32 -35 -54 -53q-39 -31 -65 -45q-26 -15 -56 -27q-80 -31 -159 -31h-11q-113 0 -221 61q-29 18 -64 46q-35 31 -53 54q-24 30 -38 52q-65 110 -65 229zM260 853q28 12 54 20 q21 7 61 15q39 6 86 6q9 0 38 7q22 7 39 16q15 8 38 28q25 27 35 47q22 42 22 86v3q0 56 -33 105q-8 13 -31 34q-19 16 -36 25q-42 21 -84 21h-5q-59 0 -111 -38q-27 -23 -36 -37q-37 -51 -37 -110v-228z" />
<glyph unicode="'" horiz-adv-x="301" d="M0 926v519h84q39 0 61 -19q15 -12 22 -26q13 -18 13 -52v-513h-93q-34 0 -64 30q-23 26 -23 61z" />
<glyph unicode="(" horiz-adv-x="401" d="M0 85v1274q0 103 51 203q15 28 40 63q14 19 49 55l13 11q34 29 58 43q41 25 83 40q74 27 148 27h94v-92q0 -33 -27 -62q-21 -18 -39 -22q-12 -3 -41 -3q-30 -3 -56 -10q-34 -11 -55 -23q-20 -11 -43 -29q-28 -25 -38 -39q-58 -75 -58 -168v-1262q0 -108 77 -189 q29 -28 52 -41q64 -39 147 -39q14 -2 25 -6q15 -5 32 -22q24 -28 24 -58v-93h-94q-111 0 -217 59q-32 19 -69 48q-38 36 -52 53q-26 32 -39 54q-23 38 -38 79q-27 76 -27 149z" />
<glyph unicode=")" horiz-adv-x="401" d="M-240 -357l1 93q0 33 27 61q21 18 38 22q12 4 41 4q31 2 57 10q33 10 55 22q20 11 42 29q28 25 39 40q57 74 57 167v1262q0 109 -77 190q-29 28 -51 41q-64 38 -147 38q-14 2 -25 6q-15 6 -33 23q-23 28 -23 58l-1 92h95q111 0 217 -59q32 -18 68 -48q39 -35 52 -53 q26 -32 39 -54q23 -38 38 -79q27 -76 27 -149v-1274q0 -103 -51 -203q-14 -28 -40 -62q-14 -20 -49 -55l-12 -11q-35 -30 -59 -44q-40 -25 -82 -40q-74 -27 -148 -27h-95z" />
<glyph unicode="*" horiz-adv-x="700" d="M0 1066l129 74v1q-51 29 -63 37q-34 29 -34 70q0 29 21 58l36 64l130 -74v54q0 63 55 88q17 7 31 7h93v-150q51 31 61 35q19 8 35 8q38 0 67 -30q8 -8 25 -39l31 -53l-89 -52l-40 -23l56 -33q40 -30 40 -75q0 -27 -17 -54l-40 -68l-129 75v-63q0 -35 -29 -63 q-17 -15 -35 -20q-11 -4 -36 -4h-79v149h-1q-52 -31 -63 -35q-18 -7 -33 -7q-43 0 -72 36q-7 10 -50 87z" />
<glyph unicode="+" horiz-adv-x="844" d="M0 719v93h286v196q0 48 42 76q22 14 46 14h92l-1 -286h196q49 0 78 -43q7 -12 11 -29q2 -10 2 -27v-80h-287v-196q0 -47 -41 -76q-22 -14 -49 -14h-89v286h-199q-34 0 -62 27q-25 28 -25 59z" />
<glyph unicode="," horiz-adv-x="254" d="M-356 -357l1 93q0 31 24 59q19 17 32 21q13 7 50 7q27 2 40 5q25 6 44 14q100 42 145 141q10 25 16 50q5 27 5 66v258h83q33 0 52 -12q28 -17 40 -49q4 -14 4 -28v-178q0 -154 -97 -279q-12 -15 -43 -46q-43 -39 -69 -53q-39 -25 -84 -42q-75 -27 -148 -27h-95z" />
<glyph unicode="-" horiz-adv-x="851" d="M0 720v92h665q33 0 62 -28q20 -23 23 -46q2 -9 2 -26v-79h-657q-62 0 -88 55q-7 17 -7 32z" />
<glyph unicode="." horiz-adv-x="265" d="M-2 0v356l82 1q35 0 53 -13q27 -15 39 -47q5 -14 5 -29v-268h-179z" />
<glyph unicode="/" horiz-adv-x="569" d="M0 0l113 455l112 456l102 413q13 56 19 69t21 29q21 17 42 21q9 2 14 2h119l-113 -455l-113 -456l-101 -413q-14 -55 -18 -67q-6 -14 -20 -28q-14 -17 -44 -24q-9 -2 -14 -2h-119z" />
<glyph unicode="0" d="M0 442v561q0 112 59 217q17 32 48 68q32 36 54 54q39 31 65 45q26 15 56 27q80 31 159 31h11q113 0 221 -61q29 -18 64 -46q38 -34 52 -53q26 -32 39 -54q19 -30 39 -80q26 -75 26 -148v-561q0 -112 -59 -217q-17 -32 -48 -69q-32 -35 -54 -53q-39 -31 -65 -45 q-26 -15 -56 -27q-80 -31 -159 -31h-11q-113 0 -221 61q-29 18 -64 46q-35 31 -53 54q-24 30 -38 52q-65 110 -65 229zM179 445q0 -87 55 -161q9 -13 33 -36q79 -69 179 -69h1q96 0 174 64q26 24 35 37q58 75 58 165v555q0 87 -55 161q-10 13 -32 35q-37 32 -65 44 q-55 26 -115 26h-1q-96 0 -174 -64q-27 -25 -37 -39q-56 -75 -56 -163v-555z" />
<glyph unicode="1" horiz-adv-x="480" d="M0 1353v92h358v-1445h-92q-37 0 -67 32q-20 26 -20 58v1176h-85q-58 0 -85 51q-9 19 -9 36z" />
<glyph unicode="2" d="M0 0v183q0 120 67 231q76 120 207 177q26 11 73 23q45 9 60 9q14 2 59 3q28 2 54 9q23 7 40 16q83 39 125 121q29 57 29 119v109q0 87 -54 161q-10 13 -32 35q-38 32 -66 44q-54 26 -115 26h-1q-98 0 -176 -67q-23 -21 -32 -32q-43 -56 -55 -122q-4 -26 -4 -55 q-3 -21 -10 -34q-15 -29 -51 -43q-15 -4 -27 -4h-91v94q0 112 59 217q18 32 48 68q32 36 55 54q38 31 64 45q26 15 56 27q80 31 159 31h11q113 0 221 -61q30 -18 64 -46q35 -31 53 -54q24 -30 38 -52q65 -110 65 -229v-115q0 -109 -56 -213q-19 -34 -51 -73q-32 -35 -51 -51 q-77 -63 -166 -88q-48 -12 -57 -12q-32 -5 -82 -5q-9 0 -42 -6q-31 -8 -52 -17q-25 -12 -52 -31q-13 -10 -34 -32q-37 -41 -52 -83q-19 -47 -19 -97v-1h621q59 0 86 -53q7 -18 7 -34l1 -92h-894z" />
<glyph unicode="3" d="M0 0v92q0 34 29 64q21 17 43 21q9 2 22 2h353q96 0 174 64q26 24 36 37q57 75 57 165v3q0 87 -54 161q-8 11 -33 36q-45 39 -95 55q-41 13 -62 13q-6 1 -42 1h-152v91q0 39 33 68q16 14 44 20q38 1 47 3q38 8 67 27q12 7 35 29q15 18 15 19q35 49 35 109q0 71 -50 127 q-24 24 -37 31q-47 28 -96 28h-275q-60 0 -86 53q-8 18 -8 34v92h370q100 0 192 -57q22 -14 49 -38q31 -29 39 -41q20 -25 32 -45q49 -87 49 -184v-1q0 -128 -84 -233q35 -17 73 -46q17 -13 50 -45q37 -41 50 -63q24 -35 44 -86q29 -79 29 -152v-12q0 -112 -58 -217 q-18 -32 -49 -69q-31 -35 -54 -53q-39 -31 -65 -45q-25 -15 -55 -27q-80 -31 -160 -31h-452z" />
<glyph unicode="4" d="M0 888v557h93q33 0 63 -29q18 -21 21 -43q2 -8 2 -23v-459q0 -86 55 -160q8 -12 32 -36q43 -38 95 -56q40 -12 55 -12q10 -2 50 -2h248v820h93q33 0 62 -28q14 -17 15 -22q9 -18 9 -36l1 -1359h-93q-34 0 -63 29q-18 21 -22 43q-2 8 -2 23v351h-261q-196 0 -333 142 q-25 29 -40 50q-31 47 -44 80q-36 84 -36 170z" />
<glyph unicode="5" d="M0 442v94h91q43 0 73 -39q8 -13 12 -26q4 -12 4 -42q2 -32 9 -57q10 -31 23 -54q14 -26 38 -54q24 -23 41 -35q72 -50 155 -50h1q97 0 175 65q24 23 34 35q58 76 58 166v109q0 86 -54 160q-8 12 -33 36q-42 38 -95 56q-41 12 -62 12q-6 2 -42 2h-341q-34 0 -62 27 q-25 28 -25 59v453q0 33 28 62q17 14 22 15q19 9 36 9h628l1 -90q0 -44 -40 -74q-23 -15 -54 -15h-442v-267h261q197 0 333 -142q26 -29 41 -50q31 -47 44 -80q35 -84 35 -170v-115q0 -112 -58 -217q-18 -32 -49 -69q-31 -35 -54 -53q-39 -31 -65 -45q-25 -15 -55 -27 q-80 -31 -160 -31h-11q-113 0 -221 61q-29 18 -64 46q-34 31 -52 54q-25 30 -38 52q-66 110 -66 229z" />
<glyph unicode="6" horiz-adv-x="989" d="M0 442v561q0 112 59 217q17 32 48 68q32 36 54 54q39 31 65 45q26 15 56 27q80 31 159 31h273v-90q0 -44 -39 -74q-23 -15 -54 -15h-175q-96 0 -174 -64q-27 -25 -37 -39q-56 -75 -56 -163v-107h260q117 0 211 -49q21 -11 48 -28q21 -15 44 -34q30 -29 44 -45 q31 -37 45 -63q19 -30 38 -82q24 -72 24 -140v-10q0 -112 -59 -217q-17 -32 -48 -69q-31 -35 -53 -52q-28 -23 -49 -36q-39 -24 -89 -43q-74 -25 -143 -25h-11q-113 0 -221 61q-29 18 -64 46q-35 31 -53 54q-24 30 -38 52q-65 110 -65 229zM179 445q0 -87 55 -161 q9 -13 33 -36q28 -24 53 -37q60 -32 126 -32h1q96 0 174 64q26 24 35 37q58 75 58 165v3q0 87 -55 161q-7 11 -32 36q-45 39 -95 55q-16 6 -48 12q-16 2 -57 2h-248v-269z" />
<glyph unicode="7" d="M0 1353v92h452q113 0 221 -61q30 -18 64 -46q38 -34 52 -53q26 -32 39 -54q20 -30 39 -80q26 -75 26 -148l1 -1003h-94q-34 0 -62 27q-25 27 -25 64v355h-356v89q0 50 46 79q22 11 42 11h269v375q0 87 -54 161q-10 13 -32 35q-38 32 -66 44q-54 26 -115 26h-353 q-60 0 -86 53q-8 18 -8 34z" />
<glyph unicode="8" d="M0 442v11q0 91 42 183q54 111 152 179q-36 38 -47 55q-18 26 -31 53q-35 75 -35 154v6q0 108 65 205q15 21 36 44q35 35 48 42q21 16 50 31q81 40 161 40h11q81 0 163 -41q26 -13 54 -34q16 -13 43 -39q36 -40 48 -64q52 -87 52 -185v-5q0 -119 -76 -220q-13 -17 -37 -42 q23 -15 56 -46q34 -34 47 -52q30 -40 42 -66q15 -30 29 -70q20 -67 20 -128v-11q0 -112 -59 -217q-17 -32 -48 -69q-32 -35 -54 -53q-39 -31 -65 -45q-26 -15 -56 -27q-80 -31 -159 -31h-11q-113 0 -221 61q-29 18 -64 46q-35 31 -53 54q-24 30 -38 52q-65 110 -65 229z M179 445q0 -87 55 -161q9 -13 33 -36q79 -69 180 -69q97 0 175 65q24 23 34 35q58 76 58 166v3q0 95 -65 174q-21 23 -34 33q-33 25 -59 36q-32 15 -80 22q-15 1 -22 1h-15q-41 0 -92 -19q-102 -43 -147 -144q-21 -51 -21 -103v-3zM260 1078q0 -54 32 -104q10 -15 35 -38 q54 -43 118 -43h3q64 0 118 43q17 15 25 26q42 53 42 116v3q0 56 -33 105q-8 13 -31 34q-19 16 -36 25q-42 21 -84 21h-5q-59 0 -111 -38q-27 -23 -36 -37q-37 -51 -37 -110v-3z" />
<glyph unicode="9" d="M0 993v10q0 112 59 217q17 32 48 68t54 54q89 73 197 95q45 8 83 8h11q113 0 221 -61q29 -18 64 -46q38 -34 52 -53q26 -32 39 -54q19 -30 39 -80q26 -75 26 -148v-561q0 -112 -59 -217q-17 -32 -48 -69q-32 -35 -54 -53q-39 -31 -65 -45q-26 -15 -56 -27 q-80 -31 -159 -31h-273v90q0 44 39 74q23 15 54 15h175q96 0 174 64q26 24 35 37q58 75 58 165v107h-260q-117 0 -211 49q-21 11 -48 28q-21 15 -44 34q-30 28 -44 45q-38 46 -60 90q-47 96 -47 195zM179 997q0 -87 55 -161q7 -11 32 -36q45 -39 95 -55q16 -6 48 -12 q16 -2 57 -2h248v269q0 87 -55 161q-10 13 -32 35q-37 32 -65 44q-55 26 -115 26h-1q-96 0 -174 -64q-27 -25 -37 -39q-56 -75 -56 -163v-3z" />
<glyph unicode=":" horiz-adv-x="273" d="M0 0v357h83q34 0 53 -13q26 -14 38 -47q5 -14 5 -29v-268h-179zM0 627v266h179v-357h-89q-46 0 -76 40q-14 23 -14 51z" />
<glyph unicode=";" horiz-adv-x="271" d="M-359 -357l1 93q0 31 24 59q19 17 32 21q13 7 50 7q27 2 40 5q25 6 44 14q100 42 145 141q10 25 16 50q6 27 6 66v258h82q33 0 52 -12q28 -17 40 -49q4 -14 4 -28v-178q0 -154 -97 -279q-12 -15 -43 -46q-43 -39 -69 -53q-39 -25 -84 -42q-75 -27 -148 -27h-95zM-1 625 v268h179l-1 -357h-89q-46 0 -76 40q-13 23 -13 49z" />
<glyph unicode="&#x3c;" horiz-adv-x="721" d="M0 722l241 209l187 161q26 22 55 22h6q28 0 57 -22l87 -59l-360 -311l360 -310q-104 -71 -106 -71q-19 -10 -38 -10h-5q-35 0 -67 31l-287 248z" />
<glyph unicode="=" horiz-adv-x="848" d="M0 550v92h665q33 0 62 -28q20 -23 23 -46q2 -9 2 -26v-79h-657q-62 0 -88 55q-7 17 -7 32zM0 890v92h665q33 0 62 -28q20 -23 23 -46q2 -9 2 -26v-79h-657q-62 0 -88 55q-7 17 -7 32z" />
<glyph unicode="&#x3e;" horiz-adv-x="724" d="M0 412l359 310l-359 311q103 71 105 71q20 10 39 10h5q35 0 67 -31l287 -248l130 -113l-242 -208l-186 -162q-27 -21 -56 -21h-6q-27 0 -57 22z" />
<glyph unicode="?" horiz-adv-x="989" d="M0 0v181q0 32 27 60q27 25 64 25h87v-167q0 -32 -8 -48q-5 -12 -21 -28q-27 -23 -58 -23h-91zM0 333v316q0 35 29 63q18 16 35 20q12 4 34 4h351q57 0 117 29q21 11 45 29q27 23 42 43q22 29 31 50q26 57 26 108v14q0 45 -22 99q-47 101 -150 142q-13 6 -43 12 q-21 6 -71 6h-337q-34 0 -62 27q-25 27 -25 59v91h449q105 0 206 -53q33 -18 71 -48q38 -32 63 -64q24 -31 36 -52q20 -32 38 -81q24 -73 24 -140v-10q0 -105 -52 -205q-18 -34 -50 -74q-14 -17 -37 -40q-38 -34 -62 -48q-31 -21 -67 -36q-85 -36 -171 -36h-270v-125 q0 -33 -8 -47q-15 -34 -49 -47q-15 -6 -30 -6h-91z" />
<glyph unicode="@" horiz-adv-x="1268" d="M0 172v727q0 119 67 230q82 127 223 182q77 28 150 28h280q119 0 230 -67q127 -82 182 -223q28 -77 28 -150v-542h-87q-51 0 -80 45q-12 20 -12 52v260h-245q-63 0 -91 -9q-28 -8 -40 -15q-39 -17 -72 -47q-21 -19 -32 -34q-18 -26 -28 -45q-26 -58 -26 -111v-13 q0 -64 36 -129q12 -21 35 -45q20 -23 31 -30q26 -21 51 -33q58 -24 107 -24h351q38 0 53 -10q24 -11 39 -39q10 -21 10 -37v-93h-452q-120 0 -231 68q-127 81 -181 222q-29 76 -29 151v11q0 118 67 231q18 28 49 64q35 36 52 49q44 32 75 48q32 16 76 31q24 7 67 14 q26 4 89 4h239v6q0 63 -37 129q-10 21 -33 46q-21 22 -31 29q-28 20 -53 32q-56 25 -107 25h-273q-96 0 -174 -63q-30 -28 -36 -37q-19 -24 -31 -48q-27 -59 -27 -113v-727q0 -63 37 -129q10 -21 33 -45q21 -22 31 -29q28 -21 53 -33q56 -25 107 -25h618q38 0 53 -9 q30 -14 44 -52q5 -14 5 -25v-93h-720q-119 0 -230 68q-127 81 -182 222q-28 77 -28 150z" />
<glyph unicode="A" horiz-adv-x="989" d="M0 0v1003q0 112 59 217q18 32 48 68q32 36 54 54q89 73 197 95q45 8 83 8h11q113 0 221 -61q30 -18 64 -46q35 -31 53 -54q24 -30 38 -52q65 -110 65 -229l1 -1003h-93q-34 0 -63 29q-18 21 -22 43q-2 8 -2 23v905q0 87 -54 161q-10 13 -32 35q-38 32 -66 44 q-54 26 -115 26h-1q-96 0 -173 -64q-27 -25 -37 -39q-57 -75 -57 -163v-375h270q34 0 62 -27q25 -27 25 -65l1 -87h-358v-351q0 -39 -21 -63q-15 -20 -46 -29q-10 -3 -19 -3h-93z" />
<glyph unicode="B" horiz-adv-x="989" d="M0 0v92q0 37 32 66q25 21 62 21h353q96 0 174 64q26 24 36 37q57 75 57 165v3q0 87 -54 161q-8 11 -33 36q-45 39 -95 55q-41 13 -62 13q-6 1 -42 1h-152v91q0 39 33 68q16 14 44 20q38 1 47 3q38 8 67 27q12 7 35 29q15 18 15 19q35 49 35 109q0 71 -50 127 q-24 24 -37 31q-47 28 -96 28h-190v-813q0 -40 -20 -62q-28 -34 -70 -34h-89v1002q0 33 28 62q17 14 22 15q19 9 36 9h284q100 0 192 -57q22 -14 49 -38q31 -29 39 -41q20 -25 32 -45q49 -87 49 -184v-1q0 -128 -84 -233q35 -17 73 -46q17 -13 50 -45q37 -41 50 -63 q24 -35 44 -86q29 -79 29 -152v-12q0 -112 -58 -217q-18 -32 -49 -69q-31 -35 -54 -53q-39 -31 -65 -45q-25 -15 -55 -27q-80 -31 -160 -31h-452z" />
<glyph unicode="C" horiz-adv-x="989" d="M0 442v561q0 112 59 217q17 32 48 68q32 36 54 54q39 31 65 45q26 15 56 27q80 31 159 31h11q113 0 221 -61q29 -18 64 -46q35 -31 53 -54q24 -30 38 -52q65 -110 65 -229v-94h-90q-44 0 -73 39q-8 13 -12 26q-4 12 -4 42q-3 32 -10 57q-10 31 -23 54q-14 26 -38 54 q-24 23 -41 35q-71 50 -155 50h-1q-96 0 -174 -64q-27 -25 -37 -39q-56 -75 -56 -163v-555q0 -87 55 -161q9 -13 33 -36q79 -69 179 -69h1q98 0 176 67q24 21 32 32q39 49 53 110q6 29 6 67q2 20 15 41q30 40 74 40h90v-94q0 -112 -59 -217q-17 -32 -48 -69q-32 -35 -54 -53 q-39 -31 -65 -45q-26 -15 -56 -27q-80 -31 -159 -31h-11q-113 0 -221 61q-29 18 -64 46q-35 31 -53 54q-24 30 -38 52q-65 110 -65 229z" />
<glyph unicode="D" horiz-adv-x="989" d="M0 0v1088h89q46 0 75 -40q15 -21 15 -56v-813h268q96 0 174 64q26 24 36 37q57 75 57 165v555q0 87 -54 161q-10 13 -32 35q-38 32 -66 44q-54 26 -115 26h-353q-60 0 -86 53q-8 18 -8 34v92h452q113 0 221 -61q30 -18 64 -46q38 -34 52 -53q26 -32 39 -54q20 -30 39 -80 q26 -75 26 -148v-561q0 -112 -58 -217q-18 -32 -49 -69q-31 -35 -54 -53q-39 -31 -65 -45q-25 -15 -55 -27q-80 -31 -160 -31h-452z" />
<glyph unicode="E" horiz-adv-x="985" d="M0 442v561q0 112 59 217q17 32 48 68q32 36 54 54q39 31 65 45q26 15 56 27q80 31 159 31h452v-92q0 -34 -29 -64q-21 -17 -43 -21q-9 -2 -21 -2h-354q-96 0 -174 -64q-27 -25 -37 -39q-56 -75 -56 -163v-375h360q28 0 54 -21q32 -29 32 -67v-91h-446v-1q0 -87 55 -161 q9 -13 33 -36q79 -69 179 -69h354q59 0 86 -53q7 -18 7 -34v-92h-452q-113 0 -221 61q-29 18 -64 46q-35 31 -53 54q-24 30 -38 52q-65 110 -65 229z" />
<glyph unicode="F" horiz-adv-x="992" d="M0 0v1003q0 112 59 217q18 32 48 68q32 36 55 54q38 31 64 45q26 15 56 27q80 31 159 31h453l-1 -92q0 -34 -29 -64q-20 -17 -43 -21q-8 -2 -21 -2h-354q-96 0 -173 -64q-27 -25 -37 -39q-57 -75 -57 -163v-375h270q39 0 68 -34q19 -25 19 -56l1 -89h-358v-351 q0 -39 -21 -63q-15 -20 -46 -29q-10 -3 -19 -3h-93z" />
<glyph unicode="G" horiz-adv-x="989" d="M0 442v561q0 112 59 217q17 32 48 68q32 36 54 54q39 31 65 45q26 15 56 27q80 31 159 31h452v-92q0 -34 -29 -64q-21 -17 -43 -21q-9 -2 -21 -2h-354q-97 0 -175 -65q-24 -23 -34 -35q-58 -76 -58 -166v-555q0 -87 55 -161q9 -13 33 -36q79 -69 179 -69h268v351 q0 33 14 54q16 26 50 38q13 3 24 3h91v-625h-452q-113 0 -221 61q-29 18 -64 46q-35 31 -53 54q-24 30 -38 52q-65 110 -65 229z" />
<glyph unicode="H" horiz-adv-x="985" d="M0 0v1445h102q38 0 70 -28q27 -25 27 -67v-680h496v680q0 63 62 89q19 6 35 6h102v-1445h-102q-38 0 -69 28q-28 25 -28 67v396h-496v-396q0 -63 -62 -89q-18 -6 -35 -6h-102z" />
<glyph unicode="I" horiz-adv-x="287" d="M0 0v1359q0 33 28 62q9 8 17 12q21 12 42 12h93v-1359q-1 -33 -28 -62q-10 -8 -17 -12q-22 -12 -42 -12h-93z" />
<glyph unicode="J" horiz-adv-x="814" d="M0 0v92q0 34 29 64q22 17 43 21q9 2 22 2h174q101 0 180 68q28 28 35 40q53 72 53 159v906q0 59 54 86q18 7 33 7h93l-1 -1003q0 -103 -51 -203q-14 -29 -39 -63q-14 -17 -30 -35q-37 -37 -50 -45q-24 -19 -50 -35q-108 -61 -222 -61h-273z" />
<glyph unicode="K" horiz-adv-x="900" d="M0 0v1445h89q50 0 80 -48q10 -19 10 -48v-286l275 299q57 63 61 66q24 17 48 17h220l-425 -453l-7 -8q184 0 318 -128q34 -35 50 -57q34 -49 52 -93q33 -84 33 -161v-545h-93q-37 0 -67 34q-19 23 -19 62v443q0 78 -48 150q-39 54 -89 81q-63 34 -127 34h-182v-708 q0 -68 -63 -93q-15 -3 -23 -3h-93z" />
<glyph unicode="L" d="M0 442v1003h93q33 0 63 -29q18 -21 21 -43q2 -8 2 -23v-905q0 -87 55 -161q9 -13 33 -36q79 -69 179 -69h354q59 0 86 -53q7 -18 7 -34l1 -92h-453q-113 0 -221 61q-29 18 -64 46q-34 31 -52 54q-25 30 -38 52q-66 110 -66 229z" />
<glyph unicode="M" horiz-adv-x="996" d="M0 0v1445h125q29 0 57 -23q16 -15 22 -30l243 -521q243 523 247 529q16 29 49 40q14 5 25 5h126v-1445h-93q-34 0 -63 29q-18 21 -22 43q-2 8 -2 23v926l-267 -573l-268 573v-926q0 -39 -21 -63q-15 -20 -46 -29q-10 -3 -19 -3h-93z" />
<glyph unicode="N" horiz-adv-x="992" d="M0 0v1445h127q36 0 65 -31q9 -10 27 -48l495 -971v955q0 39 22 63q15 20 45 29q11 3 20 3h93v-1445h-128q-35 0 -65 31q-9 10 -27 48l-495 971v-955q0 -39 -21 -63q-15 -20 -46 -29q-10 -3 -19 -3h-93z" />
<glyph unicode="O" horiz-adv-x="1553" d="M0 714v17q0 118 44 242q19 50 44 96q24 44 65 98q18 24 51 59q49 48 75 67q54 41 102 67q28 15 70 32q39 17 98 32q87 21 165 21h17q118 0 242 -44q50 -19 96 -44q44 -24 98 -65q25 -19 55 -47q47 -47 56 -60q26 -31 46 -62q41 -62 68 -128q17 -40 33 -100 q20 -87 20 -164v-17q0 -118 -44 -242q-19 -50 -44 -96q-24 -44 -65 -98q-19 -25 -47 -55q-47 -47 -60 -56q-31 -26 -62 -46q-62 -41 -128 -68q-40 -17 -100 -33q-87 -20 -164 -20h-17q-118 0 -242 44q-50 19 -96 44q-44 24 -98 65q-25 19 -55 47q-47 47 -56 60 q-26 31 -46 62q-41 62 -68 128q-17 40 -33 100q-20 87 -20 164zM179 720q0 -153 84 -289q22 -35 58 -75q30 -32 43 -42q36 -31 63 -48q138 -87 293 -87h5q153 0 289 84q35 22 75 58q29 27 42 43q31 36 48 63q87 138 87 293v5q0 153 -84 289q-22 35 -58 75q-30 32 -43 42 q-36 31 -63 48q-138 87 -293 87h-5q-153 0 -289 -84q-35 -22 -75 -58q-32 -30 -42 -43q-31 -36 -48 -63q-87 -138 -87 -293v-5z" />
<glyph unicode="P" horiz-adv-x="996" d="M0 0v1088h89q46 0 75 -40q15 -21 15 -56v-261h249q56 0 80 7q32 8 50 17q24 11 50 29q12 9 36 33q24 28 33 46q12 16 24 51q13 41 13 83v3q0 87 -54 161q-10 13 -32 35q-38 32 -66 44q-54 26 -115 26h-353q-58 0 -85 51q-9 18 -9 36v92h452q113 0 221 -61q30 -18 64 -46 q35 -31 53 -54q24 -30 38 -52q65 -110 65 -229v-10q0 -102 -50 -201q-15 -30 -40 -64q-14 -19 -47 -51q-34 -33 -65 -53q-51 -32 -99 -48q-69 -24 -152 -24h-261v-457q0 -39 -21 -63q-15 -20 -46 -29q-10 -3 -19 -3h-93z" />
<glyph unicode="Q" horiz-adv-x="1003" d="M0 442v561q0 112 59 217q17 32 48 68q32 36 54 54q39 31 65 45q26 15 56 27q80 31 159 31h11q113 0 221 -61q29 -18 64 -46q38 -34 52 -53q26 -32 39 -54q19 -30 39 -80q26 -75 26 -148v-563q0 -88 -40 -178q-16 -36 -44 -76l-5 -7q43 0 72 -38q17 -24 17 -49v-92h-452 q-113 0 -221 61q-29 18 -64 46q-35 31 -53 54q-24 30 -38 52q-65 110 -65 229zM179 445q0 -87 55 -161q9 -13 33 -36q79 -69 179 -69h1q96 0 174 64q26 24 35 37q58 75 58 165v555q0 87 -55 161q-10 13 -32 35q-37 32 -65 44q-55 26 -115 26h-1q-96 0 -174 -64 q-27 -25 -37 -39q-56 -75 -56 -163v-555z" />
<glyph unicode="R" horiz-adv-x="992" d="M0 0v1088h89q46 0 75 -40q15 -21 15 -56v-261h249q56 0 80 7q32 8 50 17q24 11 50 29q12 9 36 33q24 28 33 46q12 16 24 51q13 41 13 83v3q0 87 -54 161q-10 13 -32 35q-38 32 -66 44q-54 26 -115 26h-353q-58 0 -85 51q-9 18 -9 36v92h452q113 0 221 -61q30 -18 64 -46 q35 -31 53 -54q24 -30 38 -52q65 -110 65 -229v-11q0 -92 -42 -185q-19 -38 -46 -76q-14 -19 -48 -53q-34 -33 -54 -45q-34 -24 -73 -42q-29 -14 -77 -27l90 -315l71 -249h-121q-27 0 -53 20q-16 14 -20 22q-8 10 -21 62l-112 389l-17 59h-191v-457q0 -39 -21 -63 q-15 -20 -46 -29q-10 -3 -19 -3h-93z" />
<glyph unicode="S" horiz-adv-x="996" d="M0 1074v12q0 80 40 161q20 39 53 76q23 25 38 37q27 22 47 34q90 51 182 51h273v-89q0 -45 -37 -73q-23 -17 -56 -17h-177q-68 0 -124 -49q-24 -24 -31 -37q-29 -47 -29 -97v-7q0 -53 33 -103q20 -28 50 -49q49 -31 101 -31h76q117 0 211 -49q21 -11 48 -28 q21 -15 44 -34q30 -29 44 -45q31 -37 45 -63q19 -30 38 -82q24 -72 24 -140v-10q0 -112 -59 -217q-17 -32 -48 -69q-32 -35 -54 -53q-39 -31 -65 -45q-26 -15 -56 -27q-80 -31 -159 -31h-273v90q0 44 39 74q23 15 54 15h175q96 0 174 64q26 24 35 37q58 75 58 165v3 q0 87 -55 161q-7 11 -32 36q-45 39 -95 55q-41 13 -62 13q-7 1 -43 1h-66q-94 0 -182 51q-106 65 -153 179q-26 66 -26 130z" />
<glyph unicode="T" horiz-adv-x="996" d="M0 1353v92h807q33 0 62 -28q14 -17 15 -22q9 -18 9 -36l1 -93h-358v-1176q0 -48 -41 -76q-23 -14 -46 -14h-92v1266h-263q-60 0 -86 53q-8 18 -8 34z" />
<glyph unicode="U" d="M0 442v1003h93q33 0 63 -29q18 -21 21 -43q2 -8 2 -23v-905q0 -90 59 -166q28 -32 45 -44q74 -56 164 -56q96 0 174 64q26 24 36 37q57 75 57 165v905q0 39 22 63q15 20 45 29q11 3 20 3h93l-1 -1003q0 -112 -58 -217q-18 -32 -49 -69q-31 -35 -54 -53q-39 -31 -65 -45 q-25 -15 -55 -27q-80 -31 -160 -31h-11q-113 0 -221 61q-29 18 -64 46q-34 31 -52 54q-25 30 -38 52q-66 110 -66 229z" />
<glyph unicode="V" d="M0 1445h118q22 0 47 -16q19 -15 25 -27q6 -9 10 -24l246 -993q246 993 248 1000q12 34 46 52q20 8 34 8h118l1 -1l-358 -1444h-179z" />
<glyph unicode="W" d="M0 261v1184h93q33 0 63 -29q18 -21 21 -43q2 -8 2 -23v-1084q0 -39 34 -68q25 -19 54 -19h2q42 0 71 36q17 24 17 54v266q0 50 46 79q22 11 42 11h92l-1 -356q0 -46 39 -75q23 -15 49 -15h2q45 0 75 41q13 23 13 46v1084q0 39 22 63q15 20 45 29q11 3 20 3h93l-1 -1184 q0 -41 -18 -91q-9 -23 -24 -48q-12 -18 -38 -45q-29 -27 -47 -37q-19 -12 -48 -24q-48 -16 -85 -16h-14q-46 0 -99 21q-29 13 -59 35l-14 12q-40 -35 -90 -53q-44 -15 -83 -15h-13q-48 0 -104 24q-26 12 -51 31q-12 8 -34 31q-26 29 -40 54q-10 19 -19 46q-13 42 -13 75z " />
<glyph unicode="X" horiz-adv-x="996" d="M0 0l260 542l87 181l-178 371l-163 338l-6 13h145q34 0 62 -28q11 -10 28 -49q104 -215 105 -219q30 -61 106 -220h1l147 307l80 166q18 28 49 39q14 4 25 4h145l-192 -400l-155 -322l260 -542l87 -181h-145q-34 0 -62 28q-11 10 -28 49q-100 206 -105 219l-106 220h-1 l-111 -232l-114 -238q-5 -9 -18 -22q-28 -24 -58 -24h-145z" />
<glyph unicode="Y" d="M0 1065v380h93q33 0 63 -29q18 -21 21 -43q2 -8 2 -23v-280q0 -90 58 -165q24 -28 46 -45q74 -56 162 -56h3q89 0 164 57q35 29 48 49q11 13 24 37q30 60 30 123v280q0 39 22 63q15 20 45 29q11 3 20 3h93l-1 -380q0 -89 -40 -180q-17 -38 -47 -79q-14 -20 -45 -52 q-43 -40 -67 -54q-36 -25 -73 -40q-25 -11 -66 -22l-19 -4v-544q0 -48 -41 -76q-23 -14 -46 -14h-92v634q-30 6 -56 15q-45 16 -80 37q-32 18 -67 48q-35 32 -48 49q-22 27 -34 46q-23 35 -40 75q-32 83 -32 161z" />
<glyph unicode="Z" horiz-adv-x="1003" d="M0 0l196 408l162 336l184 383l67 139h-515q-58 0 -85 51q-9 19 -9 36v92h893l-192 -400l-183 -381l-161 -334l-72 -151h515q58 0 85 -51q8 -19 8 -36l1 -92h-894z" />
<glyph unicode="[" horiz-adv-x="401" d="M0 -357v2158h403l-1 -92q0 -34 -29 -64q-21 -17 -43 -21q-8 -2 -21 -2h-130v-1800h130q59 0 86 -53q7 -18 7 -33v-93h-402z" />
<glyph unicode="\" horiz-adv-x="600" d="M0 1445h118q21 0 45 -14q11 -8 22 -21q12 -14 19 -44l94 -383l104 -421l92 -375l46 -187h-118q-20 0 -45 14q-11 8 -21 21q-12 14 -19 44l-95 382l-121 492l-106 430z" />
<glyph unicode="]" horiz-adv-x="401" d="M-120 -357l1 93q0 34 29 63q21 18 43 21q9 2 21 2h129v1800h-129q-59 0 -86 53q-7 18 -7 33v93h401l1 -2158h-403z" />
<glyph unicode="^" horiz-adv-x="698" d="M-2 1454v163l321 69l321 -68v-164l-321 68z" />
<glyph unicode="_" horiz-adv-x="838" d="M0 86v93h649q55 0 82 -46q12 -18 12 -53v-80h-657q-32 0 -61 28q-10 11 -16 22q-9 20 -9 36z" />
<glyph unicode="`" horiz-adv-x="698" d="M-2 1590v164l447 -95l195 -42v-164l-380 81z" />
<glyph unicode="a" d="M0 442v10q0 102 50 201q16 30 41 64q14 19 46 52q132 125 316 125h261v1q0 90 -58 166q-23 27 -46 44q-74 56 -164 56h-174q-56 0 -83 47q-10 20 -10 42v90h273q113 0 221 -61q30 -18 64 -46q35 -31 53 -54q24 -30 38 -53q65 -110 65 -228v-541h-88q-47 0 -76 40 q-15 21 -15 56v262h-248q-56 0 -81 -8q-32 -8 -50 -17q-24 -10 -49 -29q-13 -9 -37 -33q-24 -28 -33 -46q-11 -16 -23 -51q-14 -40 -14 -83v-3q0 -90 58 -166q28 -32 46 -44q73 -56 164 -56h353q57 0 84 -51q9 -18 9 -36v-92h-452q-113 0 -221 61q-30 18 -64 46 q-35 31 -53 54q-24 30 -38 53q-65 110 -65 228z" />
<glyph unicode="b" d="M0 0v92q0 37 32 66q25 21 62 21h353q96 0 174 64q26 24 36 37q57 75 57 165v3q0 87 -54 161q-8 11 -33 36q-45 39 -95 55q-16 6 -47 12q-17 2 -57 2h-249v-261q0 -40 -20 -62q-28 -34 -70 -34h-89v1088h93q33 0 63 -29q18 -21 21 -43q2 -8 2 -23v-457h261q116 0 210 -49 q21 -11 48 -28q22 -15 44 -34q31 -29 44 -45q31 -37 45 -63q19 -30 38 -82q24 -72 24 -140v-10q0 -112 -58 -217q-18 -32 -49 -69q-31 -35 -54 -53q-39 -31 -65 -45q-25 -15 -55 -27q-80 -31 -160 -31h-452z" />
<glyph unicode="c" d="M0 663v14q0 136 60 272q24 51 61 105q20 30 55 69q38 40 53 52q36 31 71 54q40 26 88 49q36 17 85 33q97 29 190 29h230v-92q0 -34 -29 -64q-21 -17 -43 -21q-9 -2 -21 -2h-132q-155 0 -288 -95q-25 -17 -55 -46q-38 -40 -57 -67q-25 -37 -42 -73q-47 -101 -47 -208v-4 q0 -135 73 -256q86 -138 236 -198q88 -35 180 -35h132q59 0 86 -53q7 -18 7 -34v-92h-230q-127 0 -256 53q-202 89 -314 276q-28 48 -46 94q-47 121 -47 240z" />
<glyph unicode="d" d="M0 442v10q0 102 50 201q16 30 41 64q14 19 46 51q35 33 66 53q50 32 98 48q69 24 153 24h260v457q0 39 21 63q16 20 46 29q11 3 20 3h92v-1088h-88q-47 0 -76 40q-15 21 -15 56v261h-248q-56 0 -81 -7q-32 -8 -50 -17q-24 -11 -49 -29q-13 -9 -37 -33q-24 -28 -33 -46 q-11 -16 -23 -51q-14 -41 -14 -83v-3q0 -87 55 -161q9 -13 33 -36q79 -69 179 -69h354q57 0 84 -51q9 -18 9 -36v-92h-452q-113 0 -221 61q-29 18 -64 46q-35 31 -53 54q-24 30 -38 52q-65 110 -65 229z" />
<glyph unicode="e" d="M0 442v456q0 112 59 217q17 31 48 68q32 36 54 54q39 31 65 45q26 15 56 27q80 31 159 31h11q113 0 221 -61q30 -18 64 -46q35 -31 53 -54q24 -30 38 -53q65 -110 65 -228v-10q0 -102 -50 -201q-16 -30 -41 -64q-14 -19 -46 -52q-132 -125 -316 -125h-261v-1 q0 -90 58 -166q28 -32 46 -44q73 -56 164 -56h85q57 0 84 -49q9 -19 9 -40v-90h-184q-113 0 -221 61q-29 18 -64 46q-35 31 -53 54q-24 30 -38 53q-65 110 -65 228zM179 625h248q56 0 81 8q32 8 50 17q24 10 49 29q13 9 37 33q24 28 33 46q11 16 23 51q14 40 14 83v3 q0 87 -55 161q-10 13 -32 35q-23 20 -41 31q-65 39 -140 39q-97 0 -175 -65q-24 -23 -34 -35q-58 -76 -58 -166v-270z" />
<glyph unicode="f" d="M0 0v1003q0 112 59 217q18 32 48 68q32 36 55 54q38 31 64 45q29 17 66 30q76 28 149 28h11q113 0 221 -61q30 -18 64 -46q35 -31 53 -54q24 -30 38 -52q65 -110 65 -229l1 -94h-91q-43 0 -73 39q-8 13 -12 26q-4 12 -4 42q-3 32 -10 57q-9 31 -22 54q-14 26 -39 54 q-27 27 -41 35q-71 50 -155 50h-1q-96 0 -175 -65q-24 -23 -33 -35q-59 -76 -59 -166v-375h270q39 0 68 -34q19 -25 19 -56l1 -89h-358v-351q0 -39 -21 -63q-15 -20 -46 -29q-10 -3 -19 -3h-93z" />
<glyph unicode="g" d="M0 888v10q0 112 59 217q17 31 48 68q32 36 54 54q39 31 65 45q26 15 56 27q80 31 159 31h452v-92q0 -37 -32 -66q-24 -21 -61 -21h-353q-102 0 -181 -70q-27 -26 -38 -43q-49 -71 -49 -153v-3q0 -87 55 -161q7 -11 32 -36q45 -39 95 -56q40 -12 55 -12q10 -2 50 -2h248 v173q0 37 18 59q27 37 74 37h87v-452q0 -112 -59 -217q-17 -32 -48 -69q-31 -35 -53 -52q-28 -23 -49 -36q-39 -24 -89 -43q-74 -25 -143 -25h-273v90q0 44 39 74q23 15 54 15h174q102 0 181 70q27 26 35 39q52 72 52 157v1h-261q-196 0 -333 142q-26 29 -40 50 q-32 47 -44 80q-36 85 -36 170z" />
<glyph unicode="h" d="M0 1v1443l1 1h91q34 0 63 -29q19 -21 22 -43q2 -8 2 -23v-457h260q117 0 211 -49q21 -11 48 -28q21 -15 44 -34q30 -29 44 -45q31 -37 45 -63q19 -30 38 -82q24 -72 24 -140v-451l-1 -1h-91q-34 0 -63 29q-19 21 -22 43q-2 8 -2 23v353q0 87 -55 161q-7 11 -32 36 q-45 39 -95 55q-16 6 -48 12q-16 2 -57 2h-248v-619q0 -39 -21 -63q-16 -20 -46 -29q-11 -3 -20 -3h-91z" />
<glyph unicode="i" horiz-adv-x="291" d="M0 0v1023q0 34 26 61q28 26 62 26h91v-1024q0 -33 -27 -62q-10 -8 -17 -12q-22 -12 -42 -12h-93zM0 1177v182q0 33 28 62q9 8 17 12q21 12 42 12h93l-1 -181q0 -32 -25 -60q-27 -27 -66 -27h-88z" />
<glyph unicode="j" horiz-adv-x="820" d="M0 0v92q0 34 29 64q22 17 43 21q9 2 22 2h174q101 0 180 68q28 28 35 40q53 72 53 159v571q0 55 48 83q20 10 41 10h90v-668q0 -103 -51 -203q-14 -29 -39 -63q-14 -17 -30 -35q-37 -37 -50 -45q-24 -19 -50 -35q-108 -61 -222 -61h-273zM536 1177v175q0 59 54 86 q18 7 33 7h93l-1 -181q0 -34 -27 -62q-27 -25 -63 -25h-89z" />
<glyph unicode="k" d="M0 0v1445h93q33 0 63 -29q18 -21 21 -43q2 -8 2 -23v-457h88q102 0 181 69q88 83 88 203v11q0 50 44 78q22 12 44 12h91v-107q0 -131 -75 -246q-16 -24 -37 -48q43 -16 89 -45q25 -17 52 -40q32 -30 42 -43q32 -39 46 -64q15 -25 28 -58q12 -30 20 -60q13 -57 13 -100 l1 -455h-93q-34 0 -63 29q-18 21 -22 43q-2 8 -2 23v353q0 87 -54 161q-8 11 -33 36q-45 39 -95 55q-16 6 -47 12q-17 2 -57 2h-249v-619q0 -39 -21 -63q-15 -20 -46 -29q-10 -3 -19 -3h-93z" />
<glyph unicode="l" horiz-adv-x="631" d="M0 442v1003h93q29 0 55 -22q31 -28 31 -69v-906q0 -109 77 -190q30 -28 52 -41q64 -38 147 -38q21 -2 41 -15q8 -4 20 -18q20 -26 20 -54l1 -92h-95q-111 0 -217 59q-32 18 -68 48q-39 35 -53 53q-25 31 -38 54q-27 43 -42 89q-24 70 -24 139z" />
<glyph unicode="m" horiz-adv-x="996" d="M0 0v1079q0 41 19 91q9 24 25 49q10 17 37 45q37 35 76 52q56 24 104 24h13q47 0 99 -21q30 -13 59 -35l15 -12q39 35 89 53q44 15 83 15h14q47 0 103 -24q26 -12 52 -31q11 -8 34 -31q27 -30 41 -57t22 -57q8 -36 8 -61l1 -1079h-93q-34 0 -63 29q-18 21 -22 43 q-2 8 -2 23v979q0 39 -33 68q-25 19 -55 19h-2q-41 0 -70 -36q-18 -24 -18 -54l1 -446h-81q-33 0 -50 10q-32 18 -44 51q-5 13 -5 28v357q0 46 -38 75q-24 15 -50 15h-2q-45 0 -74 -41q-14 -23 -14 -46v-979q0 -39 -21 -63q-15 -20 -46 -29q-10 -3 -19 -3h-93z" />
<glyph unicode="n" d="M0 0v1340h93q31 0 59 -25q27 -28 27 -64q51 38 113 62q78 27 148 27h12q113 0 221 -61q30 -18 64 -46q35 -31 53 -54q24 -30 38 -53q65 -110 65 -228l1 -898h-93q-34 0 -63 29q-18 21 -22 43q-2 8 -2 23v800q0 87 -54 161q-10 13 -32 35q-24 20 -41 31q-66 39 -140 39 q-98 0 -176 -65q-24 -23 -33 -35q-59 -76 -59 -166v-800q0 -39 -21 -63q-15 -20 -46 -29q-10 -3 -19 -3h-93z" />
<glyph unicode="o" horiz-adv-x="1433" d="M0 663v14q0 137 61 273q23 50 60 105q24 34 60 74q40 40 50 47q36 31 70 54q56 36 116 61q124 49 246 49h14q137 0 273 -61q50 -23 105 -60q34 -24 74 -60q40 -40 47 -50q31 -35 53 -69q26 -41 46 -82q19 -39 36 -94q29 -95 29 -187v-14q0 -137 -61 -273 q-23 -50 -60 -105q-24 -34 -60 -74q-40 -40 -50 -47q-36 -31 -70 -54q-56 -36 -116 -61q-124 -49 -246 -49h-14q-137 0 -273 61q-50 23 -105 60q-34 24 -74 60q-40 40 -47 50q-31 36 -54 70q-36 56 -61 116q-49 124 -49 246zM179 668q0 -152 90 -282q16 -22 46 -56 q36 -36 59 -52q46 -34 76 -47q104 -52 218 -52h4q152 0 282 90q22 15 60 50q40 42 57 67q21 30 33 54q57 110 57 228v4q0 152 -90 282q-15 22 -50 60q-38 37 -57 49q-44 32 -73 45q-104 53 -219 53h-4q-152 0 -282 -90q-22 -15 -60 -50q-37 -38 -49 -57q-32 -44 -45 -73 q-53 -104 -53 -219v-4z" />
<glyph unicode="p" d="M0 0v1254q0 33 28 62q17 14 22 15q19 9 36 9h366q113 0 221 -61q30 -18 64 -46q35 -31 53 -54q24 -30 38 -53q65 -110 65 -228v-10q0 -102 -50 -201q-15 -30 -40 -64q-14 -19 -47 -52q-132 -125 -316 -125h-261v-351q0 -39 -21 -63q-15 -20 -46 -29q-10 -3 -19 -3h-93z M179 625h249q56 0 80 8q32 8 50 17q24 10 50 29q12 9 36 33q24 28 33 46q12 16 24 51q13 40 13 83v3q0 90 -58 166q-22 27 -45 44q-75 56 -165 56h-267v-536z" />
<glyph unicode="q" d="M0 888v10q0 112 59 217q17 31 48 68q31 36 54 54q89 73 197 95q45 8 83 8h366q33 0 62 -28q14 -17 15 -22q9 -18 9 -36v-1254h-92q-34 0 -63 29q-19 21 -22 43q-2 8 -2 23v351h-261q-196 0 -333 142q-26 29 -40 50q-32 47 -44 80q-36 85 -36 170zM179 892q0 -87 55 -161 q7 -11 32 -36q45 -39 95 -56q40 -12 55 -12q10 -2 50 -2h248v536h-267q-102 0 -181 -70q-27 -26 -38 -43q-49 -71 -49 -153v-3z" />
<glyph unicode="r" horiz-adv-x="762" d="M0 1v1253q0 33 28 62q17 14 22 15q18 9 36 9h92l1 -1v-88q50 38 113 62q77 27 147 27h215l1 -1v-91q0 -37 -32 -66q-25 -21 -60 -21h-117q-92 0 -168 -60q-31 -26 -42 -43q-24 -29 -41 -73q-16 -46 -16 -89v-800q0 -36 -16 -58q-16 -23 -48 -34q-13 -4 -23 -4h-91z" />
<glyph unicode="s" horiz-adv-x="996" d="M0 0v92q0 34 29 64q21 17 43 21q9 2 22 2h352q102 0 181 70q27 26 36 39q51 72 51 157v3q0 87 -54 161q-8 11 -33 36q-45 39 -95 56q-41 12 -62 12q-6 2 -42 2h-120q-85 0 -165 49q-18 12 -43 34q-28 27 -38 43q-22 29 -35 59q-27 63 -27 121v12q0 61 29 125q10 22 27 48 q12 18 42 49l13 11q64 53 139 68q32 6 57 6h407l1 -90q0 -44 -40 -74q-23 -15 -54 -15h-310q-55 0 -97 -44q-35 -40 -35 -88v-3q0 -54 43 -97q28 -24 55 -30q17 -5 35 -5h128q197 0 333 -142q26 -29 41 -50q31 -47 44 -80q35 -85 35 -170v-10q0 -112 -58 -217 q-18 -32 -49 -69q-31 -35 -53 -52q-28 -23 -48 -36q-39 -24 -89 -43q-74 -25 -144 -25h-452z" />
<glyph unicode="t" d="M0 1077v100h179v268h91q34 0 62 -27q25 -27 25 -64v-177h446q48 0 76 -41q14 -23 14 -46v-100h-536v-540q0 -106 70 -184q24 -24 36 -32q26 -21 60 -35q19 -9 54 -16q26 -4 57 -4q22 -4 36 -12q10 -6 20 -17q24 -26 24 -60v-90h-94q-116 0 -225 64q-127 77 -185 216 q-31 81 -31 165v545h-89q-48 0 -76 42q-14 22 -14 45z" />
<glyph unicode="u" d="M0 442v898h93q33 0 63 -29q18 -21 21 -43q2 -8 2 -23v-800q0 -87 55 -161q9 -13 33 -36q79 -69 180 -69q97 0 175 65q24 23 34 35q58 76 58 166v800q0 39 22 63q15 20 45 29q11 3 20 3h93l-1 -1340h-92q-31 0 -59 25q-28 28 -28 64q-50 -38 -112 -62q-78 -27 -148 -27 h-13q-113 0 -221 61q-29 18 -64 46q-34 31 -52 54q-25 30 -38 53q-66 110 -66 228z" />
<glyph unicode="v" horiz-adv-x="1024" d="M0 1340h120q25 0 52 -19q23 -19 31 -48l243 -914h1q242 913 247 926q7 16 22 31q22 20 45 23q6 1 12 1h120v-1l-357 -1339h-179z" />
<glyph unicode="w" d="M0 261v1079h93q33 0 63 -29q18 -21 21 -43q2 -8 2 -23v-979q0 -39 34 -68q25 -19 54 -19h2q42 0 71 36q17 24 17 54v266q0 50 46 79q22 11 42 11h91v-356q0 -46 39 -75q23 -15 49 -15h2q45 0 75 41q13 23 13 46v979q0 39 22 63q15 20 45 29q11 3 20 3h93l-1 -1079 q0 -41 -18 -91q-9 -23 -24 -48q-12 -18 -38 -45q-29 -27 -47 -37q-19 -12 -48 -24q-48 -16 -85 -16h-14q-46 0 -99 21q-29 13 -59 35l-14 12q-40 -35 -90 -53q-44 -15 -83 -15h-13q-48 0 -104 24q-26 12 -51 31q-12 8 -34 31q-26 29 -40 54q-10 19 -19 46q-13 42 -13 75z " />
<glyph unicode="x" horiz-adv-x="996" d="M0 0l342 662l4 8l-346 670h149q34 0 62 -27q10 -10 20 -31l215 -417h1q217 422 224 434q12 17 29 28q22 13 44 13h149l-346 -670l346 -670h-150q-33 0 -61 27q-14 17 -19 29l-216 419h-1l-224 -435q-17 -26 -50 -36q-12 -4 -22 -4h-150z" />
<glyph unicode="y" d="M0 888v452h93q33 0 63 -29q18 -21 21 -43q2 -8 2 -23v-353q0 -87 55 -161q8 -11 32 -36q45 -39 95 -56q40 -12 55 -12q10 -2 50 -2h248v620q0 39 22 63q15 20 45 29q11 3 20 3h93l-1 -898q0 -112 -58 -217q-18 -32 -49 -69q-31 -35 -53 -52q-28 -23 -48 -36 q-39 -24 -89 -43q-74 -25 -144 -25h-183l-1 90q0 46 42 75q21 14 52 14h84q102 0 181 70q27 26 36 39q51 72 51 157v1h-261q-196 0 -333 142q-25 29 -40 50q-31 47 -44 80q-36 85 -36 170z" />
<glyph unicode="z" horiz-adv-x="1024" d="M0 0l188 363l127 247q91 175 127 246l158 305h-506q-60 0 -86 53q-8 18 -8 34v92h893l-195 -378l-197 -381l-151 -294l-56 -108h506q59 0 86 -53q7 -18 7 -34l1 -92h-894z" />
<glyph unicode="{" horiz-adv-x="500" d="M-2 719v6q0 45 44 74q20 12 42 12h3v531q0 138 63 242q81 134 232 191q75 26 141 26h100v-93q0 -45 -46 -75q-17 -12 -71 -12q-63 -9 -102 -32q-25 -13 -64 -50q-40 -44 -60 -99q-14 -41 -14 -98v-1240q0 -104 54 -174q39 -49 87 -74q59 -32 139 -32q24 -2 54 -28 q23 -29 23 -58v-93h-100q-112 0 -225 67q-126 80 -181 220q-30 72 -30 172v531h-3q-44 0 -74 43q-12 21 -12 43z" />
<glyph unicode="|" horiz-adv-x="270" d="M0 -357v2072q0 33 28 62q9 8 16 12q22 12 42 12h93l-1 -2071q0 -33 -27 -62q-10 -8 -17 -13q-21 -12 -42 -12h-92z" />
<glyph unicode="}" horiz-adv-x="500" d="M-249 -264q0 46 46 75q17 13 71 13q63 9 102 32q25 12 64 49q40 44 60 99q14 41 14 98v1240q0 104 -54 174q-39 49 -87 74q-59 33 -139 33q-24 1 -54 28q-23 28 -23 57v93h100q112 0 225 -67q126 -80 181 -220q30 -72 30 -172l-1 -531h4q44 0 73 -43q12 -21 12 -43v-6 q0 -45 -43 -74q-21 -12 -42 -12h-4l1 -531q0 -138 -63 -242q-81 -133 -233 -190q-74 -27 -140 -27h-100v93z" />
<glyph unicode="~" horiz-adv-x="698" d="M-2 1497v146h643v-146h-643z" />
<glyph unicode="&#xa1;" horiz-adv-x="284" d="M0 0v1023q0 34 26 61q28 26 62 26h91v-1024q0 -33 -27 -62q-10 -8 -17 -12q-22 -12 -42 -12h-93zM0 1177v182q0 33 28 62q9 8 17 12q21 12 42 12h93l-1 -181q0 -32 -25 -60q-27 -27 -66 -27h-88z" />
<glyph unicode="&#xa2;" d="M0 657v26q0 141 71 289q30 56 67 106q20 27 75 83l45 37q106 83 233 117v114h179v-89h223v-94q0 -40 -40 -71q-24 -14 -46 -14h-137v-982h137q46 0 76 -47q10 -21 10 -38v-94h-223v-89h-179v114q-64 17 -127 48q-58 30 -124 83q-66 59 -90 91q-45 57 -68 101 q-27 48 -55 130q-27 99 -27 179zM179 670q0 -183 126 -328q50 -52 71 -65q70 -50 115 -64v914q-175 -69 -264 -244q-48 -104 -48 -213z" />
<glyph unicode="&#xa3;" horiz-adv-x="992" d="M0 442v561q0 112 59 217q17 32 48 68q32 36 54 54q39 31 65 45q26 15 56 27q80 31 159 31h95v-90q0 -39 -31 -67q-16 -15 -44 -20q-8 -2 -41 -3q-29 -4 -48 -9q-31 -10 -54 -22q-25 -13 -55 -41q-27 -27 -34 -39q-50 -71 -50 -154v-338q0 13 13 36q14 22 32 31 q18 12 51 12h439v-91q0 -42 -37 -72q-16 -11 -36 -15q-9 -1 -24 -1h-438v-117q0 -87 55 -161q9 -13 33 -36q79 -69 179 -69h354q59 0 86 -53q7 -18 7 -34v-92h-452q-113 0 -221 61q-30 18 -64 46q-35 31 -53 54q-24 30 -38 52q-65 110 -65 229z" />
<glyph unicode="&#xa4;" horiz-adv-x="1139" />
<glyph unicode="&#xa5;" d="M0 1065v380h93q33 0 63 -29q18 -21 21 -43q2 -8 2 -23v-280q0 -90 58 -165q24 -28 46 -45q74 -56 162 -56h3q89 0 164 57q35 29 48 49q11 13 24 37q30 60 30 123v280q0 39 22 63q15 20 45 29q11 3 20 3h93l-1 -380q0 -89 -40 -180q-17 -38 -47 -79q-14 -20 -45 -52 q-43 -40 -67 -54q-36 -25 -73 -40q-25 -11 -66 -22l-19 -4v-72h178l1 -90q0 -42 -37 -72q-24 -17 -55 -17h-87v-89h179v-91q0 -42 -38 -72q-25 -16 -50 -16h-91v-25q0 -48 -41 -76q-23 -14 -46 -14h-91l-1 1v114h-177l-1 91q0 39 32 67q25 21 58 21h88v89h-177l-1 91 q0 34 26 62q27 26 61 26h91v72q-30 6 -56 15q-45 16 -80 37q-32 18 -67 48q-35 32 -48 49q-22 27 -34 46q-23 35 -40 75q-32 83 -32 161z" />
<glyph unicode="&#xa6;" horiz-adv-x="532" />
<glyph unicode="&#xa7;" horiz-adv-x="800" d="M0 1154v8q0 77 45 151q13 20 41 49q32 30 50 40q21 13 51 25q50 18 96 18h216v-72q0 -31 -28 -54q-20 -15 -41 -15h-132q-39 0 -61 -9q-57 -22 -83 -76q-13 -31 -13 -62q0 -58 42 -103q44 -44 107 -44h125q101 0 183 -65q31 -27 45 -46q22 -31 33 -53q27 -61 27 -119v-8 q0 -84 -51 -160q-11 -17 -35 -41l-13 -13q16 -14 34 -35q65 -83 65 -179v-8q0 -77 -45 -151q-13 -20 -41 -49q-32 -30 -50 -40q-21 -13 -51 -25q-50 -18 -96 -18h-216v72q0 31 28 54q20 15 41 15h132q39 0 61 9q57 22 83 76q13 31 13 62q0 58 -42 103q-44 44 -107 44h-60 q-117 0 -204 83q-29 31 -40 50q-45 71 -45 154q0 107 72 191q-81 50 -117 141q-19 50 -19 100zM205 720q0 -53 39 -98q23 -22 38 -29q33 -17 67 -17h68q53 0 97 38q48 46 48 109q0 62 -48 108q-44 38 -97 38h-68q-53 0 -98 -39q-22 -23 -29 -38q-17 -33 -17 -67v-5z" />
<glyph unicode="&#xa8;" horiz-adv-x="498" d="M-2 1570q0 38 33 65q22 15 44 15h6q29 0 53 -23q25 -24 25 -56v-2q0 -35 -29 -61q-24 -19 -52 -19q-39 0 -65 34q-15 22 -15 47zM239 1569v2q0 39 36 66q21 13 41 13h6q29 0 55 -24q23 -25 23 -56q0 -42 -38 -69q-21 -12 -43 -12q-31 0 -55 23q-25 25 -25 57z" />
<glyph unicode="&#xa9;" horiz-adv-x="600" d="M0 902v283q0 40 18 90q16 39 37 65q5 9 34 37q23 20 40 30q29 17 64 28q39 10 67 10h15q36 0 82 -15q29 -11 51 -25q77 -48 111 -134q16 -47 16 -90v-274q0 -78 -47 -150q-10 -14 -29 -35q-25 -23 -37 -31q-70 -49 -155 -49q-92 0 -169 60q-28 25 -39 41q-39 48 -53 110 q-6 31 -6 49zM68 906q0 -52 31 -103q36 -57 105 -82q33 -10 64 -10q75 0 135 52q64 62 64 147v267q0 85 -65 147q-32 29 -71 42q-32 11 -60 11h-6q-62 0 -118 -41q-11 -8 -26 -24q-24 -27 -34 -51q-19 -41 -19 -80v-275zM110 943v201q0 54 39 100q49 55 119 55q64 0 113 -49 l13 -15q31 -44 31 -92v-34h-27q-21 0 -30 14q-6 6 -6 27q-2 14 -7 27q-13 32 -47 49q-20 9 -38 9h-5q-38 0 -68 -32q-24 -27 -24 -64v-191q0 -48 39 -78q25 -18 56 -18q45 0 76 39q18 25 18 62q1 7 10 17q10 8 22 8h31v-34q0 -53 -36 -99q-19 -20 -28 -26q-44 -31 -93 -31 q-67 0 -117 52q-41 48 -41 103z" />
<glyph unicode="&#xaa;" horiz-adv-x="401" d="M0 1101v8q0 49 31 95q7 10 25 27q49 44 116 44h100v1q0 38 -29 70q-30 31 -75 31h-67q-19 0 -30 20q-3 7 -3 16v32h106q51 0 99 -35q22 -18 34 -34q33 -48 33 -97v-208h-33q-24 0 -33 23q-2 5 -2 11v102h-104q-41 0 -74 -34q-26 -30 -26 -68q0 -48 41 -82q29 -19 59 -19 h131q22 0 30 -10q4 -3 6 -7q5 -8 5 -16v-36h-171q-71 0 -126 56q-28 34 -36 67q-7 22 -7 43z" />
<glyph unicode="&#xab;" horiz-adv-x="700" d="M0 722l102 383l46 171q13 35 47 51q19 8 33 8h120l-109 -411l-54 -202l104 -388l59 -224h-119q-30 0 -58 24q-19 20 -23 34q-3 10 -60 224zM277 723l97 362q49 184 52 193q14 33 45 49q19 8 35 8h120l-133 -498l-31 -115l104 -389l60 -223h-120q-29 0 -57 23 q-19 17 -28 48l-101 381z" />
<glyph unicode="&#xac;" horiz-adv-x="1196" />
<glyph unicode="&#xad;" horiz-adv-x="851" d="M0 720v92h665q33 0 62 -28q20 -23 23 -46q2 -9 2 -26v-79h-657q-62 0 -88 55q-7 17 -7 32z" />
<glyph unicode="&#xae;" horiz-adv-x="600" d="M0 904v280q0 67 40 134q48 79 140 112q43 15 82 15h10q91 0 169 -64q37 -34 46 -50q48 -71 48 -150v-275q0 -90 -62 -169q-31 -33 -43 -40q-74 -55 -162 -55q-109 0 -192 81q-34 36 -50 72q-26 56 -26 109zM69 907q0 -87 72 -151q58 -46 127 -46q84 0 147 66 q52 59 52 134v269q0 89 -74 154q-58 43 -123 43h-6q-77 0 -139 -59q-56 -62 -56 -136v-274zM127 790v382l2 1h22q29 0 36 -17q4 -6 4 -13v-96h91q63 0 90 58q7 18 7 32v8q0 37 -34 69q-29 21 -57 21h-124q-26 0 -34 20q-3 6 -3 10v33l2 1h155q79 0 130 -67q29 -41 29 -91v-2 q0 -65 -53 -116q-34 -28 -67 -35l56 -199h-45q-11 0 -23 14q-5 8 -19 61l-34 119h-67v-164q0 -19 -22 -29q-4 -1 -8 -1h-32z" />
<glyph unicode="&#xaf;" horiz-adv-x="1131" />
<glyph unicode="&#xb0;" horiz-adv-x="617" d="M0 1170v15q0 40 18 90q36 87 116 134q26 15 54 24q40 12 72 12h15q41 0 92 -19q26 -10 53 -28q16 -12 32 -27q24 -24 32 -36q23 -33 32 -57q19 -49 19 -98v-6q0 -77 -46 -147q-11 -16 -30 -37q-31 -30 -51 -41q-30 -18 -69 -30q-37 -9 -64 -9h-5l-2 -1l-2 1h-6 q-45 0 -98 21q-22 10 -45 25q-17 11 -40 34q-27 28 -37 46q-12 20 -21 41q-19 51 -19 93zM68 1174q0 -53 31 -104q9 -14 29 -35q15 -14 27 -22q53 -35 109 -35h7q54 0 107 33q14 10 31 26q58 60 58 141t-61 143q-27 24 -45 32q-45 24 -90 24h-6q-62 0 -118 -41 q-11 -8 -26 -24q-24 -27 -34 -51q-19 -41 -19 -80v-7z" />
<glyph unicode="&#xb1;" horiz-adv-x="848" d="M0 310v92h665q33 0 62 -28q20 -23 23 -46q2 -9 2 -26v-79h-657q-62 0 -88 55q-7 17 -7 32zM0 899v93h286v196q0 48 42 76q22 14 46 14h92l-1 -286h196q49 0 78 -43q7 -12 11 -29q2 -10 2 -27v-80h-287v-196q0 -47 -41 -76q-22 -14 -49 -14h-89v286h-199q-34 0 -62 27 q-25 28 -25 59z" />
<glyph unicode="&#xb2;" horiz-adv-x="682" />
<glyph unicode="&#xb3;" horiz-adv-x="682" />
<glyph unicode="&#xb4;" horiz-adv-x="698" d="M-2 1453v164l643 137v-164z" />
<glyph unicode="&#xb5;" horiz-adv-x="1180" />
<glyph unicode="&#xb6;" horiz-adv-x="1100" d="M0 1038v17q0 99 57 198q65 103 170 154q82 38 163 38h603v-83q0 -32 -29 -59q-12 -8 -25 -13q-12 -4 -34 -4h-71v-1195q0 -38 -13 -55q-13 -21 -39 -31q-13 -5 -24 -5h-83v1286h-159v-1202q0 -57 -51 -79q-15 -5 -25 -5h-83v651q-15 0 -69 13q-67 20 -117 57 q-14 8 -34 26q-35 32 -46 46q-36 47 -49 77q-14 26 -25 62q-17 58 -17 106zM160 1044q0 -84 59 -155q29 -31 50 -43q37 -24 88 -34v470q-56 -9 -107 -48q-33 -28 -43 -44q-47 -65 -47 -140v-6z" />
<glyph unicode="&#xb7;" horiz-adv-x="569" />
<glyph unicode="&#xb8;" horiz-adv-x="682" />
<glyph unicode="&#xb9;" horiz-adv-x="682" />
<glyph unicode="&#xba;" horiz-adv-x="556" d="M0 1184v13q0 42 20 93q11 26 31 53q11 15 28 31q26 25 41 32q22 15 50 25q43 14 78 14h13q51 0 108 -26q17 -9 36 -23q13 -8 37 -33q25 -28 33 -45q35 -60 35 -128q0 -88 -57 -161q-22 -25 -42 -40q-71 -54 -157 -54q-94 0 -170 66q-30 29 -36 40q-13 18 -24 40 q-24 54 -24 103zM68 1190q0 -69 48 -125q21 -21 29 -26q19 -13 36 -21q37 -14 70 -14h7q58 0 110 38q10 7 26 24q32 38 42 78q5 24 5 42v8q0 52 -33 103q-8 12 -27 30q-22 22 -54 35q-36 15 -73 15q-78 0 -138 -61q-21 -25 -28 -42q-8 -15 -12 -32q-8 -25 -8 -52z" />
<glyph unicode="&#xbb;" horiz-adv-x="700" d="M0 110l133 497l30 115l-103 390l-60 223h120q29 0 57 -23q19 -17 27 -48l102 -381l42 -161l-96 -362q-49 -184 -52 -193q-14 -34 -45 -49q-19 -8 -35 -8h-120zM278 110l109 411l53 202l-103 387l-59 225h119q30 0 58 -24q18 -20 22 -34q4 -10 60 -224l89 -331l-102 -383 l-46 -171q-14 -34 -47 -51q-20 -7 -34 -7h-119z" />
<glyph unicode="&#xbc;" horiz-adv-x="1708" />
<glyph unicode="&#xbd;" horiz-adv-x="1708" />
<glyph unicode="&#xbe;" horiz-adv-x="1708" />
<glyph unicode="&#xbf;" d="M0 439v9q0 115 62 222q77 127 215 185q78 32 174 32h258v136q0 42 35 71q14 10 25 13q11 6 40 6h78v-317q0 -35 -29 -64q-22 -17 -41 -21q-10 -2 -26 -2h-351q-78 0 -149 -47q-13 -9 -34 -28q-25 -27 -32 -39q-47 -69 -47 -152q0 -81 47 -151q8 -14 34 -40 q81 -74 185 -74h353q46 0 75 -40q15 -23 15 -47v-91h-448q-110 0 -213 57q-28 16 -61 41q-15 11 -48 45q-30 33 -49 63q-29 48 -47 103q-21 67 -21 130zM709 1179v177q0 45 39 74q24 15 48 15h91v-180q0 -32 -26 -60q-18 -17 -33 -21q-13 -5 -36 -5h-83z" />
<glyph unicode="&#xc0;" d="M0 0v1003q0 117 65 227q78 125 213 182q81 33 165 33h8q122 0 234 -69q126 -81 179 -219q29 -77 29 -154v-1003h-92q-34 0 -63 29q-18 21 -22 43q-2 8 -2 23v905q0 87 -55 161q-8 12 -33 36q-79 69 -179 69q-101 0 -181 -70q-26 -26 -35 -39q-52 -72 -52 -157v-375h270 q34 0 62 -27q25 -27 25 -65v-87h-357v-351q0 -39 -21 -63q-15 -20 -46 -29q-10 -3 -19 -3h-93zM126 1590v164l447 -95l195 -42v-164l-380 81z" />
<glyph unicode="&#xc1;" d="M0 0v1003q0 122 69 235q80 124 220 179q78 28 154 28h8q119 0 229 -66q130 -81 184 -220q29 -78 29 -156v-1003h-91q-38 0 -67 32q-21 26 -21 58v902q0 74 -30 130q-11 23 -30 46q-25 28 -42 41q-75 57 -166 57q-57 0 -110 -24q-100 -47 -140 -151q-17 -43 -17 -99v-367 h270q40 0 70 -36q9 -13 15 -32q2 -11 2 -30v-81h-357v-356q0 -45 -38 -74q-24 -16 -49 -16h-92zM125 1453v164l643 137v-164z" />
<glyph unicode="&#xc2;" d="M0 0v1004q0 108 56 212q18 31 46 67q36 41 64 63q34 26 59 41q105 58 222 58q136 0 254 -79q21 -15 52 -42q38 -38 48 -53q26 -35 37 -57q16 -28 33 -76q22 -70 22 -134v-1004h-92q-34 0 -63 29q-18 21 -22 43q-2 8 -2 23v905q0 96 -65 174q-23 25 -37 35q-26 20 -44 28 q-14 8 -45 18q-38 11 -70 11h-12q-51 0 -107 -25q-24 -11 -49 -29q-13 -9 -36 -33q-70 -80 -70 -179v-374h258q34 0 51 -11q8 -3 26 -21q22 -26 22 -61v-87h-357v-351q0 -39 -21 -63q-15 -20 -46 -29q-10 -3 -19 -3h-93zM126 1454v163l321 69l321 -68v-164l-321 68z" />
<glyph unicode="&#xc3;" d="M0 0v1004q0 108 56 212q16 28 42 62q15 19 43 46q40 37 71 55q109 66 233 66h3q125 0 236 -68q118 -75 174 -205q35 -84 35 -168v-1004h-92q-34 0 -63 29q-19 21 -22 43q-2 8 -2 23v905q0 87 -55 161q-9 13 -27 31q-38 35 -78 52q-52 22 -108 22q-97 0 -175 -65 q-19 -17 -29 -29q-41 -49 -57 -115q-6 -28 -6 -57v-375h269q42 0 71 -37q17 -24 17 -54v-88h-357v-351q0 -39 -21 -63q-16 -20 -46 -29q-11 -3 -20 -3h-92zM125 1497v146h643v-146h-643z" />
<glyph unicode="&#xc4;" d="M0 0v1004q0 112 60 219q15 25 38 54q38 46 73 73q39 29 66 43q100 52 210 52q143 0 264 -86q22 -16 54 -47l15 -16q33 -38 47 -63q23 -38 36 -73q30 -79 30 -156v-1004h-92q-34 0 -63 29q-18 21 -22 43q-2 8 -2 23v905q0 94 -63 172q-22 24 -37 36q-28 21 -54 33 q-56 25 -110 25h-6q-80 0 -153 -49q-17 -12 -41 -36q-21 -24 -32 -43q-39 -66 -39 -138v-375h270q34 0 62 -27q25 -27 25 -65v-87h-357v-351q0 -39 -21 -63q-15 -20 -46 -29q-10 -3 -19 -3h-93zM246 1570q0 38 33 65q22 15 44 15h6q29 0 53 -23q25 -24 25 -56v-2 q0 -35 -29 -61q-24 -19 -52 -19q-39 0 -65 34q-15 22 -15 47zM487 1569v2q0 39 36 66q21 13 41 13h6q29 0 55 -24q23 -25 23 -56q0 -42 -38 -69q-21 -12 -43 -12q-31 0 -55 23q-25 25 -25 57z" />
<glyph unicode="&#xc5;" d="M0 0v1002q0 126 71 239q17 27 46 59q38 39 47 45q80 65 179 88q-41 44 -41 101q0 61 48 106q43 38 94 38h5q56 0 101 -44q41 -44 41 -100q0 -57 -41 -101q23 -5 53 -16q139 -53 219 -177q71 -113 71 -238v-1002h-91q-38 0 -67 32q-21 26 -21 58v903q0 121 -86 203 q-28 24 -55 39q-62 31 -121 31h-11q-59 0 -122 -31q-22 -13 -45 -31q-95 -83 -95 -211v-367h259q35 0 53 -13q28 -16 40 -48q5 -15 5 -37v-82h-357v-356q0 -47 -41 -76q-23 -14 -47 -14h-91zM381 1530q0 -17 14 -38q22 -24 52 -24q29 0 50 24q15 20 15 38v7q0 17 -12 35 q-21 27 -53 27h-1q-33 0 -55 -30q-10 -17 -10 -32v-7z" />
<glyph unicode="&#xc6;" horiz-adv-x="1701" d="M0 0v1007q0 105 57 211q20 37 59 81q32 33 51 48q29 23 54 37q30 18 76 36q76 25 141 25h15q133 0 255 -84q56 -41 96 -94q9 15 51 56q43 40 82 62q107 60 218 60h453v-93q0 -34 -31 -64q-25 -22 -61 -22h-350q-133 0 -218 -105q-37 -50 -49 -110q-6 -25 -6 -68v-358h361 q35 0 64 -30q17 -20 20 -41q2 -9 2 -29v-79h-447q0 -107 79 -189q80 -78 194 -78h350q58 0 85 -54q7 -17 7 -32v-93h-455q-111 0 -221 63q-134 82 -191 230q-26 76 -26 150v540q0 74 -21 118q-39 93 -133 140q-56 25 -115 25q-113 0 -198 -88q-45 -54 -59 -107 q-10 -35 -10 -78v-368h270q43 0 72 -41q15 -22 15 -51v-87h-357v-354q0 -58 -54 -85q-17 -7 -32 -7h-93z" />
<glyph unicode="&#xc7;" d="M0 433v562q0 112 59 217q17 31 48 68q32 36 54 54q39 31 65 45q28 17 65 30q76 28 150 28h11q113 0 221 -61q29 -18 64 -46q35 -32 53 -54q22 -27 34 -47q25 -38 44 -91q25 -73 25 -143v-94h-90q-44 0 -73 39q-12 18 -14 32q-1 0 -3 45q-4 29 -9 46q-10 34 -23 56 q-13 26 -39 55q-30 29 -42 36q-70 48 -154 48q-97 0 -175 -65q-23 -21 -34 -35q-58 -76 -58 -166v-555q0 -87 55 -162q8 -11 33 -36q79 -69 180 -69q104 0 184 74q26 26 33 39q22 31 30 54q8 20 14 42q6 31 6 68q3 21 15 41q15 20 29 27q21 13 44 13h91v-95q0 -110 -58 -215 q-19 -35 -54 -76q-32 -34 -43 -42q-43 -36 -69 -49q-30 -17 -60 -29q-26 -10 -61 -19l-12 -3v-79q0 -47 -42 -76q-22 -14 -45 -14h-92v169q-32 7 -60 17q-144 53 -228 182q-23 37 -38 75q-31 81 -31 159z" />
<glyph unicode="&#xc8;" d="M0 442v561q0 117 65 227q77 125 212 182q82 33 165 33h451v-92q0 -38 -34 -68q-25 -19 -57 -19h-353q-111 0 -191 -77q-28 -30 -39 -49q-40 -66 -40 -140v-375h359q39 0 69 -34q18 -26 18 -54v-91h-446v-1q0 -87 55 -161q10 -13 32 -35q23 -20 41 -31q65 -39 140 -39h353 q59 0 86 -53q7 -18 7 -34v-92h-452q-113 0 -221 61q-29 18 -64 46q-38 34 -52 53q-27 33 -45 64q-59 106 -59 218zM205 1590v164l643 -137v-164z" />
<glyph unicode="&#xc9;" d="M0 442v561q0 117 65 227q77 125 212 182q82 33 165 33h451v-92q0 -38 -34 -68q-25 -19 -57 -19h-353q-111 0 -191 -77q-28 -30 -39 -49q-40 -66 -40 -140v-375h359q39 0 69 -34q18 -26 18 -54v-91h-446v-1q0 -87 55 -161q10 -13 32 -35q23 -20 41 -31q65 -39 140 -39h353 q59 0 86 -53q7 -18 7 -34v-92h-452q-113 0 -221 61q-29 18 -64 46q-38 34 -52 53q-27 33 -45 64q-59 106 -59 218zM205 1453v164l429 91l214 46v-164l-54 -12z" />
<glyph unicode="&#xca;" d="M0 442v562q0 111 59 216q17 30 46 66q32 37 58 57q25 20 44 33q42 26 88 43q72 26 161 26h437v-92q0 -28 -20 -54q-19 -20 -33 -25q-14 -8 -47 -8h-353q-50 0 -107 -25q-23 -11 -49 -29q-12 -9 -36 -33q-69 -80 -69 -179v-374h347q35 0 51 -11q14 -5 30 -25 q18 -25 18 -53v-91h-446v-1q0 -67 33 -129q13 -23 41 -54q27 -27 39 -34q70 -49 156 -49h353q55 0 82 -48q10 -20 10 -39v-92h-452q-113 0 -221 61q-28 17 -61 44q-40 35 -58 59q-23 28 -38 53q-21 36 -35 72q-28 77 -28 153zM205 1454v163l322 69l321 -68v-164l-321 68z " />
<glyph unicode="&#xcb;" d="M0 442v562q0 113 61 221q78 128 213 186q34 14 65 21q51 11 71 12q14 1 54 1h429v-92q0 -34 -29 -64q-21 -17 -43 -21q-9 -2 -25 -2h-352q-80 0 -153 -49q-17 -12 -41 -36q-21 -24 -32 -43q-39 -66 -39 -138v-375h359q37 0 65 -31q22 -26 22 -57v-91h-446v-1 q0 -90 58 -166q28 -32 46 -44q73 -56 164 -56h353q56 0 83 -48q10 -20 10 -39v-92h-452q-113 0 -221 61q-30 18 -64 46q-37 34 -52 53q-26 32 -39 54q-18 28 -38 79q-27 76 -27 149zM335 1570q0 37 32 64q23 16 45 16h6q29 0 53 -23q25 -24 25 -56v-2q0 -35 -29 -61 q-24 -19 -52 -19q-38 0 -65 34q-15 22 -15 47zM576 1569v1q0 40 36 67q21 13 41 13h6q32 0 57 -27q21 -23 21 -53q0 -42 -38 -69q-21 -12 -43 -12q-41 0 -68 38q-12 20 -12 42z" />
<glyph unicode="&#xcc;" horiz-adv-x="284" d="M-230 1589v164l642 -136v-165zM2 0v1354q0 47 40 75q22 15 50 15h88v-1353q0 -49 -41 -77q-22 -14 -46 -14h-91z" />
<glyph unicode="&#xcd;" horiz-adv-x="287" d="M-230 1453v164l642 137v-164zM2 0v1356q0 42 36 71q24 18 51 18h91v-1356q0 -44 -39 -74q-24 -15 -48 -15h-91z" />
<glyph unicode="&#xce;" horiz-adv-x="287" d="M-230 1454v163l321 69l321 -68v-164l-321 68zM2 0v1356q0 45 39 75q23 14 53 14h86v-1356q0 -45 -39 -74q-24 -15 -48 -15h-91z" />
<glyph unicode="&#xcf;" horiz-adv-x="287" d="M-110 1566v6q0 34 30 60q24 18 48 18h6q28 0 53 -23q24 -26 24 -57q0 -42 -38 -69q-20 -12 -42 -12q-40 0 -66 35q-15 22 -15 42zM1 0v1349q0 37 18 59q13 18 30 27q18 10 50 10h82v-1349q0 -36 -17 -58q-17 -25 -47 -34q-13 -4 -23 -4h-93zM131 1570q0 39 35 66 q22 14 42 14h6q34 0 60 -30q18 -23 18 -48v-6q0 -28 -24 -54q-25 -23 -57 -23q-39 0 -66 35q-14 22 -14 46z" />
<glyph unicode="&#xd0;" horiz-adv-x="1479" />
<glyph unicode="&#xd1;" d="M0 0v1445h125q42 0 72 -37q7 -10 42 -81l143 -280l187 -368l145 -284v954q0 36 17 58q17 25 48 34q12 4 25 4h90v-1445h-128q-35 0 -65 31q-9 10 -26 48l-170 332l-164 322l-162 317v-955q0 -39 -21 -63q-15 -20 -46 -29q-10 -3 -19 -3h-93zM125 1494v146h643v-146h-643z " />
<glyph unicode="&#xd2;" horiz-adv-x="1553" d="M0 714v17q0 109 38 225q25 69 54 121q18 32 47 71q19 28 52 63q39 42 52 52q31 27 57 45q53 38 106 65q42 20 95 37q110 35 214 35h15q131 0 264 -53q216 -89 342 -287q38 -63 62 -127q15 -35 30 -100q17 -78 17 -147v-17q0 -129 -52 -262q-81 -196 -253 -319 q-45 -31 -77 -48q-31 -17 -68 -32q-40 -17 -100 -33q-87 -20 -164 -20h-17q-118 0 -242 44q-50 19 -96 44q-44 24 -98 65q-24 18 -59 51q-48 49 -67 75q-41 54 -67 102q-15 28 -32 70q-17 39 -32 98q-21 87 -21 165zM179 720q0 -143 74 -272q16 -27 41 -60q16 -22 49 -55 q47 -44 71 -58q43 -30 88 -50q106 -46 218 -46h5q160 0 301 92q31 21 72 58q42 42 57 64q33 43 54 87q57 116 57 240v5q0 140 -71 267q-19 33 -50 73q-38 47 -83 82q-32 26 -62 43q-130 76 -276 76h-3q-171 0 -316 -102q-24 -17 -51 -42q-40 -39 -49 -51q-26 -32 -45 -63 q-81 -134 -81 -283v-5zM401 1590v164l643 -137v-164z" />
<glyph unicode="&#xd3;" horiz-adv-x="1553" d="M0 714v17q0 109 38 225q25 69 54 121q18 32 47 71q19 28 52 63q39 42 52 52q31 27 57 45q53 38 106 65q42 20 95 37q110 35 214 35h15q131 0 264 -53q216 -89 342 -287q38 -63 62 -127q15 -35 30 -100q17 -78 17 -147v-17q0 -129 -52 -262q-81 -196 -253 -319 q-45 -31 -77 -48q-31 -17 -68 -32q-40 -17 -100 -33q-87 -20 -164 -20h-17q-118 0 -242 44q-50 19 -96 44q-44 24 -98 65q-24 18 -59 51q-48 49 -67 75q-41 54 -67 102q-15 28 -32 70q-17 39 -32 98q-21 87 -21 165zM179 720q0 -143 74 -272q16 -27 41 -60q16 -22 49 -55 q47 -44 71 -58q43 -30 88 -50q106 -46 218 -46h5q160 0 301 92q31 21 72 58q42 42 57 64q33 43 54 87q57 116 57 240v5q0 140 -71 267q-19 33 -50 73q-38 47 -83 82q-32 26 -62 43q-130 76 -276 76h-3q-171 0 -316 -102q-24 -17 -51 -42q-40 -39 -49 -51q-26 -32 -45 -63 q-81 -134 -81 -283v-5zM401 1453v164l643 137v-164z" />
<glyph unicode="&#xd4;" horiz-adv-x="1553" d="M0 715v16q0 118 44 242q30 78 74 146q25 39 69 89q41 43 55 54q24 22 45 37q51 38 84 55q50 29 126 55q111 36 226 36q206 0 387 -112q36 -23 81 -60q51 -44 83 -84q45 -54 65 -90q36 -58 58 -118q16 -37 31 -102q17 -77 17 -148v-16q0 -127 -50 -258q-91 -224 -296 -352 q-41 -24 -77 -40q-32 -15 -85 -33q-107 -32 -206 -32h-17q-118 0 -242 44q-50 19 -96 44t-99 65q-28 22 -70 63q-43 45 -69 81q-39 56 -57 92q-26 48 -49 120q-32 106 -32 206zM179 720q0 -142 74 -271q17 -30 45 -67q14 -17 48 -52q51 -46 78 -62q44 -29 95 -50 q99 -39 201 -39h5q160 0 301 92q27 18 63 50q37 35 44 45q34 41 51 69q82 134 82 285v5q0 156 -87 293q-20 32 -57 73q-35 37 -43 42q-36 30 -64 48q-53 34 -110 54q-89 31 -178 31h-9q-138 0 -267 -72q-32 -19 -64 -44q-21 -16 -55 -49q-40 -43 -59 -73q-68 -101 -86 -214 q-8 -43 -8 -89v-5zM401 1454v163l322 69l321 -68v-164l-321 68z" />
<glyph unicode="&#xd5;" horiz-adv-x="1553" d="M0 715v15q0 104 35 215q20 62 48 115q19 36 48 78q24 35 67 82q43 43 64 60q44 35 76 55q62 38 125 62q127 48 254 48h11q145 0 288 -61q48 -22 105 -58q40 -27 86 -67q36 -34 59 -60q42 -50 64 -85q34 -52 57 -108q16 -35 31 -87q27 -98 27 -189v-15q0 -130 -52 -263 q-81 -196 -253 -319q-45 -31 -77 -48q-31 -17 -68 -32q-40 -17 -100 -33q-87 -20 -164 -20h-17q-118 0 -242 44q-50 19 -96 44q-44 24 -98 65q-24 19 -58 50q-51 51 -67 75q-35 45 -63 94q-20 37 -35 73q-20 45 -37 114q-18 83 -18 156zM179 720q0 -148 80 -282 q73 -117 189 -185q129 -74 272 -74h5q153 0 289 84q30 19 64 48q7 4 43 42q39 43 55 70q25 38 42 76q48 108 48 221v5q0 140 -71 267q-21 38 -58 83q-41 46 -67 66q-37 29 -62 45q-134 80 -285 80h-1q-163 0 -303 -92q-27 -18 -62 -48q-35 -34 -45 -47q-22 -25 -40 -51 q-19 -29 -36 -61q-57 -117 -57 -242v-5zM401 1497v146h643v-146h-643z" />
<glyph unicode="&#xd6;" horiz-adv-x="1553" d="M0 715v16q0 118 44 242q86 227 290 359q69 43 142 70q122 43 247 43q199 0 376 -105q38 -24 83 -59q22 -18 57 -53q43 -45 68 -80q37 -53 55 -89q22 -41 41 -94q42 -119 42 -234v-16q0 -132 -54 -267q-21 -53 -59 -113q-23 -37 -61 -83q-15 -18 -47 -50q-48 -45 -79 -65 q-38 -29 -86 -54q-38 -20 -94 -42q-120 -41 -234 -41h-17q-118 0 -242 44q-200 76 -328 245q-34 48 -53 82q-21 37 -43 93q-48 127 -48 251zM179 720q0 -152 84 -289q22 -35 58 -75q27 -29 43 -42q38 -33 66 -50q137 -85 290 -85h5q152 0 289 84q35 22 75 58q29 27 42 43 q33 38 50 66q85 137 85 290v5q0 157 -89 296q-19 30 -54 69q-29 31 -44 44q-45 36 -73 52q-43 27 -89 45q-95 35 -191 35h-7q-152 0 -289 -85q-27 -17 -60 -45q-38 -33 -66 -66q-28 -35 -43 -59q-82 -135 -82 -286v-5zM522 1567v5q0 33 28 59q24 19 49 19h6q29 0 55 -24 q23 -25 23 -56q0 -40 -35 -67q-23 -14 -46 -14q-41 0 -68 38q-12 21 -12 40zM762 1570q0 37 32 64q23 16 46 16h6q33 0 60 -30q17 -23 17 -48v-5q0 -31 -27 -57q-24 -21 -53 -21q-39 0 -66 34q-15 22 -15 47z" />
<glyph unicode="&#xd7;" horiz-adv-x="1196" />
<glyph unicode="&#xd8;" horiz-adv-x="1593" />
<glyph unicode="&#xd9;" d="M0 442v1003h91q42 0 72 -37q16 -23 16 -58v-905q0 -87 55 -161q10 -13 32 -35q23 -20 41 -31q65 -39 140 -39q96 0 174 64q27 25 37 39q56 75 56 163v905q0 41 24 66q28 29 65 29h91l-1 -1003q0 -112 -58 -217q-18 -32 -48 -68q-32 -36 -55 -54q-39 -31 -65 -45 q-28 -17 -65 -30q-76 -28 -150 -28h-11q-113 0 -221 61q-29 18 -64 46q-38 34 -52 53q-27 33 -45 64q-59 106 -59 218zM126 1590v164l642 -137v-164z" />
<glyph unicode="&#xda;" d="M0 442v1003h91q42 0 72 -37q16 -23 16 -58v-905q0 -87 55 -161q10 -13 32 -35q23 -20 41 -31q65 -39 140 -39q96 0 174 64q27 25 37 39q56 75 56 163v905q0 41 24 66q28 29 65 29h91l-1 -1003q0 -112 -58 -217q-18 -32 -48 -68q-32 -36 -55 -54q-39 -31 -65 -45 q-28 -17 -65 -30q-76 -28 -150 -28h-11q-113 0 -221 61q-29 18 -64 46q-38 34 -52 53q-27 33 -45 64q-59 106 -59 218zM126 1453v164l642 137v-164z" />
<glyph unicode="&#xdb;" d="M0 442v1003h85q57 0 84 -49q10 -18 10 -46v-905q0 -90 58 -166q28 -32 46 -44q73 -56 164 -56q101 0 180 70q26 25 33 37q54 73 54 159v905q0 41 23 65q3 4 13 12q24 18 58 18h85v-1003q0 -103 -51 -203q-15 -29 -40 -63q-14 -19 -50 -55l-12 -11q-41 -35 -65 -47 q-19 -12 -46 -24q-89 -39 -177 -39h-11q-113 0 -221 61q-28 17 -61 44q-40 35 -58 59q-23 28 -38 53q-21 36 -35 72q-28 77 -28 153zM125 1454v163l322 69l321 -68v-164l-322 68z" />
<glyph unicode="&#xdc;" d="M0 442v1003h81q35 0 53 -12q27 -14 40 -49q5 -13 5 -34v-905q0 -87 55 -161q8 -12 33 -36q79 -69 180 -69q97 0 175 65q24 23 34 35q58 76 58 166v905q0 42 24 67q17 16 30 21q16 7 44 7h81v-1003q0 -103 -51 -203q-15 -29 -40 -63q-14 -20 -49 -55q-39 -35 -58 -45 q-19 -14 -48 -29q-97 -47 -195 -47h-11q-113 0 -221 61q-30 18 -64 46q-37 34 -52 53q-26 32 -39 54q-18 28 -38 79q-27 76 -27 149zM246 1570q0 38 33 65q22 15 44 15h6q28 0 53 -23q24 -24 24 -56v-2q0 -35 -28 -61q-24 -19 -52 -19q-39 0 -66 34q-14 22 -14 47zM487 1569 v2q0 39 36 66q21 13 41 13h6q29 0 55 -24q22 -25 22 -56q0 -42 -37 -69q-21 -12 -43 -12q-31 0 -56 23q-24 25 -24 57z" />
<glyph unicode="&#xdd;" horiz-adv-x="1366" />
<glyph unicode="&#xde;" horiz-adv-x="1366" />
<glyph unicode="&#xdf;" horiz-adv-x="985" d="M0 0v1086q0 80 40 161q20 39 53 76q23 25 38 37q27 22 47 34q90 51 182 51h10q99 0 192 -57q21 -14 49 -38q30 -29 39 -41q20 -25 31 -45q50 -87 50 -184v-1q0 -128 -85 -233q35 -17 74 -46q17 -13 50 -45q37 -41 49 -63q25 -35 45 -86q29 -79 29 -152v-12 q0 -112 -59 -217q-17 -32 -48 -69q-31 -35 -53 -52q-28 -23 -49 -36q-39 -24 -89 -43q-74 -25 -143 -25h-176v90q0 44 40 74q22 15 53 15h78q96 0 174 64q26 24 35 37q58 75 58 165v3q0 87 -55 161q-7 11 -32 36q-45 39 -95 55q-41 13 -62 13q-7 1 -43 1h-151v91q0 39 32 68 q16 14 45 20q38 1 47 3q38 8 66 27q12 7 36 29q15 18 15 19q35 49 35 109q0 71 -50 127q-25 24 -38 31q-46 28 -96 28h-6q-56 0 -108 -36q-27 -21 -43 -46q-32 -48 -32 -101v-988q0 -39 -21 -63q-16 -20 -46 -29q-11 -3 -20 -3h-92z" />
<glyph unicode="&#xe0;" d="M0 442v10q0 109 58 214q15 28 40 60q33 40 72 71q124 96 278 96h266v1q0 92 -61 169q-26 30 -42 41q-54 41 -114 52q-27 4 -43 4h-175q-33 0 -48 8q-29 14 -43 42q-9 19 -9 39v90h259q95 0 171 -30q146 -59 224 -192q18 -29 34 -74q26 -74 26 -145v-540l-1 -1h-87 q-48 0 -77 42q-14 20 -14 53v262h-254q-57 0 -90 -11q-50 -14 -97 -52q-28 -26 -36 -38q-24 -31 -33 -53q-25 -54 -25 -112v-3q0 -67 33 -129q12 -22 40 -54q30 -29 43 -36q69 -47 153 -47h353q56 0 84 -51q8 -19 8 -36v-92h-452q-113 0 -221 61q-28 17 -61 44 q-40 35 -58 59q-23 28 -38 53q-21 36 -34 70q-29 78 -29 155zM179 1500v183l458 -97l256 -55v-182l-403 85z" />
<glyph unicode="&#xe1;" d="M0 442v10q0 109 58 214q15 28 40 60q33 40 72 71q124 96 278 96h266v1q0 92 -61 169q-26 30 -42 41q-54 41 -114 52q-27 4 -43 4h-175q-33 0 -48 8q-29 14 -43 42q-9 19 -9 39v90h259q95 0 171 -30q146 -59 224 -192q18 -29 34 -74q26 -74 26 -145v-541h-88q-48 0 -77 42 q-14 20 -14 53v262h-254q-57 0 -90 -11q-50 -14 -97 -52q-28 -26 -36 -38q-24 -31 -33 -53q-25 -54 -25 -112v-3q0 -67 33 -129q12 -22 40 -54q30 -29 43 -36q69 -47 153 -47h353q56 0 84 -51q8 -19 8 -36v-92h-452q-113 0 -221 61q-28 17 -61 44q-40 35 -58 59 q-23 28 -38 53q-21 36 -34 70q-29 78 -29 155zM179 1349v182l14 3q333 71 338 72l362 77v-183l-14 -3l-370 -78z" />
<glyph unicode="&#xe2;" d="M0 441v11q0 113 62 222q81 133 228 191q24 9 56 17q46 11 119 11h249v2q0 94 -64 172q-23 25 -33 32q-35 28 -62 39q-25 11 -54 17q-25 5 -63 5h-170q-42 0 -70 35q-19 25 -19 53v91h268q143 0 263 -85q21 -16 54 -47q33 -35 50 -60q22 -33 36 -62q43 -93 43 -187v-541 h-89q-46 0 -75 40q-15 21 -15 56v261h-272q-65 0 -129 -35q-15 -8 -39 -28q-30 -27 -37 -38q-14 -18 -22 -32q-36 -64 -36 -133v-3q0 -90 58 -166q23 -27 45 -44q75 -56 164 -56h352q62 0 88 -54q7 -17 7 -33v-92h-452q-113 0 -221 61q-26 16 -58 41q-37 32 -63 63 q-33 43 -47 73q-52 100 -52 203zM179 1348v183l21 5q330 70 336 71l346 -73l11 -3v-183l-357 76z" />
<glyph unicode="&#xe3;" d="M0 442v10q0 112 61 220q78 130 217 188q33 13 60 20q50 13 121 13h255v1q0 94 -63 171q-20 23 -34 34q-75 61 -174 61h-174q-43 0 -71 34q-19 25 -19 54v91h270q124 0 235 -68q127 -81 181 -223q28 -76 28 -150v-541h-89q-46 0 -75 40q-15 21 -15 56v261h-274 q-50 0 -107 -25q-23 -11 -49 -29q-12 -9 -36 -33q-69 -80 -69 -179v-3q0 -87 55 -161q9 -13 32 -35q23 -20 41 -31q65 -39 140 -39h353q57 0 84 -51q9 -18 9 -36v-91l-1 -1h-451q-113 0 -221 61q-29 18 -64 46q-35 32 -53 53q-22 28 -34 48q-25 38 -44 91q-25 72 -25 143z M179 1396v163h714v-163h-714z" />
<glyph unicode="&#xe4;" d="M0 442v10q0 113 61 221q83 137 232 193q20 7 55 16q47 11 109 11h257v1q0 95 -64 173q-21 23 -33 32q-75 61 -173 61h-174q-52 0 -81 47q-10 20 -10 42v90h272q122 0 234 -69q125 -80 179 -219q29 -77 29 -153v-541h-88q-47 0 -76 40q-15 21 -15 56v261h-247 q-53 0 -78 -6q-24 -6 -44 -14q-101 -43 -145 -143q-21 -51 -21 -103v-3q0 -87 55 -161q10 -13 32 -35q23 -20 41 -31q65 -39 140 -39h353q57 0 84 -51q9 -18 9 -36v-92h-452q-113 0 -221 61q-29 18 -64 46q-38 34 -52 53q-27 33 -45 64q-59 106 -59 218zM312 1478 q0 43 38 72q24 17 49 17h6q33 0 62 -28q13 -15 17 -26q7 -17 7 -35q0 -42 -34 -70q-25 -20 -55 -20q-42 0 -70 34q-20 26 -20 56zM580 1476v4q0 34 27 62q28 25 59 25h6q38 0 67 -32q20 -26 20 -58q0 -41 -34 -70q-25 -19 -55 -19q-45 0 -74 39q-16 25 -16 49z" />
<glyph unicode="&#xe5;" d="M0 441v11q0 113 62 222q81 133 228 191q24 9 56 17q46 11 119 11h249v2q0 94 -64 172q-23 25 -33 32q-35 28 -62 39q-25 11 -54 17q-25 5 -63 5h-170q-42 0 -70 35q-19 25 -19 53v91h238q-42 48 -42 108q0 65 49 115q21 20 48 32q31 13 60 13h7q54 0 102 -39 q21 -20 25 -28q30 -43 30 -91v-4q0 -60 -44 -108q-20 -20 -32 -26l-6 -4v-1q5 0 54 -25q27 -16 56 -38q15 -11 47 -43q29 -32 46 -59q34 -49 54 -110q22 -69 22 -133v-541h-89q-46 0 -75 40q-15 21 -15 56v261h-272q-65 0 -129 -35q-15 -8 -39 -28q-30 -27 -37 -38 q-14 -18 -22 -32q-36 -64 -36 -133v-3q0 -90 58 -166q23 -27 45 -44q75 -56 164 -56h352q62 0 88 -54q7 -17 7 -33v-92h-452q-113 0 -221 61q-26 16 -58 41q-37 32 -63 63q-33 43 -47 73q-52 100 -52 203zM463 1447q0 -37 32 -61q20 -12 38 -12h2l1 -1v1h3q24 0 46 19 q24 23 24 54q0 34 -28 57q-21 16 -43 16h-5q-31 0 -55 -28q-15 -21 -15 -45z" />
<glyph unicode="&#xe6;" horiz-adv-x="1701" d="M0 439v15q0 110 60 217q78 133 223 192q29 11 53 17q50 13 119 13l81 1h178v5q0 77 -50 151q-11 16 -37 42q-43 38 -93 55q-44 14 -82 14h-174q-40 0 -59 15q-24 15 -36 46q-4 13 -4 28v90h273q134 0 254 -82q60 -44 98 -97q10 17 53 59q60 56 135 87q83 33 164 33h13 q115 0 228 -66q128 -81 183 -224q28 -77 28 -149v-15q0 -83 -37 -171q-15 -35 -36 -66q-11 -21 -53 -67q-41 -40 -73 -61q-116 -75 -249 -75l-42 1h-224v-6q0 -77 50 -151q11 -16 37 -42q43 -38 93 -55q44 -14 82 -14h85q40 0 61 -17q25 -16 35 -49q3 -10 3 -34v-79h-187 q-85 0 -177 40q-33 14 -82 49v-89h-455q-115 0 -228 66q-94 61 -149 153q-62 108 -62 220zM179 442q0 -81 53 -156q10 -14 35 -38q46 -40 95 -55q42 -14 79 -14h362q-35 50 -49 84q-10 21 -23 64q-17 55 -17 141v246h-273q-71 0 -141 -43q-20 -13 -45 -38q-34 -37 -48 -67 q-28 -58 -28 -115v-9zM894 626h273q71 0 141 43q20 13 45 38q32 35 44 60q32 60 32 122v9q0 81 -53 156q-10 14 -35 38q-46 40 -95 55q-42 14 -79 14h-11q-71 0 -141 -43q-19 -12 -45 -37q-33 -37 -43 -58q-33 -62 -33 -124v-273z" />
<glyph unicode="&#xe7;" d="M0 662v15q0 168 90 327q20 36 53 81q23 29 62 68q54 49 96 75q66 42 115 62q124 49 246 49h231v-94q0 -30 -26 -59q-27 -26 -66 -26h-132q-176 0 -318 -117q-46 -42 -66 -69q-106 -138 -106 -305q0 -162 100 -296q17 -23 55 -61q144 -134 344 -134h127q46 0 75 -42 q13 -23 13 -43v-93h-45v-83q0 -65 -59 -90q-14 -6 -25 -6h-95v179q-228 0 -416 145q-25 18 -68 62q-52 57 -71 88q-52 75 -82 172q-32 99 -32 195z" />
<glyph unicode="&#xe8;" d="M0 442v456q0 108 56 212q17 32 47 68q35 41 64 63q34 27 67 45q101 53 213 53q136 0 253 -79q22 -15 53 -42q29 -29 43 -46q32 -43 47 -73q50 -98 50 -201v-11q0 -108 -56 -212q-17 -30 -45 -65q-11 -15 -41 -44q-40 -35 -70 -53q-38 -24 -78 -39q-51 -17 -59 -17 q-43 -11 -110 -11h-255v-1q0 -67 33 -129q12 -22 40 -54q30 -29 43 -36q69 -47 153 -47h85q53 0 81 -47q11 -20 11 -42v-90h-184q-113 0 -221 61q-28 17 -61 44q-40 35 -58 59q-23 28 -38 53q-21 36 -34 70q-29 78 -29 155zM179 625h273q63 0 127 35q22 13 48 35 q29 28 38 44q49 71 49 152v3q0 92 -61 169q-26 30 -42 41q-54 41 -114 52q-27 4 -43 4h-15q-41 0 -92 -18q-27 -12 -54 -30q-13 -8 -39 -32q0 -1 -7 -8q-46 -50 -63 -125q-5 -28 -5 -53v-269zM179 1500v183l458 -97l256 -55v-182l-403 85z" />
<glyph unicode="&#xe9;" d="M0 442v456q0 108 56 212q17 32 47 68q35 41 64 63q34 27 67 45q101 53 213 53q136 0 253 -79q22 -15 53 -42q29 -29 43 -46q32 -43 47 -73q50 -98 50 -201v-11q0 -108 -56 -212q-17 -30 -45 -65q-11 -15 -41 -44q-40 -35 -70 -53q-38 -24 -78 -39q-51 -17 -59 -17 q-43 -11 -110 -11h-255v-1q0 -67 33 -129q12 -22 40 -54q30 -29 43 -36q69 -47 153 -47h85q53 0 81 -47q11 -20 11 -42v-90h-184q-113 0 -221 61q-28 17 -61 44q-40 35 -58 59q-23 28 -38 53q-21 36 -34 70q-29 78 -29 155zM179 625h273q63 0 127 35q22 13 48 35 q29 28 38 44q49 71 49 152v3q0 92 -61 169q-26 30 -42 41q-54 41 -114 52q-27 4 -43 4h-15q-41 0 -92 -18q-27 -12 -54 -30q-13 -8 -39 -32q0 -1 -7 -8q-46 -50 -63 -125q-5 -28 -5 -53v-269zM179 1349v182q347 74 352 75l362 77v-183l-384 -81z" />
<glyph unicode="&#xea;" d="M0 441v457q0 112 60 219q17 29 44 62q9 13 42 44q64 57 135 85q79 31 165 31h1q143 0 263 -85q21 -16 54 -47q33 -35 50 -60q22 -33 36 -62q43 -93 43 -187v-10q0 -117 -64 -226q-82 -132 -225 -187q-76 -29 -159 -29h-266v-1q0 -90 58 -166q23 -27 46 -44 q74 -56 163 -56h84q42 0 67 -25q10 -9 16 -19q12 -22 12 -45v-89v-1h-184q-113 0 -221 61q-26 16 -58 41q-37 32 -63 63q-33 43 -47 73q-52 100 -52 203zM89 1348v183l22 5q318 68 336 71l346 -73l11 -3v-183l-358 76zM179 625h253q53 0 82 9q45 12 80 35q17 11 44 37 q29 31 36 46q40 65 40 139v4q0 86 -55 160q-11 14 -25 29q-31 28 -48 37q-65 39 -140 39q-96 0 -174 -64q-27 -25 -33 -34q-20 -24 -33 -52q-27 -57 -27 -115v-270z" />
<glyph unicode="&#xeb;" d="M0 442v456q0 117 65 227q77 125 212 181q82 33 165 33h9q122 0 234 -69q125 -80 179 -219q29 -77 29 -153v-11q0 -103 -52 -204q-19 -35 -50 -75q-38 -43 -65 -63q-124 -99 -284 -99h-263v-1q0 -87 55 -161q10 -13 32 -35q23 -20 41 -31q65 -39 140 -39h85q57 0 84 -50 q9 -18 9 -39v-90h-184q-113 0 -221 61q-29 18 -64 46q-38 34 -52 53q-27 33 -45 64q-59 106 -59 218zM179 625h250q55 0 82 8q27 6 63 24q7 3 40 27q29 24 44 44q56 75 56 163v3q0 87 -55 162q-8 11 -33 36q-79 68 -180 68t-180 -69q-27 -26 -35 -40q-52 -72 -52 -157v-269z M223 1478q0 44 39 74q24 15 47 15h7q32 0 61 -27q11 -13 15 -21q10 -19 10 -39v-4q0 -39 -34 -68q-26 -20 -55 -20q-42 0 -71 35q-19 25 -19 55zM491 1476v4q0 39 34 68q25 19 52 19h7q34 0 63 -29q23 -27 23 -60q0 -42 -35 -71q-25 -19 -55 -19q-42 0 -71 36q-18 24 -18 52 z" />
<glyph unicode="&#xec;" horiz-adv-x="298" d="M-260 1501v182l494 -105l221 -47v-182l-414 87zM8 0v1183q0 48 44 77q22 12 47 12h88v-1183q0 -45 -40 -74q-23 -15 -47 -15h-92z" />
<glyph unicode="&#xed;" horiz-adv-x="298" d="M-260 1349v182l15 3l365 78l335 71v-182l-406 -87zM8 0v1183q0 48 44 77q22 12 47 12h88v-1183q0 -45 -40 -74q-23 -15 -47 -15h-92z" />
<glyph unicode="&#xee;" horiz-adv-x="304" d="M-260 1350v182l24 5q317 68 334 71l357 -76v-183l-358 76zM8 0v1184q0 43 36 71q24 18 52 18h91v-1184q0 -45 -40 -74q-23 -15 -47 -15h-92z" />
<glyph unicode="&#xef;" horiz-adv-x="287" d="M-130 1476v6q0 32 28 61q22 19 40 23q10 2 19 2h5q38 0 68 -34q19 -26 19 -55q0 -42 -35 -71q-24 -19 -54 -19q-45 0 -74 39q-16 25 -16 48zM4 0v1178q0 39 21 63q16 18 31 24q15 8 47 8h80v-1178q0 -39 -21 -63q-15 -20 -47 -30q-10 -2 -18 -2h-93zM138 1479q0 44 39 74 q24 15 48 15h6q32 0 61 -27q16 -19 20 -31q5 -16 5 -28v-6q0 -34 -29 -64q-27 -23 -60 -23q-46 0 -76 41q-14 23 -14 49z" />
<glyph unicode="&#xf0;" horiz-adv-x="1139" />
<glyph unicode="&#xf1;" d="M0 0v1340h91q38 0 67 -31q21 -27 21 -58q79 59 175 80q46 9 89 9h6q124 0 236 -68q126 -82 181 -223q27 -76 27 -151v-898h-92q-34 0 -63 29q-18 21 -22 43q-2 8 -2 23v800q0 87 -55 161q-8 12 -33 36q-79 69 -179 69q-98 0 -175 -65q-20 -18 -30 -30q-41 -47 -56 -114 q-7 -28 -7 -57v-800q0 -39 -21 -63q-15 -20 -46 -29q-10 -3 -19 -3h-93zM89 1397v163h715v-163h-715z" />
<glyph unicode="&#xf2;" horiz-adv-x="1446" d="M0 663v15q0 129 55 259q25 59 69 122q21 30 57 70q35 36 56 53q41 34 81 59q165 99 352 99q166 0 316 -79q43 -22 92 -59q23 -17 66 -58q41 -43 58 -66q43 -58 70 -113q19 -37 37 -91q31 -100 31 -196v-15q0 -137 -61 -273q-25 -56 -70 -118q-21 -29 -57 -68 q-47 -47 -74 -66q-47 -35 -84 -55q-33 -19 -81 -38q-118 -45 -236 -45h-14q-137 0 -273 61q-56 25 -119 70q-24 18 -58 49q-41 40 -50 52q-39 45 -65 88q-33 55 -54 110q-44 117 -44 233zM179 668q0 -153 91 -284q18 -26 54 -63q45 -42 71 -58q54 -37 121 -60 q75 -24 153 -24h2q127 0 242 64q29 16 64 43q17 14 48 44q37 41 53 66q83 127 83 272v4q0 149 -87 278q-17 24 -46 57q-35 35 -47 44q-32 26 -62 43q-118 67 -244 67h-10q-122 0 -238 -64q-29 -16 -64 -43q-44 -36 -79 -80q-32 -42 -48 -73q-57 -109 -57 -229v-4zM312 1500 v183l403 -85l313 -67v-182l-381 80z" />
<glyph unicode="&#xf3;" horiz-adv-x="1450" d="M0 663v15q0 129 55 259q25 59 69 122q21 30 57 70q35 36 56 53q51 41 84 60q163 98 349 98q166 0 316 -79q43 -22 92 -59q23 -17 66 -58q41 -43 58 -66q43 -58 70 -113q19 -37 37 -91q31 -100 31 -196v-15q0 -137 -61 -273q-25 -56 -70 -118q-21 -29 -57 -68 q-47 -47 -74 -66q-47 -35 -84 -55q-33 -19 -81 -38q-118 -45 -236 -45h-14q-137 0 -273 61q-56 25 -119 70q-24 18 -58 49q-41 40 -50 52q-39 45 -65 88q-33 55 -54 110q-44 117 -44 233zM179 668q0 -153 91 -284q18 -26 54 -63q45 -42 71 -58q54 -37 121 -60 q75 -24 153 -24h2q127 0 242 64q29 16 64 43q17 14 48 44q37 41 53 66q83 127 83 272v4q0 149 -87 278q-17 24 -46 57q-35 35 -47 44q-32 26 -62 43q-118 67 -244 67h-10q-122 0 -238 -64q-29 -16 -64 -43q-44 -36 -79 -80q-32 -42 -48 -73q-57 -109 -57 -229v-4zM312 1349 v182l368 78l348 74v-182l-421 -90z" />
<glyph unicode="&#xf4;" horiz-adv-x="1450" d="M0 662v15q0 132 56 264q20 45 53 97q21 32 55 72q13 15 50 51l16 15q44 37 74 55q52 33 86 48q135 61 276 61h8q150 0 292 -68q46 -22 98 -59q25 -18 71 -60q47 -48 67 -75q26 -34 41 -59q27 -45 52 -106q45 -119 45 -236v-15q0 -126 -53 -255q-24 -55 -60 -110 q-22 -33 -60 -77q-39 -41 -56 -55q-42 -35 -71 -54q-47 -31 -88 -49q-37 -18 -91 -34q-95 -28 -184 -28h-14q-137 0 -273 61q-49 22 -103 59q-27 19 -61 48q-45 41 -61 61q-35 42 -54 71q-29 44 -50 89q-19 40 -35 94q-26 94 -26 179zM179 668q0 -147 85 -275q14 -19 25 -33 q41 -48 77 -76q43 -32 69 -45q110 -60 233 -60h4q152 0 282 90q23 15 60 50q41 43 54 63q27 37 45 75q48 102 48 211v4q0 153 -91 284q-18 26 -54 63q-32 30 -48 42q-46 34 -94 56q-99 44 -204 44q-159 0 -293 -96q-21 -15 -55 -48q-33 -34 -49 -57q-27 -38 -46 -77 q-48 -102 -48 -211v-4zM312 1348v182l14 4q242 52 344 73l358 -76v-183l-358 76z" />
<glyph unicode="&#xf5;" horiz-adv-x="1443" d="M0 663v14q0 144 67 285q24 50 63 105q18 24 51 61q44 45 61 58q52 42 97 67q42 24 98 45q114 42 228 42h10q130 0 258 -53q52 -23 109 -59q33 -22 72 -56q38 -34 65 -66q48 -58 69 -97q26 -44 44 -89q48 -122 48 -243v-14q0 -127 -53 -256q-23 -53 -60 -110 q-19 -28 -45 -59q-13 -16 -44 -48q-43 -40 -69 -58q-43 -33 -94 -59q-42 -22 -102 -42q-99 -31 -196 -31h-14q-137 0 -273 61q-50 23 -105 60q-34 24 -73 60q-43 42 -50 52q-40 47 -65 89q-20 34 -37 70q-16 35 -30 78q-30 99 -30 193zM179 668q0 -153 91 -284 q16 -22 40 -48q26 -28 45 -43q44 -35 73 -51q114 -63 241 -63h2q147 0 274 84q28 18 65 53q35 35 51 56q24 33 37 57q63 114 63 239v4q0 146 -85 274q-18 28 -53 66q-29 28 -40 37q-45 35 -74 50q-112 62 -239 62q-159 0 -293 -97q-23 -17 -51 -43q-36 -38 -46 -53 q-13 -16 -30 -44q-71 -119 -71 -252v-4zM312 1397v163h716v-163h-716z" />
<glyph unicode="&#xf6;" horiz-adv-x="1453" d="M0 663v14q0 139 62 277q18 36 41 74q23 36 60 81q45 48 71 70q44 37 89 64q53 32 103 51q119 46 239 46h10q138 0 272 -60q41 -18 88 -48q31 -20 70 -53q15 -11 52 -49q44 -47 68 -85q51 -74 81 -164q34 -103 34 -204v-14q0 -127 -53 -256q-23 -53 -60 -110 q-19 -29 -45 -59q-14 -17 -52 -56l-21 -18q-46 -39 -79 -59q-40 -25 -70 -39q-44 -22 -105 -40q-92 -26 -178 -26h-14q-137 0 -273 61q-50 23 -105 60q-34 24 -73 60q-46 44 -58 61q-34 42 -53 73q-23 37 -39 73q-18 37 -34 91q-28 95 -28 184zM179 668q0 -152 90 -282 q16 -23 52 -62q38 -36 57 -49q39 -28 69 -43q107 -53 221 -53h4q158 0 293 98q20 15 52 45q36 38 52 61q92 132 92 285v4q0 153 -91 284q-18 26 -54 63q-43 40 -63 52q-31 22 -64 39q-104 51 -218 51h-2q-158 0 -292 -97q-23 -17 -53 -45q-41 -44 -57 -69q-25 -35 -45 -78 q-43 -98 -43 -200v-4zM446 1479q0 38 30 66q27 23 58 23h5q34 0 63 -29q23 -27 23 -58v-4q0 -39 -33 -69q-26 -19 -56 -19q-45 0 -75 41q-15 23 -15 49zM715 1477v4q0 34 27 62q27 25 59 25h5q37 0 67 -32q21 -26 21 -58q0 -41 -35 -70q-25 -19 -55 -19q-42 0 -71 36 q-18 24 -18 52z" />
<glyph unicode="&#xf7;" horiz-adv-x="851" d="M0 720v92h665q33 0 62 -28q20 -23 23 -46q2 -9 2 -26v-79h-657q-62 0 -88 55q-7 17 -7 32zM243 1048q0 -39 23 -77q6 -11 22 -27q11 -10 20 -16q40 -27 82 -27h6q40 0 80 25q10 7 23 19q44 46 44 107t-46 108q-20 17 -34 24q-34 17 -68 17h-4q-47 0 -89 -30 q-8 -6 -20 -18q-18 -21 -25 -39q-14 -31 -14 -60v-6zM244 379q0 -39 23 -77q6 -11 22 -27q11 -10 20 -16q40 -27 82 -27h6q40 0 80 25q10 7 23 19q44 46 44 107t-46 108q-20 17 -34 24q-34 17 -68 17h-4q-47 0 -89 -30q-8 -6 -20 -18q-18 -21 -25 -39q-14 -31 -14 -60v-6z " />
<glyph unicode="&#xf8;" horiz-adv-x="1251" />
<glyph unicode="&#xf9;" d="M0 442v897h86q56 0 83 -49q10 -18 10 -46v-799q0 -90 58 -166q28 -32 46 -44q73 -56 164 -56q101 0 180 70q26 25 33 37q54 73 54 159v799q0 41 23 65q6 7 14 14q24 16 56 16h86v-1339h-92q-31 0 -59 25q-28 28 -28 64q-50 -38 -113 -62q-77 -27 -147 -27h-13 q-113 0 -221 61q-28 17 -61 44q-40 35 -58 59q-23 28 -38 53q-21 36 -34 70q-29 78 -29 155zM89 1500v183l449 -95l266 -57v-182l-403 85z" />
<glyph unicode="&#xfa;" d="M0 442v897h86q56 0 83 -49q10 -18 10 -46v-799q0 -90 58 -166q28 -32 46 -44q73 -56 164 -56q101 0 180 70q26 25 33 37q54 73 54 159v799q0 41 23 65q6 7 14 14q24 16 56 16h86v-1339h-92q-31 0 -59 25q-28 28 -28 64q-50 -38 -113 -62q-77 -27 -147 -27h-13 q-113 0 -221 61q-28 17 -61 44q-40 35 -58 59q-23 28 -38 53q-21 36 -34 70q-29 78 -29 155zM89 1349v182l386 82l329 70v-182l-384 -82z" />
<glyph unicode="&#xfb;" d="M0 441v899h90q45 0 75 -40q14 -22 14 -56v-799q0 -90 58 -165q24 -28 46 -45q74 -56 163 -56h2q95 0 173 64q25 23 35 36q58 76 58 166v799q0 37 18 60q16 23 49 33q12 3 22 3h91v-1340h-93q-31 0 -59 25q-28 28 -28 64q-50 -38 -112 -62q-78 -27 -148 -27h-13 q-113 0 -221 61q-26 16 -58 41q-37 32 -63 64q-33 43 -47 72q-52 100 -52 203zM90 1349v183l357 76l357 -76v-183l-357 76z" />
<glyph unicode="&#xfc;" d="M0 442v898h91q42 0 71 -37q17 -23 17 -58v-800q0 -87 55 -161q10 -13 32 -35q23 -20 41 -31q65 -39 140 -39q96 0 174 64q27 25 37 39q56 75 56 163v800q0 41 24 66q28 29 64 29h91v-1340h-92q-31 0 -59 25q-28 28 -28 64q-50 -38 -113 -62q-77 -27 -147 -27h-13 q-113 0 -221 61q-29 18 -64 46q-38 34 -52 53q-27 33 -45 64q-59 106 -59 218zM223 1479q0 44 39 74q24 15 47 15h7q32 0 61 -27q11 -13 15 -21q10 -19 10 -39v-4q0 -39 -34 -69q-26 -19 -55 -19q-42 0 -71 35q-19 25 -19 55zM491 1477v4q0 39 34 68q25 19 52 19h7 q34 0 63 -29q23 -27 23 -60q0 -42 -35 -71q-25 -19 -55 -19q-42 0 -71 36q-18 24 -18 52z" />
<glyph unicode="&#xfd;" horiz-adv-x="1024" />
<glyph unicode="&#xfe;" horiz-adv-x="1139" />
<glyph unicode="&#xff;" d="M0 888v452h93q33 0 63 -29q18 -21 21 -43q2 -8 2 -23v-353q0 -87 55 -161q8 -11 32 -36q45 -39 95 -56q40 -12 55 -12q10 -2 50 -2h248v620q0 39 22 63q15 20 45 29q11 3 20 3h93l-1 -898q0 -112 -58 -217q-18 -32 -49 -69q-31 -35 -53 -52q-28 -23 -48 -36 q-39 -24 -89 -43q-74 -25 -144 -25h-183l-1 90q0 46 42 75q21 14 52 14h84q102 0 181 70q27 26 36 39q51 72 51 157v1h-261q-196 0 -333 142q-25 29 -40 50q-31 47 -44 80q-36 85 -36 170zM222 1478q0 43 38 72q24 17 49 17h6q33 0 62 -28q13 -15 17 -26q7 -17 7 -35 q0 -42 -34 -70q-25 -20 -55 -20q-42 0 -70 34q-20 26 -20 56zM490 1476v4q0 34 27 62q28 25 59 25h6q38 0 67 -32q20 -26 20 -58q0 -41 -34 -70q-25 -19 -55 -19q-45 0 -74 39q-16 25 -16 49z" />
<glyph unicode="&#x152;" horiz-adv-x="1701" d="M0 435v575q0 82 41 176q18 40 50 83q16 22 52 57q48 43 90 65q33 17 64 29q77 25 138 25h19q117 0 229 -67q31 -18 72 -56q38 -38 49 -55q8 15 54 60q68 61 152 92q76 26 144 26h454v-93q0 -33 -28 -62q-25 -24 -67 -24h-354q-112 0 -197 -88q-68 -81 -68 -177v-376h361 q34 0 64 -31q21 -27 21 -55v-93h-446v-2q0 -112 88 -197q81 -68 177 -68h354q66 0 90 -59q5 -14 5 -27v-93h-454q-117 0 -229 67q-31 18 -72 56q-38 38 -49 55q-8 -15 -54 -60q-68 -61 -152 -92q-76 -26 -144 -26h-19q-81 0 -173 39q-59 27 -114 76q-48 46 -53 57 q-62 76 -85 178q-10 51 -10 85zM179 446q0 -113 88 -198q53 -45 109 -60q35 -9 68 -9h5q112 0 197 88q68 81 68 177v557q0 112 -88 197q-81 68 -177 68h-5q-103 0 -185 -76q-80 -83 -80 -191v-553z" />
<glyph unicode="&#x153;" horiz-adv-x="1701" d="M0 435v470q0 88 45 186q24 47 65 96q42 45 61 58q52 41 120 68q80 27 144 27h20q122 0 239 -74q28 -19 59 -47q33 -32 51 -57q17 23 55 61q59 50 100 69q96 48 194 48h20q85 0 181 -43q35 -16 83 -51q19 -14 61 -59q42 -50 58 -84q25 -46 41 -108q11 -53 11 -90v-22 q0 -103 -58 -211q-21 -37 -58 -79q-34 -36 -57 -54q-45 -32 -82 -50q-48 -23 -110 -35q-33 -8 -100 -8h-250q0 -110 85 -195q81 -72 183 -72h86q62 0 87 -57q6 -16 6 -31v-91h-187q-122 0 -239 74q-28 19 -59 47q-33 32 -51 57q-18 -24 -55 -61q-59 -50 -100 -69 q-96 -48 -194 -48h-20q-85 0 -181 43q-35 16 -83 51q-19 14 -61 59q-42 50 -58 84q-25 46 -41 108q-11 53 -11 90zM179 451q0 -124 93 -207q77 -65 175 -65q113 0 196 86q42 47 60 102q12 38 12 95v416q0 79 -26 129q-13 30 -44 66q-84 88 -198 88q-107 0 -189 -77 q-79 -81 -79 -195v-438zM893 626h273q92 0 171 65q92 85 92 203q0 111 -84 195q-81 72 -184 72q-113 0 -197 -86q-38 -43 -56 -94q-15 -39 -15 -103v-252z" />
<glyph unicode="&#x178;" d="M0 1065v380h93q33 0 63 -29q18 -21 21 -43q2 -8 2 -23v-280q0 -90 58 -165q24 -28 46 -45q74 -56 162 -56h3q89 0 164 57q35 29 48 49q11 13 24 37q30 60 30 123v280q0 39 22 63q15 20 45 29q11 3 20 3h93l-1 -380q0 -89 -40 -180q-17 -38 -47 -79q-14 -20 -45 -52 q-43 -40 -67 -54q-36 -25 -73 -40q-25 -11 -66 -22l-19 -4v-544q0 -48 -41 -76q-23 -14 -46 -14h-92v634q-30 6 -56 15q-45 16 -80 37q-32 18 -67 48q-35 32 -48 49q-22 27 -34 46q-23 35 -40 75q-32 83 -32 161zM246 1570q0 38 33 65q22 15 44 15h6q29 0 53 -23 q25 -24 25 -56v-2q0 -35 -29 -61q-24 -19 -52 -19q-39 0 -65 34q-15 22 -15 47zM487 1569v2q0 39 36 66q21 13 41 13h6q29 0 55 -24q23 -25 23 -56q0 -42 -38 -69q-21 -12 -43 -12q-31 0 -55 23q-25 25 -25 57z" />
<glyph unicode="&#x2c6;" horiz-adv-x="699" d="M0 1454v163l321 69l321 -68v-164l-321 68z" />
<glyph unicode="&#x2dc;" horiz-adv-x="702" d="M0 1497v146h643v-146h-643z" />
<glyph unicode="&#x2000;" horiz-adv-x="900" />
<glyph unicode="&#x2001;" horiz-adv-x="1801" />
<glyph unicode="&#x2002;" horiz-adv-x="900" />
<glyph unicode="&#x2003;" horiz-adv-x="1801" />
<glyph unicode="&#x2004;" horiz-adv-x="600" />
<glyph unicode="&#x2005;" horiz-adv-x="450" />
<glyph unicode="&#x2006;" horiz-adv-x="300" />
<glyph unicode="&#x2007;" horiz-adv-x="300" />
<glyph unicode="&#x2008;" horiz-adv-x="225" />
<glyph unicode="&#x2009;" horiz-adv-x="360" />
<glyph unicode="&#x200a;" horiz-adv-x="100" />
<glyph unicode="&#x2010;" horiz-adv-x="851" d="M0 720v92h665q33 0 62 -28q20 -23 23 -46q2 -9 2 -26v-79h-657q-62 0 -88 55q-7 17 -7 32z" />
<glyph unicode="&#x2011;" horiz-adv-x="851" d="M0 720v92h665q33 0 62 -28q20 -23 23 -46q2 -9 2 -26v-79h-657q-62 0 -88 55q-7 17 -7 32z" />
<glyph unicode="&#x2012;" horiz-adv-x="851" d="M0 720v92h665q33 0 62 -28q20 -23 23 -46q2 -9 2 -26v-79h-657q-62 0 -88 55q-7 17 -7 32z" />
<glyph unicode="&#x2013;" horiz-adv-x="844" d="M0 720v92h665q33 0 62 -28q20 -23 23 -46q2 -9 2 -26v-79h-657q-62 0 -88 55q-7 17 -7 32z" />
<glyph unicode="&#x2014;" horiz-adv-x="989" d="M0 720v92h807q33 0 62 -28q6 -7 11 -13q13 -23 13 -45l1 -93h-799q-62 0 -88 55q-7 17 -7 32z" />
<glyph unicode="&#x2018;" horiz-adv-x="301" d="M0 932l1 513h92q34 0 63 -29q23 -27 24 -62v-519h-84q-39 0 -61 20q-16 12 -23 25q-12 19 -12 52z" />
<glyph unicode="&#x2019;" horiz-adv-x="301" d="M0 926v519h84q39 0 61 -19q15 -12 22 -26q13 -18 13 -52v-513h-93q-34 0 -64 30q-23 26 -23 61z" />
<glyph unicode="&#x201a;" horiz-adv-x="455" />
<glyph unicode="&#x201c;" horiz-adv-x="600" d="M0 922v523h92q38 0 68 -34q19 -25 19 -56v-520h-83q-38 0 -60 19q-16 12 -24 27q-12 21 -12 41zM268 932v513h93q34 0 63 -29q23 -27 23 -62l1 -519h-84q-39 0 -61 20q-16 12 -23 25q-12 19 -12 52z" />
<glyph unicode="&#x201d;" horiz-adv-x="600" d="M0 926v519h84q39 0 61 -19q15 -12 22 -26q13 -18 13 -52v-513h-93q-34 0 -64 30q-23 26 -23 61zM268 925v520h84q38 0 60 -18q16 -12 24 -27q11 -21 11 -41l1 -524h-92q-39 0 -69 34q-19 26 -19 56z" />
<glyph unicode="&#x201e;" horiz-adv-x="682" />
<glyph unicode="&#x2022;" horiz-adv-x="745" d="M0 718v9q0 60 40 116q22 27 42 41q55 38 113 38h277q53 0 105 -33q58 -39 80 -106q9 -31 9 -57v-7q0 -53 -31 -105q-8 -13 -31 -36q-33 -31 -70 -43q-31 -12 -74 -12h-254q-58 0 -99 23q-8 2 -34 22q-23 21 -31 32q-16 21 -22 36q-20 42 -20 82z" />
<glyph unicode="&#x2026;" horiz-adv-x="800" d="M0 0v178h89q46 0 75 -39q15 -24 15 -47v-92h-179zM260 0v178h89q46 0 75 -39q15 -24 15 -47v-92h-179zM520 0v178h89q46 0 75 -39q15 -24 15 -47v-92h-179z" />
<glyph unicode="&#x202f;" horiz-adv-x="360" />
<glyph unicode="&#x2039;" horiz-adv-x="459" d="M0 722l102 383l46 171q13 35 47 51q19 8 33 8h120l-109 -411l-54 -202l104 -388l59 -224h-119q-30 0 -58 24q-19 20 -23 34q-3 10 -60 224z" />
<glyph unicode="&#x203a;" horiz-adv-x="452" d="M0 110l109 411l54 202l-104 387l-59 225h119q30 0 58 -24q19 -20 23 -34q3 -10 60 -224l88 -331l-102 -383l-46 -171q-14 -34 -47 -51q-19 -7 -33 -7h-120z" />
<glyph unicode="&#x205f;" horiz-adv-x="450" />
<glyph unicode="&#x20ac;" horiz-adv-x="1078" d="M0 585v93h652q49 0 77 -42q14 -22 14 -47l-1 -90h-474v-44q0 -62 19 -108q42 -99 138 -144q52 -24 111 -24h353q59 0 86 -53q7 -18 7 -34v-92h-451q-104 0 -203 51q-44 22 -93 65q-35 35 -42 45q-27 33 -40 56q-63 108 -63 227v55h-2q-35 0 -62 27q-26 28 -26 59zM90 855 v146q0 137 82 257q13 19 43 51q39 38 52 45q20 17 47 32q106 59 217 59h452l-1 -92q0 -34 -29 -64q-21 -17 -43 -21q-8 -2 -21 -2h-353q-103 0 -183 -72q-24 -24 -35 -40q-38 -56 -47 -117q-3 -18 -3 -47v-44h476q41 0 70 -37q18 -24 18 -51l-1 -91h-651q-50 0 -79 45 q-11 22 -11 43z" />
<glyph unicode="&#x2122;" horiz-adv-x="745" d="M0 1412v33h285q17 0 28 -18q2 -6 2 -13l1 -32h-127v-415q0 -21 -21 -30q-6 -2 -10 -2h-32v447h-94q-21 0 -30 22q-2 4 -2 8zM346 935v510h46q13 0 24 -14q5 -9 88 -188q84 180 89 189q7 9 17 12l6 1h46v-510h-32q-22 0 -31 24v7l-1 329q-91 -198 -94 -201l-94 201v-328 q0 -21 -21 -30q-6 -2 -11 -2h-32z" />
<glyph unicode="&#x25fc;" horiz-adv-x="1340" d="M0 0v1340h1340v-1340h-1340z" />
</font>
</defs>
</svg>
