<?xml version="1.0" encoding="utf-8"?>
<!-- Generator: Adobe Illustrator 16.0.0, SVG Export Plug-In . SVG Version: 6.00 Build 0)  -->
<!DOCTYPE svg PUBLIC "-//W3C//DTD SVG 1.1//EN" "http://www.w3.org/Graphics/SVG/1.1/DTD/svg11.dtd">
<svg version="1.1" id="Calque_1" xmlns="http://www.w3.org/2000/svg" xmlns:xlink="http://www.w3.org/1999/xlink" x="0px" y="0px"
	 width="250px" height="300px" viewBox="0 0 250 300" enable-background="new 0 0 250 300" xml:space="preserve">
<g>
	<g>
		<path fill="#0A4E9B" d="M77.479,8.271c25.42-0.322,37.725,24.625,37.441,66.481s-18.973,72.824-11.549,111.97
			c7.426,39.145,11.578,53.37,12.018,66.895c0.439,13.525-4.951,37.086-40.688,35.784c-35.736-1.303-34.129-27.612-38.963-75.458
			S10.55,120.397,9.144,89.673C7.735,58.948,36.058,8.795,77.479,8.271z"/>
		<path fill="#6DCFF6" d="M44.679,211.191c-5.713-8.63-28.025-41.759-20.68-68.255c7.348-26.495,31.322-58.864,46.619-67.978
			c11.887,12.334,33.084,40.58,38.984,50.842c6.02,10.471,12.629,9.846-9.188,83.583c-2.506,8.469-10.986,2.817-10.762-2.934
			c0.225-5.75,12.189-35.269,14.588-43.553c2.094-7.23,18.035-28.996,9.66-47.495c-4.949-10.934-15.07-30.692-38.725-51.669
			c1.467-5.381,5.934-6.757,5.021-9.6c-0.912-2.842-7.549-5.089-9.494-1.743c-1.941,3.345,0.199,6.147-4.609,9.585
			c-4.813,3.439-57.963,48.605-46.84,86.448c11.123,37.842,17.932,21.573,33.367,54.713
			C56.563,210.806,49.983,219.214,44.679,211.191z"/>
	</g>
	<g>
		<path fill="#0A4E9B" d="M181.011,11.736c-25.244-3.021-40.129,20.476-44.293,62.128c-4.17,41.649,11.123,74.427-0.42,112.561
			c-11.543,38.134-17.184,51.838-19.059,65.238c-1.873,13.403,0.98,37.403,36.652,39.905c35.674,2.504,36.871-23.828,46.764-70.89
			c9.891-47.059,34.988-90.339,39.652-120.74C244.972,69.537,222.14,16.659,181.011,11.736z"/>
		<path fill="#6DCFF6" d="M192.062,216.993c6.594-7.975,32.301-38.545,27.813-65.672c-4.488-27.126-24.887-61.86-39.129-72.545
			c-13.129,10.998-37.211,36.832-44.166,46.409c-7.1,9.772-13.604,8.448,0.25,84.087c1.592,8.687,10.623,3.97,11.014-1.774
			c0.389-5.743-8.371-36.364-9.877-44.855c-1.313-7.411-14.852-30.75-4.559-48.252c6.082-10.348,18.246-28.917,44-47.261
			c-0.889-5.507-5.184-7.349-3.975-10.078s8.049-4.258,9.625-0.725c1.576,3.532-0.852,6.092,3.568,10.021
			c4.418,3.931,52.465,54.488,37.383,90.935c-15.078,36.445-20.121,19.544-38.99,50.858
			C180.282,215.347,185.931,224.406,192.062,216.993z"/>
	</g>
</g>
</svg>
