<?xml version="1.0" encoding="utf-8"?>
<!-- Generator: Adobe Illustrator 16.0.0, SVG Export Plug-In . SVG Version: 6.00 Build 0)  -->
<!DOCTYPE svg PUBLIC "-//W3C//DTD SVG 1.1//EN" "http://www.w3.org/Graphics/SVG/1.1/DTD/svg11.dtd">
<svg version="1.1" id="Calque_1" xmlns="http://www.w3.org/2000/svg" xmlns:xlink="http://www.w3.org/1999/xlink" x="0px" y="0px"
	 width="250px" height="300px" viewBox="0 0 250 300" enable-background="new 0 0 250 300" xml:space="preserve">
<g>
	<path fill="#FAA61A" d="M146.581,233.826c0.015-0.005,0.015-0.009,0.03-0.015c24.336-6.946,39.725-27.875,43.169-51.618
		c4.081-28.107-14.699-41.841-14.699-70.519c0-18.952,4.702-36.513,12.694-51.243c-35.729,1.41-89.322,0.478-122.701,0
		c5.012,7.522,14.104,15.984,14.572,47.482c0.47,31.498-19.273,45.132-16.453,72.87c2.32,22.832,20.272,45.624,47.052,52.986
		c0.042,0.021,0.063,0.037,0.106,0.057c12.137,5.664,12.547,17.476,12.547,26.408c0,8.932-0.939,19.275-10.342,20.215
		c-9.402,0.94-62.057,11.283-38.08,11.283s71.459,0,102.956,0c31.499,0-28.142-8.862-36.669-11.283
		c-9.51-2.699-6.111-14.104-6.111-20.215S136.705,237.635,146.581,233.826z"/>
	<path fill="#D11A6F" d="M170.939,114.811c0,26.225,17.17,38.784,13.439,64.487c-3.867,26.653-24.189,49.438-55.908,49.438
		c-33.625,0-57.271-25.365-59.85-50.728c-2.457-24.188,13.848-36.648,14.982-62.729C83.662,114.01,157.528,114.339,170.939,114.811z
		"/>
	<path fill="#FAA61A" d="M225.701,15.929h-34.406c-0.07,0-0.133,0.019-0.203,0.02c-2.449,0.013-4.752,1.506-5.648,3.941
		l-73.809,200.712c-1.155,3.135,0.455,6.609,3.588,7.761s6.606-0.453,7.76-3.588L195.32,28.07h30.381
		c3.349,0,6.068-2.718,6.068-6.069C231.77,18.647,229.05,15.929,225.701,15.929z"/>
	<g>
		<path fill="#FAA61A" d="M100.979,218.352c0.111,1.292-0.844,2.435-2.137,2.549l0,0c-1.293,0.113-2.432-0.844-2.549-2.137
			L77.932,10.826c-0.113-1.293,0.842-2.434,2.135-2.549l0,0c1.293-0.114,2.431,0.843,2.549,2.136L100.979,218.352z"/>
		<polygon fill="#FAA61A" points="18.23,53.55 80.822,16.851 148.873,42.021 		"/>
		<polygon fill="#D11A6F" points="55.92,50.222 80.822,16.851 109.779,45.472 		"/>
	</g>
</g>
</svg>
