<?xml version="1.0" encoding="utf-8"?>
<!-- Generator: Adobe Illustrator 16.0.0, SVG Export Plug-In . SVG Version: 6.00 Build 0)  -->
<!DOCTYPE svg PUBLIC "-//W3C//DTD SVG 1.1//EN" "http://www.w3.org/Graphics/SVG/1.1/DTD/svg11.dtd">
<svg version="1.1" id="Calque_1" xmlns="http://www.w3.org/2000/svg" xmlns:xlink="http://www.w3.org/1999/xlink" x="0px" y="0px"
	 width="300px" height="300px" viewBox="0 0 300 300" enable-background="new 0 0 300 300" xml:space="preserve">
<g>
	<path fill="#ED1C24" d="M291.732,149.999c0-78.277-63.452-141.732-141.735-141.732C71.721,8.266,8.268,71.721,8.268,149.999
		c0,78.277,63.453,141.736,141.729,141.736C228.28,291.734,291.732,228.275,291.732,149.999z"/>
	<path fill="#662D91" d="M161.5,22.33c-4.867-4.772-11.202-12.146-28.928-12.959C96.635,13.78,64.876,31.623,42.448,57.743
		c16.437-12.976,45.591-30.769,89.437-24.009C191.34,42.905,166.131,26.867,161.5,22.33z"/>
	<path fill="#662D91" d="M269.747,74.214c-15.025-23.69-36.869-42.61-62.793-54.004c-4.271,1.421-7.723,4.438-10.139,8.991
		c-2.635,4.974-3.911,14.698,29.986,20.183C250.532,53.224,260.672,63.325,269.747,74.214z"/>
	<path fill="#662D91" d="M273.508,138.304c-17.194-38.238-43.965-61.762-57.969-69.518c-13.019-7.21-25.568-7.019-23.108,0
		c2.454,7.02,28.439,54.285,25.007,115.709c-3.044,54.441-14.756,86.383-38.212,104.205c7.156-1.506,14.112-3.553,20.829-6.092
		c8.279-3.867,16.676-7.973,24.576-12.125c22.646-14.059,41.042-34.313,52.801-58.408
		C283.993,189.754,285.065,164.004,273.508,138.304z"/>
	<path fill="#662D91" d="M147.02,55.234c-22.727,9.425-63.829,24.859-93.957,59.959c-20.838,24.273-36.621,45.762-34.229,88.526
		c13.482,32.883,38.952,59.561,70.989,74.609c-2.235-29.432,11.184-79.537,29.779-121.91c23.219-52.913,41.898-77.055,46.943-85.389
		C171.59,62.693,167.085,46.911,147.02,55.234z"/>
	<path fill="#ED1C24" d="M143.071,24.085c10.837-5.961,23.035-7.09,37.073-3.875c14.042,3.215,26.981,8.26,34.222,14.619
		c7.238,6.365,17.791,17.552,16.4,29.321c-1.188,10.063-4.117,16.75-15.743,22.231c-11.625,5.484-19.964,7.679-36.853,4.166
		c-16.892-3.506-26.324-8.993-33.783-15.353c-7.458-6.362-17.913-16.575-15.719-30.052C130.864,31.667,134.298,28.91,143.071,24.085
		z"/>
</g>
</svg>
