<?xml version="1.0" encoding="utf-8"?>
<!-- Generator: Adobe Illustrator 16.0.0, SVG Export Plug-In . SVG Version: 6.00 Build 0)  -->
<!DOCTYPE svg PUBLIC "-//W3C//DTD SVG 1.1//EN" "http://www.w3.org/Graphics/SVG/1.1/DTD/svg11.dtd">
<svg version="1.1" id="Calque_1" xmlns="http://www.w3.org/2000/svg" xmlns:xlink="http://www.w3.org/1999/xlink" x="0px" y="0px"
	 width="299.99px" height="268px" viewBox="0 12.496 299.99 268" enable-background="new 0 12.496 299.99 268" xml:space="preserve"
	>
<g>
	<path fill="#EC1C24" d="M199.691,20.343c10.313,0,21.418,28.955,37.684,28.955c16.262,0,34.902-9.916,47.992-4.363
		s3.172,35.301-4.758,57.118c-7.934,21.814-38.477,83.691-57.516,119.389c-19.039,35.698-31.336,57.514-50.371,49.581
		C153.683,263.089,156.457,20.343,199.691,20.343z"/>
	<path fill="#652D90" d="M237.375,49.298c16.262,0,34.902-9.916,47.992-4.363s3.172,35.301-4.758,57.118
		c-7.934,21.814-38.477,83.691-57.516,119.389c-19.039,35.698-31.336,57.514-50.371,49.581
		C216.115,183.365,242.032,88.532,237.375,49.298z"/>
	<path fill="#FFFFFF" d="M195.515,200.414c-7.82-1.687-16.82,9.314-20.105,24.572c-3.277,15.253,0.391,28.986,8.211,30.666
		c7.816,1.68,16.816-9.314,20.094-24.573C207.004,215.82,203.332,202.086,195.515,200.414z"/>
	<path fill="#EC1C24" d="M100.531,20.343c-10.313,0-21.418,28.955-37.68,28.955s-34.906-9.916-47.996-4.363
		s-3.965,35.301,3.969,57.118c7.934,21.814,39.266,83.691,58.305,119.389c19.039,35.698,31.336,57.514,50.375,49.581
		S143.765,20.343,100.531,20.343z"/>
	<path fill="#652D90" d="M100.531,20.343c-10.313,0-21.418,28.955-37.68,28.955c35.348,27.233,52.295,155.559,64.652,221.724
		C146.542,263.089,143.765,20.343,100.531,20.343z"/>
	<path fill="#FFFFFF" d="M104.706,200.414c7.824-1.687,16.82,9.314,20.105,24.572c3.281,15.253-0.391,28.986-8.211,30.666
		c-7.816,1.68-16.813-9.314-20.094-24.573C93.218,215.82,96.894,202.086,104.706,200.414z"/>
</g>
</svg>
