<?xml version="1.0" encoding="utf-8"?>
<!-- Generator: Adobe Illustrator 16.0.0, SVG Export Plug-In . SVG Version: 6.00 Build 0)  -->
<!DOCTYPE svg PUBLIC "-//W3C//DTD SVG 1.1//EN" "http://www.w3.org/Graphics/SVG/1.1/DTD/svg11.dtd">
<svg version="1.1" id="Calque_1" xmlns="http://www.w3.org/2000/svg" xmlns:xlink="http://www.w3.org/1999/xlink" x="0px" y="0px"
	 width="250px" height="300px" viewBox="0 0 250 300" enable-background="new 0 0 250 300" xml:space="preserve">
<g>
	<path fill="#39B54A" d="M169.342,178.826c11.65,25.324-1.65,85.658-23.283,108.896c-5.353,3.499-16.381,0.367-21.059-3.729
		c13.393-21.517,43.819-57.736,34.949-107.177C165.763,177.772,162.775,164.553,169.342,178.826z"/>
	<path fill="#D80B8C" d="M203.766,223.091c1.626-7.372,12.017-45.08-24.507-41.905c12.479-6.788,25.406-5.146,40.34,8.506
		c-10.269-19.806-23.689-37.251-44.489-21.997c5.457-11.666-8.222-26.352-20.052-32.137c-0.869,9.515-0.787,21.721,7.061,29.854
		c-12.629-12.539-31.404-23.263-48.021-10.523c15.132-2.718,32.975,7.151,37.754,15.495c-11.113-5.91-27.488-2.171-36,10.851
		c18.756-7.321,29.336-3.749,33.945-1.521c-3.589,2.954-9.793,13.15-9.772,20.775c10.574-2.908,17.259-11.105,18.603-13.418
		c3.645-6.269,3.727,7.108,12.344,4.871C184.136,188.523,199.22,207.145,203.766,223.091z"/>
	<path fill="#39B54A" d="M106.144,89.356c-29.475,39.44-28.782,148.565,0,196.693c7.954,8.022,28.16,6.685,37.754,1.338
		c-15.19-42.112-54.366-115.91-20.787-198.031C112.717,88.859,122.757,67.126,106.144,89.356z"/>
	<path fill="#D80B8C" d="M8.32,96.02c7.382-13.811,41.865-87.276,95.159-33.005C92.964,35.479,70.371,20.628,28.411,22.008
		c42.904-17.372,87.594-26.77,99.809,25.334c7.134-25.752,48.507-30.452,74.961-23.614c-11.465,16.17-28.057,35.303-51.401,37.541
		c36.822-2.734,80.889,5.688,89.9,48.185c-20.188-24.696-61.632-33.205-80.419-26.497c25.494,5.673,46.262,33.658,42.117,65.666
		c-19.693-36.842-41.191-45.481-51.466-48.189c1.678,9.501-2.297,33.943-12.614,45.938c-12.748-18.851-12.229-40.792-11.229-46.25
		c2.711-14.798-15.461,6.181-26.028-8.969C85.896,68.003,36.994,77.014,8.32,96.02z"/>
</g>
</svg>
