<?xml version="1.0" encoding="utf-8"?>
<!-- Generator: Adobe Illustrator 16.0.0, SVG Export Plug-In . SVG Version: 6.00 Build 0)  -->
<!DOCTYPE svg PUBLIC "-//W3C//DTD SVG 1.1//EN" "http://www.w3.org/Graphics/SVG/1.1/DTD/svg11.dtd">
<svg version="1.1" id="Calque_1" xmlns="http://www.w3.org/2000/svg" xmlns:xlink="http://www.w3.org/1999/xlink" x="0px" y="0px"
	 width="299.991px" height="299.99px" viewBox="0 0 299.991 299.99" enable-background="new 0 0 299.991 299.99"
	 xml:space="preserve">
<g>
	<g>
		<path fill="#FFFFFF" d="M149.989,286.728c-75.391,0-136.726-61.335-136.726-136.726c0-75.398,61.335-136.739,136.726-136.739
			c75.398,0,136.738,61.341,136.738,136.739C286.727,225.393,225.387,286.728,149.989,286.728z"/>
		<path fill="#662D91" d="M149.989,18.263c35.191,0,68.274,13.703,93.155,38.584s38.583,57.964,38.583,93.155
			c0,35.185-13.702,68.263-38.583,93.143c-24.882,24.881-57.965,38.583-93.155,38.583c-35.184,0-68.263-13.702-93.143-38.583
			c-24.881-24.88-38.583-57.959-38.583-93.143c0-35.19,13.703-68.273,38.583-93.155C81.726,31.965,114.805,18.263,149.989,18.263
			 M149.989,8.263c-78.27,0-141.726,63.455-141.726,141.739c0,78.27,63.456,141.726,141.726,141.726
			c78.285,0,141.738-63.456,141.738-141.726C291.727,71.718,228.274,8.263,149.989,8.263L149.989,8.263z"/>
	</g>
	<polygon fill="#ED1C24" points="112.991,44.521 121.063,42.986 124.487,54.334 133.333,40.496 141.042,45.353 129.741,68.297 
		133.082,79.393 150.911,47.249 157.37,49.548 137.14,91.877 141.337,106.512 154.073,82.475 162.894,86.691 145.36,119.802 
		150.897,139.688 166.565,123.634 164.829,87.354 175.278,85.487 175.993,111.764 186.852,102.076 185.555,54.97 193.842,53.345 
		194.524,90.285 204.555,81.179 202.858,56.618 213.229,55.335 213.743,69.389 221.883,61.496 228.569,67.022 221.258,75.948 
		235.321,75.254 235.073,85.17 210.868,87.932 202.176,97.324 237.913,94.55 239.483,102.999 193.286,106.853 183.417,118.903 
		210.219,117.152 209.944,126.271 173.024,130.865 159.688,146.385 179.758,150.593 210.276,130.537 216.346,137.37 
		195.799,152.992 207.725,156.881 246.887,129.865 252.833,137.039 219.915,158.209 231.786,160.21 253.163,146.465 
		259.504,154.845 246.92,162.95 257.143,164.442 256.151,175.197 245.02,171.569 252.297,184.806 243.858,190.864 231.776,170.899 
		218.997,169.205 238.348,199.131 229.987,203.805 206.247,165.612 192.081,163.088 205.942,184.884 196.764,191.741 
		178.483,161.178 158.405,156.141 164.442,177.722 195.559,192.741 190.805,202.668 169.1,192.195 172.071,203.689 210.776,224.689 
		207.387,231.671 175.575,218.551 177.665,228.75 199.836,239.857 196.221,248.567 183.293,244.76 186.09,255.584 177.961,258.518 
		174.334,246.623 166.739,259.494 158.392,255.957 169.706,232.172 166.338,221.098 149.058,253.332 140.858,250.24 
		162.442,208.271 158.497,195.221 145.726,218.426 135.722,213.559 154.368,180.825 148.397,160.302 134.06,175.846 134.3,213.787 
		123.463,214.436 122.077,187.578 113.708,197.994 115.378,244.689 106.192,246.647 103.827,210.875 96.379,219.301 95.814,243.851 
		86.714,244.395 85.213,231.252 76.427,239.37 70.855,232.628 79.372,223.541 65.536,224.985 63.909,215.458 88.797,213.298 
		96.702,202.224 59.85,206.25 60.621,197.209 106.649,192.877 115.493,181.484 88.911,183.157 89.25,174.288 126.931,169.705 
		140.497,153.31 119.667,149.875 89.024,171.924 82.851,164.021 104.93,146.739 92.673,143.499 53.434,170.284 48.115,163.475 
		78.38,141.859 67.567,140.029 45.339,154.334 41.768,146.613 51.399,137.948 40.485,135.025 43.134,125.613 53.822,127.751 
		46.84,115.504 54.731,110.195 69.102,130.16 80.894,132.753 61.76,101.087 70.038,97.005 94.286,134.754 107.135,138.29 
		93.104,115.187 102.521,109.047 123.064,140.449 142.917,143.94 137.175,123.327 104.091,107.648 108.184,98.801 131.708,109.432 
		128.627,96.051 87.08,75.526 91.672,68.389 124.443,82.235 121.089,71.161 99.289,60.463 103.565,51.514 116.357,56.438 	"/>
</g>
</svg>
