<?xml version="1.0" encoding="utf-8"?>
<!-- Generator: Adobe Illustrator 16.0.0, SVG Export Plug-In . SVG Version: 6.00 Build 0)  -->
<!DOCTYPE svg PUBLIC "-//W3C//DTD SVG 1.1//EN" "http://www.w3.org/Graphics/SVG/1.1/DTD/svg11.dtd">
<svg version="1.1" id="Calque_1" xmlns="http://www.w3.org/2000/svg" xmlns:xlink="http://www.w3.org/1999/xlink" x="0px" y="0px"
	 width="299.991px" height="299.99px" viewBox="0 0 299.991 299.99" enable-background="new 0 0 299.991 299.99"
	 xml:space="preserve">
<g>
	<g>
		<path fill="#FFFFFF" d="M149.998,286.729c-75.396,0-136.735-61.339-136.735-136.734c0-75.395,61.339-136.732,136.735-136.732
			c75.394,0,136.73,61.338,136.73,136.732C286.728,225.39,225.391,286.729,149.998,286.729z"/>
		<path fill="#6DCFF6" d="M149.998,18.262c35.188,0,68.268,13.703,93.148,38.583c24.88,24.881,38.582,57.962,38.582,93.149
			s-13.702,68.269-38.582,93.15c-24.881,24.881-57.962,38.584-93.148,38.584c-35.187,0-68.269-13.703-93.15-38.584
			c-24.881-24.882-38.584-57.963-38.584-93.15c0-35.187,13.703-68.268,38.584-93.149C81.729,31.964,114.81,18.262,149.998,18.262
			 M149.998,8.262C71.721,8.262,8.263,71.717,8.263,149.994s63.458,141.734,141.735,141.734c78.277,0,141.73-63.457,141.73-141.734
			S228.275,8.262,149.998,8.262L149.998,8.262z"/>
	</g>
	<g>
		<path fill="#0A4E9B" d="M205.765,149.994c0-30.801-24.973-55.77-55.768-55.77c-30.804,0-55.776,24.969-55.776,55.77
			c0,30.803,24.972,55.77,55.776,55.77C180.792,205.764,205.765,180.797,205.765,149.994z"/>
		<path fill="#0A4E9B" d="M154.638,75.543c0,2.57-2.078,4.651-4.641,4.651l0,0c-2.574,0-4.654-2.081-4.654-4.651V43.412
			c0-2.569,2.08-4.65,4.654-4.65l0,0c2.563,0,4.641,2.081,4.641,4.65V75.543z"/>
		<path fill="#0A4E9B" d="M154.638,224.445c0-2.57-2.078-4.649-4.641-4.649l0,0c-2.574,0-4.654,2.079-4.654,4.649v32.138
			c0,2.564,2.08,4.646,4.654,4.646l0,0c2.563,0,4.641-2.081,4.641-4.646V224.445z"/>
		<path fill="#0A4E9B" d="M182.777,82.996c-0.982,2.366-3.701,3.49-6.072,2.508l0,0c-2.367-0.977-3.498-3.695-2.514-6.066
			l12.297-29.693c0.979-2.37,3.701-3.494,6.072-2.512l0,0c2.369,0.977,3.5,3.699,2.518,6.066L182.777,82.996z"/>
		<path fill="#0A4E9B" d="M125.8,220.557c0.979-2.377-0.152-5.094-2.522-6.072l0,0c-2.366-0.982-5.085,0.142-6.067,2.512
			l-12.302,29.695c-0.982,2.364,0.147,5.088,2.519,6.064l0,0c2.371,0.984,5.09-0.142,6.072-2.513L125.8,220.557z"/>
		<path fill="#0A4E9B" d="M205.925,100.643c-1.813,1.813-4.758,1.813-6.572,0l0,0c-1.816-1.814-1.816-4.763,0-6.577l22.719-22.729
			c1.814-1.813,4.758-1.813,6.572,0l0,0c1.818,1.825,1.811,4.766,0,6.577L205.925,100.643z"/>
		<path fill="#0A4E9B" d="M100.633,205.929c1.813-1.818,1.813-4.759,0-6.583l0,0c-1.813-1.814-4.754-1.814-6.572,0.006
			l-22.724,22.723c-1.813,1.818-1.813,4.753,0,6.577l0,0c1.818,1.813,4.76,1.813,6.577,0L100.633,205.929z"/>
		<path fill="#0A4E9B" d="M220.554,125.799c-2.371,0.983-5.094-0.142-6.076-2.519l0,0c-0.98-2.37,0.145-5.087,2.518-6.065
			l29.691-12.297c2.371-0.989,5.088,0.142,6.072,2.512l0,0c0.982,2.371-0.145,5.09-2.52,6.072L220.554,125.799z"/>
		<path fill="#0A4E9B" d="M82.986,182.779c2.375-0.982,3.506-3.701,2.519-6.072l0,0c-0.983-2.377-3.697-3.501-6.072-2.518
			l-29.687,12.296c-2.374,0.99-3.501,3.702-2.519,6.079l0,0c0.979,2.364,3.701,3.495,6.072,2.512L82.986,182.779z"/>
		<path fill="#0A4E9B" d="M224.443,154.644c-2.566,0-4.646-2.085-4.646-4.649l0,0c0-2.564,2.076-4.646,4.646-4.646h32.137
			c2.564,0,4.648,2.081,4.648,4.646l0,0c0,2.564-2.084,4.649-4.648,4.649H224.443z"/>
		<path fill="#0A4E9B" d="M75.544,154.644c2.57,0,4.645-2.085,4.645-4.649l0,0c0-2.564-2.078-4.646-4.645-4.646H43.408
			c-2.566,0-4.646,2.081-4.646,4.646l0,0c0,2.564,2.079,4.649,4.646,4.649H75.544z"/>
		<path fill="#0A4E9B" d="M216.996,182.779c-2.373-0.979-3.498-3.701-2.518-6.072l0,0c0.982-2.377,3.705-3.501,6.076-2.518
			l29.686,12.296c2.375,0.99,3.502,3.702,2.52,6.079l0,0c-0.984,2.371-3.701,3.495-6.072,2.512L216.996,182.779z"/>
		<path fill="#0A4E9B" d="M79.433,125.799c2.375,0.983,5.089-0.142,6.072-2.519l0,0c0.987-2.37-0.144-5.087-2.519-6.065
			L53.3,104.918c-2.371-0.982-5.089,0.142-6.072,2.506l0,0c-0.982,2.377,0.145,5.096,2.519,6.078L79.433,125.799z"/>
		<path fill="#0A4E9B" d="M199.353,205.929c-1.816-1.818-1.816-4.759,0-6.583l0,0c1.814-1.814,4.754-1.814,6.564,0l22.727,22.729
			c1.811,1.818,1.811,4.764,0,6.577l0,0c-1.814,1.813-4.758,1.813-6.572,0L199.353,205.929z"/>
		<path fill="#0A4E9B" d="M94.061,100.643c1.813,1.813,4.759,1.813,6.572-0.004l0,0c1.813-1.814,1.813-4.759,0-6.573L77.911,71.336
			c-1.814-1.813-4.756-1.807-6.574,0l0,0c-1.813,1.825-1.813,4.766,0,6.577L94.061,100.643z"/>
		<path fill="#0A4E9B" d="M174.191,220.557c-0.984-2.37,0.146-5.094,2.514-6.072l0,0c2.371-0.982,5.09,0.142,6.072,2.508
			l12.301,29.699c0.982,2.364-0.148,5.088-2.523,6.064l0,0c-2.365,0.984-5.088-0.142-6.066-2.513L174.191,220.557z"/>
		<path fill="#0A4E9B" d="M117.21,82.991c0.982,2.371,3.701,3.502,6.071,2.513l0,0c2.366-0.977,3.498-3.695,2.519-6.066
			l-12.301-29.693c-0.982-2.37-3.701-3.494-6.072-2.512l0,0c-2.371,0.977-3.501,3.699-2.519,6.066L117.21,82.991z"/>
	</g>
</g>
</svg>
