<?xml version="1.0" encoding="utf-8"?>
<!-- Generator: Adobe Illustrator 16.0.0, SVG Export Plug-In . SVG Version: 6.00 Build 0)  -->
<!DOCTYPE svg PUBLIC "-//W3C//DTD SVG 1.1//EN" "http://www.w3.org/Graphics/SVG/1.1/DTD/svg11.dtd">
<svg version="1.1" id="Calque_1" xmlns="http://www.w3.org/2000/svg" xmlns:xlink="http://www.w3.org/1999/xlink" x="0px" y="0px"
	 width="299.991px" height="299.99px" viewBox="0 0 299.991 299.99" enable-background="new 0 0 299.991 299.99"
	 xml:space="preserve">
<g>
	<g>
		<path fill="#FFFFFF" d="M149.996,286.727c-75.395,0-136.733-61.338-136.733-136.732c0-75.394,61.338-136.73,136.733-136.73
			c75.395,0,136.732,61.337,136.732,136.73C286.728,225.389,225.39,286.727,149.996,286.727z"/>
		<path fill="#6DCFF6" d="M149.996,18.264c35.187,0,68.268,13.702,93.148,38.583c24.881,24.881,38.584,57.961,38.584,93.148
			s-13.703,68.268-38.584,93.148s-57.962,38.584-93.148,38.584s-68.268-13.703-93.149-38.584s-38.584-57.962-38.584-93.148
			s13.703-68.267,38.584-93.148C81.728,31.966,114.809,18.264,149.996,18.264 M149.996,8.264
			C71.72,8.264,8.263,71.718,8.263,149.994c0,78.275,63.457,141.732,141.733,141.732c78.275,0,141.732-63.457,141.732-141.732
			C291.728,71.718,228.271,8.264,149.996,8.264L149.996,8.264z"/>
	</g>
	<g>
		<path fill="#0A4E9B" d="M218.636,229.696c9.801-11.546-0.852-36.417-13.053-50.157c-2.57-4.792,0.174-8.937,4.854-6.327
			c4.686,3.837,36.207,41.028,15.246,68.167C221.564,235.881,218.636,229.696,218.636,229.696z"/>
		<path fill="#0A4E9B" d="M234.734,107.266c-7.559-19.613-31.607-32.063-68.711-41.688c-37.106-9.619-84.669-6.945-103.987-5.491
			c-0.83,25.998,18.317,59.551,31.609,92.313c13.288,32.761,24.736,56.564,55.258,64.813c26.566,7.179,44.148-28.682,51.586-42.018
			c-9.891-13.599-11.887-16.537-17.238-19.71c-6.459-3.308-42.883-9.028-67.344,11.165c15.124-15.117,40.838-21.341,64.422-16.146
			c-12.541-10.137-25.184-22.374-34.871-26.456c-9.461-3.984-27.424-12.184-55.653,0c11.844-7.045,35.04-11.854,53.766-4.294
			c-11.45-10.306-46.612-36.763-64.081-45.012c46.785,20.385,61.848,37.28,69.229,44.494c-4.289-10.476-9.1-35.728-4.807-48.27
			c-1.887,17.351,7.73,46.931,12.197,52.665c4.471,5.742,13.645,11.529,23.652,20.518c-4.811-17.869-6.301-52.398,1.084-64.94
			c-7.951,30.484,1.375,63.563,8.76,73.013c5.959,7.623,12.428,13.945,15.99,16.583
			C215.804,161.103,248.257,142.382,234.734,107.266z"/>
	</g>
</g>
</svg>
