<?xml version="1.0" encoding="utf-8"?>
<!-- Generator: Adobe Illustrator 16.0.0, SVG Export Plug-In . SVG Version: 6.00 Build 0)  -->
<!DOCTYPE svg PUBLIC "-//W3C//DTD SVG 1.1//EN" "http://www.w3.org/Graphics/SVG/1.1/DTD/svg11.dtd">
<svg version="1.1" id="Calque_1" xmlns="http://www.w3.org/2000/svg" xmlns:xlink="http://www.w3.org/1999/xlink" x="0px" y="0px"
	 width="299.991px" height="299.99px" viewBox="0 0 299.991 299.99" enable-background="new 0 0 299.991 299.99"
	 xml:space="preserve">
<g>
	<g>
		<path fill="#FFFFFF" d="M71.901,133.72c-33.711,0-61.138-27.427-61.138-61.139c0-33.715,27.426-61.145,61.138-61.145
			c33.715,0,61.144,27.429,61.144,61.145C133.045,106.293,105.616,133.72,71.901,133.72z"/>
		<path fill="#8DC63F" d="M71.901,13.937c32.336,0,58.644,26.308,58.644,58.645c0,32.333-26.308,58.639-58.644,58.639
			c-32.333,0-58.638-26.305-58.638-58.639C13.264,40.244,39.568,13.937,71.901,13.937 M71.901,8.937
			c-35.145,0-63.638,28.493-63.638,63.645c0,35.146,28.493,63.639,63.638,63.639c35.153,0,63.644-28.493,63.644-63.639
			C135.545,37.43,107.055,8.937,71.901,8.937L71.901,8.937z"/>
	</g>
	<g>
		<path fill="#FFFFFF" d="M228.084,133.72c-33.714,0-61.143-27.428-61.143-61.142s27.429-61.142,61.143-61.142
			s61.143,27.428,61.143,61.142S261.798,133.72,228.084,133.72z"/>
		<path fill="#8DC63F" d="M228.084,13.937c32.336,0,58.643,26.307,58.643,58.642s-26.307,58.642-58.643,58.642
			s-58.643-26.307-58.643-58.642S195.749,13.937,228.084,13.937 M228.084,8.937c-35.148,0-63.643,28.493-63.643,63.642
			s28.494,63.642,63.643,63.642s63.643-28.493,63.643-63.642S263.233,8.937,228.084,8.937L228.084,8.937z"/>
	</g>
	<g>
		<path fill="#FFFFFF" d="M71.905,288.554c-33.713,0-61.142-27.429-61.142-61.143s27.428-61.142,61.142-61.142
			c33.713,0,61.14,27.428,61.14,61.142S105.618,288.554,71.905,288.554z"/>
		<path fill="#8DC63F" d="M71.905,168.77c32.334,0,58.64,26.307,58.64,58.642c0,32.336-26.306,58.643-58.64,58.643
			c-32.335,0-58.642-26.307-58.642-58.643C13.264,195.076,39.57,168.77,71.905,168.77 M71.905,163.77
			c-35.148,0-63.642,28.493-63.642,63.642s28.493,63.643,63.642,63.643c35.149,0,63.64-28.494,63.64-63.643
			S107.055,163.77,71.905,163.77L71.905,163.77z"/>
	</g>
	<g>
		<path fill="#FFFFFF" d="M228.084,288.554c-33.714,0-61.143-27.429-61.143-61.143s27.429-61.142,61.143-61.142
			s61.143,27.428,61.143,61.142S261.798,288.554,228.084,288.554z"/>
		<path fill="#8DC63F" d="M228.084,168.77c32.336,0,58.643,26.307,58.643,58.642c0,32.336-26.307,58.643-58.643,58.643
			s-58.643-26.307-58.643-58.643C169.442,195.076,195.749,168.77,228.084,168.77 M228.084,163.77
			c-35.148,0-63.643,28.493-63.643,63.642s28.494,63.643,63.643,63.643s63.643-28.494,63.643-63.643S263.233,163.77,228.084,163.77
			L228.084,163.77z"/>
	</g>
	<polygon fill="#92278F" points="55.288,25.218 58.913,24.528 60.45,29.624 64.423,23.41 67.884,25.591 62.81,35.894 64.31,40.876 
		72.314,26.442 75.216,27.475 66.131,46.481 68.017,53.053 73.735,42.26 77.696,44.153 69.823,59.021 72.31,67.95 79.345,60.741 
		78.564,44.45 83.257,43.612 83.577,55.411 88.454,51.062 87.872,29.909 91.593,29.18 91.899,45.767 96.403,41.678 95.642,30.649 
		100.297,30.073 100.528,36.384 104.185,32.84 107.187,35.321 103.903,39.329 110.218,39.018 110.106,43.47 99.237,44.71 
		95.335,48.928 111.381,47.682 112.087,51.476 91.343,53.206 86.91,58.617 98.945,57.831 98.823,61.926 82.245,63.988 
		76.257,70.957 85.269,72.847 98.972,63.841 101.697,66.909 92.472,73.924 97.826,75.67 115.41,63.539 118.08,66.761 103.3,76.267 
		108.63,77.165 118.229,70.993 121.077,74.756 115.427,78.396 120.017,79.065 119.571,83.895 114.573,82.266 117.841,88.209 
		114.052,90.93 108.626,81.965 102.889,81.204 111.577,94.642 107.823,96.74 97.162,79.591 90.802,78.457 97.025,88.244 
		92.905,91.323 84.696,77.6 75.68,75.338 78.392,85.028 92.363,91.772 90.229,96.229 80.483,91.527 81.817,96.688 99.196,106.118 
		97.675,109.253 83.39,103.361 84.329,107.941 94.284,112.929 92.661,116.84 86.856,115.13 88.112,119.99 84.462,121.308 
		82.833,115.967 79.423,121.746 75.675,120.158 80.755,109.478 79.242,104.505 71.483,118.979 67.802,117.591 77.493,98.746 
		75.722,92.886 69.987,103.306 65.494,101.12 73.868,86.422 71.187,77.206 64.749,84.186 64.856,101.223 59.991,101.514 
		59.368,89.454 55.609,94.131 56.36,115.099 52.235,115.978 51.173,99.915 47.829,103.698 47.575,114.722 43.489,114.966 
		42.815,109.064 38.87,112.71 36.368,109.683 40.192,105.603 33.979,106.251 33.249,101.973 44.425,101.003 47.974,96.03 
		31.427,97.838 31.772,93.778 52.44,91.833 56.41,86.718 44.476,87.469 44.627,83.486 61.547,81.429 67.64,74.066 58.286,72.524 
		44.525,82.425 41.755,78.876 51.669,71.116 46.164,69.661 28.546,81.688 26.157,78.631 39.746,68.925 34.892,68.104 24.91,74.526 
		23.308,71.06 27.631,67.169 22.73,65.856 23.921,61.63 28.72,62.59 25.585,57.091 29.127,54.707 35.58,63.672 40.876,64.836 
		32.284,50.617 36.001,48.784 46.89,65.734 52.659,67.322 46.358,56.948 50.587,54.191 59.812,68.292 68.726,69.859 66.146,60.604 
		51.292,53.563 53.13,49.591 63.692,54.364 62.31,48.355 43.653,39.14 45.716,35.935 60.43,42.152 58.925,37.18 49.136,32.376 
		51.056,28.357 56.8,30.568 	"/>
	<path fill="#92278F" d="M251.493,65.4c1.934-0.598,26.596-8.577,14.027-23.904c-10.984-13.394-21.93,2.486-25.152,7.914
		c2.959-5.588,13.17-21.678-6.438-25.395c-18.137-3.438-15.725,16.819-13.803,23.255c-2.205-6.137-8.582-25.086-24.822-13.399
		c-14.857,16.838,11.191,27.488,11.191,27.488s-24.465-15.998-26.941,6.92c-2.313,21.361,20.115,13.213,24.467,11.911
		c-4.324,1.417-24.932,9.105-13.373,23.697c9.992,12.615,20.199-0.141,24.266-6.481c-3.43,6.483-8.949,21.052,8.76,23.817
		c17.156,2.675,15.164-12.797,13.076-20.754c2.697,7.143,11.057,21.131,22.531,9.659c14.064-14.063-3.619-22.951-8.521-25.55
		c4.777,2.325,23.717,12.434,25.854-7.475C279.088,54.073,253.456,64.803,251.493,65.4z M228.135,85.498
		c-7.027,0-12.727-5.695-12.727-12.726c0-7.027,5.699-12.726,12.727-12.726s12.727,5.698,12.727,12.726
		C240.862,79.803,235.163,85.498,228.135,85.498z"/>
	<g>
		<circle fill="#92278F" cx="71.903" cy="227.411" r="25.042"/>
		<path fill="#92278F" d="M73.989,193.98c0,1.154-0.934,2.089-2.084,2.089l0,0c-1.156,0-2.09-0.935-2.09-2.089v-14.428
			c0-1.153,0.934-2.088,2.09-2.088l0,0c1.15,0,2.084,0.935,2.084,2.088V193.98z"/>
		<path fill="#92278F" d="M73.989,260.842c0-1.154-0.934-2.088-2.084-2.088l0,0c-1.156,0-2.09,0.934-2.09,2.088v14.431
			c0,1.151,0.934,2.086,2.09,2.086l0,0c1.15,0,2.084-0.935,2.084-2.086V260.842z"/>
		<path fill="#92278F" d="M86.624,197.327c-0.441,1.063-1.662,1.567-2.728,1.126l0,0c-1.062-0.438-1.57-1.659-1.128-2.724
			l5.521-13.333c0.438-1.064,1.662-1.569,2.727-1.128l0,0c1.063,0.438,1.572,1.661,1.13,2.724L86.624,197.327z"/>
		<path fill="#92278F" d="M61.04,259.096c0.439-1.067-0.068-2.287-1.133-2.727l0,0c-1.063-0.441-2.283,0.063-2.725,1.128
			l-5.523,13.334c-0.441,1.062,0.066,2.284,1.131,2.723l0,0c1.064,0.442,2.285-0.063,2.727-1.128L61.04,259.096z"/>
		<path fill="#92278F" d="M97.019,205.251c-0.814,0.814-2.138,0.814-2.951,0l0,0c-0.816-0.814-0.816-2.139,0-2.953l10.201-10.206
			c0.814-0.814,2.137-0.814,2.952,0l0,0c0.815,0.819,0.812,2.14,0,2.953L97.019,205.251z"/>
		<path fill="#92278F" d="M49.739,252.527c0.815-0.816,0.815-2.137,0-2.956l0,0c-0.814-0.814-2.135-0.814-2.951,0.003
			l-10.203,10.203c-0.814,0.816-0.814,2.134,0,2.953l0,0c0.816,0.814,2.137,0.814,2.953,0L49.739,252.527z"/>
		<path fill="#92278F" d="M103.587,216.547c-1.064,0.441-2.287-0.063-2.729-1.131l0,0c-0.439-1.064,0.064-2.284,1.131-2.724
			l13.332-5.521c1.064-0.444,2.285,0.063,2.726,1.128l0,0c0.442,1.064-0.063,2.285-1.13,2.727L103.587,216.547z"/>
		<path fill="#92278F" d="M41.815,242.133c1.065-0.441,1.574-1.662,1.13-2.727l0,0c-0.44-1.067-1.659-1.572-2.726-1.131
			l-13.33,5.521c-1.066,0.444-1.572,1.662-1.131,2.729l0,0c0.438,1.062,1.662,1.569,2.727,1.128L41.815,242.133z"/>
		<path fill="#92278F" d="M105.333,229.499c-1.153,0-2.087-0.937-2.087-2.088l0,0c0-1.151,0.934-2.086,2.087-2.086h14.431
			c1.15,0,2.087,0.935,2.087,2.086l0,0c0,1.151-0.937,2.088-2.087,2.088H105.333z"/>
		<path fill="#92278F" d="M38.474,229.499c1.153,0,2.086-0.937,2.086-2.088l0,0c0-1.151-0.934-2.086-2.086-2.086H24.043
			c-1.151,0-2.085,0.935-2.085,2.086l0,0c0,1.151,0.934,2.088,2.085,2.088H38.474z"/>
		<path fill="#92278F" d="M101.989,242.133c-1.066-0.439-1.57-1.662-1.131-2.727l0,0c0.441-1.067,1.664-1.572,2.729-1.131
			l13.33,5.521c1.066,0.444,1.572,1.662,1.13,2.729l0,0c-0.44,1.064-1.661,1.569-2.726,1.128L101.989,242.133z"/>
		<path fill="#92278F" d="M40.22,216.547c1.066,0.441,2.285-0.063,2.726-1.131l0,0c0.444-1.064-0.064-2.284-1.13-2.724l-13.33-5.521
			c-1.064-0.441-2.285,0.063-2.727,1.125l0,0c-0.441,1.067,0.064,2.288,1.131,2.729L40.22,216.547z"/>
		<path fill="#92278F" d="M94.067,252.527c-0.816-0.816-0.816-2.137,0-2.956l0,0c0.813-0.814,2.135-0.814,2.946,0l10.207,10.206
			c0.812,0.816,0.812,2.139,0,2.953l0,0c-0.815,0.814-2.138,0.814-2.952,0L94.067,252.527z"/>
		<path fill="#92278F" d="M46.788,205.251c0.814,0.814,2.137,0.814,2.951-0.002l0,0c0.815-0.814,0.815-2.137,0-2.951l-10.203-10.206
			c-0.814-0.814-2.135-0.812-2.951,0l0,0c-0.814,0.819-0.814,2.14,0,2.953L46.788,205.251z"/>
		<path fill="#92278F" d="M82.769,259.096c-0.442-1.064,0.066-2.287,1.128-2.727l0,0c1.065-0.441,2.286,0.063,2.728,1.126
			l5.522,13.336c0.442,1.062-0.066,2.284-1.133,2.723l0,0c-1.062,0.442-2.285-0.063-2.724-1.128L82.769,259.096z"/>
		<path fill="#92278F" d="M57.183,197.325c0.441,1.064,1.662,1.572,2.727,1.128l0,0c1.063-0.438,1.57-1.659,1.131-2.724
			l-5.523-13.333c-0.441-1.064-1.662-1.569-2.727-1.128l0,0c-1.064,0.438-1.572,1.661-1.131,2.724L57.183,197.325z"/>
	</g>
	<g>
		<path fill="#92278F" d="M258.907,263.2c4.4-5.185-0.383-16.353-5.861-22.522c-1.154-2.151,0.078-4.013,2.18-2.841
			c2.104,1.723,16.258,18.423,6.846,30.609C260.221,265.978,258.907,263.2,258.907,263.2z"/>
		<path fill="#92278F" d="M266.135,208.225c-3.395-8.807-14.193-14.397-30.854-18.719c-16.662-4.319-38.018-3.119-46.693-2.466
			c-0.373,11.674,8.225,26.74,14.193,41.451c5.967,14.711,11.107,25.399,24.814,29.104c11.928,3.224,19.822-12.879,23.162-18.867
			c-4.441-6.106-5.338-7.426-7.74-8.851c-2.9-1.485-19.254-4.054-30.24,5.014c6.791-6.788,18.338-9.583,28.928-7.25
			c-5.631-4.552-11.309-10.047-15.658-11.88c-4.248-1.789-12.314-5.471-24.99,0c5.318-3.163,15.734-5.322,24.143-1.928
			c-5.141-4.628-20.93-16.508-28.773-20.212c21.008,9.153,27.771,16.74,31.088,19.979c-1.928-4.704-4.088-16.043-2.16-21.675
			c-0.848,7.791,3.471,21.073,5.477,23.648c2.008,2.578,6.127,5.177,10.621,9.213c-2.16-8.023-2.83-23.528,0.486-29.16
			c-3.57,13.688,0.617,28.542,3.934,32.785c2.676,3.423,5.58,6.262,7.18,7.446C257.635,232.399,272.208,223.993,266.135,208.225z"/>
	</g>
</g>
</svg>
