<?xml version="1.0" encoding="utf-8"?>
<!-- Generator: Adobe Illustrator 16.0.0, SVG Export Plug-In . SVG Version: 6.00 Build 0)  -->
<!DOCTYPE svg PUBLIC "-//W3C//DTD SVG 1.1//EN" "http://www.w3.org/Graphics/SVG/1.1/DTD/svg11.dtd">
<svg version="1.1" id="Calque_1" xmlns="http://www.w3.org/2000/svg" xmlns:xlink="http://www.w3.org/1999/xlink" x="0px" y="0px"
	 width="299.991px" height="299.99px" viewBox="0 0 299.991 299.99" enable-background="new 0 0 299.991 299.99"
	 xml:space="preserve">
<g>
	<circle fill="#FFCB05" cx="149.996" cy="149.996" r="141.732"/>
	<path fill="#FFFFFF" d="M202.126,134.01c4.305-1.331,59.229-19.101,31.238-53.235c-24.463-29.827-48.838,5.537-56.016,17.625
		c6.592-12.444,29.33-48.276-14.34-56.554c-40.387-7.657-35.014,37.457-30.734,51.789c-4.91-13.667-19.111-55.866-55.283-29.841
		c-33.084,37.498,24.928,61.217,24.928,61.217s-54.483-35.628-59.999,15.41c-5.149,47.572,44.797,29.425,54.487,26.527
		c-9.629,3.154-55.522,20.277-29.781,52.773c22.253,28.094,44.98-0.313,54.04-14.434c-7.638,14.438-19.93,46.881,19.507,53.041
		c38.207,5.957,33.771-28.498,29.121-46.219c6.008,15.906,24.623,47.059,50.178,21.51c31.316-31.318-8.061-51.111-18.979-56.898
		c10.641,5.178,52.818,27.689,57.576-16.646C263.582,108.785,206.498,132.679,202.126,134.01z M150.109,178.769
		c-15.65,0-28.342-12.684-28.342-28.34c0-15.65,12.691-28.34,28.342-28.34s28.342,12.689,28.342,28.34
		C178.451,166.085,165.759,178.769,150.109,178.769z"/>
</g>
</svg>
