<?xml version="1.0" encoding="utf-8"?>
<!-- Generator: Adobe Illustrator 16.0.0, SVG Export Plug-In . SVG Version: 6.00 Build 0)  -->
<!DOCTYPE svg PUBLIC "-//W3C//DTD SVG 1.1//EN" "http://www.w3.org/Graphics/SVG/1.1/DTD/svg11.dtd">
<svg version="1.1" id="Calque_1" xmlns="http://www.w3.org/2000/svg" xmlns:xlink="http://www.w3.org/1999/xlink" x="0px" y="0px"
	 width="299.991px" height="299.99px" viewBox="0 0 299.991 299.99" enable-background="new 0 0 299.991 299.99"
	 xml:space="preserve">
<g>
	<circle fill="#39B54A" cx="149.996" cy="149.994" r="141.732"/>
	<g>
		<path fill="#FFFFFF" d="M218.636,229.696c9.801-11.546-0.852-36.417-13.053-50.157c-2.57-4.792,0.174-8.937,4.854-6.327
			c4.686,3.837,36.207,41.028,15.246,68.167C221.564,235.881,218.636,229.696,218.636,229.696z"/>
		<path fill="#FFFFFF" d="M234.734,107.266c-7.559-19.613-31.607-32.063-68.711-41.688c-37.105-9.619-84.67-6.945-103.986-5.491
			c-0.83,25.998,18.316,59.551,31.609,92.313c13.288,32.761,24.736,56.564,55.258,64.813c26.566,7.179,44.148-28.682,51.586-42.018
			c-9.891-13.599-11.887-16.537-17.238-19.71c-6.459-3.308-42.883-9.028-67.344,11.165c15.124-15.117,40.838-21.341,64.422-16.146
			c-12.541-10.137-25.184-22.374-34.869-26.456c-9.461-3.984-27.426-12.184-55.654,0c11.844-7.045,35.04-11.854,53.766-4.294
			c-11.448-10.306-46.611-36.763-64.079-45.012c46.784,20.385,61.847,37.28,69.228,44.494c-4.289-10.476-9.1-35.728-4.807-48.27
			c-1.887,17.351,7.73,46.931,12.197,52.665c4.473,5.742,13.645,11.529,23.652,20.518c-4.811-17.869-6.301-52.398,1.084-64.94
			c-7.951,30.484,1.375,63.563,8.76,73.013c5.959,7.623,12.428,13.945,15.99,16.583
			C215.804,161.103,248.257,142.382,234.734,107.266z"/>
	</g>
</g>
</svg>
