<?xml version="1.0" encoding="utf-8"?>
<!-- Generator: Adobe Illustrator 16.0.0, SVG Export Plug-In . SVG Version: 6.00 Build 0)  -->
<!DOCTYPE svg PUBLIC "-//W3C//DTD SVG 1.1//EN" "http://www.w3.org/Graphics/SVG/1.1/DTD/svg11.dtd">
<svg version="1.1" xmlns="http://www.w3.org/2000/svg" xmlns:xlink="http://www.w3.org/1999/xlink" x="0px" y="0px"
	 width="299.99px" height="299.99px" viewBox="0 0 299.99 299.99" enable-background="new 0 0 299.99 299.99" xml:space="preserve">
<g id="Calque_5" display="none">
	<rect x="-94.839" y="-64.839" display="inline" fill="#D66565" width="524" height="490.667"/>
</g>
<g id="Calque_1">
	<circle fill="#D11B70" cx="149.995" cy="149.995" r="149.995"/>
</g>
<g id="Calque_6">
	<circle fill="#FFFFFF" cx="150.094" cy="150.091" r="95.497"/>
</g>
<g id="Calque_7">
	<path fill="#5ADB6C" d="M-66.005,132.745"/>
	<g>
		<path fill="#F8A519" d="M66.495,166.245c13.75,3,43.417-9.916,54.667-31.417c10.086-19.276,22.658-79.201,64.428-73.374
			c-11.001-4.422-23.013-6.861-35.595-6.861c-52.742,0-95.497,42.756-95.497,95.497c0,2.457,0.093,4.892,0.275,7.301
			C57.016,161.246,60.643,164.969,66.495,166.245z"/>
		<path fill="#F8A519" d="M200.662,201.328c28.755-26.226,39.108-54.894,42.806-70.866c-5.235-25.057-20.292-46.503-40.959-60.138
			c-8.101-2.563-22.151-6.091-30.18-2.83c-10.666,4.333-18.584,0.333-41.334,63.333c-13.841,38.331-53.531,50.561-74.085,40.676
			c6.758,29.496,27.175,53.779,54.239,65.846C125.11,236.992,165.853,233.075,200.662,201.328z"/>
		<path fill="#F8A519" d="M206.162,204.829c-30.896,30.614-60.332,37.534-80.31,37.678c7.712,2.009,15.802,3.081,24.143,3.081
			c52.741,0,95.497-42.756,95.497-95.497c0-1.313-0.034-2.619-0.087-3.92C240.676,161.415,229.787,181.419,206.162,204.829z"/>
	</g>
</g>
<g id="repères">
</g>
</svg>
