<?xml version="1.0" encoding="utf-8"?>
<!-- Generator: Adobe Illustrator 16.0.0, SVG Export Plug-In . SVG Version: 6.00 Build 0)  -->
<!DOCTYPE svg PUBLIC "-//W3C//DTD SVG 1.1//EN" "http://www.w3.org/Graphics/SVG/1.1/DTD/svg11.dtd">
<svg version="1.1" xmlns="http://www.w3.org/2000/svg" xmlns:xlink="http://www.w3.org/1999/xlink" x="0px" y="0px"
	 width="299.99px" height="299.99px" viewBox="0 0 299.99 299.99" enable-background="new 0 0 299.99 299.99" xml:space="preserve">
<g id="Calque_5" display="none">
	<rect x="-94.839" y="-64.839" display="inline" fill="#D66565" width="524" height="490.667"/>
</g>
<g id="Calque_1">
	<circle fill="#652B91" cx="149.995" cy="149.995" r="149.995"/>
</g>
<g id="Calque_6">
	<circle fill="#EB1C24" cx="150.094" cy="150.091" r="95.497"/>
</g>
<g id="Calque_3">
	<g>
		<path fill="#FFFFFF" d="M147.804,148.239c0.884-1.012,2.06-2.648,2.22-2.873c5.174-8.961,10.422-27.625,10.422-27.625
			l-0.207-0.084c-19.464-2.438-39.808,0.035-59.182,8.198c-18.797,7.923-34.395,20.242-46.129,35.247
			c1.313,11.357,4.61,22.108,9.542,31.897c8.037-12.788,19.212-23.867,33.204-31.945
			C113.479,151.928,130.802,147.834,147.804,148.239z"/>
		<path fill="#FFFFFF" d="M120.615,222.153c14.913,11.295,31.682,18.41,48.909,21.566c11.631-2.411,22.49-6.932,32.158-13.146
			c-18.377-3.21-36.287-10.71-52.18-22.751c-17.334-13.134-30.104-30.042-38.101-48.697c-3.933,1.589-7.805,3.463-11.584,5.646
			c-5.641,3.257-10.796,7.03-15.457,11.215C92.009,193.668,104.166,209.688,120.615,222.153z"/>
		<path fill="#FFFFFF" d="M199.54,120.565c-2.738,21.826-11.152,41.539-23.537,57.902c3.559,2.841,7.363,5.461,11.428,7.807
			c5.34,3.083,10.861,5.566,16.488,7.472c11.832-15.632,19.857-34.479,22.475-55.329c2.318-18.493,0.121-36.508-5.711-52.955
			c-7.734-8.467-16.971-15.539-27.285-20.795C199.626,82.008,201.991,101.031,199.54,120.565z"/>
		<path fill="#FFFFFF" d="M209.411,195.413c7.617,2.055,15.375,3.084,23.086,3.137c8.396-14.234,13.219-30.828,13.219-48.551
			c0-19.638-5.918-37.893-16.063-53.084c3.096,13.46,3.936,27.677,2.117,42.177C229.12,160.219,221.153,179.367,209.411,195.413z"/>
		<path fill="#FFFFFF" d="M171.872,174.969c11.73-15.584,19.688-34.338,22.291-55.079c2.578-20.577-0.422-40.565-7.813-58.455
			c-10.996-4.518-23.016-7.048-35.619-7.143c1.506,0.017,3.006,0.063,4.494,0.147c7.215,13.469,11.313,28.86,11.313,45.209
			c0,18.168-5.07,35.145-13.848,49.624c0.426,1.429,1.059,3.221,1.059,3.221C158.485,160.778,164.561,168.385,171.872,174.969z"/>
		<path fill="#FFFFFF" d="M117.343,226.471c-16.654-12.618-29.104-28.716-37.148-46.502c-5.201,5.301-9.673,11.157-13.375,17.415
			c16.482,28.869,47.557,48.33,83.179,48.33c1.517,0,3.025-0.039,4.525-0.109C141.464,241.551,128.872,235.208,117.343,226.471z"/>
		<path fill="#FFFFFF" d="M185.284,189.989c-15.947-9.206-28.236-22.309-36.385-37.403c-1.371-0.052-2.678-0.08-3.185-0.09
			c-9.787-0.02-19.659,1.526-29.234,4.748c7.647,17.72,19.818,33.773,36.297,46.261c16.617,12.586,35.535,19.998,54.826,22.506
			c-0.27,0.353-0.547,0.695-0.82,1.043c9.035-6.669,16.854-14.889,23.066-24.268C214.657,202.263,199.368,198.121,185.284,189.989z"
			/>
		<path fill="#FFFFFF" d="M98.883,83.685c19.625-8.27,40.195-10.943,59.965-8.796c-2.039-7.273-4.943-14.184-8.612-20.604
			c-0.079,0-0.158-0.003-0.237-0.003c-36.375,0-68.01,20.291-84.205,50.171C75.375,96,86.458,88.921,98.883,83.685z"/>
		<path fill="#FFFFFF" d="M98.954,120.861c20.437-8.611,41.897-11.159,62.412-8.508c0.578-4.153,0.881-8.393,0.881-12.705
			c0-6.614-0.713-13.06-2.045-19.275c-0.012,0.035-0.023,0.074-0.035,0.109c-19.461-2.438-39.806,0.035-59.18,8.198
			c-16.301,6.871-30.193,17.051-41.251,29.418c-3.527,9.979-5.453,20.714-5.453,31.901c0,1.094,0.025,2.182,0.062,3.266
			C66.141,139.589,81.183,128.349,98.954,120.861z"/>
	</g>
</g>
<g id="repères">
</g>
</svg>
