<?xml version="1.0" encoding="utf-8"?>
<!-- Generator: Adobe Illustrator 16.0.0, SVG Export Plug-In . SVG Version: 6.00 Build 0)  -->
<!DOCTYPE svg PUBLIC "-//W3C//DTD SVG 1.1//EN" "http://www.w3.org/Graphics/SVG/1.1/DTD/svg11.dtd">
<svg version="1.1" xmlns="http://www.w3.org/2000/svg" xmlns:xlink="http://www.w3.org/1999/xlink" x="0px" y="0px"
	 width="299.99px" height="299.99px" viewBox="0 0 299.99 299.99" enable-background="new 0 0 299.99 299.99" xml:space="preserve">
<g id="Calque_5" display="none">
	<rect x="-94.839" y="-64.839" display="inline" fill="#D66565" width="524" height="490.667"/>
</g>
<g id="Calque_1">
	<circle fill="#D8098B" cx="149.995" cy="149.995" r="149.995"/>
</g>
<g id="Calque_6">
	<circle fill="#FFFFFF" cx="150.094" cy="150.091" r="95.497"/>
</g>
<g id="Calque_7">
	<path fill="#5ADB6C" d="M-66.005,132.745"/>
	<g>
		<path fill="#38B349" d="M120.082,113.396c-2.397-0.416-4.816-0.767-7.255-1.054c-5.197-0.611-10.482-0.933-15.844-0.933
			c-3.182,0-6.336,0.119-9.463,0.337c-2.138,7.195-3.676,14.647-4.585,22.291c6.806,0.385,18.382,2.109,27.021,8.934
			c0.139,0.11,0.282,0.213,0.419,0.326c0.099,0.051,0.158,0.082,0.196,0.102c0.012,0.009,0.024,0.017,0.037,0.025
			c1.181,0.834,2.379,1.76,3.571,2.814c2.166,1.917,4.304,4.212,6.246,6.966l-0.009-0.021c0,0,1.882,1.934,4.083,6.187
			c0.678,1.31,1.384,2.831,2.077,4.594l-0.003-0.013c0,0,14.548,36.543,33.298,52.918c14.047,12.268,23.166,18.768,27.252,21.146
			c0.087,0.051,0.121,0.08,0.134,0.096c-0.003-0.021,0.022-0.064,0.206-0.111c1.252-0.317,3.423-1.537,3.423-1.537l5.035-2.587
			c11.687-6.403,21.891-15.175,29.956-25.678C211.772,159.494,170.813,122.2,120.082,113.396z"/>
		<path fill="#38B349" d="M131.442,194.648c-0.049-0.085-0.101-0.17-0.15-0.256c-0.414-0.738-1.71-3.067-3.333-6.108
			c-2.569-4.817-5.944-11.4-7.877-16.205c-2.678-6.655-8.158-12.775-10.87-15.553c-2.074-2.105-4.36-4.188-6.777-6.021
			c-1.806-1.239-3.721-2.408-5.725-3.442c-4.975-2.182-9.997-3.172-14.572-3.238c-0.104,2.089-0.161,3.979-0.161,6.17
			c0,34.313,12.888,65.614,34.078,89.341c10.575,4.035,22.047,6.252,34.039,6.252c9.044,0,17.79-1.267,26.08-3.616
			C157.841,229.902,142.49,213.679,131.442,194.648z"/>
		<path fill="#38B349" d="M199.677,68.458c-18.808-10.963-33.791-13.865-49.583-13.865c-3.958,0-7.853,0.265-11.685,0.733
			c-3.154,0.386-6.262,0.919-9.314,1.604c-4.562,1.025-9.006,2.36-13.295,4.011c-6.139,4.219-12.389,13.886-14.639,19.552
			c10.75,0,30.698-0.866,46.533-6.166C155.912,71.578,185.869,66.733,199.677,68.458z"/>
		<path fill="#38B349" d="M210.948,76.493c-19.782-3.307-46.065,0.716-63.537,5.335c-18.332,4.846-42.715,5.527-49.705,5.069
			c-3.659,6.456-5.166,10.3-7.729,17.366c2.32-0.113,4.654-0.173,7.003-0.173c5.622,0,11.165,0.333,16.615,0.97
			c2.435,0.285,4.851,0.633,7.246,1.04c51.771,8.793,93.967,45.705,110.322,94.473c9.141-14.646,14.428-31.945,14.428-50.482
			C245.592,120.475,232.109,94.009,210.948,76.493z"/>
		<path fill="#38B349" d="M74.932,143.425c-5.046,1.187-9.012,4.836-10.513,8.069c-1.896,4.084-5.543,8.333-8.904,11.712
			c0.063,0.508,0.105,0.832,0.105,0.832c4.211,28.766,21.235,53.369,45.104,67.813c-16.416-23.106-26.068-51.354-26.068-81.855
			C74.657,148.181,74.859,145.22,74.932,143.425z"/>
		<path fill="#38B349" d="M75.566,134.124c0.829-7.387,2.206-14.608,4.125-21.607c-6.48,0.834-12.814,2.132-18.97,3.856
			c-3.877,10.271-6.414,21.903-6.124,37.06c1.52-2.49,3.707-7.185,5.272-9.25C63.42,139.498,68.389,136.276,75.566,134.124z"/>
		<path fill="#38B349" d="M100.497,68.468c-2.002,1.027-12.127,7.964-14.277,10.631c0.781,0.417,6.229,0.557,6.937,0.946
			C94.215,78.406,99.373,70.059,100.497,68.468z"/>
		<path fill="#38B349" d="M89.978,86.412c-2.413-0.343-7.54-0.331-9.778-1.395c-7.549,7.416-10.492,12.135-15.781,22.845
			c5.743-1.353,11.621-2.356,17.61-2.986C84.688,96.971,86.036,93.626,89.978,86.412z"/>
	</g>
</g>
<g id="repères">
</g>
</svg>
