<?xml version="1.0" encoding="utf-8"?>
<!-- Generator: Adobe Illustrator 16.0.0, SVG Export Plug-In . SVG Version: 6.00 Build 0)  -->
<!DOCTYPE svg PUBLIC "-//W3C//DTD SVG 1.1//EN" "http://www.w3.org/Graphics/SVG/1.1/DTD/svg11.dtd">
<svg version="1.1" xmlns="http://www.w3.org/2000/svg" xmlns:xlink="http://www.w3.org/1999/xlink" x="0px" y="0px"
	 width="299.99px" height="299.99px" viewBox="0 0 299.99 299.99" enable-background="new 0 0 299.99 299.99" xml:space="preserve">
<g id="Calque_5" display="none">
	<rect x="-94.839" y="-64.839" display="inline" fill="#D66565" width="524" height="490.667"/>
</g>
<g id="Calque_1">
	<circle fill="#017FB2" cx="149.995" cy="149.995" r="149.995"/>
</g>
<g id="Calque_6" display="none">
	<circle display="inline" fill="#FFFFFF" cx="150.094" cy="150.091" r="95.497"/>
</g>
<g id="Calque_7">
	<path fill="#FFFFFF" d="M223.86,114.706c0.16-19.481-6.375-32.139-6.375-32.139c-0.031-0.065-0.096-0.1-0.148-0.12l0.008-0.02
		l-0.072-0.002c-1.43-0.702-13.654-6.431-31.881-6.305l-0.004,0c0,0-7.347,0.192-11.218,0.812c-0.002,0-0.004,0.001-0.007,0.001
		c-18.14,2.496-40.301,11.301-63.113,34.113c0,0.001-0.001,0.001-0.002,0.003l0.009,0.009
		c-22.813,22.812-31.618,44.973-34.113,63.114l-0.006,0.007c0,0-0.842,8.308-0.812,11.221c0,0.002,0.001,0.006,0.001,0.009
		c-0.122,17.953,5.428,30.073,6.267,31.797l-0.004,0.002c0,0,0.008,0.071,0.044,0.14l0,0.008h0.004
		c0.021,0.038,0.048,0.074,0.093,0.097c0.016,0.009,0.055,0.005,0.083,0.005l-0.039,0.039c0,0,12.653,6.535,32.134,6.375
		l0.006,0.003c0,0,10.571-0.727,11.688-0.895l0,0.001c18.032-2.603,39.965-11.464,62.534-34.03c0.001-0.002,0.002-0.002,0.002-0.002
		l-0.003-0.013c22.568-22.568,31.429-44.502,34.03-62.532C222.966,126.403,223.925,118.8,223.86,114.706z"/>
</g>
<g id="Calque_8">
	<path fill="#FFFFFF" d="M142.495,231.245"/>
	<path d="M173.829,230.501c0.095-0.086,0.189-0.173,0.284-0.26c-0.068,0.057-0.133,0.114-0.201,0.171
		C173.912,230.412,173.882,230.445,173.829,230.501z"/>
	<g>
		<path fill="#FFC905" d="M154.946,96.256c0,0,0.263-0.087,0.724-0.233C155.244,96.124,154.982,96.206,154.946,96.256z"/>
		<path fill="#FFC905" d="M180.519,97.081c4.832,4.832,1.532,26.281,1.532,26.281s7.792-26.385,3.182-30.995
			c-4.151-4.152-25.383,2.327-29.563,3.656C159.361,95.141,176.187,92.748,180.519,97.081z"/>
		<path fill="#FFC905" d="M214.519,107.746c-2.965,1.745-12.117,17.601-14.824,22.366c2.948-5.039,13.456-21.883,18.095-20.215
			c5.309,1.909,1.914,30.773,1.914,30.773c3.168-10.916,2.977-27.415,1.533-30.861C219.831,106.451,216.522,106.567,214.519,107.746
			z"/>
		<path fill="#FFC905" d="M199.695,130.112c-0.425,0.726-0.693,1.209-0.764,1.354C198.931,131.466,199.213,130.962,199.695,130.112z
			"/>
		<path fill="#FFC905" d="M103.518,218.622c-0.348-2.229,1.556-4.596,1.842-4.938c8.813-8.931,41.816-26.312,61.584-46.807
			l-0.003-0.004c20.48-19.771,37.849-52.743,46.773-61.551c0.342-0.286,2.708-2.19,4.937-1.842c2.25,0.351,5.281,8.07,5.088,14.766
			c0.432-7.079,1.031-28.392-6.254-35.676c-0.031-0.065-0.096-0.101-0.148-0.121l0.008-0.02l-0.072-0.002
			c-1.43-0.703-13.654-6.431-31.881-6.305l-0.004-0.001c0,0-7.347,0.192-11.218,0.813c-0.002,0-0.004,0.001-0.007,0.002
			c-18.14,2.496-40.301,11.301-63.113,34.112l0.003,0.004c-22.786,22.8-31.585,44.949-34.08,63.08
			c-0.001,0.003-0.001,0.005-0.001,0.007c-0.62,3.871-0.813,11.218-0.813,11.218l0.001,0.004
			c-0.126,18.227,5.603,30.451,6.305,31.882l0.001,0.071l0.02-0.008c0.02,0.053,0.055,0.117,0.12,0.148
			c7.285,7.285,28.598,6.686,35.677,6.254C111.588,223.902,103.869,220.871,103.518,218.622z M90.407,187.568
			c-7.904-7.904,2.703-48.209,25.861-71.367l-0.003-0.003c23.163-23.135,63.433-33.728,71.333-25.828
			c7.874,7.874,6.358,39.706-25.469,71.758l0.002,0.003C130.091,193.927,98.28,195.44,90.407,187.568z"/>
		<path fill="#FFC905" d="M96.059,155.639c0.147-0.461,0.233-0.724,0.233-0.724C96.243,154.952,96.161,155.214,96.059,155.639z"/>
		<path fill="#FFC905" d="M97.117,180.489c-4.332-4.331-1.939-21.158-1.059-24.85c-1.329,4.181-7.807,25.411-3.655,29.563
			c4.61,4.61,30.995-3.181,30.995-3.181S101.949,185.321,97.117,180.489z"/>
		<path fill="#FFC905" d="M109.934,217.76c-1.668-4.639,15.176-15.146,20.214-18.094c-4.766,2.706-20.621,11.859-22.366,14.823
			c-1.179,2.004-1.295,5.313,2.063,6.718c3.447,1.444,19.946,1.635,30.861-1.533C140.707,219.674,111.843,223.068,109.934,217.76z"
			/>
		<path fill="#FFC905" d="M130.149,199.666c0.851-0.483,1.354-0.765,1.354-0.765C131.358,198.971,130.875,199.24,130.149,199.666z"
			/>
	</g>
</g>
<g id="repères">
</g>
</svg>
