<?xml version="1.0" encoding="utf-8"?>
<!-- Generator: Adobe Illustrator 16.0.0, SVG Export Plug-In . SVG Version: 6.00 Build 0)  -->
<!DOCTYPE svg PUBLIC "-//W3C//DTD SVG 1.1//EN" "http://www.w3.org/Graphics/SVG/1.1/DTD/svg11.dtd">
<svg version="1.1" xmlns="http://www.w3.org/2000/svg" xmlns:xlink="http://www.w3.org/1999/xlink" x="0px" y="0px"
	 width="299.99px" height="299.99px" viewBox="0 0 299.99 299.99" enable-background="new 0 0 299.99 299.99" xml:space="preserve">
<g id="Calque_5" display="none">
	<rect x="-94.839" y="-64.839" display="inline" fill="#D66565" width="524" height="490.667"/>
</g>
<g id="Calque_1">
	<circle fill="#8DC44C" cx="149.995" cy="149.995" r="149.995"/>
</g>
<g id="Calque_6">
	<circle fill="#90278E" cx="149.995" cy="149.995" r="95.873"/>
</g>
<g id="Calque_3">
	<g>
		<path fill="#FFFFFF" d="M220.502,120.62l1.137-34.271c-10.729-12.154-24.479-21.578-40.091-27.065l-29.799,13.397v35.261
			l36.069,26.205L220.502,120.62z"/>
		<path fill="#FFFFFF" d="M245.561,146.895l-24.19-22.848l-32.025,13.255l-16.209,44.333l19.859,30.508l32.693-3.883
			c12.493-16.19,19.929-36.481,19.929-58.512C245.618,148.793,245.589,147.844,245.561,146.895z"/>
		<path fill="#FFFFFF" d="M149.999,182.933h-19.807l-20.223,31.063l20.467,29.566c6.314,1.327,12.856,2.034,19.563,2.052
			c6.706-0.018,13.248-0.725,19.562-2.052l20.467-29.566l-20.223-31.063H149.999z"/>
		<path fill="#FFFFFF" d="M112.18,134.147l36.069-26.206V72.681L118.45,59.283c-15.611,5.487-29.362,14.911-40.091,27.065
			l1.137,34.271L112.18,134.147z"/>
		<path fill="#FFFFFF" d="M110.653,137.302l-32.025-13.255l-24.19,22.848c-0.027,0.949-0.057,1.897-0.057,2.854
			c0,22.03,7.436,42.321,19.929,58.512l32.693,3.883l19.859-30.508L110.653,137.302z"/>
	</g>
</g>
<g id="repères">
</g>
</svg>
