<?xml version="1.0" encoding="utf-8"?>
<!-- Generator: Adobe Illustrator 16.0.0, SVG Export Plug-In . SVG Version: 6.00 Build 0)  -->
<!DOCTYPE svg PUBLIC "-//W3C//DTD SVG 1.1//EN" "http://www.w3.org/Graphics/SVG/1.1/DTD/svg11.dtd">
<svg version="1.1" id="Calque_1" xmlns="http://www.w3.org/2000/svg" xmlns:xlink="http://www.w3.org/1999/xlink" x="0px" y="0px"
	 width="247.297px" height="299.991px" viewBox="0 0 247.297 299.991" enable-background="new 0 0 247.297 299.991"
	 xml:space="preserve">
<g>
	<g>
		<g>
			
				<line fill="none" stroke="#8DC63F" stroke-width="1.3769" stroke-miterlimit="10" x1="115.854" y1="154.213" x2="213.68" y2="21.917"/>
			
				<line fill="none" stroke="#8DC63F" stroke-width="1.3769" stroke-miterlimit="10" x1="95.128" y1="93.083" x2="149.158" y2="20.014"/>
			
				<line fill="none" stroke="#8DC63F" stroke-width="1.3769" stroke-miterlimit="10" x1="121.943" y1="158.717" x2="219.769" y2="26.419"/>
			
				<line fill="none" stroke="#8DC63F" stroke-width="1.3769" stroke-miterlimit="10" x1="94.147" y1="107.147" x2="162.137" y2="15.198"/>
			
				<line fill="none" stroke="#8DC63F" stroke-width="1.3769" stroke-miterlimit="10" x1="128.032" y1="163.219" x2="225.857" y2="30.921"/>
			
				<line fill="none" stroke="#8DC63F" stroke-width="1.3769" stroke-miterlimit="10" x1="93.347" y1="120.966" x2="173.82" y2="12.135"/>
			
				<line fill="none" stroke="#8DC63F" stroke-width="1.3769" stroke-miterlimit="10" x1="136.123" y1="165.014" x2="230.104" y2="37.914"/>
			
				<line fill="none" stroke="#8DC63F" stroke-width="1.3769" stroke-miterlimit="10" x1="95.684" y1="130.544" x2="183.797" y2="11.379"/>
			
				<line fill="none" stroke="#8DC63F" stroke-width="1.3769" stroke-miterlimit="10" x1="144.669" y1="166.194" x2="232.852" y2="46.938"/>
			
				<line fill="none" stroke="#8DC63F" stroke-width="1.3769" stroke-miterlimit="10" x1="99.59" y1="137.999" x2="193.57" y2="10.899"/>
			
				<line fill="none" stroke="#8DC63F" stroke-width="1.3769" stroke-miterlimit="10" x1="154.689" y1="165.379" x2="235.052" y2="56.698"/>
			
				<line fill="none" stroke="#8DC63F" stroke-width="1.3769" stroke-miterlimit="10" x1="103.676" y1="145.209" x2="201.501" y2="12.912"/>
			
				<line fill="none" stroke="#8DC63F" stroke-width="1.3769" stroke-miterlimit="10" x1="166.876" y1="161.637" x2="236.366" y2="67.658"/>
			
				<line fill="none" stroke="#8DC63F" stroke-width="1.3769" stroke-miterlimit="10" x1="109.765" y1="149.711" x2="207.591" y2="17.414"/>
			
				<line fill="none" stroke="#8DC63F" stroke-width="1.3769" stroke-miterlimit="10" x1="182.037" y1="153.87" x2="234.405" y2="83.048"/>
			
				<line fill="none" stroke="#8DC63F" stroke-width="1.3769" stroke-miterlimit="10" x1="114.071" y1="50.58" x2="214.817" y2="125.075"/>
			
				<line fill="none" stroke="#8DC63F" stroke-width="1.3769" stroke-miterlimit="10" x1="156.844" y1="16.278" x2="235.447" y2="74.401"/>
			
				<line fill="none" stroke="#8DC63F" stroke-width="1.3769" stroke-miterlimit="10" x1="110.676" y1="57.487" x2="210.314" y2="131.164"/>
			
				<line fill="none" stroke="#8DC63F" stroke-width="1.3769" stroke-miterlimit="10" x1="149.158" y1="20.014" x2="234.405" y2="83.048"/>
			
				<line fill="none" stroke="#8DC63F" stroke-width="1.3769" stroke-miterlimit="10" x1="165.221" y1="13.055" x2="235.799" y2="65.243"/>
			
				<line fill="none" stroke="#8DC63F" stroke-width="1.3769" stroke-miterlimit="10" x1="174.844" y1="10.751" x2="235.734" y2="55.775"/>
			
				<line fill="none" stroke="#8DC63F" stroke-width="1.3769" stroke-miterlimit="10" x1="93.799" y1="120.354" x2="154.689" y2="165.379"/>
			
				<line fill="none" stroke="#8DC63F" stroke-width="1.3769" stroke-miterlimit="10" x1="94.564" y1="111.503" x2="163.759" y2="162.667"/>
			
				<line fill="none" stroke="#8DC63F" stroke-width="1.3769" stroke-miterlimit="10" x1="94.27" y1="101.866" x2="172.414" y2="159.647"/>
			
				<line fill="none" stroke="#8DC63F" stroke-width="1.3769" stroke-miterlimit="10" x1="106.174" y1="63.575" x2="204.797" y2="136.501"/>
			
				<line fill="none" stroke="#8DC63F" stroke-width="1.3769" stroke-miterlimit="10" x1="141.75" y1="23.954" x2="231.979" y2="90.672"/>
			
				<line fill="none" stroke="#8DC63F" stroke-width="1.3769" stroke-miterlimit="10" x1="102.501" y1="70.279" x2="199.557" y2="142.045"/>
			
				<line fill="none" stroke="#8DC63F" stroke-width="1.3769" stroke-miterlimit="10" x1="135.68" y1="28.884" x2="228.859" y2="97.784"/>
			
				<line fill="none" stroke="#8DC63F" stroke-width="1.3769" stroke-miterlimit="10" x1="99.66" y1="77.596" x2="193.671" y2="147.11"/>
			
				<line fill="none" stroke="#8DC63F" stroke-width="1.3769" stroke-miterlimit="10" x1="129.516" y1="33.745" x2="226.849" y2="105.716"/>
			
				<line fill="none" stroke="#8DC63F" stroke-width="1.3769" stroke-miterlimit="10" x1="97.186" y1="85.185" x2="187.23" y2="151.768"/>
			
				<line fill="none" stroke="#8DC63F" stroke-width="1.3769" stroke-miterlimit="10" x1="124.184" y1="39.22" x2="222.807" y2="112.146"/>
			
				<line fill="none" stroke="#8DC63F" stroke-width="1.3769" stroke-miterlimit="10" x1="95.128" y1="93.083" x2="180.375" y2="156.116"/>
			
				<line fill="none" stroke="#8DC63F" stroke-width="1.3769" stroke-miterlimit="10" x1="118.11" y1="44.147" x2="219.32" y2="118.986"/>
		</g>
		<g>
			<polygon fill="#92278F" points="30.868,291.727 9.003,275.559 21.365,266.077 36.312,277.129 			"/>
			
				<rect x="43.487" y="202.562" transform="matrix(0.804 0.5946 -0.5946 0.804 152.5845 15.4978)" fill="#92278F" width="18.589" height="73.322"/>
			<path fill="#92278F" d="M217.113,126.985c28.54-38.596,28.193-87.249-0.773-108.667c-28.966-21.419-75.584-7.495-104.124,31.103
				c-14.62,19.771-21.641,42.175-21.136,62.211c-0.004-0.001-0.012,0.001-0.016,0.001c-4.271,76.961-19.486,87.116-20.6,90.36
				c0,0,2.629,1.945,4.844,3.582c14.726-20.785,19.77-53.645,20.034-71.203c3.612,9.509,9.496,17.691,17.646,23.718
				c8.15,6.025,17.697,9.252,27.847,9.92c-16.71,5.396-46.649,19.85-62.206,40.02c2.215,1.637,4.844,3.582,4.844,3.582
				c2.775-2.016,8.025-19.539,80.357-46.174c-0.002-0.004-0.001-0.01-0.004-0.016C183.131,160.034,202.494,146.758,217.113,126.985z
				 M117.197,53.104c26.508-35.846,69.244-49.188,95.459-29.805s25.981,64.154-0.525,100.002
				c-26.506,35.847-69.244,49.191-95.459,29.806C90.457,133.724,90.691,88.952,117.197,53.104z"/>
		</g>
	</g>
	<path fill="#FFFFFF" d="M92.595,93.535c7.886,5.466,17.713,8.2,27.993,7.002c22.417-2.613,38.467-22.903,35.854-45.32
		c-1.523-13.07-9.063-23.97-19.523-30.274c-9.011,6.449-17.443,14.661-24.702,24.479C101.879,63.399,95.36,78.692,92.595,93.535z"/>
	<g>
		<circle fill="#FFFFFF" cx="115.855" cy="59.949" r="36.646"/>
		<path fill="#8DC63F" d="M118.615,23.419c0.031,0.654,0.053,1.309,0.13,1.97c1.757,15.064,15.393,25.854,30.458,24.097
			c0.563-0.065,1.106-0.183,1.664-0.28C146.464,34.811,133.608,24.536,118.615,23.419z"/>
		<path fill="#8DC63F" d="M113.066,96.478c-0.027-0.585-0.047-1.168-0.116-1.761c-1.757-15.062-15.392-25.853-30.458-24.097
			c-0.54,0.063-1.063,0.174-1.595,0.268C85.351,85.174,98.153,95.356,113.066,96.478z"/>
		<path fill="#92278F" d="M81.514,62.223c19.702-2.298,37.537,11.813,39.834,31.515c0.094,0.798,0.119,1.586,0.156,2.378
			c18.755-2.924,32.14-19.704,30.871-38.602c-0.729,0.131-1.45,0.282-2.192,0.369c-19.702,2.297-37.538-11.813-39.835-31.516
			c-0.102-0.866-0.132-1.722-0.168-2.575c-18.813,2.943-32.207,19.827-30.831,38.794C80.068,62.459,80.775,62.309,81.514,62.223z"/>
	</g>
</g>
</svg>
