<?xml version="1.0" encoding="utf-8"?>
<!-- Generator: Adobe Illustrator 16.0.0, SVG Export Plug-In . SVG Version: 6.00 Build 0)  -->
<!DOCTYPE svg PUBLIC "-//W3C//DTD SVG 1.1//EN" "http://www.w3.org/Graphics/SVG/1.1/DTD/svg11.dtd">
<svg version="1.1" id="Calque_1" xmlns="http://www.w3.org/2000/svg" xmlns:xlink="http://www.w3.org/1999/xlink" x="0px" y="0px"
	 width="300px" height="269px" viewBox="0 0 300 269" enable-background="new 0 0 300 269" xml:space="preserve">
<g>
	<path fill="#FFFFFF" d="M8.268,75.686C28.929,55.852,47.661,24.999,109.092,7.092c7.162,9.917,22.864,18.732,40.22,18.732
		c17.354,0,35.812-11.846,41.321-18.732c39.668,11.846,61.155,26.721,101.1,68.594l-53.718,42.975l-15.702-14.601v157.848H76.586
		V104.06l-15.427,14.876L8.268,75.686z"/>
	<g>
		<path fill="#ED1C24" d="M107.724,252.725c-5.072,0-9.183,4.111-9.183,9.184h18.364
			C116.905,256.836,112.795,252.725,107.724,252.725z"/>
		<circle fill="#ED1C24" cx="107.723" cy="225.27" r="9.182"/>
		<circle fill="#ED1C24" cx="107.723" cy="188.631" r="9.182"/>
		<circle fill="#ED1C24" cx="107.723" cy="151.992" r="9.182"/>
		<circle fill="#ED1C24" cx="107.723" cy="115.354" r="9.182"/>
		<circle fill="#ED1C24" cx="107.723" cy="78.716" r="9.182"/>
		<circle fill="#ED1C24" cx="107.723" cy="42.078" r="9.182"/>
		<path fill="#ED1C24" d="M107.724,14.622c2.327,0,4.445-0.873,6.064-2.301c-1.815-1.676-3.399-3.434-4.696-5.229
			c-3.229,0.941-6.315,1.926-9.314,2.936C101.364,12.771,104.325,14.622,107.724,14.622z"/>
		<path fill="#ED1C24" d="M91.011,243.588c0-5.07-4.111-9.182-9.183-9.182c-1.95,0-3.755,0.611-5.242,1.648v15.066
			c1.487,1.037,3.292,1.648,5.242,1.648C86.899,252.77,91.011,248.66,91.011,243.588z"/>
		<path fill="#ED1C24" d="M91.011,206.949c0-5.07-4.111-9.182-9.183-9.182c-1.95,0-3.755,0.613-5.242,1.65v15.064
			c1.487,1.037,3.292,1.65,5.242,1.65C86.899,216.133,91.011,212.021,91.011,206.949z"/>
		<path fill="#ED1C24" d="M91.011,170.313c0-5.072-4.111-9.184-9.183-9.184c-1.95,0-3.755,0.613-5.242,1.65v15.064
			c1.487,1.037,3.292,1.65,5.242,1.65C86.899,179.494,91.011,175.383,91.011,170.313z"/>
		<path fill="#ED1C24" d="M91.011,133.673c0-5.071-4.111-9.183-9.183-9.183c-1.95,0-3.755,0.613-5.242,1.65v15.064
			c1.487,1.039,3.292,1.65,5.242,1.65C86.899,142.855,91.011,138.744,91.011,133.673z"/>
		<circle fill="#ED1C24" cx="81.829" cy="97.036" r="9.182"/>
		<circle fill="#ED1C24" cx="81.829" cy="60.397" r="9.182"/>
		<path fill="#ED1C24" d="M81.828,32.941c5.071,0,9.183-4.11,9.183-9.183c0-3.74-2.239-6.951-5.447-8.383
			c-4.456,1.867-8.631,3.808-12.545,5.809c-0.239,0.818-0.372,1.681-0.372,2.574C72.646,28.831,76.757,32.941,81.828,32.941z"/>
		<path fill="#ED1C24" d="M160.063,252.725c-5.071,0-9.182,4.111-9.182,9.184h18.363
			C169.245,256.836,165.135,252.725,160.063,252.725z"/>
		<circle fill="#ED1C24" cx="160.063" cy="225.27" r="9.182"/>
		<circle fill="#ED1C24" cx="160.063" cy="188.631" r="9.182"/>
		<circle fill="#ED1C24" cx="160.063" cy="151.992" r="9.182"/>
		<circle fill="#ED1C24" cx="160.063" cy="115.354" r="9.182"/>
		<circle fill="#ED1C24" cx="160.063" cy="78.716" r="9.182"/>
		<circle fill="#ED1C24" cx="160.063" cy="42.078" r="9.182"/>
		<circle fill="#ED1C24" cx="134.168" cy="243.588" r="9.182"/>
		<circle fill="#ED1C24" cx="134.168" cy="206.949" r="9.182"/>
		<circle fill="#ED1C24" cx="134.168" cy="170.313" r="9.182"/>
		<circle fill="#ED1C24" cx="134.168" cy="133.673" r="9.182"/>
		<circle fill="#ED1C24" cx="134.168" cy="97.036" r="9.182"/>
		<circle fill="#ED1C24" cx="134.168" cy="60.397" r="9.182"/>
		<path fill="#ED1C24" d="M134.169,32.941c4.491,0,8.223-3.226,9.019-7.486c-6.308-0.746-12.269-2.595-17.525-5.147
			c-0.433,1.066-0.676,2.23-0.676,3.451C124.986,28.831,129.097,32.941,134.169,32.941z"/>
		<path fill="#ED1C24" d="M212.403,252.725c-5.071,0-9.182,4.111-9.182,9.184h18.364
			C221.586,256.836,217.476,252.725,212.403,252.725z"/>
		<circle fill="#ED1C24" cx="212.404" cy="225.27" r="9.182"/>
		<circle fill="#ED1C24" cx="212.404" cy="188.631" r="9.182"/>
		<circle fill="#ED1C24" cx="212.404" cy="151.992" r="9.182"/>
		<circle fill="#ED1C24" cx="212.404" cy="115.354" r="9.182"/>
		<circle fill="#ED1C24" cx="212.404" cy="78.716" r="9.182"/>
		<circle fill="#ED1C24" cx="212.404" cy="42.078" r="9.182"/>
		<path fill="#ED1C24" d="M206.346,12.328c1.563,1.376,3.596,2.228,5.831,2.282C210.271,13.827,208.327,13.067,206.346,12.328z"/>
		<circle fill="#ED1C24" cx="186.509" cy="243.588" r="9.182"/>
		<circle fill="#ED1C24" cx="186.509" cy="206.949" r="9.182"/>
		<circle fill="#ED1C24" cx="186.509" cy="170.313" r="9.182"/>
		<circle fill="#ED1C24" cx="186.509" cy="133.673" r="9.182"/>
		<circle fill="#ED1C24" cx="186.509" cy="97.036" r="9.182"/>
		<circle fill="#ED1C24" cx="186.509" cy="60.397" r="9.182"/>
		<circle fill="#ED1C24" cx="186.509" cy="23.758" r="9.182"/>
		<circle fill="#ED1C24" cx="264.744" cy="78.716" r="9.183"/>
		<path fill="#ED1C24" d="M264.744,51.26c0.736,0,1.448-0.096,2.134-0.26c-3.869-3.566-7.609-6.856-11.266-9.884
			c-0.033,0.316-0.051,0.636-0.051,0.961C255.562,47.149,259.673,51.26,264.744,51.26z"/>
		<circle fill="#ED1C24" cx="238.85" cy="97.036" r="9.183"/>
		<circle fill="#ED1C24" cx="238.85" cy="60.397" r="9.183"/>
		<path fill="#ED1C24" d="M278.99,62.641c0.813,3.23,3.332,5.775,6.549,6.625C283.302,66.969,281.121,64.764,278.99,62.641z"/>
		<path fill="#ED1C24" d="M243.388,31.736c-4.546-3.206-9.067-6.073-13.686-8.671c-0.018,0.23-0.035,0.459-0.035,0.693
			c0,5.072,4.111,9.183,9.183,9.183C240.501,32.941,242.048,32.499,243.388,31.736z"/>
		<path fill="#ED1C24" d="M34.444,87.853c-2.881,0-5.45,1.329-7.133,3.405l14.215,11.622c1.312-1.587,2.1-3.624,2.1-5.845
			C43.626,91.963,39.516,87.853,34.444,87.853z"/>
		<path fill="#ED1C24" d="M25.798,57.329c-0.34,0.961-0.535,1.99-0.535,3.068c0,5.071,4.11,9.182,9.182,9.182
			s9.182-4.11,9.182-9.182s-4.11-9.182-9.182-9.182c-1.147,0-2.241,0.219-3.253,0.604C29.322,53.674,27.53,55.514,25.798,57.329z"/>
		<path fill="#ED1C24" d="M61.159,118.936l7.57-7.301c-1.428-3.217-4.645-5.463-8.391-5.463c-3.682,0-6.847,2.17-8.311,5.297
			L61.159,118.936z"/>
		<circle fill="#ED1C24" cx="60.339" cy="78.716" r="9.182"/>
		<path fill="#ED1C24" d="M20.486,78.716c0-4.144-2.744-7.642-6.513-8.785c-1.908,1.999-3.799,3.925-5.706,5.755l10.398,8.502
			C19.804,82.659,20.486,80.769,20.486,78.716z"/>
		<circle fill="#ED1C24" cx="60.339" cy="42.078" r="9.182"/>
	</g>
</g>
</svg>
