<?xml version="1.0" encoding="utf-8"?>
<!-- Generator: Adobe Illustrator 16.0.0, SVG Export Plug-In . SVG Version: 6.00 Build 0)  -->
<!DOCTYPE svg PUBLIC "-//W3C//DTD SVG 1.1//EN" "http://www.w3.org/Graphics/SVG/1.1/DTD/svg11.dtd">
<svg version="1.1" id="Calque_1" xmlns="http://www.w3.org/2000/svg" xmlns:xlink="http://www.w3.org/1999/xlink" x="0px" y="0px"
	 width="157.433px" height="300px" viewBox="0 0 157.433 300" enable-background="new 0 0 157.433 300" xml:space="preserve">
<g>
	<path fill="#662D91" d="M76.922,194.161c13.01-0.002,35.65-4.128,37.276-4.754s5.253-3.001,6.129,4.754
		c2.753,5.378,10.758,14.385,12.259,86.998c0,3.94-18.138,10.444-34.524,10.444c-16.386,0-15.573,0.188-16.323-11.195
		c-0.751-11.384-2.877-23.83-4.44-11.571c-1.564,12.259-1.814,13.26-1.814,17.2s-1.397,6.284-13.072,5.566
		c-18.263-1.123-33.396-5.878-33.521-12.509c-0.126-6.63-1.628-75.305,9.13-84.936c1.001-2.627,1.377-8.421,8.131-5.586
		C52.905,191.408,63.538,194.162,76.922,194.161z"/>
	<path fill="#ED1C24" d="M78.424,20.038c5.378,0,10.633-1.501,16.512-11.133c1.75-2.376,4.378,2.501,10.257,4.628
		s19.515,7.756,23.642,9.257s14.386,8.505,16.387,22.265c2,13.761,1.625,35.024,1.625,36.901c0,1.876-7.63,2.002-11.007,2.877
		c-3.378,0.875-10.883,4.253-11.384,0c-0.5-4.252-0.875-5.63-1-7.631c-2.252,2.127-6.256,17.013-6.005,27.145
		s4.879,26.268,5.63,38.401c0.75,12.135,1.877,28.27,2.377,32.648c0.374,2.251-15.275,5.129-44.789,5.129
		s-49.527-2.252-48.902-5.254c2.877-12.384,5.378-34.022,5.879-41.778c0.5-7.757,4.129-21.641,4.003-28.771
		c-0.125-7.13,0-17.513-6.13-27.77c-1,4.004-0.375,13.136-6.129,11.76c-5.754-1.377-11.131-3.879-17.262-3.879
		c-1.502,0-2.378-32.896-0.501-40.027c1.877-7.131,9.007-20.39,22.517-23.517S59.725,9.741,60.91,8.795
		C64.539,5.903,68.291,20.038,78.424,20.038z"/>
</g>
</svg>
