<?xml version="1.0" encoding="utf-8"?>
<!-- Generator: Adobe Illustrator 16.0.0, SVG Export Plug-In . SVG Version: 6.00 Build 0)  -->
<!DOCTYPE svg PUBLIC "-//W3C//DTD SVG 1.1//EN" "http://www.w3.org/Graphics/SVG/1.1/DTD/svg11.dtd">
<svg version="1.1" id="Calque_1" xmlns="http://www.w3.org/2000/svg" xmlns:xlink="http://www.w3.org/1999/xlink" x="0px" y="0px"
	 width="300px" height="200px" viewBox="0 0 300 200" enable-background="new 0 0 300 200" xml:space="preserve">
<g>
	<circle fill="#ED1C24" cx="264.616" cy="40.278" r="27.115"/>
	<path fill="#ED1C24" d="M96.399,66.451c0,13.956,11.313,25.271,25.273,25.271h83.188c13.959,0,25.271-11.315,25.271-25.271v-6.43
		c0-13.955-11.313-25.271-25.271-25.271h-83.188c-13.961,0-25.273,11.316-25.273,25.271V66.451z"/>
	<path fill="#ED1C24" d="M209.544,74.25c-1.433-5.334,1.732-10.819,7.076-12.25l0,0c5.331-1.429,10.814,1.739,12.248,7.073
		l28.164,105.165c1.432,5.337-1.736,10.822-7.071,12.255l0,0c-5.339,1.427-10.82-1.74-12.253-7.077L209.544,74.25z"/>
	<path fill="#ED1C24" d="M201.417,68.897c-0.383-5.51,3.777-10.285,9.296-10.664l0,0c5.507-0.38,10.282,3.782,10.663,9.291
		l7.451,108.618c0.379,5.513-3.779,10.288-9.291,10.667l0,0c-5.514,0.377-10.287-3.785-10.666-9.298L201.417,68.897z"/>
	<path fill="#ED1C24" d="M126.413,137.019c0,6.979-5.658,12.636-12.637,12.636h-4.74c-6.979,0-12.637-5.657-12.637-12.636v-71.73
		c0-6.978,5.658-12.636,12.637-12.636h4.74c6.979,0,12.637,5.658,12.637,12.636V137.019z"/>
	<path fill="#ED1C24" d="M69.345,184.154c-5.689,4.038-13.577,2.698-17.615-2.996l-2.744-3.866
		c-4.037-5.69-2.697-13.576,2.992-17.617l51.739-36.711c5.694-4.038,13.583-2.699,17.622,2.992l2.742,3.869
		c4.039,5.688,2.699,13.58-2.995,17.614L69.345,184.154z"/>
	<path fill="#ED1C24" d="M174.206,121.942c3.631,5.957,1.736,13.734-4.225,17.362l-2.412,1.38
		c-5.965,3.627-13.733,1.739-17.365-4.221l-37.309-61.271c-3.625-5.957-1.73-13.733,4.223-17.365l2.415-1.375
		c5.964-3.632,13.737-1.737,17.365,4.22L174.206,121.942z"/>
	<path fill="#ED1C24" d="M151.722,118.741c4.522-5.319,12.502-5.957,17.813-1.438l2.068,1.857c5.314,4.528,5.959,12.5,1.436,17.815
		l-38.389,45.068c-4.516,5.313-12.497,5.951-17.813,1.434l-2.06-1.863c-5.319-4.521-5.96-12.493-1.444-17.809L151.722,118.741z"/>
	<polygon fill="#662D91" points="97.032,168.741 115.329,186.834 82.524,186.834 	"/>
	<polygon fill="#662D91" points="29.618,159.789 50.965,186.834 8.269,186.834 	"/>
</g>
</svg>
