<?xml version="1.0" encoding="utf-8"?>
<!-- Generator: Adobe Illustrator 16.0.0, SVG Export Plug-In . SVG Version: 6.00 Build 0)  -->
<!DOCTYPE svg PUBLIC "-//W3C//DTD SVG 1.1//EN" "http://www.w3.org/Graphics/SVG/1.1/DTD/svg11.dtd">
<svg version="1.1" id="Calque_1" xmlns="http://www.w3.org/2000/svg" xmlns:xlink="http://www.w3.org/1999/xlink" x="0px" y="0px"
	 width="245.608px" height="299.991px" viewBox="0 0 245.608 299.991" enable-background="new 0 0 245.608 299.991"
	 xml:space="preserve">
<g>
	<g>
		
			<line fill="none" stroke="#D11A6F" stroke-width="1.3769" stroke-miterlimit="10" x1="115.01" y1="154.213" x2="212.835" y2="21.917"/>
		
			<line fill="none" stroke="#D11A6F" stroke-width="1.3769" stroke-miterlimit="10" x1="94.283" y1="93.083" x2="148.313" y2="20.014"/>
		
			<line fill="none" stroke="#D11A6F" stroke-width="1.3769" stroke-miterlimit="10" x1="121.098" y1="158.717" x2="218.924" y2="26.419"/>
		
			<line fill="none" stroke="#D11A6F" stroke-width="1.3769" stroke-miterlimit="10" x1="93.303" y1="107.147" x2="161.292" y2="15.198"/>
		
			<line fill="none" stroke="#D11A6F" stroke-width="1.3769" stroke-miterlimit="10" x1="127.188" y1="163.219" x2="225.014" y2="30.921"/>
		
			<line fill="none" stroke="#D11A6F" stroke-width="1.3769" stroke-miterlimit="10" x1="92.502" y1="120.966" x2="172.976" y2="12.135"/>
		
			<line fill="none" stroke="#D11A6F" stroke-width="1.3769" stroke-miterlimit="10" x1="135.279" y1="165.014" x2="229.26" y2="37.914"/>
		
			<line fill="none" stroke="#D11A6F" stroke-width="1.3769" stroke-miterlimit="10" x1="94.838" y1="130.544" x2="182.953" y2="11.379"/>
		
			<line fill="none" stroke="#D11A6F" stroke-width="1.3769" stroke-miterlimit="10" x1="143.824" y1="166.194" x2="232.006" y2="46.938"/>
		
			<line fill="none" stroke="#D11A6F" stroke-width="1.3769" stroke-miterlimit="10" x1="98.744" y1="137.999" x2="192.727" y2="10.899"/>
		
			<line fill="none" stroke="#D11A6F" stroke-width="1.3769" stroke-miterlimit="10" x1="153.846" y1="165.379" x2="234.207" y2="56.698"/>
		
			<line fill="none" stroke="#D11A6F" stroke-width="1.3769" stroke-miterlimit="10" x1="102.831" y1="145.209" x2="200.656" y2="12.912"/>
		
			<line fill="none" stroke="#D11A6F" stroke-width="1.3769" stroke-miterlimit="10" x1="166.031" y1="161.637" x2="235.521" y2="67.658"/>
		
			<line fill="none" stroke="#D11A6F" stroke-width="1.3769" stroke-miterlimit="10" x1="108.92" y1="149.711" x2="206.746" y2="17.414"/>
		
			<line fill="none" stroke="#D11A6F" stroke-width="1.3769" stroke-miterlimit="10" x1="181.192" y1="153.87" x2="233.561" y2="83.048"/>
		
			<line fill="none" stroke="#D11A6F" stroke-width="1.3769" stroke-miterlimit="10" x1="113.227" y1="50.58" x2="213.973" y2="125.075"/>
		
			<line fill="none" stroke="#D11A6F" stroke-width="1.3769" stroke-miterlimit="10" x1="156" y1="16.278" x2="234.604" y2="74.401"/>
		
			<line fill="none" stroke="#D11A6F" stroke-width="1.3769" stroke-miterlimit="10" x1="109.831" y1="57.487" x2="209.471" y2="131.164"/>
		
			<line fill="none" stroke="#D11A6F" stroke-width="1.3769" stroke-miterlimit="10" x1="148.313" y1="20.014" x2="233.561" y2="83.048"/>
		
			<line fill="none" stroke="#D11A6F" stroke-width="1.3769" stroke-miterlimit="10" x1="164.375" y1="13.055" x2="234.953" y2="65.243"/>
		
			<line fill="none" stroke="#D11A6F" stroke-width="1.3769" stroke-miterlimit="10" x1="173.999" y1="10.751" x2="234.89" y2="55.775"/>
		
			<line fill="none" stroke="#D11A6F" stroke-width="1.3769" stroke-miterlimit="10" x1="92.955" y1="120.354" x2="153.846" y2="165.379"/>
		
			<line fill="none" stroke="#D11A6F" stroke-width="1.3769" stroke-miterlimit="10" x1="93.721" y1="111.503" x2="162.914" y2="162.667"/>
		
			<line fill="none" stroke="#D11A6F" stroke-width="1.3769" stroke-miterlimit="10" x1="93.425" y1="101.866" x2="171.568" y2="159.647"/>
		
			<line fill="none" stroke="#D11A6F" stroke-width="1.3769" stroke-miterlimit="10" x1="105.329" y1="63.575" x2="203.952" y2="136.501"/>
		
			<line fill="none" stroke="#D11A6F" stroke-width="1.3769" stroke-miterlimit="10" x1="140.904" y1="23.954" x2="231.133" y2="90.672"/>
		
			<line fill="none" stroke="#D11A6F" stroke-width="1.3769" stroke-miterlimit="10" x1="101.656" y1="70.279" x2="198.711" y2="142.045"/>
		
			<line fill="none" stroke="#D11A6F" stroke-width="1.3769" stroke-miterlimit="10" x1="134.834" y1="28.884" x2="228.016" y2="97.784"/>
		
			<line fill="none" stroke="#D11A6F" stroke-width="1.3769" stroke-miterlimit="10" x1="98.814" y1="77.596" x2="192.826" y2="147.11"/>
		
			<line fill="none" stroke="#D11A6F" stroke-width="1.3769" stroke-miterlimit="10" x1="128.672" y1="33.745" x2="226.004" y2="105.716"/>
		
			<line fill="none" stroke="#D11A6F" stroke-width="1.3769" stroke-miterlimit="10" x1="96.341" y1="85.185" x2="186.387" y2="151.768"/>
		
			<line fill="none" stroke="#D11A6F" stroke-width="1.3769" stroke-miterlimit="10" x1="123.339" y1="39.22" x2="221.961" y2="112.146"/>
		
			<line fill="none" stroke="#D11A6F" stroke-width="1.3769" stroke-miterlimit="10" x1="94.283" y1="93.083" x2="179.531" y2="156.116"/>
		
			<line fill="none" stroke="#D11A6F" stroke-width="1.3769" stroke-miterlimit="10" x1="117.266" y1="44.147" x2="218.475" y2="118.986"/>
	</g>
	<g>
		<polygon fill="#FAA61A" points="30.023,291.727 8.159,275.559 20.521,266.077 35.467,277.129 		"/>
		
			<rect x="42.643" y="202.562" transform="matrix(0.804 0.5946 -0.5946 0.804 152.419 15.9999)" fill="#FAA61A" width="18.589" height="73.321"/>
		<path fill="#FAA61A" d="M216.27,126.985c28.539-38.596,28.192-87.249-0.773-108.667c-28.967-21.419-75.586-7.495-104.125,31.103
			C96.75,69.192,89.73,91.596,90.235,111.632c-0.005-0.001-0.011,0.001-0.017,0.001c-4.27,76.961-19.484,87.116-20.6,90.36
			c0,0,2.631,1.945,4.845,3.582c14.726-20.785,19.771-53.645,20.034-71.203c3.613,9.509,9.496,17.691,17.646,23.718
			c8.149,6.025,17.698,9.252,27.847,9.92c-16.709,5.396-46.648,19.85-62.205,40.02c2.214,1.637,4.844,3.582,4.844,3.582
			c2.773-2.016,8.025-19.539,80.357-46.174c-0.002-0.004-0.002-0.01-0.004-0.016C182.287,160.034,201.648,146.758,216.27,126.985z
			 M116.354,53.104c26.506-35.846,69.244-49.188,95.459-29.805s25.98,64.154-0.525,100.002
			c-26.508,35.847-69.244,49.191-95.46,29.806C89.613,133.724,89.846,88.952,116.354,53.104z"/>
	</g>
</g>
</svg>
