<?xml version="1.0" encoding="utf-8"?>
<!-- Generator: Adobe Illustrator 16.0.0, SVG Export Plug-In . SVG Version: 6.00 Build 0)  -->
<!DOCTYPE svg PUBLIC "-//W3C//DTD SVG 1.1//EN" "http://www.w3.org/Graphics/SVG/1.1/DTD/svg11.dtd">
<svg version="1.1" id="Calque_1" xmlns="http://www.w3.org/2000/svg" xmlns:xlink="http://www.w3.org/1999/xlink" x="0px" y="0px"
	 width="306.757px" height="178.378px" viewBox="0 0 306.757 178.378" enable-background="new 0 0 306.757 178.378"
	 xml:space="preserve">
<g>
	<polygon fill="#00AEEF" points="247.242,64.178 59.499,64.178 11.646,168.767 295.111,168.767 	"/>
	<polygon fill="#FFFFFF" points="258.693,169.06 264.968,169.06 226.871,64.248 222.74,64.248 243.66,125.236 157.189,125.236 
		156.076,64.178 151.66,64.178 150.517,125.236 62.989,125.236 83.999,64.248 79.868,64.248 41.615,169.06 47.891,169.06 
		61.352,129.986 245.289,129.986 	"/>
	<path fill="#FBB040" d="M247.49,9.318c-2.102,0-3.875,1.664-4.041,3.739l-0.021,0.489H63.269l-0.045-0.489
		c-0.111-2.075-1.909-3.739-3.975-3.739s-3.605,1.664-3.483,3.739l3.746,51.124h7.173l-0.24-3.628h13.84l0.2,3.628h2.29
		l-0.196-3.628h18.673l0.139,3.628h2.291l-0.135-3.628h17.881l0.084,3.628h2.291l-0.08-3.628h18.463l0.027,3.628h2.287l-0.02-3.628
		h18.67l-0.031,3.628h2.287l0.039-3.628h18.26l-0.09,3.628h2.289L186,60.554h18.668l-0.146,3.628h2.287l0.154-3.628h18.26
		l-0.207,3.628h2.291l0.211-3.628h12.777l-0.25,3.628h7.209l3.689-51.124C251.121,10.982,249.556,9.318,247.49,9.318z
		 M80.126,58.363H66.264l-0.327-5.564h13.922L80.126,58.363z M79.699,50.587H65.755l-0.393-5.604H79.37L79.699,50.587z
		 M79.267,42.73H65.239l-0.395-5.672h14.089L79.267,42.73z M78.831,34.762H64.715l-0.398-5.742h14.176L78.831,34.762z M78.388,26.71
		h-14.2l-0.428-6.112h14.268L78.388,26.71z M101.128,58.363H82.425l-0.256-5.564h18.781L101.128,58.363z M100.826,50.587H82.013
		l-0.32-5.604h18.895L100.826,50.587z M100.521,42.73H81.595l-0.325-5.672h19.011L100.521,42.73z M100.214,34.762H81.172
		l-0.329-5.742h19.125L100.214,34.762z M99.902,26.71H80.743l-0.35-6.112H99.64L99.902,26.71z M121.337,58.363h-17.91l-0.168-5.564
		h17.986L121.337,58.363z M121.158,50.587h-18.02l-0.229-5.604h18.096L121.158,50.587z M120.974,42.73h-18.125l-0.232-5.672h18.205
		L120.974,42.73z M120.792,34.762h-18.238l-0.234-5.742h18.316L120.792,34.762z M120.605,26.71h-18.348l-0.252-6.112h18.434
		L120.605,26.71z M142.132,58.363h-18.496l-0.08-5.564h18.574L142.132,58.363z M142.078,50.587h-18.605l-0.143-5.604h18.686
		L142.078,50.587z M142.021,42.73h-18.719l-0.145-5.672h18.801L142.021,42.73z M141.962,34.762h-18.83l-0.145-5.742H141.9
		L141.962,34.762z M141.906,26.71H122.96l-0.156-6.112h19.035L141.906,26.71z M163.134,58.363h-18.703l0.008-5.564h18.781
		L163.134,58.363z M163.203,50.587H144.39l-0.053-5.604h18.895L163.203,50.587z M163.275,42.73h-18.928l-0.051-5.672h19.006
		L163.275,42.73z M163.345,34.762h-19.041l-0.053-5.742h19.123L163.345,34.762z M163.419,26.71h-19.156l-0.059-6.112h19.246
		L163.419,26.71z M183.722,58.363h-18.289l0.096-5.564h18.369L183.722,58.363z M183.916,50.587h-18.4l0.041-5.604h18.477
		L183.916,50.587z M184.111,42.73h-18.512l0.041-5.672h18.59L184.111,42.73z M184.31,34.762h-18.623l0.039-5.742h18.703
		L184.31,34.762z M184.509,26.71h-18.736l0.043-6.112h18.822L184.509,26.71z M204.72,58.363h-18.699l0.184-5.564h18.781
		L204.72,58.363z M205.042,50.587h-18.814l0.127-5.604h18.895L205.042,50.587z M205.365,42.73h-18.928l0.129-5.672h19.01
		L205.365,42.73z M205.691,34.762h-19.043l0.133-5.742h19.125L205.691,34.762z M206.021,26.71h-19.156l0.141-6.112h19.244
		L206.021,26.71z M225.31,58.363h-18.289l0.275-5.564h18.367L225.31,58.363z M225.751,50.587h-18.396l0.217-5.604h18.479
		L225.751,50.587z M226.199,42.73h-18.508l0.219-5.672h18.592L226.199,42.73z M226.654,34.762h-18.623l0.225-5.742h18.703
		L226.654,34.762z M227.111,26.71h-18.734l0.24-6.112h18.82L227.111,26.71z M229.802,20.598h13.172l-0.396,6.112h-13.111
		L229.802,20.598z M229.308,29.02h13.09l-0.371,5.742h-13.033L229.308,29.02z M228.839,37.059h13.008l-0.367,5.672h-12.953
		L228.839,37.059z M228.375,44.982h12.928l-0.359,5.604h-12.877L228.375,44.982z M227.611,58.363l0.359-5.564h12.855l-0.418,5.564
		H227.611z"/>
</g>
</svg>
