<?xml version="1.0" encoding="utf-8"?>
<!-- Generator: Adobe Illustrator 16.0.0, SVG Export Plug-In . SVG Version: 6.00 Build 0)  -->
<!DOCTYPE svg PUBLIC "-//W3C//DTD SVG 1.1//EN" "http://www.w3.org/Graphics/SVG/1.1/DTD/svg11.dtd">
<svg version="1.1" id="Calque_1" xmlns="http://www.w3.org/2000/svg" xmlns:xlink="http://www.w3.org/1999/xlink" x="0px" y="0px"
	 width="299.99px" height="256px" viewBox="0 20.496 299.99 256" enable-background="new 0 20.496 299.99 256" xml:space="preserve"
	>
<g>
	<path fill="#FFCA05" d="M83.302,188.591c61.007,0,46.001,20.227,66.228,20.227c20.881,0,8.157-21.857,61.661-20.227
		c53.505,1.631,88.741,9.461,64.925,38.824c-23.817,29.361-54.627,39.803-74.782,39.803c-36.471,0-29.944-35.234-52.13-35.234
		c-20.228,0-13.049,35.234-55.136,35.234c-29.689,0-63.293-30.994-70.797-40.781C15.767,216.648,1.087,188.591,83.302,188.591z"/>
	<path fill="#FFFFFF" d="M93.741,202.294c18.583,0.703,38.821,2.611,38.496,19.902c-0.325,17.289-16.966,33.928-32.951,33.602
		c-15.984-0.324-41.757-14.682-41.432-35.234C58.178,200.009,82.418,201.867,93.741,202.294z"/>
	<path fill="#FFFFFF" d="M206.949,202.056c17.944-0.381,33.931,2.195,34.583,16.877c0.651,14.682-15.802,36.873-40.199,36.869
		c-24.398-0.004-34.513-22.514-34.186-33.605C167.473,211.103,172.039,202.794,206.949,202.056z"/>
	<path fill="#FFFFFF" d="M26.207,222.033c0,1.17,0.95,2.121,2.12,2.121l0,0c1.172,0,2.122-0.951,2.122-2.121v-17.855
		c0-1.172-0.95-2.121-2.122-2.121l0,0c-1.17,0-2.12,0.949-2.12,2.121V222.033z"/>
	<path fill="#FFFFFF" d="M269.916,222.033c0,1.17,0.95,2.121,2.12,2.121l0,0c1.172,0,2.121-0.951,2.121-2.121v-17.855
		c0-1.172-0.949-2.121-2.121-2.121l0,0c-1.17,0-2.12,0.949-2.12,2.121V222.033z"/>
	<path fill="#007DB9" d="M26.207,171.953c-7.83,6.525-17.944,16.313-17.944,30.016c0,13.701,10.441,18.27,16.313,17.943
		c5.873-0.326,5.267-13.941-0.905-12.508c-6.173,1.434-5.987-2.068-6.456-5.383s3.446-18.715,8.992-22.305
		C26.534,173.189,26.207,171.953,26.207,171.953z"/>
	<path fill="#007DB9" d="M273.783,171.953c7.83,6.525,17.944,16.313,17.944,30.016c0,13.701-10.441,18.27-16.313,17.943
		c-5.873-0.326-5.267-13.941,0.905-12.508c6.173,1.434,5.987-2.068,6.456-5.383c0.468-3.314-3.072-19.449-8.618-23.039
		C273.831,172.457,273.783,171.953,273.783,171.953z"/>
	<path fill="#FFCA05" d="M150.455,142.329c63.418,0,116.295,10.827,131.38,53.762c0.01-0.699,0.05-1.381,0.05-2.086
		c0-80.792-19.753-164.233-131.43-164.233c-92.936,0-131.43,83.44-131.43,164.233c0,0.035,0.004,0.07,0.004,0.107
		C35.037,152.193,88.019,142.329,150.455,142.329z"/>
</g>
</svg>
