<?xml version="1.0" encoding="utf-8"?>
<!-- Generator: Adobe Illustrator 16.0.0, SVG Export Plug-In . SVG Version: 6.00 Build 0)  -->
<!DOCTYPE svg PUBLIC "-//W3C//DTD SVG 1.1//EN" "http://www.w3.org/Graphics/SVG/1.1/DTD/svg11.dtd">
<svg version="1.1" id="Calque_1" xmlns="http://www.w3.org/2000/svg" xmlns:xlink="http://www.w3.org/1999/xlink" x="0px" y="0px"
	 width="299.991px" height="155.743px" viewBox="0 0 299.991 155.743" enable-background="new 0 0 299.991 155.743"
	 xml:space="preserve">
<g>
	<path fill="#ED1C24" d="M21.849,15.46c6.573,18.726,22.515,29.93,47.989,29.943c23.442,0.01,42.329-10.798,52.207-28.134
		c2.895-5.081,7.628-5.397,10.563-2.933c49.815,41.828,156.999,48.354,159.118,98.517v6.303c-0.006,8.564-6.953,15.5-15.512,15.496
		L23.766,134.54c-8.563,0-15.506-6.947-15.503-15.51V30.77C8.267,22.864,14.207,16.416,21.849,15.46z"/>
	<path fill="#FFFFFF" d="M142.49,26.212c-4.37-0.282-8.143,3.032-8.424,7.401c-0.283,4.372,3.031,8.143,7.401,8.425
		c4.371,0.282,8.143-3.03,8.425-7.402C150.174,30.267,146.861,26.495,142.49,26.212z M141.712,38.254
		c-2.28-0.148-4.01-2.115-3.863-4.396c0.147-2.279,2.115-4.01,4.396-3.861c2.28,0.146,4.01,2.115,3.862,4.396
		C145.961,36.671,143.993,38.401,141.712,38.254z"/>
	<path fill="#FFFFFF" d="M194.413,52.062c-4.37-0.282-8.142,3.032-8.425,7.402c-0.282,4.37,3.032,8.141,7.403,8.422
		c4.37,0.283,8.142-3.03,8.424-7.401C202.096,56.117,198.783,52.344,194.413,52.062z M193.635,64.105
		c-2.281-0.148-4.011-2.116-3.863-4.396c0.146-2.28,2.116-4.011,4.396-3.862c2.28,0.146,4.01,2.116,3.863,4.396
		C197.883,62.522,195.916,64.25,193.635,64.105z"/>
	<path fill="#662D91" d="M201.309,45.012c1.38,0.644,1.977,2.283,1.333,3.662l-5.84,12.125c-0.643,1.379-2.281,1.977-3.66,1.332l0,0
		c-1.379-0.642-1.976-2.283-1.334-3.661l5.839-12.124C198.291,44.965,199.929,44.369,201.309,45.012L201.309,45.012z"/>
	<path fill="#FFFFFF" d="M221.019,61.958c-4.37-0.282-8.142,3.031-8.424,7.402c-0.282,4.369,3.032,8.141,7.402,8.424
		c4.37,0.281,8.142-3.031,8.425-7.402C228.704,66.011,225.389,62.24,221.019,61.958z M220.242,74
		c-2.281-0.148-4.011-2.115-3.862-4.396c0.146-2.281,2.115-4.01,4.396-3.862c2.28,0.146,4.011,2.116,3.862,4.395
		C224.491,72.416,222.522,74.145,220.242,74z"/>
	<path fill="#662D91" d="M227.917,54.907c1.379,0.645,1.977,2.283,1.332,3.663l-5.84,12.124c-0.643,1.379-2.281,1.977-3.659,1.332
		l0,0c-1.38-0.641-1.977-2.283-1.335-3.66l5.84-12.125C224.897,54.86,226.536,54.264,227.917,54.907L227.917,54.907z"/>
	<path fill="#FFFFFF" d="M167.305,41.435c-4.37-0.282-8.142,3.032-8.425,7.401c-0.282,4.371,3.032,8.142,7.403,8.424
		c4.369,0.282,8.142-3.031,8.424-7.401C174.989,45.49,171.675,41.717,167.305,41.435z M166.528,53.477
		c-2.281-0.148-4.011-2.115-3.863-4.396c0.146-2.279,2.115-4.01,4.396-3.861c2.28,0.146,4.01,2.115,3.863,4.396
		C170.776,51.894,168.808,53.624,166.528,53.477z"/>
	<path fill="#662D91" d="M174.202,34.384c1.38,0.645,1.977,2.284,1.333,3.663l-5.84,12.124c-0.643,1.38-2.281,1.977-3.66,1.333l0,0
		c-1.379-0.642-1.976-2.284-1.334-3.662l5.839-12.124C171.183,34.338,172.822,33.742,174.202,34.384L174.202,34.384z"/>
	<path fill="#662D91" d="M8.264,119.03c-0.002,8.563,6.938,15.51,15.502,15.51l22.609,0.01v2.354c0,3.314,2.687,6,6,6h2.334
		c3.313,0,6-2.686,6-6v-2.346l14.333,0.006v2.34c0,3.314,2.687,6,6,6h2.333c3.314,0,6-2.686,6-6v-2.334l72.645,0.037v2.297
		c0,3.314,2.687,6,6,6h2.334c3.314,0,6-2.686,6-6v-2.291l21.533,0.01v2.281c0,3.314,2.686,6,6,6h2.333c3.313,0,6-2.686,6-6v-2.273
		l21.501,0.008v2.266c0,3.314,2.686,6,6,6h2.332c3.314,0,6-2.686,6-6v-2.258l28.162,0.008c8.561,0.004,15.508-6.932,15.512-15.496
		L8.264,119.03z"/>
</g>
</svg>
