<?xml version="1.0" encoding="utf-8"?>
<!-- Generator: Adobe Illustrator 16.0.0, SVG Export Plug-In . SVG Version: 6.00 Build 0)  -->
<!DOCTYPE svg PUBLIC "-//W3C//DTD SVG 1.1//EN" "http://www.w3.org/Graphics/SVG/1.1/DTD/svg11.dtd">
<svg version="1.1" id="Calque_1" xmlns="http://www.w3.org/2000/svg" xmlns:xlink="http://www.w3.org/1999/xlink" x="0px" y="0px"
	 width="304.73px" height="299.991px" viewBox="0 0 304.73 299.991" enable-background="new 0 0 304.73 299.991"
	 xml:space="preserve">
<g>
	<g>
		<path fill="#8DC63F" d="M294.601,68.067l-1.107-0.818l-3.139,4.245l-4.982-3.685l3.684-4.98l4.014,2.968l0.818-1.107l-4.014-2.968
			l3.412-4.614l-1.107-0.818l-3.412,4.614l-4.98-3.684l3.684-4.983l5.535,4.093l0.818-1.107l-5.535-4.093l2.797-3.781l-1.107-0.818
			l-2.795,3.781l-4.984-3.685l6.141-8.303l-1.107-0.818l-6.139,8.303l-4.982-3.684l7.982-10.794l-1.107-0.818l-7.982,10.794
			l-4.98-3.684l7.98-10.794l-1.107-0.818l-7.98,10.793l-4.982-3.684l7.98-10.793l-1.107-0.818l-7.98,10.793l-4.982-3.685
			l7.982-10.793l-1.107-0.818l-7.98,10.793l-4.982-3.684l7.98-10.793l-1.107-0.818l-7.98,10.793l-4.982-3.685l6.139-8.303
			l-1.107-0.818l-6.139,8.303l-4.982-3.685l2.457-3.32l-1.107-0.818l-2.457,3.32l-5.535-4.093l-0.818,1.107l5.535,4.093
			l-3.684,4.982l-4.982-3.684l3.07-4.152l-1.107-0.818l-3.07,4.152l-4.566-3.377l-0.818,1.107l4.566,3.377l-3.684,4.98l-4.98-3.684
			l1.977-2.675l-1.107-0.818l-1.977,2.675l-2.354-1.739l-0.818,1.107l2.354,1.739l-3.686,4.982l-5.535-4.094l-0.408,0.554
			l-0.555-0.409l-4.094,5.535l-2.352-1.739l-0.818,1.107l2.352,1.739l-3.684,4.981l-3.92-2.898l-0.818,1.107l3.92,2.898
			l-3.684,4.981l-5.58-4.126l-0.818,1.107l5.58,4.126l-3.684,4.982l-6.412-4.741l-0.818,1.107l6.412,4.74l-3.684,4.982l-7.982-5.902
			l-0.818,1.107l7.98,5.901l-3.684,4.982l-7.518-5.559l-0.818,1.107l7.518,5.559l-3.684,4.982l-6.412-4.741l-0.818,1.107l6.412,4.74
			l-3.684,4.981l-6.412-4.741l-0.818,1.107l6.412,4.741l-3.686,4.982l-5.58-4.127l-0.818,1.107l5.58,4.127l-3.684,4.98l-3.92-2.898
			l-0.818,1.107l3.92,2.898l-3.111,4.208c0.313,1.183,0.598,2.365,0.865,3.55l3.834,2.834l-2.602,3.517
			c0.104,0.649,0.186,1.299,0.273,1.948l3.436-4.646l4.98,3.683l-3.684,4.982l-4.65-3.438c0.082,0.629,0.164,1.258,0.234,1.886
			l3.596,2.659l-3.098,4.191c0.035,0.992,0.043,1.981,0.045,2.97l4.641,3.431l-3.684,4.982l-0.582-0.43
			c0.072,1.086,0.146,2.162,0.223,3.23l0.648-0.875l4.982,3.684l-3.684,4.982l-1.416-1.047c0.053,0.616,0.107,1.223,0.162,1.832
			l0.434,0.321l-0.361,0.489c0.063,0.689,0.127,1.378,0.191,2.059l1.277-1.729l4.982,3.683l-5.283,7.145
			c0.08,0.669,0.162,1.326,0.244,1.985l6.146-8.311l4.98,3.684l-7.98,10.794l1.107,0.818l7.98-10.794l4.982,3.685l-7.98,10.793
			l1.107,0.818l7.98-10.793l4.982,3.684l-7.982,10.793l1.107,0.818l7.982-10.793l4.98,3.684l-7.98,10.793l1.107,0.818l7.98-10.793
			l4.982,3.684l-5.979,8.086l1.107,0.818l5.979-8.086l4.98,3.686l-3.521,4.764l1.107,0.818l3.521-4.764l5.537,4.094l0.408-0.555
			l0.555,0.41l4.092-5.537l4.014,2.969l0.818-1.107l-4.014-2.967l3.686-4.982l4.98,3.684l-2.498,3.379l1.107,0.818l2.498-3.379
			l2.076,1.535l0.818-1.107l-2.076-1.535l3.686-4.982l5.535,4.094l0.818-1.107l-5.535-4.094l3.684-4.981l4.98,3.684l-2.432,3.289
			l1.107,0.818l2.432-3.289l1.801,1.33l0.818-1.107l-1.801-1.33l3.686-4.982l3.736,2.763l0.818-1.107l-3.736-2.763l3.684-4.98
			l5.119,3.785l0.818-1.107l-5.119-3.785l3.684-4.982l5.857,4.331l0.818-1.107l-5.857-4.331l3.684-4.981l6.875,5.083l0.818-1.107
			l-6.875-5.082l3.684-4.982l6.875,5.083l0.818-1.107l-6.873-5.083l3.684-4.981l6.873,5.083l0.818-1.107l-6.873-5.083l3.684-4.981
			l5.857,4.331l0.818-1.107l-5.857-4.331l3.684-4.982l5.398,3.991l0.818-1.107l-5.398-3.991l3.686-4.982l2.906,2.149l0.818-1.107
			l-2.906-2.148l3.684-4.981l1.521,1.125l0.818-1.107l-1.521-1.125l4.094-5.536l-0.555-0.409l0.41-0.554l-5.535-4.093l3.682-4.981
			l2.078,1.535l0.818-1.107l-2.076-1.535L294.601,68.067z M287.949,62.01l-3.684,4.981l-4.98-3.684l3.684-4.98L287.949,62.01z
			 M236.58,80.534l-3.686,4.982l-4.98-3.684l3.684-4.982L236.58,80.534z M232.416,75.743l3.684-4.981l4.982,3.684l-3.684,4.981
			L232.416,75.743z M226.806,81.014l-4.982-3.684l3.684-4.982l4.982,3.685L226.806,81.014z M225.988,82.121l-3.684,4.981
			l-4.982-3.684l3.684-4.982L225.988,82.121z M221.484,88.21l-3.684,4.982l-4.982-3.685l3.686-4.981L221.484,88.21z M216.214,82.601
			l-4.982-3.684l3.684-4.982l4.982,3.684L216.214,82.601z M215.396,83.708l-3.684,4.981l-4.982-3.685l3.684-4.981L215.396,83.708z
			 M210.892,89.796l-3.682,4.981l-4.982-3.684l3.684-4.981L210.892,89.796z M206.392,95.885l-3.686,4.982l-4.982-3.684l3.686-4.983
			L206.392,95.885z M201.888,101.975l-3.684,4.981l-4.982-3.684l3.684-4.982L201.888,101.975z M202.996,102.793l4.982,3.685
			l-3.684,4.98l-4.982-3.684L202.996,102.793z M203.814,101.687l3.684-4.983l4.982,3.685l-3.684,4.982L203.814,101.687z
			 M208.318,95.597L212,90.615l4.982,3.684l-3.684,4.981L208.318,95.597z M218.089,95.118l4.982,3.684l-3.684,4.98l-4.982-3.684
			L218.089,95.118z M218.908,94.011l3.684-4.982l4.982,3.685l-3.684,4.981L218.908,94.011z M223.41,87.922l3.686-4.982l4.98,3.684
			l-3.684,4.982L223.41,87.922z M233.183,87.442l4.982,3.684l-3.684,4.981l-4.982-3.684L233.183,87.442z M234.001,86.335
			l3.684-4.982l4.982,3.684l-3.684,4.982L234.001,86.335z M238.505,80.245l3.684-4.981l4.98,3.684l-3.684,4.981L238.505,80.245z
			 M243.007,74.156l3.684-4.981l4.982,3.684l-3.686,4.981L243.007,74.156z M247.509,68.067l3.684-4.982l4.982,3.684l-3.684,4.982
			L247.509,68.067z M246.402,67.249l-4.98-3.684l3.684-4.982l4.98,3.684L246.402,67.249z M245.583,68.355l-3.684,4.982l-4.982-3.684
			l3.686-4.982L245.583,68.355z M235.81,68.835l-4.98-3.684l3.684-4.982l4.982,3.685L235.81,68.835z M234.992,69.942l-3.684,4.982
			l-4.982-3.684l3.684-4.982L234.992,69.942z M225.22,70.422l-4.982-3.684l3.684-4.981l4.982,3.684L225.22,70.422z M224.4,71.529
			l-3.684,4.981l-4.982-3.684l3.686-4.982L224.4,71.529z M214.628,72.009l-4.982-3.684l3.684-4.982l4.982,3.684L214.628,72.009z
			 M213.808,73.116l-3.684,4.981l-4.982-3.684l3.686-4.982L213.808,73.116z M209.306,79.205l-3.684,4.981l-4.982-3.684l3.684-4.981
			L209.306,79.205z M204.804,85.294l-3.684,4.98l-4.982-3.684l3.684-4.98L204.804,85.294z M200.302,91.382l-3.686,4.982l-4.98-3.684
			l3.684-4.982L200.302,91.382z M195.798,97.472l-3.684,4.981l-4.98-3.684l3.684-4.981L195.798,97.472z M192.404,104.379
			l4.982,3.685l-3.684,4.981l-4.982-3.684L192.404,104.379z M198.494,108.882l4.982,3.684l-3.686,4.982l-4.98-3.684L198.494,108.882
			z M204.583,113.384l4.98,3.684l-3.684,4.982l-4.982-3.684L204.583,113.384z M205.402,112.276l3.684-4.98l4.98,3.684l-3.684,4.981
			L205.402,112.276z M209.904,106.188l3.684-4.982l4.982,3.684l-3.686,4.982L209.904,106.188z M219.677,105.708l4.98,3.684
			l-3.684,4.982l-4.982-3.684L219.677,105.708z M220.496,104.601l3.684-4.98l4.98,3.684l-3.684,4.98L220.496,104.601z
			 M224.998,98.513l3.684-4.981l4.98,3.684l-3.684,4.981L224.998,98.513z M234.769,98.034l4.982,3.684l-3.684,4.981l-4.982-3.684
			L234.769,98.034z M235.587,96.927l3.686-4.982l4.98,3.684l-3.684,4.982L235.587,96.927z M240.091,90.837l3.684-4.981l4.98,3.684
			l-3.684,4.981L240.091,90.837z M244.593,84.748l3.684-4.981l4.982,3.684l-3.684,4.981L244.593,84.748z M249.095,78.659
			l3.686-4.982l4.98,3.684l-3.684,4.982L249.095,78.659z M253.599,72.569l3.684-4.981l4.98,3.684l-3.684,4.981L253.599,72.569z
			 M258.101,66.48l3.684-4.981l4.982,3.684l-3.686,4.981L258.101,66.48z M256.994,65.662l-4.982-3.684l3.686-4.982l4.98,3.684
			L256.994,65.662z M250.904,61.159l-4.98-3.684l3.684-4.981l4.982,3.684L250.904,61.159z M244.816,56.657l-4.982-3.684l3.684-4.982
			l4.982,3.684L244.816,56.657z M243.998,57.765l-3.684,4.981l-4.982-3.684l3.684-4.981L243.998,57.765z M234.224,58.243
			l-4.982-3.684l3.684-4.981l4.982,3.684L234.224,58.243z M233.406,59.351l-3.684,4.982l-4.982-3.684l3.684-4.982L233.406,59.351z
			 M223.632,59.83l-4.982-3.684l3.686-4.982l4.98,3.685L223.632,59.83z M222.814,60.938l-3.684,4.981l-4.982-3.684l3.684-4.981
			L222.814,60.938z M213.041,61.417l-4.982-3.684l3.684-4.982l4.982,3.684L213.041,61.417z M212.222,62.524l-3.684,4.981
			l-4.982-3.684l3.684-4.982L212.222,62.524z M207.72,68.613l-3.684,4.982l-4.982-3.685l3.684-4.982L207.72,68.613z M203.216,74.702
			l-3.684,4.982l-4.98-3.684l3.684-4.982L203.216,74.702z M198.714,80.792l-3.682,4.98l-4.982-3.684l3.682-4.981L198.714,80.792z
			 M194.212,86.88l-3.684,4.982l-4.982-3.684l3.684-4.982L194.212,86.88z M189.71,92.97l-3.684,4.981l-4.982-3.685l3.684-4.98
			L189.71,92.97z M186.316,99.877l4.98,3.684l-3.684,4.981l-4.98-3.684L186.316,99.877z M187.902,110.468l4.982,3.685l-3.686,4.982
			l-4.98-3.685L187.902,110.468z M193.99,114.971l4.982,3.685l-3.684,4.981l-4.982-3.684L193.99,114.971z M200.08,119.474
			l4.982,3.684l-3.684,4.982l-4.982-3.684L200.08,119.474z M206.169,123.976l4.98,3.684l-3.684,4.982l-4.98-3.684L206.169,123.976z
			 M206.988,122.868l3.684-4.981l4.982,3.684l-3.686,4.981L206.988,122.868z M211.49,116.779l3.684-4.981l4.982,3.684l-3.684,4.981
			L211.49,116.779z M221.263,116.3l4.98,3.685l-3.684,4.981l-4.98-3.684L221.263,116.3z M222.082,115.193l3.684-4.982l4.982,3.684
			l-3.686,4.982L222.082,115.193z M226.583,109.104l3.684-4.981l4.982,3.684l-3.684,4.981L226.583,109.104z M236.357,108.625
			l4.98,3.684l-3.682,4.981l-4.982-3.684L236.357,108.625z M237.175,107.518l3.684-4.981l4.982,3.684l-3.684,4.982L237.175,107.518z
			 M241.677,101.429l3.684-4.982l4.982,3.685l-3.684,4.981L241.677,101.429z M246.179,95.34l3.684-4.982l4.982,3.685l-3.684,4.981
			L246.179,95.34z M250.683,89.25l3.684-4.981l4.982,3.684l-3.686,4.982L250.683,89.25z M255.185,83.161l3.684-4.982l4.982,3.685
			l-3.684,4.981L255.185,83.161z M259.687,77.071l3.684-4.981l4.982,3.685l-3.684,4.981L259.687,77.071z M264.189,70.983
			l3.684-4.982l4.984,3.684l-3.686,4.982L264.189,70.983z M267.585,64.075l-4.982-3.684l3.684-4.981l4.982,3.683L267.585,64.075z
			 M261.496,59.573l-4.98-3.684l3.684-4.982l4.98,3.684L261.496,59.573z M255.408,55.07l-4.982-3.684l3.684-4.981l4.982,3.684
			L255.408,55.07z M249.318,50.568l-4.98-3.685l3.684-4.981l4.98,3.685L249.318,50.568z M243.23,46.065l-4.982-3.684l3.684-4.982
			l4.982,3.685L243.23,46.065z M242.41,47.173l-3.684,4.982l-4.982-3.685l3.686-4.981L242.41,47.173z M232.638,47.652l-4.982-3.685
			l3.684-4.981l4.982,3.684L232.638,47.652z M231.818,48.759l-3.684,4.982l-4.98-3.684l3.684-4.982L231.818,48.759z M222.046,49.238
			l-4.982-3.684l3.684-4.981l4.982,3.684L222.046,49.238z M221.228,50.346l-3.686,4.982l-4.98-3.685l3.684-4.982L221.228,50.346z
			 M211.455,50.825l-4.982-3.684l3.684-4.982l4.982,3.684L211.455,50.825z M210.636,51.933l-3.684,4.981l-4.982-3.684l3.684-4.981
			L210.636,51.933z M206.132,58.021l-3.684,4.981l-4.98-3.684l3.684-4.982L206.132,58.021z M201.63,64.11l-3.684,4.982l-4.982-3.684
			l3.684-4.982L201.63,64.11z M197.128,70.2l-3.684,4.981l-4.982-3.684l3.684-4.981L197.128,70.2z M192.626,76.289l-3.684,4.98
			l-4.982-3.684l3.684-4.981L192.626,76.289z M188.125,82.377l-3.686,4.983l-4.982-3.685l3.686-4.982L188.125,82.377z
			 M183.621,88.467l-3.684,4.981l-4.982-3.684l3.684-4.981L183.621,88.467z M180.226,95.374l4.982,3.684l-3.684,4.982l-4.982-3.684
			L180.226,95.374z M181.812,105.966l4.982,3.684l-3.684,4.982l-4.982-3.684L181.812,105.966z M182.291,115.739l-3.684,4.981
			l-4.98-3.683l3.684-4.982L182.291,115.739z M183.398,116.558l4.982,3.684l-3.684,4.982l-4.982-3.684L183.398,116.558z
			 M189.488,121.061l4.982,3.684l-3.684,4.981l-4.982-3.684L189.488,121.061z M195.578,125.563l4.982,3.684l-3.686,4.981
			l-4.98-3.684L195.578,125.563z M201.666,130.065l4.982,3.684l-3.684,4.981l-4.982-3.684L201.666,130.065z M207.755,134.567
			l4.982,3.684l-3.684,4.982l-4.982-3.684L207.755,134.567z M208.574,133.46l3.684-4.981l4.982,3.684l-3.684,4.981L208.574,133.46z
			 M213.076,127.371l3.686-4.982l4.98,3.684l-3.684,4.982L213.076,127.371z M222.849,126.892l4.982,3.684l-3.684,4.982l-4.982-3.684
			L222.849,126.892z M223.667,125.784l3.684-4.981l4.982,3.685l-3.684,4.98L223.667,125.784z M228.169,119.695l3.686-4.982
			l4.982,3.685l-3.686,4.982L228.169,119.695z M237.943,119.216l4.982,3.684l-3.684,4.982l-4.982-3.684L237.943,119.216z
			 M238.763,118.108l3.682-4.98l4.982,3.684l-3.684,4.98L238.763,118.108z M243.265,112.021l3.684-4.982l4.98,3.685l-3.684,4.981
			L243.265,112.021z M247.767,105.932l3.684-4.981l4.98,3.684l-3.684,4.981L247.767,105.932z M252.269,99.843l3.684-4.982
			l4.982,3.684l-3.684,4.982L252.269,99.843z M256.771,93.753l3.686-4.982l4.98,3.684l-3.684,4.982L256.771,93.753z M261.275,87.664
			l3.684-4.982l4.98,3.684l-3.684,4.982L261.275,87.664z M265.777,81.575l3.684-4.982l4.982,3.684l-3.684,4.981L265.777,81.575z
			 M270.279,75.485l3.684-4.981l4.982,3.683l-3.684,4.982L270.279,75.485z M273.675,68.577l-4.982-3.684l3.684-4.981l4.982,3.685
			L273.675,68.577z M273.195,58.805l3.684-4.981l4.982,3.685l-3.684,4.981L273.195,58.805z M272.087,57.986l-4.982-3.684
			l3.684-4.981l4.982,3.684L272.087,57.986z M265.998,53.483l-4.98-3.684l3.684-4.98l4.98,3.684L265.998,53.483z M259.91,48.981
			l-4.982-3.684l3.684-4.981L263.593,44L259.91,48.981z M253.822,44.479l-4.982-3.684l3.684-4.982l4.98,3.685L253.822,44.479z
			 M247.732,39.977l-4.982-3.684l3.684-4.981l4.982,3.684L247.732,39.977z M241.642,35.474l-4.982-3.684l3.684-4.981l4.982,3.685
			L241.642,35.474z M240.824,36.581l-3.684,4.982l-4.982-3.685l3.684-4.981L240.824,36.581z M231.05,37.061l-4.982-3.684
			l3.686-4.982l4.98,3.685L231.05,37.061z M230.232,38.168l-3.684,4.981l-4.982-3.684l3.684-4.982L230.232,38.168z M220.458,38.647
			l-4.98-3.684l3.684-4.982l4.98,3.684L220.458,38.647z M219.64,39.755l-3.684,4.98l-4.982-3.684l3.684-4.981L219.64,39.755z
			 M209.867,40.233l-4.98-3.684l3.684-4.981l4.98,3.684L209.867,40.233z M209.048,41.341l-3.684,4.982l-4.98-3.684l3.684-4.982
			L209.048,41.341z M204.546,47.431l-3.684,4.98l-4.982-3.684l3.684-4.98L204.546,47.431z M200.044,53.519l-3.684,4.982
			l-4.982-3.684l3.684-4.982L200.044,53.519z M195.541,59.608l-3.684,4.982l-4.98-3.684l3.684-4.982L195.541,59.608z
			 M191.039,65.697l-3.684,4.981l-4.98-3.684l3.684-4.98L191.039,65.697z M186.537,71.786l-3.684,4.981l-4.98-3.684l3.682-4.981
			L186.537,71.786z M182.035,77.874l-3.686,4.983l-4.98-3.684l3.686-4.983L182.035,77.874z M177.531,83.964l-3.684,4.981
			l-4.98-3.683l3.684-4.981L177.531,83.964z M174.136,90.872l4.982,3.684l-3.684,4.981l-4.982-3.684L174.136,90.872z
			 M175.724,101.464l4.982,3.684l-3.686,4.982l-4.982-3.684L175.724,101.464z M176.203,111.237l-3.684,4.981l-4.982-3.685
			l3.684-4.981L176.203,111.237z M172.808,118.145l4.98,3.684l-3.684,4.982l-4.98-3.684L172.808,118.145z M178.896,122.646
			l4.982,3.685l-3.684,4.981l-4.982-3.684L178.896,122.646z M184.986,127.149l4.982,3.684l-3.686,4.982l-4.98-3.684L184.986,127.149
			z M191.076,131.651l4.98,3.684l-3.684,4.982l-4.982-3.684L191.076,131.651z M197.164,136.154l4.982,3.684l-3.686,4.982
			l-4.98-3.684L197.164,136.154z M203.253,140.656l4.98,3.685l-3.684,4.982l-4.982-3.684L203.253,140.656z M209.341,145.159
			l4.982,3.683l-3.684,4.982l-4.982-3.684L209.341,145.159z M210.16,144.052l3.686-4.982l4.98,3.685l-3.684,4.981L210.16,144.052z
			 M214.664,137.963l3.684-4.982l4.982,3.685l-3.684,4.981L214.664,137.963z M224.435,137.483l4.982,3.684l-3.684,4.982
			l-4.982-3.685L224.435,137.483z M225.255,136.376l3.684-4.982l4.982,3.684l-3.686,4.982L225.255,136.376z M229.757,130.286
			l3.684-4.98l4.982,3.684l-3.684,4.981L229.757,130.286z M239.529,129.808l4.982,3.684l-3.684,4.981l-4.98-3.684L239.529,129.808z
			 M240.349,128.7l3.684-4.982l4.982,3.685l-3.686,4.982L240.349,128.7z M244.851,122.611l3.684-4.981l4.982,3.684l-3.684,4.981
			L244.851,122.611z M249.353,116.522l3.684-4.981l4.982,3.684l-3.684,4.981L249.353,116.522z M253.855,110.434l3.684-4.981
			l4.982,3.684l-3.684,4.982L253.855,110.434z M258.357,104.345l3.686-4.982l4.98,3.684l-3.684,4.982L258.357,104.345z
			 M262.861,98.255l3.684-4.981l4.982,3.684l-3.684,4.982L262.861,98.255z M267.363,92.166l3.684-4.982l4.982,3.685l-3.684,4.982
			L267.363,92.166z M271.865,86.077l3.684-4.982l4.982,3.684l-3.684,4.982L271.865,86.077z M276.369,79.987l3.684-4.981l4.982,3.684
			l-3.686,4.982L276.369,79.987z M279.763,73.08l-4.98-3.684l3.684-4.981l4.98,3.684L279.763,73.08z M281.38,47.733l4.982,3.684
			l-3.684,4.983l-4.982-3.685L281.38,47.733z M275.292,43.231l4.98,3.684l-3.684,4.982l-4.982-3.684L275.292,43.231z
			 M269.203,38.729l4.982,3.684l-3.684,4.983l-4.982-3.684L269.203,38.729z M263.115,34.227l4.982,3.684l-3.686,4.983l-4.982-3.684
			L263.115,34.227z M257.025,29.724l4.982,3.684l-3.684,4.983l-4.982-3.684L257.025,29.724z M250.937,25.222l4.98,3.684
			l-3.684,4.982l-4.982-3.684L250.937,25.222z M244.847,20.719l4.982,3.684l-3.686,4.983l-4.982-3.685L244.847,20.719z
			 M238.757,16.216l4.982,3.684l-3.684,4.983l-4.982-3.685L238.757,16.216z M234.255,22.306l4.98,3.685l-3.684,4.981l-4.98-3.684
			L234.255,22.306z M228.166,17.804l4.982,3.684l-3.684,4.981l-4.982-3.684L228.166,17.804z M223.664,23.893l4.982,3.684
			l-3.684,4.981l-4.982-3.684L223.664,23.893z M217.574,19.39l4.982,3.684l-3.684,4.982l-4.982-3.684L217.574,19.39z
			 M213.072,25.479l4.982,3.684l-3.684,4.981l-4.982-3.684L213.072,25.479z M206.982,20.977l4.982,3.684l-3.684,4.982l-4.982-3.685
			L206.982,20.977z M202.48,27.065l4.982,3.684l-3.684,4.982l-4.982-3.684L202.48,27.065z M197.978,33.154l4.982,3.685l-3.684,4.981
			l-4.982-3.684L197.978,33.154z M193.476,39.244l4.98,3.684l-3.682,4.981l-4.982-3.684L193.476,39.244z M188.974,45.333l4.98,3.684
			l-3.684,4.982l-4.982-3.685L188.974,45.333z M184.47,51.422l4.982,3.684l-3.684,4.982l-4.982-3.684L184.47,51.422z
			 M179.968,57.511l4.982,3.685l-3.684,4.981l-4.982-3.684L179.968,57.511z M175.466,63.601l4.982,3.684l-3.684,4.98l-4.982-3.684
			L175.466,63.601z M170.964,69.688l4.982,3.684l-3.686,4.983l-4.982-3.685L170.964,69.688z M166.46,75.778l4.982,3.684
			l-3.684,4.981l-4.982-3.684L166.46,75.778z M163.257,90.532l-4.982-3.684l3.684-4.982l4.982,3.685L163.257,90.532z
			 M164.365,91.352l3.684-4.981l4.98,3.683l-3.684,4.981L164.365,91.352z M169.634,96.961l4.982,3.684l-3.686,4.982l-4.982-3.684
			L169.634,96.961z M161.447,108.032l3.684-4.981l4.982,3.684l-3.684,4.981L161.447,108.032z M163.035,118.624l3.684-4.982
			l4.982,3.685l-3.684,4.982L163.035,118.624z M169.603,132.899l-4.98-3.684l3.682-4.981l4.982,3.683L169.603,132.899z
			 M175.693,137.401l-4.982-3.684l3.684-4.981l4.982,3.684L175.693,137.401z M181.781,141.904l-4.982-3.685l3.684-4.98l4.982,3.684
			L181.781,141.904z M187.871,146.407l-4.982-3.685l3.684-4.981l4.982,3.684L187.871,146.407z M193.958,150.909l-4.98-3.683
			l3.684-4.982l4.98,3.684L193.958,150.909z M200.048,155.411l-4.982-3.684l3.684-4.981l4.982,3.684L200.048,155.411z
			 M206.138,159.915l-4.982-3.684l3.684-4.982l4.982,3.684L206.138,159.915z M212.226,164.417l-4.982-3.684l3.686-4.982l4.98,3.684
			L212.226,164.417z M216.73,158.327l-4.982-3.684l3.684-4.982l4.982,3.684L216.73,158.327z M221.232,152.239l-4.982-3.686
			l3.684-4.981l4.982,3.684L221.232,152.239z M227.322,156.741l-4.982-3.684l3.684-4.982l4.982,3.684L227.322,156.741z
			 M231.824,150.651l-4.982-3.683l3.684-4.982l4.982,3.685L231.824,150.651z M236.326,144.563l-4.982-3.684l3.686-4.982l4.98,3.684
			L236.326,144.563z M242.416,149.065l-4.982-3.684l3.684-4.982l4.982,3.685L242.416,149.065z M246.917,142.976l-4.982-3.684
			l3.684-4.981l4.982,3.684L246.917,142.976z M251.419,136.887l-4.982-3.684l3.686-4.982l4.98,3.684L251.419,136.887z
			 M255.921,130.798l-4.98-3.685l3.684-4.981l4.98,3.685L255.921,130.798z M260.423,124.709l-4.98-3.684l3.684-4.981l4.98,3.684
			L260.423,124.709z M264.927,118.62l-4.982-3.684l3.684-4.982l4.982,3.685L264.927,118.62z M269.429,112.531l-4.982-3.685
			l3.684-4.981l4.982,3.684L269.429,112.531z M273.931,106.442l-4.982-3.685l3.686-4.981l4.98,3.684L273.931,106.442z
			 M278.435,100.353l-4.982-3.684l3.684-4.982l4.982,3.684L278.435,100.353z M282.937,94.263l-4.982-3.684l3.684-4.981l4.982,3.684
			L282.937,94.263z M291.123,83.192l-3.684,4.982l-4.982-3.685l3.684-4.981L291.123,83.192z M285.853,77.582l-4.982-3.684
			l3.684-4.981l4.982,3.684L285.853,77.582z"/>
		<polygon fill="#92278F" points="88.549,291.727 66.684,275.559 79.046,266.077 93.992,277.129 		"/>
		
			<rect x="101.169" y="202.562" transform="matrix(0.804 0.5946 -0.5946 0.804 163.9005 -18.7963)" fill="#92278F" width="18.588" height="73.321"/>
		<g>
			<path fill="#92278F" d="M143.195,185.858c-1.75-1.135-3.516-2.232-5.287-3.281c-0.787,2.352-1.566,4.418-2.322,6.227
				c1.83,1.045,3.535,2.057,5.123,3.039C141.589,189.883,142.421,187.887,143.195,185.858z"/>
			<path fill="#92278F" d="M144.228,155.708c-1.48,8.984-3.133,16.182-4.797,21.965c1.834,1.068,3.67,2.17,5.498,3.336
				c2.064-6.164,3.67-12.477,4.891-18.572c-0.744-3.844-1.354-7.588-1.809-11.111C146.832,152.864,145.554,154.309,144.228,155.708z
				"/>
			<path fill="#92278F" d="M157.216,196.331c-1.572-1.367-3.189-2.699-4.852-3.986c-1.662,1.287-3.279,2.619-4.85,3.986
				c1.828,1.297,3.436,2.518,4.85,3.664C153.779,198.848,155.386,197.627,157.216,196.331z"/>
			<path fill="#92278F" d="M152.365,84.622c-1.484,5.201-2.518,10.39-3.09,15.492c1.15,9.41,0.625,18.471-1.576,26.646
				c-0.588,7.047-1.275,13.429-2.033,19.195c2.436-3.57,4.467-7.441,6.041-11.584c0.049,3.217,0.26,6.951,0.658,11.027
				c0.4-4.076,0.611-7.811,0.658-11.027c1.574,4.143,3.605,8.014,6.041,11.584c-0.758-5.767-1.445-12.148-2.033-19.195
				c-2.201-8.176-2.727-17.236-1.576-26.646C154.882,95.012,153.851,89.823,152.365,84.622z"/>
			<path fill="#92278F" d="M274.021,18.318c-28.967-21.419-75.584-7.495-104.125,31.103c-6.416,8.679-11.367,17.864-14.863,27.135
				c1.219,3.398,2.268,6.822,3.117,10.261c3.219-11.424,8.785-22.968,16.729-33.712c26.508-35.846,69.244-49.188,95.459-29.805
				s25.98,64.154-0.525,100.002c-26.506,35.847-69.244,49.191-95.459,29.806c-4.324-3.197-7.912-7.096-10.797-11.521
				c0.494,4.112,1.037,8.046,1.631,11.783c1.699,1.689,3.521,3.27,5.482,4.721c8.15,6.025,17.697,9.252,27.846,9.92
				c-7.322,2.365-17.184,6.469-27.264,12.031c0.783,2.41,1.555,4.498,2.301,6.32c11.305-6.084,26.742-13.111,47.959-20.924
				c-0.002-0.004-0.002-0.01-0.004-0.016c19.305-5.389,38.668-18.665,53.287-38.437C303.333,88.39,302.988,39.736,274.021,18.318z"
				/>
			<path fill="#92278F" d="M143.74,199.793c-2.711,2.625-5.219,5.371-7.43,8.236c2.215,1.637,4.844,3.582,4.844,3.582
				c1.027-0.746,2.396-3.615,7.371-8.283C147.13,202.225,145.548,201.047,143.74,199.793z"/>
			<path fill="#92278F" d="M133.484,193.356c-2.801,5.486-4.945,7.492-5.338,8.637c0,0,2.629,1.945,4.844,3.582
				c2.025-2.859,3.861-5.953,5.533-9.197C136.916,195.374,135.246,194.368,133.484,193.356z"/>
			<path fill="#92278F" d="M161.535,185.858c0.773,2.029,1.605,4.025,2.486,5.984c1.588-0.982,3.293-1.994,5.123-3.039
				c-0.756-1.809-1.535-3.875-2.322-6.227C165.05,183.625,163.285,184.723,161.535,185.858z"/>
		</g>
	</g>
	<g>
		<g>
			
				<line fill="none" stroke="#8DC63F" stroke-width="1.3769" stroke-miterlimit="10" x1="131.195" y1="154.213" x2="33.369" y2="21.917"/>
			
				<line fill="none" stroke="#8DC63F" stroke-width="1.3769" stroke-miterlimit="10" x1="151.921" y1="93.083" x2="97.892" y2="20.014"/>
			
				<line fill="none" stroke="#8DC63F" stroke-width="1.3769" stroke-miterlimit="10" x1="125.105" y1="158.717" x2="27.28" y2="26.419"/>
			
				<line fill="none" stroke="#8DC63F" stroke-width="1.3769" stroke-miterlimit="10" x1="152.902" y1="107.147" x2="84.913" y2="15.198"/>
			
				<line fill="none" stroke="#8DC63F" stroke-width="1.3769" stroke-miterlimit="10" x1="119.017" y1="163.219" x2="21.191" y2="30.921"/>
			
				<line fill="none" stroke="#8DC63F" stroke-width="1.3769" stroke-miterlimit="10" x1="153.703" y1="120.966" x2="73.229" y2="12.135"/>
			
				<line fill="none" stroke="#8DC63F" stroke-width="1.3769" stroke-miterlimit="10" x1="110.925" y1="165.014" x2="16.944" y2="37.914"/>
			
				<line fill="none" stroke="#8DC63F" stroke-width="1.3769" stroke-miterlimit="10" x1="151.367" y1="130.544" x2="63.252" y2="11.379"/>
			
				<line fill="none" stroke="#8DC63F" stroke-width="1.3769" stroke-miterlimit="10" x1="102.38" y1="166.194" x2="14.198" y2="46.938"/>
			
				<line fill="none" stroke="#8DC63F" stroke-width="1.3769" stroke-miterlimit="10" x1="147.458" y1="137.999" x2="53.479" y2="10.899"/>
			
				<line fill="none" stroke="#8DC63F" stroke-width="1.3769" stroke-miterlimit="10" x1="92.359" y1="165.379" x2="11.997" y2="56.698"/>
			
				<line fill="none" stroke="#8DC63F" stroke-width="1.3769" stroke-miterlimit="10" x1="143.373" y1="145.209" x2="45.548" y2="12.912"/>
			
				<line fill="none" stroke="#8DC63F" stroke-width="1.3769" stroke-miterlimit="10" x1="80.173" y1="161.637" x2="10.683" y2="67.658"/>
			
				<line fill="none" stroke="#8DC63F" stroke-width="1.3769" stroke-miterlimit="10" x1="137.285" y1="149.711" x2="39.458" y2="17.414"/>
			
				<line fill="none" stroke="#8DC63F" stroke-width="1.3769" stroke-miterlimit="10" x1="65.012" y1="153.87" x2="12.644" y2="83.048"/>
			
				<line fill="none" stroke="#8DC63F" stroke-width="1.3769" stroke-miterlimit="10" x1="132.978" y1="50.58" x2="32.231" y2="125.075"/>
			
				<line fill="none" stroke="#8DC63F" stroke-width="1.3769" stroke-miterlimit="10" x1="90.206" y1="16.278" x2="11.602" y2="74.401"/>
			
				<line fill="none" stroke="#8DC63F" stroke-width="1.3769" stroke-miterlimit="10" x1="136.373" y1="57.487" x2="36.734" y2="131.164"/>
			
				<line fill="none" stroke="#8DC63F" stroke-width="1.3769" stroke-miterlimit="10" x1="97.892" y1="20.014" x2="12.644" y2="83.048"/>
			
				<line fill="none" stroke="#8DC63F" stroke-width="1.3769" stroke-miterlimit="10" x1="81.829" y1="13.055" x2="11.251" y2="65.243"/>
			
				<line fill="none" stroke="#8DC63F" stroke-width="1.3769" stroke-miterlimit="10" x1="72.205" y1="10.751" x2="11.314" y2="55.775"/>
			
				<line fill="none" stroke="#8DC63F" stroke-width="1.3769" stroke-miterlimit="10" x1="153.25" y1="120.354" x2="92.359" y2="165.379"/>
			
				<line fill="none" stroke="#8DC63F" stroke-width="1.3769" stroke-miterlimit="10" x1="152.484" y1="111.503" x2="83.291" y2="162.667"/>
			
				<line fill="none" stroke="#8DC63F" stroke-width="1.3769" stroke-miterlimit="10" x1="152.779" y1="101.866" x2="74.636" y2="159.647"/>
			
				<line fill="none" stroke="#8DC63F" stroke-width="1.3769" stroke-miterlimit="10" x1="140.875" y1="63.575" x2="42.252" y2="136.501"/>
			
				<line fill="none" stroke="#8DC63F" stroke-width="1.3769" stroke-miterlimit="10" x1="105.3" y1="23.954" x2="15.071" y2="90.672"/>
			
				<line fill="none" stroke="#8DC63F" stroke-width="1.3769" stroke-miterlimit="10" x1="144.548" y1="70.279" x2="47.493" y2="142.045"/>
			
				<line fill="none" stroke="#8DC63F" stroke-width="1.3769" stroke-miterlimit="10" x1="111.369" y1="28.884" x2="18.189" y2="97.784"/>
			
				<line fill="none" stroke="#8DC63F" stroke-width="1.3769" stroke-miterlimit="10" x1="147.39" y1="77.596" x2="53.378" y2="147.11"/>
			
				<line fill="none" stroke="#8DC63F" stroke-width="1.3769" stroke-miterlimit="10" x1="117.533" y1="33.745" x2="20.2" y2="105.716"/>
			
				<line fill="none" stroke="#8DC63F" stroke-width="1.3769" stroke-miterlimit="10" x1="149.863" y1="85.185" x2="59.818" y2="151.768"/>
			
				<line fill="none" stroke="#8DC63F" stroke-width="1.3769" stroke-miterlimit="10" x1="122.865" y1="39.22" x2="24.243" y2="112.146"/>
			
				<line fill="none" stroke="#8DC63F" stroke-width="1.3769" stroke-miterlimit="10" x1="151.921" y1="93.083" x2="66.674" y2="156.116"/>
			
				<line fill="none" stroke="#8DC63F" stroke-width="1.3769" stroke-miterlimit="10" x1="128.939" y1="44.147" x2="27.729" y2="118.986"/>
		</g>
		<g>
			<polygon fill="#92278F" points="216.181,291.727 238.046,275.559 225.683,266.077 210.738,277.129 			"/>
			
				<rect x="184.973" y="202.562" transform="matrix(-0.804 0.5946 -0.5946 -0.804 492.7048 316.05)" fill="#92278F" width="18.588" height="73.322"/>
			<path fill="#92278F" d="M83.223,165.422c-0.003,0.006-0.002,0.012-0.004,0.016c72.331,26.635,77.581,44.158,80.356,46.174
				c0,0,2.629-1.945,4.844-3.582c-15.557-20.17-45.496-34.623-62.205-40.02c10.148-0.668,19.695-3.895,27.846-9.92
				c8.15-6.027,14.033-14.209,17.646-23.718c0.264,17.558,5.309,50.417,20.033,71.203c2.215-1.637,4.846-3.582,4.846-3.582
				c-1.115-3.244-16.33-13.398-20.602-90.36c-0.004,0-0.01-0.002-0.016-0.001c0.506-20.036-6.516-42.439-21.135-62.211
				C106.292,10.823,59.675-3.101,30.709,18.318C1.742,39.736,1.396,88.39,29.936,126.985
				C44.556,146.758,63.918,160.034,83.223,165.422z M130.376,153.108c-26.215,19.385-68.952,6.041-95.458-29.806
				C8.411,87.454,8.178,42.684,34.393,23.3s68.953-6.041,95.458,29.805C156.357,88.952,156.591,133.724,130.376,153.108z"/>
		</g>
	</g>
</g>
</svg>
