<?xml version="1.0" encoding="utf-8"?>
<!-- Generator: Adobe Illustrator 16.0.0, SVG Export Plug-In . SVG Version: 6.00 Build 0)  -->
<!DOCTYPE svg PUBLIC "-//W3C//DTD SVG 1.1//EN" "http://www.w3.org/Graphics/SVG/1.1/DTD/svg11.dtd">
<svg version="1.1" id="Calque_1" xmlns="http://www.w3.org/2000/svg" xmlns:xlink="http://www.w3.org/1999/xlink" x="0px" y="0px"
	 width="299.99px" height="299.991px" viewBox="0 0 299.99 299.991" enable-background="new 0 0 299.99 299.991"
	 xml:space="preserve">
<g>
	<path fill="#FAA61A" d="M251.929,8.263v211.793c0,26.51-21.484,47.994-47.992,47.994h-48.277v18.678h49.496
		c37.551,0,67.992-30.441,67.992-67.992V8.263H251.929z"/>
	<path fill="#D11A6F" d="M165.659,287.728c0,2.211-1.789,4-4,4h-20.496c-2.211,0-4-1.789-4-4V267.23c0-2.211,1.789-4,4-4h20.496
		c2.211,0,4,1.789,4,4V287.728z"/>
	<path fill="#D11A6F" d="M283.144,156.244c0,6.625-5.371,12-11.996,12h-39.996c-6.625,0-12-5.375-12-12v-3.998
		c0-6.625,5.375-12,12-12h39.996c6.625,0,11.996,5.374,11.996,12V156.244z"/>
	<path fill="#FAA61A" d="M41.843,112.082c19.336,0,147.98,0,168.648,0c20.664,0,24.664,11.998,24.664,22.665c0,10.666,0,24,0,39.663
		s-11.672,40.66-50.328,40.66c-46.328,0-46.66-55.99-58.328-55.99c-11.328,0-13.996,55.99-56.992,55.99
		c-42.992,0-52.66-27.326-52.66-39.66s0-30.996,0-41.995S22.179,112.082,41.843,112.082z"/>
	<path fill="#FFFFFF" d="M44.843,122.748c10.336,0,155.98,0,163.98,0s14.996,4.004,14.996,15.666c0,11.663,0,23.998,0,31.328
		c0,7.332-3.984,33.996-36.996,33.996c-40.656,0-37.656-58.661-60.824-58.661c-23.164,0-21.543,58.661-58.16,58.661
		c-31.996,0-39.109-20.992-39.109-29.328c0-8.334,0-29.664,0-35.996C28.729,128.416,31.843,122.748,44.843,122.748z"/>
</g>
</svg>
