<?xml version="1.0" encoding="utf-8"?>
<!-- Generator: Adobe Illustrator 16.0.0, SVG Export Plug-In . SVG Version: 6.00 Build 0)  -->
<!DOCTYPE svg PUBLIC "-//W3C//DTD SVG 1.1//EN" "http://www.w3.org/Graphics/SVG/1.1/DTD/svg11.dtd">
<svg version="1.1" id="Calque_1" xmlns="http://www.w3.org/2000/svg" xmlns:xlink="http://www.w3.org/1999/xlink" x="0px" y="0px"
	 width="300px" height="228.378px" viewBox="0 0 300 228.378" enable-background="new 0 0 300 228.378" xml:space="preserve">
<g>
	<g>
		<path fill="#FAA61A" d="M242.225,30.739c0-12.07-9.782-21.853-21.853-21.853c-12.065,0-21.852,9.782-21.852,21.853
			c0,12.069,9.786,21.85,21.852,21.85C232.442,52.589,242.225,42.809,242.225,30.739z"/>
		<path fill="#FAA61A" d="M266.305,90.542h-40.164l-20.169-29.585c-0.559-3.458-2.126-6.782-4.792-9.447l-2.801-3.229
			c-3.859-3.854-9.074-5.492-14.106-4.936l-37.715-26.815c-0.863-0.615-1.804-1.038-2.769-1.296
			c-0.01-0.004-0.028-0.007-0.041-0.011c-0.236-0.063-0.474-0.113-0.716-0.155c-0.049-0.009-0.095-0.018-0.146-0.025
			c-0.201-0.031-0.401-0.055-0.604-0.071c-0.098-0.009-0.192-0.016-0.286-0.021c-0.156-0.008-0.31-0.011-0.459-0.011
			c-0.153,0-0.302,0.003-0.456,0.011c-0.095,0.006-0.192,0.012-0.286,0.021c-0.205,0.016-0.412,0.041-0.615,0.073
			c-0.043,0.007-0.082,0.015-0.124,0.021c-1.501,0.259-2.952,0.906-4.188,1.979l-35.239,30.583
			c-3.594,3.124-3.984,8.575-0.859,12.174c3.125,3.6,8.574,3.983,12.174,0.862l30.124-26.15l26.7,18.98l-43.923,43.922
			c-0.188,0.189-0.354,0.394-0.537,0.592c-0.006,0.008-0.016,0.016-0.02,0.023l-0.037,0.041c-0.246,0.269-0.491,0.538-0.715,0.817
			l-40.23,46.082H21.124c-7.101,0-12.856,5.756-12.856,12.857c0,7.1,5.756,12.854,12.856,12.854H89.28
			c0.168,0,0.332-0.018,0.501-0.023c0.114-0.006,0.229-0.008,0.344-0.018c4.092-0.268,7.666-2.432,9.824-5.639l35.964-41.188
			c15.794,8.268,42.627,22.324,42.627,22.324v60.627c0,7.027,5.693,12.725,12.721,12.725c7.031,0,12.725-5.697,12.725-12.725v-68.57
			c0-0.219-0.052-0.422-0.062-0.637c-0.029-0.525-0.075-1.043-0.159-1.563c-0.043-0.252-0.095-0.504-0.156-0.75
			c-0.144-0.621-0.329-1.223-0.568-1.816c-0.044-0.119-0.093-0.234-0.145-0.348c-1.108-2.586-3.024-4.846-5.705-6.258
			l-30.737-16.186l30.142-30.142l16.193,23.752c0.345,0.526,0.745,1.008,1.192,1.444c0.136,0.132,0.288,0.234,0.432,0.355
			c0.293,0.25,0.583,0.504,0.901,0.716c0.192,0.129,0.404,0.218,0.61,0.33c0.297,0.164,0.59,0.337,0.907,0.466
			c0.23,0.096,0.479,0.149,0.719,0.227c0.303,0.093,0.6,0.202,0.917,0.265c0.41,0.078,0.828,0.103,1.248,0.124
			c0.145,0.008,0.293,0.047,0.442,0.047h0.046c0.007,0,0.007,0,0.007,0h46.095c4.88,0,8.84-3.961,8.84-8.843
			C275.145,94.498,271.185,90.542,266.305,90.542z"/>
	</g>
	<path fill="#D11A6F" d="M290.338,60.011c-1.47-1.009-3.478-0.639-4.485,0.83l-18.006,26.17c2.291,0.253,4.395,1.13,6.148,2.444
		l17.172-24.96C292.173,63.028,291.802,61.021,290.338,60.011z"/>
</g>
</svg>
