<?xml version="1.0" encoding="utf-8"?>
<!-- Generator: Adobe Illustrator 16.0.0, SVG Export Plug-In . SVG Version: 6.00 Build 0)  -->
<!DOCTYPE svg PUBLIC "-//W3C//DTD SVG 1.1//EN" "http://www.w3.org/Graphics/SVG/1.1/DTD/svg11.dtd">
<svg version="1.1" id="Calque_1" xmlns="http://www.w3.org/2000/svg" xmlns:xlink="http://www.w3.org/1999/xlink" x="0px" y="0px"
	 width="300px" height="240.879px" viewBox="0 0 300 240.879" enable-background="new 0 0 300 240.879" xml:space="preserve">
<g>
	<path fill="#00AEEF" d="M256.77,31.802c0-12.819-10.395-23.21-23.211-23.21c-12.819,0-23.212,10.391-23.212,23.21
		c0,12.819,10.393,23.209,23.212,23.209C246.375,55.012,256.77,44.622,256.77,31.802z"/>
	<path fill="#00AEEF" d="M282.342,95.321h-42.661l-21.419-31.423c-0.594-3.672-2.258-7.202-5.09-10.033l-2.978-3.43
		c-4.094-4.093-9.642-5.834-14.98-5.244l-40.062-28.482c-0.916-0.652-1.915-1.101-2.941-1.375c-0.014-0.004-0.027-0.007-0.04-0.011
		c-0.253-0.066-0.507-0.121-0.762-0.165c-0.052-0.009-0.103-0.019-0.155-0.027c-0.213-0.033-0.427-0.058-0.642-0.076
		c-0.103-0.009-0.205-0.016-0.308-0.021c-0.161-0.008-0.322-0.012-0.484-0.012c-0.16,0-0.32,0.004-0.482,0.012
		c-0.102,0.006-0.202,0.014-0.305,0.022c-0.219,0.019-0.437,0.044-0.653,0.078c-0.044,0.008-0.088,0.016-0.133,0.023
		c-1.594,0.274-3.136,0.963-4.446,2.101l-37.43,32.486c-3.822,3.317-4.232,9.106-0.914,12.929c3.317,3.824,9.107,4.232,12.931,0.915
		l32-27.773l28.354,20.159l-46.648,46.651c-0.204,0.204-0.381,0.42-0.571,0.629c-0.009,0.009-0.016,0.016-0.023,0.025l-0.039,0.043
		c-0.258,0.287-0.52,0.572-0.758,0.868l-42.733,48.948H21.924c-7.543,0-13.656,6.113-13.656,13.654
		c0,7.543,6.113,13.656,13.656,13.656h72.391c0.179,0,0.354-0.02,0.533-0.027c0.121-0.006,0.243-0.01,0.364-0.018
		c4.347-0.283,8.141-2.584,10.436-5.99l38.195-43.748c16.782,8.781,45.28,23.713,45.28,23.713v64.396
		c0,7.463,6.049,13.514,13.514,13.514c7.467,0,13.515-6.051,13.515-13.514v-72.834c0-0.232-0.058-0.447-0.067-0.676
		c-0.027-0.561-0.077-1.109-0.17-1.658c-0.045-0.27-0.1-0.535-0.164-0.799c-0.152-0.66-0.351-1.299-0.603-1.928
		c-0.048-0.127-0.099-0.25-0.154-0.373c-1.177-2.746-3.213-5.145-6.06-6.646l-32.648-17.189l32.014-32.016l17.199,25.23
		c0.371,0.557,0.794,1.069,1.271,1.532c0.139,0.142,0.303,0.249,0.454,0.378c0.312,0.267,0.616,0.535,0.958,0.76
		c0.208,0.136,0.43,0.232,0.647,0.351c0.316,0.175,0.628,0.357,0.964,0.495c0.248,0.102,0.513,0.16,0.765,0.24
		c0.322,0.099,0.638,0.215,0.974,0.28c0.438,0.084,0.881,0.11,1.326,0.133c0.155,0.009,0.311,0.048,0.471,0.048h0.047
		c0.008,0,0.01,0,0.017,0h48.95c5.187,0,9.391-4.205,9.391-9.391C291.732,99.526,287.528,95.321,282.342,95.321z"/>
</g>
</svg>
