<?xml version="1.0" encoding="utf-8"?>
<!-- Generator: Adobe Illustrator 16.0.0, SVG Export Plug-In . SVG Version: 6.00 Build 0)  -->
<!DOCTYPE svg PUBLIC "-//W3C//DTD SVG 1.1//EN" "http://www.w3.org/Graphics/SVG/1.1/DTD/svg11.dtd">
<svg version="1.1" id="Calque_1" xmlns="http://www.w3.org/2000/svg" xmlns:xlink="http://www.w3.org/1999/xlink" x="0px" y="0px"
	 width="300px" height="250px" viewBox="0 0 300 250" enable-background="new 0 0 300 250" xml:space="preserve">
<g>
	<circle fill="#FAA61A" cx="177.313" cy="25.787" r="20.682"/>
	<path fill="#D11A6F" d="M65.478,130.473c-31.595,0-57.21,25.615-57.21,57.211c0,31.598,25.615,57.211,57.21,57.211
		c31.599,0,57.212-25.613,57.212-57.211C122.689,156.088,97.076,130.473,65.478,130.473z M65.478,234.283
		c-25.737,0-46.597-20.863-46.597-46.6c0-25.734,20.859-46.598,46.597-46.598s46.601,20.863,46.601,46.598
		C112.078,213.42,91.215,234.283,65.478,234.283z"/>
	<path fill="#D11A6F" d="M234.521,130.473c-31.597,0-57.209,25.615-57.209,57.211c0,31.598,25.612,57.211,57.209,57.211
		c31.598,0,57.211-25.613,57.211-57.211C291.732,156.088,266.119,130.473,234.521,130.473z M234.521,234.283
		c-25.734,0-46.598-20.863-46.598-46.6c0-25.734,20.863-46.598,46.598-46.598c25.732,0,46.6,20.863,46.6,46.598
		C281.121,213.42,260.254,234.283,234.521,234.283z"/>
	<path fill="#FAA61A" d="M220.778,82.381h-38.011l-19.084-27.998c-0.529-3.271-2.012-6.417-4.535-8.939l-2.653-3.056
		c-6.376-6.376-16.714-6.374-23.091,0l-46.498,46.5c-6.373,6.374-6.632,19.513-0.305,24.156
		c6.326,4.643,51.119,28.631,51.119,28.631v50.701c0,6.65,5.389,12.041,12.04,12.041c6.653,0,12.042-5.391,12.042-12.041v-64.895
		c0-0.205-0.051-0.398-0.061-0.602c-0.023-0.498-0.068-0.988-0.15-1.479c-0.041-0.24-0.09-0.476-0.146-0.71
		c-0.136-0.588-0.313-1.157-0.537-1.719c-0.043-0.113-0.088-0.222-0.137-0.331c-1.049-2.447-2.863-4.584-5.4-5.922l-29.09-15.316
		l28.525-28.526l15.324,22.48c0.331,0.496,0.707,0.952,1.133,1.364c0.123,0.126,0.27,0.222,0.404,0.337
		c0.277,0.237,0.549,0.477,0.854,0.678c0.186,0.121,0.383,0.207,0.578,0.313c0.281,0.156,0.559,0.318,0.857,0.441
		c0.222,0.091,0.457,0.142,0.682,0.214c0.286,0.088,0.568,0.191,0.867,0.25c0.39,0.075,0.785,0.098,1.182,0.118
		c0.139,0.008,0.277,0.043,0.42,0.043h0.041c0.008,0,0.01,0,0.016,0h43.614c4.622,0,8.367-3.747,8.367-8.367
		S225.4,82.381,220.778,82.381z"/>
</g>
</svg>
