<?xml version="1.0" encoding="utf-8"?>
<!-- Generator: Adobe Illustrator 16.0.0, SVG Export Plug-In . SVG Version: 6.00 Build 0)  -->
<!DOCTYPE svg PUBLIC "-//W3C//DTD SVG 1.1//EN" "http://www.w3.org/Graphics/SVG/1.1/DTD/svg11.dtd">
<svg version="1.1" id="Calque_1" xmlns="http://www.w3.org/2000/svg" xmlns:xlink="http://www.w3.org/1999/xlink" x="0px" y="0px"
	 width="169.5px" height="299.99px" viewBox="64.495 -3.5 169.5 299.99" enable-background="new 64.495 -3.5 169.5 299.99"
	 xml:space="preserve">
<g>
	<path fill="#BBBDBF" d="M87.949,201.436c26.059,7.505,52.168,17.455,122.992,1.203c1.605-0.401,10.535,19.161,8.227,27.087
		c-15.148,5.718-28.09,17.656-54.373,56.981c-3.477,1.605-24.475,2.408-28.893,0c-25.883-40.128-47.551-50.562-53.57-55.577
		C79.523,224.308,85.066,200.605,87.949,201.436z"/>
	<path fill="#231F20" d="M211.806,85.52c-2.41-15.957-15.373-69.594-25.207-79.172c-2.744-2.677-4.77-1.689-3.346,0.935
		c1.404,2.59,18.709,35.247,21.133,76.262c-16.729-1.599-36.959,10.556-51.16,24.513c-1.379-1.728-3.58-2.862-6.084-2.862
		c-2.355,0-4.43,1.01-5.816,2.564C128.25,94.511,114.09,84.504,94.683,83.934c2.34-41.2,19.744-74.056,21.156-76.651
		c1.422-2.624-0.604-3.611-3.346-0.935c-9.646,9.393-22.297,61.151-25.053,78.19c-17.475,5.587-8.229,48.025-6.781,57.574
		c40.213-2.226,54.443-15.399,60.168-26.152c1.352,1.894,3.672,3.147,6.314,3.147c2.85,0,5.301-1.47,6.59-3.617
		c6.436,10.433,19.947,24.265,62.561,26.622C217.773,132.344,229.72,94.687,211.806,85.52z"/>
</g>
</svg>
