<?xml version="1.0" encoding="utf-8"?>
<!-- Generator: Adobe Illustrator 16.0.0, SVG Export Plug-In . SVG Version: 6.00 Build 0)  -->
<!DOCTYPE svg PUBLIC "-//W3C//DTD SVG 1.1//EN" "http://www.w3.org/Graphics/SVG/1.1/DTD/svg11.dtd">
<svg version="1.1" id="Calque_1" xmlns="http://www.w3.org/2000/svg" xmlns:xlink="http://www.w3.org/1999/xlink" x="0px" y="0px"
	 width="299.99px" height="299.992px" viewBox="0 0 299.99 299.992" enable-background="new 0 0 299.99 299.992"
	 xml:space="preserve">
<g>
	<path fill="#00ADEE" d="M251.928,8.264v211.794c0,26.508-21.484,47.994-47.992,47.994h-48.277v18.676h49.496
		c37.551,0,67.992-30.441,67.992-67.99V8.264H251.928z"/>
	<path fill="#FAAF40" d="M165.659,287.728c0,2.211-1.789,4-4,4h-20.496c-2.211,0-4-1.789-4-4v-20.496c0-2.211,1.789-4,4-4h20.496
		c2.211,0,4,1.789,4,4V287.728z"/>
	<path fill="#FAAF40" d="M283.143,156.246c0,6.623-5.371,11.998-11.996,11.998h-39.996c-6.625,0-12-5.375-12-11.998v-4
		c0-6.625,5.375-11.998,12-11.998h39.996c6.625,0,11.996,5.373,11.996,11.998V156.246z"/>
	<path fill="#00ADEE" d="M41.843,112.083c19.336,0,147.98,0,168.648,0c20.664,0,24.664,11.999,24.664,22.665s0,24.002,0,39.664
		s-11.672,40.658-50.328,40.658c-46.328,0-46.66-55.988-58.328-55.988c-11.328,0-13.996,55.988-56.992,55.988
		c-42.992,0-52.66-27.324-52.66-39.658c0-12.336,0-30.996,0-41.996C16.846,122.417,22.178,112.083,41.843,112.083z"/>
	<path fill="#FFFFFF" d="M44.843,122.75c10.336,0,155.98,0,163.98,0s14.996,4.004,14.996,15.666s0,23.996,0,31.328
		c0,7.33-3.984,33.996-36.996,33.996c-40.656,0-37.656-58.662-60.824-58.662c-23.164,0-21.543,58.662-58.16,58.662
		c-31.996,0-39.109-20.994-39.109-29.328c0-8.336,0-29.664,0-35.996C28.729,128.417,31.843,122.75,44.843,122.75z"/>
</g>
</svg>
