<?xml version="1.0" encoding="utf-8"?>
<!-- Generator: Adobe Illustrator 16.0.0, SVG Export Plug-In . SVG Version: 6.00 Build 0)  -->
<!DOCTYPE svg PUBLIC "-//W3C//DTD SVG 1.1//EN" "http://www.w3.org/Graphics/SVG/1.1/DTD/svg11.dtd">
<svg version="1.1" id="Calque_1" xmlns="http://www.w3.org/2000/svg" xmlns:xlink="http://www.w3.org/1999/xlink" x="0px" y="0px"
	 width="299.99px" height="256px" viewBox="0 20.496 299.99 256" enable-background="new 0 20.496 299.99 256" xml:space="preserve"
	>
<g>
	<path fill="#F9A51A" d="M83.302,188.592c61.007,0,46.001,20.227,66.228,20.227c20.881,0,8.157-21.857,61.661-20.227
		c53.505,1.631,88.741,9.461,64.925,38.822c-23.817,29.363-54.627,39.805-74.782,39.805c-36.471,0-29.944-35.236-52.13-35.236
		c-20.228,0-13.049,35.236-55.136,35.236c-29.689,0-63.293-30.996-70.797-40.783C15.767,216.649,1.087,188.592,83.302,188.592z"/>
	<path fill="#FFFFFF" d="M93.741,202.293c18.583,0.705,38.821,2.611,38.496,19.902s-16.966,33.928-32.951,33.604
		c-15.984-0.326-41.757-14.682-41.432-35.236C58.178,200.01,82.418,201.866,93.741,202.293z"/>
	<path fill="#FFFFFF" d="M206.949,202.055c17.944-0.381,33.931,2.197,34.583,16.877c0.651,14.682-15.802,36.875-40.199,36.871
		c-24.398-0.004-34.513-22.514-34.186-33.607C167.473,211.102,172.039,202.795,206.949,202.055z"/>
	<path fill="#FFFFFF" d="M26.207,222.032c0,1.172,0.95,2.121,2.12,2.121l0,0c1.172,0,2.122-0.949,2.122-2.121v-17.855
		c0-1.172-0.95-2.121-2.122-2.121l0,0c-1.17,0-2.12,0.949-2.12,2.121V222.032z"/>
	<path fill="#FFFFFF" d="M269.916,222.032c0,1.172,0.95,2.121,2.12,2.121l0,0c1.172,0,2.121-0.949,2.121-2.121v-17.855
		c0-1.172-0.949-2.121-2.121-2.121l0,0c-1.17,0-2.12,0.949-2.12,2.121V222.032z"/>
	<path fill="#D01A6F" d="M26.207,171.954c-7.83,6.523-17.944,16.311-17.944,30.014s10.441,18.271,16.313,17.945
		c5.873-0.328,5.267-13.941-0.905-12.508c-6.173,1.434-5.987-2.068-6.456-5.385c-0.469-3.314,3.446-18.715,8.992-22.305
		C26.534,173.19,26.207,171.954,26.207,171.954z"/>
	<path fill="#D01A6F" d="M273.783,171.954c7.83,6.523,17.944,16.311,17.944,30.014s-10.441,18.271-16.313,17.945
		c-5.873-0.328-5.267-13.941,0.905-12.508c6.173,1.434,5.987-2.068,6.456-5.385c0.468-3.314-3.072-19.447-8.618-23.037
		C273.831,172.456,273.783,171.954,273.783,171.954z"/>
	<path fill="#F9A51A" d="M150.455,142.329c63.418,0,116.295,10.828,131.38,53.762c0.01-0.699,0.05-1.379,0.05-2.084
		c0-80.794-19.753-164.234-131.43-164.234c-92.936,0-131.43,83.44-131.43,164.234c0,0.033,0.004,0.07,0.004,0.105
		C35.037,152.192,88.019,142.329,150.455,142.329z"/>
</g>
</svg>
