<?xml version="1.0" encoding="utf-8"?>
<!-- Generator: Adobe Illustrator 16.0.0, SVG Export Plug-In . SVG Version: 6.00 Build 0)  -->
<!DOCTYPE svg PUBLIC "-//W3C//DTD SVG 1.1//EN" "http://www.w3.org/Graphics/SVG/1.1/DTD/svg11.dtd">
<svg version="1.1" id="Calque_1" xmlns="http://www.w3.org/2000/svg" xmlns:xlink="http://www.w3.org/1999/xlink" x="0px" y="0px"
	 width="306.757px" height="299.991px" viewBox="0 0 306.757 299.991" enable-background="new 0 0 306.757 299.991"
	 xml:space="preserve">
<g>
	<g>
		<path fill="#007DBA" d="M295.614,68.066l-1.107-0.818l-3.139,4.245l-4.981-3.685l3.683-4.98l4.015,2.968l0.818-1.107l-4.014-2.968
			l3.411-4.614l-1.107-0.818l-3.411,4.614l-4.981-3.684l3.686-4.983l5.535,4.093l0.818-1.107l-5.535-4.093l2.796-3.781l-1.107-0.818
			l-2.796,3.781l-4.982-3.685l6.139-8.303l-1.107-0.818l-6.139,8.303l-4.981-3.684l7.981-10.794l-1.107-0.818l-7.98,10.794
			l-4.982-3.684l7.98-10.794l-1.107-0.818l-7.98,10.793l-4.981-3.684l7.981-10.793l-1.107-0.818l-7.98,10.793l-4.982-3.685
			l7.98-10.793l-1.107-0.818l-7.98,10.793l-4.982-3.684l7.98-10.793l-1.107-0.818l-7.98,10.793l-4.982-3.685l6.141-8.303
			l-1.107-0.818l-6.14,8.303l-4.981-3.685l2.455-3.32l-1.107-0.818l-2.455,3.32l-5.535-4.093l-0.818,1.107l5.535,4.093l-3.686,4.982
			l-4.98-3.684l3.07-4.152l-1.107-0.818l-3.07,4.152l-4.566-3.377l-0.818,1.107l4.566,3.377l-3.684,4.98l-4.982-3.684l1.979-2.675
			l-1.107-0.818l-1.979,2.675l-2.352-1.739l-0.818,1.107l2.352,1.739l-3.684,4.982l-5.536-4.094l-0.409,0.554l-0.554-0.409
			l-4.093,5.535l-2.353-1.739l-0.818,1.107l2.353,1.739l-1.723,2.329c0.354,0.295,0.703,0.594,1.047,0.9l1.783-2.411l4.98,3.684
			l-2.41,3.261c0.302,0.366,0.602,0.735,0.891,1.112l2.627-3.554l4.982,3.684l-3.684,4.981l-1.001-0.74
			c0.528,0.912,1.019,1.849,1.478,2.805l4.793,3.545l-2.287,3.094c0.16,0.568,0.303,1.145,0.438,1.725l2.957-4l4.982,3.685
			l-3.684,4.982l-3.881-2.87c0.12,0.643,0.225,1.291,0.314,1.945l2.748,2.031l-2.35,3.178c0.01,0.798-0.011,1.591-0.048,2.381
			l3.505-4.739l4.98,3.684l-3.684,4.981l-4.824-3.567c-0.029,0.544-0.066,1.087-0.118,1.626l4.124,3.049l-3.684,4.982l-1.684-1.244
			c-0.129,0.473-0.265,0.942-0.41,1.408l1.275,0.943l-3.556,4.807c-2.216,4.55-5.249,8.653-8.942,12.095l-0.19,0.257l-0.052-0.039
			c-0.346,0.317-0.691,0.635-1.047,0.939l0.279,0.207l-3.684,4.982l-1.859-1.375c-0.426,0.26-0.852,0.518-1.286,0.762l2.327,1.721
			l-3.684,4.981l-4.982-3.684l0.15-0.202c-0.742,0.266-1.494,0.512-2.258,0.737l-3.502,4.735l-4.373-3.233
			c-0.931,0.085-1.857,0.145-2.777,0.167l-3.441,4.653l-4.982-3.684l1.076-1.455c-0.509-0.08-1.016-0.165-1.519-0.264l-0.665,0.899
			l-2.092-1.546c-0.813-0.22-1.619-0.458-2.414-0.727c0.031,0.24,0.064,0.48,0.09,0.721l3.598,2.659l-3.1,4.191
			c0.035,0.992,0.045,1.981,0.047,2.97l4.639,3.431l-3.684,4.982l-0.582-0.43c0.072,1.086,0.146,2.162,0.225,3.23l0.646-0.875
			l4.982,3.684l-3.684,4.982l-1.416-1.047c0.053,0.616,0.108,1.223,0.163,1.832l0.435,0.321l-0.363,0.489
			c0.064,0.689,0.127,1.378,0.191,2.059l1.279-1.729l4.98,3.683l-5.283,7.145c0.08,0.669,0.164,1.326,0.246,1.985l6.145-8.311
			l4.982,3.684l-7.982,10.794l1.107,0.818l7.982-10.794l4.981,3.685l-7.981,10.793l1.107,0.818l7.98-10.793l4.982,3.684
			l-7.98,10.793l1.107,0.818l7.98-10.792l4.981,3.683l-7.981,10.793l1.107,0.818l7.98-10.793l4.982,3.684l-5.979,8.086l1.107,0.818
			l5.979-8.086l4.982,3.686l-3.523,4.764l1.107,0.818l3.523-4.764l5.535,4.094l0.409-0.555l0.554,0.41l4.094-5.537l4.012,2.969
			l0.818-1.107l-4.012-2.967l3.684-4.982l4.982,3.684l-2.5,3.379l1.107,0.818l2.5-3.379l2.075,1.535l0.818-1.107l-2.075-1.535
			l3.684-4.982l5.535,4.094l0.818-1.107l-5.535-4.093l3.684-4.981l4.982,3.684l-2.432,3.289l1.107,0.818l2.432-3.289l1.799,1.33
			l0.818-1.107l-1.799-1.33l3.684-4.982l3.736,2.763l0.818-1.107l-3.736-2.763l3.684-4.98l5.12,3.785l0.818-1.107l-5.12-3.785
			l3.686-4.982l5.857,4.331l0.818-1.107l-5.857-4.331l3.683-4.981l6.874,5.083l0.818-1.107l-6.873-5.082l3.684-4.982l6.873,5.083
			l0.818-1.107l-6.873-5.083l3.684-4.981l6.874,5.083l0.818-1.107l-6.874-5.083l3.684-4.981l5.858,4.331l0.818-1.107l-5.857-4.331
			l3.685-4.982l5.396,3.991l0.818-1.107l-5.396-3.991l3.684-4.982l2.906,2.149l0.818-1.107l-2.906-2.148l3.684-4.981l1.522,1.125
			l0.818-1.107l-1.522-1.125l4.094-5.536l-0.553-0.409l0.408-0.554l-5.535-4.093l3.684-4.981l2.076,1.535l0.818-1.107l-2.076-1.535
			L295.614,68.066z M288.961,62.008l-3.683,4.981l-4.981-3.684l3.684-4.98L288.961,62.008z M226.264,34.482l4.981,3.685
			l-3.685,4.981l-4.981-3.684L226.264,34.482z M221.473,38.646l-4.982-3.684l3.684-4.982l4.982,3.684L221.473,38.646z
			 M196.59,125.562l4.982,3.684l-3.684,4.981l-4.982-3.684L196.59,125.562z M191.799,129.724l-4.982-3.684l3.685-4.981l4.981,3.684
			L191.799,129.724z M208,122.867l3.685-4.981l4.981,3.684l-3.684,4.981L208,122.867z M212.165,127.658l-3.684,4.982l-4.982-3.684
			l3.684-4.982L212.165,127.658z M212.504,116.778l3.683-4.981l4.981,3.684l-3.684,4.981L212.504,116.778z M236.602,96.925
			l3.684-4.982l4.982,3.684l-3.685,4.982L236.602,96.925z M240.764,101.716l-3.684,4.981l-4.98-3.684l3.684-4.981L240.764,101.716z
			 M241.104,90.835l3.684-4.981l4.982,3.684l-3.684,4.981L241.104,90.835z M245.607,84.747l3.685-4.981l4.98,3.684l-3.684,4.981
			L245.607,84.747z M247.417,67.248l-4.982-3.684l3.684-4.982l4.982,3.684L247.417,67.248z M252.208,63.083l4.98,3.684l-3.684,4.982
			l-4.98-3.684L252.208,63.083z M247.705,69.173l4.981,3.684l-3.684,4.981l-4.982-3.684L247.705,69.173z M250.11,78.658l3.684-4.982
			l4.981,3.684l-3.685,4.982L250.11,78.658z M254.612,72.568l3.684-4.981l4.982,3.684l-3.684,4.981L254.612,72.568z M259.114,66.479
			l3.685-4.981l4.981,3.684l-3.684,4.981L259.114,66.479z M258.007,65.661l-4.981-3.684l3.684-4.982l4.982,3.684L258.007,65.661z
			 M251.918,61.158l-4.982-3.684l3.685-4.981l4.981,3.684L251.918,61.158z M245.83,56.656l-4.981-3.684l3.684-4.982l4.981,3.684
			L245.83,56.656z M245.01,57.763l-3.684,4.981l-4.981-3.684l3.684-4.981L245.01,57.763z M241.616,64.67l4.981,3.684l-3.685,4.982
			l-4.98-3.684L241.616,64.67z M243.202,75.262l4.982,3.684l-3.684,4.981l-4.982-3.684L243.202,75.262z M243.681,85.035
			l-3.685,4.982l-4.98-3.684l3.684-4.982L243.681,85.035z M239.178,91.125l-3.684,4.981l-4.982-3.684l3.685-4.981L239.178,91.125z
			 M234.676,97.213l-3.684,4.981l-4.982-3.684l3.684-4.981L234.676,97.213z M230.174,103.302l-3.684,4.98l-4.982-3.684l3.684-4.98
			L230.174,103.302z M225.672,109.39l-3.686,4.982l-4.98-3.684l3.684-4.982L225.672,109.39z M222.276,116.298l4.982,3.685
			l-3.684,4.981l-4.982-3.684L222.276,116.298z M223.094,115.192l3.685-4.982l4.981,3.684l-3.684,4.982L223.094,115.192z
			 M227.598,109.102l3.683-4.981l4.981,3.684l-3.684,4.981L227.598,109.102z M237.37,108.624l4.982,3.684l-3.684,4.981l-4.982-3.684
			L237.37,108.624z M238.188,107.516l3.684-4.981l4.982,3.684l-3.684,4.982L238.188,107.516z M242.69,101.427l3.685-4.982
			l4.981,3.685l-3.684,4.981L242.69,101.427z M247.194,95.338l3.684-4.982l4.982,3.685l-3.685,4.981L247.194,95.338z
			 M251.696,89.249l3.684-4.981l4.982,3.684l-3.684,4.982L251.696,89.249z M256.198,83.16l3.685-4.982l4.982,3.685l-3.685,4.981
			L256.198,83.16z M260.702,77.07l3.684-4.981l4.982,3.685l-3.684,4.981L260.702,77.07z M265.204,70.982L268.887,66l4.982,3.684
			l-3.684,4.982L265.204,70.982z M268.598,64.074l-4.98-3.684l3.684-4.981l4.98,3.683L268.598,64.074z M262.51,59.572l-4.982-3.684
			l3.684-4.982l4.982,3.684L262.51,59.572z M256.42,55.069l-4.98-3.684l3.684-4.981l4.98,3.684L256.42,55.069z M250.333,50.567
			l-4.982-3.685l3.684-4.981l4.982,3.685L250.333,50.567z M244.243,46.064l-4.982-3.684l3.684-4.982l4.982,3.685L244.243,46.064z
			 M243.424,47.171l-3.684,4.982l-4.982-3.685l3.684-4.981L243.424,47.171z M233.651,47.651l-4.982-3.685l3.684-4.981l4.982,3.684
			L233.651,47.651z M233.94,49.577l4.982,3.684l-3.685,4.981l-4.981-3.684L233.94,49.577z M235.526,60.167l4.982,3.685l-3.684,4.981
			l-4.982-3.684L235.526,60.167z M237.113,70.76l4.981,3.684l-3.684,4.981l-4.981-3.684L237.113,70.76z M237.592,80.533
			l-3.684,4.982l-4.982-3.684l3.684-4.982L237.592,80.533z M233.09,86.622l-3.685,4.982l-4.981-3.684l3.684-4.982L233.09,86.622z
			 M228.586,92.711l-3.684,4.981l-4.98-3.684l3.684-4.982L228.586,92.711z M224.084,98.8l-3.684,4.98l-4.98-3.684l3.683-4.98
			L224.084,98.8z M219.583,104.888l-3.684,4.982l-4.982-3.684l3.685-4.982L219.583,104.888z M215.081,110.978l-3.684,4.981
			l-4.982-3.685l3.684-4.98L215.081,110.978z M210.579,117.066l-3.685,4.982l-4.981-3.684l3.684-4.982L210.579,117.066z
			 M206.075,123.156l-3.684,4.982l-4.982-3.684l3.686-4.982L206.075,123.156z M202.68,130.064l4.981,3.684l-3.685,4.981l-4.98-3.684
			L202.68,130.064z M208.768,134.566l4.982,3.684l-3.684,4.982l-4.982-3.684L208.768,134.566z M209.587,133.458l3.685-4.981
			l4.98,3.684l-3.684,4.981L209.587,133.458z M214.09,127.37l3.684-4.982l4.982,3.684l-3.685,4.982L214.09,127.37z M223.864,126.89
			l4.981,3.684l-3.685,4.982l-4.982-3.684L223.864,126.89z M224.682,125.783l3.683-4.981l4.982,3.685l-3.683,4.98L224.682,125.783z
			 M229.184,119.694l3.684-4.982l4.982,3.685l-3.684,4.982L229.184,119.694z M238.958,119.214l4.981,3.684l-3.685,4.982
			l-4.981-3.684L238.958,119.214z M239.776,118.107l3.684-4.98l4.981,3.684l-3.683,4.98L239.776,118.107z M244.278,112.019
			l3.684-4.982l4.982,3.685l-3.684,4.981L244.278,112.019z M248.78,105.93l3.684-4.981l4.982,3.684l-3.684,4.981L248.78,105.93z
			 M253.283,99.841l3.685-4.982l4.98,3.684l-3.684,4.982L253.283,99.841z M257.786,93.751l3.684-4.982l4.981,3.684l-3.685,4.982
			L257.786,93.751z M262.288,87.663l3.684-4.982l4.982,3.684l-3.684,4.982L262.288,87.663z M266.791,81.574l3.684-4.982l4.981,3.684
			l-3.684,4.981L266.791,81.574z M271.293,75.484l3.684-4.981l4.98,3.683l-3.684,4.982L271.293,75.484z M274.688,68.576
			l-4.982-3.684l3.684-4.981l4.982,3.685L274.688,68.576z M274.208,58.803l3.684-4.981l4.982,3.685l-3.684,4.981L274.208,58.803z
			 M273.1,57.985l-4.98-3.684l3.684-4.981l4.98,3.684L273.1,57.985z M267.012,53.482l-4.982-3.684l3.684-4.98l4.982,3.684
			L267.012,53.482z M260.922,48.98l-4.98-3.684l3.684-4.981l4.98,3.684L260.922,48.98z M254.834,44.478l-4.982-3.684l3.684-4.982
			l4.982,3.685L254.834,44.478z M248.745,39.975l-4.981-3.684l3.683-4.981l4.982,3.684L248.745,39.975z M242.656,35.472
			l-4.981-3.684l3.684-4.981l4.981,3.685L242.656,35.472z M241.836,36.58l-3.684,4.982l-4.981-3.685l3.685-4.981L241.836,36.58z
			 M232.065,37.059l-4.982-3.684l3.684-4.982l4.982,3.685L232.065,37.059z M227.85,45.074l4.982,3.684l-3.684,4.982l-4.982-3.684
			L227.85,45.074z M229.437,55.666l4.981,3.684l-3.684,4.982l-4.982-3.684L229.437,55.666z M231.024,66.257l4.982,3.684
			l-3.684,4.982l-4.982-3.684L231.024,66.257z M231.503,76.031l-3.685,4.981l-4.981-3.684l3.685-4.982L231.503,76.031z M227,82.12
			l-3.684,4.981l-4.982-3.684l3.684-4.982L227,82.12z M222.499,88.208l-3.684,4.982l-4.982-3.685l3.684-4.981L222.499,88.208z
			 M217.996,94.297l-3.683,4.981l-4.982-3.684l3.684-4.981L217.996,94.297z M213.495,100.386l-3.686,4.982l-4.982-3.684l3.686-4.983
			L213.495,100.386z M208.991,106.476l-3.684,4.98l-4.982-3.684l3.684-4.981L208.991,106.476z M204.489,112.564l-3.684,4.982
			l-4.982-3.684l3.684-4.982L204.489,112.564z M199.987,118.654l-3.685,4.981l-4.981-3.684l3.684-4.982L199.987,118.654z
			 M190.213,119.133l-4.982-3.685l3.684-4.982l4.982,3.685L190.213,119.133z M189.394,120.24l-3.684,4.982l-4.981-3.684l3.684-4.982
			L189.394,120.24z M179.622,120.719l-4.982-3.683l3.684-4.982l4.982,3.684L179.622,120.719z M178.803,121.827l-3.685,4.982
			l-4.981-3.684l3.684-4.982L178.803,121.827z M179.91,122.645l4.981,3.685l-3.684,4.981l-4.982-3.684L179.91,122.645z
			 M185.999,127.148l4.982,3.684l-3.684,4.982l-4.982-3.684L185.999,127.148z M192.088,131.65l4.982,3.684l-3.685,4.982
			l-4.981-3.684L192.088,131.65z M198.178,136.153l4.98,3.684l-3.684,4.982l-4.982-3.684L198.178,136.153z M204.266,140.655
			l4.982,3.685l-3.685,4.982l-4.981-3.684L204.266,140.655z M210.356,145.158l4.981,3.683l-3.685,4.982l-4.981-3.683
			L210.356,145.158z M211.174,144.05l3.684-4.982l4.982,3.685l-3.684,4.981L211.174,144.05z M215.676,137.961l3.684-4.982
			l4.982,3.685l-3.684,4.981L215.676,137.961z M225.45,137.482l4.982,3.684l-3.684,4.982l-4.982-3.685L225.45,137.482z
			 M226.268,136.375l3.684-4.982l4.982,3.684l-3.684,4.982L226.268,136.375z M230.771,130.285l3.683-4.98l4.982,3.684l-3.684,4.981
			L230.771,130.285z M240.543,129.806l4.982,3.684l-3.684,4.981l-4.982-3.684L240.543,129.806z M241.362,128.699l3.684-4.982
			l4.982,3.685l-3.684,4.982L241.362,128.699z M245.865,122.61l3.683-4.981l4.982,3.684l-3.684,4.981L245.865,122.61z
			 M250.367,116.521l3.684-4.981l4.981,3.684l-3.684,4.981L250.367,116.521z M254.87,110.432l3.684-4.981l4.981,3.684l-3.685,4.982
			L254.87,110.432z M259.372,104.343l3.684-4.982l4.982,3.684l-3.684,4.982L259.372,104.343z M263.874,98.253l3.684-4.981
			l4.982,3.684l-3.684,4.982L263.874,98.253z M268.376,92.165l3.685-4.982l4.981,3.685l-3.685,4.982L268.376,92.165z
			 M272.879,86.076l3.684-4.982l4.982,3.684l-3.684,4.982L272.879,86.076z M277.381,79.986l3.684-4.981l4.982,3.684l-3.684,4.982
			L277.381,79.986z M280.777,73.079l-4.981-3.684l3.684-4.981l4.98,3.684L280.777,73.079z M282.395,47.732l4.982,3.684l-3.686,4.983
			l-4.982-3.685L282.395,47.732z M276.305,43.23l4.982,3.684l-3.686,4.982l-4.98-3.684L276.305,43.23z M270.217,38.727l4.981,3.684
			l-3.685,4.983l-4.982-3.684L270.217,38.727z M264.127,34.225l4.982,3.684l-3.685,4.983l-4.981-3.684L264.127,34.225z
			 M258.04,29.722l4.981,3.684l-3.685,4.983l-4.982-3.684L258.04,29.722z M251.95,25.22l4.982,3.684l-3.686,4.982l-4.981-3.684
			L251.95,25.22z M245.86,20.717l4.982,3.684l-3.684,4.983l-4.982-3.685L245.86,20.717z M239.772,16.214l4.98,3.684l-3.684,4.983
			l-4.982-3.685L239.772,16.214z M235.268,22.304l4.982,3.685l-3.684,4.981l-4.982-3.684L235.268,22.304z M229.179,17.802
			l4.981,3.684l-3.684,4.981l-4.981-3.684L229.179,17.802z M224.676,23.891l4.982,3.684l-3.684,4.981l-4.982-3.684L224.676,23.891z
			 M218.588,19.388l4.981,3.684l-3.685,4.982l-4.98-3.684L218.588,19.388z M209.294,29.641l-4.981-3.685l3.684-4.981l4.982,3.684
			L209.294,29.641z M210.402,30.459l3.684-4.981l4.981,3.684l-3.684,4.981L210.402,30.459z M216.97,44.734l-4.981-3.684l3.684-4.981
			l4.981,3.685L216.97,44.734z M218.077,45.553l3.684-4.981l4.982,3.684l-3.684,4.981L218.077,45.553z M219.665,56.145l3.684-4.982
			l4.982,3.685l-3.685,4.981L219.665,56.145z M224.934,61.755l4.982,3.684l-3.684,4.981l-4.982-3.684L224.934,61.755z
			 M220.432,67.843l4.982,3.685l-3.684,4.981l-4.982-3.684L220.432,67.843z M215.93,73.933l4.981,3.684l-3.685,4.982l-4.981-3.684
			L215.93,73.933z M211.426,80.022l4.982,3.685l-3.684,4.981l-4.982-3.685L211.426,80.022z M206.924,86.111l4.982,3.684
			l-3.684,4.981l-4.982-3.684L206.924,86.111z M202.422,92.199l4.982,3.685l-3.685,4.982l-4.981-3.684L202.422,92.199z
			 M197.919,98.289l4.981,3.685l-3.683,4.981l-4.981-3.684L197.919,98.289z M193.417,104.377l4.981,3.685l-3.684,4.981l-4.982-3.684
			L193.417,104.377z M187.329,99.875l4.982,3.684l-3.685,4.981l-4.981-3.684L187.329,99.875z M182.827,105.964l4.98,3.684
			l-3.684,4.982l-4.981-3.684L182.827,105.964z M176.737,101.462l4.982,3.684l-3.684,4.982l-4.982-3.684L176.737,101.462z
			 M172.234,107.551l4.982,3.685l-3.684,4.981l-4.982-3.685L172.234,107.551z M162.461,108.031l3.684-4.981l4.982,3.684
			l-3.684,4.981L162.461,108.031z M164.047,118.623l3.684-4.982l4.982,3.685l-3.684,4.982L164.047,118.623z M170.616,132.898
			l-4.98-3.684l3.684-4.981l4.98,3.683L170.616,132.898z M176.706,137.4l-4.982-3.684l3.684-4.981l4.982,3.684L176.706,137.4z
			 M182.795,141.903l-4.982-3.685l3.684-4.98l4.982,3.684L182.795,141.903z M188.883,146.406l-4.981-3.685l3.684-4.981l4.981,3.684
			L188.883,146.406z M194.973,150.907l-4.982-3.683l3.684-4.982l4.982,3.684L194.973,150.907z M201.061,155.409l-4.981-3.683
			l3.685-4.981l4.98,3.684L201.061,155.409z M207.151,159.913l-4.982-3.684l3.684-4.982l4.982,3.683L207.151,159.913z
			 M213.241,164.415l-4.982-3.684l3.684-4.982l4.982,3.684L213.241,164.415z M217.743,158.325l-4.982-3.684l3.684-4.982l4.982,3.683
			L217.743,158.325z M222.245,152.237l-4.981-3.685l3.685-4.981l4.981,3.684L222.245,152.237z M228.334,156.739l-4.982-3.684
			l3.684-4.982l4.982,3.684L228.334,156.739z M232.836,150.649l-4.981-3.683l3.684-4.982l4.981,3.685L232.836,150.649z
			 M237.339,144.561l-4.981-3.684l3.684-4.982l4.982,3.684L237.339,144.561z M243.428,149.063l-4.982-3.684l3.685-4.982l4.981,3.685
			L243.428,149.063z M247.931,142.974l-4.981-3.684l3.683-4.981l4.981,3.684L247.931,142.974z M252.433,136.885l-4.981-3.684
			l3.684-4.982l4.982,3.684L252.433,136.885z M256.936,130.796l-4.982-3.685l3.684-4.981l4.982,3.685L256.936,130.796z
			 M261.438,124.708l-4.982-3.684l3.684-4.981l4.982,3.684L261.438,124.708z M265.94,118.619l-4.982-3.684l3.684-4.982l4.982,3.685
			L265.94,118.619z M270.442,112.53l-4.981-3.685l3.685-4.981l4.981,3.684L270.442,112.53z M274.946,106.441l-4.982-3.685
			l3.684-4.981l4.982,3.684L274.946,106.441z M279.448,100.351l-4.982-3.684l3.684-4.982l4.982,3.684L279.448,100.351z
			 M283.95,94.261l-4.981-3.684l3.684-4.981l4.981,3.684L283.95,94.261z M292.137,83.191l-3.685,4.982l-4.981-3.685l3.684-4.981
			L292.137,83.191z M286.866,77.581l-4.982-3.684l3.684-4.981l4.982,3.684L286.866,77.581z"/>
		<polygon fill="#FFCB05" points="89.563,291.725 67.698,275.557 80.06,266.075 95.006,277.127 		"/>
		
			<rect x="102.182" y="202.56" transform="matrix(0.804 0.5946 -0.5946 0.804 164.0819 -19.4027)" fill="#FFCB05" width="18.589" height="73.321"/>
		<path fill="#FFCB05" d="M144.209,185.856c-1.752-1.135-3.517-2.232-5.287-3.281c-0.788,2.352-1.568,4.418-2.324,6.227
			c1.83,1.045,3.536,2.057,5.123,3.039C142.604,189.881,143.436,187.885,144.209,185.856z"/>
		<path fill="#FFCB05" d="M145.241,155.706c-1.48,8.984-3.131,16.182-4.797,21.965c1.836,1.068,3.672,2.17,5.5,3.336
			c2.063-6.164,3.668-12.477,4.889-18.572c-0.742-3.844-1.352-7.588-1.809-11.111C147.846,152.862,146.568,154.307,145.241,155.706z
			"/>
		<path fill="#FFCB05" d="M158.229,196.329c-1.57-1.367-3.188-2.699-4.851-3.986c-1.662,1.287-3.28,2.619-4.851,3.986
			c1.828,1.297,3.436,2.518,4.851,3.664C154.793,198.846,156.401,197.625,158.229,196.329z"/>
		<path fill="#FFCB05" d="M156.468,100.113c-0.13-1.164-0.292-2.334-0.47-3.506c-1.65-0.833-3.236-1.776-4.754-2.819
			c-0.389,2.118-0.721,4.23-0.956,6.325c1.151,9.41,0.626,18.471-1.575,26.646c-0.59,7.047-1.275,13.429-2.034,19.195
			c2.435-3.57,4.466-7.441,6.04-11.584c0.049,3.217,0.26,6.951,0.659,11.027c0.399-4.076,0.61-7.811,0.659-11.027
			c1.574,4.143,3.605,8.014,6.04,11.584c-0.759-5.767-1.444-12.148-2.034-19.195C155.842,118.583,155.317,109.523,156.468,100.113z"
			/>
		<path fill="#FFCB05" d="M144.754,199.792c-2.713,2.625-5.221,5.371-7.431,8.236c2.214,1.637,4.843,3.582,4.843,3.582
			c1.027-0.746,2.396-3.615,7.372-8.283C148.144,202.223,146.561,201.045,144.754,199.792z"/>
		<path fill="#FFCB05" d="M134.497,193.354c-2.799,5.486-4.945,7.492-5.338,8.637c0,0,2.63,1.945,4.844,3.582
			c2.025-2.859,3.862-5.953,5.535-9.197C137.928,195.372,136.258,194.366,134.497,193.354z"/>
		<path fill="#FFCB05" d="M162.547,185.856c0.773,2.029,1.605,4.025,2.488,5.984c1.587-0.982,3.293-1.994,5.123-3.039
			c-0.756-1.809-1.536-3.875-2.324-6.227C166.064,183.624,164.299,184.721,162.547,185.856z"/>
		<path fill="#FFCB05" d="M275.035,18.317C253.43,2.341,222.01,6.037,195.59,24.956c1.869,1.13,3.643,2.403,5.307,3.812
			c23.863-16.375,51.482-19.496,70.454-5.469c26.215,19.384,25.981,64.154-0.525,100.002c-26.507,35.847-69.245,49.19-95.46,29.806
			c-4.322-3.197-7.912-7.096-10.797-11.521c0.496,4.112,1.039,8.046,1.633,11.782c1.697,1.689,3.52,3.27,5.48,4.721
			c8.15,6.025,17.697,9.252,27.848,9.92c-7.322,2.365-17.186,6.469-27.264,12.031c0.781,2.41,1.553,4.498,2.301,6.32
			c11.303-6.084,26.742-13.111,47.958-20.924c-0.003-0.004-0.001-0.01-0.004-0.016c19.304-5.389,38.667-18.664,53.286-38.437
			C304.348,88.388,304,39.735,275.035,18.317z"/>
	</g>
	<g>
		<path fill="#007DBA" d="M153.907,112.055l-0.818-1.107l-3.183,2.354l-3.685-4.981l4.982-3.684l2.158,2.919l1.107-0.818
			l-2.159-2.919l1.892-1.399l-0.818-1.107l-1.893,1.399l-3.684-4.982l4.424-3.271c-0.408-0.265-0.807-0.542-1.207-0.82l-4.035,2.984
			l-3.684-4.983l2.767-2.046c-0.335-0.32-0.659-0.653-0.982-0.985l-2.603,1.924l-3.685-4.981l2.298-1.698
			c-0.268-0.373-0.525-0.754-0.779-1.137l-2.338,1.728L134.3,79.46l2.964-2.191c-0.197-0.426-0.387-0.856-0.57-1.291l-3.213,2.376
			l-3.684-4.983l4.85-3.585c-0.284-1.162-0.521-2.345-0.705-3.547l-2.557-3.459l2.098-1.552c-0.018-0.569-0.021-1.136-0.015-1.701
			l-2.901,2.146l-3.684-4.982l7.518-5.559l-0.818-1.107l-7.519,5.559l-3.685-4.982l7.982-5.901l-0.818-1.107l-7.982,5.902
			l-3.684-4.982l6.41-4.74l-0.818-1.107l-6.41,4.741l-3.684-4.982l5.58-4.126l-0.818-1.107l-5.58,4.126l-3.686-4.981l3.92-2.898
			l-0.818-1.107l-3.92,2.898l-3.684-4.981l2.353-1.739l-0.818-1.107l-2.353,1.739l-4.093-5.535l-0.554,0.409l-0.409-0.554
			l-5.535,4.094l-3.685-4.982l2.353-1.739l-0.818-1.107l-2.353,1.739l-1.978-2.675l-1.107,0.818l1.978,2.675l-4.981,3.684
			l-3.684-4.98l4.566-3.377L82.433,12.5l-4.566,3.377l-3.07-4.152l-1.107,0.818l3.07,4.152l-4.981,3.684l-3.685-4.982l5.535-4.093
			l-0.818-1.107l-5.535,4.093l-2.456-3.32l-1.107,0.818l2.456,3.32l-4.982,3.685l-6.139-8.303l-1.107,0.818l6.14,8.303l-4.982,3.685
			l-7.98-10.793l-1.107,0.818l7.98,10.793l-4.982,3.684l-7.98-10.793l-1.107,0.818L47.9,28.615l-4.982,3.685l-7.98-10.793
			l-1.107,0.818l7.98,10.793l-4.981,3.684l-7.98-10.793l-1.107,0.818l7.98,10.794l-4.981,3.684L22.758,30.51l-1.107,0.818
			l7.981,10.794l-4.981,3.684l-6.139-8.303l-1.107,0.818l6.14,8.303l-4.983,3.685l-2.796-3.781l-1.107,0.818l2.797,3.781
			l-5.535,4.093l0.818,1.107l5.535-4.093l3.685,4.983l-4.981,3.684l-3.411-4.614l-1.107,0.818l3.411,4.614l-4.014,2.968l0.818,1.107
			l4.015-2.968l3.683,4.98l-4.981,3.685l-3.139-4.245l-1.107,0.818l3.139,4.245l-2.076,1.535l0.818,1.107l2.077-1.535l3.683,4.981
			l-5.535,4.093l0.409,0.554l-0.554,0.409l4.094,5.536l-1.522,1.125l0.818,1.107l1.522-1.125l3.684,4.981l-2.906,2.148l0.818,1.107
			l2.906-2.149l3.685,4.982l-5.397,3.991l0.818,1.107l5.397-3.991l3.684,4.982l-5.857,4.331l0.818,1.107l5.858-4.331l3.684,4.981
			l-6.874,5.083l0.818,1.107l6.874-5.083l3.684,4.981l-6.873,5.083l0.818,1.107l6.874-5.083l3.684,4.982l-6.874,5.082l0.818,1.107
			l6.874-5.083l3.684,4.981l-5.857,4.331l0.818,1.107l5.857-4.331l3.685,4.982l-5.12,3.785l0.818,1.107l5.12-3.785l3.684,4.98
			l-3.736,2.763l0.818,1.107l3.736-2.763l3.685,4.982l-1.8,1.33l0.818,1.107l1.8-1.33l2.432,3.289l1.107-0.818l-2.432-3.289
			l4.981-3.684l3.684,4.981l-5.535,4.093l0.818,1.107l5.535-4.094l3.685,4.982l-2.076,1.535l0.818,1.107l2.076-1.535l2.499,3.379
			l1.107-0.818l-2.499-3.379l4.981-3.684l3.685,4.982l-4.013,2.967l0.818,1.107l4.013-2.969l4.093,5.537l0.554-0.41l0.409,0.555
			l5.535-4.094l3.523,4.764l1.107-0.818l-3.523-4.764l4.982-3.686l5.979,8.086l1.107-0.818l-5.979-8.086l4.982-3.684l7.98,10.793
			l1.107-0.818l-7.981-10.793l4.981-3.683l7.98,10.792l1.107-0.818l-7.98-10.793l4.982-3.684l7.98,10.793l1.107-0.818l-7.981-10.793
			l4.981-3.685l7.982,10.794l1.107-0.818l-7.982-10.794l4.982-3.684l7.98,10.793l1.107-0.818l-7.98-10.794l4.98-3.683l5.979,8.085
			l1.107-0.818l-5.979-8.086l4.982-3.685l3.796,5.134l1.107-0.818L149.137,125l4.982-3.684l0.043,0.058l1.107-0.818l-4.545-6.146
			L153.907,112.055z M148.799,114.121l-4.982,3.684l-3.684-4.982l4.981-3.684L148.799,114.121z M63.555,75.262l3.684,4.981
			l-4.981,3.684l-3.684-4.981L63.555,75.262z M57.755,77.838l-3.685-4.981l4.981-3.684l3.685,4.981L57.755,77.838z M94.032,88.688
			l-3.684-4.981l4.982-3.685l3.684,4.981L94.032,88.688z M99.833,86.111l3.684,4.981l-4.982,3.684l-3.684-4.981L99.833,86.111z
			 M92.925,89.506l-4.982,3.685l-3.684-4.982l4.981-3.684L92.925,89.506z M89.53,82.599l-3.685-4.982l4.982-3.684l3.684,4.982
			L89.53,82.599z M88.422,83.417l-4.982,3.684l-3.684-4.981l4.982-3.685L88.422,83.417z M78.938,81.012l-3.685-4.981l4.982-3.685
			l3.684,4.982L78.938,81.012z M77.831,81.832l-4.981,3.684l-3.685-4.982l4.982-3.684L77.831,81.832z M68.346,79.425l-3.684-4.981
			l4.981-3.684l3.684,4.981L68.346,79.425z M68.058,81.351l3.684,4.982l-4.981,3.684l-3.685-4.982L68.058,81.351z M72.56,87.441
			l3.685,4.981l-4.982,3.684l-3.684-4.981L72.56,87.441z M73.667,86.622l4.981-3.684l3.685,4.982l-4.982,3.684L73.667,86.622z
			 M83.152,89.027l3.684,4.982l-4.981,3.684l-3.684-4.981L83.152,89.027z M87.654,95.117l3.684,4.98l-4.981,3.684l-3.684-4.98
			L87.654,95.117z M88.761,94.297l4.981-3.684l3.684,4.981l-4.981,3.684L88.761,94.297z M98.245,96.702l3.686,4.983l-4.982,3.684
			l-3.685-4.982L98.245,96.702z M102.749,102.792l3.684,4.981l-4.982,3.684l-3.684-4.98L102.749,102.792z M103.856,101.973
			l4.981-3.685l3.683,4.982l-4.981,3.684L103.856,101.973z M103.037,100.866l-3.685-4.982l4.982-3.685l3.684,4.983L103.037,100.866z
			 M100.94,85.292l4.98-3.684l3.684,4.98l-4.981,3.684L100.94,85.292z M100.122,84.185l-3.684-4.981l4.98-3.684l3.684,4.981
			L100.122,84.185z M95.619,78.096l-3.684-4.981l4.981-3.685l3.684,4.982L95.619,78.096z M91.116,72.007l-3.684-4.982l4.982-3.684
			l3.684,4.982L91.116,72.007z M90.009,72.826l-4.982,3.684l-3.684-4.981l4.981-3.685L90.009,72.826z M80.524,70.42l-3.684-4.981
			l4.982-3.684l3.684,4.981L80.524,70.42z M79.417,71.24l-4.982,3.684l-3.684-4.982l4.982-3.684L79.417,71.24z M69.933,68.833
			l-3.685-4.981l4.982-3.685l3.684,4.982L69.933,68.833z M68.826,69.653l-4.981,3.684l-3.685-4.982l4.981-3.684L68.826,69.653z
			 M59.341,67.248l-3.684-4.982l4.981-3.684l3.684,4.982L59.341,67.248z M58.234,68.066l-4.981,3.684l-3.684-4.982l4.981-3.684
			L58.234,68.066z M52.145,72.568l-4.981,3.684L43.48,71.27l4.981-3.684L52.145,72.568z M52.963,73.675l3.685,4.982l-4.981,3.684
			l-3.685-4.982L52.963,73.675z M57.466,79.765l3.684,4.981l-4.981,3.684l-3.684-4.981L57.466,79.765z M61.969,85.854l3.684,4.981
			l-4.981,3.684l-3.684-4.981L61.969,85.854z M66.471,91.943l3.685,4.982l-4.982,3.684l-3.684-4.982L66.471,91.943z M70.974,98.033
			l3.684,4.981l-4.981,3.684l-3.684-4.981L70.974,98.033z M72.082,97.213l4.981-3.684l3.684,4.981l-4.981,3.684L72.082,97.213z
			 M81.565,99.619l3.684,4.98l-4.981,3.684l-3.684-4.98L81.565,99.619z M86.067,105.707l3.685,4.982l-4.981,3.684l-3.685-4.982
			L86.067,105.707z M87.174,104.888l4.981-3.684l3.685,4.982l-4.981,3.684L87.174,104.888z M96.659,107.294l3.684,4.98l-4.982,3.685
			l-3.683-4.981L96.659,107.294z M101.161,113.382l3.684,4.982l-4.981,3.684l-3.685-4.982L101.161,113.382z M102.268,112.564
			l4.982-3.684l3.684,4.982l-4.982,3.684L102.268,112.564z M108.358,108.062l4.981-3.685l3.685,4.982l-4.982,3.684L108.358,108.062z
			 M114.446,103.559l4.982-3.684l3.684,4.981l-4.981,3.684L114.446,103.559z M113.627,102.452l-3.684-4.981l4.982-3.684l3.684,4.981
			L113.627,102.452z M109.125,96.363l-3.684-4.982l4.98-3.684l3.686,4.982L109.125,96.363z M107.028,80.791l4.982-3.685l3.684,4.981
			l-4.982,3.684L107.028,80.791z M106.209,79.683l-3.684-4.982l4.982-3.684L111.192,76L106.209,79.683z M101.708,73.594
			l-3.684-4.982l4.982-3.685l3.684,4.982L101.708,73.594z M97.206,67.504l-3.685-4.981l4.981-3.685l3.685,4.982L97.206,67.504z
			 M92.703,61.416l-3.684-4.982L94,52.75l3.684,4.982L92.703,61.416z M91.595,62.234l-4.981,3.684l-3.684-4.981l4.981-3.684
			L91.595,62.234z M82.111,59.829l-3.684-4.981l4.981-3.685l3.685,4.982L82.111,59.829z M81.004,60.648l-4.982,3.684l-3.684-4.982
			l4.981-3.684L81.004,60.648z M71.519,58.242l-3.684-4.981l4.982-3.684l3.684,4.981L71.519,58.242z M70.412,59.061l-4.981,3.684
			l-3.684-4.981l4.981-3.684L70.412,59.061z M60.927,56.656l-3.684-4.982l4.982-3.684l3.684,4.982L60.927,56.656z M59.821,57.474
			l-4.981,3.684l-3.685-4.981l4.981-3.684L59.821,57.474z M53.732,61.977l-4.982,3.684l-3.684-4.982l4.981-3.684L53.732,61.977z
			 M47.643,66.479l-4.981,3.684l-3.685-4.981l4.981-3.684L47.643,66.479z M41.554,70.982l-4.982,3.684l-3.685-4.982L37.871,66
			L41.554,70.982z M42.373,72.088l3.684,4.981l-4.982,3.685l-3.684-4.981L42.373,72.088z M46.875,78.177l3.685,4.982l-4.982,3.684
			l-3.685-4.981L46.875,78.177z M51.377,84.267l3.684,4.981l-4.981,3.685l-3.685-4.982L51.377,84.267z M55.88,90.356l3.684,4.982
			l-4.982,3.684l-3.684-4.981L55.88,90.356z M60.382,96.445l3.685,4.982l-4.982,3.684l-3.684-4.981L60.382,96.445z M64.885,102.535
			l3.684,4.981l-4.982,3.685l-3.684-4.982L64.885,102.535z M69.387,108.624l3.684,4.981l-4.982,3.684l-3.683-4.981L69.387,108.624z
			 M70.495,107.804l4.981-3.684l3.684,4.981l-4.981,3.684L70.495,107.804z M79.978,110.209l3.685,4.982l-4.981,3.684l-3.685-4.982
			L79.978,110.209z M84.481,116.298l3.684,4.982l-4.981,3.684l-3.684-4.981L84.481,116.298z M85.588,115.48l4.981-3.684l3.683,4.981
			l-4.98,3.684L85.588,115.48z M95.072,117.885l3.685,4.981l-4.982,3.684l-3.684-4.981L95.072,117.885z M99.575,123.974l3.684,4.982
			l-4.982,3.684l-3.684-4.982L99.575,123.974z M100.682,123.156l4.98-3.684l3.686,4.982l-4.982,3.684L100.682,123.156z
			 M106.77,118.654l4.982-3.685l3.684,4.982l-4.981,3.684L106.77,118.654z M112.86,114.151l4.982-3.685l3.684,4.982l-4.982,3.685
			L112.86,114.151z M118.95,109.648l4.98-3.684l3.685,4.982l-4.981,3.684L118.95,109.648z M125.038,105.146l4.982-3.684l3.684,4.982
			l-4.982,3.684L125.038,105.146z M124.219,104.039l-3.684-4.982l4.982-3.684l3.684,4.982L124.219,104.039z M119.716,97.95
			l-3.683-4.981l4.982-3.684l3.683,4.98L119.716,97.95z M115.215,91.861l-3.686-4.982l4.982-3.684l3.685,4.982L115.215,91.861z
			 M113.118,76.288l4.982-3.685l3.684,4.981l-4.982,3.684L113.118,76.288z M112.299,75.18l-3.684-4.981l4.982-3.684l3.684,4.981
			L112.299,75.18z M107.797,69.091l-3.685-4.982l4.981-3.684l3.685,4.982L107.797,69.091z M103.293,63.001L99.61,58.02l4.982-3.685
			l3.684,4.982L103.293,63.001z M98.792,56.913l-3.684-4.981l4.982-3.684l3.684,4.981L98.792,56.913z M94.29,50.824l-3.684-4.982
			l4.98-3.684l3.686,4.982L94.29,50.824z M93.182,51.642l-4.981,3.685l-3.685-4.982l4.982-3.685L93.182,51.642z M83.698,49.237
			l-3.684-4.981l4.982-3.684l3.684,4.981L83.698,49.237z M82.59,50.056l-4.981,3.684l-3.684-4.982l4.981-3.684L82.59,50.056z
			 M73.106,47.651l-3.684-4.982l4.982-3.684l3.684,4.981L73.106,47.651z M72,48.469l-4.982,3.685l-3.684-4.982l4.981-3.684
			L72,48.469z M62.514,46.064l-3.684-4.981l4.982-3.685l3.684,4.982L62.514,46.064z M61.407,46.882l-4.981,3.685l-3.684-4.981
			l4.981-3.685L61.407,46.882z M55.318,51.385l-4.981,3.684l-3.684-4.981l4.981-3.684L55.318,51.385z M49.229,55.888l-4.981,3.684
			l-3.684-4.982l4.981-3.684L49.229,55.888z M43.14,60.39l-4.981,3.684l-3.684-4.982l4.981-3.683L43.14,60.39z M37.051,64.892
			l-4.982,3.684l-3.684-4.98l4.982-3.685L37.051,64.892z M35.464,75.484l-4.981,3.684l-3.684-4.982l4.981-3.683L35.464,75.484z
			 M36.283,76.591l3.684,4.982l-4.981,3.683l-3.684-4.981L36.283,76.591z M40.786,82.68l3.684,4.982l-4.981,3.684l-3.684-4.982
			L40.786,82.68z M45.288,88.769l3.685,4.982l-4.981,3.684l-3.685-4.982L45.288,88.769z M49.791,94.859l3.684,4.982l-4.981,3.684
			l-3.684-4.982L49.791,94.859z M54.293,100.949l3.684,4.981l-4.981,3.684l-3.684-4.981L54.293,100.949z M58.795,107.037
			l3.684,4.982l-4.981,3.684l-3.684-4.981L58.795,107.037z M63.298,113.126l3.683,4.98L62,121.791l-3.684-4.98L63.298,113.126z
			 M67.8,119.214l3.684,4.982l-4.981,3.684l-3.685-4.982L67.8,119.214z M68.907,118.396l4.982-3.685l3.685,4.982l-4.982,3.685
			L68.907,118.396z M78.392,120.801l3.684,4.981l-4.982,3.684l-3.684-4.98L78.392,120.801z M82.894,126.89l3.685,4.982l-4.982,3.684
			l-3.685-4.982L82.894,126.89z M84.001,126.071l4.981-3.684l3.685,4.982l-4.982,3.684L84.001,126.071z M93.486,128.477l3.684,4.981
			l-4.981,3.684l-3.684-4.981L93.486,128.477z M97.989,134.566l3.684,4.982l-4.982,3.684l-3.684-4.982L97.989,134.566z
			 M99.095,133.748l4.981-3.684l3.684,4.981l-4.98,3.684L99.095,133.748z M105.184,129.246l4.982-3.684l3.684,4.981l-4.982,3.684
			L105.184,129.246z M111.274,124.743l4.981-3.684l3.685,4.981l-4.982,3.684L111.274,124.743z M117.363,120.24l4.981-3.684
			l3.684,4.982l-4.981,3.684L117.363,120.24z M123.452,115.738l4.982-3.684l3.684,4.982l-4.982,3.683L123.452,115.738z
			 M129.541,111.236l4.982-3.685l3.684,4.981l-4.982,3.685L129.541,111.236z M135.629,106.733l4.982-3.684l3.684,4.981l-4.982,3.684
			L135.629,106.733z M134.811,105.625l-3.684-4.982l4.982-3.684l3.684,4.982L134.811,105.625z M130.309,99.536l-3.685-4.981
			l4.981-3.684l3.685,4.981L130.309,99.536z M125.805,93.447l-3.683-4.981l4.981-3.684l3.684,4.981L125.805,93.447z M121.303,87.359
			l-3.684-4.983l4.982-3.684l3.684,4.982L121.303,87.359z M119.208,71.785l4.98-3.684l3.684,4.981l-4.981,3.684L119.208,71.785z
			 M118.388,70.677l-3.684-4.981l4.981-3.683l3.684,4.98L118.388,70.677z M113.885,64.589l-3.684-4.982l4.982-3.684l3.684,4.982
			L113.885,64.589z M109.383,58.5l-3.684-4.982l4.98-3.684l3.685,4.982L109.383,58.5z M104.881,52.41l-3.684-4.98l4.98-3.684
			l3.684,4.98L104.881,52.41z M100.378,46.322l-3.685-4.982l4.982-3.684l3.684,4.982L100.378,46.322z M95.875,40.232l-3.683-4.981
			l4.981-3.684l3.684,4.981L95.875,40.232z M94.768,41.05l-4.981,3.684l-3.684-4.98l4.982-3.685L94.768,41.05z M85.285,38.646
			l-3.684-4.982l4.981-3.684l3.684,4.982L85.285,38.646z M84.177,39.464l-4.981,3.684l-3.685-4.981l4.982-3.685L84.177,39.464z
			 M74.693,37.059l-3.684-4.981l4.981-3.685l3.685,4.982L74.693,37.059z M73.585,37.877l-4.981,3.685L64.92,36.58l4.981-3.684
			L73.585,37.877z M64.101,35.472l-3.684-4.98l4.982-3.685l3.684,4.981L64.101,35.472z M62.994,36.292l-4.981,3.684l-3.684-4.981
			l4.982-3.684L62.994,36.292z M56.905,40.794l-4.982,3.684l-3.683-4.981l4.981-3.685L56.905,40.794z M50.816,45.296l-4.981,3.684
			l-3.684-4.981l4.981-3.684L50.816,45.296z M44.727,49.798l-4.981,3.684l-3.684-4.98l4.981-3.684L44.727,49.798z M38.638,54.301
			l-4.981,3.684l-3.684-4.981l4.981-3.684L38.638,54.301z M32.549,58.803l-4.982,3.685l-3.684-4.981l4.982-3.685L32.549,58.803z
			 M30.961,69.395l-4.981,3.684l-3.683-4.981l4.98-3.684L30.961,69.395z M29.375,79.986l-4.981,3.685l-3.685-4.982l4.982-3.684
			L29.375,79.986z M30.195,81.093l3.684,4.982l-4.982,3.684l-3.684-4.982L30.195,81.093z M34.697,87.182l3.684,4.982l-4.981,3.685
			l-3.685-4.982L34.697,87.182z M39.2,93.272l3.684,4.981l-4.982,3.685l-3.684-4.982L39.2,93.272z M43.702,99.361l3.685,4.982
			l-4.982,3.684l-3.684-4.982L43.702,99.361z M48.205,105.451l3.684,4.981l-4.981,3.685l-3.685-4.982L48.205,105.451z
			 M52.707,111.54l3.684,4.981l-4.981,3.684l-3.684-4.981L52.707,111.54z M57.209,117.628l3.683,4.981l-4.981,3.684l-3.684-4.981
			L57.209,117.628z M61.711,123.716l3.684,4.982l-4.981,3.685l-3.685-4.982L61.711,123.716z M66.214,129.806l3.683,4.981
			l-4.981,3.684l-3.684-4.981L66.214,129.806z M67.321,128.988l4.982-3.684l3.683,4.98l-4.981,3.685L67.321,128.988z
			 M76.805,131.392l3.684,4.982l-4.981,3.684l-3.685-4.982L76.805,131.392z M81.308,137.482l3.684,4.981l-4.982,3.685l-3.684-4.982
			L81.308,137.482z M82.415,136.664l4.982-3.685l3.684,4.982l-4.982,3.684L82.415,136.664z M91.899,139.068l3.684,4.982
			l-4.981,3.683l-3.684-4.981L91.899,139.068z M96.401,145.158l3.685,4.982l-4.981,3.683l-3.685-4.982L96.401,145.158z
			 M97.508,144.339l4.982-3.685l3.684,4.982l-4.981,3.684L97.508,144.339z M103.598,139.836l4.98-3.684l3.686,4.982l-4.982,3.684
			L103.598,139.836z M109.686,135.333l4.982-3.684l3.684,4.982l-4.981,3.684L109.686,135.333z M115.776,130.832l4.982-3.684
			l3.684,4.982l-4.982,3.684L115.776,130.832z M121.866,126.33l4.981-3.685l3.685,4.982l-4.982,3.684L121.866,126.33z
			 M127.954,121.827l4.982-3.684l3.684,4.982l-4.981,3.684L127.954,121.827z M134.043,117.325l4.982-3.685l3.684,4.982l-4.982,3.685
			L134.043,117.325z M150.384,103.529l-4.981,3.684l-3.684-4.982l4.981-3.683L150.384,103.529z M145.881,97.44l-4.98,3.683
			l-3.685-4.982l4.981-3.683L145.881,97.44z M141.379,91.35l-4.982,3.683l-3.684-4.981l4.982-3.683L141.379,91.35z M136.876,85.261
			l-4.981,3.683l-3.684-4.981l4.982-3.683L136.876,85.261z M132.375,79.172l-4.981,3.684l-3.684-4.983l4.98-3.684L132.375,79.172z
			 M133.961,68.58l-4.982,3.684l-3.684-4.98l4.982-3.684L133.961,68.58z M129.459,62.492l-4.982,3.684l-3.684-4.981l4.982-3.685
			L129.459,62.492z M124.958,56.403l-4.982,3.684l-3.685-4.982l4.981-3.684L124.958,56.403z M120.454,50.313l-4.982,3.685
			l-3.684-4.982l4.982-3.684L120.454,50.313z M115.952,44.224l-4.982,3.684l-3.684-4.981l4.982-3.684L115.952,44.224z
			 M111.45,38.135l-4.982,3.684l-3.684-4.981l4.981-3.685L111.45,38.135z M106.946,32.046l-4.98,3.684l-3.684-4.982l4.98-3.684
			L106.946,32.046z M98.76,20.975l3.684,4.981l-4.981,3.685l-3.685-4.982L98.76,20.975z M96.355,30.459l-4.981,3.684l-3.684-4.981
			l4.981-3.684L96.355,30.459z M88.169,19.388l3.684,4.982l-4.981,3.684l-3.685-4.982L88.169,19.388z M85.764,28.873l-4.982,3.684
			l-3.684-4.981l4.982-3.684L85.764,28.873z M77.578,17.802l3.684,4.981l-4.981,3.684l-3.684-4.981L77.578,17.802z M75.172,27.287
			l-4.981,3.684l-3.684-4.981l4.981-3.685L75.172,27.287z M66.986,16.214l3.685,4.982l-4.982,3.685l-3.684-4.983L66.986,16.214z
			 M60.897,20.717l3.685,4.982l-4.982,3.685l-3.685-4.983L60.897,20.717z M54.807,25.22l3.685,4.982l-4.981,3.684l-3.685-4.982
			L54.807,25.22z M48.718,29.722l3.685,4.983l-4.982,3.684l-3.685-4.983L48.718,29.722z M42.629,34.225l3.685,4.983l-4.982,3.684
			l-3.685-4.983L42.629,34.225z M36.541,38.727l3.685,4.983l-4.982,3.684l-3.685-4.983L36.541,38.727z M30.452,43.23l3.685,4.982
			l-4.981,3.684l-3.685-4.982L30.452,43.23z M19.38,51.416l4.982-3.684l3.685,4.982l-4.982,3.685L19.38,51.416z M17.795,62.008
			l4.98-3.683l3.684,4.98l-4.981,3.684L17.795,62.008z M16.208,72.599l4.982-3.684l3.684,4.981l-4.982,3.684L16.208,72.599z
			 M14.621,83.191l4.982-3.684l3.684,4.981l-4.982,3.685L14.621,83.191z M19.124,89.28l4.981-3.684l3.684,4.981l-4.981,3.684
			L19.124,89.28z M23.625,95.369l4.982-3.684l3.684,4.982l-4.982,3.684L23.625,95.369z M28.128,101.458l4.981-3.684l3.685,4.981
			l-4.982,3.685L28.128,101.458z M32.63,107.547l4.982-3.684l3.684,4.981l-4.981,3.685L32.63,107.547z M37.133,113.637l4.982-3.685
			l3.684,4.982l-4.982,3.684L37.133,113.637z M41.636,119.726l4.981-3.684l3.684,4.981l-4.981,3.684L41.636,119.726z
			 M46.138,125.815l4.981-3.685l3.684,4.981l-4.981,3.685L46.138,125.815z M50.64,131.903l4.981-3.684l3.685,4.982l-4.982,3.684
			L50.64,131.903z M55.143,137.993l4.981-3.684l3.684,4.981l-4.982,3.684L55.143,137.993z M63.329,149.063l-3.684-4.982l4.981-3.685
			l3.685,4.982L63.329,149.063z M65.734,139.579l4.981-3.684l3.685,4.982l-4.982,3.684L65.734,139.579z M70.237,145.668l4.981-3.685
			l3.684,4.982l-4.981,3.683L70.237,145.668z M78.422,156.739l-3.684-4.982l4.982-3.684l3.684,4.982L78.422,156.739z
			 M80.828,147.254l4.982-3.684l3.684,4.981l-4.981,3.685L80.828,147.254z M85.331,153.342l4.982-3.683l3.684,4.982l-4.982,3.684
			L85.331,153.342z M93.517,164.415l-3.684-4.982l4.981-3.684l3.684,4.982L93.517,164.415z M99.606,159.913l-3.684-4.982
			l4.982-3.683l3.684,4.982L99.606,159.913z M105.696,155.409l-3.684-4.98l4.98-3.684l3.685,4.981L105.696,155.409z
			 M111.784,150.907l-3.684-4.982l4.982-3.684l3.684,4.982L111.784,150.907z M117.874,146.406l-3.684-4.982l4.981-3.684l3.684,4.981
			L117.874,146.406z M123.961,141.903l-3.684-4.981l4.982-3.684l3.684,4.98L123.961,141.903z M130.051,137.4l-3.684-4.981
			l4.982-3.684l3.684,4.981L130.051,137.4z M136.141,132.898l-3.684-4.982l4.98-3.683l3.684,4.981L136.141,132.898z
			 M142.229,128.396l-3.684-4.982l4.982-3.684l3.684,4.981L142.229,128.396z M153.301,120.208l-4.982,3.684l-3.684-4.98l4.982-3.685
			L153.301,120.208z"/>
		<polygon fill="#FFCB05" points="217.194,291.725 239.059,275.557 226.698,266.075 211.75,277.127 		"/>
		
			<rect x="185.986" y="202.56" transform="matrix(-0.804 0.5946 -0.5946 -0.804 494.5299 315.4531)" fill="#FFCB05" width="18.589" height="73.321"/>
		<path fill="#FFCB05" d="M156.983,111.63c0.123-4.891-0.21-9.924-0.984-15.023c-2.509-1.267-4.879-2.779-7.07-4.522
			c5.436,24.801-0.391,48.343-17.537,61.021c-26.215,19.385-68.953,6.041-95.46-29.806C9.425,87.453,9.191,42.682,35.406,23.298
			c26.216-19.384,68.952-6.041,95.459,29.805c0.938,1.27,1.837,2.554,2.71,3.844c0.215-2.91,0.732-5.751,1.537-8.482
			c-28.6-37.86-74.667-51.387-103.39-30.147C2.756,39.735,2.41,88.388,30.95,126.984c14.619,19.772,33.982,33.048,53.286,38.437
			c-0.002,0.006-0.001,0.012-0.004,0.016c72.332,26.635,77.583,44.158,80.358,46.174c0,0,2.629-1.945,4.843-3.582
			c-15.557-20.17-45.496-34.623-62.206-40.02c10.15-0.668,19.697-3.895,27.848-9.92c8.148-6.027,14.032-14.209,17.645-23.718
			c0.265,17.558,5.309,50.417,20.035,71.202c2.214-1.637,4.844-3.582,4.844-3.582c-1.113-3.244-16.328-13.398-20.6-90.359
			C156.994,111.631,156.987,111.629,156.983,111.63z"/>
	</g>
	<g>
		<circle fill="#FFFFFF" cx="174.425" cy="60.021" r="36.646"/>
		<path fill="#007DBA" d="M177.186,23.491c0.031,0.654,0.053,1.309,0.129,1.97c1.757,15.064,15.393,25.854,30.459,24.097
			c0.563-0.065,1.105-0.183,1.664-0.28C205.034,34.882,192.178,24.608,177.186,23.491z"/>
		<path fill="#007DBA" d="M171.637,96.549c-0.027-0.585-0.048-1.168-0.117-1.761c-1.756-15.062-15.391-25.853-30.457-24.097
			c-0.541,0.063-1.063,0.174-1.596,0.268C143.92,85.246,156.723,95.428,171.637,96.549z"/>
		<path fill="#FFCB05" d="M140.083,62.294c19.702-2.298,37.538,11.813,39.835,31.515c0.094,0.798,0.118,1.586,0.155,2.378
			c18.755-2.924,32.14-19.704,30.871-38.602c-0.729,0.131-1.45,0.282-2.192,0.369c-19.701,2.297-37.537-11.813-39.834-31.516
			c-0.102-0.866-0.133-1.722-0.168-2.575c-18.813,2.943-32.207,19.827-30.832,38.794C138.638,62.531,139.346,62.38,140.083,62.294z"
			/>
	</g>
</g>
</svg>
