<?xml version="1.0" encoding="utf-8"?>
<!-- Generator: Adobe Illustrator 16.0.0, SVG Export Plug-In . SVG Version: 6.00 Build 0)  -->
<!DOCTYPE svg PUBLIC "-//W3C//DTD SVG 1.1//EN" "http://www.w3.org/Graphics/SVG/1.1/DTD/svg11.dtd">
<svg version="1.1" id="Calque_1" xmlns="http://www.w3.org/2000/svg" xmlns:xlink="http://www.w3.org/1999/xlink" x="0px" y="0px"
	 width="300px" height="186.824px" viewBox="0 0 300 186.824" enable-background="new 0 0 300 186.824" xml:space="preserve">
<g>
	<g>
		<path fill="#FAA61A" d="M287.169,32.513c4.239,2.306,5.806,7.612,3.5,11.85l-3.596,6.614c-2.308,4.24-7.611,5.808-11.854,3.5
			l-44.139-24.009c-4.241-2.308-5.806-7.615-3.502-11.854l3.597-6.611c2.307-4.241,7.613-5.808,11.853-3.501L287.169,32.513z"/>
		<g>
			<path fill="#FAA61A" d="M233.007,110.632l-11.998,2.888c-2.371,4.356-4.128,7.587-4.242,7.796
				c-0.37,0.677-0.075,0.933,0.477,1.141c1.34,0.509,3.818,1.452,5.011,1.933c1.678,0.679,4,1.408,5.253,1.837
				c0.246,0.084,0.718,0.27,1.049-0.34c0.168-0.311,5.051-9.287,9.816-18.047C236.882,109.149,235.066,110.134,233.007,110.632z"/>
			<path fill="#FAA61A" d="M203.901,117.636c3.621,1.31,9.881,3.569,10.251,3.691c0.526,0.174,0.883,0.195,1.224-0.426
				c0.096-0.179,1.633-3.006,3.77-6.934L203.901,117.636z"/>
			<path fill="#FAA61A" d="M276.555,62.998l-51.051-27.771c-3.707-2.019-11.359,1.598-18.389,14.52
				c-8.142,14.97-9.359,23.692-11.484,27.594l-4.813,8.849l34.279-8.249c0.98-0.237,1.986-0.358,2.988-0.358
				c5.862,0,10.922,3.983,12.304,9.687l1.953,8.067c0.394,1.624,0.444,3.25,0.215,4.81c2.814-5.174,4.931-9.064,4.931-9.064
				c0.189-0.344,0.619-0.472,0.967-0.284c0.342,0.188,0.47,0.619,0.284,0.963c0,0-18.369,33.763-18.748,34.464
				c-0.373,0.684,0.281,0.833,0.592,0.928c9.076,2.766,14.983,0.127,19.316-7.842l28.056-51.574
				C278.876,66.042,278.251,63.919,276.555,62.998z"/>
		</g>
	</g>
	<path fill="#D11A6F" d="M238.454,96.279l-1.953-8.069c-1.127-4.65-5.811-7.508-10.463-6.382l-114.174,27.475
		c1.01,1.1,1.846,1.965,2.5,2.467l22.872,17.566c0.075,0.058,0.132,0.119,0.205,0.178l94.63-22.771
		C236.725,105.616,239.581,100.931,238.454,96.279z"/>
	<g>
		<path fill="#FAA61A" d="M10.075,111.092c-2.939,3.829-2.217,9.314,1.609,12.255l5.971,4.585c3.826,2.939,9.316,2.22,12.256-1.608
			l30.607-39.85c2.938-3.828,2.219-9.315-1.61-12.253l-5.97-4.585c-3.826-2.94-9.313-2.222-12.252,1.606L10.075,111.092z"/>
		<path fill="#FAA61A" d="M90.24,94.378c13.515,10.381,18.164,17.859,21.688,20.565l22.872,17.565
			c7.635,5.864-7.126,16.792-10.123,19.233c-0.877,0.718-1.41,0.191-1.41,0.191l-18.263-14.025l-13.222-10.156
			c-0.311-0.24-0.757-0.182-0.996,0.13c-0.241,0.313-0.182,0.758,0.129,0.998c0,0,29.973,23.02,30.799,23.652
			c0.824,0.635,0.627,1.035,0.103,1.541c-2.321,2.227-8.644,8.285-8.977,8.589c-0.412,0.371-0.729,0.535-1.286,0.105
			c-0.561-0.431-29.893-22.958-29.893-22.958c-0.313-0.239-0.756-0.182-0.996,0.13c-0.238,0.312-0.18,0.759,0.13,0.998
			c0,0,29.04,22.306,29.649,22.772c0.61,0.47,0.449,0.823,0.026,1.237c-1.019,1.009-2.899,2.875-3.792,3.798
			c-1.259,1.301-3.088,2.909-4.059,3.809c-0.191,0.178-0.55,0.537-1.096,0.115c-0.553-0.424-31.422-24.134-31.422-24.134
			c-0.311-0.239-0.757-0.18-0.994,0.132c-0.243,0.311-0.184,0.757,0.127,0.996c0,0,30.481,23.412,31.115,23.898
			c0.617,0.476,0.082,0.877-0.166,1.09c-7.174,6.208-13.645,6.189-20.836,0.665l-46.563-35.763c-1.531-1.177-1.82-3.369-0.645-4.902
			l35.402-46.088C70.114,85.214,78.575,85.417,90.24,94.378z"/>
	</g>
</g>
</svg>
