<?xml version="1.0" encoding="utf-8"?>
<!-- Generator: Adobe Illustrator 16.0.0, SVG Export Plug-In . SVG Version: 6.00 Build 0)  -->
<!DOCTYPE svg PUBLIC "-//W3C//DTD SVG 1.1//EN" "http://www.w3.org/Graphics/SVG/1.1/DTD/svg11.dtd">
<svg version="1.1" id="Calque_1" xmlns="http://www.w3.org/2000/svg" xmlns:xlink="http://www.w3.org/1999/xlink" x="0px" y="0px"
	 width="304.73px" height="299.991px" viewBox="0 0 304.73 299.991" enable-background="new 0 0 304.73 299.991"
	 xml:space="preserve">
<g>
	<g>
		<path fill="#D11A6F" d="M294.6,68.067l-1.107-0.818l-3.139,4.245l-4.98-3.685l3.682-4.98l4.016,2.968l0.818-1.107l-4.014-2.968
			l3.41-4.614l-1.107-0.818l-3.41,4.614l-4.982-3.684l3.686-4.983l5.535,4.093l0.818-1.107l-5.535-4.093l2.797-3.781l-1.107-0.818
			l-2.797,3.781l-4.982-3.685l6.139-8.303l-1.107-0.818l-6.139,8.303l-4.98-3.684l7.98-10.794l-1.107-0.818l-7.98,10.794
			l-4.982-3.684l7.98-10.794l-1.107-0.818l-7.98,10.793l-4.98-3.684l7.98-10.793l-1.107-0.818l-7.98,10.793l-4.982-3.685
			l7.98-10.793l-1.107-0.818l-7.98,10.793l-4.982-3.684l7.98-10.793l-1.107-0.818l-7.98,10.793l-4.982-3.685l6.141-8.303
			l-1.107-0.818l-6.139,8.303l-4.982-3.685l2.455-3.32l-1.107-0.818l-2.455,3.32l-5.535-4.093l-0.818,1.107l5.535,4.093
			l-3.686,4.982l-4.98-3.684l3.07-4.152l-1.107-0.818l-3.07,4.152l-4.566-3.377l-0.818,1.107l4.566,3.377l-3.684,4.98l-4.982-3.684
			l1.979-2.675l-1.107-0.818l-1.979,2.675l-2.352-1.739l-0.818,1.107l2.352,1.739l-3.684,4.982l-5.535-4.094l-0.41,0.554
			l-0.553-0.409l-4.094,5.535L199.84,23.4l-0.818,1.107l2.352,1.739l-3.684,4.981l-3.92-2.898l-0.818,1.107l3.92,2.898l-3.686,4.981
			l-5.58-4.126l-0.818,1.107l5.58,4.126l-3.684,4.982l-6.41-4.741l-0.818,1.107l6.41,4.74l-3.684,4.982l-7.982-5.902l-0.818,1.107
			l7.982,5.901l-3.684,4.982l-7.52-5.559l-0.818,1.107l7.518,5.559l-3.684,4.982l-6.41-4.741l-0.818,1.107l6.41,4.74l-3.682,4.981
			l-6.412-4.741l-0.818,1.107l6.41,4.741l-3.684,4.982l-5.582-4.127l-0.818,1.107l5.582,4.127l-3.684,4.98l-3.92-2.898l-0.818,1.107
			l3.92,2.898l-3.111,4.208c0.311,1.183,0.598,2.365,0.865,3.55l3.832,2.834l-2.6,3.517c0.104,0.649,0.184,1.299,0.273,1.948
			l3.434-4.646l4.982,3.683l-3.686,4.982l-4.65-3.438c0.082,0.629,0.166,1.258,0.234,1.886l3.598,2.659l-3.1,4.191
			c0.035,0.992,0.045,1.981,0.047,2.97l4.639,3.431l-3.684,4.982l-0.582-0.43c0.072,1.086,0.146,2.162,0.225,3.23l0.646-0.875
			l4.982,3.684l-3.684,4.982l-1.416-1.047c0.053,0.616,0.109,1.223,0.164,1.832l0.434,0.321l-0.363,0.489
			c0.064,0.689,0.127,1.378,0.191,2.059l1.279-1.729l4.98,3.683l-5.283,7.145c0.08,0.669,0.164,1.326,0.246,1.985l6.145-8.311
			l4.982,3.684l-7.982,10.794l1.107,0.818l7.982-10.794l4.982,3.685l-7.982,10.793l1.107,0.818l7.98-10.793l4.982,3.684
			l-7.98,10.793l1.107,0.818l7.98-10.793l4.982,3.684l-7.982,10.793l1.107,0.818l7.98-10.793l4.982,3.684l-5.979,8.086l1.107,0.818
			l5.979-8.086l4.982,3.686l-3.523,4.764l1.107,0.818l3.523-4.764l5.535,4.094l0.41-0.555l0.553,0.41l4.094-5.537l4.012,2.969
			l0.818-1.107l-4.012-2.967l3.684-4.982l4.982,3.684l-2.5,3.379l1.107,0.818l2.5-3.379l2.076,1.535l0.818-1.107l-2.076-1.535
			l3.684-4.982l5.535,4.094l0.818-1.107l-5.535-4.094l3.684-4.981l4.982,3.684l-2.432,3.289l1.107,0.818l2.432-3.289l1.799,1.33
			l0.818-1.107l-1.799-1.33l3.684-4.982l3.736,2.763l0.818-1.107l-3.736-2.763l3.684-4.98l5.121,3.785l0.818-1.107l-5.121-3.785
			l3.686-4.982l5.857,4.331l0.818-1.107l-5.857-4.331l3.684-4.981l6.873,5.083l0.818-1.107l-6.873-5.082l3.684-4.982l6.873,5.083
			l0.818-1.107l-6.873-5.083l3.684-4.981l6.875,5.083l0.818-1.107l-6.875-5.083l3.684-4.981l5.859,4.331l0.818-1.107l-5.857-4.331
			l3.684-4.982l5.396,3.991l0.818-1.107l-5.396-3.991l3.684-4.982l2.906,2.149l0.818-1.107l-2.906-2.148l3.684-4.981l1.523,1.125
			l0.818-1.107l-1.523-1.125l4.094-5.536l-0.553-0.409l0.408-0.554l-5.535-4.093l3.684-4.981l2.076,1.535l0.818-1.107l-2.076-1.535
			L294.6,68.067z M287.948,62.01l-3.682,4.981l-4.982-3.684l3.684-4.98L287.948,62.01z M236.579,80.534l-3.684,4.982l-4.982-3.684
			l3.684-4.982L236.579,80.534z M232.417,75.743l3.684-4.981l4.98,3.684l-3.684,4.981L232.417,75.743z M226.805,81.014l-4.98-3.684
			l3.684-4.982l4.982,3.685L226.805,81.014z M225.987,82.121l-3.684,4.981l-4.982-3.684l3.684-4.982L225.987,82.121z M221.485,88.21
			l-3.684,4.982l-4.982-3.685l3.684-4.981L221.485,88.21z M216.213,82.601l-4.98-3.684l3.684-4.982l4.982,3.684L216.213,82.601z
			 M215.395,83.708l-3.684,4.981l-4.982-3.685l3.684-4.981L215.395,83.708z M210.893,89.796l-3.684,4.981l-4.982-3.684l3.684-4.981
			L210.893,89.796z M206.391,95.885l-3.684,4.982l-4.982-3.684l3.684-4.983L206.391,95.885z M201.887,101.975l-3.682,4.981
			l-4.982-3.684l3.684-4.982L201.887,101.975z M202.995,102.793l4.982,3.685l-3.684,4.98l-4.982-3.684L202.995,102.793z
			 M203.813,101.687l3.686-4.983l4.982,3.685l-3.686,4.982L203.813,101.687z M208.317,95.597L212,90.615l4.982,3.684l-3.684,4.981
			L208.317,95.597z M218.09,95.118l4.98,3.684l-3.684,4.98l-4.98-3.684L218.09,95.118z M218.909,94.011l3.684-4.982l4.98,3.685
			l-3.684,4.981L218.909,94.011z M223.411,87.922l3.684-4.982l4.982,3.684l-3.684,4.982L223.411,87.922z M233.184,87.442l4.98,3.684
			l-3.684,4.981l-4.982-3.684L233.184,87.442z M234.002,86.335l3.684-4.982l4.982,3.684l-3.686,4.982L234.002,86.335z
			 M238.504,80.245l3.684-4.981l4.982,3.684l-3.684,4.981L238.504,80.245z M243.006,74.156l3.686-4.981l4.98,3.684l-3.684,4.981
			L243.006,74.156z M247.51,68.067l3.684-4.982l4.98,3.684l-3.684,4.982L247.51,68.067z M246.403,67.249l-4.982-3.684l3.684-4.982
			l4.982,3.684L246.403,67.249z M245.584,68.355l-3.686,4.982l-4.98-3.684l3.684-4.982L245.584,68.355z M235.811,68.835
			l-4.982-3.684l3.684-4.982l4.982,3.685L235.811,68.835z M234.993,69.942l-3.684,4.982l-4.982-3.684l3.684-4.982L234.993,69.942z
			 M225.219,70.422l-4.982-3.684l3.684-4.981l4.982,3.684L225.219,70.422z M224.401,71.529l-3.684,4.981l-4.982-3.684l3.684-4.982
			L224.401,71.529z M214.627,72.009l-4.982-3.684l3.684-4.982l4.982,3.684L214.627,72.009z M213.809,73.116l-3.684,4.981
			l-4.982-3.684l3.684-4.982L213.809,73.116z M209.305,79.205l-3.684,4.981l-4.98-3.684l3.684-4.981L209.305,79.205z
			 M204.803,85.294l-3.682,4.98l-4.982-3.684l3.684-4.98L204.803,85.294z M200.301,91.382l-3.684,4.982l-4.982-3.684l3.686-4.982
			L200.301,91.382z M195.799,97.472l-3.684,4.981l-4.982-3.684l3.684-4.981L195.799,97.472z M192.405,104.379l4.98,3.685
			l-3.684,4.981l-4.982-3.684L192.405,104.379z M198.493,108.882l4.982,3.684l-3.684,4.982l-4.982-3.684L198.493,108.882z
			 M204.583,113.384l4.982,3.684l-3.684,4.982l-4.982-3.684L204.583,113.384z M205.401,112.276l3.684-4.98l4.982,3.684l-3.684,4.981
			L205.401,112.276z M209.903,106.188l3.686-4.982l4.98,3.684l-3.684,4.982L209.903,106.188z M219.676,105.708l4.982,3.684
			l-3.686,4.982l-4.98-3.684L219.676,105.708z M220.495,104.601l3.684-4.98l4.982,3.684l-3.684,4.98L220.495,104.601z
			 M224.997,98.513l3.684-4.981l4.982,3.684l-3.684,4.981L224.997,98.513z M234.77,98.034l4.98,3.684l-3.684,4.981l-4.98-3.684
			L234.77,98.034z M235.588,96.927l3.684-4.982l4.982,3.684l-3.684,4.982L235.588,96.927z M240.09,90.837l3.684-4.981l4.982,3.684
			l-3.684,4.981L240.09,90.837z M244.594,84.748l3.684-4.981l4.98,3.684l-3.684,4.981L244.594,84.748z M249.096,78.659l3.684-4.982
			l4.982,3.684l-3.686,4.982L249.096,78.659z M253.598,72.569l3.684-4.981l4.982,3.684l-3.684,4.981L253.598,72.569z M258.1,66.48
			l3.686-4.981l4.98,3.684l-3.684,4.981L258.1,66.48z M256.995,65.662l-4.982-3.684l3.684-4.982l4.982,3.684L256.995,65.662z
			 M250.905,61.159l-4.982-3.684l3.686-4.981l4.98,3.684L250.905,61.159z M244.817,56.657l-4.982-3.684l3.684-4.982l4.982,3.684
			L244.817,56.657z M243.997,57.765l-3.684,4.981l-4.98-3.684l3.684-4.981L243.997,57.765z M234.225,58.243l-4.982-3.684
			l3.684-4.981l4.982,3.684L234.225,58.243z M233.405,59.351l-3.684,4.982l-4.982-3.684l3.686-4.982L233.405,59.351z M223.633,59.83
			l-4.982-3.684l3.684-4.982l4.982,3.685L223.633,59.83z M222.813,60.938l-3.684,4.981l-4.98-3.684l3.684-4.981L222.813,60.938z
			 M213.042,61.417l-4.982-3.684l3.684-4.982l4.982,3.684L213.042,61.417z M212.223,62.524l-3.686,4.981l-4.98-3.684l3.684-4.982
			L212.223,62.524z M207.719,68.613l-3.684,4.982l-4.982-3.685l3.684-4.982L207.719,68.613z M203.217,74.702l-3.684,4.982
			l-4.982-3.684l3.684-4.982L203.217,74.702z M198.715,80.792l-3.684,4.98l-4.982-3.684l3.684-4.981L198.715,80.792z M194.213,86.88
			l-3.686,4.982l-4.98-3.684l3.684-4.982L194.213,86.88z M189.709,92.97l-3.682,4.981l-4.982-3.685l3.682-4.98L189.709,92.97z
			 M186.315,99.877l4.982,3.684l-3.684,4.981l-4.982-3.684L186.315,99.877z M187.901,110.468l4.982,3.685l-3.684,4.982l-4.982-3.685
			L187.901,110.468z M193.991,114.971l4.982,3.685l-3.684,4.981l-4.982-3.684L193.991,114.971z M200.081,119.474l4.98,3.684
			l-3.684,4.982l-4.982-3.684L200.081,119.474z M206.168,123.976l4.982,3.684l-3.684,4.982l-4.982-3.684L206.168,123.976z
			 M206.987,122.868l3.686-4.981l4.98,3.684l-3.684,4.981L206.987,122.868z M211.491,116.779l3.684-4.981l4.98,3.684l-3.684,4.981
			L211.491,116.779z M221.262,116.3l4.982,3.685l-3.684,4.981l-4.982-3.684L221.262,116.3z M222.081,115.193l3.686-4.982l4.98,3.684
			l-3.684,4.982L222.081,115.193z M226.584,109.104l3.684-4.981l4.98,3.684l-3.684,4.981L226.584,109.104z M236.356,108.625
			l4.982,3.684l-3.684,4.981l-4.982-3.684L236.356,108.625z M237.174,107.518l3.684-4.981l4.982,3.684l-3.684,4.982L237.174,107.518
			z M241.676,101.429l3.686-4.982l4.98,3.685l-3.684,4.981L241.676,101.429z M246.18,95.34l3.684-4.982l4.982,3.685l-3.684,4.981
			L246.18,95.34z M250.682,89.25l3.684-4.981l4.982,3.684l-3.684,4.982L250.682,89.25z M255.184,83.161l3.686-4.982l4.982,3.685
			l-3.686,4.981L255.184,83.161z M259.688,77.071l3.684-4.981l4.982,3.685l-3.684,4.981L259.688,77.071z M264.19,70.983l3.684-4.982
			l4.982,3.684l-3.684,4.982L264.19,70.983z M267.584,64.075l-4.98-3.684l3.684-4.981l4.98,3.683L267.584,64.075z M261.497,59.573
			l-4.982-3.684l3.684-4.982l4.982,3.684L261.497,59.573z M255.407,55.07l-4.98-3.684l3.684-4.981l4.98,3.684L255.407,55.07z
			 M249.319,50.568l-4.982-3.685l3.684-4.981l4.982,3.685L249.319,50.568z M243.229,46.065l-4.982-3.684l3.684-4.982l4.982,3.685
			L243.229,46.065z M242.411,47.173l-3.684,4.982l-4.982-3.685l3.684-4.981L242.411,47.173z M232.637,47.652l-4.982-3.685
			l3.684-4.981l4.982,3.684L232.637,47.652z M231.819,48.759l-3.684,4.982l-4.982-3.684l3.684-4.982L231.819,48.759z
			 M222.045,49.238l-4.982-3.684l3.684-4.981l4.982,3.684L222.045,49.238z M221.227,50.346l-3.684,4.982l-4.982-3.685l3.684-4.982
			L221.227,50.346z M211.454,50.825l-4.982-3.684l3.686-4.982l4.98,3.684L211.454,50.825z M210.635,51.933l-3.684,4.981
			l-4.982-3.684l3.684-4.981L210.635,51.933z M206.133,58.021l-3.684,4.981l-4.982-3.684l3.684-4.982L206.133,58.021z
			 M201.631,64.11l-3.686,4.982l-4.98-3.684l3.684-4.982L201.631,64.11z M197.127,70.2l-3.684,4.981l-4.982-3.684l3.684-4.981
			L197.127,70.2z M192.625,76.289l-3.684,4.98l-4.982-3.684l3.684-4.981L192.625,76.289z M188.124,82.377l-3.684,4.983l-4.982-3.685
			l3.684-4.982L188.124,82.377z M183.622,88.467l-3.684,4.981l-4.982-3.684l3.684-4.981L183.622,88.467z M180.225,95.374
			l4.982,3.684l-3.684,4.982l-4.982-3.684L180.225,95.374z M181.813,105.966l4.98,3.684l-3.684,4.982l-4.98-3.684L181.813,105.966z
			 M182.292,115.739l-3.684,4.981l-4.982-3.683l3.684-4.982L182.292,115.739z M183.399,116.558l4.982,3.684l-3.684,4.982
			l-4.982-3.684L183.399,116.558z M189.489,121.061l4.98,3.684l-3.684,4.981l-4.982-3.684L189.489,121.061z M195.577,125.563
			l4.982,3.684l-3.684,4.981l-4.982-3.684L195.577,125.563z M201.667,130.065l4.982,3.684l-3.686,4.981l-4.98-3.684L201.667,130.065
			z M207.754,134.567l4.982,3.684l-3.684,4.982l-4.982-3.684L207.754,134.567z M208.575,133.46l3.684-4.981l4.98,3.684l-3.684,4.981
			L208.575,133.46z M213.077,127.371l3.684-4.982l4.982,3.684l-3.684,4.982L213.077,127.371z M222.85,126.892l4.982,3.684
			l-3.686,4.982l-4.982-3.684L222.85,126.892z M223.668,125.784l3.684-4.981l4.982,3.685l-3.684,4.98L223.668,125.784z
			 M228.17,119.695l3.684-4.982l4.982,3.685l-3.684,4.982L228.17,119.695z M237.944,119.216l4.982,3.684l-3.686,4.982l-4.98-3.684
			L237.944,119.216z M238.762,118.108l3.684-4.98l4.982,3.684l-3.684,4.98L238.762,118.108z M243.264,112.021l3.684-4.982
			l4.982,3.685l-3.684,4.981L243.264,112.021z M247.766,105.932l3.684-4.981l4.982,3.684l-3.684,4.981L247.766,105.932z
			 M252.27,99.843l3.684-4.982l4.98,3.684l-3.684,4.982L252.27,99.843z M256.772,93.753l3.684-4.982l4.982,3.684l-3.686,4.982
			L256.772,93.753z M261.274,87.664l3.684-4.982l4.982,3.684l-3.684,4.982L261.274,87.664z M265.778,81.575l3.684-4.982l4.98,3.684
			l-3.684,4.981L265.778,81.575z M270.28,75.485l3.684-4.981l4.98,3.683l-3.684,4.982L270.28,75.485z M273.674,68.577l-4.982-3.684
			l3.684-4.981l4.982,3.685L273.674,68.577z M273.194,58.805l3.684-4.981l4.982,3.685l-3.684,4.981L273.194,58.805z M272.086,57.986
			l-4.98-3.684l3.684-4.981l4.98,3.684L272.086,57.986z M265.999,53.483l-4.982-3.684l3.684-4.98l4.982,3.684L265.999,53.483z
			 M259.909,48.981l-4.98-3.684l3.684-4.981l4.98,3.684L259.909,48.981z M253.821,44.479l-4.982-3.684l3.684-4.982l4.982,3.685
			L253.821,44.479z M247.731,39.977l-4.98-3.684l3.682-4.981l4.982,3.684L247.731,39.977z M241.643,35.474l-4.982-3.684l3.684-4.981
			l4.982,3.685L241.643,35.474z M240.823,36.581l-3.684,4.982l-4.98-3.685l3.684-4.981L240.823,36.581z M231.051,37.061
			l-4.982-3.684l3.684-4.982l4.982,3.685L231.051,37.061z M230.233,38.168l-3.686,4.981l-4.98-3.684l3.684-4.982L230.233,38.168z
			 M220.459,38.647l-4.982-3.684l3.684-4.982l4.982,3.684L220.459,38.647z M219.641,39.755l-3.684,4.98l-4.982-3.684l3.684-4.981
			L219.641,39.755z M209.868,40.233l-4.982-3.684l3.684-4.981l4.982,3.684L209.868,40.233z M209.049,41.341l-3.684,4.982
			l-4.982-3.684l3.684-4.982L209.049,41.341z M204.545,47.431l-3.684,4.98l-4.98-3.684l3.684-4.98L204.545,47.431z M200.043,53.519
			l-3.684,4.982l-4.98-3.684l3.684-4.982L200.043,53.519z M195.542,59.608l-3.684,4.982l-4.982-3.684l3.684-4.982L195.542,59.608z
			 M191.04,65.697l-3.684,4.981l-4.982-3.684l3.684-4.98L191.04,65.697z M186.536,71.786l-3.682,4.981l-4.982-3.684l3.684-4.981
			L186.536,71.786z M182.034,77.874l-3.684,4.983l-4.98-3.684l3.684-4.983L182.034,77.874z M177.532,83.964l-3.684,4.981
			l-4.98-3.683l3.682-4.981L177.532,83.964z M174.137,90.872l4.982,3.684l-3.686,4.981l-4.98-3.684L174.137,90.872z
			 M175.723,101.464l4.982,3.684l-3.684,4.982l-4.982-3.684L175.723,101.464z M176.204,111.237l-3.684,4.981l-4.982-3.685
			l3.684-4.981L176.204,111.237z M172.807,118.145l4.982,3.684l-3.684,4.982l-4.982-3.684L172.807,118.145z M178.897,122.646
			l4.98,3.685l-3.684,4.981l-4.982-3.684L178.897,122.646z M184.985,127.149l4.982,3.684l-3.684,4.982l-4.982-3.684L184.985,127.149
			z M191.075,131.651l4.982,3.684l-3.684,4.982l-4.982-3.684L191.075,131.651z M197.165,136.154l4.98,3.684l-3.684,4.982
			l-4.982-3.684L197.165,136.154z M203.252,140.656l4.982,3.685l-3.684,4.982l-4.982-3.684L203.252,140.656z M209.342,145.159
			l4.982,3.683l-3.686,4.982l-4.98-3.684L209.342,145.159z M210.161,144.052l3.684-4.982l4.982,3.685l-3.684,4.981L210.161,144.052z
			 M214.663,137.963l3.684-4.982l4.982,3.685l-3.684,4.981L214.663,137.963z M224.436,137.483l4.982,3.684l-3.684,4.982
			l-4.982-3.685L224.436,137.483z M225.254,136.376l3.684-4.982l4.982,3.684l-3.684,4.982L225.254,136.376z M229.758,130.286
			l3.682-4.98l4.982,3.684l-3.684,4.981L229.758,130.286z M239.53,129.808l4.982,3.684l-3.684,4.981l-4.982-3.684L239.53,129.808z
			 M240.348,128.7l3.684-4.982l4.982,3.685l-3.684,4.982L240.348,128.7z M244.852,122.611l3.682-4.981l4.982,3.684l-3.684,4.981
			L244.852,122.611z M249.354,116.522l3.684-4.981l4.98,3.684l-3.684,4.981L249.354,116.522z M253.856,110.434l3.684-4.981
			l4.982,3.684l-3.686,4.982L253.856,110.434z M258.358,104.345l3.684-4.982l4.982,3.684l-3.684,4.982L258.358,104.345z
			 M262.86,98.255l3.684-4.981l4.982,3.684l-3.684,4.982L262.86,98.255z M267.364,92.166l3.684-4.982l4.982,3.685l-3.686,4.982
			L267.364,92.166z M271.866,86.077l3.684-4.982l4.982,3.684l-3.684,4.982L271.866,86.077z M276.368,79.987l3.684-4.981l4.982,3.684
			l-3.684,4.982L276.368,79.987z M279.764,73.08l-4.982-3.684l3.684-4.981l4.98,3.684L279.764,73.08z M281.381,47.733l4.982,3.684
			l-3.686,4.983l-4.982-3.685L281.381,47.733z M275.292,43.231l4.982,3.684l-3.686,4.982l-4.98-3.684L275.292,43.231z
			 M269.204,38.729l4.982,3.684l-3.686,4.983l-4.982-3.684L269.204,38.729z M263.114,34.227l4.982,3.684l-3.684,4.983l-4.982-3.684
			L263.114,34.227z M257.026,29.724l4.982,3.684l-3.686,4.983l-4.982-3.684L257.026,29.724z M250.936,25.222l4.982,3.684
			l-3.686,4.982l-4.98-3.684L250.936,25.222z M244.846,20.719l4.982,3.684l-3.684,4.983l-4.982-3.685L244.846,20.719z
			 M238.758,16.216l4.98,3.684l-3.684,4.983l-4.982-3.685L238.758,16.216z M234.254,22.306l4.982,3.685l-3.684,4.981l-4.982-3.684
			L234.254,22.306z M228.167,17.804l4.98,3.684l-3.684,4.981l-4.98-3.684L228.167,17.804z M223.663,23.893l4.982,3.684l-3.684,4.981
			l-4.982-3.684L223.663,23.893z M217.575,19.39l4.982,3.684l-3.686,4.982l-4.98-3.684L217.575,19.39z M213.073,25.479l4.98,3.684
			l-3.684,4.981l-4.98-3.684L213.073,25.479z M206.983,20.977l4.982,3.684l-3.684,4.982l-4.982-3.685L206.983,20.977z
			 M202.481,27.065l4.98,3.684l-3.684,4.982l-4.98-3.684L202.481,27.065z M197.979,33.154l4.98,3.685l-3.684,4.981l-4.982-3.684
			L197.979,33.154z M193.475,39.244l4.982,3.684l-3.684,4.981l-4.982-3.684L193.475,39.244z M188.973,45.333l4.982,3.684
			l-3.684,4.982l-4.982-3.685L188.973,45.333z M184.471,51.422l4.982,3.684l-3.686,4.982l-4.982-3.684L184.471,51.422z
			 M179.967,57.511l4.982,3.685l-3.684,4.981l-4.982-3.684L179.967,57.511z M175.465,63.601l4.982,3.684l-3.684,4.98l-4.982-3.684
			L175.465,63.601z M170.963,69.688l4.982,3.684l-3.684,4.983l-4.982-3.685L170.963,69.688z M166.461,75.778l4.982,3.684
			l-3.684,4.981l-4.982-3.684L166.461,75.778z M163.256,90.532l-4.982-3.684l3.686-4.982l4.982,3.685L163.256,90.532z
			 M164.364,91.352l3.684-4.981l4.982,3.683l-3.684,4.981L164.364,91.352z M169.633,96.961l4.982,3.684l-3.684,4.982l-4.982-3.684
			L169.633,96.961z M161.448,108.032l3.684-4.981l4.982,3.684l-3.684,4.981L161.448,108.032z M163.034,118.624l3.684-4.982
			l4.982,3.685l-3.684,4.982L163.034,118.624z M169.602,132.899l-4.98-3.684l3.684-4.981l4.98,3.683L169.602,132.899z
			 M175.692,137.401l-4.982-3.684l3.684-4.981l4.982,3.684L175.692,137.401z M181.782,141.904l-4.982-3.685l3.684-4.98l4.982,3.684
			L181.782,141.904z M187.87,146.407l-4.98-3.685l3.684-4.981l4.98,3.684L187.87,146.407z M193.959,150.909l-4.982-3.683
			l3.684-4.982l4.982,3.684L193.959,150.909z M200.047,155.411l-4.98-3.684l3.684-4.981l4.98,3.684L200.047,155.411z
			 M206.137,159.915l-4.982-3.684l3.684-4.982l4.982,3.684L206.137,159.915z M212.227,164.417l-4.982-3.684l3.684-4.982l4.982,3.684
			L212.227,164.417z M216.729,158.327l-4.982-3.684l3.684-4.982l4.982,3.684L216.729,158.327z M221.231,152.239l-4.98-3.686
			l3.684-4.981l4.982,3.684L221.231,152.239z M227.321,156.741l-4.982-3.684l3.684-4.982l4.982,3.684L227.321,156.741z
			 M231.823,150.651l-4.98-3.683l3.684-4.982l4.98,3.685L231.823,150.651z M236.327,144.563l-4.982-3.684l3.684-4.982l4.982,3.684
			L236.327,144.563z M242.415,149.065l-4.982-3.684l3.686-4.982l4.98,3.685L242.415,149.065z M246.918,142.976l-4.982-3.684
			l3.684-4.981l4.98,3.684L246.918,142.976z M251.42,136.887l-4.982-3.684l3.684-4.982l4.982,3.684L251.42,136.887z
			 M255.922,130.798l-4.982-3.685l3.684-4.981l4.982,3.685L255.922,130.798z M260.424,124.709l-4.982-3.684l3.684-4.981l4.982,3.684
			L260.424,124.709z M264.926,118.62l-4.982-3.684l3.684-4.982l4.982,3.685L264.926,118.62z M269.428,112.531l-4.98-3.685
			l3.684-4.981l4.982,3.684L269.428,112.531z M273.932,106.442l-4.982-3.685l3.684-4.981l4.982,3.684L273.932,106.442z
			 M278.434,100.353l-4.982-3.684l3.684-4.982l4.982,3.684L278.434,100.353z M282.936,94.263l-4.98-3.684l3.684-4.981l4.98,3.684
			L282.936,94.263z M291.124,83.192l-3.684,4.982l-4.982-3.685l3.684-4.981L291.124,83.192z M285.852,77.582l-4.982-3.684
			l3.684-4.981l4.982,3.684L285.852,77.582z"/>
		<polygon fill="#FAA61A" points="88.549,291.727 66.684,275.559 79.046,266.077 93.993,277.129 		"/>
		
			<rect x="101.168" y="202.563" transform="matrix(0.804 0.5946 -0.5946 0.804 163.8925 -18.7979)" fill="#FAA61A" width="18.588" height="73.321"/>
		<g>
			<path fill="#FAA61A" d="M143.196,185.858c-1.752-1.135-3.516-2.232-5.287-3.281c-0.787,2.352-1.568,4.418-2.324,6.227
				c1.83,1.045,3.537,2.057,5.123,3.039C141.59,189.883,142.422,187.887,143.196,185.858z"/>
			<path fill="#FAA61A" d="M144.227,155.708c-1.48,8.984-3.131,16.182-4.797,21.965c1.836,1.068,3.672,2.17,5.5,3.336
				c2.064-6.164,3.668-12.477,4.889-18.572c-0.742-3.844-1.352-7.588-1.809-11.111C146.833,152.864,145.555,154.309,144.227,155.708
				z"/>
			<path fill="#FAA61A" d="M157.215,196.331c-1.57-1.367-3.188-2.699-4.85-3.986c-1.662,1.287-3.281,2.619-4.852,3.986
				c1.828,1.297,3.436,2.518,4.852,3.664C153.78,198.848,155.387,197.627,157.215,196.331z"/>
			<path fill="#FAA61A" d="M152.366,84.622c-1.486,5.201-2.518,10.39-3.09,15.492c1.15,9.41,0.625,18.471-1.576,26.646
				c-0.59,7.047-1.275,13.429-2.033,19.195c2.434-3.57,4.465-7.441,6.039-11.584c0.049,3.217,0.26,6.951,0.66,11.027
				c0.398-4.076,0.609-7.811,0.658-11.027c1.574,4.143,3.605,8.014,6.041,11.584c-0.76-5.767-1.445-12.148-2.035-19.195
				c-2.201-8.176-2.727-17.236-1.574-26.646C154.883,95.012,153.85,89.823,152.366,84.622z"/>
			<path fill="#FAA61A" d="M274.022,18.318c-28.967-21.419-75.586-7.495-104.125,31.103c-6.418,8.679-11.369,17.864-14.863,27.135
				c1.217,3.398,2.266,6.822,3.115,10.261c3.221-11.424,8.785-22.968,16.73-33.712c26.506-35.846,69.242-49.188,95.459-29.805
				c26.215,19.384,25.98,64.154-0.525,100.002c-26.508,35.847-69.246,49.191-95.461,29.806c-4.322-3.197-7.912-7.096-10.797-11.521
				c0.496,4.112,1.039,8.046,1.633,11.783c1.697,1.689,3.52,3.27,5.48,4.721c8.15,6.025,17.697,9.252,27.848,9.92
				c-7.322,2.365-17.186,6.469-27.264,12.031c0.781,2.41,1.553,4.498,2.301,6.32c11.303-6.084,26.742-13.111,47.959-20.924
				c-0.004-0.004-0.002-0.01-0.004-0.016c19.303-5.389,38.666-18.665,53.285-38.437C303.334,88.39,302.987,39.736,274.022,18.318z"
				/>
			<path fill="#FAA61A" d="M143.741,199.793c-2.713,2.625-5.221,5.371-7.43,8.236c2.213,1.637,4.842,3.582,4.842,3.582
				c1.027-0.746,2.396-3.615,7.373-8.283C147.131,202.225,145.547,201.047,143.741,199.793z"/>
			<path fill="#FAA61A" d="M133.483,193.356c-2.799,5.486-4.945,7.492-5.338,8.637c0,0,2.631,1.945,4.844,3.582
				c2.025-2.859,3.863-5.953,5.535-9.197C136.915,195.374,135.245,194.368,133.483,193.356z"/>
			<path fill="#FAA61A" d="M161.534,185.858c0.773,2.029,1.605,4.025,2.488,5.984c1.588-0.982,3.293-1.994,5.123-3.039
				c-0.756-1.809-1.535-3.875-2.324-6.227C165.051,183.625,163.286,184.723,161.534,185.858z"/>
		</g>
	</g>
	<g>
		<g>
			
				<line fill="none" stroke="#D11A6F" stroke-width="1.3769" stroke-miterlimit="10" x1="131.194" y1="154.213" x2="33.37" y2="21.917"/>
			
				<line fill="none" stroke="#D11A6F" stroke-width="1.3769" stroke-miterlimit="10" x1="151.92" y1="93.083" x2="97.891" y2="20.014"/>
			
				<line fill="none" stroke="#D11A6F" stroke-width="1.3769" stroke-miterlimit="10" x1="125.106" y1="158.717" x2="27.281" y2="26.419"/>
			
				<line fill="none" stroke="#D11A6F" stroke-width="1.3769" stroke-miterlimit="10" x1="152.901" y1="107.147" x2="84.913" y2="15.198"/>
			
				<line fill="none" stroke="#D11A6F" stroke-width="1.3769" stroke-miterlimit="10" x1="119.016" y1="163.219" x2="21.192" y2="30.921"/>
			
				<line fill="none" stroke="#D11A6F" stroke-width="1.3769" stroke-miterlimit="10" x1="153.702" y1="120.966" x2="73.229" y2="12.135"/>
			
				<line fill="none" stroke="#D11A6F" stroke-width="1.3769" stroke-miterlimit="10" x1="110.926" y1="165.014" x2="16.945" y2="37.914"/>
			
				<line fill="none" stroke="#D11A6F" stroke-width="1.3769" stroke-miterlimit="10" x1="151.366" y1="130.544" x2="63.252" y2="11.379"/>
			
				<line fill="none" stroke="#D11A6F" stroke-width="1.3769" stroke-miterlimit="10" x1="102.379" y1="166.194" x2="14.199" y2="46.938"/>
			
				<line fill="none" stroke="#D11A6F" stroke-width="1.3769" stroke-miterlimit="10" x1="147.459" y1="137.999" x2="53.479" y2="10.899"/>
			
				<line fill="none" stroke="#D11A6F" stroke-width="1.3769" stroke-miterlimit="10" x1="92.36" y1="165.379" x2="11.998" y2="56.698"/>
			
				<line fill="none" stroke="#D11A6F" stroke-width="1.3769" stroke-miterlimit="10" x1="143.374" y1="145.209" x2="45.548" y2="12.912"/>
			
				<line fill="none" stroke="#D11A6F" stroke-width="1.3769" stroke-miterlimit="10" x1="80.173" y1="161.637" x2="10.683" y2="67.658"/>
			
				<line fill="none" stroke="#D11A6F" stroke-width="1.3769" stroke-miterlimit="10" x1="137.284" y1="149.711" x2="39.458" y2="17.414"/>
			
				<line fill="none" stroke="#D11A6F" stroke-width="1.3769" stroke-miterlimit="10" x1="65.012" y1="153.87" x2="12.644" y2="83.048"/>
			
				<line fill="none" stroke="#D11A6F" stroke-width="1.3769" stroke-miterlimit="10" x1="132.977" y1="50.58" x2="32.232" y2="125.075"/>
			
				<line fill="none" stroke="#D11A6F" stroke-width="1.3769" stroke-miterlimit="10" x1="90.206" y1="16.278" x2="11.602" y2="74.401"/>
			
				<line fill="none" stroke="#D11A6F" stroke-width="1.3769" stroke-miterlimit="10" x1="136.374" y1="57.487" x2="36.735" y2="131.164"/>
			
				<line fill="none" stroke="#D11A6F" stroke-width="1.3769" stroke-miterlimit="10" x1="97.891" y1="20.014" x2="12.644" y2="83.048"/>
			
				<line fill="none" stroke="#D11A6F" stroke-width="1.3769" stroke-miterlimit="10" x1="81.829" y1="13.055" x2="11.251" y2="65.243"/>
			
				<line fill="none" stroke="#D11A6F" stroke-width="1.3769" stroke-miterlimit="10" x1="72.206" y1="10.751" x2="11.315" y2="55.775"/>
			
				<line fill="none" stroke="#D11A6F" stroke-width="1.3769" stroke-miterlimit="10" x1="153.25" y1="120.354" x2="92.36" y2="165.379"/>
			
				<line fill="none" stroke="#D11A6F" stroke-width="1.3769" stroke-miterlimit="10" x1="152.485" y1="111.503" x2="83.291" y2="162.667"/>
			
				<line fill="none" stroke="#D11A6F" stroke-width="1.3769" stroke-miterlimit="10" x1="152.78" y1="101.866" x2="74.636" y2="159.647"/>
			
				<line fill="none" stroke="#D11A6F" stroke-width="1.3769" stroke-miterlimit="10" x1="140.875" y1="63.575" x2="42.252" y2="136.501"/>
			
				<line fill="none" stroke="#D11A6F" stroke-width="1.3769" stroke-miterlimit="10" x1="105.299" y1="23.954" x2="15.072" y2="90.672"/>
			
				<line fill="none" stroke="#D11A6F" stroke-width="1.3769" stroke-miterlimit="10" x1="144.547" y1="70.279" x2="47.494" y2="142.045"/>
			
				<line fill="none" stroke="#D11A6F" stroke-width="1.3769" stroke-miterlimit="10" x1="111.37" y1="28.884" x2="18.19" y2="97.784"/>
			
				<line fill="none" stroke="#D11A6F" stroke-width="1.3769" stroke-miterlimit="10" x1="147.389" y1="77.596" x2="53.378" y2="147.11"/>
			
				<line fill="none" stroke="#D11A6F" stroke-width="1.3769" stroke-miterlimit="10" x1="117.534" y1="33.745" x2="20.201" y2="105.716"/>
			
				<line fill="none" stroke="#D11A6F" stroke-width="1.3769" stroke-miterlimit="10" x1="149.864" y1="85.185" x2="59.819" y2="151.768"/>
			
				<line fill="none" stroke="#D11A6F" stroke-width="1.3769" stroke-miterlimit="10" x1="122.866" y1="39.22" x2="24.244" y2="112.146"/>
			
				<line fill="none" stroke="#D11A6F" stroke-width="1.3769" stroke-miterlimit="10" x1="151.92" y1="93.083" x2="66.674" y2="156.116"/>
			
				<line fill="none" stroke="#D11A6F" stroke-width="1.3769" stroke-miterlimit="10" x1="128.938" y1="44.147" x2="27.73" y2="118.986"/>
		</g>
		<g>
			<polygon fill="#FAA61A" points="216.18,291.727 238.045,275.559 225.684,266.077 210.737,277.129 			"/>
			
				<rect x="184.972" y="202.562" transform="matrix(-0.8041 0.5946 -0.5946 -0.8041 492.7 316.0687)" fill="#FAA61A" width="18.59" height="73.322"/>
			<path fill="#FAA61A" d="M83.223,165.422c-0.003,0.006-0.002,0.012-0.004,0.016c72.332,26.635,77.582,44.158,80.357,46.174
				c0,0,2.629-1.945,4.844-3.582c-15.557-20.17-45.496-34.623-62.207-40.02c10.15-0.668,19.697-3.895,27.848-9.92
				c8.148-6.027,14.033-14.209,17.645-23.718c0.266,17.558,5.309,50.417,20.035,71.203c2.215-1.637,4.844-3.582,4.844-3.582
				c-1.113-3.244-16.328-13.398-20.6-90.36c-0.004,0-0.012-0.002-0.016-0.001c0.504-20.036-6.516-42.439-21.137-62.211
				C106.293,10.823,59.675-3.101,30.709,18.318C1.743,39.736,1.396,88.39,29.936,126.985
				C44.556,146.758,63.918,160.034,83.223,165.422z M130.377,153.108c-26.215,19.385-68.952,6.041-95.459-29.806
				C8.412,87.454,8.178,42.684,34.393,23.3s68.951-6.041,95.459,29.805C156.358,88.952,156.592,133.724,130.377,153.108z"/>
		</g>
	</g>
</g>
</svg>
