<?xml version="1.0" encoding="utf-8"?>
<!-- Generator: Adobe Illustrator 16.0.0, SVG Export Plug-In . SVG Version: 6.00 Build 0)  -->
<!DOCTYPE svg PUBLIC "-//W3C//DTD SVG 1.1//EN" "http://www.w3.org/Graphics/SVG/1.1/DTD/svg11.dtd">
<svg version="1.1" id="Calque_1" xmlns="http://www.w3.org/2000/svg" xmlns:xlink="http://www.w3.org/1999/xlink" x="0px" y="0px"
	 width="306.757px" height="299.991px" viewBox="0 0 306.757 299.991" enable-background="new 0 0 306.757 299.991"
	 xml:space="preserve">
<g>
	<g>
		<path fill="#D11A6F" d="M295.277,68.066l-1.107-0.818l-3.139,4.245l-4.982-3.685l3.684-4.98l4.014,2.968l0.818-1.107l-4.014-2.968
			l3.412-4.614l-1.107-0.818l-3.412,4.614l-4.98-3.684l3.684-4.983l5.535,4.093l0.818-1.107l-5.535-4.093l2.797-3.781l-1.107-0.818
			l-2.796,3.781l-4.983-3.685l6.141-8.303l-1.107-0.818l-6.14,8.303l-4.981-3.684l7.981-10.794l-1.107-0.818l-7.981,10.794
			l-4.981-3.684l7.981-10.794l-1.107-0.818l-7.98,10.793l-4.982-3.684l7.98-10.793l-1.107-0.818l-7.98,10.793l-4.982-3.685
			l7.982-10.793l-1.107-0.818l-7.981,10.793l-4.981-3.684l7.98-10.793l-1.107-0.818l-7.98,10.793l-4.982-3.685l6.139-8.303
			l-1.107-0.818l-6.139,8.303l-4.982-3.685l2.456-3.32l-1.107-0.818l-2.456,3.32l-5.535-4.093l-0.818,1.107l5.535,4.093
			l-3.684,4.982l-4.982-3.684l3.07-4.152l-1.107-0.818l-3.07,4.152l-4.566-3.377l-0.818,1.107l4.566,3.377l-3.684,4.98l-4.981-3.684
			l1.978-2.675l-1.107-0.818l-1.977,2.675l-2.354-1.739l-0.818,1.107l2.353,1.739l-3.685,4.982l-5.535-4.094l-0.409,0.554
			l-0.554-0.409l-4.094,5.535l-2.352-1.739l-0.818,1.107l2.352,1.739l-1.723,2.329c0.354,0.295,0.705,0.594,1.049,0.9l1.781-2.411
			l4.982,3.684l-2.411,3.261c0.302,0.366,0.601,0.735,0.89,1.112l2.629-3.554l4.98,3.684l-3.684,4.981l-1-0.74
			c0.527,0.912,1.019,1.849,1.478,2.805l4.794,3.545l-2.287,3.094c0.158,0.568,0.301,1.145,0.438,1.725l2.957-4l4.981,3.685
			l-3.685,4.982l-3.88-2.87c0.12,0.643,0.225,1.291,0.315,1.945l2.746,2.031l-2.349,3.178c0.009,0.798-0.011,1.591-0.048,2.381
			l3.504-4.739l4.982,3.684l-3.684,4.981l-4.824-3.567c-0.031,0.544-0.067,1.087-0.119,1.626l4.125,3.049l-3.685,4.982l-1.683-1.244
			c-0.129,0.473-0.266,0.942-0.41,1.408l1.273,0.943l-3.555,4.807c-2.215,4.55-5.25,8.653-8.943,12.095l-0.189,0.257l-0.053-0.039
			c-0.345,0.317-0.689,0.635-1.047,0.939l0.281,0.207l-3.686,4.982l-1.859-1.375c-0.424,0.26-0.85,0.518-1.285,0.762l2.326,1.721
			l-3.684,4.981l-4.98-3.684l0.149-0.202c-0.743,0.266-1.495,0.512-2.259,0.737l-3.5,4.735l-4.375-3.233
			c-0.93,0.085-1.855,0.145-2.777,0.167l-3.441,4.653l-4.982-3.684l1.076-1.455c-0.508-0.08-1.016-0.165-1.518-0.264l-0.665,0.899
			l-2.091-1.546c-0.814-0.22-1.619-0.458-2.414-0.727c0.029,0.24,0.063,0.48,0.09,0.721l3.596,2.659l-3.098,4.191
			c0.035,0.992,0.043,1.981,0.045,2.97l4.641,3.431l-3.684,4.982l-0.582-0.43c0.071,1.086,0.146,2.162,0.223,3.23l0.647-0.875
			l4.982,3.684l-3.684,4.982l-1.416-1.047c0.053,0.616,0.108,1.223,0.163,1.832l0.434,0.321l-0.361,0.489
			c0.063,0.689,0.126,1.378,0.191,2.059l1.277-1.729l4.982,3.683l-5.283,7.145c0.08,0.669,0.162,1.326,0.244,1.985l6.146-8.311
			l4.981,3.684l-7.98,10.794l1.107,0.818l7.98-10.794l4.982,3.685l-7.98,10.793l1.107,0.818l7.98-10.793l4.982,3.684l-7.982,10.793
			l1.107,0.818l7.981-10.792l4.981,3.683l-7.98,10.793l1.107,0.818l7.98-10.793l4.982,3.684l-5.979,8.086l1.107,0.818l5.979-8.086
			l4.981,3.686l-3.521,4.764l1.107,0.818l3.521-4.764l5.536,4.094l0.409-0.555l0.554,0.41l4.093-5.537l4.014,2.969l0.818-1.107
			l-4.014-2.967l3.686-4.982l4.98,3.684l-2.498,3.379l1.107,0.818l2.498-3.379l2.076,1.535l0.818-1.107l-2.076-1.535l3.685-4.982
			l5.535,4.094l0.818-1.107l-5.534-4.093l3.684-4.981l4.98,3.684l-2.432,3.289l1.107,0.818l2.432-3.289l1.8,1.33l0.818-1.107
			l-1.8-1.33l3.686-4.982l3.736,2.763l0.818-1.107l-3.736-2.763l3.684-4.98l5.119,3.785l0.818-1.107l-5.119-3.785l3.684-4.982
			l5.857,4.331l0.818-1.107l-5.857-4.331l3.684-4.981l6.874,5.083l0.818-1.107l-6.874-5.082l3.684-4.982l6.875,5.083l0.818-1.107
			l-6.874-5.083l3.684-4.981l6.874,5.083l0.818-1.107l-6.873-5.083l3.684-4.981l5.857,4.331l0.818-1.107l-5.857-4.331l3.684-4.982
			l5.398,3.991l0.818-1.107l-5.398-3.991l3.685-4.982l2.906,2.149l0.818-1.107l-2.905-2.148l3.684-4.981l1.521,1.125l0.818-1.107
			l-1.521-1.125l4.094-5.536l-0.555-0.409l0.41-0.554l-5.536-4.093l3.683-4.981l2.077,1.535l0.818-1.107l-2.075-1.535
			L295.277,68.066z M288.625,62.008l-3.684,4.981l-4.98-3.684l3.683-4.98L288.625,62.008z M225.925,34.482l4.982,3.685l-3.684,4.981
			l-4.982-3.684L225.925,34.482z M221.134,38.646l-4.981-3.684l3.684-4.982l4.981,3.684L221.134,38.646z M196.253,125.562
			l4.981,3.684l-3.685,4.981l-4.98-3.684L196.253,125.562z M191.462,129.724l-4.982-3.684l3.684-4.981l4.982,3.684L191.462,129.724z
			 M207.664,122.867l3.684-4.981l4.982,3.684l-3.686,4.981L207.664,122.867z M211.826,127.658l-3.684,4.982l-4.981-3.684
			l3.685-4.982L211.826,127.658z M212.166,116.778l3.684-4.981l4.982,3.684l-3.684,4.981L212.166,116.778z M236.263,96.925
			l3.685-4.982l4.981,3.684l-3.684,4.982L236.263,96.925z M240.427,101.716l-3.684,4.981l-4.982-3.684l3.684-4.981L240.427,101.716z
			 M240.767,90.835l3.684-4.981l4.98,3.684l-3.684,4.981L240.767,90.835z M245.269,84.747l3.684-4.981l4.982,3.684l-3.685,4.981
			L245.269,84.747z M247.078,67.248l-4.98-3.684l3.684-4.982l4.98,3.684L247.078,67.248z M251.869,63.083l4.982,3.684l-3.684,4.982
			l-4.982-3.684L251.869,63.083z M247.367,69.173l4.982,3.684l-3.686,4.981l-4.98-3.684L247.367,69.173z M249.771,78.658
			l3.685-4.982l4.981,3.684l-3.684,4.982L249.771,78.658z M254.275,72.568l3.684-4.981l4.98,3.684l-3.684,4.981L254.275,72.568z
			 M258.777,66.479l3.684-4.981l4.981,3.684l-3.685,4.981L258.777,66.479z M257.669,65.661l-4.982-3.684l3.685-4.982l4.981,3.684
			L257.669,65.661z M251.58,61.158l-4.98-3.684l3.684-4.981l4.981,3.684L251.58,61.158z M245.492,56.656l-4.982-3.684l3.684-4.982
			l4.982,3.684L245.492,56.656z M244.673,57.763l-3.684,4.981l-4.982-3.684l3.684-4.981L244.673,57.763z M241.278,64.67l4.981,3.684
			l-3.684,4.982l-4.982-3.684L241.278,64.67z M242.864,75.262l4.981,3.684l-3.684,4.981l-4.981-3.684L242.864,75.262z
			 M243.343,85.035l-3.684,4.982l-4.982-3.684l3.684-4.982L243.343,85.035z M238.841,91.125l-3.685,4.981l-4.981-3.684l3.684-4.981
			L238.841,91.125z M234.337,97.213l-3.684,4.981l-4.98-3.684l3.684-4.981L234.337,97.213z M229.835,103.302l-3.684,4.98
			l-4.98-3.684l3.683-4.98L229.835,103.302z M225.333,109.39l-3.684,4.982l-4.982-3.684l3.685-4.982L225.333,109.39z
			 M221.938,116.298l4.981,3.685l-3.684,4.981l-4.98-3.684L221.938,116.298z M222.757,115.192l3.684-4.982l4.982,3.684l-3.686,4.982
			L222.757,115.192z M227.259,109.102l3.684-4.981l4.982,3.684l-3.684,4.981L227.259,109.102z M237.032,108.624l4.981,3.684
			l-3.682,4.981l-4.982-3.684L237.032,108.624z M237.851,107.516l3.684-4.981l4.982,3.684l-3.685,4.982L237.851,107.516z
			 M242.353,101.427l3.684-4.982l4.982,3.685l-3.684,4.981L242.353,101.427z M246.855,95.338l3.684-4.982l4.982,3.685l-3.684,4.981
			L246.855,95.338z M251.358,89.249l3.684-4.981l4.982,3.684l-3.685,4.982L251.358,89.249z M255.861,83.16l3.684-4.982l4.982,3.685
			l-3.684,4.981L255.861,83.16z M260.363,77.07l3.684-4.981l4.982,3.685l-3.684,4.981L260.363,77.07z M264.865,70.982L268.548,66
			l4.983,3.684l-3.685,4.982L264.865,70.982z M268.261,64.074l-4.982-3.684l3.684-4.981l4.982,3.683L268.261,64.074z
			 M262.171,59.572l-4.98-3.684l3.684-4.982l4.98,3.684L262.171,59.572z M256.083,55.069l-4.982-3.684l3.684-4.981l4.982,3.684
			L256.083,55.069z M249.994,50.567l-4.981-3.685l3.684-4.981l4.981,3.685L249.994,50.567z M243.905,46.064l-4.981-3.684
			l3.684-4.982l4.982,3.685L243.905,46.064z M243.085,47.171l-3.684,4.982l-4.982-3.685l3.685-4.981L243.085,47.171z
			 M233.313,47.651l-4.981-3.685l3.684-4.981l4.982,3.684L233.313,47.651z M233.601,49.577l4.982,3.684l-3.684,4.981l-4.982-3.684
			L233.601,49.577z M235.189,60.167l4.982,3.685l-3.686,4.981l-4.981-3.684L235.189,60.167z M236.775,70.76l4.982,3.684
			l-3.684,4.981l-4.982-3.684L236.775,70.76z M237.254,80.533l-3.685,4.982l-4.98-3.684l3.684-4.982L237.254,80.533z
			 M232.751,86.622l-3.684,4.982l-4.982-3.684l3.685-4.982L232.751,86.622z M228.25,92.711l-3.684,4.981l-4.982-3.684l3.684-4.982
			L228.25,92.711z M223.748,98.8l-3.684,4.98l-4.982-3.684l3.684-4.98L223.748,98.8z M219.246,104.888l-3.686,4.982l-4.98-3.684
			l3.684-4.982L219.246,104.888z M214.742,110.978l-3.684,4.981l-4.98-3.685l3.683-4.98L214.742,110.978z M210.24,117.066
			l-3.684,4.982l-4.982-3.684l3.685-4.982L210.24,117.066z M205.738,123.156l-3.684,4.982l-4.982-3.684l3.684-4.982L205.738,123.156
			z M202.341,130.064l4.982,3.684l-3.684,4.981l-4.982-3.684L202.341,130.064z M208.431,134.566l4.981,3.684l-3.684,4.982
			l-4.981-3.684L208.431,134.566z M209.25,133.458l3.684-4.981l4.982,3.684l-3.684,4.981L209.25,133.458z M213.751,127.37
			l3.685-4.982l4.981,3.684l-3.684,4.982L213.751,127.37z M223.525,126.89l4.982,3.684l-3.684,4.982l-4.982-3.684L223.525,126.89z
			 M224.343,125.783l3.684-4.981l4.982,3.685l-3.684,4.98L224.343,125.783z M228.845,119.694l3.685-4.982l4.982,3.685l-3.685,4.982
			L228.845,119.694z M238.619,119.214l4.982,3.684l-3.684,4.982l-4.982-3.684L238.619,119.214z M239.438,118.107l3.683-4.98
			l4.982,3.684l-3.684,4.98L239.438,118.107z M243.94,112.019l3.684-4.982l4.981,3.685l-3.684,4.981L243.94,112.019z
			 M248.443,105.93l3.684-4.981l4.98,3.684l-3.684,4.981L248.443,105.93z M252.945,99.841l3.684-4.982l4.982,3.684l-3.685,4.982
			L252.945,99.841z M257.447,93.751l3.685-4.982l4.981,3.684l-3.684,4.982L257.447,93.751z M261.951,87.663l3.684-4.982l4.98,3.684
			l-3.684,4.982L261.951,87.663z M266.453,81.574l3.684-4.982l4.981,3.684l-3.684,4.981L266.453,81.574z M270.955,75.484
			l3.684-4.981l4.982,3.683l-3.684,4.982L270.955,75.484z M274.351,68.576l-4.983-3.684l3.684-4.981l4.982,3.685L274.351,68.576z
			 M273.871,58.803l3.683-4.981l4.983,3.685l-3.684,4.981L273.871,58.803z M272.763,57.985l-4.982-3.684l3.684-4.981l4.982,3.684
			L272.763,57.985z M266.673,53.482l-4.98-3.684l3.684-4.98l4.98,3.684L266.673,53.482z M260.585,48.98l-4.982-3.684l3.684-4.981
			l4.982,3.684L260.585,48.98z M254.497,44.478l-4.981-3.684l3.684-4.982l4.98,3.685L254.497,44.478z M248.408,39.975l-4.982-3.684
			l3.684-4.981l4.982,3.684L248.408,39.975z M242.318,35.472l-4.982-3.684l3.684-4.981l4.982,3.685L242.318,35.472z M241.5,36.58
			l-3.684,4.982l-4.982-3.685l3.684-4.981L241.5,36.58z M231.726,37.059l-4.982-3.684l3.685-4.982l4.981,3.685L231.726,37.059z
			 M227.513,45.074l4.98,3.684l-3.684,4.982l-4.98-3.684L227.513,45.074z M229.099,55.666l4.982,3.684l-3.684,4.982l-4.982-3.684
			L229.099,55.666z M230.685,66.257l4.982,3.684l-3.684,4.982l-4.982-3.684L230.685,66.257z M231.166,76.031l-3.684,4.981
			l-4.982-3.684l3.684-4.982L231.166,76.031z M226.664,82.12l-3.685,4.981l-4.981-3.684l3.684-4.982L226.664,82.12z M222.16,88.208
			l-3.684,4.982l-4.982-3.685l3.685-4.981L222.16,88.208z M217.658,94.297l-3.684,4.981l-4.981-3.684l3.683-4.981L217.658,94.297z
			 M213.156,100.386l-3.684,4.982l-4.982-3.684l3.684-4.983L213.156,100.386z M208.654,106.476l-3.684,4.98l-4.982-3.684
			l3.684-4.981L208.654,106.476z M204.151,112.564l-3.685,4.982l-4.981-3.684l3.685-4.982L204.151,112.564z M199.648,118.654
			l-3.684,4.981l-4.982-3.684l3.684-4.982L199.648,118.654z M189.875,119.133l-4.981-3.685l3.685-4.982l4.981,3.685L189.875,119.133
			z M189.056,120.24l-3.684,4.982l-4.982-3.684l3.684-4.982L189.056,120.24z M179.283,120.719l-4.98-3.683l3.684-4.982l4.98,3.684
			L179.283,120.719z M178.464,121.827l-3.684,4.982l-4.981-3.684l3.685-4.982L178.464,121.827z M179.572,122.645l4.982,3.685
			l-3.684,4.981l-4.982-3.684L179.572,122.645z M185.662,127.148l4.981,3.684l-3.685,4.982l-4.981-3.684L185.662,127.148z
			 M191.75,131.65l4.981,3.684l-3.684,4.982l-4.982-3.684L191.75,131.65z M197.839,136.153l4.982,3.684l-3.686,4.982l-4.98-3.684
			L197.839,136.153z M203.928,140.655l4.981,3.685l-3.684,4.982l-4.982-3.684L203.928,140.655z M210.017,145.158l4.982,3.683
			l-3.684,4.982l-4.982-3.683L210.017,145.158z M210.835,144.05l3.685-4.982l4.981,3.685l-3.684,4.981L210.835,144.05z
			 M215.339,137.961l3.684-4.982l4.981,3.685l-3.684,4.981L215.339,137.961z M225.111,137.482l4.982,3.684l-3.684,4.982
			l-4.982-3.685L225.111,137.482z M225.931,136.375l3.684-4.982l4.981,3.684l-3.685,4.982L225.931,136.375z M230.433,130.285
			l3.684-4.98l4.981,3.684l-3.683,4.981L230.433,130.285z M240.205,129.806l4.982,3.684l-3.684,4.981l-4.98-3.684L240.205,129.806z
			 M241.025,128.699l3.684-4.982l4.982,3.685l-3.686,4.982L241.025,128.699z M245.527,122.61l3.684-4.981l4.981,3.684l-3.683,4.981
			L245.527,122.61z M250.029,116.521l3.684-4.981l4.982,3.684l-3.684,4.981L250.029,116.521z M254.531,110.432l3.684-4.981
			l4.982,3.684l-3.684,4.982L254.531,110.432z M259.033,104.343l3.685-4.982l4.981,3.684l-3.684,4.982L259.033,104.343z
			 M263.537,98.253l3.684-4.981l4.982,3.684l-3.685,4.982L263.537,98.253z M268.039,92.165l3.684-4.982l4.982,3.685l-3.684,4.982
			L268.039,92.165z M272.541,86.076l3.684-4.982l4.982,3.684l-3.684,4.982L272.541,86.076z M277.043,79.986l3.685-4.981l4.981,3.684
			l-3.685,4.982L277.043,79.986z M280.439,73.079l-4.981-3.684l3.684-4.981l4.981,3.684L280.439,73.079z M282.056,47.732
			l4.982,3.684l-3.684,4.983l-4.982-3.685L282.056,47.732z M275.968,43.23l4.98,3.684l-3.684,4.982l-4.982-3.684L275.968,43.23z
			 M269.878,38.727l4.982,3.684l-3.685,4.983l-4.981-3.684L269.878,38.727z M263.791,34.225l4.981,3.684l-3.685,4.983l-4.982-3.684
			L263.791,34.225z M257.701,29.722l4.982,3.684l-3.685,4.983l-4.981-3.684L257.701,29.722z M251.612,25.22l4.981,3.684
			l-3.684,4.982l-4.982-3.684L251.612,25.22z M245.523,20.717l4.982,3.684l-3.686,4.983l-4.982-3.685L245.523,20.717z
			 M239.433,16.214l4.982,3.684l-3.685,4.983l-4.981-3.685L239.433,16.214z M234.93,22.304l4.981,3.685l-3.684,4.981l-4.98-3.684
			L234.93,22.304z M228.841,17.802l4.982,3.684l-3.684,4.981l-4.982-3.684L228.841,17.802z M224.339,23.891l4.981,3.684
			l-3.684,4.981l-4.981-3.684L224.339,23.891z M218.25,19.388l4.982,3.684l-3.684,4.982l-4.982-3.684L218.25,19.388z
			 M208.957,29.641l-4.982-3.685l3.684-4.981l4.982,3.684L208.957,29.641z M210.064,30.459l3.684-4.981l4.982,3.684l-3.684,4.981
			L210.064,30.459z M216.632,44.734l-4.982-3.684l3.684-4.981l4.982,3.685L216.632,44.734z M217.74,45.553l3.684-4.981l4.982,3.684
			l-3.684,4.981L217.74,45.553z M219.326,56.145l3.685-4.982l4.981,3.685l-3.684,4.981L219.326,56.145z M224.597,61.755l4.981,3.684
			l-3.684,4.981l-4.981-3.684L224.597,61.755z M220.094,67.843l4.981,3.685l-3.684,4.981l-4.982-3.684L220.094,67.843z
			 M215.591,73.933l4.982,3.684l-3.684,4.982l-4.982-3.684L215.591,73.933z M211.089,80.022l4.981,3.685l-3.684,4.981l-4.981-3.685
			L211.089,80.022z M206.586,86.111l4.981,3.684l-3.682,4.981l-4.982-3.684L206.586,86.111z M202.085,92.199l4.981,3.685
			l-3.685,4.982l-4.982-3.684L202.085,92.199z M197.582,98.289l4.982,3.685l-3.684,4.981l-4.982-3.684L197.582,98.289z
			 M193.08,104.377l4.982,3.685l-3.684,4.981l-4.982-3.684L193.08,104.377z M186.992,99.875l4.98,3.684l-3.684,4.981l-4.981-3.684
			L186.992,99.875z M182.488,105.964l4.982,3.684l-3.685,4.982l-4.981-3.684L182.488,105.964z M176.399,101.462l4.982,3.684
			l-3.685,4.982l-4.982-3.684L176.399,101.462z M171.896,107.551l4.982,3.685l-3.684,4.981l-4.982-3.685L171.896,107.551z
			 M162.123,108.031l3.684-4.981l4.982,3.684l-3.684,4.981L162.123,108.031z M163.71,118.623l3.684-4.982l4.982,3.685l-3.684,4.982
			L163.71,118.623z M170.279,132.898l-4.981-3.684l3.683-4.981l4.982,3.683L170.279,132.898z M176.368,137.4l-4.981-3.684
			l3.684-4.981l4.981,3.684L176.368,137.4z M182.457,141.903l-4.982-3.685l3.684-4.98l4.982,3.684L182.457,141.903z
			 M188.546,146.406l-4.982-3.685l3.684-4.981l4.982,3.684L188.546,146.406z M194.634,150.907l-4.98-3.683l3.684-4.982l4.98,3.684
			L194.634,150.907z M200.724,155.409l-4.982-3.683l3.684-4.981l4.982,3.684L200.724,155.409z M206.813,159.913l-4.981-3.684
			l3.684-4.982l4.981,3.683L206.813,159.913z M212.902,164.415l-4.982-3.684l3.685-4.982l4.981,3.684L212.902,164.415z
			 M217.405,158.325l-4.981-3.684l3.684-4.982l4.982,3.683L217.405,158.325z M221.908,152.237l-4.982-3.685l3.684-4.981l4.982,3.684
			L221.908,152.237z M227.997,156.739l-4.981-3.684l3.684-4.982l4.982,3.684L227.997,156.739z M232.5,150.649l-4.982-3.683
			l3.684-4.982l4.982,3.685L232.5,150.649z M237.001,144.561l-4.982-3.684l3.685-4.982l4.981,3.684L237.001,144.561z
			 M243.09,149.063l-4.981-3.684l3.684-4.982l4.982,3.685L243.09,149.063z M247.593,142.974l-4.982-3.684l3.684-4.981l4.982,3.684
			L247.593,142.974z M252.095,136.885l-4.982-3.684l3.685-4.982l4.981,3.684L252.095,136.885z M256.597,130.796l-4.98-3.685
			l3.683-4.981l4.981,3.685L256.597,130.796z M261.099,124.708l-4.98-3.684l3.684-4.981l4.98,3.684L261.099,124.708z
			 M265.602,118.619l-4.981-3.684l3.684-4.982l4.982,3.685L265.602,118.619z M270.105,112.53l-4.982-3.685l3.684-4.981l4.982,3.684
			L270.105,112.53z M274.607,106.441l-4.982-3.685l3.685-4.981l4.981,3.684L274.607,106.441z M279.11,100.351l-4.981-3.684
			l3.684-4.982l4.982,3.684L279.11,100.351z M283.613,94.261l-4.982-3.684l3.684-4.981l4.982,3.684L283.613,94.261z M291.798,83.191
			l-3.684,4.982l-4.982-3.685l3.684-4.981L291.798,83.191z M286.529,77.581l-4.982-3.684l3.684-4.981l4.981,3.684L286.529,77.581z"
			/>
		<polygon fill="#FAA61A" points="89.225,291.725 67.359,275.557 79.721,266.075 94.667,277.127 		"/>
		
			<rect x="101.844" y="202.56" transform="matrix(0.804 0.5946 -0.5946 0.804 164.0237 -19.2001)" fill="#FAA61A" width="18.588" height="73.322"/>
		<path fill="#FAA61A" d="M143.871,185.856c-1.75-1.135-3.516-2.232-5.287-3.281c-0.787,2.352-1.566,4.418-2.322,6.227
			c1.83,1.045,3.535,2.057,5.123,3.039C142.265,189.881,143.097,187.885,143.871,185.856z"/>
		<path fill="#FAA61A" d="M144.903,155.706c-1.479,8.984-3.132,16.182-4.796,21.965c1.834,1.068,3.67,2.17,5.498,3.336
			c2.064-6.164,3.67-12.477,4.891-18.572c-0.744-3.844-1.354-7.588-1.81-11.111C147.507,152.862,146.23,154.307,144.903,155.706z"/>
		<path fill="#FAA61A" d="M157.891,196.329c-1.571-1.367-3.188-2.699-4.851-3.986c-1.662,1.287-3.279,2.619-4.851,3.986
			c1.829,1.297,3.437,2.518,4.851,3.664C154.455,198.846,156.062,197.625,157.891,196.329z"/>
		<path fill="#FAA61A" d="M156.13,100.113c-0.131-1.164-0.292-2.334-0.471-3.506c-1.648-0.833-3.234-1.776-4.752-2.819
			c-0.391,2.118-0.723,4.23-0.957,6.325c1.15,9.41,0.625,18.471-1.576,26.646c-0.588,7.047-1.275,13.429-2.033,19.195
			c2.436-3.57,4.467-7.441,6.041-11.584c0.048,3.217,0.259,6.951,0.658,11.027c0.399-4.076,0.61-7.811,0.658-11.027
			c1.574,4.143,3.605,8.014,6.041,11.584c-0.758-5.767-1.445-12.148-2.033-19.195C155.505,118.583,154.98,109.523,156.13,100.113z"
			/>
		<path fill="#FAA61A" d="M144.416,199.792c-2.711,2.625-5.219,5.371-7.43,8.236c2.215,1.637,4.844,3.582,4.844,3.582
			c1.026-0.746,2.396-3.615,7.371-8.283C147.806,202.223,146.224,201.045,144.416,199.792z"/>
		<path fill="#FAA61A" d="M134.16,193.354c-2.801,5.486-4.946,7.492-5.339,8.637c0,0,2.63,1.945,4.845,3.582
			c2.025-2.859,3.861-5.953,5.533-9.197C137.591,195.372,135.921,194.366,134.16,193.354z"/>
		<path fill="#FAA61A" d="M162.21,185.856c0.773,2.029,1.605,4.025,2.486,5.984c1.588-0.982,3.293-1.994,5.123-3.039
			c-0.756-1.809-1.535-3.875-2.322-6.227C165.726,183.624,163.96,184.721,162.21,185.856z"/>
		<path fill="#FAA61A" d="M274.697,18.317c-21.604-15.976-53.025-12.28-79.443,6.639c1.867,1.13,3.641,2.403,5.305,3.812
			c23.863-16.375,51.484-19.496,70.455-5.469c26.215,19.384,25.98,64.154-0.525,100.002c-26.507,35.847-69.244,49.19-95.459,29.806
			c-4.324-3.197-7.912-7.096-10.798-11.521c0.495,4.112,1.038,8.046,1.632,11.782c1.699,1.689,3.521,3.27,5.482,4.721
			c8.15,6.025,17.697,9.252,27.846,9.92c-7.322,2.365-17.184,6.469-27.264,12.031c0.782,2.41,1.555,4.498,2.301,6.32
			c11.305-6.084,26.742-13.111,47.959-20.924c-0.002-0.004-0.002-0.01-0.004-0.016c19.305-5.389,38.667-18.664,53.287-38.437
			C304.009,88.388,303.664,39.735,274.697,18.317z"/>
	</g>
	<g>
		<path fill="#D11A6F" d="M153.57,112.055l-0.818-1.107l-3.184,2.354l-3.684-4.981l4.98-3.684l2.158,2.919l1.107-0.818l-2.158-2.919
			l1.893-1.399l-0.818-1.107l-1.893,1.399l-3.684-4.982l4.424-3.271c-0.409-0.265-0.809-0.542-1.207-0.82l-4.035,2.984l-3.686-4.983
			l2.768-2.046c-0.335-0.32-0.658-0.653-0.982-0.985l-2.604,1.924l-3.684-4.981l2.297-1.698c-0.268-0.373-0.523-0.754-0.779-1.137
			l-2.336,1.728l-3.684-4.981l2.965-2.191c-0.197-0.426-0.389-0.856-0.572-1.291l-3.211,2.376l-3.685-4.983l4.849-3.585
			c-0.283-1.162-0.52-2.345-0.703-3.547l-2.559-3.459l2.1-1.552c-0.018-0.569-0.021-1.136-0.016-1.701l-2.902,2.146l-3.684-4.982
			l7.518-5.559l-0.818-1.107l-7.518,5.559l-3.684-4.982l7.98-5.901l-0.818-1.107l-7.981,5.902l-3.685-4.982l6.412-4.74l-0.818-1.107
			l-6.412,4.741l-3.684-4.982l5.581-4.126l-0.818-1.107l-5.581,4.126l-3.684-4.981l3.92-2.898l-0.818-1.107l-3.92,2.898
			l-3.684-4.981l2.352-1.739l-0.818-1.107l-2.352,1.739l-4.094-5.535l-0.554,0.409l-0.409-0.554l-5.536,4.094l-3.684-4.982
			l2.352-1.739l-0.818-1.107l-2.352,1.739l-1.979-2.675l-1.107,0.818l1.979,2.675l-4.982,3.684l-3.684-4.98l4.566-3.377L82.094,12.5
			l-4.566,3.377l-3.07-4.152l-1.107,0.818l3.07,4.152l-4.981,3.684l-3.685-4.982l5.535-4.093l-0.818-1.107l-5.535,4.093l-2.456-3.32
			l-1.107,0.818l2.456,3.32l-4.982,3.685l-6.139-8.303l-1.107,0.818l6.14,8.303l-4.982,3.685l-7.98-10.793L45.67,13.32l7.98,10.793
			l-4.982,3.684l-7.981-10.793l-1.107,0.818l7.981,10.793l-4.982,3.685l-7.98-10.793l-1.107,0.818l7.981,10.793l-4.982,3.684
			l-7.98-10.793l-1.107,0.818l7.981,10.794l-4.982,3.684L22.42,30.51l-1.107,0.818l7.981,10.794l-4.981,3.684l-6.139-8.303
			l-1.107,0.818l6.14,8.303l-4.983,3.685l-2.796-3.781l-1.107,0.818l2.796,3.781l-5.535,4.093l0.818,1.107l5.535-4.093l3.685,4.983
			l-4.981,3.684l-3.412-4.614l-1.107,0.818l3.412,4.614l-4.014,2.968l0.818,1.107l4.014-2.968l3.683,4.98l-4.982,3.685l-3.139-4.245
			l-1.107,0.818l3.139,4.245l-2.076,1.535l0.818,1.107l2.077-1.535l3.683,4.981l-5.536,4.093l0.409,0.554l-0.554,0.409l4.094,5.536
			l-1.522,1.125l0.818,1.107l1.522-1.125l3.684,4.981l-2.906,2.148l0.818,1.107l2.906-2.149l3.684,4.982l-5.397,3.991l0.818,1.107
			l5.397-3.991l3.684,4.982l-5.857,4.331l0.818,1.107l5.858-4.331l3.684,4.981l-6.874,5.083l0.818,1.107l6.874-5.083l3.684,4.981
			l-6.874,5.083l0.818,1.107l6.874-5.083l3.684,4.982L37,130.609l0.818,1.107l6.874-5.083l3.683,4.981l-5.857,4.331l0.818,1.107
			l5.857-4.331l3.685,4.982l-5.12,3.785l0.818,1.107l5.12-3.785l3.684,4.98l-3.736,2.763l0.818,1.107l3.736-2.763l3.685,4.982
			l-1.799,1.33l0.818,1.107l1.799-1.33l2.432,3.289l1.107-0.818l-2.432-3.289l4.981-3.684l3.684,4.981l-5.535,4.093l0.818,1.107
			l5.535-4.094l3.684,4.982l-2.076,1.535l0.818,1.107l2.075-1.535l2.5,3.379l1.107-0.818l-2.5-3.379l4.982-3.684l3.684,4.982
			l-4.012,2.967l0.818,1.107l4.012-2.969l4.094,5.537l0.554-0.41l0.409,0.555l5.536-4.094l3.521,4.764l1.107-0.818l-3.521-4.764
			l4.981-3.686l5.979,8.086l1.107-0.818l-5.979-8.086l4.982-3.684l7.98,10.793l1.107-0.818l-7.98-10.793l4.981-3.683l7.981,10.792
			l1.107-0.818l-7.982-10.793l4.982-3.684l7.98,10.793l1.107-0.818l-7.98-10.793l4.982-3.685l7.98,10.794l1.107-0.818l-7.98-10.794
			l4.981-3.684l7.981,10.793l1.107-0.818l-7.982-10.794l4.982-3.683l5.979,8.085l1.107-0.818l-5.979-8.086l4.982-3.685l3.795,5.134
			l1.107-0.818L148.799,125l4.981-3.684l0.043,0.058l1.107-0.818l-4.545-6.146L153.57,112.055z M148.46,114.121l-4.982,3.684
			l-3.684-4.982l4.982-3.684L148.46,114.121z M63.217,75.262l3.684,4.981l-4.982,3.684l-3.684-4.981L63.217,75.262z M57.417,77.838
			l-3.685-4.981l4.982-3.684l3.684,4.981L57.417,77.838z M93.694,88.688l-3.684-4.981l4.981-3.685l3.684,4.981L93.694,88.688z
			 M99.495,86.111l3.683,4.981l-4.982,3.684l-3.682-4.981L99.495,86.111z M92.586,89.506l-4.982,3.685l-3.684-4.982l4.982-3.684
			L92.586,89.506z M89.192,82.599l-3.685-4.982l4.981-3.684l3.685,4.982L89.192,82.599z M88.084,83.417l-4.982,3.684l-3.684-4.981
			l4.982-3.685L88.084,83.417z M78.6,81.012l-3.685-4.981l4.981-3.685l3.685,4.982L78.6,81.012z M77.493,81.832l-4.982,3.684
			l-3.684-4.982l4.982-3.684L77.493,81.832z M68.008,79.425l-3.684-4.981l4.982-3.684l3.684,4.981L68.008,79.425z M67.72,81.351
			l3.684,4.982l-4.981,3.684l-3.684-4.982L67.72,81.351z M72.222,87.441l3.684,4.981l-4.982,3.684l-3.684-4.981L72.222,87.441z
			 M73.329,86.622l4.982-3.684l3.684,4.982l-4.981,3.684L73.329,86.622z M82.813,89.027l3.684,4.982l-4.98,3.684l-3.684-4.981
			L82.813,89.027z M87.316,95.117l3.683,4.98l-4.98,3.684l-3.684-4.98L87.316,95.117z M88.423,94.297l4.982-3.684l3.683,4.981
			l-4.982,3.684L88.423,94.297z M97.908,96.702l3.684,4.983l-4.982,3.684l-3.684-4.982L97.908,96.702z M102.41,102.792l3.684,4.981
			l-4.982,3.684l-3.684-4.98L102.41,102.792z M103.517,101.973l4.982-3.685l3.684,4.982l-4.982,3.684L103.517,101.973z
			 M102.699,100.866l-3.685-4.982l4.981-3.685l3.686,4.983L102.699,100.866z M100.601,85.292l4.982-3.684l3.684,4.98l-4.982,3.684
			L100.601,85.292z M99.783,84.185l-3.684-4.981l4.982-3.684l3.684,4.981L99.783,84.185z M95.281,78.096l-3.685-4.981l4.981-3.685
			l3.686,4.982L95.281,78.096z M90.778,72.007l-3.684-4.982l4.982-3.684l3.683,4.982L90.778,72.007z M89.67,72.826l-4.982,3.684
			l-3.684-4.981l4.982-3.685L89.67,72.826z M80.186,70.42l-3.684-4.981l4.982-3.684l3.684,4.981L80.186,70.42z M79.079,71.24
			l-4.982,3.684l-3.684-4.982l4.982-3.684L79.079,71.24z M69.595,68.833l-3.685-4.981l4.982-3.685l3.684,4.982L69.595,68.833z
			 M68.487,69.653l-4.981,3.684l-3.684-4.982l4.981-3.684L68.487,69.653z M59.003,67.248l-3.684-4.982l4.981-3.684l3.684,4.982
			L59.003,67.248z M57.896,68.066l-4.981,3.684l-3.684-4.982l4.981-3.684L57.896,68.066z M51.807,72.568l-4.981,3.684l-3.684-4.981
			l4.981-3.684L51.807,72.568z M52.625,73.675l3.684,4.982l-4.981,3.684l-3.684-4.982L52.625,73.675z M57.128,79.765l3.684,4.981
			l-4.981,3.684l-3.684-4.981L57.128,79.765z M61.631,85.854l3.684,4.981l-4.981,3.684l-3.684-4.981L61.631,85.854z M66.133,91.943
			l3.684,4.982l-4.982,3.684l-3.684-4.982L66.133,91.943z M70.636,98.033l3.684,4.981l-4.981,3.684l-3.684-4.981L70.636,98.033z
			 M71.743,97.213l4.981-3.684l3.684,4.981l-4.982,3.684L71.743,97.213z M81.227,99.619l3.684,4.98l-4.982,3.684l-3.683-4.98
			L81.227,99.619z M85.729,105.707l3.684,4.982l-4.98,3.684l-3.686-4.982L85.729,105.707z M86.836,104.888l4.981-3.684l3.684,4.982
			l-4.981,3.684L86.836,104.888z M96.321,107.294l3.683,4.98l-4.98,3.685l-3.685-4.981L96.321,107.294z M100.823,113.382
			l3.685,4.982l-4.982,3.684l-3.684-4.982L100.823,113.382z M101.93,112.564l4.981-3.684l3.685,4.982l-4.981,3.684L101.93,112.564z
			 M108.019,108.062l4.982-3.685l3.684,4.982l-4.982,3.684L108.019,108.062z M114.109,103.559l4.98-3.684l3.685,4.981l-4.981,3.684
			L114.109,103.559z M113.291,102.452l-3.684-4.981l4.98-3.684l3.684,4.981L113.291,102.452z M108.789,96.363l-3.686-4.982
			l4.982-3.684l3.684,4.982L108.789,96.363z M106.691,80.791l4.982-3.685l3.683,4.981l-4.982,3.684L106.691,80.791z M105.873,79.683
			l-3.684-4.982l4.981-3.684L110.854,76L105.873,79.683z M101.37,73.594l-3.685-4.982l4.982-3.685l3.684,4.982L101.37,73.594z
			 M96.867,67.504l-3.684-4.981l4.982-3.685l3.684,4.982L96.867,67.504z M92.364,61.416l-3.684-4.982l4.983-3.684l3.684,4.982
			L92.364,61.416z M91.256,62.234l-4.98,3.684l-3.684-4.981l4.98-3.684L91.256,62.234z M81.773,59.829l-3.685-4.981l4.982-3.685
			l3.684,4.982L81.773,59.829z M80.667,60.648l-4.983,3.684L72,59.349l4.982-3.684L80.667,60.648z M71.181,58.242l-3.684-4.981
			l4.982-3.684l3.684,4.981L71.181,58.242z M70.074,59.061l-4.982,3.684l-3.684-4.981l4.982-3.684L70.074,59.061z M60.589,56.656
			l-3.684-4.982l4.982-3.684l3.684,4.982L60.589,56.656z M59.482,57.474l-4.981,3.684l-3.684-4.981l4.981-3.684L59.482,57.474z
			 M53.394,61.977l-4.982,3.684l-3.684-4.982l4.982-3.684L53.394,61.977z M47.305,66.479l-4.981,3.684l-3.684-4.981l4.981-3.684
			L47.305,66.479z M41.216,70.982l-4.982,3.684l-3.684-4.982L37.532,66L41.216,70.982z M42.034,72.088l3.684,4.981l-4.982,3.685
			l-3.684-4.981L42.034,72.088z M46.537,78.177l3.684,4.982l-4.982,3.684l-3.684-4.981L46.537,78.177z M51.04,84.267l3.684,4.981
			l-4.982,3.685l-3.684-4.982L51.04,84.267z M55.542,90.356l3.684,4.982l-4.982,3.684l-3.684-4.981L55.542,90.356z M60.044,96.445
			l3.684,4.982l-4.982,3.684l-3.684-4.981L60.044,96.445z M64.547,102.535l3.684,4.981l-4.982,3.685l-3.684-4.982L64.547,102.535z
			 M69.049,108.624l3.683,4.981l-4.982,3.684l-3.683-4.981L69.049,108.624z M70.156,107.804l4.982-3.684l3.683,4.981l-4.981,3.684
			L70.156,107.804z M79.64,110.209l3.685,4.982l-4.982,3.684l-3.684-4.982L79.64,110.209z M84.143,116.298l3.684,4.982l-4.982,3.684
			l-3.684-4.981L84.143,116.298z M85.25,115.48l4.981-3.684l3.684,4.981l-4.981,3.684L85.25,115.48z M94.734,117.885l3.684,4.981
			l-4.98,3.684l-3.685-4.981L94.734,117.885z M99.236,123.974l3.685,4.982l-4.981,3.684l-3.684-4.982L99.236,123.974z
			 M100.343,123.156l4.982-3.684l3.684,4.982l-4.982,3.684L100.343,123.156z M106.433,118.654l4.982-3.685l3.684,4.982l-4.982,3.684
			L106.433,118.654z M112.522,114.151l4.981-3.685l3.685,4.982l-4.981,3.685L112.522,114.151z M118.611,109.648l4.982-3.684
			l3.684,4.982l-4.981,3.684L118.611,109.648z M124.7,105.146l4.982-3.684l3.685,4.982l-4.982,3.684L124.7,105.146z M123.88,104.039
			l-3.684-4.982l4.982-3.684l3.684,4.982L123.88,104.039z M119.378,97.95l-3.684-4.981l4.982-3.684l3.684,4.98L119.378,97.95z
			 M114.876,91.861l-3.684-4.982l4.982-3.684l3.684,4.982L114.876,91.861z M112.78,76.288l4.981-3.685l3.684,4.981l-4.982,3.684
			L112.78,76.288z M111.96,75.18l-3.684-4.981l4.982-3.684l3.684,4.981L111.96,75.18z M107.458,69.091l-3.684-4.982l4.982-3.684
			l3.684,4.982L107.458,69.091z M102.957,63.001l-3.684-4.981l4.98-3.685l3.685,4.982L102.957,63.001z M98.454,56.913l-3.684-4.981
			l4.981-3.684l3.684,4.981L98.454,56.913z M93.951,50.824l-3.683-4.982l4.981-3.684l3.684,4.982L93.951,50.824z M92.844,51.642
			l-4.982,3.685l-3.684-4.982l4.982-3.685L92.844,51.642z M83.36,49.237l-3.684-4.981l4.982-3.684l3.684,4.981L83.36,49.237z
			 M82.252,50.056L77.27,53.74l-3.683-4.982l4.982-3.684L82.252,50.056z M72.768,47.651l-3.684-4.982l4.982-3.684l3.684,4.981
			L72.768,47.651z M71.661,48.469l-4.982,3.685l-3.684-4.982l4.982-3.684L71.661,48.469z M62.176,46.064l-3.684-4.981l4.982-3.685
			l3.684,4.982L62.176,46.064z M61.069,46.882l-4.982,3.685l-3.684-4.981l4.982-3.685L61.069,46.882z M54.979,51.385l-4.981,3.684
			l-3.684-4.981l4.981-3.684L54.979,51.385z M48.891,55.888l-4.981,3.684l-3.684-4.982l4.981-3.684L48.891,55.888z M42.802,60.39
			l-4.981,3.684l-3.684-4.982l4.981-3.683L42.802,60.39z M36.713,64.892l-4.983,3.684l-3.683-4.98l4.982-3.685L36.713,64.892z
			 M35.126,75.484l-4.981,3.684l-3.684-4.982l4.981-3.683L35.126,75.484z M35.945,76.591l3.684,4.982l-4.981,3.683l-3.684-4.981
			L35.945,76.591z M40.447,82.68l3.684,4.982l-4.981,3.684l-3.684-4.982L40.447,82.68z M44.95,88.769l3.684,4.982l-4.981,3.684
			l-3.684-4.982L44.95,88.769z M49.452,94.859l3.684,4.982l-4.981,3.684l-3.684-4.982L49.452,94.859z M53.955,100.949l3.684,4.981
			l-4.981,3.684l-3.684-4.981L53.955,100.949z M58.458,107.037l3.684,4.982l-4.982,3.684l-3.684-4.981L58.458,107.037z
			 M62.96,113.126l3.683,4.98l-4.982,3.684l-3.683-4.98L62.96,113.126z M67.462,119.214l3.684,4.982l-4.982,3.684l-3.684-4.982
			L67.462,119.214z M68.569,118.396l4.982-3.685l3.684,4.982l-4.982,3.685L68.569,118.396z M78.054,120.801l3.683,4.981
			l-4.982,3.684l-3.683-4.98L78.054,120.801z M82.555,126.89l3.686,4.982l-4.982,3.684l-3.685-4.982L82.555,126.89z M83.663,126.071
			l4.982-3.684l3.684,4.982l-4.981,3.684L83.663,126.071z M93.148,128.477l3.684,4.981l-4.981,3.684l-3.684-4.981L93.148,128.477z
			 M97.65,134.566l3.684,4.982l-4.981,3.684l-3.684-4.982L97.65,134.566z M98.757,133.748l4.982-3.684l3.684,4.981l-4.982,3.684
			L98.757,133.748z M104.846,129.246l4.981-3.684l3.684,4.981l-4.98,3.684L104.846,129.246z M110.935,124.743l4.982-3.684
			l3.684,4.981l-4.982,3.684L110.935,124.743z M117.025,120.24l4.982-3.684l3.684,4.982l-4.982,3.684L117.025,120.24z
			 M123.115,115.738l4.98-3.684l3.684,4.982l-4.98,3.683L123.115,115.738z M129.203,111.236l4.982-3.685l3.684,4.981l-4.982,3.685
			L129.203,111.236z M135.292,106.733l4.982-3.684l3.684,4.981l-4.982,3.684L135.292,106.733z M134.474,105.625l-3.686-4.982
			l4.982-3.684l3.686,4.982L134.474,105.625z M129.97,99.536l-3.684-4.981l4.982-3.684l3.684,4.981L129.97,99.536z M125.468,93.447
			l-3.684-4.981l4.982-3.684l3.684,4.981L125.468,93.447z M120.966,87.359l-3.685-4.983l4.981-3.684l3.686,4.982L120.966,87.359z
			 M118.869,71.785l4.982-3.684l3.682,4.981l-4.98,3.684L118.869,71.785z M118.05,70.677l-3.684-4.981l4.981-3.683l3.684,4.98
			L118.05,70.677z M113.548,64.589l-3.684-4.982l4.98-3.684l3.684,4.982L113.548,64.589z M109.045,58.5l-3.685-4.982l4.982-3.684
			l3.684,4.982L109.045,58.5z M104.542,52.41l-3.684-4.98l4.982-3.684l3.684,4.98L104.542,52.41z M100.041,46.322l-3.684-4.982
			l4.98-3.684l3.685,4.982L100.041,46.322z M95.539,40.232l-3.685-4.981l4.981-3.684l3.684,4.981L95.539,40.232z M94.431,41.05
			l-4.982,3.684l-3.684-4.98l4.981-3.685L94.431,41.05z M84.946,38.646l-3.684-4.982l4.982-3.684l3.684,4.982L84.946,38.646z
			 M83.839,39.464l-4.981,3.684l-3.685-4.981l4.981-3.685L83.839,39.464z M74.354,37.059l-3.684-4.981l4.982-3.685l3.684,4.982
			L74.354,37.059z M73.248,37.877l-4.982,3.685l-3.684-4.982l4.981-3.684L73.248,37.877z M63.763,35.472l-3.684-4.98l4.982-3.685
			l3.684,4.981L63.763,35.472z M62.656,36.292l-4.982,3.684l-3.684-4.981l4.982-3.684L62.656,36.292z M56.566,40.794l-4.982,3.684
			l-3.683-4.981l4.981-3.685L56.566,40.794z M50.478,45.296l-4.981,3.684l-3.684-4.981l4.981-3.684L50.478,45.296z M44.389,49.798
			l-4.981,3.684l-3.684-4.98l4.981-3.684L44.389,49.798z M38.3,54.301l-4.981,3.684l-3.684-4.981l4.981-3.684L38.3,54.301z
			 M32.211,58.803l-4.982,3.685l-3.684-4.981l4.983-3.685L32.211,58.803z M30.624,69.395l-4.981,3.684l-3.683-4.981l4.981-3.684
			L30.624,69.395z M29.038,79.986l-4.982,3.685l-3.684-4.982l4.982-3.684L29.038,79.986z M29.856,81.093l3.684,4.982l-4.982,3.684
			l-3.684-4.982L29.856,81.093z M34.358,87.182l3.684,4.982l-4.982,3.685l-3.684-4.982L34.358,87.182z M38.861,93.272l3.684,4.981
			l-4.982,3.685l-3.684-4.982L38.861,93.272z M43.364,99.361l3.684,4.982l-4.982,3.684l-3.684-4.982L43.364,99.361z M47.866,105.451
			l3.684,4.981l-4.981,3.685l-3.684-4.982L47.866,105.451z M52.369,111.54l3.684,4.981l-4.982,3.684l-3.684-4.981L52.369,111.54z
			 M56.871,117.628l3.683,4.981l-4.982,3.684l-3.683-4.981L56.871,117.628z M61.373,123.716l3.684,4.982l-4.981,3.685l-3.685-4.982
			L61.373,123.716z M65.876,129.806l3.683,4.981l-4.981,3.684l-3.684-4.981L65.876,129.806z M66.983,128.988l4.982-3.684l3.683,4.98
			l-4.982,3.685L66.983,128.988z M76.467,131.392l3.684,4.982l-4.982,3.684l-3.684-4.982L76.467,131.392z M80.969,137.482
			l3.684,4.981l-4.982,3.685l-3.683-4.982L80.969,137.482z M82.077,136.664l4.982-3.685l3.684,4.982l-4.982,3.684L82.077,136.664z
			 M91.561,139.068l3.685,4.982l-4.983,3.683l-3.684-4.981L91.561,139.068z M96.064,145.158l3.684,4.982l-4.982,3.683l-3.684-4.982
			L96.064,145.158z M97.171,144.339l4.981-3.685l3.685,4.982l-4.982,3.684L97.171,144.339z M103.259,139.836l4.982-3.684
			l3.684,4.982l-4.98,3.684L103.259,139.836z M109.349,135.333l4.981-3.684l3.685,4.982l-4.982,3.684L109.349,135.333z
			 M115.438,130.832l4.981-3.684l3.685,4.982l-4.981,3.684L115.438,130.832z M121.527,126.33l4.982-3.685l3.684,4.982l-4.982,3.684
			L121.527,126.33z M127.617,121.827l4.98-3.684l3.685,4.982l-4.981,3.684L127.617,121.827z M133.705,117.325l4.982-3.685
			l3.684,4.982l-4.982,3.685L133.705,117.325z M150.046,103.529l-4.98,3.684l-3.684-4.982l4.98-3.683L150.046,103.529z
			 M145.544,97.44l-4.981,3.683l-3.685-4.982l4.98-3.683L145.544,97.44z M141.041,91.35l-4.98,3.683l-3.684-4.981l4.98-3.683
			L141.041,91.35z M136.539,85.261l-4.98,3.683l-3.684-4.981l4.98-3.683L136.539,85.261z M132.037,79.172l-4.98,3.684l-3.686-4.983
			l4.981-3.684L132.037,79.172z M133.623,68.58l-4.982,3.684l-3.683-4.98l4.982-3.684L133.623,68.58z M129.121,62.492l-4.982,3.684
			l-3.684-4.981l4.982-3.685L129.121,62.492z M124.619,56.403l-4.982,3.684l-3.684-4.982l4.982-3.684L124.619,56.403z
			 M120.117,50.313l-4.982,3.685l-3.684-4.982l4.981-3.684L120.117,50.313z M115.613,44.224l-4.981,3.684l-3.683-4.981l4.981-3.684
			L115.613,44.224z M111.111,38.135l-4.981,3.684l-3.685-4.981l4.982-3.685L111.111,38.135z M106.609,32.046l-4.982,3.684
			l-3.684-4.982l4.982-3.684L106.609,32.046z M98.423,20.975l3.684,4.981l-4.982,3.685l-3.684-4.982L98.423,20.975z M96.017,30.459
			l-4.981,3.684l-3.684-4.981l4.981-3.684L96.017,30.459z M87.831,19.388l3.684,4.982l-4.98,3.684l-3.685-4.982L87.831,19.388z
			 M85.426,28.873l-4.982,3.684l-3.684-4.981l4.982-3.684L85.426,28.873z M77.24,17.802l3.684,4.981l-4.982,3.684l-3.684-4.981
			L77.24,17.802z M74.834,27.287l-4.981,3.684l-3.684-4.981l4.982-3.685L74.834,27.287z M66.647,16.214l3.685,4.982l-4.982,3.685
			l-3.684-4.983L66.647,16.214z M60.559,20.717l3.685,4.982l-4.982,3.685l-3.685-4.983L60.559,20.717z M54.469,25.22l3.685,4.982
			l-4.982,3.684l-3.685-4.982L54.469,25.22z M48.38,29.722l3.685,4.983l-4.982,3.684l-3.685-4.983L48.38,29.722z M42.291,34.225
			l3.685,4.983l-4.982,3.684l-3.685-4.983L42.291,34.225z M36.202,38.727l3.685,4.983l-4.982,3.684l-3.685-4.983L36.202,38.727z
			 M30.113,43.23l3.685,4.982l-4.981,3.684l-3.685-4.982L30.113,43.23z M19.042,51.416l4.982-3.684l3.685,4.982l-4.982,3.685
			L19.042,51.416z M17.457,62.008l4.981-3.683l3.683,4.98L21.14,66.99L17.457,62.008z M15.87,72.599l4.982-3.684l3.684,4.981
			l-4.982,3.684L15.87,72.599z M14.282,83.191l4.982-3.684l3.684,4.981l-4.982,3.685L14.282,83.191z M18.785,89.28l4.982-3.684
			l3.684,4.981l-4.982,3.684L18.785,89.28z M23.287,95.369l4.982-3.684l3.684,4.982l-4.982,3.684L23.287,95.369z M27.79,101.458
			l4.982-3.684l3.684,4.981l-4.982,3.685L27.79,101.458z M32.292,107.547l4.982-3.684l3.684,4.981l-4.982,3.685L32.292,107.547z
			 M36.795,113.637l4.982-3.685l3.684,4.982l-4.982,3.684L36.795,113.637z M41.298,119.726l4.981-3.684l3.684,4.981l-4.981,3.684
			L41.298,119.726z M45.8,125.815l4.982-3.685l3.683,4.981l-4.981,3.685L45.8,125.815z M50.302,131.903l4.982-3.684l3.684,4.982
			l-4.982,3.684L50.302,131.903z M54.805,137.993l4.982-3.684l3.683,4.981l-4.982,3.684L54.805,137.993z M62.991,149.063
			l-3.684-4.982l4.982-3.685l3.684,4.982L62.991,149.063z M65.396,139.579l4.982-3.684l3.684,4.982l-4.982,3.684L65.396,139.579z
			 M69.898,145.668l4.982-3.685l3.684,4.982l-4.982,3.683L69.898,145.668z M78.084,156.739l-3.684-4.982l4.983-3.684l3.684,4.982
			L78.084,156.739z M80.49,147.254l4.981-3.684l3.685,4.981l-4.981,3.685L80.49,147.254z M84.993,153.342l4.982-3.683l3.683,4.982
			l-4.981,3.684L84.993,153.342z M93.179,164.415l-3.685-4.982l4.982-3.684l3.685,4.982L93.179,164.415z M99.268,159.913
			l-3.684-4.982l4.981-3.683l3.684,4.982L99.268,159.913z M105.357,155.409l-3.684-4.98l4.982-3.684l3.684,4.981L105.357,155.409z
			 M111.447,150.907l-3.684-4.982l4.98-3.684l3.684,4.982L111.447,150.907z M117.535,146.406l-3.684-4.982l4.982-3.684l3.684,4.981
			L117.535,146.406z M123.625,141.903l-3.684-4.981l4.982-3.684l3.684,4.98L123.625,141.903z M129.713,137.4l-3.684-4.981
			l4.981-3.684l3.684,4.981L129.713,137.4z M135.802,132.898l-3.684-4.982l4.982-3.683l3.683,4.981L135.802,132.898z
			 M141.891,128.396l-3.684-4.982l4.982-3.684l3.684,4.981L141.891,128.396z M152.962,120.208l-4.982,3.684l-3.683-4.98l4.981-3.685
			L152.962,120.208z"/>
		<polygon fill="#FAA61A" points="216.857,291.725 238.722,275.557 226.359,266.075 211.414,277.127 		"/>
		
			<rect x="185.649" y="202.56" transform="matrix(-0.804 0.5946 -0.5946 -0.804 493.9227 315.6447)" fill="#FAA61A" width="18.588" height="73.322"/>
		<path fill="#FAA61A" d="M156.644,111.63c0.123-4.891-0.209-9.924-0.983-15.023c-2.509-1.267-4.88-2.779-7.071-4.522
			c5.436,24.801-0.391,48.343-17.537,61.021c-26.215,19.385-68.952,6.041-95.459-29.806C9.087,87.453,8.853,42.682,35.068,23.298
			c26.215-19.384,68.952-6.041,95.459,29.805c0.939,1.27,1.836,2.554,2.709,3.844c0.217-2.91,0.734-5.751,1.539-8.482
			c-28.6-37.86-74.668-51.387-103.391-30.147C2.418,39.735,2.071,88.388,30.611,126.984c14.62,19.772,33.982,33.048,53.287,38.437
			c-0.003,0.006-0.001,0.012-0.004,0.016c72.332,26.635,77.582,44.158,80.357,46.174c0,0,2.629-1.945,4.844-3.582
			c-15.557-20.17-45.496-34.623-62.205-40.02c10.148-0.668,19.695-3.895,27.846-9.92c8.15-6.027,14.033-14.209,17.646-23.718
			c0.264,17.558,5.309,50.417,20.033,71.202c2.215-1.637,4.845-3.582,4.845-3.582c-1.114-3.244-16.329-13.398-20.601-90.359
			C156.656,111.631,156.649,111.629,156.644,111.63z"/>
	</g>
	<g>
		<circle fill="#FFFFFF" cx="174.087" cy="60.021" r="36.646"/>
		<path fill="#D11A6F" d="M176.847,23.491c0.031,0.654,0.053,1.309,0.131,1.97c1.756,15.064,15.393,25.854,30.458,24.097
			c0.563-0.065,1.106-0.183,1.663-0.28C204.697,34.882,191.841,24.608,176.847,23.491z"/>
		<path fill="#D11A6F" d="M171.298,96.549c-0.027-0.585-0.047-1.168-0.115-1.761c-1.757-15.062-15.393-25.853-30.459-24.097
			c-0.539,0.063-1.062,0.174-1.594,0.268C143.583,85.246,156.386,95.428,171.298,96.549z"/>
		<path fill="#FAA61A" d="M139.746,62.294c19.703-2.298,37.537,11.813,39.835,31.515c0.093,0.798,0.118,1.586,0.155,2.378
			c18.756-2.924,32.141-19.704,30.871-38.602c-0.729,0.131-1.449,0.282-2.191,0.369c-19.703,2.297-37.539-11.813-39.836-31.516
			c-0.101-0.866-0.131-1.722-0.168-2.575c-18.813,2.943-32.207,19.827-30.83,38.794C138.3,62.531,139.008,62.38,139.746,62.294z"/>
	</g>
</g>
</svg>
