<?xml version="1.0" encoding="utf-8"?>
<!-- Generator: Adobe Illustrator 16.0.0, SVG Export Plug-In . SVG Version: 6.00 Build 0)  -->
<!DOCTYPE svg PUBLIC "-//W3C//DTD SVG 1.1//EN" "http://www.w3.org/Graphics/SVG/1.1/DTD/svg11.dtd">
<svg version="1.1" id="Calque_1" xmlns="http://www.w3.org/2000/svg" xmlns:xlink="http://www.w3.org/1999/xlink" x="0px" y="0px"
	 width="272px" height="299.99px" viewBox="12.995 -3.5 272 299.99" enable-background="new 12.995 -3.5 272 299.99"
	 xml:space="preserve">
<g>
	<g>
		<path fill="#FFCA05" d="M218.503,167.963c-10.465,8.705-11.898,24.246-3.176,34.705c8.699,10.458,24.234,11.879,34.699,3.174
			c10.465-8.704,11.883-24.246,3.172-34.699C244.491,160.673,228.952,159.253,218.503,167.963z"/>
		<path fill="#FFCA05" d="M118.175,84.618c-9.734,8.113-11.066,22.593-2.953,32.348l48.367,58.109
			c8.113,9.749,22.594,11.067,32.336,2.96l4.5-3.741c9.746-8.12,11.07-22.594,2.957-32.342l-48.367-58.11
			c-8.113-9.754-22.594-11.073-32.34-2.959L118.175,84.618z"/>
		<path fill="#FFCA05" d="M59.093,77.309c-5.547-3.066-7.578-10.06-4.512-15.607l2.09-3.771c3.055-5.537,10.047-7.571,15.605-4.511
			l57.066,31.489c5.566,3.055,7.578,10.041,4.516,15.596l-2.074,3.782c-3.074,5.548-10.059,7.564-15.609,4.51L59.093,77.309z"/>
		<path fill="#FFCA05" d="M24.108,24.682c-3.391-5.37-1.789-12.457,3.566-15.828l3.645-2.321c5.363-3.377,12.453-1.777,15.848,3.586
			l30.785,48.749c3.383,5.363,1.785,12.457-3.586,15.846l-3.641,2.285c-5.363,3.395-12.445,1.808-15.832-3.574L24.108,24.682z"/>
		<path fill="#FFCA05" d="M190.682,223.783c9.641,0.555,16.668,3.191,22.34,6.121l-26.34-62.071
			c-1.961-4.618-7.289-6.777-11.918-4.827c-4.629,1.969-6.777,7.303-4.809,11.927L190.682,223.783z"/>
	</g>
	<g>
		<path fill="#007DB9" d="M238.757,257.604c-13.957,0-21.961-4.647-29.031-8.758c-6.527-3.789-12.16-7.059-22.684-7.059
			c-10.582,0-16.395,3.3-23.137,7.118c-7.176,4.075-15.316,8.698-29.078,8.698c-14.355,0-25.184-4.939-34.73-9.289
			c-7.672-3.502-14.305-6.527-21.508-6.527c-10.504,0-14.031,2.375-23.465,8.729l-3.07,2.059c-2.781,1.838-6.516,1.098-8.352-1.671
			c-1.852-2.768-1.105-6.503,1.668-8.353l3.02-2.028c9.988-6.729,16.012-10.786,30.199-10.786c9.82,0,18.305,3.872,26.508,7.606
			c8.844,4.039,17.996,8.209,29.73,8.209c10.582,0,16.398-3.299,23.137-7.129c7.184-4.069,15.313-8.687,29.078-8.687
			s21.715,4.617,28.738,8.687c6.582,3.83,12.273,7.129,22.977,7.129c15.844,0,23.672-7.839,26.613-10.786
			c2.355-2.369,6.176-2.351,8.52-0.012c2.359,2.356,2.359,6.169,0.012,8.52C270.366,246.824,259.6,257.604,238.757,257.604z"/>
		<path fill="#007DB9" d="M238.757,288.228c-13.957,0-21.961-4.647-29.031-8.758c-6.527-3.783-12.16-7.059-22.684-7.059
			c-10.582,0-16.395,3.3-23.137,7.118c-7.176,4.081-15.316,8.698-29.078,8.698c-14.355,0-25.184-4.939-34.73-9.289
			c-7.672-3.502-14.305-6.527-21.508-6.527c-10.504,0-14.031,2.381-23.465,8.729l-3.07,2.064c-2.781,1.838-6.516,1.092-8.352-1.67
			c-1.852-2.774-1.105-6.51,1.668-8.359l3.02-2.028c9.988-6.724,16.012-10.786,30.199-10.786c9.82,0,18.305,3.872,26.508,7.606
			c8.844,4.039,17.996,8.209,29.73,8.209c10.582,0,16.398-3.299,23.137-7.123c7.184-4.069,15.313-8.692,29.078-8.692
			s21.715,4.623,28.738,8.692c6.582,3.824,12.273,7.123,22.977,7.123c15.844,0,23.672-7.839,26.613-10.786
			c2.355-2.362,6.176-2.351,8.52-0.012c2.359,2.356,2.359,6.169,0.012,8.52C270.366,277.448,259.6,288.228,238.757,288.228z"/>
	</g>
</g>
</svg>
