<?xml version="1.0" encoding="utf-8"?>
<!-- Generator: Adobe Illustrator 16.0.0, SVG Export Plug-In . SVG Version: 6.00 Build 0)  -->
<!DOCTYPE svg PUBLIC "-//W3C//DTD SVG 1.1//EN" "http://www.w3.org/Graphics/SVG/1.1/DTD/svg11.dtd">
<svg version="1.1" id="Calque_1" xmlns="http://www.w3.org/2000/svg" xmlns:xlink="http://www.w3.org/1999/xlink" x="0px" y="0px"
	 width="300px" height="228.378px" viewBox="0 0 300 228.378" enable-background="new 0 0 300 228.378" xml:space="preserve">
<g>
	<g>
		<path fill="#0A4E9B" d="M242.225,30.739c0-12.07-9.782-21.853-21.853-21.853c-12.065,0-21.852,9.783-21.852,21.853
			c0,12.069,9.786,21.85,21.852,21.85C232.442,52.589,242.225,42.808,242.225,30.739z"/>
		<path fill="#0A4E9B" d="M266.305,90.542h-40.164l-20.169-29.585c-0.559-3.458-2.126-6.782-4.792-9.447l-2.801-3.23
			c-3.859-3.853-9.074-5.492-14.106-4.936l-37.715-26.815c-0.863-0.615-1.804-1.038-2.769-1.296c-0.01-0.004-0.028-0.006-0.041-0.01
			c-0.236-0.063-0.474-0.113-0.716-0.156c-0.049-0.009-0.095-0.017-0.146-0.025c-0.201-0.031-0.401-0.055-0.604-0.072
			c-0.098-0.009-0.192-0.016-0.286-0.021c-0.156-0.007-0.31-0.01-0.459-0.01c-0.153,0-0.302,0.003-0.456,0.01
			c-0.095,0.006-0.192,0.012-0.286,0.021c-0.205,0.016-0.412,0.042-0.615,0.074c-0.043,0.007-0.082,0.014-0.124,0.021
			c-1.501,0.259-2.952,0.906-4.188,1.978L100.63,47.628c-3.594,3.124-3.984,8.575-0.859,12.174c3.125,3.6,8.574,3.983,12.174,0.862
			l30.124-26.15l26.699,18.98l-43.923,43.921c-0.188,0.19-0.354,0.394-0.537,0.592c-0.006,0.008-0.016,0.016-0.02,0.023
			l-0.037,0.042c-0.246,0.269-0.491,0.538-0.715,0.817l-40.23,46.082H21.124c-7.101,0-12.856,5.756-12.856,12.857
			c0,7.1,5.756,12.854,12.856,12.854H89.28c0.168,0,0.332-0.018,0.501-0.023c0.114-0.006,0.229-0.008,0.344-0.018
			c4.092-0.268,7.666-2.432,9.824-5.639l35.964-41.188c15.794,8.266,42.627,22.324,42.627,22.324v60.627
			c0,7.025,5.693,12.725,12.721,12.725c7.031,0,12.725-5.699,12.725-12.725v-68.57c0-0.219-0.052-0.422-0.062-0.637
			c-0.029-0.527-0.075-1.045-0.159-1.563c-0.043-0.254-0.095-0.504-0.156-0.75c-0.144-0.621-0.329-1.223-0.568-1.816
			c-0.044-0.119-0.093-0.234-0.145-0.348c-1.108-2.588-3.024-4.846-5.705-6.258l-30.737-16.186l30.142-30.142l16.193,23.752
			c0.345,0.526,0.745,1.007,1.192,1.444c0.136,0.132,0.288,0.234,0.432,0.355c0.293,0.25,0.583,0.504,0.901,0.716
			c0.192,0.128,0.404,0.218,0.61,0.33c0.297,0.164,0.59,0.337,0.907,0.466c0.23,0.096,0.479,0.149,0.719,0.226
			c0.303,0.093,0.6,0.203,0.917,0.265c0.41,0.078,0.828,0.103,1.248,0.125c0.145,0.008,0.293,0.046,0.442,0.046h0.046
			c0.007,0,0.007,0,0.007,0h46.095c4.88,0,8.84-3.961,8.84-8.842C275.145,94.498,271.185,90.542,266.305,90.542z"/>
	</g>
	<path fill="#6DCFF6" d="M290.338,60.011c-1.47-1.009-3.478-0.639-4.485,0.83l-18.006,26.17c2.291,0.253,4.395,1.13,6.148,2.445
		l17.172-24.96C292.173,63.028,291.802,61.02,290.338,60.011z"/>
</g>
</svg>
