<?xml version="1.0" encoding="utf-8"?>
<!-- Generator: Adobe Illustrator 16.0.0, SVG Export Plug-In . SVG Version: 6.00 Build 0)  -->
<!DOCTYPE svg PUBLIC "-//W3C//DTD SVG 1.1//EN" "http://www.w3.org/Graphics/SVG/1.1/DTD/svg11.dtd">
<svg version="1.1" id="Calque_1" xmlns="http://www.w3.org/2000/svg" xmlns:xlink="http://www.w3.org/1999/xlink" x="0px" y="0px"
	 width="300px" height="190.015px" viewBox="0 0 300 190.015" enable-background="new 0 0 300 190.015" xml:space="preserve">
<path fill="#39B54A" d="M234.936,72.157c-3.763,0-7.438,0.369-10.996,1.067c-3.306-14.222-9.858-45.193-10.957-53.912
	c-1.292-10.248-5.264-9.502-10.802-9.416c-6.001,0.093-12.833-0.093-18.28-0.186c-5.446-0.093-6.924-5.446-11.078-5.446
	c-2.309,0-5.816,0.969-5.816,5.615c0,5.463,9.094,10.587,17.079,10.91c5.83,0.235,12.371,0.461,18.096,0.369
	c0.28,4.813,1.832,13.385,3.794,22.711h-97.916l-8.564-17.237c5.593,0.051,12.622,0.817,18.12-3.258
	c7.939-5.886,1.292-7.755,0.046-7.755c-4.646,0-32.389,0-38.821,0c-6.647,0-8.193,2.198-8.193,8.477c0,7.314,0.72,11.989,17.85,5.3
	l9.895,19.911l-13.234,26.51c-6.247-2.363-13.017-3.66-20.091-3.66c-31.368,0-56.797,25.429-56.797,56.796
	s25.429,56.797,56.797,56.797c29.518,0,53.772-22.518,56.532-51.313h23.991c0.252,0,1.133-0.203,1.333-0.436l62.923-72.834
	c1.346,5.732,2.645,11.035,3.685,15.167c-20.757,8.452-35.39,28.825-35.39,52.618c0,31.367,25.429,56.797,56.797,56.797
	s56.797-25.43,56.797-56.797S266.304,72.157,234.936,72.157z M89.952,91.012c10.865,7.143,18.473,18.822,20.137,32.346H73.805
	L89.952,91.012z M65.064,174.334c-25.063,0-45.382-20.318-45.382-45.381s20.318-45.381,45.382-45.381
	c5.241,0,10.271,0.9,14.954,2.535l-20.054,40.17c-1.99,4.525,1.126,8.16,3.341,8.16h46.798
	C107.395,156.912,88.27,174.334,65.064,174.334z M121.587,123.357c-1.761-17.994-11.919-33.523-26.504-42.623l9.482-18.996
	l30.617,61.619H121.587z M145.334,118.891l-31.771-63.941h87.012L145.334,118.891z M234.936,174.334
	c-25.063,0-45.381-20.318-45.381-45.381c0-18.5,11.077-34.404,26.954-41.469c3.846,13.381,11.895,39.492,12.537,41.469
	c0.738,2.271,1.107,5.576,5.89,5.576s6.297-4.523,5.097-8.4c-1.021-3.299-9.324-29.043-13.157-41.828
	c2.618-0.469,5.309-0.729,8.061-0.729c25.063,0,45.381,20.318,45.381,45.381S259.999,174.334,234.936,174.334z"/>
</svg>
