<?xml version="1.0" encoding="utf-8"?>
<!-- Generator: Adobe Illustrator 16.0.0, SVG Export Plug-In . SVG Version: 6.00 Build 0)  -->
<!DOCTYPE svg PUBLIC "-//W3C//DTD SVG 1.1//EN" "http://www.w3.org/Graphics/SVG/1.1/DTD/svg11.dtd">
<svg version="1.1" id="Calque_1" xmlns="http://www.w3.org/2000/svg" xmlns:xlink="http://www.w3.org/1999/xlink" x="0px" y="0px"
	 width="147.973px" height="300px" viewBox="0 0 147.973 300" enable-background="new 0 0 147.973 300" xml:space="preserve">
<g>
	<circle fill="#FEBC11" cx="84.003" cy="95.739" r="21.688"/>
	<path fill="#FEBC11" d="M9.4,86.759c4.896-1.123,14.722,14.402,18.947,27.319c4.227,12.918,14.752,61.158,15.549,73.837
		c0.798,12.678-2.711,37.636-5.502,50.394c-2.392-27.669-8.246-64.324-13.529-90.314C14.978,99.355,5.443,87.666,9.4,86.759z"/>
	<path fill="#FEBC11" d="M20.454,81.466c0.398-12.838,1.993-25.356,7.974-29.104c7.575-1.516,20.094,1.036,27.11,27.11
		c4.466-6.777,13.236-16.904,28.466-16.506c15.23,0.398,25.915,11.084,29.024,18.499c5.084-16.542,12.935-27.872,22.106-29.26
		c-8.93-25.583-33.267-43.938-61.896-43.938c-36.198,0-65.543,29.345-65.543,65.544c0,0.729,0.016,1.453,0.039,2.176
		C11.385,75.942,16.396,76.813,20.454,81.466z"/>
	<path fill="#FEBC11" d="M33.83,64.004c3.412-0.387,5.92,2.392,8.97,11.96c3.051,9.568,10.805,35.045,19.516,43.298
		c8.712,8.252,13.018,9.09,20.911,9.09c7.895,0,16.386,0.657,23.861-11.602c7.476-12.26,19.914-43.836,22.845-47.663
		s5.86-8.91,10.346-5.921c-0.358,8.014-1.974,31.218-4.445,42.222c-2.472,11.003-8.891,37.196-22.765,60.759
		s-38.752,50.474-39.23,94.369c8.971-25.596,16.506-38.035,22.845-45.211c-0.479,11.841,0.598,25.595,6.1,39.23
		c5.502,13.635,12.798,20.931,13.156,24.997c0.359,4.066-12.917,12.2-43.655,12.2c-30.739,0-43.896-6.34-43.896-10.646
		c0-6.1,17.94-30.141,19.854-51.55s5.892-33.729-4.23-80.494c-4.967-22.949-9.732-43.552-11.438-58.846
		C30.803,74.325,32.215,64.187,33.83,64.004z"/>
	<path fill="#00AE4D" d="M115.938,279.532c-0.121-1.38-1.457-3.801-2.836-6.047c-6.618,4.731-10.764,8.679-41.776,8.679
		c-31.588,0-37.216-7.84-39.699-9.505c-1.586,3.227-3.239,6.971-3.239,8.428c0,4.306,13.156,10.646,43.896,10.646
		C103.021,291.732,116.297,283.599,115.938,279.532z"/>
	<path fill="#00AE4D" d="M106.484,262.463c-0.672-1.265-1.343-2.604-2.003-4.021c-5.22,2.802-15.104,6.38-33.515,6.38
		c-21.189,0-25.966-4.55-31.465-7.671c-0.606,1.276-1.218,2.527-1.826,3.746c4.414,3.301,12.569,8.012,33.53,8.012
		C95.209,268.908,102.289,265.082,106.484,262.463z"/>
</g>
</svg>
