<?xml version="1.0" encoding="utf-8"?>
<!-- Generator: Adobe Illustrator 16.0.0, SVG Export Plug-In . SVG Version: 6.00 Build 0)  -->
<!DOCTYPE svg PUBLIC "-//W3C//DTD SVG 1.1//EN" "http://www.w3.org/Graphics/SVG/1.1/DTD/svg11.dtd">
<svg version="1.1" id="Calque_1" xmlns="http://www.w3.org/2000/svg" xmlns:xlink="http://www.w3.org/1999/xlink" x="0px" y="0px"
	 width="299.991px" height="167.567px" viewBox="0 0 299.991 167.567" enable-background="new 0 0 299.991 167.567"
	 xml:space="preserve">
<g>
	<g>
		
			<line fill="none" stroke="#662D91" stroke-width="2.6533" stroke-linecap="round" stroke-miterlimit="10" x1="17.112" y1="155.867" x2="54.478" y2="128.453"/>
		
			<line fill="none" stroke="#662D91" stroke-width="2.6533" stroke-linecap="round" stroke-miterlimit="10" x1="17.112" y1="138.619" x2="54.478" y2="117.617"/>
		
			<line fill="none" stroke="#662D91" stroke-width="2.6533" stroke-linecap="round" stroke-miterlimit="10" x1="17.112" y1="121.818" x2="54.478" y2="106.779"/>
		
			<line fill="none" stroke="#662D91" stroke-width="2.6533" stroke-linecap="round" stroke-miterlimit="10" x1="17.112" y1="103.908" x2="54.478" y2="95.141"/>
		
			<line fill="none" stroke="#662D91" stroke-width="2.6533" stroke-linecap="round" stroke-miterlimit="10" x1="17.112" y1="86.881" x2="54.478" y2="85.336"/>
		
			<line fill="none" stroke="#662D91" stroke-width="2.6533" stroke-linecap="round" stroke-miterlimit="10" x1="17.112" y1="69.633" x2="54.478" y2="73.614"/>
		
			<line fill="none" stroke="#662D91" stroke-width="2.6533" stroke-linecap="round" stroke-miterlimit="10" x1="17.112" y1="51.947" x2="54.478" y2="62.56"/>
		
			<line fill="none" stroke="#662D91" stroke-width="2.6533" stroke-linecap="round" stroke-miterlimit="10" x1="17.112" y1="36.022" x2="53.719" y2="51.947"/>
		
			<line fill="none" stroke="#662D91" stroke-width="2.6533" stroke-linecap="round" stroke-miterlimit="10" x1="24.294" y1="25.216" x2="24.294" y2="149.232"/>
		
			<line fill="none" stroke="#662D91" stroke-width="2.6533" stroke-linecap="round" stroke-miterlimit="10" x1="32.938" y1="32.046" x2="32.938" y2="143.264"/>
		
			<line fill="none" stroke="#662D91" stroke-width="2.6533" stroke-linecap="round" stroke-miterlimit="10" x1="41.326" y1="38.758" x2="41.326" y2="138.102"/>
		
			<line fill="none" stroke="#662D91" stroke-width="2.6533" stroke-linecap="round" stroke-miterlimit="10" x1="49.229" y1="45.469" x2="49.229" y2="132.303"/>
	</g>
	<g>
		
			<line fill="none" stroke="#662D91" stroke-width="2.6533" stroke-linecap="round" stroke-miterlimit="10" x1="283.513" y1="155.455" x2="246.147" y2="128.041"/>
		
			<line fill="none" stroke="#662D91" stroke-width="2.6533" stroke-linecap="round" stroke-miterlimit="10" x1="283.513" y1="138.207" x2="246.147" y2="117.205"/>
		
			<line fill="none" stroke="#662D91" stroke-width="2.6533" stroke-linecap="round" stroke-miterlimit="10" x1="283.513" y1="121.406" x2="246.147" y2="106.367"/>
		
			<line fill="none" stroke="#662D91" stroke-width="2.6533" stroke-linecap="round" stroke-miterlimit="10" x1="283.513" y1="103.496" x2="246.147" y2="94.729"/>
		
			<line fill="none" stroke="#662D91" stroke-width="2.6533" stroke-linecap="round" stroke-miterlimit="10" x1="283.513" y1="86.469" x2="246.147" y2="84.924"/>
		
			<line fill="none" stroke="#662D91" stroke-width="2.6533" stroke-linecap="round" stroke-miterlimit="10" x1="283.513" y1="69.221" x2="246.147" y2="73.202"/>
		
			<line fill="none" stroke="#662D91" stroke-width="2.6533" stroke-linecap="round" stroke-miterlimit="10" x1="283.513" y1="51.535" x2="246.147" y2="62.148"/>
		
			<line fill="none" stroke="#662D91" stroke-width="2.6533" stroke-linecap="round" stroke-miterlimit="10" x1="283.513" y1="35.61" x2="246.906" y2="51.535"/>
		
			<line fill="none" stroke="#662D91" stroke-width="2.6533" stroke-linecap="round" stroke-miterlimit="10" x1="276.331" y1="24.804" x2="276.331" y2="150.186"/>
		
			<line fill="none" stroke="#662D91" stroke-width="2.6533" stroke-linecap="round" stroke-miterlimit="10" x1="267.687" y1="31.634" x2="267.687" y2="143.844"/>
		
			<line fill="none" stroke="#662D91" stroke-width="2.6533" stroke-linecap="round" stroke-miterlimit="10" x1="259.299" y1="38.346" x2="259.299" y2="137.689"/>
		
			<line fill="none" stroke="#662D91" stroke-width="2.6533" stroke-linecap="round" stroke-miterlimit="10" x1="251.396" y1="45.057" x2="251.396" y2="131.891"/>
	</g>
	<g>
		
			<line fill="none" stroke="#662D91" stroke-width="2.6533" stroke-linecap="round" stroke-miterlimit="10" x1="63.099" y1="127.561" x2="237.469" y2="127.561"/>
		
			<line fill="none" stroke="#662D91" stroke-width="2.6533" stroke-linecap="round" stroke-miterlimit="10" x1="63.099" y1="116.508" x2="237.469" y2="116.508"/>
		
			<line fill="none" stroke="#662D91" stroke-width="2.6533" stroke-linecap="round" stroke-miterlimit="10" x1="63.099" y1="106.061" x2="237.469" y2="106.779"/>
		
			<line fill="none" stroke="#662D91" stroke-width="2.6533" stroke-linecap="round" stroke-miterlimit="10" x1="63.099" y1="95.141" x2="237.469" y2="95.141"/>
		
			<line fill="none" stroke="#662D91" stroke-width="2.6533" stroke-linecap="round" stroke-miterlimit="10" x1="63.099" y1="84.667" x2="237.469" y2="84.667"/>
		
			<line fill="none" stroke="#662D91" stroke-width="2.6533" stroke-linecap="round" stroke-miterlimit="10" x1="63.099" y1="74.386" x2="237.469" y2="74.386"/>
		
			<line fill="none" stroke="#662D91" stroke-width="2.6533" stroke-linecap="round" stroke-miterlimit="10" x1="63.099" y1="63.275" x2="237.469" y2="63.275"/>
		
			<line fill="none" stroke="#662D91" stroke-width="2.6533" stroke-linecap="round" stroke-miterlimit="10" x1="62.405" y1="52.796" x2="238.159" y2="52.796"/>
		
			<line fill="none" stroke="#662D91" stroke-width="2.6533" stroke-linecap="round" stroke-miterlimit="10" x1="59.036" y1="44.878" x2="241.532" y2="44.878"/>
		
			<line fill="none" stroke="#662D91" stroke-width="2.6533" stroke-linecap="round" stroke-miterlimit="10" x1="51.623" y1="36.98" x2="248.95" y2="36.98"/>
		
			<line fill="none" stroke="#662D91" stroke-width="2.6533" stroke-linecap="round" stroke-miterlimit="10" x1="41.326" y1="28.616" x2="259.237" y2="28.616"/>
		
			<line fill="none" stroke="#662D91" stroke-width="2.6533" stroke-linecap="round" stroke-miterlimit="10" x1="30.378" y1="19.848" x2="270.19" y2="19.848"/>
		<path fill="none" stroke="#662D91" stroke-width="2.6533" stroke-linecap="round" stroke-miterlimit="10" d="M75.205,127.561
			c0,0,0-69.986,0-74.764s-1.658-5.918-3.316-7.918C70.23,42.877,44.36,14.795,44.36,14.795"/>
		<path fill="none" stroke="#662D91" stroke-width="2.6533" stroke-linecap="round" stroke-miterlimit="10" d="M88.637,127.561
			c0,0,0-67.436,0-72.412c0-4.975-0.497-6.923-2.487-9.68c-1.99-2.758-23.051-30.674-23.051-30.674"/>
		<path fill="none" stroke="#662D91" stroke-width="2.6533" stroke-linecap="round" stroke-miterlimit="10" d="M102.235,127.561
			c0,0,0-68.597,0-72.412c0-3.813-0.332-5.763-2.818-9.68c-2.488-3.918-17.412-30.674-17.412-30.674"/>
		<path fill="none" stroke="#662D91" stroke-width="2.6533" stroke-linecap="round" stroke-miterlimit="10" d="M116.165,127.561
			c0,0,0-67.737,0-71.25s-0.828-7.462-2.155-10.116c-1.327-2.652-13.101-31.398-13.101-31.398"/>
		<path fill="none" stroke="#662D91" stroke-width="2.6533" stroke-linecap="round" stroke-miterlimit="10" d="M130.26,127.561
			c0,0,0-66.939,0-71.583c0-4.643-1.326-8.063-2.652-11.991c-1.326-3.929-7.961-29.191-7.961-29.191"/>
		<polyline fill="none" stroke="#662D91" stroke-width="2.6533" stroke-linecap="round" stroke-miterlimit="10" points="
			143.86,127.561 143.86,52.796 138.718,14.795 		"/>
		<path fill="none" stroke="#662D91" stroke-width="2.6533" stroke-linecap="round" stroke-miterlimit="10" d="M225.231,127.561
			c0,0,0-69.986,0-74.764s1.658-5.918,3.316-7.918c1.658-2.001,27.529-30.083,27.529-30.083"/>
		<path fill="none" stroke="#662D91" stroke-width="2.6533" stroke-linecap="round" stroke-miterlimit="10" d="M211.799,127.561
			c0,0,0-67.436,0-72.412c0-4.975,0.496-6.923,2.486-9.68c1.99-2.758,23.051-30.674,23.051-30.674"/>
		<path fill="none" stroke="#662D91" stroke-width="2.6533" stroke-linecap="round" stroke-miterlimit="10" d="M198.2,127.561
			c0,0,0-68.597,0-72.412c0-3.813,0.332-5.763,2.82-9.68c2.486-3.918,17.412-30.674,17.412-30.674"/>
		<path fill="none" stroke="#662D91" stroke-width="2.6533" stroke-linecap="round" stroke-miterlimit="10" d="M184.27,127.561
			c0,0,0-67.737,0-71.25s0.83-7.462,2.156-10.116c1.326-2.652,13.102-31.398,13.102-31.398"/>
		<path fill="none" stroke="#662D91" stroke-width="2.6533" stroke-linecap="round" stroke-miterlimit="10" d="M170.174,127.561
			c0,0,0-66.939,0-71.583c0-4.643,1.327-8.063,2.653-11.991c1.327-3.929,7.96-29.191,7.96-29.191"/>
		<polyline fill="none" stroke="#662D91" stroke-width="2.6533" stroke-linecap="round" stroke-miterlimit="10" points="
			156.577,127.561 156.577,52.796 161.717,14.795 		"/>
	</g>
	<path fill="#ED1C24" d="M265.194,7.281H34.796c-14.653,0-26.533,11.878-26.533,26.533v126.473h8.849V36.022
		c0-4.888,1.717-9.334,4.493-12.92c5.49,4.307,21.812,17.143,26.077,20.947c5.197,4.638,6.685,6.902,6.794,13.878
		c0.108,6.975,0,72.676,0,72.676h8.623c0,0,0-64.395,0-72.339c0-6.649-3.316-14.387-9.178-19.361
		c-5.584-4.742-20.858-16.92-26.193-21.164c3.132-1.824,6.727-2.943,10.61-2.943h223.76c3.918,0,7.539,1.135,10.688,2.984
		c-5.387,4.286-20.576,16.402-26.139,21.123c-5.861,4.975-9.178,12.712-9.178,19.361c0,7.944,0,72.339,0,72.339h8.623
		c0,0-0.109-65.702,0-72.676c0.109-6.976,1.594-9.24,6.794-13.878c4.241-3.783,20.421-16.511,25.997-20.885
		c2.744,3.575,4.441,8.001,4.441,12.857v124.265h8.402V33.814C291.727,19.159,279.846,7.281,265.194,7.281z"/>
</g>
</svg>
