<?xml version="1.0" encoding="utf-8"?>
<!-- Generator: Adobe Illustrator 16.0.0, SVG Export Plug-In . SVG Version: 6.00 Build 0)  -->
<!DOCTYPE svg PUBLIC "-//W3C//DTD SVG 1.1//EN" "http://www.w3.org/Graphics/SVG/1.1/DTD/svg11.dtd">
<svg version="1.1" id="Calque_1" xmlns="http://www.w3.org/2000/svg" xmlns:xlink="http://www.w3.org/1999/xlink" x="0px" y="0px"
	 width="299.991px" height="300px" viewBox="0 0 299.991 300" enable-background="new 0 0 299.991 300" xml:space="preserve">
<g>
	<path fill="#39B54A" d="M248.115,76.529c9.021,3.26,20.647,9.638,31.24,15.956c-14.869-33.378-42.283-59.926-76.24-73.709
		c-0.243,2.268-0.331,4.573-0.181,6.936L248.115,76.529z"/>
	<path fill="#39B54A" d="M158.945,128.921l65.996-6.697c5.416-16.293,9.691-26.082,15.448-40.613l-45.861-51.697
		c-16.071-0.617-38.807,1.387-52.355,3.3c-3.702,11.007-14.86,45.286-18.385,56.666C136.457,102.292,152.74,120.519,158.945,128.921
		z"/>
	<path fill="#39B54A" d="M64.001,109.7c15.656-9.848,32.879-19.784,51.834-26.046c3.857-11.965,14.092-42.078,17.533-52.222
		c-11.41-7.932-21.252-12.525-28.66-15.621c-24.884,8.363-46.67,23.457-63.209,43.09c-4.144,8.947-9.749,23.348-12.293,30.021
		L64.001,109.7z"/>
	<path fill="#39B54A" d="M65.248,172.74c-3.927-14.007-6.966-39.208-5.614-55.203l-34.933-20.55l-11.676,16.557
		c-3.1,11.661-4.762,23.908-4.762,36.544c0,17.737,3.273,34.728,9.236,50.386c7.05,5.381,13.703,11.025,20.224,15.131L65.248,172.74
		z"/>
	<path fill="#39B54A" d="M253.402,175.702c-7.704-12-19.369-31.162-26.38-45.02l-69.222,7.01
		c-6.391,13.09-18.888,37.447-25.227,47.967l33.377,57.098c15.289-1.256,41.975-4.014,53.57-5.213L253.402,175.702z"/>
	<path fill="#39B54A" d="M261.588,178.46l-34.548,64.276c2.531,5.927,4.752,13.858,5.989,22.032
		c32.485-23.57,54.546-60.584,58.044-102.869C282.345,167.958,271.152,174.822,261.588,178.46z"/>
	<path fill="#39B54A" d="M137.579,274.313c5.288-7.499,14.047-19.164,20.179-27.229l-32.649-56.589
		c-13.199,0.321-40.146-4.292-53.693-10.368l-27.741,43.034c5.88,11.155,17.139,27.188,25.651,39.244L137.579,274.313z"/>
	<path fill="#39B54A" d="M79.6,273.038c20.722,11.889,44.722,18.695,70.315,18.695c1.539,0,3.058-0.037,4.586-0.094
		c-6.424-2.831-12.32-5.699-16.349-7.967L79.6,273.038z"/>
	<path fill="#D80B8C" d="M68.63,116.979c12.84-8.077,35.954-21.208,46-23.716c10.442,6.999,31.729,31.803,36.818,38.693
		c-4.796,11.734-20.239,40.32-25.438,48.949c-11.051,0.885-37.115-3.703-51.919-10.167C70.87,159.249,67.17,130.845,68.63,116.979z"
		/>
	<path fill="#D80B8C" d="M283.386,102.032c-11.538-6.641-25.355-14.041-34.147-16.679c-4.62,9.161-12.834,28.37-15.43,39.2
		c4.884,12.568,19.108,35.207,28.149,45.872c6.014-1.473,18.554-8.464,29.652-15.769c0.049-1.551,0.117-3.096,0.117-4.658
		C291.728,133.161,288.775,117.015,283.386,102.032z"/>
	<path fill="#D80B8C" d="M144.567,278.851c4.659,4.332,11.861,8.533,19.959,12.146c22.735-2.316,43.86-10.039,62.126-21.811
		c-1.682-9.146-3.869-17.302-7.975-22.625c-10.068,0.354-40.053,2.588-52.504,4.975
		C160.154,256.742,152.744,265.749,144.567,278.851z"/>
	<path fill="#D80B8C" d="M114.873,12.66c12.088,5.762,20.568,10.777,26.242,13.692c11.793-2.023,34.896-4.054,55.052-2.386
		c-0.12-1.972-0.153-4.796-0.161-8.021c-14.432-4.953-29.898-7.68-46.01-7.68C137.871,8.267,126.105,9.796,114.873,12.66z"/>
	<path fill="#D80B8C" d="M54.672,254.889c-6.793-11.683-16.579-28.688-17.488-30.459c-1.436-0.925-7.746-5.567-13.68-10.514
		C31.355,229.423,41.938,243.31,54.672,254.889z"/>
</g>
</svg>
