<?xml version="1.0" encoding="utf-8"?>
<!-- Generator: Adobe Illustrator 16.0.0, SVG Export Plug-In . SVG Version: 6.00 Build 0)  -->
<!DOCTYPE svg PUBLIC "-//W3C//DTD SVG 1.1//EN" "http://www.w3.org/Graphics/SVG/1.1/DTD/svg11.dtd">
<svg version="1.1" id="Calque_1" xmlns="http://www.w3.org/2000/svg" xmlns:xlink="http://www.w3.org/1999/xlink" x="0px" y="0px"
	 width="299.991px" height="209.459px" viewBox="0 0 299.991 209.459" enable-background="new 0 0 299.991 209.459"
	 xml:space="preserve">
<g>
	<rect x="8.263" y="9.655" fill="#FFCB05" width="283.465" height="190.15"/>
	<g>
		<polygon fill="#FFFFFF" points="28.322,136.946 8.263,136.946 8.263,135.059 26.435,135.059 26.435,75.258 8.263,75.258 
			8.263,73.372 28.322,73.372 		"/>
		<path fill="#FFFFFF" d="M78.083,104.73c0-9.695-4.585-18.94-12.285-24.833V35.875H8.263v1.887h55.649v40.729v52.478v40.98H8.263
			v1.887h57.535v-44.273C73.499,123.668,78.083,114.424,78.083,104.73z M65.798,127.145V82.316
			c6.543,5.553,10.398,13.795,10.398,22.415C76.197,113.348,72.341,121.592,65.798,127.145z"/>
		<polygon fill="#FFFFFF" points="291.728,136.946 271.668,136.946 271.668,73.372 291.728,73.372 291.728,75.258 273.555,75.258 
			273.555,135.059 291.728,135.059 		"/>
		<path fill="#FFFFFF" d="M236.079,78.492V37.762h55.649v-1.887h-57.536v44.022c-7.699,5.893-12.284,15.137-12.284,24.833
			c0,9.694,4.585,18.938,12.284,24.833v44.273h57.536v-1.887h-55.649v-40.98V78.492z M223.793,104.73
			c0-8.619,3.855-16.862,10.398-22.415v44.829C227.649,121.592,223.793,113.348,223.793,104.73z"/>
		<path fill="#FFFFFF" d="M181.247,104.73c0-16.917-13.512-30.727-30.308-31.228V9.655h-1.887v63.848
			c-16.796,0.501-30.309,14.312-30.309,31.228c0,16.915,13.513,30.725,30.309,31.227v63.848h1.887v-63.848
			C167.735,135.456,181.247,121.645,181.247,104.73z M120.63,104.73c0-15.876,12.665-28.841,28.422-29.341v58.682
			C133.295,133.571,120.63,120.606,120.63,104.73z M150.939,134.071V75.389c15.756,0.5,28.422,13.465,28.422,29.341
			C179.361,120.606,166.695,133.571,150.939,134.071z"/>
		<path fill="#FFFFFF" d="M14.755,9.655 M8.263,17.656c4.412,0,8.001-3.589,8.001-8.001h-1.509c0,3.586-2.906,6.492-6.492,6.492
			V17.656z"/>
		<path fill="#FFFFFF" d="M285.235,9.655 M291.728,16.147c-3.586,0-6.493-2.906-6.493-6.492h-1.509c0,4.412,3.59,8.001,8.002,8.001
			V16.147z"/>
		<path fill="#FFFFFF" d="M14.755,199.805 M8.263,193.313c3.586,0,6.492,2.906,6.492,6.492h1.509c0-4.412-3.589-8.002-8.001-8.002
			V193.313z"/>
		<path fill="#FFFFFF" d="M285.235,199.805 M291.728,191.803c-4.412,0-8.002,3.59-8.002,8.002h1.509
			c0-3.586,2.907-6.492,6.493-6.492V191.803z"/>
	</g>
</g>
</svg>
