<?xml version="1.0" encoding="utf-8"?>
<!-- Generator: Adobe Illustrator 16.0.0, SVG Export Plug-In . SVG Version: 6.00 Build 0)  -->
<!DOCTYPE svg PUBLIC "-//W3C//DTD SVG 1.1//EN" "http://www.w3.org/Graphics/SVG/1.1/DTD/svg11.dtd">
<svg version="1.1" id="Calque_1" xmlns="http://www.w3.org/2000/svg" xmlns:xlink="http://www.w3.org/1999/xlink" x="0px" y="0px"
	 width="169.5px" height="299.99px" viewBox="64.495 -3.5 169.5 299.99" enable-background="new 64.495 -3.5 169.5 299.99"
	 xml:space="preserve">
<g>
	<path fill="#90278E" d="M111.319,15.882c0.285,11.349,12.719,47.959,34.254,47.959s42.086-37.195,42.086-47.959
		c0-10.765,12.234-13.213,12.234,0s-0.488,26.442,2.449,35.732c2.934,9.291,9.34,29.351,9.828,43.057s-12.766,34.254-12.766,55.788
		c0,21.533,23,46.491,23.488,69.98c-8.809,3.911-63.129,24.465-63.129,65.571c-6.359,2.448-17.129,3.423-22.02,0
		c0-47.467-51.379-64.104-62.148-65.084c0-24.47,18.105-42.087,18.105-70.468c0-28.382-11.047-44.049-10.723-57.743
		c0.527-22.509,9.746-32.792,11.703-44.536c1.957-11.745,4.605-25.944,4.891-32.298C100.1,4.137,110.87-1.735,111.319,15.882z"/>
	<path fill="#8BC53F" d="M199.405,150.459c0-21.534,13.254-42.082,12.766-55.788c-0.22-6.176-1.643-13.639-3.406-20.828
		L93.65,153.073c-0.091,2.31-0.308,4.542-0.613,6.72l123.864,37.588C209.94,181.183,199.405,165.037,199.405,150.459z"/>
</g>
</svg>
