<?xml version="1.0" encoding="utf-8"?>
<!-- Generator: Adobe Illustrator 16.0.0, SVG Export Plug-In . SVG Version: 6.00 Build 0)  -->
<!DOCTYPE svg PUBLIC "-//W3C//DTD SVG 1.1//EN" "http://www.w3.org/Graphics/SVG/1.1/DTD/svg11.dtd">
<svg version="1.1" id="Calque_1" xmlns="http://www.w3.org/2000/svg" xmlns:xlink="http://www.w3.org/1999/xlink" x="0px" y="0px"
	 width="245.608px" height="299.991px" viewBox="0 0 245.608 299.991" enable-background="new 0 0 245.608 299.991"
	 xml:space="preserve">
<g>
	<g>
		
			<line fill="none" stroke="#662D91" stroke-width="1.3769" stroke-miterlimit="10" x1="115.011" y1="154.213" x2="212.836" y2="21.917"/>
		
			<line fill="none" stroke="#662D91" stroke-width="1.3769" stroke-miterlimit="10" x1="94.284" y1="93.083" x2="148.313" y2="20.014"/>
		
			<line fill="none" stroke="#662D91" stroke-width="1.3769" stroke-miterlimit="10" x1="121.099" y1="158.717" x2="218.925" y2="26.419"/>
		
			<line fill="none" stroke="#662D91" stroke-width="1.3769" stroke-miterlimit="10" x1="93.304" y1="107.147" x2="161.293" y2="15.198"/>
		
			<line fill="none" stroke="#662D91" stroke-width="1.3769" stroke-miterlimit="10" x1="127.188" y1="163.219" x2="225.015" y2="30.921"/>
		
			<line fill="none" stroke="#662D91" stroke-width="1.3769" stroke-miterlimit="10" x1="92.503" y1="120.966" x2="172.977" y2="12.135"/>
		
			<line fill="none" stroke="#662D91" stroke-width="1.3769" stroke-miterlimit="10" x1="135.28" y1="165.014" x2="229.261" y2="37.914"/>
		
			<line fill="none" stroke="#662D91" stroke-width="1.3769" stroke-miterlimit="10" x1="94.839" y1="130.544" x2="182.954" y2="11.379"/>
		
			<line fill="none" stroke="#662D91" stroke-width="1.3769" stroke-miterlimit="10" x1="143.825" y1="166.194" x2="232.007" y2="46.938"/>
		
			<line fill="none" stroke="#662D91" stroke-width="1.3769" stroke-miterlimit="10" x1="98.745" y1="137.999" x2="192.728" y2="10.899"/>
		
			<line fill="none" stroke="#662D91" stroke-width="1.3769" stroke-miterlimit="10" x1="153.847" y1="165.379" x2="234.208" y2="56.698"/>
		
			<line fill="none" stroke="#662D91" stroke-width="1.3769" stroke-miterlimit="10" x1="102.832" y1="145.209" x2="200.657" y2="12.912"/>
		
			<line fill="none" stroke="#662D91" stroke-width="1.3769" stroke-miterlimit="10" x1="166.032" y1="161.637" x2="235.522" y2="67.658"/>
		
			<line fill="none" stroke="#662D91" stroke-width="1.3769" stroke-miterlimit="10" x1="108.921" y1="149.711" x2="206.747" y2="17.414"/>
		
			<line fill="none" stroke="#662D91" stroke-width="1.3769" stroke-miterlimit="10" x1="181.193" y1="153.87" x2="233.562" y2="83.048"/>
		
			<line fill="none" stroke="#662D91" stroke-width="1.3769" stroke-miterlimit="10" x1="113.228" y1="50.58" x2="213.974" y2="125.075"/>
		
			<line fill="none" stroke="#662D91" stroke-width="1.3769" stroke-miterlimit="10" x1="156.001" y1="16.278" x2="234.604" y2="74.401"/>
		
			<line fill="none" stroke="#662D91" stroke-width="1.3769" stroke-miterlimit="10" x1="109.832" y1="57.487" x2="209.472" y2="131.164"/>
		
			<line fill="none" stroke="#662D91" stroke-width="1.3769" stroke-miterlimit="10" x1="148.313" y1="20.014" x2="233.562" y2="83.048"/>
		
			<line fill="none" stroke="#662D91" stroke-width="1.3769" stroke-miterlimit="10" x1="164.376" y1="13.055" x2="234.954" y2="65.243"/>
		
			<line fill="none" stroke="#662D91" stroke-width="1.3769" stroke-miterlimit="10" x1="174" y1="10.751" x2="234.891" y2="55.775"/>
		
			<line fill="none" stroke="#662D91" stroke-width="1.3769" stroke-miterlimit="10" x1="92.956" y1="120.354" x2="153.847" y2="165.379"/>
		
			<line fill="none" stroke="#662D91" stroke-width="1.3769" stroke-miterlimit="10" x1="93.722" y1="111.503" x2="162.915" y2="162.667"/>
		
			<line fill="none" stroke="#662D91" stroke-width="1.3769" stroke-miterlimit="10" x1="93.426" y1="101.866" x2="171.569" y2="159.647"/>
		
			<line fill="none" stroke="#662D91" stroke-width="1.3769" stroke-miterlimit="10" x1="105.33" y1="63.575" x2="203.953" y2="136.501"/>
		
			<line fill="none" stroke="#662D91" stroke-width="1.3769" stroke-miterlimit="10" x1="140.905" y1="23.954" x2="231.134" y2="90.672"/>
		
			<line fill="none" stroke="#662D91" stroke-width="1.3769" stroke-miterlimit="10" x1="101.657" y1="70.279" x2="198.712" y2="142.045"/>
		
			<line fill="none" stroke="#662D91" stroke-width="1.3769" stroke-miterlimit="10" x1="134.835" y1="28.884" x2="228.017" y2="97.784"/>
		
			<line fill="none" stroke="#662D91" stroke-width="1.3769" stroke-miterlimit="10" x1="98.815" y1="77.596" x2="192.827" y2="147.11"/>
		
			<line fill="none" stroke="#662D91" stroke-width="1.3769" stroke-miterlimit="10" x1="128.673" y1="33.745" x2="226.005" y2="105.716"/>
		
			<line fill="none" stroke="#662D91" stroke-width="1.3769" stroke-miterlimit="10" x1="96.342" y1="85.185" x2="186.388" y2="151.768"/>
		
			<line fill="none" stroke="#662D91" stroke-width="1.3769" stroke-miterlimit="10" x1="123.34" y1="39.22" x2="221.962" y2="112.146"/>
		
			<line fill="none" stroke="#662D91" stroke-width="1.3769" stroke-miterlimit="10" x1="94.284" y1="93.083" x2="179.532" y2="156.116"/>
		
			<line fill="none" stroke="#662D91" stroke-width="1.3769" stroke-miterlimit="10" x1="117.267" y1="44.147" x2="218.476" y2="118.986"/>
	</g>
	<g>
		<polygon fill="#ED1C24" points="30.023,291.727 8.159,275.559 20.521,266.077 35.467,277.129 		"/>
		
			<rect x="42.643" y="202.562" transform="matrix(0.804 0.5946 -0.5946 0.804 152.4191 15.9996)" fill="#ED1C24" width="18.589" height="73.322"/>
		<path fill="#ED1C24" d="M216.271,126.985c28.539-38.596,28.192-87.249-0.773-108.667c-28.967-21.419-75.586-7.495-104.125,31.103
			c-14.621,19.771-21.641,42.175-21.136,62.211c-0.005-0.001-0.011,0.001-0.017,0.001c-4.27,76.961-19.484,87.116-20.6,90.36
			c0,0,2.631,1.945,4.845,3.582c14.726-20.785,19.771-53.645,20.034-71.203c3.613,9.509,9.496,17.691,17.646,23.718
			c8.149,6.025,17.698,9.252,27.847,9.92c-16.709,5.396-46.648,19.85-62.205,40.02c2.214,1.637,4.844,3.582,4.844,3.582
			c2.773-2.016,8.025-19.539,80.357-46.174c-0.002-0.004-0.002-0.01-0.004-0.016C182.288,160.034,201.649,146.758,216.271,126.985z
			 M116.354,53.104C142.86,17.259,185.599,3.916,211.813,23.3s25.98,64.154-0.525,100.002
			c-26.508,35.847-69.244,49.191-95.46,29.806C89.614,133.724,89.847,88.952,116.354,53.104z"/>
	</g>
</g>
</svg>
