<?xml version="1.0" encoding="utf-8"?>
<!-- Generator: Adobe Illustrator 16.0.0, SVG Export Plug-In . SVG Version: 6.00 Build 0)  -->
<!DOCTYPE svg PUBLIC "-//W3C//DTD SVG 1.1//EN" "http://www.w3.org/Graphics/SVG/1.1/DTD/svg11.dtd">
<svg version="1.1" id="Calque_1" xmlns="http://www.w3.org/2000/svg" xmlns:xlink="http://www.w3.org/1999/xlink" x="0px" y="0px"
	 width="299.991px" height="167.567px" viewBox="0 0 299.991 167.567" enable-background="new 0 0 299.991 167.567"
	 xml:space="preserve">
<g>
	<g>
		<g>
			
				<line fill="none" stroke="#BCBEC0" stroke-width="2.6533" stroke-linecap="round" stroke-miterlimit="10" x1="17.112" y1="155.867" x2="54.478" y2="128.453"/>
			
				<line fill="none" stroke="#BCBEC0" stroke-width="2.6533" stroke-linecap="round" stroke-miterlimit="10" x1="17.112" y1="138.619" x2="54.478" y2="117.617"/>
			
				<line fill="none" stroke="#BCBEC0" stroke-width="2.6533" stroke-linecap="round" stroke-miterlimit="10" x1="17.112" y1="121.818" x2="54.478" y2="106.779"/>
			
				<line fill="none" stroke="#BCBEC0" stroke-width="2.6533" stroke-linecap="round" stroke-miterlimit="10" x1="17.112" y1="103.908" x2="54.478" y2="95.141"/>
			
				<line fill="none" stroke="#BCBEC0" stroke-width="2.6533" stroke-linecap="round" stroke-miterlimit="10" x1="17.112" y1="86.881" x2="54.478" y2="85.336"/>
			
				<line fill="none" stroke="#BCBEC0" stroke-width="2.6533" stroke-linecap="round" stroke-miterlimit="10" x1="17.112" y1="69.633" x2="54.478" y2="73.614"/>
			
				<line fill="none" stroke="#BCBEC0" stroke-width="2.6533" stroke-linecap="round" stroke-miterlimit="10" x1="17.112" y1="51.947" x2="54.478" y2="62.56"/>
			
				<line fill="none" stroke="#BCBEC0" stroke-width="2.6533" stroke-linecap="round" stroke-miterlimit="10" x1="17.112" y1="36.022" x2="53.719" y2="51.947"/>
			
				<line fill="none" stroke="#BCBEC0" stroke-width="2.6533" stroke-linecap="round" stroke-miterlimit="10" x1="24.294" y1="25.216" x2="24.294" y2="149.232"/>
			
				<line fill="none" stroke="#BCBEC0" stroke-width="2.6533" stroke-linecap="round" stroke-miterlimit="10" x1="32.938" y1="32.046" x2="32.938" y2="143.264"/>
			
				<line fill="none" stroke="#BCBEC0" stroke-width="2.6533" stroke-linecap="round" stroke-miterlimit="10" x1="41.326" y1="38.758" x2="41.326" y2="138.102"/>
			
				<line fill="none" stroke="#BCBEC0" stroke-width="2.6533" stroke-linecap="round" stroke-miterlimit="10" x1="49.229" y1="45.469" x2="49.229" y2="132.303"/>
		</g>
		<g>
			
				<line fill="none" stroke="#BCBEC0" stroke-width="2.6533" stroke-linecap="round" stroke-miterlimit="10" x1="283.514" y1="155.455" x2="246.147" y2="128.041"/>
			
				<line fill="none" stroke="#BCBEC0" stroke-width="2.6533" stroke-linecap="round" stroke-miterlimit="10" x1="283.514" y1="138.207" x2="246.147" y2="117.205"/>
			
				<line fill="none" stroke="#BCBEC0" stroke-width="2.6533" stroke-linecap="round" stroke-miterlimit="10" x1="283.514" y1="121.406" x2="246.147" y2="106.367"/>
			
				<line fill="none" stroke="#BCBEC0" stroke-width="2.6533" stroke-linecap="round" stroke-miterlimit="10" x1="283.514" y1="103.496" x2="246.147" y2="94.729"/>
			
				<line fill="none" stroke="#BCBEC0" stroke-width="2.6533" stroke-linecap="round" stroke-miterlimit="10" x1="283.514" y1="86.469" x2="246.147" y2="84.924"/>
			
				<line fill="none" stroke="#BCBEC0" stroke-width="2.6533" stroke-linecap="round" stroke-miterlimit="10" x1="283.514" y1="69.221" x2="246.147" y2="73.202"/>
			
				<line fill="none" stroke="#BCBEC0" stroke-width="2.6533" stroke-linecap="round" stroke-miterlimit="10" x1="283.514" y1="51.535" x2="246.147" y2="62.148"/>
			
				<line fill="none" stroke="#BCBEC0" stroke-width="2.6533" stroke-linecap="round" stroke-miterlimit="10" x1="283.514" y1="35.61" x2="246.907" y2="51.535"/>
			
				<line fill="none" stroke="#BCBEC0" stroke-width="2.6533" stroke-linecap="round" stroke-miterlimit="10" x1="276.331" y1="24.804" x2="276.331" y2="150.186"/>
			
				<line fill="none" stroke="#BCBEC0" stroke-width="2.6533" stroke-linecap="round" stroke-miterlimit="10" x1="267.688" y1="31.634" x2="267.688" y2="143.844"/>
			
				<line fill="none" stroke="#BCBEC0" stroke-width="2.6533" stroke-linecap="round" stroke-miterlimit="10" x1="259.299" y1="38.346" x2="259.299" y2="137.689"/>
			
				<line fill="none" stroke="#BCBEC0" stroke-width="2.6533" stroke-linecap="round" stroke-miterlimit="10" x1="251.397" y1="45.057" x2="251.397" y2="131.891"/>
		</g>
		<g>
			
				<line fill="none" stroke="#BCBEC0" stroke-width="2.6533" stroke-linecap="round" stroke-miterlimit="10" x1="63.099" y1="127.561" x2="237.469" y2="127.561"/>
			
				<line fill="none" stroke="#BCBEC0" stroke-width="2.6533" stroke-linecap="round" stroke-miterlimit="10" x1="63.099" y1="116.508" x2="237.469" y2="116.508"/>
			
				<line fill="none" stroke="#BCBEC0" stroke-width="2.6533" stroke-linecap="round" stroke-miterlimit="10" x1="63.099" y1="106.061" x2="237.469" y2="106.779"/>
			
				<line fill="none" stroke="#BCBEC0" stroke-width="2.6533" stroke-linecap="round" stroke-miterlimit="10" x1="63.099" y1="95.141" x2="237.469" y2="95.141"/>
			
				<line fill="none" stroke="#BCBEC0" stroke-width="2.6533" stroke-linecap="round" stroke-miterlimit="10" x1="63.099" y1="84.667" x2="237.469" y2="84.667"/>
			
				<line fill="none" stroke="#BCBEC0" stroke-width="2.6533" stroke-linecap="round" stroke-miterlimit="10" x1="63.099" y1="74.386" x2="237.469" y2="74.386"/>
			
				<line fill="none" stroke="#BCBEC0" stroke-width="2.6533" stroke-linecap="round" stroke-miterlimit="10" x1="63.099" y1="63.275" x2="237.469" y2="63.275"/>
			
				<line fill="none" stroke="#BCBEC0" stroke-width="2.6533" stroke-linecap="round" stroke-miterlimit="10" x1="62.405" y1="52.796" x2="238.159" y2="52.796"/>
			
				<line fill="none" stroke="#BCBEC0" stroke-width="2.6533" stroke-linecap="round" stroke-miterlimit="10" x1="59.037" y1="44.878" x2="241.532" y2="44.878"/>
			
				<line fill="none" stroke="#BCBEC0" stroke-width="2.6533" stroke-linecap="round" stroke-miterlimit="10" x1="51.623" y1="36.98" x2="248.951" y2="36.98"/>
			
				<line fill="none" stroke="#BCBEC0" stroke-width="2.6533" stroke-linecap="round" stroke-miterlimit="10" x1="41.326" y1="28.616" x2="259.238" y2="28.616"/>
			
				<line fill="none" stroke="#BCBEC0" stroke-width="2.6533" stroke-linecap="round" stroke-miterlimit="10" x1="30.378" y1="19.848" x2="270.19" y2="19.848"/>
			<path fill="none" stroke="#BCBEC0" stroke-width="2.6533" stroke-linecap="round" stroke-miterlimit="10" d="M75.205,127.561
				c0,0,0-69.986,0-74.764s-1.658-5.918-3.316-7.918C70.23,42.877,44.36,14.795,44.36,14.795"/>
			<path fill="none" stroke="#BCBEC0" stroke-width="2.6533" stroke-linecap="round" stroke-miterlimit="10" d="M88.637,127.561
				c0,0,0-67.436,0-72.412c0-4.975-0.497-6.923-2.487-9.68c-1.99-2.758-23.051-30.674-23.051-30.674"/>
			<path fill="none" stroke="#BCBEC0" stroke-width="2.6533" stroke-linecap="round" stroke-miterlimit="10" d="M102.236,127.561
				c0,0,0-68.597,0-72.412c0-3.813-0.332-5.763-2.819-9.68c-2.487-3.918-17.412-30.674-17.412-30.674"/>
			<path fill="none" stroke="#BCBEC0" stroke-width="2.6533" stroke-linecap="round" stroke-miterlimit="10" d="M116.166,127.561
				c0,0,0-67.737,0-71.25s-0.829-7.462-2.155-10.116c-1.327-2.652-13.102-31.398-13.102-31.398"/>
			<path fill="none" stroke="#BCBEC0" stroke-width="2.6533" stroke-linecap="round" stroke-miterlimit="10" d="M130.261,127.561
				c0,0,0-66.939,0-71.583c0-4.643-1.326-8.063-2.653-11.991c-1.326-3.929-7.96-29.191-7.96-29.191"/>
			<polyline fill="none" stroke="#BCBEC0" stroke-width="2.6533" stroke-linecap="round" stroke-miterlimit="10" points="
				143.86,127.561 143.86,52.796 138.719,14.795 			"/>
			<path fill="none" stroke="#BCBEC0" stroke-width="2.6533" stroke-linecap="round" stroke-miterlimit="10" d="M225.231,127.561
				c0,0,0-69.986,0-74.764s1.659-5.918,3.317-7.918c1.658-2.001,27.528-30.083,27.528-30.083"/>
			<path fill="none" stroke="#BCBEC0" stroke-width="2.6533" stroke-linecap="round" stroke-miterlimit="10" d="M211.799,127.561
				c0,0,0-67.436,0-72.412c0-4.975,0.497-6.923,2.487-9.68c1.99-2.758,23.051-30.674,23.051-30.674"/>
			<path fill="none" stroke="#BCBEC0" stroke-width="2.6533" stroke-linecap="round" stroke-miterlimit="10" d="M198.201,127.561
				c0,0,0-68.597,0-72.412c0-3.813,0.332-5.763,2.819-9.68c2.487-3.918,17.412-30.674,17.412-30.674"/>
			<path fill="none" stroke="#BCBEC0" stroke-width="2.6533" stroke-linecap="round" stroke-miterlimit="10" d="M184.271,127.561
				c0,0,0-67.737,0-71.25s0.829-7.462,2.155-10.116c1.327-2.652,13.102-31.398,13.102-31.398"/>
			<path fill="none" stroke="#BCBEC0" stroke-width="2.6533" stroke-linecap="round" stroke-miterlimit="10" d="M170.175,127.561
				c0,0,0-66.939,0-71.583c0-4.643,1.327-8.063,2.653-11.991c1.326-3.929,7.96-29.191,7.96-29.191"/>
			<polyline fill="none" stroke="#BCBEC0" stroke-width="2.6533" stroke-linecap="round" stroke-miterlimit="10" points="
				156.577,127.561 156.577,52.796 161.717,14.795 			"/>
		</g>
		<path d="M265.195,7.281H34.796c-14.653,0-26.533,11.878-26.533,26.533v126.473h8.849V36.022c0-4.888,1.718-9.334,4.493-12.92
			c5.49,4.307,21.812,17.143,26.077,20.947c5.197,4.638,6.685,6.902,6.794,13.878c0.108,6.975,0,72.676,0,72.676h8.623
			c0,0,0-64.395,0-72.339c0-6.649-3.316-14.387-9.178-19.361c-5.584-4.742-20.858-16.92-26.193-21.164
			c3.132-1.824,6.727-2.943,10.61-2.943h223.76c3.918,0,7.54,1.135,10.688,2.984c-5.387,4.286-20.576,16.402-26.14,21.123
			c-5.861,4.975-9.178,12.712-9.178,19.361c0,7.944,0,72.339,0,72.339h8.623c0,0-0.108-65.702,0-72.676
			c0.109-6.976,1.594-9.24,6.795-13.878c4.241-3.783,20.42-16.511,25.996-20.885c2.744,3.575,4.441,8.001,4.441,12.857v124.265
			h8.403V33.814C291.728,19.159,279.847,7.281,265.195,7.281z"/>
	</g>
	<g>
		<path fill="#FFFFFF" d="M200.094,129.035c0.739-2.273,1.144-4.697,1.144-7.217c0-12.887-10.448-23.336-23.336-23.336
			c-12.889,0-23.336,10.449-23.336,23.336c0,2.52,0.404,4.943,1.144,7.217H200.094z"/>
		<circle fill="#FFFFFF" cx="177.902" cy="121.818" r="21.336"/>
		<g>
			<path d="M192.702,110.736c1.359,0.492,3.114,1.455,4.712,2.408c-2.243-5.035-6.378-9.039-11.5-11.119
				c-0.036,0.342-0.05,0.691-0.027,1.047L192.702,110.736z"/>
			<path d="M179.251,118.639l9.954-1.01c0.817-2.457,1.462-3.934,2.33-6.125l-6.917-7.799c-2.425-0.092-5.853,0.209-7.897,0.498
				c-0.559,1.66-2.241,6.83-2.772,8.547C175.86,114.623,178.315,117.371,179.251,118.639z"/>
			<path d="M164.931,115.74c2.361-1.484,4.959-2.984,7.818-3.93c0.581-1.803,2.125-6.346,2.645-7.877
				c-1.722-1.195-3.206-1.889-4.323-2.355c-3.753,1.262-7.039,3.539-9.533,6.5c-0.626,1.35-1.471,3.521-1.854,4.529L164.931,115.74z
				"/>
			<path d="M165.119,125.248c-0.593-2.111-1.051-5.912-0.847-8.326l-5.269-3.1l-1.761,2.498c-0.468,1.758-0.719,3.605-0.719,5.512
				c0,2.674,0.494,5.238,1.393,7.6c1.064,0.813,2.067,1.662,3.051,2.281L165.119,125.248z"/>
			<path d="M193.499,125.695c-1.162-1.811-2.921-4.699-3.979-6.791l-10.441,1.059c-0.964,1.975-2.849,5.646-3.805,7.234l5.034,8.611
				c2.307-0.188,6.331-0.605,8.08-0.785L193.499,125.695z"/>
			<path d="M194.734,126.111l-5.212,9.695c0.383,0.893,0.718,2.09,0.904,3.322c4.898-3.555,8.227-9.139,8.754-15.516
				C197.864,124.527,196.176,125.563,194.734,126.111z"/>
			<path d="M176.029,140.568c0.798-1.131,2.118-2.891,3.044-4.105l-4.925-8.537c-1.991,0.049-6.056-0.646-8.099-1.563l-4.185,6.49
				c0.887,1.684,2.585,4.102,3.869,5.92L176.029,140.568z"/>
			<path d="M167.284,140.377c3.126,1.793,6.745,2.82,10.605,2.82c0.232,0,0.462-0.006,0.692-0.016
				c-0.97-0.426-1.858-0.859-2.466-1.201L167.284,140.377z"/>
			<path fill="#BCBEC0" d="M165.629,116.838c1.937-1.219,5.423-3.197,6.938-3.576c1.575,1.055,4.786,4.795,5.554,5.836
				c-0.724,1.77-3.053,6.082-3.837,7.383c-1.667,0.133-5.598-0.559-7.831-1.533C165.967,123.213,165.409,118.93,165.629,116.838z"/>
			<path fill="#BCBEC0" d="M198.021,114.584c-1.739-1.002-3.824-2.119-5.15-2.516c-0.696,1.381-1.936,4.279-2.327,5.912
				c0.736,1.896,2.883,5.311,4.246,6.918c0.906-0.221,2.799-1.275,4.473-2.377c0.007-0.234,0.018-0.467,0.018-0.703
				C199.28,119.279,198.834,116.844,198.021,114.584z"/>
			<path fill="#BCBEC0" d="M177.083,141.254c0.703,0.652,1.789,1.287,3.011,1.832c3.43-0.35,6.615-1.514,9.371-3.289
				c-0.254-1.381-0.584-2.611-1.203-3.414c-1.519,0.055-6.042,0.391-7.92,0.75C179.434,137.918,178.316,139.277,177.083,141.254z"/>
			<path fill="#BCBEC0" d="M172.604,101.104c1.823,0.869,3.103,1.625,3.959,2.064c1.778-0.305,5.263-0.611,8.303-0.359
				c-0.019-0.297-0.023-0.723-0.024-1.209c-2.177-0.748-4.51-1.158-6.939-1.158C176.073,100.441,174.298,100.672,172.604,101.104z"
				/>
			<path fill="#BCBEC0" d="M163.524,137.641c-1.025-1.764-2.501-4.328-2.638-4.596c-0.217-0.139-1.169-0.84-2.063-1.586
				C160.006,133.799,161.603,135.893,163.524,137.641z"/>
		</g>
	</g>
</g>
</svg>
