<?xml version="1.0" encoding="utf-8"?>
<!-- Generator: Adobe Illustrator 16.0.0, SVG Export Plug-In . SVG Version: 6.00 Build 0)  -->
<!DOCTYPE svg PUBLIC "-//W3C//DTD SVG 1.1//EN" "http://www.w3.org/Graphics/SVG/1.1/DTD/svg11.dtd">
<svg version="1.1" id="Calque_1" xmlns="http://www.w3.org/2000/svg" xmlns:xlink="http://www.w3.org/1999/xlink" x="0px" y="0px"
	 width="300px" height="269px" viewBox="0 0 300 269" enable-background="new 0 0 300 269" xml:space="preserve">
<g>
	<path d="M8.268,75.686C28.929,55.852,47.661,24.998,109.092,7.093c7.163,9.917,22.864,18.732,40.22,18.732
		s35.812-11.846,41.321-18.732c39.669,11.845,61.155,26.721,101.1,68.593l-53.718,42.975l-15.702-14.601v157.848H76.586V104.06
		l-15.427,14.876L8.268,75.686z"/>
	<g>
		<path fill="#BCBEC0" d="M107.724,252.725c-5.072,0-9.183,4.111-9.183,9.183h18.364
			C116.905,256.836,112.795,252.725,107.724,252.725z"/>
		<circle fill="#BCBEC0" cx="107.723" cy="225.27" r="9.182"/>
		<circle fill="#BCBEC0" cx="107.723" cy="188.631" r="9.182"/>
		<circle fill="#BCBEC0" cx="107.723" cy="151.992" r="9.182"/>
		<circle fill="#BCBEC0" cx="107.723" cy="115.354" r="9.182"/>
		<circle fill="#BCBEC0" cx="107.723" cy="78.716" r="9.182"/>
		<circle fill="#BCBEC0" cx="107.723" cy="42.078" r="9.182"/>
		<path fill="#BCBEC0" d="M107.724,14.622c2.327,0,4.445-0.873,6.064-2.301c-1.815-1.677-3.399-3.434-4.696-5.229
			c-3.229,0.941-6.315,1.926-9.314,2.936C101.364,12.771,104.325,14.622,107.724,14.622z"/>
		<path fill="#BCBEC0" d="M91.011,243.588c0-5.071-4.111-9.182-9.182-9.182c-1.951,0-3.756,0.612-5.243,1.649v15.065
			c1.487,1.037,3.292,1.649,5.243,1.649C86.899,252.771,91.011,248.66,91.011,243.588z"/>
		<path fill="#BCBEC0" d="M91.011,206.95c0-5.071-4.111-9.183-9.182-9.183c-1.951,0-3.756,0.612-5.243,1.65v15.064
			c1.487,1.037,3.292,1.649,5.243,1.649C86.899,216.132,91.011,212.021,91.011,206.95z"/>
		<path fill="#BCBEC0" d="M91.011,170.312c0-5.071-4.111-9.183-9.182-9.183c-1.951,0-3.756,0.613-5.243,1.65v15.064
			c1.487,1.037,3.292,1.65,5.243,1.65C86.899,179.494,91.011,175.383,91.011,170.312z"/>
		<path fill="#BCBEC0" d="M91.011,133.674c0-5.072-4.111-9.183-9.182-9.183c-1.951,0-3.756,0.612-5.243,1.649v15.065
			c1.487,1.037,3.292,1.649,5.243,1.649C86.899,142.855,91.011,138.745,91.011,133.674z"/>
		<circle fill="#BCBEC0" cx="81.829" cy="97.035" r="9.182"/>
		<circle fill="#BCBEC0" cx="81.829" cy="60.397" r="9.182"/>
		<path fill="#BCBEC0" d="M81.829,32.941c5.07,0,9.182-4.111,9.182-9.183c0-3.74-2.239-6.951-5.447-8.384
			c-4.456,1.868-8.63,3.809-12.545,5.81c-0.238,0.818-0.372,1.68-0.372,2.574C72.646,28.83,76.757,32.941,81.829,32.941z"/>
		<path fill="#BCBEC0" d="M160.063,252.725c-5.071,0-9.182,4.111-9.182,9.183h18.363
			C169.245,256.836,165.136,252.725,160.063,252.725z"/>
		<circle fill="#BCBEC0" cx="160.063" cy="225.27" r="9.182"/>
		<circle fill="#BCBEC0" cx="160.063" cy="188.631" r="9.182"/>
		<circle fill="#BCBEC0" cx="160.063" cy="151.992" r="9.182"/>
		<circle fill="#BCBEC0" cx="160.063" cy="115.354" r="9.182"/>
		<circle fill="#BCBEC0" cx="160.063" cy="78.716" r="9.182"/>
		<circle fill="#BCBEC0" cx="160.063" cy="42.078" r="9.182"/>
		<circle fill="#BCBEC0" cx="134.169" cy="243.588" r="9.182"/>
		<circle fill="#BCBEC0" cx="134.169" cy="206.95" r="9.182"/>
		<circle fill="#BCBEC0" cx="134.169" cy="170.312" r="9.182"/>
		<circle fill="#BCBEC0" cx="134.169" cy="133.674" r="9.182"/>
		<circle fill="#BCBEC0" cx="134.169" cy="97.035" r="9.182"/>
		<circle fill="#BCBEC0" cx="134.169" cy="60.397" r="9.182"/>
		<path fill="#BCBEC0" d="M134.169,32.941c4.491,0,8.223-3.227,9.019-7.486c-6.308-0.746-12.269-2.595-17.524-5.147
			c-0.434,1.066-0.676,2.229-0.676,3.451C124.987,28.83,129.097,32.941,134.169,32.941z"/>
		<path fill="#BCBEC0" d="M212.403,252.725c-5.07,0-9.182,4.111-9.182,9.183h18.364
			C221.586,256.836,217.476,252.725,212.403,252.725z"/>
		<circle fill="#BCBEC0" cx="212.404" cy="225.27" r="9.182"/>
		<circle fill="#BCBEC0" cx="212.404" cy="188.631" r="9.182"/>
		<circle fill="#BCBEC0" cx="212.404" cy="151.992" r="9.182"/>
		<circle fill="#BCBEC0" cx="212.404" cy="115.354" r="9.182"/>
		<circle fill="#BCBEC0" cx="212.404" cy="78.716" r="9.182"/>
		<circle fill="#BCBEC0" cx="212.404" cy="42.078" r="9.182"/>
		<path fill="#BCBEC0" d="M206.346,12.327c1.563,1.377,3.597,2.228,5.831,2.283C210.271,13.826,208.327,13.066,206.346,12.327z"/>
		<circle fill="#BCBEC0" cx="186.509" cy="243.588" r="9.182"/>
		<circle fill="#BCBEC0" cx="186.509" cy="206.95" r="9.182"/>
		<circle fill="#BCBEC0" cx="186.509" cy="170.312" r="9.182"/>
		<circle fill="#BCBEC0" cx="186.509" cy="133.674" r="9.182"/>
		<circle fill="#BCBEC0" cx="186.509" cy="97.035" r="9.182"/>
		<circle fill="#BCBEC0" cx="186.509" cy="60.397" r="9.182"/>
		<circle fill="#BCBEC0" cx="186.509" cy="23.759" r="9.182"/>
		<circle fill="#BCBEC0" cx="264.744" cy="78.716" r="9.183"/>
		<path fill="#BCBEC0" d="M264.744,51.26c0.736,0,1.448-0.096,2.134-0.259c-3.869-3.566-7.609-6.857-11.266-9.884
			c-0.033,0.316-0.051,0.636-0.051,0.961C255.562,47.149,259.673,51.26,264.744,51.26z"/>
		<circle fill="#BCBEC0" cx="238.85" cy="97.035" r="9.183"/>
		<circle fill="#BCBEC0" cx="238.85" cy="60.397" r="9.183"/>
		<path fill="#BCBEC0" d="M278.991,62.642c0.813,3.23,3.331,5.775,6.549,6.624C283.302,66.97,281.121,64.765,278.991,62.642z"/>
		<path fill="#BCBEC0" d="M243.388,31.735c-4.545-3.205-9.067-6.073-13.686-8.671c-0.018,0.23-0.035,0.46-0.035,0.694
			c0,5.071,4.111,9.183,9.183,9.183C240.501,32.941,242.048,32.499,243.388,31.735z"/>
		<path fill="#BCBEC0" d="M34.444,87.854c-2.881,0-5.45,1.328-7.133,3.404l14.215,11.623c1.312-1.588,2.1-3.625,2.1-5.846
			C43.626,91.963,39.517,87.854,34.444,87.854z"/>
		<path fill="#BCBEC0" d="M25.798,57.329c-0.34,0.961-0.535,1.989-0.535,3.068c0,5.071,4.11,9.182,9.182,9.182
			c5.072,0,9.182-4.11,9.182-9.182c0-5.072-4.109-9.183-9.182-9.183c-1.146,0-2.241,0.22-3.253,0.604
			C29.322,53.675,27.53,55.514,25.798,57.329z"/>
		<path fill="#BCBEC0" d="M61.159,118.936l7.57-7.301c-1.428-3.217-4.645-5.463-8.391-5.463c-3.682,0-6.847,2.171-8.311,5.298
			L61.159,118.936z"/>
		<circle fill="#BCBEC0" cx="60.339" cy="78.716" r="9.182"/>
		<path fill="#BCBEC0" d="M20.487,78.716c0-4.143-2.744-7.641-6.514-8.785c-1.908,2-3.799,3.925-5.706,5.755l10.398,8.502
			C19.804,82.659,20.487,80.77,20.487,78.716z"/>
		<circle fill="#BCBEC0" cx="60.339" cy="42.078" r="9.182"/>
	</g>
</g>
</svg>
