<?xml version="1.0" encoding="utf-8"?>
<!-- Generator: Adobe Illustrator 16.0.0, SVG Export Plug-In . SVG Version: 6.00 Build 0)  -->
<!DOCTYPE svg PUBLIC "-//W3C//DTD SVG 1.1//EN" "http://www.w3.org/Graphics/SVG/1.1/DTD/svg11.dtd">
<svg version="1.1" id="Calque_1" xmlns="http://www.w3.org/2000/svg" xmlns:xlink="http://www.w3.org/1999/xlink" x="0px" y="0px"
	 width="299.991px" height="299.991px" viewBox="0 0 299.991 299.991" enable-background="new 0 0 299.991 299.991"
	 xml:space="preserve">
<circle fill="#FFFFFF" cx="149.996" cy="149.995" r="141.732"/>
<g>
	<path fill="#662D91" d="M169.742,219.112c27.402-23.658,44.123-62.465,44.367-88.054c0.246-25.591-12.795-92.273-82.924-92.273
		c-70.127,0-104.988,51.478-109.48,111.867c-1.958,26.323-4.075,37.999-6.167,44.272c16.378,49.033,58.822,86.123,110.885,94.84
		C126.585,271.118,123.169,259.323,169.742,219.112z"/>
	<path fill="#ED1C24" d="M149.996,8.263C71.719,8.263,8.263,71.718,8.263,149.996c0,8.835,0.816,17.478,2.362,25.866
		c0.832-3.555,1.664-7.852,1.958-14.539c1.614-36.727,9.948-130.567,115.896-134.35c86.283-3.08,99.455,81.081,97.83,103.592
		c-7.584,105.018-90.707,100.49-89.02,160.59c4.186,0.371,8.422,0.572,12.705,0.572c78.277,0,141.732-63.455,141.732-141.731
		C291.728,71.718,228.273,8.263,149.996,8.263z"/>
</g>
</svg>
