<?xml version="1.0" encoding="utf-8"?>
<!-- Generator: Adobe Illustrator 16.0.0, SVG Export Plug-In . SVG Version: 6.00 Build 0)  -->
<!DOCTYPE svg PUBLIC "-//W3C//DTD SVG 1.1//EN" "http://www.w3.org/Graphics/SVG/1.1/DTD/svg11.dtd">
<svg version="1.1" xmlns="http://www.w3.org/2000/svg" xmlns:xlink="http://www.w3.org/1999/xlink" x="0px" y="0px"
	 width="299.99px" height="299.99px" viewBox="0 0 299.99 299.99" enable-background="new 0 0 299.99 299.99" xml:space="preserve">
<g id="Calque_5" display="none">
	<rect x="-94.839" y="-64.839" display="inline" fill="#D66565" width="524" height="490.667"/>
</g>
<g id="Calque_1">
	<circle fill="#652B91" cx="149.995" cy="149.995" r="149.995"/>
</g>
<g id="Calque_6" display="none">
	<circle display="inline" fill="#FFFFFF" cx="150.094" cy="150.091" r="95.497"/>
</g>
<g id="Calque_7">
	<path fill="#FFFFFF" d="M81.749,165.995l2.116,3.25l25.047,5l81.417-1l21.667-2.417l4.14-1.583l2.116-3.25
		c0,0-23.423-4.749-23.923-4.833s-50.333-4.667-60.5-4.667s-48.083,5.5-48.083,5.5L81.749,165.995"/>
</g>
<g id="Calque_8">
	<path d="M199.162,130.161"/>
	<g>
		<path fill="#EB1C24" d="M164.412,208.245c0.013,0.349,0.065,1.113,0.148,2.19c-0.065-1.363-0.114-2.32-0.142-2.774
			C164.412,207.85,164.404,208.039,164.412,208.245z"/>
		<path fill="#EB1C24" d="M135.588,208.245c0.008-0.21,0-0.403-0.007-0.597c-0.007,0.129-0.067,1.253-0.169,3.144
			C135.511,209.519,135.573,208.631,135.588,208.245z"/>
		<path fill="#EB1C24" d="M150,30.496c-45.195,0-81.833,39.1-81.833,87.333c0,17.807,5.007,34.357,13.582,48.166h136.502
			c8.575-13.809,13.582-30.359,13.582-48.166C231.833,69.596,195.195,30.496,150,30.496z"/>
		<path fill="#EB1C24" d="M132.292,203.105l-0.001,0.006c0,0,3.129,0.582,3.29,4.516l0.001-0.004c0,0-0.001,0.017-0.001,0.025
			c0.007,0.193,0.015,0.387,0.007,0.597c-0.014,0.386-0.077,1.274-0.176,2.547c-0.726,13.558-3.525,66.289-3.417,71.078
			c0,0,14.5,0,35.75,0c0,0-2.508-57.385-3.185-71.435c-0.083-1.077-0.136-1.842-0.148-2.19c-0.008-0.206,0-0.395,0.007-0.584
			c0-0.012-0.001-0.027-0.002-0.038l0.003,0.002c0.161-3.933,3.289-4.514,3.289-4.514l-0.001-0.006
			c19.786-4.659,36.874-16.967,48.427-33.86H83.865C95.418,186.138,112.506,198.446,132.292,203.105z"/>
		<path fill="#EB1C24" d="M135.582,207.623l-0.001,0.004c0,0.007,0,0.015,0,0.021C135.581,207.639,135.582,207.623,135.582,207.623z
			"/>
		<path fill="#EB1C24" d="M164.419,207.661c0.001-0.012,0-0.024,0.001-0.036l-0.003-0.002
			C164.418,207.634,164.419,207.649,164.419,207.661z"/>
	</g>
</g>
<g id="repères">
</g>
</svg>
