<?xml version="1.0" encoding="utf-8"?>
<!-- Generator: Adobe Illustrator 16.0.0, SVG Export Plug-In . SVG Version: 6.00 Build 0)  -->
<!DOCTYPE svg PUBLIC "-//W3C//DTD SVG 1.1//EN" "http://www.w3.org/Graphics/SVG/1.1/DTD/svg11.dtd">
<svg version="1.1" xmlns="http://www.w3.org/2000/svg" xmlns:xlink="http://www.w3.org/1999/xlink" x="0px" y="0px"
	 width="299.99px" height="299.99px" viewBox="0 0 299.99 299.99" enable-background="new 0 0 299.99 299.99" xml:space="preserve">
<g id="Calque_5" display="none">
	<rect x="-94.839" y="-64.839" display="inline" fill="#D66565" width="524" height="490.667"/>
</g>
<g id="Calque_1">
	<circle fill="#BABABA" cx="149.995" cy="149.995" r="149.995"/>
</g>
<g id="Calque_6" display="none">
	<circle display="inline" fill="#FFFFFF" cx="150.094" cy="150.091" r="95.497"/>
</g>
<g id="Calque_8">
	<path fill="#FFFFFF" d="M114.769,223.872c0,0,10.605-0.729,11.696-0.894c1.091-0.164,0.478-9.472,0.478-9.472l14.186-18.694
		l19.092-16.352l31.599-32.217l25.456-16.44l5.747-3.401c0,0,0.958-7.602,0.894-11.696c-0.063-4.095-3.547-7.442-3.547-7.442
		l-11.358-11.358l-21.743-19.269l-1.824-0.518c0,0-7.348,0.192-11.219,0.812c-3.87,0.62-17.274,10.489-17.54,10.666
		c-0.265,0.177-55.507,47.288-55.507,47.288L82.66,166.573l-5.665,7.606c0,0-0.843,8.308-0.813,11.22s5.992,11.712,6.124,11.844
		c0.132,0.133,15.159,18.871,15.424,19.137c0.265,0.265,11.997,6.34,12.318,6.484S114.769,223.872,114.769,223.872z"/>
</g>
<g id="Calque_7">
	<path fill="#90278E" d="M82.445,217.208c0,0,0.015,0.181,0.142,0.244c0.125,0.064,0.721-0.11,0.798-0.121
		c0.077-0.012,1.149-1.813,1.127-1.9c-0.022-0.089-1.525,0.53-1.503,0.574s-0.508,1.171-0.508,1.171"/>
	<g>
		<path d="M223.917,114.706c0.161-19.482-6.375-32.139-6.375-32.139c-0.032-0.065-0.096-0.1-0.149-0.12l0.009-0.021l-0.072-0.001
			c-1.43-0.703-13.656-6.432-31.885-6.305C201.519,89.436,214.549,103.461,223.917,114.706z"/>
		<path d="M100.827,185.275l-3.107-3.106c-0.878-0.879-0.944-2.237-0.147-3.035c0.798-0.797,2.156-0.731,3.035,0.147l2.741,2.741
			l2.643-3.367l-3.027-3.027c-0.879-0.879-0.945-2.237-0.148-3.034c0.798-0.799,2.157-0.732,3.036,0.146l2.697,2.696
			c0.754-0.944,1.522-1.9,2.311-2.874l-3.181-3.181c-0.879-0.879-0.878-2.304,0-3.182c0.878-0.879,2.303-0.879,3.182,0l2.856,2.856
			c1.014-1.233,2.047-2.481,3.098-3.739l-3.447-3.446c-0.879-0.879-0.879-2.304,0-3.183c0.878-0.878,2.303-0.879,3.182,0
			l3.176,3.177c0.899-1.058,1.805-2.115,2.719-3.173l-3.707-3.707c-0.879-0.879-0.878-2.304,0-3.183
			c0.878-0.878,2.303-0.878,3.182,0l3.496,3.496c0.997-1.128,2-2.249,3.005-3.359l-3.856-3.856c-0.878-0.878-0.878-2.304,0-3.182
			c0.878-0.878,2.303-0.879,3.182,0l3.718,3.718c1.011-1.088,2.021-2.16,3.031-3.213l-4.157-4.158c-0.879-0.878-0.878-2.304,0-3.182
			c0.878-0.878,2.303-0.879,3.182,0l4.12,4.12c0.772-0.777,1.544-1.546,2.31-2.292l-0.009-0.009c0.746-0.765,1.513-1.535,2.29-2.307
			l-4.12-4.12c-0.879-0.879-0.879-2.303,0-3.182c0.878-0.879,2.303-0.879,3.182,0l4.158,4.157c1.053-1.009,2.126-2.021,3.214-3.032
			l-3.718-3.718c-0.878-0.878-0.878-2.303,0-3.182c0.879-0.879,2.304-0.879,3.182,0l3.856,3.856
			c1.111-1.005,2.231-2.008,3.359-3.005l-3.495-3.496c-0.879-0.878-0.879-2.303,0-3.182c0.879-0.879,2.303-0.879,3.182,0
			l3.708,3.708c1.058-0.916,2.115-1.821,3.172-2.72l-3.176-3.176c-0.879-0.878-0.879-2.303,0-3.182c0.879-0.879,2.304-0.879,3.182,0
			l3.447,3.447c1.257-1.05,2.505-2.083,3.739-3.097l-2.857-2.856c-0.879-0.879-0.879-2.303,0-3.182c0.879-0.878,2.304-0.878,3.183,0
			l3.181,3.181c0.974-0.789,1.93-1.556,2.874-2.311l-2.696-2.696c-0.879-0.879-0.945-2.237-0.147-3.035
			c0.797-0.797,2.156-0.731,3.034,0.147l3.027,3.027l3.367-2.643l-2.741-2.741c-0.878-0.879-0.944-2.237-0.146-3.035
			c0.797-0.797,2.155-0.731,3.034,0.147l3.106,3.107c3.791-2.92,6.886-5.244,8.878-6.724c-7.41-7.066-14.242-12.741-19.973-17.108
			c-18.141,2.495-40.306,11.299-63.122,34.115c-0.001,0.001-0.002,0.002-0.003,0.003l0.009,0.009
			c-22.815,22.815-31.62,44.98-34.114,63.121c4.367,5.731,10.041,12.563,17.108,19.973
			C95.584,192.16,97.908,189.065,100.827,185.275z"/>
		<path d="M188.992,188.935c22.568-22.568,31.429-44.502,34.031-62.533c-8.624-11.387-17.285-20.998-25.375-29.006
			c-2.268,1.854-5.215,4.31-8.568,7.128l5.742,5.742c0.879,0.878,0.945,2.237,0.147,3.035c-0.797,0.797-2.156,0.731-3.034-0.147
			l-5.99-5.99c-1.06,0.894-2.146,1.813-3.257,2.753l5.593,5.593c0.879,0.878,0.945,2.238,0.147,3.035
			c-0.797,0.798-2.156,0.731-3.034-0.147l-5.832-5.832c-0.925,0.785-1.862,1.581-2.804,2.382l5.277,5.277
			c0.878,0.878,0.878,2.303,0,3.182c-0.879,0.879-2.304,0.878-3.183,0l-5.533-5.534c-1.229,1.047-2.462,2.098-3.69,3.146
			l4.895,4.895c0.879,0.878,0.879,2.303,0,3.182c-0.879,0.878-2.304,0.878-3.182,0l-5.146-5.146c-1.07,0.914-2.131,1.82-3.178,2.715
			l4.619,4.619c0.879,0.878,0.879,2.303,0,3.182c-0.879,0.878-2.304,0.878-3.182,0l-4.867-4.867c0,0-1.304,1.132-3.377,2.986
			l4.524,4.524c0.878,0.878,0.878,2.303,0,3.182c-0.879,0.879-2.304,0.879-3.183,0l-4.687-4.686
			c-1.017,0.927-2.108,1.931-3.251,2.994l4.284,4.285c0.879,0.879,0.879,2.303,0,3.182c-0.878,0.878-2.303,0.878-3.182,0
			l-4.382-4.383c-1.54,1.465-3.114,2.99-4.668,4.53l4.46,4.46c0.878,0.879,0.878,2.304,0,3.182c-0.878,0.879-2.303,0.879-3.182,0
			l-4.446-4.445c-0.48,0.494-0.951,0.985-1.416,1.475c-0.502,0.585-1.017,1.186-1.549,1.806l4.818,4.818
			c0.879,0.879,0.878,2.304,0,3.182c-0.878,0.879-2.303,0.879-3.182,0l-4.574-4.574c-0.951,1.109-1.931,2.254-2.937,3.428
			l4.866,4.866c0.878,0.879,0.878,2.304,0,3.183c-0.878,0.878-2.304,0.878-3.182,0l-4.619-4.619
			c-0.895,1.047-1.801,2.107-2.715,3.177l5.146,5.146c0.878,0.878,0.878,2.304,0,3.182c-0.879,0.879-2.304,0.879-3.182,0.001
			l-4.895-4.896c-1.048,1.229-2.099,2.462-3.146,3.69l5.534,5.534c0.878,0.878,0.878,2.304,0,3.182
			c-0.878,0.879-2.304,0.879-3.182,0l-5.277-5.277c-0.801,0.942-1.597,1.879-2.381,2.804l5.832,5.832
			c0.878,0.878,0.945,2.237,0.146,3.035c-0.797,0.797-2.156,0.73-3.034-0.147l-5.594-5.594c-0.94,1.11-1.859,2.198-2.753,3.258
			l5.99,5.989c0.878,0.879,0.945,2.237,0.147,3.035c-0.798,0.798-2.157,0.731-3.035-0.147l-5.742-5.742
			c-2.818,3.353-5.273,6.3-7.127,8.567c8.008,8.091,17.619,16.752,29.005,25.376c18.031-2.604,39.964-11.464,62.533-34.031
			c0.001-0.002,0.003-0.003,0.003-0.003L188.992,188.935z"/>
		<path d="M76.183,185.399c-0.126,18.229,5.602,30.455,6.305,31.885l0.002,0.071l0.028-0.011c0.025,0.048,0.042,0.081,0.042,0.081
			l0.159-0.159l0.229-0.088l-0.317,0.317c0,0,12.655,6.537,32.138,6.376C103.525,214.504,89.499,201.474,76.183,185.399z"/>
		<path d="M156.213,132.586c2.073-1.854,3.377-2.986,3.377-2.986c-1.174,1.005-2.317,1.985-3.427,2.937L156.213,132.586z"/>
	</g>
</g>
<g id="repères">
</g>
</svg>
