<?xml version="1.0" encoding="utf-8"?>
<!-- Generator: Adobe Illustrator 16.0.0, SVG Export Plug-In . SVG Version: 6.00 Build 0)  -->
<!DOCTYPE svg PUBLIC "-//W3C//DTD SVG 1.1//EN" "http://www.w3.org/Graphics/SVG/1.1/DTD/svg11.dtd">
<svg version="1.1" xmlns="http://www.w3.org/2000/svg" xmlns:xlink="http://www.w3.org/1999/xlink" x="0px" y="0px"
	 width="299.99px" height="299.99px" viewBox="0 0 299.99 299.99" enable-background="new 0 0 299.99 299.99" xml:space="preserve">
<g id="Calque_5" display="none">
	<rect x="-94.839" y="-64.839" display="inline" fill="#D66565" width="524" height="490.667"/>
</g>
<g id="Calque_1">
	<circle fill="#D8098B" cx="149.995" cy="149.995" r="149.995"/>
</g>
<g id="Calque_6" display="none">
	<circle display="inline" fill="#FFFFFF" cx="150.094" cy="150.091" r="95.497"/>
</g>
<g id="Calque_7">
	<path fill="#FFFFFF" d="M189.213,58.384v4.603c0,0-26.343,10.758-26.593,10.758s-49.438-9.063-49.438-9.063l-2.395-1.695
		l-0.001-4.603l36.396-5.014l36.5,2.75L189.213,58.384z"/>
	<path fill="#FFFFFF" d="M176.245,77.495l12.969,30.25l9.948,32.5c0,0-6.983,12.75-9.95,14s-53.467,19.75-59.217,20
		s-27.75-15-27.75-15v-24.75l18.032-48.132c0,0,23.468-6.618,24.218-6.618s30.75,0,30.75,0L176.245,77.495z"/>
</g>
<g id="Calque_8">
	<path d="M199.162,130.161"/>
	<g>
		<path fill="#38B349" d="M150,21.396c-20.925,0-38.023,16.361-39.213,36.988h78.426C188.023,37.757,170.926,21.396,150,21.396z"/>
		<path fill="#38B349" d="M199.162,130.161c0,0-13.737-43.317-16.077-48.242h-0.044c3.554-5.519,5.769-11.981,6.172-18.933h-78.425
			c0.403,6.951,2.618,13.414,6.171,18.933h-0.05c-2.34,4.925-16.077,48.242-16.077,48.242S63.5,181.163,57.166,258.829
			c11.471,1.041,20.833-16.209,20.833-16.209c-6.245,13.489-2.564,26.356-2.559,26.376c0,0,0.001,0.001,0.002,0.001
			c13.565,0.125,23.338-22.169,23.338-22.169c-4.385,9,0,31.854,0,31.854c17.281-1.48,29.385-24.52,29.385-24.52
			c0,21.952,21.734,33.281,21.83,33.331h0.004c0.095-0.05,21.83-11.379,21.83-33.331c0,0,12.104,23.039,29.385,24.52
			c0,0,4.385-22.854,0-31.854c0,0,9.772,22.294,23.338,22.169c0.001,0,0.002-0.001,0.002-0.001
			c0.006-0.02,3.687-12.887-2.559-26.376c0,0,9.362,17.25,20.833,16.209C236.494,181.163,199.162,130.161,199.162,130.161z
			 M176.104,90.024l5.402,10.77c-3.201-0.317-4.864,1.34-4.864,1.34l-0.867-11.812C175.886,90.224,175.994,90.122,176.104,90.024z
			 M160.875,121.381c0,0-5.848-1.44-7.338,0.232l-0.143-4.498c0,0,2.38-3.077,7.339-0.232L160.875,121.381z M155.76,99.547
			c0.482-0.071,0.961-0.158,1.438-0.247l3.31,10.461c-4.401-1.045-7.338,0.232-7.338,0.232L155.76,99.547z M142.796,99.299
			c0.477,0.088,0.955,0.176,1.438,0.247l2.591,10.448c0,0-2.937-1.278-7.338-0.232L142.796,99.299z M139.26,116.883
			c4.959-2.845,7.339,0.232,7.339,0.232l-0.143,4.498c-1.49-1.673-7.338-0.232-7.338-0.232L139.26,116.883z M123.891,90.02
			c0.11,0.098,0.216,0.2,0.328,0.296l-0.868,11.817c0,0-1.663-1.658-4.864-1.34L123.891,90.02z M118.084,121.234l-5.148,18.67
			c0,0-1.523,3.801-3.841,3.16c-2.319-0.64-1.018-4.5-1.018-4.5l5.144-18.67c0,0,1.167-2.296,3.103-1.762
			C118.258,118.665,118.084,121.234,118.084,121.234z M120.332,113.076c-0.598-1.812-4.862-1.341-4.862-1.341l1.168-4.237
			c4.003-1.935,4.863,1.341,4.863,1.341L120.332,113.076z M128.054,146.734c0,0-1.167,4.04-4.085,3.607
			c-2.919-0.432-2.032-4.512-2.032-4.512l2.895-19.621c0,0,1.003-2.463,3.439-2.103c2.436,0.36,2.684,3.007,2.684,3.007
			L128.054,146.734z M132.222,118.541c-1.049-1.798-6.124-0.906-6.124-0.906l0.658-4.452c4.498-2.368,6.124,0.905,6.124,0.905
			L132.222,118.541z M127.799,106.136l4.207-10.528c0.319,0.165,0.643,0.319,0.967,0.476l0.95,10.957
			C133.923,107.04,131.615,105.503,127.799,106.136z M138.226,149.867l0.618-19.824c0,0,0.831-2.558,3.751-2.465
			c2.919,0.092,3.587,2.698,3.587,2.698l-0.627,19.824c0,0-0.8,4.143-4.297,4.031C137.761,154.02,138.226,149.867,138.226,149.867z
			 M158.735,154.131c-3.497,0.111-4.297-4.032-4.297-4.032l-0.627-19.824c0,0,0.668-2.605,3.587-2.698
			c2.92-0.092,3.751,2.465,3.751,2.465l0.618,19.824C161.767,149.867,162.232,154.02,158.735,154.131z M167.021,96.086
			c0.323-0.156,0.648-0.311,0.968-0.476l4.206,10.526c-3.816-0.633-6.124,0.904-6.124,0.904L167.021,96.086z M167.771,118.541
			l-0.658-4.453c0,0,1.626-3.272,6.124-0.905l0.658,4.452C173.895,117.635,168.82,116.743,167.771,118.541z M176.024,150.342
			c-2.918,0.433-4.085-3.607-4.085-3.607l-2.9-19.621c0,0,0.248-2.647,2.684-3.007c2.437-0.36,3.439,2.103,3.439,2.103l2.895,19.621
			C178.056,145.83,178.943,149.91,176.024,150.342z M179.662,113.076l-1.169-4.236c0,0,0.86-3.276,4.863-1.341l1.168,4.237
			C184.524,111.736,180.26,111.265,179.662,113.076z M190.899,143.064c-2.317,0.641-3.841-3.16-3.841-3.16l-5.148-18.67
			c0,0-0.174-2.569,1.761-3.102c1.936-0.534,3.103,1.762,3.103,1.762l5.144,18.67C191.917,138.564,193.219,142.425,190.899,143.064z
			"/>
	</g>
</g>
<g id="repères">
</g>
</svg>
