<?xml version="1.0" standalone="no"?>
<!DOCTYPE svg PUBLIC "-//W3C//DTD SVG 1.1//EN" "http://www.w3.org/Graphics/SVG/1.1/DTD/svg11.dtd" >
<svg xmlns="http://www.w3.org/2000/svg" xmlns:xlink="http://www.w3.org/1999/xlink" version="1.1">
<metadata></metadata>
<defs>
<font id="cataclysmicregular" horiz-adv-x="1139" >
<font-face units-per-em="2048" ascent="1638" descent="-410" />
<missing-glyph horiz-adv-x="569" />
<glyph horiz-adv-x="0" />
<glyph unicode="&#xd;" horiz-adv-x="569" />
<glyph unicode=" "  horiz-adv-x="569" />
<glyph unicode="&#x09;" horiz-adv-x="569" />
<glyph unicode="&#xa0;" horiz-adv-x="569" />
<glyph unicode="!" horiz-adv-x="409" d="M106 725v322q0 630 67 630l23 7q82 0 82 -517l15 -584l-15 -142v-8l8 -30q0 -48 -68 -60q-85 41 -112 382zM151 6q10 68 67 68h23q67 0 105 -127v-38q-27 -45 -68 -45q-127 0 -127 120v22z" />
<glyph unicode="&#x22;" horiz-adv-x="531" d="M76 1244v66q0 144 66 144q60 -18 60 -72v-246l12 -72q-9 -48 -48 -48h-6q-62 0 -84 228zM250 1352q0 126 72 126h6q78 0 78 -240q0 -62 24 -138v-6q0 -33 -36 -54h-30q-59 0 -102 216z" />
<glyph unicode="#" horiz-adv-x="1084" d="M69 309v5q0 57 264 169l5 5q12 0 12 17l-40 427q-128 -45 -179 -45h-23l-22 22v28q0 25 219 96v101l-6 34l17 61h6q65 0 84 -157h5l259 96v39l-6 56q0 101 56 101q11 0 51 -174l5 6h6l106 5q26 -11 28 -22v-17q0 -18 -134 -51l67 -432l157 23q35 -12 40 -28v-17 q0 -45 -79 -45l-107 -39l68 -427v-5q-8 -29 -40 -29q-50 0 -67 152q-52 159 -67 269l-292 -112l11 -123l-17 -208h-5q-15 0 -79 236l-6 56q-122 -63 -241 -96q-56 7 -56 23zM417 971l34 -432l286 107q-56 335 -56 409v12h-6z" />
<glyph unicode="$" horiz-adv-x="1107" d="M61 497v46q17 32 52 32l174 -97q140 -65 200 -65v7q-25 174 -32 375q-226 102 -226 252v25q0 116 187 265l-6 45l13 84h19q65 -41 65 -71l155 71l-7 65v19q5 65 39 65q32 0 52 -129l123 13q96 0 122 -52v-13q0 -23 -77 -26l-58 7l-91 -13v-7q26 -87 104 -600 q193 -96 193 -246q0 -121 -135 -220q2 -83 64 -239v-6l-26 -19h-19q-32 31 -110 226q-97 -39 -174 -39h-20l20 -110l-7 -77l7 -52l-39 -13q-85 93 -123 265q-169 0 -439 232zM332 1040q0 -60 110 -103v6l-13 271h-6q-91 -79 -91 -148v-26zM533 1305l45 -420l142 -32 q-52 382 -52 497v20h-6q-31 0 -129 -65zM584 762q31 -368 45 -368h13q96 0 149 26l-52 297q-103 39 -155 45zM888 633l19 -142h7q17 0 26 52v6q0 58 -52 91v-7z" />
<glyph unicode="%" horiz-adv-x="1206" d="M0 1423q0 67 110 95q0 29 15 29h14l8 -7l102 -59q431 257 558 257l51 7q183 0 183 -132q0 -101 -286 -652q-180 -547 -183 -763v-7l22 -125q-10 -30 -37 -44h-29q-81 0 -81 257q0 476 382 1144q95 169 95 198l-22 22h-59q-151 0 -520 -235h-8q37 -102 37 -154 q-28 -213 -132 -213h-7q-140 0 -140 176v118q-73 43 -73 88zM154 1305l7 -80v-59q22 -37 52 -37q44 56 44 103v44l-22 81q-73 0 -81 -52zM763 227q0 197 102 228h8q160 -42 227 -154l22 -110q0 -135 -154 -191h-59q-114 0 -146 227zM873 286q14 -176 58 -176q81 21 81 88 q-42 132 -132 132z" />
<glyph unicode="&#x26;" horiz-adv-x="1107" d="M114 1115v38q103 111 262 150q107 25 232 31q131 -20 131 -112v-25q0 -41 -194 -419q28 -19 156 -175h7l43 244l-6 6v31q0 44 44 44q50 0 75 -125v-44q0 -69 -38 -312q194 -203 194 -288q-4 -56 -19 -56h-6l-212 206h-7q-58 -141 -212 -231l-106 -25h-38q-121 0 -200 175 l-6 81q0 155 156 475q-256 266 -256 331zM251 1115q99 -123 182 -206q181 284 181 313h-6q-213 0 -357 -107zM383 297q12 -75 56 -75q137 0 219 237q-168 186 -169 200q-106 -194 -106 -362z" />
<glyph unicode="'" horiz-adv-x="391" d="M152 1174l10 48v68q0 144 86 144q65 0 78 -125l-49 -337v-106l-38 -39h-29q-39 16 -39 67v20q0 260 -19 260z" />
<glyph unicode="(" horiz-adv-x="682" d="M15 551v99q0 560 330 1104q78 74 123 74h58l33 -33v-25q-108 -78 -190 -272q-181 -476 -181 -980q0 -507 189 -757q50 -21 50 -66q-11 -34 -41 -50h-33q-131 93 -214 281q-124 242 -124 625z" />
<glyph unicode=")" horiz-adv-x="690" d="M-84 1747q17 51 42 57h32q230 -90 484 -459q172 -318 172 -738q0 -460 -189 -730q-140 -279 -188 -279h-33q-16 0 -33 50q164 257 164 368q74 327 74 582v17q0 643 -459 1041z" />
<glyph unicode="*" horiz-adv-x="682" d="M53 1300q0 77 249 110v81q11 64 58 64l34 -116l104 23q116 0 116 -40q0 -31 -69 -69q-15 -14 -105 -41v-6q66 -54 151 -98l11 -23v-12q0 -63 -86 -63q-49 0 -139 81q-112 -145 -150 -145h-12q-52 8 -52 52v12q0 14 87 133l11 34l-185 -23q-23 25 -23 46z" />
<glyph unicode="+" horiz-adv-x="1039" d="M145 567v33q0 73 245 86q66 0 66 13l-14 185q0 192 80 192q50 0 66 -159q22 -205 33 -205l126 -6l92 20q40 -17 40 -47q0 -47 -113 -66q-83 -55 -138 -59l6 -377v-53l-33 -33h-33q-34 0 -46 139q-20 39 -53 304h-7l-26 -7h-27l-145 -6q-119 10 -119 46z" />
<glyph unicode="," horiz-adv-x="569" d="M76 -18q35 283 85 283h43q71 -53 71 -163q0 -73 -71 -312q0 -65 -36 -78h-49q-36 19 -36 57v7z" />
<glyph unicode="-" horiz-adv-x="811" d="M53 671v32q0 131 574 302l101 11q24 -18 37 -65v-54q0 -108 -122 -108q-207 -97 -521 -183q-69 28 -69 65z" />
<glyph unicode="." horiz-adv-x="538" d="M137 129q62 174 102 174h82q78 0 92 -102v-51q0 -103 -154 -143h-30q-92 0 -92 122z" />
<glyph unicode="/" horiz-adv-x="1145" d="M127 -17q29 301 686 1409l149 233q15 48 39 54h23q39 -18 39 -116q0 -145 -429 -891q-381 -635 -406 -705q0 -23 -31 -39h-39l-31 31v24z" />
<glyph unicode="0" d="M106 690v6q0 407 346 734l35 7v7q-36 0 -49 62q0 74 166 111q218 0 409 -498q34 -99 48 -243q0 -371 -208 -629q-134 -118 -283 -118h-28q-276 0 -408 346q-28 134 -28 215zM258 724q0 -346 249 -429l63 -7q236 0 311 388l14 166v14q-30 286 -256 560l-55 42h-14l-35 -7 v-14q28 0 28 -14q0 -15 -153 -208q-152 -249 -152 -491z" />
<glyph unicode="1" horiz-adv-x="735" d="M143 1099q0 36 136 135q129 162 171 329q36 64 78 64h29q57 -31 57 -79v-28q-69 -171 -72 -364q-21 -111 -21 -228v-186q0 -184 29 -506q21 -6 35 -50q0 -43 -57 -50q-100 62 -157 207q-57 312 -57 435l22 314h-8q-72 -57 -107 -57h-7q-71 16 -71 64z" />
<glyph unicode="2" horiz-adv-x="1198" d="M113 905v6q0 373 471 646q140 51 200 51q184 0 207 -258q0 -318 -297 -723q-62 -114 -220 -329v-6h7q126 32 252 32h51q58 0 258 -58q110 0 110 -78q0 -90 -116 -90l-297 39q-413 -37 -413 -123q-41 -45 -84 -45h-19q-65 0 -78 90q0 121 336 543q355 500 355 645l13 103 q0 116 -84 116q-263 -75 -394 -251q-135 -156 -135 -355q-26 -39 -58 -39q-57 0 -65 84z" />
<glyph unicode="3" horiz-adv-x="978" d="M91 262v36q0 55 72 61q36 0 73 -55q41 -30 78 -30h6q203 50 320 187q115 136 115 284v42q0 117 -163 133l-6 -6h-60q-18 0 -103 -67h-48q-79 11 -79 67v18q0 81 157 127q169 209 169 362q0 84 -78 84q-123 0 -356 -253l-43 -12q-42 18 -42 54q0 28 235 242q125 72 200 72 h54q95 0 139 -121q12 -26 12 -84q0 -158 -115 -338q119 0 224 -109q54 -90 54 -181v-12q0 -409 -405 -622q-91 -42 -175 -42h-12q-102 0 -223 163z" />
<glyph unicode="4" horiz-adv-x="1213" d="M45 453v7q0 18 211 360q306 598 306 708q33 27 54 27q48 0 48 -129q19 0 54 -762l7 -7h61q215 0 327 48q27 0 54 -41v-27q0 -98 -394 -116h-41l-7 -7l7 -7v-285l7 -82l-7 -82v-135l-20 -21h-34q-26 0 -55 293q-41 227 -41 312h-6q-224 0 -456 -129h-7q-68 18 -68 75z M269 596h7q146 41 293 54l-14 483v7h-7q-41 -109 -279 -537v-7z" />
<glyph unicode="5" horiz-adv-x="1099" d="M60 1429v38q11 29 97 67q0 92 59 126h37q30 0 45 -119q177 0 684 89q48 0 60 -67v-29q0 -48 -283 -82q-194 -52 -379 -52h-82l15 -305l104 22q155 0 387 -134q141 -146 141 -245v-8q0 -374 -521 -654l-96 -15h-37q-216 19 -216 126q23 82 82 82h7l97 -37h30 q257 83 438 350q38 91 38 141q0 142 -343 216q-36 0 -104 -157q-31 -29 -59 -29h-15q-82 17 -82 67l-15 513l8 59h-60z" />
<glyph unicode="6" d="M69 485v103q0 454 380 863q115 111 186 111q26 -6 42 -48q0 -35 -166 -180q-269 -347 -269 -780q0 -214 76 -304q6 157 117 386q87 147 263 201h69q190 0 248 -235l7 -104q0 -336 -331 -531q-80 -28 -139 -28l-124 14v-7l14 -41q0 -28 -35 -49h-20q-61 0 -76 139 q-242 170 -242 490zM428 146l131 -28q148 0 270 263l20 131q0 145 -103 145q-132 0 -235 -297q-83 -159 -83 -207v-7z" />
<glyph unicode="7" horiz-adv-x="971" d="M38 1444v19q0 39 172 39h178q95 0 470 44q24 0 51 -38v-45l-83 -171q-76 -173 -140 -534q-57 -413 -57 -579v-51q0 -143 64 -190q25 -3 25 -19v-32q-19 -32 -44 -32q-67 29 -96 83q-101 140 -101 476v20q0 355 184 870l64 102v7h-7l-248 -20h-127q-305 10 -305 51z" />
<glyph unicode="8" horiz-adv-x="940" d="M121 1168q0 206 341 374q65 20 120 20q246 0 287 -301q0 -91 -80 -147q100 0 100 -86q0 -70 -187 -134l-133 -74v-13q287 -211 287 -421q0 -195 -227 -274q-29 -13 -107 -13h-7q-193 0 -274 220l-13 114v53q0 215 107 348v13q-214 168 -214 321zM215 1181 q0 -103 220 -260h13q57 52 248 140l86 47l-6 6v34l13 120q0 173 -187 214h-47q-148 0 -320 -221zM375 426q0 -124 100 -173l60 -7q187 20 187 147v7q0 149 -260 334l-7 -7q-80 -88 -80 -241v-60z" />
<glyph unicode="9" horiz-adv-x="1062" d="M76 1022q0 306 333 510l67 15h66q151 0 348 -229q104 -145 104 -318q0 -362 -370 -829q-123 -126 -163 -126h-8q-66 10 -66 67v29q0 13 148 148q303 479 303 740l-15 96l-74 -148q-235 -244 -436 -244q-237 33 -237 289zM209 1022q19 -156 126 -156h7q157 0 348 230 l52 163q-58 102 -229 155h-8q-124 0 -266 -252z" />
<glyph unicode=":" horiz-adv-x="455" d="M98 1039v19q48 125 106 125h32q29 -14 44 -44v-6q-15 -157 -94 -157h-25q-63 9 -63 63zM129 194q27 156 100 156h7q52 0 69 -81v-44q-14 -119 -113 -119q-46 0 -63 88z" />
<glyph unicode=";" horiz-adv-x="470" d="M91 -98q26 60 39 161q62 136 123 136h25q62 0 91 -90q0 -139 -136 -245q0 -30 -64 -46h-13q-65 13 -65 65v19zM162 877q32 162 116 162h46q77 -15 77 -78v-12q-47 -155 -148 -155l-7 -7h-6q-58 0 -78 90z" />
<glyph unicode="&#x3c;" horiz-adv-x="887" d="M152 611l6 5v6l-6 17q0 70 227 244l306 271l44 6q33 -11 33 -44v-28q0 -78 -333 -344l-127 -122q22 -5 233 -211q111 -90 144 -150l78 -61l11 -33v-11q-7 -50 -50 -50h-11q-84 41 -183 67q-87 45 -322 305q-33 62 -50 133z" />
<glyph unicode="=" horiz-adv-x="1069" d="M91 643v43q0 73 601 133h91q153 -20 163 -36v-37q0 -21 -139 -48q-13 -11 -358 -43q-242 -48 -297 -48q-61 17 -61 36zM133 334q0 107 498 188h79l91 -6l60 6q67 -4 67 -55v-6q0 -55 -127 -55l-564 -133h-43q-61 12 -61 61z" />
<glyph unicode="&#x3e;" horiz-adv-x="948" d="M129 1102v42l16 16h5q57 0 152 -94q259 -154 520 -284q37 -36 37 -58v-21q0 -41 -142 -126q-425 -397 -425 -462q-18 -47 -58 -47h-10q-53 10 -53 53v5q11 156 473 572l21 16v5q-49 0 -457 268q-79 76 -79 115z" />
<glyph unicode="?" horiz-adv-x="971" d="M136 1379q37 111 221 199l150 29q258 0 378 -250v-35q0 -162 -428 -393q-78 -66 -78 -328v-7l14 -57v-29q-25 -43 -64 -43q-67 0 -136 214v7q0 339 243 436q179 88 299 221v14q-108 129 -242 129h-7q-129 0 -286 -143l-21 -7q-22 0 -43 43zM350 123q0 43 50 78h43 q71 0 85 -93q-24 -78 -78 -78h-21q-79 0 -79 93z" />
<glyph unicode="@" horiz-adv-x="1577" d="M60 747q0 571 521 914q234 128 438 128h22q321 0 453 -385l23 -174v-83q0 -325 -287 -642q-88 -52 -151 -52q-130 0 -249 211q-193 -226 -362 -226h-31q-108 0 -143 173v38q0 221 257 430q133 76 249 76q196 -36 196 -106l15 -75q0 -58 -53 -121q0 -172 106 -234h23 q108 0 249 370q30 97 30 188v53q0 233 -196 370q-78 30 -151 30q-355 0 -642 -385q-143 -212 -143 -460v-30q0 -381 264 -506q160 -45 279 -53q163 0 363 136q33 60 75 60q39 0 53 -53q0 -139 -544 -286l-105 -8h-15q-299 0 -461 310q-83 156 -83 392zM422 626q0 -45 46 -60 q202 65 332 264l15 45v76l7 90h-37q-224 0 -348 -309l-15 -60v-46z" />
<glyph unicode="A" horiz-adv-x="1349" d="M66 649q0 109 249 249q125 619 202 719l-10 96l19 134h19q142 -187 412 -757h10q234 76 278 76h10l38 -38v-38q0 -36 -288 -106q250 -442 250 -719v-182l-29 -29h-29q-24 0 -57 259q-65 169 -317 604q-359 -119 -374 -144q-48 -246 -105 -738l-38 -19q-41 0 -77 67v67 q0 173 29 384q-192 14 -192 115zM181 620q0 -25 77 -38h9v9l19 125q-97 -48 -105 -77v-19zM488 965l278 77q-165 380 -182 383z" />
<glyph unicode="B" horiz-adv-x="1426" d="M341 1539v23q10 64 246 162q81 23 162 23h77q308 -39 308 -277q0 -138 -231 -347v-7h85q299 0 370 -216l7 -46v-47q-82 -298 -254 -477q-221 -285 -462 -285q-100 32 -100 92l15 62q-131 860 -131 1094v54l8 115q-100 15 -100 77zM534 1578l7 -8v-15q0 -155 46 -455h8 q373 281 378 378v23q0 123 -224 123q-103 0 -215 -46zM618 892q93 -554 93 -639q356 324 439 524l23 69q0 85 -185 85h-131q-239 -19 -239 -39z" />
<glyph unicode="C" horiz-adv-x="1456" d="M288 656q0 523 284 933q140 132 243 132h21q173 0 263 -264v-40l-20 -21h-51q-18 0 -111 163q-37 30 -71 30h-31q-213 0 -324 -821v-51q0 -344 213 -416l101 -20q258 0 477 335l61 20q81 0 81 -81q-204 -487 -629 -487h-30q-263 0 -416 284q-41 120 -61 304z" />
<glyph unicode="D" horiz-adv-x="1494" d="M319 1392q0 106 70 209h10q20 0 30 -59h10q269 179 448 179v-10l10 10q363 0 509 -369l20 -120v-109q-1 -196 -260 -618q-164 -246 -448 -429h-50q-32 0 -40 70l-40 -10q-134 0 -189 708q-50 433 -80 548zM479 1372q59 -240 179 -1136l-10 -50h10q161 92 329 388 q259 383 259 589v50q0 246 -249 329l-100 19q-173 0 -418 -189z" />
<glyph unicode="E" horiz-adv-x="1433" d="M287 642v528q0 377 55 377h37q14 0 64 -76q259 134 651 134l18 -25v-25q0 -25 -302 -67q-311 -100 -376 -100l36 -511h10q264 152 605 276q45 -11 45 -58q-273 -232 -650 -369v-17q0 -402 220 -402q108 0 412 185q166 67 248 67l27 -34v-17q0 -69 -339 -301 q-193 -109 -339 -109h-19q-269 0 -366 276q-37 125 -37 268z" />
<glyph unicode="F" horiz-adv-x="1486" d="M312 774v17l32 84v402l-10 92q21 24 21 101q23 92 54 92h55l54 -34q360 193 736 193l33 -25v-25q0 -34 -98 -34q-83 -47 -595 -251l-44 -34h-11l11 -84v-293h11q563 210 823 210h11q39 -16 54 -51q0 -70 -303 -134l-585 -218l33 -837q-22 -51 -44 -51h-54 q-124 0 -141 754v17q0 77 -43 109z" />
<glyph unicode="G" horiz-adv-x="1645" d="M350 611q0 508 249 916q232 278 490 278h75q76 0 143 -126v-18l-15 -18h-113l-75 9q-245 0 -445 -314q-143 -365 -143 -700q30 -279 90 -279q0 -21 113 -36q238 0 588 252l121 143v153l-15 18q-62 0 -543 -188q-53 17 -53 71q0 128 603 306q156 0 181 -225v-90 q0 -229 -30 -422l7 -251q-34 -36 -52 -36q-61 0 -61 251q-22 198 -37 198q-376 -404 -716 -404q-257 0 -339 305q-23 111 -23 207z" />
<glyph unicode="H" horiz-adv-x="1547" d="M303 1138v154q16 462 103 462q74 0 74 -100v-85l19 -546h9l551 107l-28 262v46q0 231 121 231h28q75 -18 75 -123q91 -484 215 -885q28 -114 28 -470q0 -46 -66 -61q-84 0 -84 138q-186 418 -261 762q-203 -119 -532 -161h-47q47 -495 56 -786q-18 -35 -37 -38h-28 q-56 0 -140 346q-56 384 -56 747z" />
<glyph unicode="I" horiz-adv-x="607" d="M265 1022v8q15 684 124 684h24q66 0 66 -338q3 -1004 66 -1289q-13 -72 -74 -72q-95 0 -140 314q-66 193 -66 693z" />
<glyph unicode="J" horiz-adv-x="1532" d="M210 208q0 50 50 50h7q34 0 100 -86q195 -192 278 -192q149 0 321 263q57 125 57 314q0 129 -107 741v171l7 72h-7l-321 -15q-71 19 -71 65q0 114 777 114l85 -15l43 8q33 -14 36 -29v-21q0 -31 -221 -86l-164 -14q0 -197 78 -528q57 -260 57 -456q0 -574 -470 -769 l-100 -8h-22q-186 0 -349 328q-64 57 -64 93z" />
<glyph unicode="K" horiz-adv-x="1425" d="M280 727q0 947 84 1009h8q101 0 101 -319l9 -269v-26q313 366 403 522q44 42 76 42q67 0 67 -68v-50q0 -80 -403 -572l-34 -50q31 -46 269 -134l395 -295q126 -36 126 -109q0 -61 -84 -75q-285 89 -580 285q-51 7 -218 109l8 -378v-84q0 -151 -84 -151h-25q-93 0 -93 252 z" />
<glyph unicode="L" horiz-adv-x="1380" d="M296 1229v298q5 95 34 95h13q75 0 75 -196q67 -1113 156 -1113q362 190 441 217l251 61q36 0 61 -40v-48q-12 -27 -176 -95q-33 -28 -455 -244q-76 -27 -142 -27q-170 0 -217 414q-41 365 -41 678z" />
<glyph unicode="M" horiz-adv-x="1759" d="M213 756v286q0 701 92 701h9q124 0 259 -470q107 -305 156 -305q98 0 332 461q101 203 166 203h10q109 0 129 -221q92 -449 267 -1107q0 -89 74 -239v-19q-28 -46 -65 -46q-98 73 -258 350q-212 635 -212 886l-212 -378q-114 -129 -184 -129h-56q-182 0 -304 304h-9v-9 q9 -458 46 -821q18 0 18 -46v-19q-35 -55 -101 -55q-137 0 -157 673z" />
<glyph unicode="N" horiz-adv-x="1842" d="M159 1725q21 64 51 72q86 0 144 -72h10q8 51 31 51h31q82 -104 82 -205q149 -115 627 -698q102 -113 390 -360h10l51 873l-51 278q14 42 51 61h31q102 0 134 -359q41 -234 41 -442v-164l10 -606q-56 -154 -154 -154q-108 0 -185 164l-565 555q-177 198 -369 462h-21v-72 l10 -51h-10l10 -11v-10l21 -791l-10 -30l20 -124l-41 -30h-61q-113 26 -113 605v360l-11 41l11 41v308q-171 232 -175 308z" />
<glyph unicode="O" horiz-adv-x="1653" d="M295 806q0 617 537 785l157 25q265 -33 380 -116q240 -183 240 -504q0 -496 -430 -776q-174 -83 -322 -83q-394 0 -537 430q-25 123 -25 239zM493 823q0 -339 265 -438l99 -8q359 0 504 471l8 107v50q0 273 -322 380q-40 24 -108 24h-16l-66 -16q-28 0 -58 25 q-111 0 -256 -240q-50 -132 -50 -306v-49z" />
<glyph unicode="P" horiz-adv-x="1388" d="M250 1567q54 106 54 161q15 99 63 99q16 0 80 -90q245 72 386 72h54q319 0 439 -215l18 -90q0 -299 -583 -735q-78 -61 -179 -90l72 -494q0 -170 -45 -170h-27q-135 132 -135 296q-53 235 -134 1184q-63 34 -63 72zM465 1558l90 -646q488 330 574 592v9q0 81 -341 108 q-210 -18 -323 -63z" />
<glyph unicode="Q" horiz-adv-x="1706" d="M333 780q0 354 259 658q246 200 428 200h74q69 -15 74 -37l8 7h22q155 0 340 -199q103 -183 103 -451q0 -290 -207 -503q83 -108 237 -207v-59l-37 -37h-30q-33 0 -295 207q-248 -111 -436 -111q-371 0 -488 281q-52 144 -52 251zM503 803q0 -305 251 -363l82 -7h29 q208 0 296 59q-126 153 -126 207l-7 67l22 29q111 0 214 -155l60 -52q155 144 155 377q0 346 -192 510q-35 22 -119 37v8l-37 -8q-18 0 -51 30h-37q-208 -45 -311 -141q-229 -252 -229 -554v-44z" />
<glyph unicode="R" horiz-adv-x="1554" d="M219 1524v34q0 32 129 69q0 27 42 51h43l60 -42q585 0 746 -292l17 -60v-17q0 -288 -608 -591l-26 -35q156 -105 746 -420q171 -85 171 -171q0 -85 -111 -103q-167 13 -858 377v-94l9 -77q-37 -86 -103 -86q-154 0 -154 703l-9 497l9 189q-103 0 -103 68zM519 1456 l17 -489q4 -86 17 -86q497 218 497 377v18q-64 95 -274 145z" />
<glyph unicode="S" horiz-adv-x="1269" d="M199 5q0 70 99 91q28 0 141 -99l66 -25h17q145 0 364 182l17 58v8q0 253 -373 497q-265 233 -265 455v42q0 318 365 546q183 83 298 83h91q223 -30 223 -149v-58q-35 -58 -50 -58h-41v8l8 58q-16 0 -66 50l-74 8h-67q-256 0 -430 -248q-58 -101 -58 -207v-66 q0 -178 372 -406q299 -282 299 -579q0 -226 -332 -389q-84 -42 -207 -42q-231 0 -389 207z" />
<glyph unicode="T" horiz-adv-x="1509" d="M303 1394q0 101 472 155q351 81 486 81q201 -12 214 -66v-15q0 -40 -37 -59l-74 7q-732 -169 -950 -169l-37 -7q-74 7 -74 73zM745 731q0 641 81 641q81 -34 81 -162l15 -140l-7 -81v-59q0 -784 88 -980l37 -58v-30q0 -52 -52 -52h-7q-103 0 -214 531z" />
<glyph unicode="U" horiz-adv-x="1668" d="M410 661l7 7l-7 22q0 362 88 750q38 65 52 66h29q27 -14 37 -44q-30 -316 -30 -603v-95q0 -438 140 -515l52 -15h29q124 0 250 243q44 85 81 257q-59 294 -59 412q13 287 96 287h22q88 0 88 -280q15 -357 220 -853q104 -169 118 -242q0 -28 -44 -59h-37q-112 0 -294 375 l-44 118q-10 -1 -81 -184q-152 -258 -345 -258h-22q-176 0 -287 236q-44 130 -59 375z" />
<glyph unicode="V" horiz-adv-x="1645" d="M402 1746q9 52 43 52q95 -80 191 -277q69 -144 399 -997h17q0 232 191 841q139 346 260 346h8q78 -25 78 -104l-138 -242q-156 -481 -234 -1162q0 -225 -87 -225h-35q-95 0 -147 234q-177 324 -537 1465z" />
<glyph unicode="W" horiz-adv-x="1941" d="M364 1405v149q5 52 26 52h27q28 0 105 -315l210 -778h8q85 406 184 577l88 88h70q102 0 288 -464q100 -155 175 -228q105 613 105 954l-8 298q18 52 70 52q113 0 157 -289v-113q0 -412 -131 -1190q-47 -53 -114 -53q-100 0 -254 193q-219 226 -315 603 q-105 -139 -175 -787q0 -184 -105 -184h-8q-103 0 -167 359q-236 857 -236 1076z" />
<glyph unicode="X" horiz-adv-x="1395" d="M304 1696v31q8 23 46 23q131 -103 264 -348l92 -147h8q150 257 426 596l46 15q21 0 39 -39l-255 -441l-155 -286v-23q507 -753 518 -929q-15 -48 -38 -54h-47q-24 12 -69 123q-84 100 -434 682q-62 -86 -162 -527l-24 -178q16 -105 47 -139v-23q-23 -39 -54 -39 q-69 0 -132 263v132q0 216 201 696v8q-267 447 -294 573z" />
<glyph unicode="Y" horiz-adv-x="1482" d="M235 1575q0 50 67 58h16q56 0 375 -216q200 -125 225 -125q146 268 358 500q55 51 92 58q72 0 75 -92q-336 -439 -550 -1099q-191 -547 -191 -592v-33q0 -28 25 -58v-34l-25 -25h-34q-50 0 -91 242q0 340 275 999q-166 0 -392 184q-225 129 -225 233z" />
<glyph unicode="Z" horiz-adv-x="1535" d="M235 296q0 115 741 1041q76 76 125 158l-8 9l-725 -25q-50 0 -50 58q0 100 575 100l242 8q133 -33 133 -125q0 -82 -400 -600q-328 -436 -400 -583h75l767 67l208 -8l25 -34v-33q-81 -76 -308 -133q0 -26 -567 -67h-191q-234 16 -234 133z" />
<glyph unicode="[" horiz-adv-x="713" d="M30 1658v25q0 65 593 144q53 0 59 -67q0 -72 -135 -85q-196 -54 -322 -68q76 -36 76 -313q43 -545 161 -1254l43 -119l254 152h34l76 -8l42 17q53 -17 60 -42v-51l-111 -152q-297 -221 -406 -221q-142 0 -195 288q-22 0 -119 822q-25 146 -34 517q0 261 34 347h-25 q-85 0 -85 68z" />
<glyph unicode="\" horiz-adv-x="1175" d="M8 1719v14l27 27h7q146 0 566 -750q65 -90 300 -511l245 -354l7 -34v-7q0 -59 -82 -82q-68 0 -184 191q-247 288 -497 743l-287 532q-102 192 -102 231z" />
<glyph unicode="]" horiz-adv-x="887" d="M-129 -185q0 88 167 88h48q203 0 414 -88h8q45 0 64 359l-24 892v175l24 422h-8l-550 -135h-8l-23 32v40q0 85 573 215h80q135 0 135 -414l48 -1180v-119q0 -377 -143 -494q-64 -48 -160 -48q-124 0 -406 152l-56 16h-103q-80 11 -80 79v8z" />
<glyph unicode="^" horiz-adv-x="961" d="M107 1067q0 30 104 161l209 329l31 5q44 0 193 -240l151 -214q42 -40 42 -67q-13 -63 -57 -63h-11q-36 0 -125 120q-174 157 -203 271l-162 -235q-89 -114 -130 -114q-42 0 -42 47z" />
<glyph unicode="_" horiz-adv-x="1169" d="M30 70v5q0 70 116 70q291 35 639 35h17q70 0 186 -23l105 6h17q35 -15 35 -47v-6q0 -52 -122 -52q-150 -29 -918 -58h-5q-47 0 -70 70z" />
<glyph unicode="`" horiz-adv-x="682" d="M152 1487q10 68 68 68q135 -46 288 -235q75 -35 75 -83v-23q-28 -45 -68 -45q-363 206 -363 318z" />
<glyph unicode="a" horiz-adv-x="1198" d="M60 329q0 517 496 739l140 9h66q39 37 74 37h56q75 -42 75 -159v-18q0 -98 -37 -197q0 -222 224 -692q-12 -38 -46 -56h-47q-134 65 -243 374l-10 47h-18q-106 -234 -309 -337l-131 -37h-94q-196 40 -196 290zM210 338q0 -150 84 -150q252 0 458 477l-9 122l9 131l-28 19 h-56q-258 0 -412 -346q-46 -122 -46 -253z" />
<glyph unicode="b" d="M91 1606v75q0 112 56 169q47 0 94 -526q132 -457 132 -517q199 301 376 301h103q149 0 226 -226v-103q0 -328 -376 -649q-114 -66 -197 -66h-29l-9 10h-9q-16 -43 -57 -66h-66q-75 0 -75 451q0 70 -141 837q-28 109 -28 310zM458 196h37q135 0 357 413q53 103 57 207 q-6 132 -94 132h-29q-127 0 -253 -216q-75 -155 -75 -423v-113z" />
<glyph unicode="c" horiz-adv-x="1236" d="M60 475v10q0 434 393 658l98 10q74 0 108 -49v-20q0 -21 -196 -69q-226 -238 -226 -442v-19q27 -315 187 -315l39 -10q229 0 550 374q37 47 79 177l49 9h10l39 -39v-39q-104 -393 -334 -541q-191 -147 -403 -147q-282 0 -383 354z" />
<glyph unicode="d" horiz-adv-x="1228" d="M84 256v39q0 381 432 595l86 9h38l48 -9l-9 67v86q0 643 86 643l38 19l58 -38l-10 -192v-39q0 -377 192 -1103q125 -192 125 -240v-28l-38 -39h-20q-221 0 -345 480h-19q-174 -499 -451 -499q-179 0 -211 249zM247 314q19 -125 48 -125q124 0 374 355l48 173q0 16 -67 57 h-38q-190 0 -355 -355z" />
<glyph unicode="e" horiz-adv-x="1281" d="M39 929v9q18 37 55 37l164 -37q156 411 393 411q197 0 338 -402q24 -13 54 -146q-16 -82 -73 -82l-602 73q-46 -233 -46 -402v-9q0 -329 210 -329q390 0 630 329l37 9q41 -17 45 -36v-18q-71 -204 -438 -420q-133 -37 -228 -37h-119q-185 0 -274 247q-27 116 -27 255v37 l9 9l-9 9l64 402h-10q-173 61 -173 91zM404 902l475 -55q-130 365 -219 365h-9q-153 0 -247 -310z" />
<glyph unicode="f" horiz-adv-x="1031" d="M15 838v42q0 50 327 84q-33 194 -33 343v34l-6 34q0 301 209 301h26q157 0 197 -159v-25q0 -45 -27 -59q-70 143 -170 143h-39q-92 0 -92 -168q0 -112 59 -428l269 34l215 -8l20 -34v-42q0 -35 -137 -50q-85 -42 -340 -76q58 -456 156 -905q-13 -52 -32 -59h-33 q-70 52 -150 403l-79 545l-46 -9h-85l-26 -8q-183 32 -183 67z" />
<glyph unicode="g" horiz-adv-x="1382" d="M102 934q0 259 264 440q104 56 193 56q170 0 320 -192l8 -40l-64 -16h-16q-152 136 -240 136h-24q-159 0 -281 -240l-24 -144q0 -115 160 -128h8q150 0 329 224q93 112 152 112h40q152 0 328 -497q40 -111 40 -240v-32q0 -459 -352 -720q-120 -81 -304 -81 q-245 0 -441 561v16q0 64 64 64h8q65 0 88 -120q160 -296 313 -296q266 0 408 376q24 94 32 224q0 208 -200 577l-8 8h-16q-270 -305 -368 -305q0 -16 -137 -24q-280 40 -280 281z" />
<glyph unicode="h" horiz-adv-x="1190" d="M144 1670q11 97 50 97q68 0 149 -567q66 -270 115 -672l91 224q136 246 323 246h17q127 0 215 -186q41 -100 41 -239q0 -226 -124 -634l-41 -23h-17q-74 10 -74 68q66 288 66 574q0 247 -91 298q-197 0 -298 -671q0 -224 -108 -224q-115 0 -132 246q-91 645 -182 1463z " />
<glyph unicode="i" horiz-adv-x="531" d="M205 726v82q0 178 55 178h34q61 0 61 -370l28 -362q-26 -171 -55 -171h-41q-70 0 -82 643zM219 1389v34q0 48 48 48h27q55 0 68 -75v-7q0 -59 -48 -89h-54q-28 0 -41 89z" />
<glyph unicode="j" horiz-adv-x="924" d="M-344 19v38q0 14 45 29q16 0 141 -103q321 -240 521 -246q232 0 327 275q22 113 22 216v37q0 315 -201 870l-7 67q0 41 37 60q55 0 97 -157q216 -439 216 -877q0 -506 -320 -625q-110 -30 -171 -30q-227 0 -558 320q-83 52 -149 126zM422 1440q15 47 37 52h30 q57 0 89 -96q-15 -47 -37 -53h-7q-112 0 -112 97z" />
<glyph unicode="k" horiz-adv-x="887" d="M114 692q0 812 155 855q49 -9 49 -25v-13q-29 -100 -42 -662v-6h7q276 365 339 365l42 6l7 -6v-6q0 -64 -120 -198q-226 -292 -226 -335q37 -112 325 -259q87 -80 190 -112q21 -23 21 -43q0 -50 -56 -50h-7l-282 93q-120 62 -226 155v-13q0 -139 71 -303q-17 -37 -50 -37 q-104 56 -176 322z" />
<glyph unicode="l" horiz-adv-x="455" d="M91 751q0 476 185 966l35 43h29l28 -28l-71 -491q-35 -199 -35 -412v-135q0 -541 92 -668l7 -21q0 -42 -57 -50h-21q-110 109 -164 341q-21 162 -28 455z" />
<glyph unicode="m" horiz-adv-x="1767" d="M53 1166q0 60 55 92h9q89 0 111 -257q27 -75 46 -212h9q37 322 129 322l27 9q223 0 350 -579h9q73 607 203 607h18q221 0 470 -838q34 -90 202 -230v-27q0 -51 -55 -83h-46q-140 0 -341 405q-107 367 -211 515q-130 -837 -194 -837l-64 -19q-120 29 -120 120l10 37 q-95 646 -221 764q-65 -259 -65 -727v-129q0 -70 -92 -83q-110 0 -110 285q-129 764 -129 865z" />
<glyph unicode="n" horiz-adv-x="1236" d="M91 961q0 46 45 71h27q57 0 98 -250h9q52 313 179 313h36q248 0 403 -483q174 -341 214 -341q81 -16 81 -80q-18 -56 -45 -63h-53q-269 0 -448 537q-87 215 -152 251q-68 0 -99 -850q-16 -53 -62 -81h-72q-71 31 -71 125q-90 710 -90 851z" />
<glyph unicode="o" horiz-adv-x="1001" d="M129 361v64q0 227 158 460q0 81 144 108l150 14q170 -30 252 -108q100 -130 100 -308q0 -297 -280 -481q-126 -65 -215 -65q-108 0 -216 86q-93 94 -93 230zM273 433q0 -165 114 -216l51 -7h14q231 0 330 316l7 79q0 169 -143 237l-122 21q-115 0 -144 -57 q-107 -149 -107 -373z" />
<glyph unicode="p" horiz-adv-x="971" d="M59 985v35q68 97 364 105h28q399 -15 482 -238l7 -56v-28q-11 -164 -461 -511q-26 -21 -49 -21q-49 12 -49 42h-7v-14q49 -536 49 -671v-21q0 -54 -35 -70h-35q-86 0 -168 1336l14 105h-7l-91 -28q-29 9 -42 35zM297 992q21 -110 70 -672h7q0 55 105 119q307 340 307 392 v14q0 122 -391 154z" />
<glyph unicode="q" horiz-adv-x="1468" d="M82 678v23q0 230 364 459q213 119 388 119q87 -18 87 -48v-15l-8 -56q37 0 47 -63q-142 -541 -142 -696v-40q0 -493 197 -585h48q131 0 174 356v63q0 140 -119 182l-23 24v31q14 29 47 40q253 -59 253 -317q-20 -453 -277 -561l-103 -16q-245 0 -363 420q-24 131 -32 308 q0 194 71 435q-285 -198 -387 -198h-64q-158 26 -158 135zM201 717q0 -39 71 -39q340 103 506 348q21 75 79 134l-8 32q-224 0 -514 -238q-116 -141 -134 -237z" />
<glyph unicode="r" horiz-adv-x="940" d="M106 1068v35l28 28h28q41 0 162 -386h7q65 225 211 316q97 35 281 63q49 -14 49 -63q0 -45 -119 -49q-214 -110 -253 -246q-78 -245 -78 -408l21 -190q-16 -77 -70 -77h-42q-70 27 -70 176l7 168q-83 412 -162 633z" />
<glyph unicode="s" horiz-adv-x="857" d="M84 911q0 272 464 415l73 8q97 0 139 -65v-33l-33 -32h-40q-21 0 -25 32h-57q-166 0 -374 -220q-25 -52 -25 -97q0 -171 261 -375q277 -248 277 -366v-74q0 -156 -245 -284l-146 -25h-41q-129 0 -163 147l-24 65q11 33 40 49h33q82 -98 98 -98h40q230 0 269 212 q0 55 -269 301q-252 236 -252 440z" />
<glyph unicode="t" horiz-adv-x="789" d="M60 769q0 52 91 52q5 265 111 600q24 20 46 20h13q26 -13 26 -39q-65 -455 -65 -568h91l287 20q28 0 46 -39v-20q0 -72 -202 -72l-183 -26l-33 7l-6 -7q36 -449 104 -561q82 -195 274 -195h7q97 0 196 110h13q45 0 45 -46v-12q-93 -130 -287 -190h-52q-283 0 -398 476 q-39 213 -39 379v52q-85 8 -85 59z" />
<glyph unicode="u" horiz-adv-x="1016" d="M84 674q20 513 143 513q32 0 42 -64q-35 -180 -35 -399v-43q18 -333 85 -349h22q71 15 192 321q86 288 86 463q37 35 71 35q85 0 85 -228q79 -591 264 -591l57 14q48 0 57 -71q-31 -64 -114 -64h-100q-168 0 -278 356v7h-7q-137 -406 -313 -406h-29q-159 0 -207 292 q-21 85 -21 214z" />
<glyph unicode="v" horiz-adv-x="925" d="M91 1180q6 33 28 33q61 -51 122 -178q45 -92 256 -639h11q0 149 122 539q90 222 167 222h5q50 -16 50 -66l-89 -156q-100 -308 -150 -745q0 -144 -55 -144h-22q-62 0 -95 150q-114 208 -344 939z" />
<glyph unicode="w" horiz-adv-x="1479" d="M98 905q27 142 53 142h27q52 0 107 -560q77 -356 133 -356q65 0 151 649l-9 116q0 91 54 115h62q42 0 98 -249q201 -551 400 -551q53 72 53 196v133q0 148 -133 436q-80 50 -80 89q0 57 80 71q338 -194 338 -685q0 -326 -178 -436l-44 -9h-36q-303 0 -480 445h-18 q-56 -489 -240 -489h-18q-249 0 -311 711z" />
<glyph unicode="x" horiz-adv-x="986" d="M53 944v21l14 15h7q59 -1 215 -243q116 -153 171 -201q209 465 293 465q43 0 43 -50v-14q-25 -89 -114 -250q-122 -236 -122 -265q380 -361 393 -407v-7q0 -50 -42 -50q-252 194 -415 343q-157 -309 -157 -371q0 -51 -22 -51h-35l-22 22v36q0 134 136 478v7 q-271 320 -343 522z" />
<glyph unicode="y" horiz-adv-x="1168" d="M75 1114q0 50 33 66h7q33 0 53 -186q112 -460 187 -460h20q87 110 247 653q26 40 60 40q55 0 226 -327q200 -424 200 -726v-60q0 -367 -320 -527l-106 -20q-174 0 -360 240q-54 45 -54 80v7q13 24 40 33q184 -170 240 -186l80 -14h7q209 0 300 307l13 140q0 304 -253 820 h-13q-80 -300 -174 -487q-57 -100 -140 -100q-221 0 -293 707z" />
<glyph unicode="z" horiz-adv-x="1031" d="M106 91q0 79 504 708q52 52 85 108l-6 5l-492 -17q-34 0 -34 40q0 68 390 68l165 6q90 -23 90 -85q0 -56 -272 -408q-223 -296 -271 -396h51l521 45l141 -6l17 -22v-23q-55 -52 -209 -91q0 -17 -386 -45h-130q-158 11 -158 91z" />
<glyph unicode="{" horiz-adv-x="713" d="M22 695q0 115 256 174q42 86 58 165q0 131 -149 513v75q0 155 215 198h42q182 -21 182 -116v-25q0 -45 -42 -66h-33q-51 0 -74 75l-42 8q-92 0 -115 -83l149 -413l24 -182q0 -93 -74 -223q74 -168 74 -397v-50l-16 -322q0 -207 116 -207l115 9q58 -25 58 -83 q0 -91 -149 -91h-16q-281 27 -281 198q-19 0 -25 182l25 430v16q-5 166 -33 166q0 -22 -100 -50q-132 0 -165 99z" />
<glyph unicode="|" horiz-adv-x="532" />
<glyph unicode="}" horiz-adv-x="826" d="M-29 -223q0 50 74 65l89 -57h25q196 70 196 277q-90 313 -90 425q0 62 74 196h-8q-107 80 -107 205v57q0 110 147 506l17 139q0 107 -278 147l-16 25v24q13 33 57 33h41q318 -39 318 -261v-17q0 -90 -114 -539l-8 -90v-16q11 -82 81 -82q78 33 221 49q82 -19 82 -82v-16 q0 -85 -221 -147q-98 -57 -98 -147q114 -375 114 -441q0 -254 -220 -384l-66 -25h-40q-270 44 -270 156z" />
<glyph unicode="~" horiz-adv-x="1031" d="M121 739q0 148 191 336l44 13h19q51 0 261 -197q34 -25 57 -25h32q34 0 44 152l-6 57q8 32 44 32q114 -40 114 -121v-38q0 -219 -158 -260h-45q-174 0 -317 190l-58 77q-43 -22 -127 -216q-43 -64 -57 -64q-33 0 -38 64z" />
<glyph unicode="&#xa1;" horiz-adv-x="682" />
<glyph unicode="&#xa2;" />
<glyph unicode="&#xa3;" horiz-adv-x="1243" d="M60 362q0 69 213 151l34 7l7 137v68l-7 151q-151 24 -151 96v21q0 75 130 82l-20 240v62q0 202 267 288h34q130 0 288 -124q48 -59 48 -116q-11 -76 -61 -76h-7q-62 0 -62 96q-113 89 -212 89q-69 0 -138 -96l-13 -68l41 -302h171l158 -7l89 14q69 -24 69 -82 q0 -78 -199 -89q-46 -21 -268 -35l14 -219l-7 -144q117 -75 220 -75h48q138 0 322 102q43 0 96 48h20l21 -20v-21q-98 -177 -343 -267q-82 -21 -151 -21h-13q-134 0 -261 69h-7q-61 -185 -130 -185q0 -14 -34 -14h-28q-94 0 -171 165z" />
<glyph unicode="&#xa4;" />
<glyph unicode="&#xa5;" />
<glyph unicode="&#xa6;" horiz-adv-x="532" />
<glyph unicode="&#xa7;" />
<glyph unicode="&#xa8;" horiz-adv-x="682" />
<glyph unicode="&#xa9;" horiz-adv-x="1509" />
<glyph unicode="&#xaa;" horiz-adv-x="758" />
<glyph unicode="&#xab;" />
<glyph unicode="&#xac;" horiz-adv-x="1196" />
<glyph unicode="&#xad;" horiz-adv-x="811" d="M53 671v32q0 131 574 302l101 11q24 -18 37 -65v-54q0 -108 -122 -108q-207 -97 -521 -183q-69 28 -69 65z" />
<glyph unicode="&#xae;" horiz-adv-x="1509" />
<glyph unicode="&#xaf;" horiz-adv-x="1131" />
<glyph unicode="&#xb0;" horiz-adv-x="819" />
<glyph unicode="&#xb1;" horiz-adv-x="1124" />
<glyph unicode="&#xb2;" horiz-adv-x="682" />
<glyph unicode="&#xb3;" horiz-adv-x="682" />
<glyph unicode="&#xb4;" horiz-adv-x="682" />
<glyph unicode="&#xb5;" horiz-adv-x="1180" />
<glyph unicode="&#xb6;" horiz-adv-x="1100" />
<glyph unicode="&#xb7;" horiz-adv-x="569" />
<glyph unicode="&#xb8;" horiz-adv-x="682" />
<glyph unicode="&#xb9;" horiz-adv-x="682" />
<glyph unicode="&#xba;" horiz-adv-x="748" />
<glyph unicode="&#xbb;" />
<glyph unicode="&#xbc;" horiz-adv-x="1708" />
<glyph unicode="&#xbd;" horiz-adv-x="1708" />
<glyph unicode="&#xbe;" horiz-adv-x="1708" />
<glyph unicode="&#xbf;" horiz-adv-x="1251" />
<glyph unicode="&#xc0;" horiz-adv-x="1366" />
<glyph unicode="&#xc1;" horiz-adv-x="1366" />
<glyph unicode="&#xc2;" horiz-adv-x="1366" />
<glyph unicode="&#xc3;" horiz-adv-x="1366" />
<glyph unicode="&#xc4;" horiz-adv-x="1366" />
<glyph unicode="&#xc5;" horiz-adv-x="1366" />
<glyph unicode="&#xc6;" horiz-adv-x="2048" />
<glyph unicode="&#xc7;" horiz-adv-x="1479" />
<glyph unicode="&#xc8;" horiz-adv-x="1366" />
<glyph unicode="&#xc9;" horiz-adv-x="1366" />
<glyph unicode="&#xca;" horiz-adv-x="1366" />
<glyph unicode="&#xcb;" horiz-adv-x="1366" />
<glyph unicode="&#xcc;" horiz-adv-x="569" />
<glyph unicode="&#xcd;" horiz-adv-x="569" />
<glyph unicode="&#xce;" horiz-adv-x="569" />
<glyph unicode="&#xcf;" horiz-adv-x="569" />
<glyph unicode="&#xd0;" horiz-adv-x="1479" />
<glyph unicode="&#xd1;" horiz-adv-x="1479" />
<glyph unicode="&#xd2;" horiz-adv-x="1593" />
<glyph unicode="&#xd3;" horiz-adv-x="1593" />
<glyph unicode="&#xd4;" horiz-adv-x="1593" />
<glyph unicode="&#xd5;" horiz-adv-x="1593" />
<glyph unicode="&#xd6;" horiz-adv-x="1593" />
<glyph unicode="&#xd7;" horiz-adv-x="1196" />
<glyph unicode="&#xd8;" horiz-adv-x="1593" />
<glyph unicode="&#xd9;" horiz-adv-x="1479" />
<glyph unicode="&#xda;" horiz-adv-x="1479" />
<glyph unicode="&#xdb;" horiz-adv-x="1479" />
<glyph unicode="&#xdc;" horiz-adv-x="1479" />
<glyph unicode="&#xdd;" horiz-adv-x="1366" />
<glyph unicode="&#xde;" horiz-adv-x="1366" />
<glyph unicode="&#xdf;" horiz-adv-x="1251" />
<glyph unicode="&#xe0;" horiz-adv-x="1350" d="M136 372q0 385 292 669q109 103 231 103h60q60 0 137 -86q95 0 95 -146q63 -405 188 -574q75 -95 146 -95l17 -43q0 -60 -85 -60h-103q-144 0 -283 412q-107 -204 -223 -352q-144 -154 -275 -154q-197 0 -197 326zM282 346q8 -154 51 -154h9q162 0 420 523l26 103v34 q0 83 -86 154h-34q-180 0 -352 -385l-34 -206v-69zM333 1684q7 60 43 60q40 0 326 -223q180 -103 180 -146q-17 -39 -34 -43h-17q-339 87 -446 249q-52 59 -52 103z" />
<glyph unicode="&#xe1;" horiz-adv-x="1281" d="M91 272v32q0 308 242 617q228 242 430 242h8q82 0 164 -62q78 0 102 -125v-63l-31 -226q75 -462 195 -462l31 -39v-39q0 -59 -78 -70h-23q-201 0 -297 313q-298 -360 -524 -360q-219 33 -219 242zM255 296l24 -86h7q223 0 501 438l-8 7v196q0 70 23 133l-47 15 q-205 0 -422 -359q-78 -206 -78 -344zM411 1273q67 197 321 399q112 109 172 109q63 -11 63 -63q0 -49 -157 -172q-255 -237 -320 -320h-39q-29 15 -40 47z" />
<glyph unicode="&#xe2;" />
<glyph unicode="&#xe3;" />
<glyph unicode="&#xe4;" />
<glyph unicode="&#xe5;" />
<glyph unicode="&#xe6;" horiz-adv-x="1821" />
<glyph unicode="&#xe7;" horiz-adv-x="1024" />
<glyph unicode="&#xe8;" d="M84 290q0 218 94 503q155 370 402 370h23q252 -74 252 -157q142 -212 142 -299q-16 -79 -79 -79h-47q-320 -47 -457 -47h-102l-23 -173q0 -378 165 -378q330 52 330 134l47 39h40q63 0 63 -63v-23q0 -52 -205 -244q-132 -71 -260 -71h-23q-248 0 -338 291zM255 1716 q6 110 32 110q86 -12 259 -220q86 -71 315 -213l23 -31v-47q-27 -48 -70 -48q-323 84 -449 252q-108 122 -110 197zM367 746h8q233 16 378 55q-69 181 -197 181q-94 0 -189 -236z" />
<glyph unicode="&#xe9;" horiz-adv-x="1054" d="M67 412v34q0 460 222 589q128 68 239 68q200 0 452 -324v-26q0 -111 -196 -111q-396 -42 -529 -42v-128q0 -341 153 -402l94 -8q245 0 342 188l51 17q60 -17 60 -69v-34q-198 -307 -487 -307q-262 0 -358 265q-43 169 -43 290zM76 1283v34q485 504 631 512h34 q35 -14 35 -60q0 -78 -359 -316l-273 -205h-34zM289 762l410 43q-81 119 -180 119h-17q-127 0 -213 -162z" />
<glyph unicode="&#xea;" />
<glyph unicode="&#xeb;" />
<glyph unicode="&#xec;" horiz-adv-x="569" />
<glyph unicode="&#xed;" horiz-adv-x="569" />
<glyph unicode="&#xee;" horiz-adv-x="569" d="M0 1191q0 43 117 195l85 163l13 13h26q70 0 136 -176q75 -144 124 -169l7 -26v-33q-23 -39 -59 -39h-19q-165 75 -209 209h-6q-106 -183 -163 -183q-52 0 -52 46zM221 866q0 143 52 143h7q91 0 91 -306q20 -105 20 -371v-78q0 -76 -20 -169l6 -26v-7q0 -35 -32 -52h-20 q-52 0 -52 104q-29 0 -52 762z" />
<glyph unicode="&#xef;" horiz-adv-x="569" />
<glyph unicode="&#xf0;" />
<glyph unicode="&#xf1;" />
<glyph unicode="&#xf2;" />
<glyph unicode="&#xf3;" />
<glyph unicode="&#xf4;" />
<glyph unicode="&#xf5;" />
<glyph unicode="&#xf6;" />
<glyph unicode="&#xf7;" horiz-adv-x="1124" />
<glyph unicode="&#xf8;" horiz-adv-x="1251" />
<glyph unicode="&#xf9;" />
<glyph unicode="&#xfa;" />
<glyph unicode="&#xfb;" />
<glyph unicode="&#xfc;" />
<glyph unicode="&#xfd;" horiz-adv-x="1024" />
<glyph unicode="&#xfe;" />
<glyph unicode="&#xff;" horiz-adv-x="1024" />
<glyph unicode="&#x152;" horiz-adv-x="2048" />
<glyph unicode="&#x153;" horiz-adv-x="1933" />
<glyph unicode="&#x178;" horiz-adv-x="1366" />
<glyph unicode="&#x2c6;" horiz-adv-x="682" />
<glyph unicode="&#x2dc;" horiz-adv-x="682" />
<glyph unicode="&#x2000;" horiz-adv-x="933" />
<glyph unicode="&#x2001;" horiz-adv-x="1866" />
<glyph unicode="&#x2002;" horiz-adv-x="933" />
<glyph unicode="&#x2003;" horiz-adv-x="1866" />
<glyph unicode="&#x2004;" horiz-adv-x="622" />
<glyph unicode="&#x2005;" horiz-adv-x="466" />
<glyph unicode="&#x2006;" horiz-adv-x="311" />
<glyph unicode="&#x2007;" horiz-adv-x="311" />
<glyph unicode="&#x2008;" horiz-adv-x="233" />
<glyph unicode="&#x2009;" horiz-adv-x="373" />
<glyph unicode="&#x200a;" horiz-adv-x="103" />
<glyph unicode="&#x2010;" horiz-adv-x="811" d="M53 671v32q0 131 574 302l101 11q24 -18 37 -65v-54q0 -108 -122 -108q-207 -97 -521 -183q-69 28 -69 65z" />
<glyph unicode="&#x2011;" horiz-adv-x="811" d="M53 671v32q0 131 574 302l101 11q24 -18 37 -65v-54q0 -108 -122 -108q-207 -97 -521 -183q-69 28 -69 65z" />
<glyph unicode="&#x2012;" horiz-adv-x="811" d="M53 671v32q0 131 574 302l101 11q24 -18 37 -65v-54q0 -108 -122 -108q-207 -97 -521 -183q-69 28 -69 65z" />
<glyph unicode="&#x2013;" />
<glyph unicode="&#x2014;" horiz-adv-x="2048" />
<glyph unicode="&#x2018;" horiz-adv-x="455" />
<glyph unicode="&#x2019;" horiz-adv-x="455" />
<glyph unicode="&#x201a;" horiz-adv-x="455" />
<glyph unicode="&#x201c;" horiz-adv-x="682" />
<glyph unicode="&#x201d;" horiz-adv-x="682" />
<glyph unicode="&#x201e;" horiz-adv-x="682" />
<glyph unicode="&#x2022;" horiz-adv-x="717" />
<glyph unicode="&#x2026;" horiz-adv-x="2048" />
<glyph unicode="&#x202f;" horiz-adv-x="373" />
<glyph unicode="&#x2039;" horiz-adv-x="682" />
<glyph unicode="&#x203a;" horiz-adv-x="682" />
<glyph unicode="&#x205f;" horiz-adv-x="466" />
<glyph unicode="&#x20ac;" />
<glyph unicode="&#x2122;" horiz-adv-x="1289" d="M23 1553q0 66 195 89q0 15 171 41q138 -5 138 -41v-40q0 -20 -138 -82l40 -414v-41q0 -59 -57 -73q-95 0 -113 496v8l-171 -25q-54 0 -65 82zM586 1520q22 54 48 65h9q186 -28 186 -73l33 -16h8q139 162 228 162h8q89 0 89 -138q41 -192 41 -349v-16q0 -115 -57 -155h-24 q-92 34 -122 415q-83 -106 -130 -106q-60 0 -122 49h-8v-8q32 -180 32 -269q-10 -73 -73 -73q-116 0 -146 512z" />
<glyph unicode="&#x25fc;" horiz-adv-x="1000" d="M0 0v1000h1000v-1000h-1000z" />
</font>
</defs>
</svg>
