<?xml version="1.0" encoding="utf-8"?>
<!-- Generator: Adobe Illustrator 16.0.0, SVG Export Plug-In . SVG Version: 6.00 Build 0)  -->
<!DOCTYPE svg PUBLIC "-//W3C//DTD SVG 1.1//EN" "http://www.w3.org/Graphics/SVG/1.1/DTD/svg11.dtd">
<svg version="1.1" id="Calque_1" xmlns="http://www.w3.org/2000/svg" xmlns:xlink="http://www.w3.org/1999/xlink" x="0px" y="0px"
	 width="273px" height="299.99px" viewBox="12.995 0 273 299.99" enable-background="new 12.995 0 273 299.99" xml:space="preserve"
	>
<g>
	<polygon fill="#D01A6F" points="125.354,110.275 77.905,114.483 50.677,75.475 70.713,32.322 118.123,28.244 145.387,67.162 	"/>
	<path fill="#F9A51A" d="M263.001,202.935l-48.183-64.343c3.678-10.278,5.696-21.343,5.696-32.875
		c0-51.675-40.1-93.854-90.765-97.455l39.731,56.834l-30.266,65.014l-71.488,6.248l-39.35-56.103
		c-2.186,8.144-3.45,16.603-3.45,25.462c0,53.943,43.759,97.751,97.795,97.751c0.653,0,1.3-0.038,1.95-0.05l49.465,66.07
		c18.411,24.54,53.15,29.526,77.685,11.164C276.356,262.296,281.353,227.463,263.001,202.935z"/>
</g>
</svg>
