<?xml version="1.0" standalone="no"?><!-- Generator: Gravit.io --><svg xmlns="http://www.w3.org/2000/svg" xmlns:xlink="http://www.w3.org/1999/xlink" style="isolation:isolate" viewBox="0 0 300 300" width="300" height="300"><defs><clipPath id="_clipPath_oEb6JA0an2tjbUoD3J6Q6obXC1lKBb1C"><rect width="300" height="300"/></clipPath></defs><g clip-path="url(#_clipPath_oEb6JA0an2tjbUoD3J6Q6obXC1lKBb1C)"><path d=" M 0 150 C 0 67.213 67.213 0 150 0 C 232.787 0 300 67.213 300 150 C 300 232.787 232.787 300 150 300 C 67.213 300 0 232.787 0 150 Z " fill="rgb(142,68,173)"/><path d=" M 150 0 C 150.01 0 150.021 0 150.031 0 C 232.819 0 300.031 67.213 300.031 150 C 300.031 232.787 232.819 300 150.031 300 L 150.031 150 L 150 0 Z " fill="rgb(165,105,189)"/><g id="Group"><defs><filter id="WaqTV275f8xivaBJudaT1VmHoLcKNVry" x="-200%" y="-200%" width="400%" height="400%"><feOffset xmlns="http://www.w3.org/2000/svg" in="SourceAlpha" result="offOut" dx="5" dy="5"/><feGaussianBlur xmlns="http://www.w3.org/2000/svg" in="offOut" result="blurOut" stdDeviation="2.5"/><feComponentTransfer xmlns="http://www.w3.org/2000/svg" in="blurOut" result="opacOut"><feFuncA xmlns="http://www.w3.org/2000/svg" type="table" tableValues="0 0.5"/></feComponentTransfer><feBlend xmlns="http://www.w3.org/2000/svg" in="SourceGraphic" in2="opacOut" mode="normal"/></filter></defs><g filter="url(#WaqTV275f8xivaBJudaT1VmHoLcKNVry)"><path d=" M 135.381 219.609 Q 153.75 247.101 198.413 231 Q 281.308 194.98 224.462 69 Q 221.629 105.825 171.373 126.452 Q 121.117 147.08 124.038 185.042 Q 126.791 205.953 134.624 218.44 C 136.054 207.822 144.182 185.259 179.243 172.443 Q 226.711 155.091 219.739 117.864 Q 228.688 158.069 172.981 182.449 Q 140.504 196.663 135.381 219.609 Z " fill="rgb(255,255,255)"/></g><defs><filter id="HeCfwQoDlL99hPwBZtVMZmArq0mfPu2w" x="-200%" y="-200%" width="400%" height="400%"><feOffset xmlns="http://www.w3.org/2000/svg" in="SourceAlpha" result="offOut" dx="5" dy="5"/><feGaussianBlur xmlns="http://www.w3.org/2000/svg" in="offOut" result="blurOut" stdDeviation="2.5"/><feComponentTransfer xmlns="http://www.w3.org/2000/svg" in="blurOut" result="opacOut"><feFuncA xmlns="http://www.w3.org/2000/svg" type="table" tableValues="0 0.5"/></feComponentTransfer><feBlend xmlns="http://www.w3.org/2000/svg" in="SourceGraphic" in2="opacOut" mode="normal"/></filter></defs><g filter="url(#HeCfwQoDlL99hPwBZtVMZmArq0mfPu2w)"><path d=" M 154.932 239 L 159.025 239.627 Q 146.305 242.485 156.443 263.951 Q 146.298 263.107 146.45 258.023 Q 145.854 244.217 154.932 239 Z " fill="rgb(255,255,255)"/></g><defs><filter id="h47n0dZPAkaIJFhxDBex247ghPDvCLFq" x="-200%" y="-200%" width="400%" height="400%"><feOffset xmlns="http://www.w3.org/2000/svg" in="SourceAlpha" result="offOut" dx="10" dy="10"/><feGaussianBlur xmlns="http://www.w3.org/2000/svg" in="offOut" result="blurOut" stdDeviation="2.5"/><feComponentTransfer xmlns="http://www.w3.org/2000/svg" in="blurOut" result="opacOut"><feFuncA xmlns="http://www.w3.org/2000/svg" type="table" tableValues="0 0.5"/></feComponentTransfer><feBlend xmlns="http://www.w3.org/2000/svg" in="SourceGraphic" in2="opacOut" mode="normal"/></filter></defs><g filter="url(#h47n0dZPAkaIJFhxDBex247ghPDvCLFq)"><path d=" M 129.066 247.71 Q 133.862 242.676 149.085 238.031 C 182.085 227.962 204.085 188.6 161.085 127.269 Q 118.085 65.938 120.085 22 C 14.085 141.915 59.978 220.221 77.085 238.031 Q 94.191 255.84 109.085 260 L 129.353 260 L 128.413 259.085 Q 92.893 185.057 102.413 89.738 Q 97.245 180.899 129.066 247.71 Z " fill="rgb(255,255,255)"/></g></g></g></svg>