<?xml version="1.0" encoding="utf-8"?>
<!-- Generator: Adobe Illustrator 16.0.0, SVG Export Plug-In . SVG Version: 6.00 Build 0)  -->
<!DOCTYPE svg PUBLIC "-//W3C//DTD SVG 1.1//EN" "http://www.w3.org/Graphics/SVG/1.1/DTD/svg11.dtd">
<svg version="1.1" id="Calque_1" xmlns="http://www.w3.org/2000/svg" xmlns:xlink="http://www.w3.org/1999/xlink" x="0px" y="0px"
	 width="300px" height="186.824px" viewBox="0 0 300 186.824" enable-background="new 0 0 300 186.824" xml:space="preserve">
<g>
	<g>
		<path d="M287.169,32.513c4.239,2.306,5.806,7.612,3.5,11.85l-3.596,6.614c-2.308,4.24-7.611,5.808-11.854,3.5l-44.139-24.009
			c-4.241-2.308-5.806-7.615-3.502-11.854l3.597-6.611c2.307-4.241,7.613-5.808,11.853-3.501L287.169,32.513z"/>
		<g>
			<path d="M233.007,110.632l-11.998,2.888c-2.371,4.355-4.128,7.586-4.242,7.796c-0.37,0.677-0.075,0.933,0.477,1.14
				c1.34,0.51,3.818,1.453,5.011,1.934c1.678,0.678,4,1.408,5.253,1.836c0.246,0.085,0.718,0.27,1.049-0.34
				c0.168-0.31,5.051-9.287,9.816-18.046C236.882,109.148,235.066,110.133,233.007,110.632z"/>
			<path d="M203.901,117.636c3.621,1.31,9.881,3.569,10.251,3.691c0.526,0.173,0.883,0.194,1.224-0.427
				c0.096-0.178,1.633-3.006,3.77-6.934L203.901,117.636z"/>
			<path d="M276.555,62.998l-51.051-27.771c-3.707-2.019-11.359,1.598-18.389,14.52c-8.142,14.97-9.359,23.692-11.484,27.594
				l-4.813,8.849l34.279-8.249c0.98-0.237,1.986-0.358,2.988-0.358c5.862,0,10.922,3.983,12.304,9.687l1.953,8.067
				c0.394,1.624,0.444,3.249,0.215,4.81c2.814-5.174,4.931-9.064,4.931-9.064c0.189-0.344,0.619-0.472,0.967-0.284
				c0.342,0.188,0.47,0.619,0.284,0.963c0,0-18.369,33.763-18.748,34.464c-0.373,0.684,0.281,0.833,0.592,0.927
				c9.076,2.767,14.983,0.127,19.316-7.842l28.056-51.573C278.876,66.042,278.251,63.919,276.555,62.998z"/>
		</g>
	</g>
	<path fill="#BCBEC0" d="M238.454,96.279l-1.953-8.069c-1.127-4.65-5.811-7.508-10.463-6.382l-114.174,27.474
		c1.01,1.1,1.846,1.965,2.5,2.468l22.872,17.565c0.075,0.059,0.132,0.119,0.205,0.178l94.63-22.771
		C236.725,105.615,239.581,100.931,238.454,96.279z"/>
	<g>
		<path d="M10.075,111.092c-2.939,3.828-2.217,9.314,1.609,12.254l5.971,4.586c3.826,2.939,9.316,2.22,12.256-1.608l30.607-39.85
			c2.938-3.828,2.219-9.315-1.61-12.253l-5.97-4.585c-3.826-2.94-9.313-2.222-12.252,1.606L10.075,111.092z"/>
		<path d="M90.24,94.379c13.515,10.381,18.164,17.857,21.688,20.564l22.872,17.564c7.635,5.865-7.126,16.793-10.123,19.234
			c-0.877,0.717-1.41,0.191-1.41,0.191l-18.263-14.025l-13.222-10.156c-0.311-0.24-0.757-0.182-0.996,0.13
			c-0.241,0.312-0.182,0.757,0.129,0.997c0,0,29.973,23.02,30.799,23.653c0.824,0.634,0.627,1.035,0.103,1.54
			c-2.321,2.227-8.644,8.286-8.977,8.59c-0.412,0.371-0.729,0.535-1.286,0.105c-0.561-0.432-29.893-22.959-29.893-22.959
			c-0.313-0.238-0.756-0.182-0.996,0.131c-0.238,0.311-0.18,0.758,0.13,0.998c0,0,29.04,22.305,29.649,22.772
			c0.61,0.47,0.449,0.823,0.026,1.237c-1.019,1.008-2.899,2.875-3.792,3.797c-1.259,1.301-3.088,2.91-4.059,3.809
			c-0.191,0.178-0.55,0.537-1.096,0.115c-0.553-0.423-31.422-24.133-31.422-24.133c-0.311-0.239-0.757-0.18-0.994,0.131
			c-0.243,0.312-0.184,0.758,0.127,0.996c0,0,30.481,23.412,31.115,23.898c0.617,0.477,0.082,0.877-0.166,1.09
			c-7.174,6.209-13.645,6.19-20.836,0.666l-46.563-35.764c-1.531-1.176-1.82-3.369-0.645-4.901l35.402-46.088
			C70.114,85.214,78.575,85.417,90.24,94.379z"/>
	</g>
</g>
</svg>
