<?xml version="1.0" encoding="utf-8"?>
<!-- Generator: Adobe Illustrator 16.0.0, SVG Export Plug-In . SVG Version: 6.00 Build 0)  -->
<!DOCTYPE svg PUBLIC "-//W3C//DTD SVG 1.1//EN" "http://www.w3.org/Graphics/SVG/1.1/DTD/svg11.dtd">
<svg version="1.1" id="Calque_1" xmlns="http://www.w3.org/2000/svg" xmlns:xlink="http://www.w3.org/1999/xlink" x="0px" y="0px"
	 width="300px" height="159.459px" viewBox="0 0 300 159.459" enable-background="new 0 0 300 159.459" xml:space="preserve">
<g>
	<g>
		<circle fill="#39B54A" cx="132.433" cy="40.675" r="12.792"/>
		<path fill="#39B54A" d="M159.32,75.683h-23.512l-11.807-17.319c-0.326-2.024-1.244-3.97-2.805-5.53l-1.64-1.891
			c-2.259-2.256-5.313-3.215-8.257-2.89l-22.08-15.697c-0.504-0.36-1.055-0.607-1.62-0.759c-0.006-0.002-0.016-0.004-0.023-0.006
			c-0.138-0.037-0.277-0.066-0.419-0.091c-0.029-0.005-0.057-0.01-0.086-0.015c-0.117-0.018-0.234-0.032-0.353-0.042
			c-0.058-0.005-0.113-0.009-0.169-0.012c-0.09-0.004-0.18-0.006-0.268-0.006c-0.09,0-0.177,0.002-0.267,0.006
			c-0.056,0.003-0.112,0.007-0.168,0.012c-0.121,0.01-0.241,0.024-0.36,0.043c-0.024,0.004-0.048,0.008-0.072,0.012
			c-0.878,0.151-1.729,0.531-2.451,1.158L62.336,50.562c-2.105,1.828-2.334,5.02-0.504,7.126c1.829,2.107,5.02,2.333,7.127,0.504
			l17.636-15.308l15.628,11.111L76.512,79.707c-0.111,0.111-0.209,0.231-0.314,0.347c-0.004,0.005-0.01,0.009-0.013,0.014
			l-0.021,0.023c-0.144,0.158-0.287,0.315-0.417,0.479l-23.553,26.976H15.794c-4.157,0-7.526,3.369-7.526,7.527
			c0,4.156,3.369,7.525,7.526,7.525h39.897c0.098,0,0.195-0.012,0.293-0.016c0.067-0.002,0.135-0.004,0.201-0.01
			c2.396-0.156,4.488-1.424,5.752-3.301l21.052-24.111c9.247,4.84,24.954,13.068,24.954,13.068v35.492
			c0,4.113,3.334,7.447,7.447,7.447c4.117,0,7.449-3.334,7.449-7.447v-40.143c0-0.127-0.031-0.246-0.037-0.371
			c-0.016-0.309-0.043-0.611-0.092-0.914c-0.026-0.148-0.056-0.295-0.092-0.439c-0.084-0.365-0.193-0.717-0.333-1.064
			c-0.025-0.07-0.054-0.137-0.085-0.203c-0.648-1.514-1.77-2.836-3.34-3.664l-17.992-9.475l17.645-17.645l9.479,13.904
			c0.203,0.309,0.438,0.59,0.699,0.846c0.078,0.078,0.168,0.137,0.252,0.207c0.171,0.148,0.34,0.295,0.527,0.42
			c0.113,0.074,0.237,0.127,0.357,0.193c0.174,0.096,0.345,0.197,0.531,0.273c0.136,0.055,0.281,0.088,0.42,0.131
			c0.178,0.055,0.352,0.119,0.537,0.156c0.24,0.045,0.484,0.059,0.731,0.072c0.085,0.004,0.171,0.027,0.259,0.027h0.026
			c0.005,0,0.005,0,0.005,0h26.982c2.857,0,5.176-2.318,5.176-5.176S162.178,75.683,159.32,75.683z"/>
	</g>
	<g>
		<path fill="#D80B8C" d="M286.633,61.906h-25.02l-10.506-16.535c-0.871-3.815-3.961-6.914-8.063-7.588l-4.078-0.67
			c-2.447-0.402-4.828,0.135-6.787,1.336l-43.141,23.03c-2.479,1.336-3.404,4.429-2.068,6.906c1.337,2.479,4.43,3.405,6.907,2.069
			l32.399-17.294l-4.964,30.203c-0.072,0.445-0.104,0.887-0.116,1.324l-4.672,28.605l-32.7,12.316
			c-3.916,1.477-5.896,5.848-4.419,9.764c1.474,3.916,5.844,5.896,9.761,4.42l36.485-13.742c2.602-0.854,4.653-3.088,5.125-5.977
			l3.98-24.383l20.76,12.752l-1.008,34.93c-0.119,4.184,3.175,7.674,7.357,7.793c4.184,0.121,7.674-3.172,7.795-7.355l1.123-38.975
			c0.195-2.73-1.096-5.475-3.59-7.006L245.43,84.459l3.787-23.05l5.291,8.327c0.871,1.37,2.284,2.179,3.783,2.334
			c0.041,0.004,0.082,0.006,0.125,0.009c0.115,0.009,0.232,0.016,0.35,0.017c0.025,0,0.051,0.004,0.076,0.004h27.791
			c2.816,0,5.1-2.282,5.1-5.097C291.732,64.188,289.449,61.906,286.633,61.906z"/>
		<circle fill="#D80B8C" cx="244.078" cy="21.083" r="12.793"/>
	</g>
	<path fill="#D80B8C" d="M173.391,57.811c-0.861-0.591-2.037-0.374-2.627,0.485l-10.539,15.32c1.34,0.148,2.572,0.661,3.598,1.431
		l10.053-14.612C174.465,59.577,174.247,58.401,173.391,57.811z"/>
</g>
</svg>
