<?xml version="1.0" encoding="utf-8"?>
<!-- Generator: Adobe Illustrator 16.0.0, SVG Export Plug-In . SVG Version: 6.00 Build 0)  -->
<!DOCTYPE svg PUBLIC "-//W3C//DTD SVG 1.1//EN" "http://www.w3.org/Graphics/SVG/1.1/DTD/svg11.dtd">
<svg version="1.1" id="Calque_1" xmlns="http://www.w3.org/2000/svg" xmlns:xlink="http://www.w3.org/1999/xlink" x="0px" y="0px"
	 width="300px" height="300px" viewBox="0 0 300 300" enable-background="new 0 0 300 300" xml:space="preserve">
<g>
	<polygon fill="#ED1C24" points="230.406,182.166 209.211,182.166 87.292,282.883 149.939,282.883 	"/>
	<g>
		<path fill="#662D91" d="M258.951,47.342c0-12.019-9.745-21.76-21.76-21.76c-12.021,0-21.765,9.741-21.765,21.76
			c0,12.02,9.743,21.76,21.765,21.76C249.206,69.102,258.951,59.361,258.951,47.342z"/>
		<path fill="#662D91" d="M282.928,106.895H242.93l-20.081-29.461c-0.558-3.443-2.118-6.753-4.772-9.407l-2.791-3.217
			c-3.838-3.836-9.04-5.47-14.045-4.915L163.68,33.191c-0.859-0.613-1.797-1.033-2.759-1.291c-0.013-0.004-0.024-0.007-0.036-0.009
			c-0.234-0.063-0.475-0.114-0.717-0.155c-0.047-0.009-0.094-0.018-0.143-0.026c-0.201-0.029-0.4-0.055-0.604-0.07
			c-0.096-0.008-0.191-0.016-0.287-0.021c-0.151-0.009-0.303-0.013-0.453-0.012c-0.15,0-0.303,0.004-0.455,0.012
			c-0.094,0.006-0.189,0.014-0.283,0.021c-0.205,0.017-0.41,0.042-0.611,0.073c-0.043,0.008-0.086,0.016-0.127,0.022
			c-1.494,0.256-2.941,0.901-4.168,1.968l-35.094,30.459c-3.58,3.11-3.967,8.538-0.854,12.12c3.109,3.587,8.535,3.97,12.121,0.858
			l30-26.039l26.584,18.9l-43.734,43.738c-0.191,0.191-0.355,0.394-0.537,0.59c-0.008,0.009-0.012,0.016-0.02,0.024l-0.037,0.041
			c-0.246,0.268-0.488,0.535-0.711,0.813L100.693,161.1H38.771c-7.074,0-12.807,5.731-12.807,12.803s5.732,12.802,12.807,12.802
			h67.867c0.168,0,0.334-0.018,0.502-0.024c0.111-0.005,0.227-0.008,0.342-0.017c4.074-0.266,7.633-2.423,9.785-5.616l35.809-41.017
			c15.734,8.232,42.451,22.232,42.451,22.232v60.375c0,6.997,5.672,12.67,12.671,12.67c7.003,0,12.671-5.673,12.671-12.67v-68.287
			c0-0.216-0.053-0.419-0.063-0.632c-0.025-0.525-0.074-1.04-0.158-1.555c-0.041-0.254-0.096-0.502-0.155-0.748
			c-0.144-0.619-0.329-1.219-0.564-1.809c-0.044-0.119-0.093-0.234-0.146-0.349c-1.102-2.575-3.012-4.823-5.682-6.232
			l-30.607-16.116l30.012-30.017l16.129,23.655c0.348,0.521,0.742,1.002,1.191,1.436c0.131,0.134,0.283,0.234,0.425,0.354
			c0.292,0.25,0.576,0.501,0.897,0.713c0.195,0.128,0.404,0.218,0.609,0.329c0.295,0.164,0.588,0.335,0.902,0.464
			c0.23,0.096,0.48,0.15,0.716,0.227c0.302,0.092,0.598,0.2,0.915,0.261c0.408,0.08,0.824,0.104,1.241,0.126
			c0.146,0.007,0.29,0.045,0.442,0.045h0.043c0.008,0,0.01,0,0.016,0h45.895c4.863,0,8.805-3.943,8.805-8.805
			S287.791,106.895,282.928,106.895z"/>
	</g>
	<path fill="#FFFFFF" d="M151.223,269.711c0-2.885-8.631-5.221-19.275-5.221c-10.648,0-19.275,2.336-19.275,5.221
		c0,2.883,8.627,5.221,19.275,5.221C142.592,274.932,151.223,272.594,151.223,269.711z"/>
	<polygon fill="#ED1C24" points="131.947,17.117 125.117,17.117 8.268,17.117 8.268,102.171 125.117,102.171 125.117,269.711 
		138.779,269.711 138.779,17.117 	"/>
	<g>
		<rect x="11.943" y="23.246" fill="#FFFFFF" width="14.098" height="12.29"/>
		<rect x="26.041" y="35.536" fill="#FFFFFF" width="14.098" height="12.287"/>
		<rect x="40.139" y="23.246" fill="#FFFFFF" width="14.088" height="12.29"/>
		<rect x="54.227" y="35.536" fill="#FFFFFF" width="14.095" height="12.287"/>
		<rect x="68.321" y="23.246" fill="#FFFFFF" width="14.095" height="12.29"/>
		<rect x="82.416" y="35.536" fill="#FFFFFF" width="14.094" height="12.287"/>
		<rect x="96.51" y="23.246" fill="#FFFFFF" width="14.098" height="12.29"/>
		<rect x="110.607" y="35.536" fill="#FFFFFF" width="14.098" height="12.287"/>
		<rect x="11.943" y="47.823" fill="#FFFFFF" width="14.098" height="12.29"/>
		<rect x="26.041" y="60.113" fill="#FFFFFF" width="14.098" height="12.288"/>
		<rect x="40.139" y="47.823" fill="#FFFFFF" width="14.088" height="12.29"/>
		<rect x="54.227" y="60.113" fill="#FFFFFF" width="14.095" height="12.288"/>
		<rect x="68.321" y="47.823" fill="#FFFFFF" width="14.095" height="12.29"/>
		<rect x="82.416" y="60.113" fill="#FFFFFF" width="14.094" height="12.288"/>
		<rect x="96.51" y="47.823" fill="#FFFFFF" width="14.098" height="12.29"/>
		<rect x="110.607" y="60.113" fill="#FFFFFF" width="14.098" height="12.288"/>
		<rect x="11.943" y="72.401" fill="#FFFFFF" width="14.098" height="12.287"/>
		<rect x="26.041" y="84.688" fill="#FFFFFF" width="14.098" height="12.29"/>
		<rect x="40.139" y="72.401" fill="#FFFFFF" width="14.088" height="12.287"/>
		<rect x="54.227" y="84.688" fill="#FFFFFF" width="14.095" height="12.29"/>
		<rect x="68.321" y="72.401" fill="#FFFFFF" width="14.095" height="12.287"/>
		<rect x="82.416" y="84.688" fill="#FFFFFF" width="14.094" height="12.29"/>
		<rect x="96.51" y="72.401" fill="#FFFFFF" width="14.098" height="12.287"/>
		<rect x="110.607" y="84.688" fill="#FFFFFF" width="14.098" height="12.29"/>
	</g>
</g>
</svg>
