<?xml version="1.0" encoding="utf-8"?>
<!-- Generator: Adobe Illustrator 16.0.0, SVG Export Plug-In . SVG Version: 6.00 Build 0)  -->
<!DOCTYPE svg PUBLIC "-//W3C//DTD SVG 1.1//EN" "http://www.w3.org/Graphics/SVG/1.1/DTD/svg11.dtd">
<svg version="1.1" id="Calque_1" xmlns="http://www.w3.org/2000/svg" xmlns:xlink="http://www.w3.org/1999/xlink" x="0px" y="0px"
	 width="300px" height="300px" viewBox="0 0 300 300" enable-background="new 0 0 300 300" xml:space="preserve">
<g>
	<g>
		<circle fill="#92278F" cx="193.283" cy="35.339" r="27.065"/>
		<path fill="#92278F" d="M274.349,81.704l-45.888,19.203l-37.184-24.159c-2.293-3.683-5.672-6.731-9.992-8.502l-4.747-2.349
			c-6.245-2.56-12.997-1.935-18.474,1.104l-55.914-12.604c-1.28-0.29-2.556-0.323-3.784-0.156c-0.017,0.002-0.033,0.005-0.049,0.006
			c-0.301,0.042-0.599,0.098-0.893,0.166c-0.061,0.013-0.119,0.026-0.179,0.041c-0.245,0.061-0.486,0.13-0.726,0.207
			c-0.113,0.036-0.228,0.075-0.34,0.115c-0.178,0.063-0.353,0.132-0.527,0.206c-0.172,0.072-0.342,0.148-0.513,0.229
			c-0.107,0.052-0.212,0.106-0.317,0.161c-0.227,0.119-0.45,0.244-0.668,0.378c-0.044,0.029-0.088,0.057-0.133,0.085
			c-1.59,1.012-2.939,2.447-3.836,4.261l-25.639,51.792c-2.619,5.289-0.455,11.701,4.836,14.319
			c5.289,2.62,11.701,0.453,14.32-4.837l21.92-44.279l39.572,8.922l-29.179,71.18c-0.128,0.311-0.221,0.623-0.33,0.934
			c-0.006,0.014-0.009,0.025-0.014,0.037l-0.022,0.064c-0.148,0.424-0.303,0.85-0.426,1.275l-23.934,71.885l-71.041,29.729
			c-8.113,3.396-11.938,12.724-8.542,20.836c3.395,8.112,12.722,11.937,20.836,8.542l77.868-32.586
			c0.192-0.08,0.372-0.182,0.561-0.269c0.129-0.062,0.258-0.12,0.385-0.185c4.548-2.262,7.593-6.443,8.529-11.141l19.766-61.614
			c19.218,9.476,51.059,22.575,51.059,22.575l28.986,71.518c3.359,8.027,12.59,11.813,20.619,8.453
			c8.032-3.361,11.814-12.592,8.455-20.621l-32.787-78.344c-0.102-0.248-0.262-0.455-0.375-0.695
			c-0.281-0.59-0.582-1.159-0.93-1.708c-0.17-0.271-0.348-0.53-0.535-0.784c-0.461-0.641-0.962-1.239-1.517-1.805
			c-0.109-0.114-0.219-0.223-0.333-0.33c-2.502-2.425-44.036-22.445-44.036-22.445l21.643-56.954l29.857,19.397
			c0.649,0.433,1.335,0.792,2.056,1.075c0.214,0.09,0.438,0.132,0.658,0.202c0.456,0.146,0.904,0.298,1.374,0.387
			c0.284,0.053,0.567,0.057,0.854,0.086c0.418,0.046,0.836,0.102,1.26,0.099c0.313-0.002,0.623-0.059,0.931-0.086
			c0.392-0.04,0.783-0.056,1.173-0.137c0.509-0.106,0.998-0.278,1.487-0.455c0.171-0.06,0.354-0.087,0.528-0.16l0.05-0.021
			c0.009-0.003,0.011-0.004,0.019-0.007l52.653-22.035c5.578-2.334,8.209-8.75,5.874-14.328
			C286.344,82,279.928,79.369,274.349,81.704z"/>
	</g>
	<polygon fill="#8DC63F" points="175.926,159.801 40.663,166.908 40.663,136.529 183.371,129.422 175.73,134.647 179.813,141.06 
		172.621,144.611 178.063,149.806 170.899,153.57 	"/>
</g>
</svg>
