<?xml version="1.0" encoding="utf-8"?>
<!-- Generator: Adobe Illustrator 16.0.0, SVG Export Plug-In . SVG Version: 6.00 Build 0)  -->
<!DOCTYPE svg PUBLIC "-//W3C//DTD SVG 1.1//EN" "http://www.w3.org/Graphics/SVG/1.1/DTD/svg11.dtd">
<svg version="1.1" id="Calque_1" xmlns="http://www.w3.org/2000/svg" xmlns:xlink="http://www.w3.org/1999/xlink" x="0px" y="0px"
	 width="300px" height="200px" viewBox="0 0 300 200" enable-background="new 0 0 300 200" xml:space="preserve">
<g>
	<path fill="#ED1C24" d="M62.392,40.395c0,14.948-12.117,27.063-27.064,27.063c-14.945,0-27.06-12.115-27.06-27.063
		c0-14.944,12.114-27.06,27.06-27.06C50.274,13.335,62.392,25.451,62.392,40.395z"/>
	<path fill="#ED1C24" d="M203.215,66.517c0,13.928-11.29,25.222-25.223,25.222H94.968c-13.932,0-25.221-11.294-25.221-25.222V60.1
		c0-13.929,11.289-25.222,25.221-25.222h83.024c13.933,0,25.223,11.293,25.223,25.222V66.517z"/>
	<path fill="#ED1C24" d="M90.294,74.3c1.43-5.323-1.729-10.798-7.063-12.227l0,0c-5.32-1.426-10.794,1.736-12.225,7.06
		L42.899,174.092c-1.43,5.326,1.732,10.801,7.057,12.23l0,0c5.328,1.424,10.799-1.736,12.229-7.063L90.294,74.3z"/>
	<path fill="#ED1C24" d="M98.403,68.958c0.383-5.499-3.769-10.266-9.276-10.644l0,0c-5.495-0.379-10.263,3.774-10.643,9.273
		l-7.437,108.404c-0.378,5.502,3.771,10.268,9.273,10.648l0,0c5.503,0.375,10.266-3.779,10.645-9.281L98.403,68.958z"/>
	<path fill="#ED1C24" d="M173.261,136.945c0,6.965,5.647,12.611,12.611,12.611h4.731c6.965,0,12.611-5.646,12.611-12.611V65.356
		c0-6.964-5.646-12.611-12.611-12.611h-4.731c-6.964,0-12.611,5.647-12.611,12.611V136.945z"/>
	<path fill="#ED1C24" d="M230.218,183.988c5.678,4.029,13.551,2.693,17.58-2.99l2.738-3.857c4.028-5.68,2.691-13.551-2.986-17.584
		l-51.638-36.639c-5.684-4.029-13.556-2.693-17.588,2.988l-2.734,3.859c-4.032,5.678-2.696,13.555,2.987,17.58L230.218,183.988z"/>
	<path fill="#ED1C24" d="M125.562,121.9c-3.623,5.945-1.732,13.707,4.217,17.328l2.406,1.375c5.955,3.621,13.707,1.736,17.332-4.211
		l37.234-61.15c3.619-5.945,1.728-13.707-4.213-17.332l-2.412-1.372c-5.951-3.624-13.709-1.734-17.33,4.212L125.562,121.9z"/>
	<path fill="#ED1C24" d="M148.002,118.703c-4.514-5.309-12.478-5.945-17.777-1.436l-2.063,1.855
		c-5.305,4.52-5.949,12.475-1.434,17.779l38.313,44.979c4.508,5.303,12.474,5.939,17.778,1.434l2.056-1.859
		c5.309-4.514,5.948-12.471,1.44-17.775L148.002,118.703z"/>
	<polygon fill="#662D91" points="203.144,168.605 184.884,186.662 217.623,186.662 	"/>
	<polygon fill="#662D91" points="270.426,159.67 249.12,186.662 291.732,186.662 	"/>
</g>
</svg>
