<?xml version="1.0" encoding="utf-8"?>
<!-- Generator: Adobe Illustrator 16.0.0, SVG Export Plug-In . SVG Version: 6.00 Build 0)  -->
<!DOCTYPE svg PUBLIC "-//W3C//DTD SVG 1.1//EN" "http://www.w3.org/Graphics/SVG/1.1/DTD/svg11.dtd">
<svg version="1.1" id="Calque_1" xmlns="http://www.w3.org/2000/svg" xmlns:xlink="http://www.w3.org/1999/xlink" x="0px" y="0px"
	 width="255px" height="300px" viewBox="0 0 255 300" enable-background="new 0 0 255 300" xml:space="preserve">
<g>
	<polygon fill="#FBB040" points="91.804,211.133 170.473,291.731 13.132,291.731 	"/>
	<path fill="#00AEEF" d="M116.525,75.77c-6.84,14.238-6.34,31.632,7.988,45.976c14.356,14.368,32.667,17.595,49.308,12.462
		c21.324,23.336,67.539,117.794,37.605,150.369l-3.549,3.546c-4.82,4.817-12.635,4.812-17.449-0.009L48.421,145.981
		c-4.816-4.82-4.814-12.636,0.006-17.453l51.836-51.787C104.714,72.293,111.685,72.007,116.525,75.77z"/>
	<path fill="#00AEEF" d="M174.319,124.157c-3.748,1.153-25.32,4.257-38.432-7.506c-12.948-11.617-13.542-34.488-10.356-41.125
		c1.511-3.148,62.022-63.646,62.022-63.646c4.82-4.82,12.637-4.814,17.451,0.006l33.254,33.286c4.814,4.82,4.813,12.636-0.008,17.45
		C238.25,62.623,175.514,123.786,174.319,124.157z"/>
</g>
</svg>
