<?xml version="1.0" encoding="utf-8"?>
<!-- Generator: Adobe Illustrator 16.0.0, SVG Export Plug-In . SVG Version: 6.00 Build 0)  -->
<!DOCTYPE svg PUBLIC "-//W3C//DTD SVG 1.1//EN" "http://www.w3.org/Graphics/SVG/1.1/DTD/svg11.dtd">
<svg version="1.1" id="Calque_1" xmlns="http://www.w3.org/2000/svg" xmlns:xlink="http://www.w3.org/1999/xlink" x="0px" y="0px"
	 width="300px" height="300px" viewBox="0 0 300 300" enable-background="new 0 0 300 300" xml:space="preserve">
<g>
	<path fill="#8DC63F" d="M254.668,116.043c1.447-3.537-0.234-7.563-3.779-8.997L107.741,48.508c-3.531-1.439-7.57,0.254-9.016,3.779
		l-9.662,23.538c-1.447,3.538,0.24,7.577,3.771,9.018l143.156,58.551c3.537,1.452,7.57-0.241,9.016-3.779L254.668,116.043z"/>
	<path fill="#8DC63F" d="M210.619,223.594c1.441-3.538-0.234-7.577-3.777-9.036L63.686,155.941c-3.523-1.446-7.564,0.247-9.01,3.785
		l-9.668,23.584c-1.439,3.538,0.254,7.564,3.777,9.018l143.15,58.629c3.543,1.439,7.576-0.241,9.023-3.779L210.619,223.594z"/>
	<path fill="#92278F" d="M232.283,56.782L89.135,75.773c0,0,10.736-26.288,14.502-35.468c2.463-5.987,12.463-6.912,28.033-8.88
		c35.585-4.489,95.445-13.558,95.445-13.558L232.283,56.782z"/>
	<path fill="#92278F" d="M67.192,243.151l143.148-19.017c0,0-10.73,26.327-14.496,35.526c-2.455,6-12.457,6.932-28.027,8.912
		c-35.585,4.482-95.445,13.564-95.445,13.564L67.192,243.151z"/>
	<path fill="#92278F" d="M254.76,115.672c0,0-159.691,22.34-167.203,23.298c-15.564,1.968-25.578,2.912-28.033,8.906
		c-3.766,9.205-14.484,35.52-14.484,35.52s159.007-21.969,167.216-23.317c15.473-2.541,25.564-2.905,28.021-8.893
		C244.035,141.986,254.76,115.672,254.76,115.672z"/>
	<path fill="#8DC63F" d="M278.143,41.27l-2.9-21.05c-1.035-7.564-7.986-12.848-15.557-11.825l-25.904,3.564
		c-7.564,1.022-12.873,7.98-11.857,15.538l2.912,21.057c1.016,7.558,7.994,12.835,15.564,11.818l25.891-3.563
		C273.867,55.772,279.172,48.827,278.143,41.27z M257.326,40.208c-3.543-1.44-5.211-5.466-3.771-8.984
		c1.445-3.531,5.484-5.231,9.023-3.785c3.531,1.446,5.211,5.46,3.771,9.01C264.904,39.967,260.863,41.667,257.326,40.208z"/>
	<path fill="#8DC63F" d="M21.86,258.651l2.887,21.096c1.035,7.577,7.994,12.867,15.564,11.863l25.91-3.603
		c7.564-1.003,12.873-7.994,11.844-15.558l-2.898-21.096c-1.018-7.551-7.994-12.861-15.559-11.838l-25.904,3.57
		C26.133,244.122,20.817,251.087,21.86,258.651z M42.663,259.726c3.531,1.44,5.219,5.486,3.785,9.011
		c-1.453,3.524-5.492,5.226-9.023,3.772c-3.525-1.44-5.225-5.486-3.779-9.03C35.092,259.954,39.125,258.267,42.663,259.726z"/>
	<g>
		<path fill="#8DC63F" d="M206.627,34.768c0.09,0.534,0.6,0.893,1.133,0.795c0.535-0.078,0.873-0.586,0.781-1.127l-2.207-13.474
			c-0.619,0.099-1.297,0.189-1.93,0.287L206.627,34.768z"/>
		<path fill="#8DC63F" d="M197.988,36.019c0.09,0.541,0.598,0.886,1.119,0.782c0.535-0.078,0.887-0.587,0.795-1.102l-2.215-13.46
			c-0.631,0.091-1.283,0.189-1.922,0.287L197.988,36.019z"/>
		<path fill="#8DC63F" d="M189.361,37.218c0.084,0.534,0.594,0.879,1.121,0.795c0.533-0.099,0.893-0.6,0.795-1.121l-2.209-13.408
			c-0.639,0.098-1.277,0.209-1.936,0.294L189.361,37.218z"/>
		<path fill="#8DC63F" d="M181.016,38.469c0.104,0.521,0.6,0.873,1.141,0.781c0.521-0.085,0.873-0.6,0.781-1.127l-2.209-13.428
			c-0.645,0.098-1.277,0.183-1.928,0.28L181.016,38.469z"/>
		<path fill="#8DC63F" d="M163.406,40.749c0.104,0.54,0.605,0.893,1.133,0.808c0.527-0.098,0.879-0.6,0.795-1.121l-2.176-13.251
			c-0.645,0.098-1.291,0.188-1.936,0.286L163.406,40.749z"/>
		<path fill="#8DC63F" d="M154.559,41.504c0.09,0.534,0.6,0.893,1.119,0.795c0.535-0.084,0.887-0.599,0.795-1.127l-2.012-12.775
			c-0.646,0.098-1.283,0.176-1.916,0.247L154.559,41.504z"/>
		<path fill="#8DC63F" d="M145.999,42.521c0.098,0.528,0.592,0.873,1.133,0.795c0.527-0.098,0.879-0.605,0.795-1.127l-2.025-12.626
			c-0.672,0.084-1.297,0.176-1.955,0.247L145.999,42.521z"/>
		<path fill="#8DC63F" d="M137.614,43.094c0.117,0.515,0.617,0.873,1.133,0.775c0.533-0.085,0.887-0.58,0.789-1.107l-2.014-12.099
			c-0.672,0.092-1.283,0.183-1.936,0.254L137.614,43.094z"/>
		<path fill="#8DC63F" d="M121.436,45.771c0.104,0.541,0.605,0.893,1.121,0.802c0.533-0.098,0.893-0.6,0.801-1.114l-2.02-12.704
			c-0.697,0.104-1.316,0.215-1.975,0.325L121.436,45.771z"/>
		<path fill="#8DC63F" d="M111.428,47.29c0.098,0.54,0.6,0.879,1.127,0.795c0.535-0.085,0.887-0.6,0.789-1.114l-2.025-12.164
			c-0.639,0.195-1.305,0.371-1.883,0.593L111.428,47.29z"/>
		<path fill="#8DC63F" d="M212.34,20.076l4.039,28.009c0.072,0.527,0.574,0.905,1.121,0.808c0.514-0.078,0.887-0.567,0.814-1.095
			l-4.059-28.008C213.598,19.888,213.023,19.979,212.34,20.076z"/>
		<path fill="#8DC63F" d="M174.176,54.234c0.064,0.521,0.566,0.906,1.113,0.821c0.514-0.065,0.879-0.554,0.809-1.081l-4.066-28.041
			c-0.645,0.098-1.264,0.183-1.908,0.273L174.176,54.234z"/>
		<path fill="#8DC63F" d="M127.481,31.953l4.066,28.093c0.072,0.528,0.561,0.912,1.107,0.828c0.527-0.079,0.887-0.561,0.82-1.108
			l-4.07-28.066C128.758,31.784,128.114,31.882,127.481,31.953z"/>
		<path fill="#8DC63F" d="M223.813,132.91c0.092,0.521,0.6,0.873,1.127,0.782c0.535-0.098,0.893-0.593,0.803-1.127l-1.988-12.555
			c-0.625,0.078-1.289,0.163-1.922,0.261L223.813,132.91z"/>
		<path fill="#8DC63F" d="M215.16,134.155c0.111,0.527,0.613,0.893,1.129,0.795c0.533-0.092,0.893-0.6,0.801-1.121l-1.988-12.619
			c-0.625,0.091-1.283,0.176-1.922,0.273L215.16,134.155z"/>
		<path fill="#8DC63F" d="M247.137,116.74l1.824,11.643c0.039,0.254,0.195,0.442,0.385,0.593c0.424-1.029,0.828-2.033,1.219-3.004
			l-1.512-9.505C248.447,116.551,247.834,116.643,247.137,116.74z"/>
		<path fill="#8DC63F" d="M240.309,129.646c0.111,0.521,0.613,0.88,1.135,0.795c0.533-0.085,0.885-0.606,0.807-1.134l-1.83-11.629
			c-0.625,0.084-1.297,0.182-1.936,0.267L240.309,129.646z"/>
		<path fill="#8DC63F" d="M206.541,135.347c0.092,0.528,0.6,0.88,1.127,0.789c0.529-0.098,0.887-0.587,0.789-1.127l-1.975-12.588
			c-0.645,0.098-1.277,0.17-1.928,0.268L206.541,135.347z"/>
		<path fill="#8DC63F" d="M198.203,136.585c0.098,0.527,0.598,0.893,1.119,0.795c0.541-0.085,0.9-0.6,0.814-1.134l-2.006-12.665
			c-0.639,0.085-1.283,0.183-1.922,0.28L198.203,136.585z"/>
		<path fill="#8DC63F" d="M180.982,138.716c0.092,0.527,0.6,0.886,1.135,0.795c0.521-0.085,0.893-0.606,0.801-1.128l-1.947-12.411
			c-0.639,0.098-1.291,0.195-1.936,0.287L180.982,138.716z"/>
		<path fill="#8DC63F" d="M171.674,139.967c0.104,0.527,0.611,0.886,1.127,0.801c0.533-0.091,0.879-0.586,0.801-1.127l-1.889-12.365
			c-0.646,0.098-1.285,0.182-1.922,0.26L171.674,139.967z"/>
		<path fill="#8DC63F" d="M163.223,140.794c0.092,0.521,0.605,0.879,1.146,0.795c0.516-0.078,0.867-0.6,0.783-1.121l-1.857-12.014
			c-0.645,0.085-1.283,0.183-1.955,0.254L163.223,140.794z"/>
		<path fill="#8DC63F" d="M154.988,142.143c0.084,0.541,0.586,0.893,1.113,0.795c0.535-0.098,0.887-0.606,0.789-1.121l-1.902-12.196
			c-0.664,0.085-1.303,0.163-1.955,0.261L154.988,142.143z"/>
		<path fill="#8DC63F" d="M233.756,147.133c0.064,0.534,0.566,0.919,1.088,0.841c0.539-0.098,0.885-0.567,0.834-1.102l-4.033-27.962
			c-0.652,0.078-1.258,0.156-1.936,0.267L233.756,147.133z"/>
		<path fill="#8DC63F" d="M191.537,153.315c0.066,0.541,0.555,0.899,1.096,0.828c0.527-0.085,0.893-0.561,0.82-1.102l-4.066-28.243
			c-0.639,0.099-1.283,0.196-1.928,0.294L191.537,153.315z"/>
		<path fill="#8DC63F" d="M137.092,143.967c0.109,0.534,0.619,0.893,1.146,0.808c0.527-0.098,0.885-0.612,0.781-1.114l-1.805-11.558
			c-0.645,0.078-1.283,0.163-1.928,0.261L137.092,143.967z"/>
		<path fill="#8DC63F" d="M127.795,145.243c0.098,0.521,0.598,0.88,1.119,0.782c0.541-0.085,0.893-0.593,0.803-1.114l-1.754-11.525
			c-0.65,0.085-1.289,0.183-1.922,0.268L127.795,145.243z"/>
		<path fill="#8DC63F" d="M119.338,146.064c0.111,0.521,0.605,0.88,1.141,0.782c0.527-0.085,0.879-0.594,0.781-1.121l-1.707-11.173
			c-0.652,0.098-1.322,0.182-1.961,0.279L119.338,146.064z"/>
		<path fill="#8DC63F" d="M111.096,147.394c0.098,0.547,0.6,0.893,1.121,0.795c0.541-0.078,0.887-0.587,0.801-1.114l-1.805-11.355
			c-0.67,0.084-1.277,0.183-1.922,0.254L111.096,147.394z"/>
		<path fill="#8DC63F" d="M147.647,158.586c0.064,0.515,0.572,0.906,1.1,0.828c0.535-0.098,0.893-0.58,0.828-1.107l-3.955-27.383
			c-0.639,0.078-1.283,0.176-1.922,0.26L147.647,158.586z"/>
		<path fill="#8DC63F" d="M94.385,149.713c0.098,0.521,0.586,0.873,1.127,0.788c0.535-0.085,0.887-0.586,0.795-1.12l-1.799-11.356
			c-0.684,0.099-1.314,0.183-1.922,0.261L94.385,149.713z"/>
		<path fill="#8DC63F" d="M85.264,139.263c-0.65,0.078-1.309,0.163-1.928,0.248l1.732,11.46c0.098,0.527,0.605,0.893,1.121,0.794
			c0.533-0.091,0.885-0.599,0.801-1.12L85.264,139.263z"/>
		<path fill="#8DC63F" d="M76.62,151.798c0.09,0.521,0.6,0.879,1.127,0.781c0.527-0.084,0.885-0.586,0.801-1.113l-1.701-11.096
			c-0.689,0.098-1.303,0.209-1.941,0.319L76.62,151.798z"/>
		<path fill="#8DC63F" d="M68.372,153.14c0.098,0.521,0.6,0.88,1.133,0.802c0.527-0.098,0.879-0.606,0.781-1.127l-1.713-10.881
			c-0.684,0.163-1.264,0.385-1.877,0.58L68.372,153.14z"/>
		<path fill="#8DC63F" d="M104.92,164.319c0.072,0.534,0.566,0.906,1.094,0.821c0.541-0.078,0.9-0.58,0.834-1.095l-3.914-27.188
			c-0.633,0.098-1.316,0.195-1.922,0.28L104.92,164.319z"/>
		<path fill="#8DC63F" d="M63.387,170.913c0.533-0.085,0.893-0.573,0.826-1.095l-3.445-23.923c-0.527,0.599-0.951,1.264-1.244,1.98
			c-0.098,0.247-0.223,0.534-0.32,0.781l3.076,21.422C62.35,170.626,62.846,170.997,63.387,170.913z"/>
		<path fill="#8DC63F" d="M202.078,238.051c0.105,0.527,0.6,0.893,1.127,0.795c0.541-0.098,0.887-0.6,0.795-1.134l-1.947-12.47
			l-1.947,0.247L202.078,238.051z"/>
		<path fill="#8DC63F" d="M192.77,239.314c0.09,0.527,0.592,0.88,1.127,0.781c0.521-0.084,0.885-0.593,0.795-1.12l-1.902-12.509
			l-1.93,0.254L192.77,239.314z"/>
		<path fill="#8DC63F" d="M184.313,240.129c0.084,0.534,0.6,0.893,1.133,0.795c0.527-0.085,0.887-0.612,0.795-1.127l-1.869-12.21
			l-1.967,0.261L184.313,240.129z"/>
		<path fill="#8DC63F" d="M176.07,241.478c0.098,0.527,0.594,0.886,1.121,0.788c0.527-0.078,0.879-0.586,0.801-1.114l-1.967-12.47
			l-1.93,0.28L176.07,241.478z"/>
		<path fill="#8DC63F" d="M158.199,243.321c0.092,0.521,0.6,0.886,1.127,0.781c0.535-0.084,0.887-0.593,0.789-1.12l-1.863-11.936
			l-1.936,0.267L158.199,243.321z"/>
		<path fill="#8DC63F" d="M148.877,244.585c0.111,0.515,0.605,0.873,1.133,0.775c0.535-0.078,0.881-0.586,0.803-1.141l-1.824-11.929
			l-1.93,0.248L148.877,244.585z"/>
		<path fill="#8DC63F" d="M140.434,245.393c0.098,0.534,0.6,0.88,1.133,0.795c0.527-0.091,0.887-0.6,0.795-1.114l-1.791-11.668
			l-1.955,0.254L140.434,245.393z"/>
		<path fill="#8DC63F" d="M132.186,246.735c0.098,0.54,0.6,0.893,1.133,0.808c0.527-0.098,0.873-0.606,0.789-1.134l-1.889-11.896
			l-1.922,0.268L132.186,246.735z"/>
		<path fill="#8DC63F" d="M168.734,257.901c0.072,0.561,0.58,0.919,1.107,0.848c0.535-0.098,0.887-0.573,0.822-1.107l-3.994-27.696
			l-1.91,0.235L168.734,257.901z"/>
		<path fill="#8DC63F" d="M115.481,249.041c0.092,0.534,0.594,0.893,1.127,0.795c0.527-0.084,0.881-0.586,0.795-1.12l-1.877-11.988
			l-1.941,0.261L115.481,249.041z"/>
		<path fill="#8DC63F" d="M106.165,250.292c0.092,0.541,0.6,0.906,1.121,0.821c0.527-0.098,0.879-0.606,0.795-1.127l-1.838-12.021
			l-1.916,0.254L106.165,250.292z"/>
		<path fill="#8DC63F" d="M97.708,251.126c0.098,0.521,0.607,0.873,1.127,0.795c0.535-0.085,0.887-0.593,0.795-1.12l-1.791-11.715
			l-1.961,0.274L97.708,251.126z"/>
		<path fill="#8DC63F" d="M89.459,252.481c0.092,0.534,0.6,0.879,1.127,0.781c0.541-0.084,0.887-0.586,0.795-1.127l-1.883-11.929
			l-1.941,0.234L89.459,252.481z"/>
		<path fill="#8DC63F" d="M126.016,263.661c0.072,0.502,0.561,0.886,1.107,0.814c0.521-0.085,0.879-0.566,0.814-1.107l-4.006-27.748
			l-1.91,0.254L126.016,263.661z"/>
		<path fill="#8DC63F" d="M83.375,269.434c0.078,0.521,0.566,0.905,1.107,0.814c0.521-0.072,0.893-0.567,0.814-1.102l-4.008-27.858
			l-1.922,0.235L83.375,269.434z"/>
	</g>
</g>
</svg>
