<?xml version="1.0" standalone="no"?>
<!DOCTYPE svg PUBLIC "-//W3C//DTD SVG 1.1//EN" "http://www.w3.org/Graphics/SVG/1.1/DTD/svg11.dtd" >
<svg xmlns="http://www.w3.org/2000/svg" xmlns:xlink="http://www.w3.org/1999/xlink" version="1.1">
<metadata></metadata>
<defs>
<font id="alien_encountersregular" horiz-adv-x="1351" >
<font-face units-per-em="2048" ascent="1638" descent="-410" />
<missing-glyph horiz-adv-x="512" />
<glyph horiz-adv-x="0" />
<glyph unicode="&#xd;" horiz-adv-x="512" />
<glyph unicode=" "  horiz-adv-x="512" />
<glyph unicode="&#x09;" horiz-adv-x="512" />
<glyph unicode="&#xa0;" horiz-adv-x="512" />
<glyph unicode="!" horiz-adv-x="430" d="M61 0v123h308v-123h-308zM61 164v123h308v-123h-308zM61 492v122h308v-122h-308zM61 655v123h308v-123h-308zM61 819v123h308v-123h-308zM61 983v123h308v-123h-308zM61 1147v123h308v-123h-308zM61 1311v123h308v-123h-308z" />
<glyph unicode="&#x22;" horiz-adv-x="819" d="M61 1147v123h308v-123h-308zM61 1311v123h308v-123h-308zM215 983v123h154v-123h-154zM451 1147v123h307v-123h-307zM451 1311v123h307v-123h-307zM604 983v123h154v-123h-154z" />
<glyph unicode="'" horiz-adv-x="430" d="M61 1147v123h308v-123h-308zM61 1311v123h308v-123h-308zM215 983v123h154v-123h-154z" />
<glyph unicode="," horiz-adv-x="430" d="M61 0v123h308v-123h-308zM61 164v123h308v-123h-308zM215 -41h154v-123h-154v123z" />
<glyph unicode="." horiz-adv-x="430" d="M61 0v123h308v-123h-308zM61 164v123h308v-123h-308z" />
<glyph unicode="0" horiz-adv-x="1249" d="M61 205v82h1127v-82q0 -20 -4 -41h-1118q-4 20 -5 41zM61 328v123h308v-123h-308zM61 492v122h308v-122h-308zM61 655v123h308v-123h-308zM61 819v123h308v-123h-308zM61 983v123h308v-123h-308zM61 1147v82q0 20 5 41h1118q4 -20 4 -41v-82h-1127zM78 123h1093 q-53 -123 -188 -123h-717q-135 0 -188 123zM78 1311q53 123 188 123h717q135 0 188 -123h-1093zM881 328v123h307v-123h-307zM881 492v122h307v-122h-307zM881 655v123h307v-123h-307zM881 819v123h307v-123h-307zM881 983v123h307v-123h-307z" />
<glyph unicode="1" horiz-adv-x="634" d="M61 1147v123h512v-123h-512zM61 1311v123h512v-123h-512zM266 0v123h307v-123h-307zM266 164v123h307v-123h-307zM266 328v123h307v-123h-307zM266 492v122h307v-122h-307zM266 655v123h307v-123h-307zM266 819v123h307v-123h-307zM266 983v123h307v-123h-307z" />
<glyph unicode="2" horiz-adv-x="1249" d="M61 0v123h1127v-123h-1127zM61 164v123h1127v-123h-1127zM61 328v123h308v-123h-308zM61 492v122h308v-122h-308zM61 655v82q0 20 5 41h1105q-53 -123 -188 -123h-922zM61 1147v123h1123q4 -20 4 -41v-82h-1127zM61 1311v123h922q135 0 188 -123h-1110zM78 819 q53 123 188 123h922v-82q0 -20 -4 -41h-1106zM881 983v123h307v-123h-307z" />
<glyph unicode="3" horiz-adv-x="1249" d="M61 0v123h1110q-53 -123 -188 -123h-922zM61 164v123h1127v-82q0 -20 -4 -41h-1123zM61 1147v123h1123q4 -20 4 -41v-82h-1127zM61 1311v123h922q135 0 188 -123h-1110zM471 655v123h512q135 0 188 -123h-700zM471 819v123h700q-53 -123 -188 -123h-512zM881 328v123h307 v-123h-307zM881 492v122h303q4 -20 4 -41v-81h-307zM881 983v123h307v-82q0 -20 -4 -41h-303z" />
<glyph unicode="4" horiz-adv-x="1249" d="M61 655v123h1127v-123h-1127zM61 819v123h1127v-123h-1127zM61 983v123h308v-123h-308zM61 1147v123h308v-123h-308zM61 1311v123h308v-123h-308zM778 0v123h307v-123h-307zM778 164v123h307v-123h-307zM778 328v123h307v-123h-307zM778 492v122h307v-122h-307zM778 983 v123h307v-123h-307zM778 1147v123h307v-123h-307zM778 1311v123h307v-123h-307z" />
<glyph unicode="5" horiz-adv-x="1249" d="M61 0v123h1110q-53 -123 -188 -123h-922zM61 164v123h1127v-82q0 -20 -4 -41h-1123zM61 860v82h922q135 0 188 -123h-1105q-4 20 -5 41zM61 983v123h308v-123h-308zM61 1147v123h1127v-123h-1127zM61 1311v123h1127v-123h-1127zM78 778h1106q4 -20 4 -41v-82h-922 q-135 0 -188 123zM881 328v123h307v-123h-307zM881 492v122h307v-122h-307z" />
<glyph unicode="6" horiz-adv-x="1249" d="M61 205v82h1127v-82q0 -20 -4 -41h-1118q-4 20 -5 41zM61 328v123h308v-123h-308zM61 492v122h308v-122h-308zM61 655v123h1123q4 -20 4 -41v-82h-1127zM61 819v123h922q135 0 188 -123h-1110zM61 983v123h308v-123h-308zM61 1147v82q0 20 5 41h1019v-123h-1024zM78 123 h1093q-53 -123 -188 -123h-717q-135 0 -188 123zM78 1311q53 123 188 123h819v-123h-1007zM881 328v123h307v-123h-307zM881 492v122h307v-122h-307z" />
<glyph unicode="7" horiz-adv-x="1249" d="M61 1147v123h1123q4 -20 4 -41v-82h-1127zM61 1311v123h922q135 0 188 -123h-1110zM881 0v123h307v-123h-307zM881 164v123h307v-123h-307zM881 328v123h307v-123h-307zM881 492v122h307v-122h-307zM881 655v123h307v-123h-307zM881 819v123h307v-123h-307zM881 983v123 h307v-123h-307z" />
<glyph unicode="8" horiz-adv-x="1249" d="M61 205v82h1127v-82q0 -20 -4 -41h-1118q-4 20 -5 41zM61 328v123h308v-123h-308zM61 492v81q0 20 5 41h303v-122h-308zM61 1024v82h308v-123h-303q-4 20 -5 41zM61 1147v82q0 20 5 41h1118q4 -20 4 -41v-82h-1127zM78 123h1093q-53 -123 -188 -123h-717q-135 0 -188 123 zM78 655q53 123 188 123h717q135 0 188 -123h-1093zM78 942h1093q-53 -123 -188 -123h-717q-135 0 -188 123zM78 1311q53 123 188 123h717q135 0 188 -123h-1093zM881 328v123h307v-123h-307zM881 492v122h303q4 -20 4 -41v-81h-307zM881 983v123h307v-82q0 -20 -4 -41h-303 z" />
<glyph unicode="9" horiz-adv-x="1249" d="M61 696v82h1127v-123h-1122q-4 20 -5 41zM61 819v123h308v-123h-308zM61 983v123h308v-123h-308zM61 1147v82q0 20 5 41h1118q4 -20 4 -41v-82h-1127zM78 614h1110v-122h-922q-135 0 -188 122zM78 1311q53 123 188 123h717q135 0 188 -123h-1093zM164 0v123h1007 q-53 -123 -188 -123h-819zM164 164v123h1024v-82q0 -20 -4 -41h-1020zM881 328v123h307v-123h-307zM881 819v123h307v-123h-307zM881 983v123h307v-123h-307z" />
<glyph unicode=":" horiz-adv-x="430" d="M61 0v123h308v-123h-308zM61 164v123h308v-123h-308zM61 655v123h308v-123h-308zM61 819v123h308v-123h-308z" />
<glyph unicode=";" horiz-adv-x="430" d="M61 0v123h308v-123h-308zM61 164v123h308v-123h-308zM61 655v123h308v-123h-308zM61 819v123h308v-123h-308zM215 -41h154v-123h-154v123z" />
<glyph unicode="?" horiz-adv-x="1044" d="M61 0v123h308v-123h-308zM61 164v123h308v-123h-308zM61 492v122h308v-122h-308zM61 655v82q0 20 5 41h901q-53 -123 -189 -123h-717zM61 1147v123h918q4 -20 4 -41v-82h-922zM61 1311v123h717q136 0 189 -123h-906zM78 819q53 123 188 123h717v-82q0 -20 -4 -41h-901z M676 983v123h307v-123h-307z" />
<glyph unicode="A" horiz-adv-x="1536" d="M0 0l49 123h348l-49 -123h-348zM66 164l49 123h348l-49 -123h-348zM131 328l49 123h1176l49 -123h-1274zM197 492l49 122h1044l49 -122h-1142zM262 655l49 123h348l-49 -123h-348zM328 819l49 123h348l-49 -123h-348zM393 983l49 123h652l49 -123h-348l-27 68l-27 -68 h-348zM459 1147l49 123h520l49 -123h-618zM524 1311l49 123h390l49 -123h-488zM811 942h348l49 -123h-348zM877 778h348l49 -123h-348zM1073 287h348l49 -123h-348zM1139 123h348l49 -123h-348z" />
<glyph unicode="B" d="M61 0v123h1213q-53 -123 -189 -123h-1024zM61 164v123h1229v-82q0 -20 -4 -41h-1225zM61 328v123h308v-123h-308zM61 492v122h308v-122h-308zM61 655v123h1024q136 0 189 -123h-1213zM61 819v123h1213q-53 -123 -189 -123h-1024zM61 983v123h308v-123h-308zM61 1147v123 h1225q4 -20 4 -41v-82h-1229zM61 1311v123h1024q136 0 189 -123h-1213zM983 328v123h307v-123h-307zM983 492v122h303q4 -20 4 -41v-81h-307zM983 983v123h307v-82q0 -20 -4 -41h-303z" />
<glyph unicode="C" horiz-adv-x="1249" d="M61 205v82h1127v-123h-1122q-4 20 -5 41zM61 328v123h308v-123h-308zM61 492v122h308v-122h-308zM61 655v123h308v-123h-308zM61 819v123h308v-123h-308zM61 983v123h308v-123h-308zM61 1147v82q0 20 5 41h1122v-123h-1127zM78 123h1110v-123h-922q-135 0 -188 123z M78 1311q53 123 188 123h922v-123h-1110z" />
<glyph unicode="D" d="M61 0v123h1213q-53 -123 -189 -123h-1024zM61 164v123h1229v-82q0 -20 -4 -41h-1225zM61 328v123h308v-123h-308zM61 492v122h308v-122h-308zM61 655v123h308v-123h-308zM61 819v123h308v-123h-308zM61 983v123h308v-123h-308zM61 1147v123h1225q4 -20 4 -41v-82h-1229z M61 1311v123h1024q136 0 189 -123h-1213zM983 328v123h307v-123h-307zM983 492v122h307v-122h-307zM983 655v123h307v-123h-307zM983 819v123h307v-123h-307zM983 983v123h307v-123h-307z" />
<glyph unicode="E" horiz-adv-x="1249" d="M61 205v82h1127v-123h-1122q-4 20 -5 41zM61 328v123h308v-123h-308zM61 492v122h308v-122h-308zM61 655v123h1127v-123h-1127zM61 819v123h1127v-123h-1127zM61 983v123h308v-123h-308zM61 1147v82q0 20 5 41h1122v-123h-1127zM78 123h1110v-123h-922q-135 0 -188 123z M78 1311q53 123 188 123h922v-123h-1110z" />
<glyph unicode="F" horiz-adv-x="1249" d="M61 0v123h308v-123h-308zM61 164v123h308v-123h-308zM61 328v123h308v-123h-308zM61 492v122h308v-122h-308zM61 655v123h1127v-123h-1127zM61 819v123h1127v-123h-1127zM61 983v123h308v-123h-308zM61 1147v82q0 20 5 41h1122v-123h-1127zM78 1311q53 123 188 123h922 v-123h-1110z" />
<glyph unicode="G" d="M61 205v82h1229v-123h-1224q-4 20 -5 41zM61 328v123h308v-123h-308zM61 492v122h308v-122h-308zM61 655v123h308v-123h-308zM61 819v123h308v-123h-308zM61 983v123h308v-123h-308zM61 1147v82q0 20 5 41h1224v-123h-1229zM78 123h1212v-123h-1024q-135 0 -188 123z M78 1311q53 123 188 123h1024v-123h-1212zM573 655v123h717v-123h-717zM573 819v123h717v-123h-717zM983 328v123h307v-123h-307zM983 492v122h307v-122h-307z" />
<glyph unicode="H" d="M61 0v123h308v-123h-308zM61 164v123h308v-123h-308zM61 328v123h308v-123h-308zM61 492v122h308v-122h-308zM61 655v123h1229v-123h-1229zM61 819v123h1229v-123h-1229zM61 983v123h308v-123h-308zM61 1147v123h308v-123h-308zM61 1311v123h308v-123h-308zM983 0v123 h307v-123h-307zM983 164v123h307v-123h-307zM983 328v123h307v-123h-307zM983 492v122h307v-122h-307zM983 983v123h307v-123h-307zM983 1147v123h307v-123h-307zM983 1311v123h307v-123h-307z" />
<glyph unicode="I" horiz-adv-x="430" d="M61 0v123h308v-123h-308zM61 164v123h308v-123h-308zM61 328v123h308v-123h-308zM61 492v122h308v-122h-308zM61 655v123h308v-123h-308zM61 819v123h308v-123h-308zM61 983v123h308v-123h-308zM61 1147v123h308v-123h-308zM61 1311v123h308v-123h-308z" />
<glyph unicode="J" d="M61 205v82h1229v-82q0 -20 -4 -41h-1220q-4 20 -5 41zM61 328v123h308v-123h-308zM61 492v122h308v-122h-308zM78 123h1196q-53 -123 -189 -123h-819q-135 0 -188 123zM983 328v123h307v-123h-307zM983 492v122h307v-122h-307zM983 655v123h307v-123h-307zM983 819v123 h307v-123h-307zM983 983v123h307v-123h-307zM983 1147v123h307v-123h-307zM983 1311v123h307v-123h-307z" />
<glyph unicode="K" horiz-adv-x="1474" d="M61 0v123h398l-90 -123h-308zM61 164v123h517l-91 -123h-426zM61 328v123h1024l89 -123h-390l-88 123l-88 -123h-547zM61 492v122h308v-79l59 79h537l90 -122h-994zM61 655v123h308v-123h-308zM61 819v123h308v-123h-308zM61 983v123h308v-123h-308zM61 1147v123h308 v-123h-308zM61 1311v123h308v-123h-308zM457 655l90 123h389l-45 -61l45 -62h-479zM575 819l91 123h389l-90 -123h-390zM696 983l88 123h390l-89 -123h-389zM815 287h389l90 -123h-389zM815 1147l90 123h389l-90 -123h-389zM934 123h389l90 -123h-389zM934 1311l90 123h389 l-90 -123h-389z" />
<glyph unicode="L" horiz-adv-x="1249" d="M61 205v82h1127v-123h-1122q-4 20 -5 41zM61 328v123h308v-123h-308zM61 492v122h308v-122h-308zM61 655v123h308v-123h-308zM61 819v123h308v-123h-308zM61 983v123h308v-123h-308zM61 1147v123h308v-123h-308zM61 1311v123h308v-123h-308zM78 123h1110v-123h-922 q-135 0 -188 123z" />
<glyph unicode="M" horiz-adv-x="1679" d="M61 0v123h308v-123h-308zM61 164v123h308v-123h-308zM61 328v123h308v-123h-308zM61 492v122h308v-122h-308zM61 655v123h625l62 -123h-349l-30 62v-62h-308zM61 819v123h547l60 -123h-607zM61 983v123h467l60 -123h-527zM61 1147v123h388l59 -123h-447zM61 1311v123h308 l59 -123h-367zM418 614h348l59 -122h-348zM498 451h684l-60 -123h-565zM578 287h524l-60 -123h-405zM657 123h365l-59 -123h-246zM854 492l59 122h349l-60 -122h-348zM932 655l61 123h625v-123h-307v62l-31 -62h-348zM1012 819l59 123h547v-123h-606zM1092 983l59 123h467 v-123h-526zM1171 1147l60 123h387v-123h-447zM1251 1311l60 123h307v-123h-367zM1311 0v123h307v-123h-307zM1311 164v123h307v-123h-307zM1311 328v123h307v-123h-307zM1311 492v122h307v-122h-307z" />
<glyph unicode="N" d="M61 0v123h308v-123h-308zM61 164v123h308v-123h-308zM61 328v123h308v-123h-308zM61 492v122h308v-122h-308zM61 655v123h308v-123h-308zM61 819v123h658l88 -123h-410l-28 41v-41h-308zM61 983v123h541l88 -123h-629zM61 1147v123h424l88 -123h-512zM61 1311v123h308 l88 -123h-396zM428 778h410l86 -123h-410zM545 614h409l29 -41v41h307v-122h-657zM662 451h628v-123h-540zM778 287h512v-123h-424zM895 123h395v-123h-307zM983 655v123h307v-123h-307zM983 819v123h307v-123h-307zM983 983v123h307v-123h-307zM983 1147v123h307v-123h-307 zM983 1311v123h307v-123h-307z" />
<glyph unicode="O" d="M61 205v82h1229v-82q0 -20 -4 -41h-1220q-4 20 -5 41zM61 328v123h308v-123h-308zM61 492v122h308v-122h-308zM61 655v123h308v-123h-308zM61 819v123h308v-123h-308zM61 983v123h308v-123h-308zM61 1147v82q0 20 5 41h1220q4 -20 4 -41v-82h-1229zM78 123h1196 q-53 -123 -189 -123h-819q-135 0 -188 123zM78 1311q53 123 188 123h819q136 0 189 -123h-1196zM983 328v123h307v-123h-307zM983 492v122h307v-122h-307zM983 655v123h307v-123h-307zM983 819v123h307v-123h-307zM983 983v123h307v-123h-307z" />
<glyph unicode="P" d="M61 0v123h308v-123h-308zM61 164v123h308v-123h-308zM61 328v123h308v-123h-308zM61 492v122h308v-122h-308zM61 655v123h1213q-53 -123 -189 -123h-1024zM61 819v123h1229v-82q0 -20 -4 -41h-1225zM61 983v123h308v-123h-308zM61 1147v123h1225q4 -20 4 -41v-82h-1229z M61 1311v123h1024q136 0 189 -123h-1213zM983 983v123h307v-123h-307z" />
<glyph unicode="Q" horiz-adv-x="1556" d="M61 205v82h1434v-123h-1429q-4 20 -5 41zM61 328v123h308v-123h-308zM61 492v122h308v-122h-308zM61 655v123h308v-123h-308zM61 819v123h308v-123h-308zM61 983v123h308v-123h-308zM61 1147v82q0 20 5 41h1220q4 -20 4 -41v-82h-1229zM78 123h1417v-123h-1229 q-135 0 -188 123zM78 1311q53 123 188 123h819q136 0 189 -123h-1196zM983 328v123h307v-123h-307zM983 492v122h307v-122h-307zM983 655v123h307v-123h-307zM983 819v123h307v-123h-307zM983 983v123h307v-123h-307z" />
<glyph unicode="R" d="M61 0v123h308v-123h-308zM61 164v123h308v-123h-308zM61 328v123h308v-123h-308zM61 492v122h308v-122h-308zM61 655v123h1024q136 0 189 -123h-1213zM61 819v123h1213q-53 -123 -189 -123h-1024zM61 983v123h308v-123h-308zM61 1147v123h1225q4 -20 4 -41v-82h-1229z M61 1311v123h1024q136 0 189 -123h-1213zM983 0v123h307v-123h-307zM983 164v123h307v-123h-307zM983 328v123h307v-123h-307zM983 492v122h303q4 -20 4 -41v-81h-307zM983 983v123h307v-82q0 -20 -4 -41h-303z" />
<glyph unicode="S" d="M61 0v123h1213q-53 -123 -189 -123h-1024zM61 164v123h1229v-82q0 -20 -4 -41h-1225zM61 860v82h1024q136 0 189 -123h-1208q-4 20 -5 41zM61 983v123h308v-123h-308zM61 1147v82q0 20 5 41h1224v-123h-1229zM78 778h1208q4 -20 4 -41v-82h-1024q-135 0 -188 123z M78 1311q53 123 188 123h1024v-123h-1212zM983 328v123h307v-123h-307zM983 492v122h307v-122h-307z" />
<glyph unicode="T" d="M61 1147v123h1229v-123h-1229zM61 1311v123h1229v-123h-1229zM543 0v123h307v-123h-307zM543 164v123h307v-123h-307zM543 328v123h307v-123h-307zM543 492v122h307v-122h-307zM543 655v123h307v-123h-307zM543 819v123h307v-123h-307zM543 983v123h307v-123h-307z" />
<glyph unicode="U" d="M61 205v82h1229v-82q0 -20 -4 -41h-1220q-4 20 -5 41zM61 328v123h308v-123h-308zM61 492v122h308v-122h-308zM61 655v123h308v-123h-308zM61 819v123h308v-123h-308zM61 983v123h308v-123h-308zM61 1147v123h308v-123h-308zM61 1311v123h308v-123h-308zM78 123h1196 q-53 -123 -189 -123h-819q-135 0 -188 123zM983 328v123h307v-123h-307zM983 492v122h307v-122h-307zM983 655v123h307v-123h-307zM983 819v123h307v-123h-307zM983 983v123h307v-123h-307zM983 1147v123h307v-123h-307zM983 1311v123h307v-123h-307z" />
<glyph unicode="V" horiz-adv-x="1536" d="M0 1434h348l49 -123h-348zM66 1270h348l49 -123h-348zM131 1106h348l49 -123h-348zM197 942h348l49 -123h-348zM262 778h348l49 -123h-348zM328 614h348l49 -122h-348zM393 451h348l27 -68l27 68h348l-49 -123h-652zM459 287h618l-49 -123h-520zM524 123h488l-49 -123 h-390zM811 492l49 122h348l-49 -122h-348zM877 655l49 123h348l-49 -123h-348zM942 819l49 123h348l-49 -123h-348zM1008 983l49 123h348l-49 -123h-348zM1073 1147l49 123h348l-49 -123h-348zM1139 1311l49 123h348l-49 -123h-348z" />
<glyph unicode="W" horiz-adv-x="2150" d="M0 1434h348l49 -123h-348zM66 1270h348l49 -123h-348zM131 1106h348l49 -123h-348zM197 942h348l49 -123h-348zM262 778h348l49 -123h-348zM328 614h348l49 -122h-348zM393 451h348l27 -68l27 68h561l26 -68l27 68h348l-49 -123h-1266zM459 287h1233l-50 -123h-520 l-47 119l-47 -119h-520zM524 123h488l-49 -123h-390zM614 1434h349l49 -123h-348zM680 1270h348l47 -117l47 117h348l-49 -123h-692zM745 1106h660l-49 -123h-561zM811 492l49 122h430l49 -122h-528zM811 942h528l-49 -123h-430zM877 655l24 62l-24 61h397l-25 -61l25 -62 h-397zM1139 123h487l-49 -123h-389zM1139 1311l49 123h348l-49 -123h-348zM1425 492l50 122h348l-49 -122h-349zM1491 655l49 123h348l-49 -123h-348zM1556 819l50 123h348l-49 -123h-349zM1622 983l49 123h348l-49 -123h-348zM1688 1147l49 123h348l-49 -123h-348z M1753 1311l49 123h348l-49 -123h-348z" />
<glyph unicode="X" horiz-adv-x="1556" d="M61 0l91 123h389l-90 -123h-390zM61 1434h390l90 -123h-389zM180 164l90 123h389l-90 -123h-389zM180 1270h389l90 -123h-389zM301 328l88 123h778l88 -123h-389l-88 123l-88 -123h-389zM301 1106h389l88 -123l88 123h389l-88 -123h-778zM420 492l90 122h537l90 -122 h-717zM420 942h717l-90 -123h-537zM539 655l45 62l-45 61h479l-45 -61l45 -62h-479zM897 287h389l90 -123h-389zM897 1147l90 123h389l-90 -123h-389zM1016 123h389l90 -123h-389zM1016 1311l90 123h389l-90 -123h-389z" />
<glyph unicode="Y" horiz-adv-x="1556" d="M61 1434h390l90 -123h-389zM180 1270h389l90 -123h-389zM301 1106h389l88 -123l88 123h389l-88 -123h-778zM420 942h717l-90 -123h-537zM539 778h479l-86 -123h-307zM625 0v123h307v-123h-307zM625 164v123h307v-123h-307zM625 328v123h307v-123h-307zM625 492v122h307 v-122h-307zM897 1147l90 123h389l-90 -123h-389zM1016 1311l90 123h389l-90 -123h-389z" />
<glyph unicode="Z" d="M61 0v123h1229v-123h-1229zM61 164v123h1229v-123h-1229zM61 1147v123h1229v-123h-1229zM61 1311v123h1229v-123h-1229zM98 328l111 123h450l-110 -123h-451zM246 492l112 122h451l-113 -122h-450zM395 655l111 123h450l-110 -123h-451zM543 819l112 123h451l-113 -123 h-450zM692 983l111 123h450l-110 -123h-451z" />
<glyph unicode="a" horiz-adv-x="1536" d="M0 0l49 123h348l-49 -123h-348zM66 164l49 123h348l-49 -123h-348zM131 328l49 123h1176l49 -123h-1274zM197 492l49 122h1044l49 -122h-1142zM262 655l49 123h348l-49 -123h-348zM328 819l49 123h348l-49 -123h-348zM393 983l49 123h652l49 -123h-348l-27 68l-27 -68 h-348zM459 1147l49 123h520l49 -123h-618zM524 1311l49 123h390l49 -123h-488zM811 942h348l49 -123h-348zM877 778h348l49 -123h-348zM1073 287h348l49 -123h-348zM1139 123h348l49 -123h-348z" />
<glyph unicode="b" d="M61 0v123h1213q-53 -123 -189 -123h-1024zM61 164v123h1229v-82q0 -20 -4 -41h-1225zM61 328v123h308v-123h-308zM61 492v122h308v-122h-308zM61 655v123h1024q136 0 189 -123h-1213zM61 819v123h1213q-53 -123 -189 -123h-1024zM61 983v123h308v-123h-308zM61 1147v123 h1225q4 -20 4 -41v-82h-1229zM61 1311v123h1024q136 0 189 -123h-1213zM983 328v123h307v-123h-307zM983 492v122h303q4 -20 4 -41v-81h-307zM983 983v123h307v-82q0 -20 -4 -41h-303z" />
<glyph unicode="c" horiz-adv-x="1249" d="M61 205v82h1127v-123h-1122q-4 20 -5 41zM61 328v123h308v-123h-308zM61 492v122h308v-122h-308zM61 655v123h308v-123h-308zM61 819v123h308v-123h-308zM61 983v123h308v-123h-308zM61 1147v82q0 20 5 41h1122v-123h-1127zM78 123h1110v-123h-922q-135 0 -188 123z M78 1311q53 123 188 123h922v-123h-1110z" />
<glyph unicode="d" d="M61 0v123h1213q-53 -123 -189 -123h-1024zM61 164v123h1229v-82q0 -20 -4 -41h-1225zM61 328v123h308v-123h-308zM61 492v122h308v-122h-308zM61 655v123h308v-123h-308zM61 819v123h308v-123h-308zM61 983v123h308v-123h-308zM61 1147v123h1225q4 -20 4 -41v-82h-1229z M61 1311v123h1024q136 0 189 -123h-1213zM983 328v123h307v-123h-307zM983 492v122h307v-122h-307zM983 655v123h307v-123h-307zM983 819v123h307v-123h-307zM983 983v123h307v-123h-307z" />
<glyph unicode="e" horiz-adv-x="1249" d="M61 205v82h1127v-123h-1122q-4 20 -5 41zM61 328v123h308v-123h-308zM61 492v122h308v-122h-308zM61 655v123h1127v-123h-1127zM61 819v123h1127v-123h-1127zM61 983v123h308v-123h-308zM61 1147v82q0 20 5 41h1122v-123h-1127zM78 123h1110v-123h-922q-135 0 -188 123z M78 1311q53 123 188 123h922v-123h-1110z" />
<glyph unicode="f" horiz-adv-x="1249" d="M61 0v123h308v-123h-308zM61 164v123h308v-123h-308zM61 328v123h308v-123h-308zM61 492v122h308v-122h-308zM61 655v123h1127v-123h-1127zM61 819v123h1127v-123h-1127zM61 983v123h308v-123h-308zM61 1147v82q0 20 5 41h1122v-123h-1127zM78 1311q53 123 188 123h922 v-123h-1110z" />
<glyph unicode="g" d="M61 205v82h1229v-123h-1224q-4 20 -5 41zM61 328v123h308v-123h-308zM61 492v122h308v-122h-308zM61 655v123h308v-123h-308zM61 819v123h308v-123h-308zM61 983v123h308v-123h-308zM61 1147v82q0 20 5 41h1224v-123h-1229zM78 123h1212v-123h-1024q-135 0 -188 123z M78 1311q53 123 188 123h1024v-123h-1212zM573 655v123h717v-123h-717zM573 819v123h717v-123h-717zM983 328v123h307v-123h-307zM983 492v122h307v-122h-307z" />
<glyph unicode="h" d="M61 0v123h308v-123h-308zM61 164v123h308v-123h-308zM61 328v123h308v-123h-308zM61 492v122h308v-122h-308zM61 655v123h1229v-123h-1229zM61 819v123h1229v-123h-1229zM61 983v123h308v-123h-308zM61 1147v123h308v-123h-308zM61 1311v123h308v-123h-308zM983 0v123 h307v-123h-307zM983 164v123h307v-123h-307zM983 328v123h307v-123h-307zM983 492v122h307v-122h-307zM983 983v123h307v-123h-307zM983 1147v123h307v-123h-307zM983 1311v123h307v-123h-307z" />
<glyph unicode="i" horiz-adv-x="430" d="M61 0v123h308v-123h-308zM61 164v123h308v-123h-308zM61 328v123h308v-123h-308zM61 492v122h308v-122h-308zM61 655v123h308v-123h-308zM61 819v123h308v-123h-308zM61 983v123h308v-123h-308zM61 1147v123h308v-123h-308zM61 1311v123h308v-123h-308z" />
<glyph unicode="j" d="M61 205v82h1229v-82q0 -20 -4 -41h-1220q-4 20 -5 41zM61 328v123h308v-123h-308zM61 492v122h308v-122h-308zM78 123h1196q-53 -123 -189 -123h-819q-135 0 -188 123zM983 328v123h307v-123h-307zM983 492v122h307v-122h-307zM983 655v123h307v-123h-307zM983 819v123 h307v-123h-307zM983 983v123h307v-123h-307zM983 1147v123h307v-123h-307zM983 1311v123h307v-123h-307z" />
<glyph unicode="k" horiz-adv-x="1474" d="M61 0v123h398l-90 -123h-308zM61 164v123h517l-91 -123h-426zM61 328v123h1024l89 -123h-390l-88 123l-88 -123h-547zM61 492v122h308v-79l59 79h537l90 -122h-994zM61 655v123h308v-123h-308zM61 819v123h308v-123h-308zM61 983v123h308v-123h-308zM61 1147v123h308 v-123h-308zM61 1311v123h308v-123h-308zM457 655l90 123h389l-45 -61l45 -62h-479zM575 819l91 123h389l-90 -123h-390zM696 983l88 123h390l-89 -123h-389zM815 287h389l90 -123h-389zM815 1147l90 123h389l-90 -123h-389zM934 123h389l90 -123h-389zM934 1311l90 123h389 l-90 -123h-389z" />
<glyph unicode="l" horiz-adv-x="1249" d="M61 205v82h1127v-123h-1122q-4 20 -5 41zM61 328v123h308v-123h-308zM61 492v122h308v-122h-308zM61 655v123h308v-123h-308zM61 819v123h308v-123h-308zM61 983v123h308v-123h-308zM61 1147v123h308v-123h-308zM61 1311v123h308v-123h-308zM78 123h1110v-123h-922 q-135 0 -188 123z" />
<glyph unicode="m" horiz-adv-x="1679" d="M61 0v123h308v-123h-308zM61 164v123h308v-123h-308zM61 328v123h308v-123h-308zM61 492v122h308v-122h-308zM61 655v123h625l62 -123h-349l-30 62v-62h-308zM61 819v123h547l60 -123h-607zM61 983v123h467l60 -123h-527zM61 1147v123h388l59 -123h-447zM61 1311v123h308 l59 -123h-367zM418 614h348l59 -122h-348zM498 451h684l-60 -123h-565zM578 287h524l-60 -123h-405zM657 123h365l-59 -123h-246zM854 492l59 122h349l-60 -122h-348zM932 655l61 123h625v-123h-307v62l-31 -62h-348zM1012 819l59 123h547v-123h-606zM1092 983l59 123h467 v-123h-526zM1171 1147l60 123h387v-123h-447zM1251 1311l60 123h307v-123h-367zM1311 0v123h307v-123h-307zM1311 164v123h307v-123h-307zM1311 328v123h307v-123h-307zM1311 492v122h307v-122h-307z" />
<glyph unicode="n" d="M61 0v123h308v-123h-308zM61 164v123h308v-123h-308zM61 328v123h308v-123h-308zM61 492v122h308v-122h-308zM61 655v123h308v-123h-308zM61 819v123h658l88 -123h-410l-28 41v-41h-308zM61 983v123h541l88 -123h-629zM61 1147v123h424l88 -123h-512zM61 1311v123h308 l88 -123h-396zM428 778h410l86 -123h-410zM545 614h409l29 -41v41h307v-122h-657zM662 451h628v-123h-540zM778 287h512v-123h-424zM895 123h395v-123h-307zM983 655v123h307v-123h-307zM983 819v123h307v-123h-307zM983 983v123h307v-123h-307zM983 1147v123h307v-123h-307 zM983 1311v123h307v-123h-307z" />
<glyph unicode="o" d="M61 205v82h1229v-82q0 -20 -4 -41h-1220q-4 20 -5 41zM61 328v123h308v-123h-308zM61 492v122h308v-122h-308zM61 655v123h308v-123h-308zM61 819v123h308v-123h-308zM61 983v123h308v-123h-308zM61 1147v82q0 20 5 41h1220q4 -20 4 -41v-82h-1229zM78 123h1196 q-53 -123 -189 -123h-819q-135 0 -188 123zM78 1311q53 123 188 123h819q136 0 189 -123h-1196zM983 328v123h307v-123h-307zM983 492v122h307v-122h-307zM983 655v123h307v-123h-307zM983 819v123h307v-123h-307zM983 983v123h307v-123h-307z" />
<glyph unicode="p" d="M61 0v123h308v-123h-308zM61 164v123h308v-123h-308zM61 328v123h308v-123h-308zM61 492v122h308v-122h-308zM61 655v123h1213q-53 -123 -189 -123h-1024zM61 819v123h1229v-82q0 -20 -4 -41h-1225zM61 983v123h308v-123h-308zM61 1147v123h1225q4 -20 4 -41v-82h-1229z M61 1311v123h1024q136 0 189 -123h-1213zM983 983v123h307v-123h-307z" />
<glyph unicode="q" horiz-adv-x="1556" d="M61 205v82h1434v-123h-1429q-4 20 -5 41zM61 328v123h308v-123h-308zM61 492v122h308v-122h-308zM61 655v123h308v-123h-308zM61 819v123h308v-123h-308zM61 983v123h308v-123h-308zM61 1147v82q0 20 5 41h1220q4 -20 4 -41v-82h-1229zM78 123h1417v-123h-1229 q-135 0 -188 123zM78 1311q53 123 188 123h819q136 0 189 -123h-1196zM983 328v123h307v-123h-307zM983 492v122h307v-122h-307zM983 655v123h307v-123h-307zM983 819v123h307v-123h-307zM983 983v123h307v-123h-307z" />
<glyph unicode="r" d="M61 0v123h308v-123h-308zM61 164v123h308v-123h-308zM61 328v123h308v-123h-308zM61 492v122h308v-122h-308zM61 655v123h1024q136 0 189 -123h-1213zM61 819v123h1213q-53 -123 -189 -123h-1024zM61 983v123h308v-123h-308zM61 1147v123h1225q4 -20 4 -41v-82h-1229z M61 1311v123h1024q136 0 189 -123h-1213zM983 0v123h307v-123h-307zM983 164v123h307v-123h-307zM983 328v123h307v-123h-307zM983 492v122h303q4 -20 4 -41v-81h-307zM983 983v123h307v-82q0 -20 -4 -41h-303z" />
<glyph unicode="s" d="M61 0v123h1213q-53 -123 -189 -123h-1024zM61 164v123h1229v-82q0 -20 -4 -41h-1225zM61 860v82h1024q136 0 189 -123h-1208q-4 20 -5 41zM61 983v123h308v-123h-308zM61 1147v82q0 20 5 41h1224v-123h-1229zM78 778h1208q4 -20 4 -41v-82h-1024q-135 0 -188 123z M78 1311q53 123 188 123h1024v-123h-1212zM983 328v123h307v-123h-307zM983 492v122h307v-122h-307z" />
<glyph unicode="t" d="M61 1147v123h1229v-123h-1229zM61 1311v123h1229v-123h-1229zM543 0v123h307v-123h-307zM543 164v123h307v-123h-307zM543 328v123h307v-123h-307zM543 492v122h307v-122h-307zM543 655v123h307v-123h-307zM543 819v123h307v-123h-307zM543 983v123h307v-123h-307z" />
<glyph unicode="u" d="M61 205v82h1229v-82q0 -20 -4 -41h-1220q-4 20 -5 41zM61 328v123h308v-123h-308zM61 492v122h308v-122h-308zM61 655v123h308v-123h-308zM61 819v123h308v-123h-308zM61 983v123h308v-123h-308zM61 1147v123h308v-123h-308zM61 1311v123h308v-123h-308zM78 123h1196 q-53 -123 -189 -123h-819q-135 0 -188 123zM983 328v123h307v-123h-307zM983 492v122h307v-122h-307zM983 655v123h307v-123h-307zM983 819v123h307v-123h-307zM983 983v123h307v-123h-307zM983 1147v123h307v-123h-307zM983 1311v123h307v-123h-307z" />
<glyph unicode="v" horiz-adv-x="1536" d="M0 1434h348l49 -123h-348zM66 1270h348l49 -123h-348zM131 1106h348l49 -123h-348zM197 942h348l49 -123h-348zM262 778h348l49 -123h-348zM328 614h348l49 -122h-348zM393 451h348l27 -68l27 68h348l-49 -123h-652zM459 287h618l-49 -123h-520zM524 123h488l-49 -123 h-390zM811 492l49 122h348l-49 -122h-348zM877 655l49 123h348l-49 -123h-348zM942 819l49 123h348l-49 -123h-348zM1008 983l49 123h348l-49 -123h-348zM1073 1147l49 123h348l-49 -123h-348zM1139 1311l49 123h348l-49 -123h-348z" />
<glyph unicode="w" horiz-adv-x="2150" d="M0 1434h348l49 -123h-348zM66 1270h348l49 -123h-348zM131 1106h348l49 -123h-348zM197 942h348l49 -123h-348zM262 778h348l49 -123h-348zM328 614h348l49 -122h-348zM393 451h348l27 -68l27 68h561l26 -68l27 68h348l-49 -123h-1266zM459 287h1233l-50 -123h-520 l-47 119l-47 -119h-520zM524 123h488l-49 -123h-390zM614 1434h349l49 -123h-348zM680 1270h348l47 -117l47 117h348l-49 -123h-692zM745 1106h660l-49 -123h-561zM811 492l49 122h430l49 -122h-528zM811 942h528l-49 -123h-430zM877 655l24 62l-24 61h397l-25 -61l25 -62 h-397zM1139 123h487l-49 -123h-389zM1139 1311l49 123h348l-49 -123h-348zM1425 492l50 122h348l-49 -122h-349zM1491 655l49 123h348l-49 -123h-348zM1556 819l50 123h348l-49 -123h-349zM1622 983l49 123h348l-49 -123h-348zM1688 1147l49 123h348l-49 -123h-348z M1753 1311l49 123h348l-49 -123h-348z" />
<glyph unicode="x" horiz-adv-x="1556" d="M61 0l91 123h389l-90 -123h-390zM61 1434h390l90 -123h-389zM180 164l90 123h389l-90 -123h-389zM180 1270h389l90 -123h-389zM301 328l88 123h778l88 -123h-389l-88 123l-88 -123h-389zM301 1106h389l88 -123l88 123h389l-88 -123h-778zM420 492l90 122h537l90 -122 h-717zM420 942h717l-90 -123h-537zM539 655l45 62l-45 61h479l-45 -61l45 -62h-479zM897 287h389l90 -123h-389zM897 1147l90 123h389l-90 -123h-389zM1016 123h389l90 -123h-389zM1016 1311l90 123h389l-90 -123h-389z" />
<glyph unicode="y" horiz-adv-x="1556" d="M61 1434h390l90 -123h-389zM180 1270h389l90 -123h-389zM301 1106h389l88 -123l88 123h389l-88 -123h-778zM420 942h717l-90 -123h-537zM539 778h479l-86 -123h-307zM625 0v123h307v-123h-307zM625 164v123h307v-123h-307zM625 328v123h307v-123h-307zM625 492v122h307 v-122h-307zM897 1147l90 123h389l-90 -123h-389zM1016 1311l90 123h389l-90 -123h-389z" />
<glyph unicode="z" d="M61 0v123h1229v-123h-1229zM61 164v123h1229v-123h-1229zM61 1147v123h1229v-123h-1229zM61 1311v123h1229v-123h-1229zM98 328l111 123h450l-110 -123h-451zM246 492l112 122h451l-113 -122h-450zM395 655l111 123h450l-110 -123h-451zM543 819l112 123h451l-113 -123 h-450zM692 983l111 123h450l-110 -123h-451z" />
<glyph unicode="&#x2000;" horiz-adv-x="717" />
<glyph unicode="&#x2001;" horiz-adv-x="1434" />
<glyph unicode="&#x2002;" horiz-adv-x="717" />
<glyph unicode="&#x2003;" horiz-adv-x="1434" />
<glyph unicode="&#x2004;" horiz-adv-x="478" />
<glyph unicode="&#x2005;" horiz-adv-x="358" />
<glyph unicode="&#x2006;" horiz-adv-x="239" />
<glyph unicode="&#x2007;" horiz-adv-x="239" />
<glyph unicode="&#x2008;" horiz-adv-x="179" />
<glyph unicode="&#x2009;" horiz-adv-x="286" />
<glyph unicode="&#x200a;" horiz-adv-x="79" />
<glyph unicode="&#x2018;" horiz-adv-x="430" d="M61 983v123h308v-123h-308zM61 1147v123h308v-123h-308zM61 1311v123h154v-123h-154z" />
<glyph unicode="&#x2019;" horiz-adv-x="430" d="M61 1147v123h308v-123h-308zM61 1311v123h308v-123h-308zM215 983v123h154v-123h-154z" />
<glyph unicode="&#x201a;" horiz-adv-x="430" d="M61 0v123h308v-123h-308zM61 164v123h308v-123h-308zM215 -41h154v-123h-154v123z" />
<glyph unicode="&#x201c;" horiz-adv-x="819" d="M61 983v123h308v-123h-308zM61 1147v123h308v-123h-308zM61 1311v123h154v-123h-154zM451 983v123h307v-123h-307zM451 1147v123h307v-123h-307zM451 1311v123h153v-123h-153z" />
<glyph unicode="&#x201d;" horiz-adv-x="819" d="M61 1147v123h308v-123h-308zM61 1311v123h308v-123h-308zM215 983v123h154v-123h-154zM451 1147v123h307v-123h-307zM451 1311v123h307v-123h-307zM604 983v123h154v-123h-154z" />
<glyph unicode="&#x201e;" horiz-adv-x="819" d="M61 0v123h308v-123h-308zM61 164v123h308v-123h-308zM215 -41h154v-123h-154v123zM451 0v123h307v-123h-307zM451 164v123h307v-123h-307zM604 -41h154v-123h-154v123z" />
<glyph unicode="&#x202f;" horiz-adv-x="286" />
<glyph unicode="&#x205f;" horiz-adv-x="358" />
<glyph unicode="&#x25fc;" horiz-adv-x="1433" d="M0 0v1434h1434v-1434h-1434z" />
</font>
</defs>
</svg>
