<?xml version="1.0" encoding="utf-8"?>
<!-- Generator: Adobe Illustrator 16.0.0, SVG Export Plug-In . SVG Version: 6.00 Build 0)  -->
<!DOCTYPE svg PUBLIC "-//W3C//DTD SVG 1.1//EN" "http://www.w3.org/Graphics/SVG/1.1/DTD/svg11.dtd">
<svg version="1.1" xmlns="http://www.w3.org/2000/svg" xmlns:xlink="http://www.w3.org/1999/xlink" x="0px" y="0px"
	 width="299.99px" height="299.99px" viewBox="0 0 299.99 299.99" enable-background="new 0 0 299.99 299.99" xml:space="preserve">
<g id="Calque_2" display="none">
	<ellipse display="inline" fill="#F4BAE1" cx="160.828" cy="171.162" rx="332.333" ry="250"/>
</g>
<g id="Calque_4">
	<path stroke="#000000" stroke-miterlimit="10" d="M475.495-32.005"/>
	<path fill="#0A4D9B" d="M188.745,2.995c-58.68,0-106.25,47.57-106.25,106.25c0,30.825,13.132,58.579,34.1,77.987L15.303,275.47
		c0,0-0.908,13.217,12.809,14.704l104.283-90.845c16.335,10.239,35.648,16.165,56.35,16.165c58.681,0,106.25-47.569,106.25-106.25
		C294.995,50.565,247.426,2.995,188.745,2.995z"/>
	<g>
		<path fill="#6ECEF6" d="M202.615,31.695c-85-6-107.333,99.667-48.953,126.8c46.737,21.723,95.833-47.917,52.287-73.467
			c-40.929-24.015-42.704,37.8-36.287,36.468c0,0-3.167-31.667,15.287-34.135c27.234-3.641,51.046,33.467,6.666,60.667
			c-37.633,23.064-53.493-25.865-54.667-35.333c-4.842-39.07,40.559-80.023,79.213-65.699
			c59.453,22.032,42.262,102.541,12.762,127.54c-29.5,25-51.762,18.959-95.762,4.959c0,0,47.5,39,95,12
			S293.784,38.13,202.615,31.695z"/>
		<path fill="#6ECEF6" d="M23.426,268.407l-1.375,1.197c0,0-0.104,11.762,12.92,14.607l1.149-1.001
			C36.12,283.211,23.357,276.882,23.426,268.407z"/>
		<path fill="#6ECEF6" d="M31.004,261.782l-1.375,1.197c0,0-0.104,11.762,12.92,14.607l1.149-1.001
			C43.698,276.586,30.935,270.257,31.004,261.782z"/>
		<path fill="#6ECEF6" d="M39.343,254.505l-1.375,1.197c0,0-0.104,11.762,12.92,14.607l1.149-1.001
			C52.037,269.308,39.274,262.979,39.343,254.505z"/>
		<path fill="#6ECEF6" d="M48.329,246.602l-1.375,1.197c0,0-0.104,11.762,12.92,14.607l1.149-1.001
			C61.024,261.406,48.26,255.077,48.329,246.602z"/>
		<path fill="#6ECEF6" d="M55.907,239.977l-1.375,1.197c0,0-0.104,11.762,12.92,14.607l1.149-1.001
			C68.602,254.781,55.839,248.452,55.907,239.977z"/>
		<path fill="#6ECEF6" d="M64.246,232.7l-1.375,1.197c0,0-0.104,11.762,12.92,14.607l1.149-1.001
			C76.94,247.504,64.177,241.175,64.246,232.7z"/>
		<path fill="#6ECEF6" d="M72.051,225.907l-1.375,1.197c0,0-0.104,11.762,12.92,14.607l1.149-1.001
			C84.745,240.711,71.982,234.382,72.051,225.907z"/>
		<path fill="#6ECEF6" d="M79.629,219.282l-1.375,1.197c0,0-0.104,11.762,12.92,14.607l1.149-1.001
			C92.323,234.086,79.56,227.757,79.629,219.282z"/>
		<path fill="#6ECEF6" d="M87.968,212.005l-1.375,1.197c0,0-0.104,11.762,12.92,14.607l1.149-1.001
			C100.662,226.808,87.899,220.479,87.968,212.005z"/>
		<path fill="#6ECEF6" d="M96.954,204.102L95.58,205.3c0,0-0.104,11.762,12.92,14.607l1.149-1.001
			C109.649,218.906,96.885,212.577,96.954,204.102z"/>
		<path fill="#6ECEF6" d="M104.532,197.477l-1.375,1.197c0,0-0.104,11.762,12.92,14.607l1.149-1.001
			C117.227,212.281,104.464,205.952,104.532,197.477z"/>
		<path fill="#6ECEF6" d="M112.871,190.2l-1.375,1.197c0,0-0.104,11.762,12.92,14.607l1.149-1.001
			C125.565,205.004,112.802,198.675,112.871,190.2z"/>
	</g>
</g>
<g id="Calque_3" display="none">
</g>
</svg>
