<?xml version="1.0" standalone="no"?>
<!DOCTYPE svg PUBLIC "-//W3C//DTD SVG 1.1//EN" "http://www.w3.org/Graphics/SVG/1.1/DTD/svg11.dtd" >
<svg xmlns="http://www.w3.org/2000/svg">
<metadata></metadata>
<defs>
<font id="avantgarde-bookregular" horiz-adv-x="567" >
<font-face units-per-em="2048" ascent="1638" descent="-410" />
<missing-glyph horiz-adv-x="500" />
<glyph horiz-adv-x="0" />
<glyph horiz-adv-x="682" />
<glyph unicode=" " />
<glyph unicode="!" horiz-adv-x="604" d="M227 0v258h152v-258h-152zM227 395v1118h152v-1118h-152z" />
<glyph unicode="&#x22;" horiz-adv-x="632" d="M152 1051v462h106v-462h-106zM379 1051v462h106v-462h-106z" />
<glyph unicode="#" horiz-adv-x="1134" d="M10 512l33 119h307l74 252h-305l33 118h309l149 512h86l-147 -512h182l152 512h84l-150 -512h307l-32 -118h-310l-73 -252h307l-35 -119h-309l-150 -512h-88l152 512h-185l-151 -512h-86l151 512h-305zM436 631h187l71 252h-184z" />
<glyph unicode="$" horiz-adv-x="1134" d="M154 438v27h143v-7v-7q0 -111 80 -187t192 -76q109 0 188 77t79 184q0 139 -80 198.5t-197 91.5q-70 20 -137.5 48t-120.5 79q-51 53 -75.5 120t-24.5 138q0 139 83 236.5t218 122.5v172h133v-170q145 -23 236.5 -125.5t95.5 -249.5l-144 2q-2 102 -70.5 171t-177.5 69 q-37 0 -67.5 -8.5t-61.5 -28.5q-6 -2 -11 -6t-9 -9q-45 -39 -62.5 -82.5t-17.5 -103.5q0 -123 73 -168t173 -74q12 -4 25.5 -8t25.5 -8q59 -18 117.5 -45t103.5 -72q59 -57 88 -133t29 -155q0 -143 -99.5 -263t-246.5 -131v-168h-133v170q-139 20 -243.5 128t-104.5 251z " />
<glyph unicode="%" horiz-adv-x="1587" d="M27 1182q0 152 103 253t257 101v2q152 -2 252 -107.5t100 -252.5q0 -145 -105.5 -252t-248.5 -107q-145 0 -251.5 107.5t-106.5 255.5zM172 1180q0 -88 62.5 -151.5t148.5 -63.5q90 0 150.5 66.5t60.5 156.5q0 84 -60.5 143.5t-146.5 59.5v2q-94 -2 -154.5 -61.5 t-60.5 -151.5zM371 0l680 1513h147l-680 -1513h-147zM825 326q0 152 104.5 258t256.5 106v2q152 -2 253 -111.5t101 -256.5q0 -145 -105.5 -248t-250.5 -103t-252 103.5t-107 249.5zM971 324q0 -88 63.5 -147.5t149.5 -59.5q90 0 150.5 63.5t60.5 151.5q0 86 -61.5 149.5 t-147.5 63.5v2q-94 -2 -154.5 -65.5t-60.5 -157.5z" />
<glyph unicode="&#x26;" horiz-adv-x="1550" d="M117 440q0 164 104.5 274.5t235.5 176.5l-17.5 17.5l-17.5 17.5q-55 59 -90 124.5t-35 155.5q0 139 110.5 233.5t243.5 96.5q152 -2 261.5 -103.5t111.5 -254.5q-2 -131 -93 -215t-204 -125l287 -281l219 426h170l-281 -534l383 -373l-108 -103l-346 338 q-72 -147 -181.5 -242.5t-283.5 -95.5q-195 0 -332 137.5t-137 329.5zM268 428q0 -123 90.5 -218t214.5 -93q145 -2 226.5 92t138.5 209l-365 358l-65 -35q-98 -51 -169 -122.5t-71 -190.5zM449 1196q0 -57 35.5 -107.5t78.5 -91.5q12 -14 25.5 -25t25.5 -24q16 6 34 13.5 t36 15.5q70 31 129 85t59 136v2q0 74 -60 128t-132 61q-4 2 -9 2h-12q-84 0 -147 -53.5t-63 -141.5z" />
<glyph unicode="'" horiz-adv-x="405" d="M152 1051v462h102v-462h-102z" />
<glyph unicode="(" horiz-adv-x="755" d="M117 621q0 152 40 287.5t122 260.5q12 18 25 37t28 39q68 86 160 164t194 102v2v-133q-178 -102 -287.5 -288.5t-126.5 -391.5q-2 -20 -3 -39.5t-1 -39.5q0 -33 3 -68t8 -70q31 -184 139 -352t268 -258v-133q-94 25 -182 96.5t-154 153.5q-16 16 -31.5 36.5t-27.5 39.5 q-84 123 -129 265t-45 290z" />
<glyph unicode=")" horiz-adv-x="755" d="M70 -127q162 90 268 258t137 352q6 35 9 70t3 68q0 20 -1 39.5t-3 39.5q-18 205 -126.5 391.5t-286.5 286.5v135q119 -35 217 -124t170 -189q4 -8 9 -15t11 -16q84 -125 123 -261t39 -287q0 -147 -45 -291t-129 -264q-12 -18 -27.5 -39t-31.5 -37q-66 -82 -154 -154 t-182 -96v133z" />
<glyph unicode="*" horiz-adv-x="870" d="M131 1192v104h211l-111 185l99 57l106 -184l111 184l94 -57l-109 -185h205v-104h-205l109 -180l-94 -58l-111 185l-106 -185l-99 58l111 180h-211z" />
<glyph unicode="+" horiz-adv-x="1241" d="M104 543v155h439v437h155v-437h439v-155h-439v-443h-155v443h-439z" />
<glyph unicode="," d="M186 -137l181 395h151l-180 -395h-152z" />
<glyph unicode="-" horiz-adv-x="679" d="M63 547v137h555v-137h-555z" />
<glyph unicode="." d="M207 0v258h151v-258h-151z" />
<glyph unicode="/" horiz-adv-x="894" d="M82 -262l592 1775h139l-596 -1775h-135z" />
<glyph unicode="0" horiz-adv-x="1134" d="M61 573v2v394q0 100 16.5 184t74.5 164q6 10 13 19.5t15 19.5q72 88 174.5 134t214.5 46q106 0 203.5 -41t169.5 -121q78 -86 105.5 -189.5t27.5 -217.5v-392q0 -117 -17.5 -219t-92.5 -198q-76 -94 -176.5 -139.5t-219.5 -45.5q-117 0 -215 43t-174 131 q-80 96 -99.5 202t-19.5 224zM213 600q0 -33 1 -66.5t3 -68.5q4 -53 18.5 -106.5t43.5 -96.5q53 -76 125.5 -110.5t164.5 -34.5q96 0 175 42t128 126q20 37 31.5 83t16.5 93q2 37 3 71.5t1 65.5v2v334q0 27 -1 59.5t-5 65.5q-6 49 -19.5 97t-40.5 85q-41 61 -110.5 100 t-145.5 48q-8 2 -16 2h-17q-10 0 -21 -1t-24 -4q-78 -10 -150.5 -55t-109.5 -112q-18 -35 -28.5 -78t-16.5 -86q-4 -33 -5 -63.5t-1 -59.5v-332z" />
<glyph unicode="1" horiz-adv-x="1134" d="M317 1376v137h408v-1513h-152v1376h-256z" />
<glyph unicode="2" horiz-adv-x="1134" d="M68 0v135l577 557q14 10 27.5 23.5l27.5 27.5q70 70 127.5 152t57.5 180q0 137 -99.5 226.5t-232.5 89.5q-84 0 -160 -43t-119 -115q-18 -33 -27 -69t-14 -74q-2 -12 -2 -24.5v-25.5v-9v-9l-151 2v13v16q0 207 136 345t349 138q98 0 178 -30.5t150 -102.5 q66 -66 104.5 -150t38.5 -176q0 -152 -74.5 -255t-173.5 -197q-10 -12 -21 -22.5t-22 -20.5l-469 -445h752v-137h-960z" />
<glyph unicode="3" horiz-adv-x="1134" d="M68 461v5v5l151 2q4 -53 13.5 -101t37.5 -96q45 -70 117 -114.5t154 -44.5q143 0 241.5 99t98.5 241q0 106 -63.5 194t-162.5 121q-31 10 -64.5 14.5t-66.5 4.5q-6 0 -13 1t-13 1h-9.5h-9.5h-7h-7h-7h-7v137l51 -4q111 -2 195.5 54t84.5 181q0 102 -68.5 166t-168.5 64 q-104 0 -163.5 -79t-59.5 -177v2h-152q0 166 106.5 282.5t280.5 116.5q160 0 268.5 -113.5t108.5 -273.5q0 -94 -41 -160.5t-115 -124.5q115 -51 184.5 -164.5t69.5 -240.5q0 -203 -142 -344.5t-345 -141.5q-201 0 -339 145.5t-138 342.5z" />
<glyph unicode="4" horiz-adv-x="1134" d="M25 276v138l733 1099h184v-1099h137v-138h-137v-276h-151v276h-766zM203 414h588v891z" />
<glyph unicode="5" horiz-adv-x="1134" d="M53 473l152 2q10 -145 110.5 -251.5t249.5 -106.5q158 0 261.5 113.5t103.5 267.5q0 152 -102.5 268.5t-260.5 116.5q-92 0 -173 -45t-138 -115l-121 45l137 745h684v-137h-561l-76 -418q59 33 124 51.5t132 18.5q215 0 360.5 -157.5t145.5 -368.5q0 -213 -144 -371 t-364 -158q-215 0 -359 145.5t-161 354.5z" />
<glyph unicode="6" horiz-adv-x="1134" d="M51 498q0 102 27.5 181t73.5 152q20 35 44.5 70t49.5 74l358 538h176l-358 -532q43 25 87 35t93 10q205 0 342 -163t139 -357v-3v-3v-19.5t-2 -19.5q-6 -90 -45 -176t-100 -154q-76 -80 -170 -119t-203 -39q-213 0 -362.5 157t-149.5 368zM203 508q0 -156 101.5 -273.5 t260.5 -117.5q154 0 260.5 113.5t106.5 265.5q0 154 -104.5 269.5t-262.5 115.5v2q-154 -2 -258 -113t-104 -262z" />
<glyph unicode="7" horiz-adv-x="1134" d="M131 1376v137h873v-137l-619 -1376h-164l623 1376h-713z" />
<glyph unicode="8" horiz-adv-x="1134" d="M86 442q0 18 2 39t6 41q20 102 86 193.5t162 128.5v2q-88 41 -132 123t-44 178q0 172 120 280.5t287 108.5q168 0 282 -116.5t114 -282.5q0 -92 -47.5 -174t-133.5 -119q117 -51 189 -162t72 -238q0 -201 -145.5 -336t-342.5 -135q-195 0 -335 137.5t-140 331.5zM238 434 q0 -133 96 -225t227 -92q139 0 237.5 94t98.5 233t-100.5 228.5t-233.5 89.5v2q-137 -2 -231 -97.5t-94 -232.5zM317 1155q0 -106 74 -177t180 -71q96 0 171 72t75 170q0 100 -71.5 171t-172.5 71v2q-100 -2 -178 -67.5t-78 -170.5z" />
<glyph unicode="9" horiz-adv-x="1134" d="M51 1001v3.5v3.5v9v9q4 98 44 189.5t104 160.5q76 80 170 120t202 40q213 0 362.5 -156.5t149.5 -367.5q0 -102 -27.5 -181t-72.5 -153q-20 -35 -45 -70t-49 -73l-359 -535h-176l359 530q-43 -29 -87 -39t-96 -10q-205 0 -341 163t-138 357zM203 1014v2 q-2 -152 106.5 -267.5t245.5 -115.5h4h4h2h4h9.5h9.5q145 0 244.5 109.5t99.5 256.5q0 156 -101.5 274t-261.5 118q-154 0 -261 -113t-105 -264z" />
<glyph unicode=":" d="M207 0v258h151v-258h-151zM207 786v258h151v-258h-151z" />
<glyph unicode=";" d="M84 -137l180 395h152l-180 -395h-152zM264 786v258h152v-258h-152z" />
<glyph unicode="&#x3c;" horiz-adv-x="1241" d="M100 551v131l1043 475v-149l-848 -392l848 -391v-149z" />
<glyph unicode="=" horiz-adv-x="1241" d="M104 340v154h1033v-154h-1033zM104 739v154h1033v-154h-1033z" />
<glyph unicode="&#x3e;" horiz-adv-x="1241" d="M98 76v149l848 391l-848 392v149l1043 -475v-131z" />
<glyph unicode="?" horiz-adv-x="1210" d="M133 1040v43v14.5t2 16.5q6 80 44 154.5t93 130.5q70 68 160 102.5t186 34.5q197 0 327 -132t130 -329q0 -117 -59.5 -195.5t-132.5 -148.5q-70 -70 -129.5 -146.5t-61.5 -191.5l-151 2v2v4v4.5v4.5q0 123 62.5 221t150.5 176q14 12 26.5 24.5t26.5 24.5q49 49 83 102.5 t34 133.5q0 129 -97.5 215t-222.5 84q-135 2 -230 -98.5t-95 -233.5v-5v-5v-5.5v-5.5v2h-146zM541 0v258h151v-258h-151z" />
<glyph unicode="@" horiz-adv-x="1775" d="M145 762q0 324 231.5 550t553.5 226q133 0 259 -45t226 -133q109 -94 163 -212t54 -263q0 -102 -30.5 -197.5t-90.5 -179.5q-63 -88 -154 -156.5t-206 -68.5q-8 0 -16.5 1t-16.5 1q-47 6 -88 31.5t-57 74.5q-37 -39 -89.5 -65.5t-105.5 -34.5q-12 -2 -25.5 -3t-25.5 -1 q-131 0 -209 92t-78 217q0 37 5.5 74t13.5 75q43 178 174 328t319 150q72 0 136.5 -35t95.5 -103l30 99h140l-209 -625q-2 -8 -4 -15t-6 -14q-2 -6 -3.5 -13t-3.5 -13q-4 -14 -7 -28.5t-3 -24.5q0 -27 17.5 -43.5t44.5 -16.5q12 0 25.5 2t27.5 6q43 16 85 48t75 67 q10 10 18 21.5t16 21.5q41 59 67 129t34 141q2 16 3 33t1 33q0 252 -187.5 398.5t-420.5 146.5q-285 0 -479.5 -205t-194.5 -485q0 -279 199.5 -476.5t478.5 -197.5q160 0 307 75.5t240 206.5v2l122 2q-98 -182 -282.5 -283.5t-386.5 -101.5q-332 0 -557.5 229.5 t-225.5 557.5zM598 606q0 -74 41 -131t119 -57v2q70 -2 126 45t91 102q4 8 9 16.5t9 16.5t9.5 18.5t9.5 20.5q16 35 32.5 76t28.5 82t19.5 79.5t7.5 73.5q0 59 -40 104.5t-104 45.5q-119 0 -203.5 -99.5t-123.5 -220.5q-14 -45 -22.5 -90t-8.5 -84z" />
<glyph unicode="A" horiz-adv-x="1515" d="M23 0l653 1513h168l649 -1513h-164l-219 508h-704l-220 -508h-163zM465 645h586l-291 694z" />
<glyph unicode="B" horiz-adv-x="1175" d="M156 0v1513h354q90 -2 178 -14t166 -63q82 -53 130 -140.5t48 -185.5t-45 -173t-123 -130q121 -49 185.5 -149.5t64.5 -231.5q0 -102 -49 -196.5t-137 -149.5q-8 -6 -17.5 -11.5t-19.5 -9.5q-84 -43 -170 -51t-180 -8h-13.5h-15.5h-356zM307 137h187q6 -2 13 -2h15h15.5 h13.5h31.5t31.5 2q53 2 104.5 11.5t94.5 31.5q57 31 97 89.5t48 121.5q2 8 2.5 15.5t0.5 13.5v1v1v1v1v7q1 92 -49 162q-52 73 -140 103q-43 14 -90 21.5t-96 7.5q-27 2 -52.5 2h-50.5h-8h-8l-160 2v-592zM307 866h164q2 -2 5 -2h7h38h40q51 2 101.5 11.5t95.5 33.5 q51 27 83.5 80t39.5 113v9v9v5v8q-4 57 -38 111t-83 85q-35 23 -78 33t-86 12q-14 2 -28.5 2h-28.5h-13.5h-13.5q-8 -2 -15.5 -2h-13.5l-176 2v-510z" />
<glyph unicode="C" horiz-adv-x="1665" d="M90 760q0 324 230.5 550t551.5 226q115 0 227.5 -30.5t209.5 -96.5q18 -12 37.5 -26.5t39.5 -30.5q51 -41 99.5 -95.5t75.5 -109.5q2 -6 5 -12.5t5 -12.5v2h-168q-76 115 -205 183.5t-266 81.5q-14 0 -28.5 1t-29.5 1q-258 0 -445 -190.5t-187 -440.5 q0 -266 192.5 -454.5t450.5 -188.5q154 0 295 75.5t229 200.5l168 2q-98 -190 -288.5 -306t-403.5 -116q-334 0 -564.5 226.5t-230.5 560.5z" />
<glyph unicode="D" horiz-adv-x="1523" d="M156 0v1513h407q164 -4 313.5 -38.5t280.5 -139.5q129 -106 203 -259.5t74 -317.5q0 -162 -65.5 -308.5t-182.5 -254.5q-135 -123 -285.5 -159t-327.5 -36h-417zM307 137h195q152 0 287 18.5t260 118.5q115 90 173 215t60 269q-2 147 -60.5 267t-174.5 212 q-125 95 -259 117q-123 20 -260 20h-26l-195 2v-1239z" />
<glyph unicode="E" horiz-adv-x="1097" d="M156 0v1513h827v-137h-676v-545h654v-137h-654v-557h676v-137h-827z" />
<glyph unicode="F" horiz-adv-x="993" d="M156 0v1513h768v-137h-617v-547h594v-137h-594v-692h-151z" />
<glyph unicode="G" horiz-adv-x="1785" d="M90 762v9v9q4 145 67.5 284.5t166.5 240.5q119 117 267 174t310 57q119 0 232.5 -31.5t212.5 -97.5q18 -12 37.5 -26.5t37.5 -30.5q59 -49 112.5 -112.5t76.5 -129.5l-172 2q-74 123 -210 196.5t-284 82.5q-10 2 -21.5 2h-21.5h-12h-12q-115 -4 -226.5 -46t-199.5 -124 q-90 -84 -147.5 -202t-61.5 -243v-8v-8q0 -276 197.5 -459.5t467.5 -183.5q203 0 379 121.5t234 320.5l-846 2v137h1028q-20 -313 -258 -519t-543 -206q-328 0 -569.5 228.5t-241.5 560.5z" />
<glyph unicode="H" horiz-adv-x="1398" d="M156 0v1513h151v-665h785v665h151v-1513h-151v711h-785v-711h-151z" />
<glyph unicode="I" horiz-adv-x="462" d="M156 0v1513h151v-1513h-151z" />
<glyph unicode="J" horiz-adv-x="987" d="M23 356l149 2q8 -109 85 -175t183 -66q76 0 135.5 41t86.5 110q8 25 12 53.5t6 59.5v36.5v35.5v8v8v1044h151v-1087q0 -14 -1 -26.5t-1 -24.5q-4 -49 -9 -91t-21 -85q-10 -18 -21.5 -38t-27.5 -40q-59 -76 -144.5 -112t-179.5 -36q-166 0 -282.5 110t-120.5 273z" />
<glyph unicode="K" horiz-adv-x="1210" d="M156 0v1513h151v-870l699 870h192l-598 -737l598 -776h-188l-506 655l-197 -241v-414h-151z" />
<glyph unicode="L" horiz-adv-x="946" d="M156 0v1513h151v-1376h627v-137h-778z" />
<glyph unicode="M" horiz-adv-x="1882" d="M156 0v1513h233l553 -1288l551 1288h233v-1513h-151v1346l-569 -1346h-129l-570 1346v-1346h-151z" />
<glyph unicode="N" horiz-adv-x="1515" d="M156 0v1513h204l848 -1255v1255h152v-1513h-152l-901 1331v-1331h-151z" />
<glyph unicode="O" horiz-adv-x="1779" d="M90 748q0 330 235.5 559t563.5 229v2q322 -2 561.5 -227.5t239.5 -550.5q0 -330 -235.5 -558.5t-565.5 -228.5q-317 0 -558 224.5t-241 550.5zM242 748q0 -262 195.5 -446.5t453.5 -184.5v2h6q263 -1 451 185q190 188 190 456q0 262 -193.5 446.5t-453.5 184.5 q-270 0 -459.5 -187.5t-189.5 -455.5z" />
<glyph unicode="P" horiz-adv-x="1212" d="M156 0v1513h397q106 -4 209.5 -14t195.5 -69q98 -61 148.5 -160t50.5 -213q0 -104 -43 -195.5t-129 -154.5q-88 -63 -187.5 -81t-205.5 -18l-285 2v-610h-151zM307 748h260h29q65 0 129 7q78 9 147 52q61 39 96.5 103.5t37.5 136.5v6v6q0 98 -49.5 172t-139.5 110 q-47 20 -96 26.5t-100 6.5q-16 2 -34 1t-34 -1h-25.5h-25.5l-195 2v-628z" />
<glyph unicode="Q" horiz-adv-x="1783" d="M90 743q0 346 237.5 569.5t577.5 223.5q342 0 577.5 -224.5t235.5 -572.5q0 -158 -68.5 -302t-185.5 -253q43 -31 94.5 -52t102.5 -21l33 4v-142h-19q-94 0 -172 31t-147 96q-68 -47 -149 -74.5t-165 -41.5q-35 -4 -70.5 -7.5t-70.5 -3.5q-322 0 -566.5 220.5 t-244.5 549.5zM242 723q0 -39 6 -77t18 -77v2q59 18 119.5 31.5t122.5 18.5q20 2 40.5 3t41.5 1q213 0 376.5 -72t317.5 -199q18 -16 37.5 -32.5t38.5 -32.5q92 86 149.5 204.5t57.5 247.5q0 279 -193.5 464.5t-470.5 185.5q-272 0 -467 -187q-194 -184 -194 -457v-6v-9v-9z M328 440q25 -49 69.5 -97t91.5 -87q12 -8 24.5 -17.5t25.5 -17.5q86 -57 180 -80.5t194 -23.5q27 0 55.5 2t57.5 8q57 8 112.5 28.5t100.5 51.5v2l-80 61q-18 12 -36.5 26.5t-37.5 27.5q-41 31 -85 56.5t-97 43.5q-49 16 -102 29.5t-107 19.5q-33 6 -66.5 8t-66.5 2 q-59 0 -118.5 -10t-114.5 -33z" />
<glyph unicode="R" horiz-adv-x="1243" d="M156 0v1513h360q37 -2 74 -2t74 -4q74 -4 146.5 -18t135.5 -51q115 -66 175.5 -176.5t60.5 -243.5q0 -186 -131 -318.5t-316 -136.5l426 -563h-188l-514 686h45q6 -2 12 -2h12h57.5t59.5 2q49 2 97.5 10.5t91.5 28.5q94 43 145 125t51 182v7v5q-4 76 -42 146t-99 113 q-63 45 -137 57t-150 14h-27.5h-27.5l-240 2v-1376h-151z" />
<glyph unicode="S" horiz-adv-x="1019" d="M45 422v2h162q4 -127 90 -217t213 -90q129 0 221 84t92 215q0 61 -28.5 118.5t-75.5 96.5q-49 41 -104.5 60.5t-114.5 35.5q-4 2 -7.5 3t-7.5 1q-6 2 -12 3t-14 3q-63 18 -126 41t-114 68q-63 53 -95 127t-32 155q0 182 126 295t304 113q172 0 295 -118 q121 -116 121 -286v-6l-158 2q-8 113 -83.5 188t-192.5 75q-111 0 -185.5 -78t-74.5 -187q0 -133 90 -183t196 -79q4 -2 7.5 -3t5.5 -1q14 -4 27.5 -7t25.5 -7q66 -18 124 -42t114 -73q68 -57 104.5 -142t36.5 -175q0 -186 -138.5 -313.5t-322.5 -127.5q-193 0 -332 125 q-137 123 -137 318v6z" />
<glyph unicode="T" horiz-adv-x="872" d="M14 1376v137h844v-137h-344v-1376h-152v1376h-348z" />
<glyph unicode="U" horiz-adv-x="1341" d="M156 592v921h151v-919v-39.5t2 -38.5q4 -63 18.5 -124.5t49.5 -117.5q47 -76 127 -116.5t168 -40.5h7h7q76 4 147.5 38.5t116.5 98.5q51 68 66.5 147.5t17.5 159.5v15.5v15.5v921h152v-919q0 -117 -19.5 -225.5t-93.5 -204.5q-70 -94 -177.5 -142.5t-223.5 -48.5 q-113 0 -218.5 45t-177.5 134q-78 96 -99 208.5t-21 231.5z" />
<glyph unicode="V" horiz-adv-x="1437" d="M20 1513h166l531 -1325l534 1325h166l-629 -1513h-143z" />
<glyph unicode="W" horiz-adv-x="1966" d="M20 1513h158l371 -1318l362 1318h144l362 -1316l371 1316h158l-433 -1513h-198l-332 1241l-334 -1241h-198z" />
<glyph unicode="X" horiz-adv-x="1247" d="M16 0l514 774l-483 739h176l402 -606l399 606h176l-489 -739l520 -774h-178l-428 647l-430 -647h-179z" />
<glyph unicode="Y" horiz-adv-x="1212" d="M4 1513h166l436 -849l436 849h166l-526 -1007v-506h-152v506z" />
<glyph unicode="Z" horiz-adv-x="983" d="M35 0v135l743 1241h-721v137h891v-137l-741 -1239h764v-137h-936z" />
<glyph unicode="[" horiz-adv-x="718" d="M229 326v594q0 84 9.5 154.5t42.5 137.5q12 25 27.5 49.5t35.5 49.5q4 4 7 8t5 6q51 59 123 110.5t148 71.5q4 2 7 3t7 1v-153q-150 -68 -207 -173.5t-57 -266.5v-566q0 -170 50 -277.5t214 -178.5v-156q-78 18 -147.5 62t-122.5 104q-14 16 -27.5 33.5t-26.5 33.5 q-55 78 -71.5 162t-16.5 191z" />
<glyph unicode="\" horiz-adv-x="1239" d="M172 1513h145l633 -1513h-143z" />
<glyph unicode="]" horiz-adv-x="718" d="M78 -104q150 61 207 168.5t57 265.5v567q0 55 -2 102.5t-16 92.5q-8 27 -21.5 54.5t-34.5 57.5q-37 57 -83 91t-107 61v2v155q78 -23 147.5 -66.5t122.5 -103.5q16 -16 28.5 -33.5t24.5 -33.5q55 -80 71.5 -164t16.5 -190v-590q0 -88 -10 -159t-43 -138 q-12 -25 -27.5 -48.5t-35.5 -47.5q-2 -2 -3 -4.5t-3 -4.5q-45 -55 -113 -106t-139 -74q-8 -4 -17.5 -6t-19.5 -4v156z" />
<glyph unicode="^" horiz-adv-x="1241" d="M37 369l522 1144h119l526 -1144h-131l-457 991l-448 -991h-131z" />
<glyph unicode="_" horiz-adv-x="1024" d="M0 -137h1024v-119h-1024v119z" />
<glyph unicode="`" horiz-adv-x="774" d="M152 1473l65 122l406 -221l-68 -119z" />
<glyph unicode="a" horiz-adv-x="1398" d="M86 565q0 115 44 216.5t118 176.5q80 84 187.5 134.5t250.5 50.5h5h5q129 -2 247 -61.5t177 -176.5l4 2v213h146v-1120h-146v211h-4q-61 -121 -179 -179.5t-251 -58.5q-35 0 -68.5 4.5t-68.5 12.5q-94 20 -186.5 74.5t-169.5 144.5q-8 10 -19.5 25.5t-21.5 35.5 q-27 51 -48.5 128t-21.5 167zM238 553q0 -184 136 -310t316 -126q176 0 305 130t129 304q0 186 -125 316t-313 130v2q-184 -2 -316 -131t-132 -315z" />
<glyph unicode="b" horiz-adv-x="1396" d="M129 0v1513h152v-602h4q45 98 143 155.5t207 72.5q18 2 35.5 3t34.5 1q244 0 425 -165t181 -415q0 -106 -34 -197.5t-77 -146.5q-4 -8 -10 -15l-12 -14q-47 -53 -92.5 -91t-90.5 -62q-66 -37 -134 -50.5t-142 -13.5q-29 0 -58.5 3.5t-60.5 9.5q-96 18 -186 69t-138 135 l-4 3v-193h-143zM270 549q0 -186 132.5 -309t316.5 -123q182 0 311 130t129 312q0 190 -131 314t-319 124v2q-90 -2 -173 -36.5t-147 -100.5q-66 -66 -92.5 -143.5t-26.5 -169.5z" />
<glyph unicode="c" horiz-adv-x="1325" d="M86 559q0 250 182.5 417t423.5 167q178 0 334 -97.5t219 -267.5l-170 2q-57 98 -161.5 157.5t-219.5 59.5q-186 0 -321 -123.5t-135 -312.5q0 -186 129 -315t315 -129q131 0 225 53t168 156v2h168q-76 -166 -219 -260.5t-326 -94.5q-250 0 -431 165t-181 421z" />
<glyph unicode="d" horiz-adv-x="1402" d="M86 561q0 250 179 416t423 166h16.5h16.5q119 -8 227.5 -62.5t169.5 -156.5l4 2v587h152v-1513h-144v205h-4q-82 -121 -192.5 -176.5t-255.5 -55.5q-74 0 -143.5 17.5t-139.5 58.5q-45 29 -92 67t-94 87q-6 6 -13.5 13t-13.5 15q-35 47 -65.5 136.5t-30.5 193.5zM238 563 q0 -184 130 -315t314 -131t314 131t130 315v2q0 184 -133 308t-315 124q-178 0 -309 -126t-131 -308z" />
<glyph unicode="e" horiz-adv-x="1331" d="M86 557q0 244 170 415t414 171q133 0 249.5 -57.5t200.5 -159.5q78 -96 103.5 -198.5t27.5 -223.5v2h-1013q6 -162 136 -275.5t285 -113.5h5.5h5.5q121 2 231.5 67.5t159.5 177.5l158 3q-57 -170 -212 -281t-333 -111q-246 0 -417 169t-171 415zM238 641v2h862 q-29 147 -151 250.5t-277 103.5q-158 0 -282 -100t-152 -256z" />
<glyph unicode="f" horiz-adv-x="643" d="M33 983v137h174v10.5v10.5q0 178 110.5 273t288.5 97l29 2v-137h-29q-117 -2 -182.5 -59t-65.5 -176v-21h279v-137h-279v-983h-151v983h-174z" />
<glyph unicode="g" horiz-adv-x="1378" d="M86 555q0 86 21.5 163t48.5 126q10 18 19 33.5t18 23.5q111 139 228.5 190.5t235.5 51.5h11.5h9.5q129 -4 245.5 -64.5t176.5 -177.5l4 2v217h145v-960q0 -94 -7 -164t-40 -137q-14 -27 -34.5 -55.5t-49.5 -59.5q-68 -74 -162 -118t-194 -58q-20 -4 -42 -5t-44 -1 q-184 0 -343 113.5t-206 297.5h147q66 -125 168.5 -195.5t245.5 -70.5h16.5t16.5 2q100 6 191.5 54.5t142.5 138.5q14 25 23 48t14 48q10 35 11 75t1 85v63h-4q-45 -113 -148.5 -171t-218.5 -73q-16 -2 -33.5 -3t-33.5 -1h-9.5h-11.5q-104 4 -205.5 47t-177.5 115 q-88 84 -132 190.5t-44 229.5zM238 569q0 -186 118.5 -319t311.5 -133q90 0 166.5 30.5t140.5 96.5q45 47 75.5 109.5t43.5 127.5q4 20 6 39t2 37q0 188 -130 314t-319 126v2q-174 -2 -294.5 -130t-120.5 -300z" />
<glyph unicode="h" horiz-adv-x="1249" d="M129 0v1513h152v-555q47 86 135 132.5t184 52.5h9h12q109 0 210 -44t173 -128q72 -82 94 -178.5t22 -204.5v-588h-151v590q0 72 -11.5 138.5t-54.5 127.5q-49 70 -127 105.5t-162 35.5h-13t-13 -2q-72 -4 -139.5 -40.5t-110.5 -94.5q-33 -45 -44 -100t-13 -111v-31.5 v-29.5v-588h-152z" />
<glyph unicode="i" horiz-adv-x="409" d="M129 0v1120h152v-1120h-152zM129 1255v258h152v-258h-152z" />
<glyph unicode="j" horiz-adv-x="415" d="M-92 -246q162 6 194.5 112.5t32.5 233.5v1020h152v-1018v-10v-8q0 -100 -12.5 -189.5t-90.5 -170.5q-53 -57 -124.5 -87t-149.5 -30zM135 1255v258h152v-258h-152z" />
<glyph unicode="k" horiz-adv-x="1028" d="M129 0v1513h152v-1062l514 669h194l-434 -561l463 -559h-195l-364 442l-178 -229v-213h-152z" />
<glyph unicode="l" horiz-adv-x="409" d="M129 0v1513h152v-1513h-152z" />
<glyph unicode="m" horiz-adv-x="1921" d="M129 0v1120h143v-145h4q39 86 120 127t175 41q111 0 203 -44t160 -126q4 -6 7 -11.5t7 -9.5q4 -6 7 -11t8 -11q2 4 3 7t3 7q4 6 8 13.5t8 15.5q49 68 126 109.5t159 54.5q18 4 35.5 5t33.5 1q90 0 178.5 -43t170.5 -127q68 -68 86 -153t18 -183v-637h-152v625v33.5 t-2 35.5q-4 45 -15 89t-38 81q-45 66 -110.5 99.5t-143.5 33.5q-72 0 -139.5 -33.5t-108.5 -93.5q-25 -35 -34 -75.5t-11 -81.5q-2 -20 -2 -41v-39v-6v-4v-623h-151v641q0 41 -3 79t-18 77q-4 16 -12 32.5t-21 32.5q-43 61 -109.5 98t-141.5 37q-70 0 -136.5 -29.5 t-109.5 -88.5q-39 -55 -46 -114.5t-7 -125.5v-639h-152z" />
<glyph unicode="n" horiz-adv-x="1249" d="M129 0v1120h143v-162h4q61 88 147.5 136.5t197.5 48.5q113 0 217 -48t180 -139q66 -82 84 -172t18 -196v-588h-151v590q0 70 -11.5 137.5t-54.5 126.5q-51 72 -127 107.5t-162 35.5h-12h-12q-74 -6 -140.5 -41.5t-109.5 -95.5q-37 -49 -47 -105.5t-10 -115.5 q-2 -8 -2 -16.5v-16.5v-10v-8v-588h-152z" />
<glyph unicode="o" horiz-adv-x="1341" d="M86 551q0 244 171 418t417 174v2q233 -2 407 -174t174 -406q0 -240 -168.5 -416t-412.5 -176q-238 0 -413 168t-175 410zM238 551q0 -180 128 -307t308 -127q188 0 309 133t121 315q0 92 -32 169t-99 140q-59 57 -137 90t-162 33v2q-186 -2 -311 -134t-125 -314z" />
<glyph unicode="p" horiz-adv-x="1396" d="M129 -393v1513h143v-192h4q47 82 137.5 133t186.5 69q31 6 60.5 9.5t58.5 3.5q123 0 237.5 -51.5t221.5 -165.5q51 -45 92 -147.5t41 -225.5q0 -250 -181.5 -415t-424.5 -165q-16 0 -34 1t-36 3q-109 14 -207 71.5t-143 158.5l-4 2v-602h-152zM270 567q0 -92 27 -170 t92 -143q63 -66 146 -101.5t174 -35.5v2h6q184 0 313 123q131 125 131 313q0 182 -129 312t-311 130q-184 0 -316.5 -121.5t-132.5 -308.5z" />
<glyph unicode="q" horiz-adv-x="1396" d="M86 553q0 117 38 214t83 146q2 4 5 7.5t5 5.5q94 111 204.5 161t223.5 56h16.5h16.5q29 0 58.5 -3t60.5 -10q96 -18 186 -69t137 -135l4 2v192h144v-1513h-152v602h-4q-45 -102 -143.5 -159.5t-206.5 -72.5q-18 -2 -35.5 -3t-34.5 -1q-244 0 -425 165t-181 415zM238 555 q0 -188 132 -313t318 -125v2h10q84 0 164 33q84 36 148 102q66 66 91 143.5t25 169.5q0 186 -132 308t-316 122q-182 0 -311 -130t-129 -312z" />
<glyph unicode="r" horiz-adv-x="616" d="M129 0v1120h143v-162h4q41 98 130.5 140.5t191.5 44.5v-148q-49 -6 -88 -17t-78 -34q-8 -6 -17 -13t-20 -16q-14 -12 -27.5 -24t-23.5 -27q-43 -51 -53 -106.5t-10 -132.5v-625h-152z" />
<glyph unicode="s" horiz-adv-x="794" d="M37 311v4v4v4.5v4.5v2h151v-3v-3v-4v-1q0 -82 59.5 -142t143.5 -60q82 0 139.5 52t57.5 134q0 102 -66.5 147.5t-150.5 67.5q-8 2 -17.5 5t-19.5 7q-45 14 -88 34t-78 52q-45 41 -67.5 97.5t-22.5 115.5q0 137 96 225.5t227 88.5q127 0 218.5 -90t91.5 -213l-152 2 q0 72 -50 113.5t-124 41.5q-63 0 -109.5 -45t-46.5 -110q0 -92 61.5 -128t135.5 -59q127 -39 220 -107.5t93 -219.5q0 -158 -102 -256.5t-260 -98.5q-137 0 -238.5 100.5t-101.5 237.5z" />
<glyph unicode="t" horiz-adv-x="694" d="M25 983v137h233v393h152v-393h260v-137h-260v-983h-152v983h-233z" />
<glyph unicode="u" horiz-adv-x="1245" d="M129 526v594h152v-592q0 -66 8 -129t41 -120q47 -80 123.5 -121t169.5 -41q82 0 153.5 35.5t120.5 101.5q43 59 55.5 130t12.5 142v594h151v-1120h-143v174h-4q-51 -109 -150.5 -155t-216.5 -46q-90 0 -171 29t-159 102q-16 16 -31.5 33t-31.5 35q-51 53 -65.5 148.5 t-14.5 205.5z" />
<glyph unicode="v" horiz-adv-x="1134" d="M16 1120h164l387 -927l387 927h164l-473 -1120h-158z" />
<glyph unicode="w" horiz-adv-x="1701" d="M14 1120h160l352 -938l260 801h125l258 -801l359 938h160l-426 -1120h-175l-239 743l-236 -743h-174z" />
<glyph unicode="x" horiz-adv-x="983" d="M16 0l383 569l-383 551h179l297 -432l296 432h179l-385 -551l385 -569h-179l-296 449l-297 -449h-179z" />
<glyph unicode="y" horiz-adv-x="1097" d="M18 1120h162l359 -893l379 893h161l-647 -1513h-160l177 428z" />
<glyph unicode="z" horiz-adv-x="870" d="M20 0v133l607 850h-586v137h770v-137l-602 -846h641v-137h-830z" />
<glyph unicode="{" horiz-adv-x="718" d="M76 625q29 8 57.5 20t50.5 31q45 35 52.5 79t7.5 95v3v3v2v346q0 162 57 234.5t225 72.5h13.5h15.5q-92 -27 -128 -85t-36 -150v-363q0 -113 -31.5 -186.5t-152.5 -101.5q115 -23 149.5 -87.5t34.5 -172.5v-390q0 -96 34 -151t130 -84q-68 0 -124 6t-109 47 q-47 35 -61.5 87t-16.5 108v12v12v391q0 29 -1 53.5t-12 49.5q-4 12 -11 25.5t-19 27.5q-25 29 -56.5 45.5t-68.5 20.5z" />
<glyph unicode="|" horiz-adv-x="1376" d="M623 0v1513h131v-1513h-131z" />
<glyph unicode="}" horiz-adv-x="718" d="M78 -260q92 29 125 84t33 151v392q0 106 35.5 170.5t148.5 87.5q-119 29 -151.5 102.5t-32.5 183.5v2v365q0 90 -35 148.5t-123 84.5h15h16q164 0 219 -72.5t55 -236.5v-344q0 -55 8 -100t53 -82q23 -18 50.5 -30.5t56.5 -20.5q-35 -4 -66.5 -20.5t-56.5 -45.5 q-12 -14 -20.5 -27.5t-12.5 -25.5q-10 -25 -11 -49.5t-1 -55.5v-387v-14v-12q-2 -55 -15.5 -107.5t-62.5 -87.5l-12 -8l-12 -8q-47 -27 -96.5 -32t-106.5 -5z" />
<glyph unicode="~" horiz-adv-x="1241" d="M104 532q4 6 8.5 13.5t8.5 15.5q47 80 111.5 145.5t164.5 65.5q41 0 85 -12t89 -31q16 -8 33 -14t33 -15q61 -27 116.5 -49t94.5 -22q55 0 100 40t78 87q6 10 12 21t13 22v2l86 -96q-2 -6 -4.5 -10.5t-6.5 -8.5q-45 -80 -113.5 -145.5t-166.5 -65.5q-27 0 -61.5 9.5 t-71.5 21.5q-12 6 -26.5 11t-27.5 11q-27 10 -49 19.5t-41 17.5q-6 2 -13 5t-15 8q-35 14 -71 26t-73 12q-68 0 -110.5 -44t-73.5 -97q-6 -12 -12 -22.5t-13 -20.5z" />
<glyph unicode="&#xa0;" />
<glyph unicode="&#xa1;" horiz-adv-x="604" d="M227 -393v1122h152v-1122h-152zM227 862v258h152v-258h-152z" />
<glyph unicode="&#xa2;" horiz-adv-x="1134" d="M92 788q0 178 132 315.5t308 147.5v193h136v-191q127 -16 231.5 -101t142.5 -208l-170 2q-43 78 -122.5 119t-169.5 41q-131 0 -233.5 -93t-102.5 -227q0 -137 101 -235t239 -98q82 0 156.5 37.5t125.5 101.5l164 2q-39 -115 -142.5 -192.5t-219.5 -94.5v-180h-136v182 q-186 8 -313 151.5t-127 327.5z" />
<glyph unicode="&#xa3;" horiz-adv-x="1134" d="M37 709v137h149q-18 43 -30.5 90t-12.5 96q0 16 1 33.5t6 36.5q10 70 40.5 137.5t75.5 120.5q72 86 169 130t210 46q182 -2 326.5 -126t163.5 -306l-144 2q-23 117 -122 201t-222 84q-150 0 -252 -101.5t-100 -253.5v-5v-7v-12v-13q4 -41 17.5 -81.5t39.5 -73.5l582 2 v-137h-438q63 -68 105 -155t42 -181q0 -63 -16.5 -123t-44.5 -115l51 2q6 -2 13 -2h13q74 0 144.5 6t134.5 49q59 43 91 107.5t32 136.5v7v5v16.5v16.5q-2 16 -4 33.5t-8 32.5l147 2q8 -31 12 -60.5t4 -58.5q0 -100 -43 -187t-120 -149q-82 -63 -175.5 -77.5t-193.5 -14.5 h-561v137h284q31 25 49.5 66t28.5 84q4 20 7.5 40.5t3.5 39.5q-2 109 -49.5 180t-123.5 137q-6 6 -13 11t-13 12z" />
<glyph unicode="&#xa4;" horiz-adv-x="1134" d="M53 612q0 72 14.5 131.5t45.5 116.5q8 14 18 29.5t21 32.5l-89 90l107 108l90 -88q70 51 149.5 74.5t165.5 23.5q84 0 157 -26.5t142 -73.5l91 90l106 -108l-88 -88q8 -14 16.5 -26.5t14.5 -25.5q37 -63 52 -127.5t15 -142.5q0 -63 -14 -117.5t-41 -105.5 q-10 -18 -20.5 -34.5t-22.5 -35.5l88 -84l-106 -108l-91 88q-70 -53 -149.5 -79t-167.5 -26q-84 0 -156.5 28t-140.5 75l-90 -86l-107 108l89 86q-8 12 -17.5 25.5t-15.5 25.5q-33 59 -49.5 119t-16.5 131zM201 604q0 -145 108.5 -249.5t253.5 -106.5q154 2 262.5 108.5 t108.5 261.5v3q0 143 -102.5 252.5t-249.5 109.5h-3h-4h-1h-3h-3h-1q-156 0 -261 -103.5t-105 -258.5v-4.5v-4.5v-1v-3v-3v-1z" />
<glyph unicode="&#xa5;" horiz-adv-x="1134" d="M0 1513h166l442 -849l432 849h166l-297 -575h203v-127h-270l-101 -199h357v-127h-416v-485h-152v485h-421v127h362l-104 199h-273v127h207z" />
<glyph unicode="&#xa6;" />
<glyph unicode="&#xa7;" horiz-adv-x="1259" d="M178 690q0 102 49 179t131 135q-25 25 -43 59.5t-28 71.5q-6 18 -8.5 36.5t-2.5 34.5q0 145 102.5 237.5t244.5 92.5q14 0 28.5 -1t30.5 -3q113 -16 208 -93t97 -200v2h-143q-2 55 -48 92t-102 49q-14 4 -28.5 6.5t-28.5 2.5h-3h-1h-3h-3h-5.5h-5.5q-84 0 -139 -50.5 t-55 -138.5q0 -72 43 -111.5t100 -68.5l258 -127q6 -6 13.5 -9t13.5 -5q88 -45 160.5 -109.5t72.5 -175.5q0 -16 -2 -33.5t-6 -36.5q-16 -68 -58 -130t-99 -97q43 -33 69.5 -83t34.5 -103q0 -8 1 -17.5t1 -17.5q0 -166 -114.5 -264.5t-276.5 -98.5q-178 0 -296 121t-122 295 l143 2q4 -113 77 -193.5t186 -78.5h7h5h9h9q94 0 161 56t67 157q0 70 -48.5 113.5t-105.5 74.5q-14 8 -28.5 15.5t-28.5 13.5l-332 174q-70 33 -114 88t-44 137zM324 715q0 -63 41 -100t92 -64v2l362 -180q37 18 68 59t45 86q2 12 4 24.5t2 24.5q0 78 -41 116t-100 69 q-4 0 -7.5 2t-7.5 4l-336 172q-49 -31 -82.5 -84t-39.5 -111v-11v-9z" />
<glyph unicode="&#xa8;" horiz-adv-x="755" d="M152 1255v258h151v-258h-151zM453 1255v258h151v-258h-151z" />
<glyph unicode="&#xa9;" horiz-adv-x="1529" d="M-16 756q0 324 228 552t554 228q324 0 552 -228.5t228 -551.5q0 -326 -228 -554.5t-552 -228.5q-326 0 -554 228.5t-228 554.5zM78 756q0 -287 201.5 -488.5t486.5 -201.5v2q285 -2 485.5 199.5t200.5 488.5q0 285 -200.5 485.5t-485.5 200.5t-486.5 -201t-201.5 -485z M367 762q0 195 114.5 321.5t313.5 126.5q141 0 243.5 -77.5t124.5 -217.5l-112 3q-16 90 -88 145t-166 55q-156 0 -236 -104.5t-80 -249.5q0 -141 84 -251t236 -110q92 0 164.5 56.5t85.5 152.5v2h112q-14 -141 -120.5 -223t-241.5 -82q-197 0 -315.5 130t-118.5 323z" />
<glyph unicode="&#xaa;" horiz-adv-x="755" d="M63 666v90h631v-90h-631zM63 1221q0 137 92.5 226t227.5 89h11h12q57 -4 110 -29.5t84 -74.5l4 2v92h90v-598h-90v90h-4q-35 -53 -92 -80t-123 -27q-129 0 -225.5 89.5t-96.5 220.5zM154 1223q0 -94 70.5 -158t160.5 -64q88 0 153.5 66t65.5 154q0 94 -63.5 160.5 t-157.5 66.5v2q-94 -2 -161.5 -68.5t-67.5 -158.5z" />
<glyph unicode="&#xab;" horiz-adv-x="870" d="M82 616l231 408l119 -63l-192 -345l192 -344l-119 -65zM436 616l232 408l120 -63l-192 -345l192 -344l-120 -65z" />
<glyph unicode="&#xac;" />
<glyph unicode="&#xad;" horiz-adv-x="1024" />
<glyph unicode="&#xae;" horiz-adv-x="1529" d="M-16 756q0 324 228 552t554 228q324 0 552 -228.5t228 -551.5q0 -326 -228 -554.5t-552 -228.5q-326 0 -554 228.5t-228 554.5zM78 756q0 -287 201.5 -488.5t486.5 -201.5v2q285 -2 485.5 199.5t200.5 488.5q0 285 -200.5 485.5t-485.5 200.5t-486.5 -201t-201.5 -485z M475 319v875h381q55 -2 109.5 -9t103.5 -36q45 -25 69.5 -71t28.5 -97v-11v-9q0 -129 -79.5 -182.5t-196.5 -57.5v2l264 -404h-127l-250 404h-196v-404h-107zM582 807h163q8 -2 17.5 -2h19.5h34h36q78 2 142.5 30.5t64.5 127.5q0 94 -62.5 121.5t-138.5 29.5h-13h-14l-249 2 v-309z" />
<glyph unicode="&#xaf;" />
<glyph unicode="&#xb0;" horiz-adv-x="819" d="M102 1204q-2 127 89.5 217t218.5 90t217 -90t90 -217v2q0 -129 -90 -219t-217 -90t-217.5 90t-90.5 217zM184 1204q0 -94 65.5 -159.5t160.5 -65.5q92 0 158.5 65.5t66.5 159.5v2q0 90 -66.5 157t-160.5 67q-92 0 -159 -67t-65 -159z" />
<glyph unicode="&#xb1;" horiz-adv-x="1241" d="M104 0v156h1033v-156h-1033zM104 647v156h439v332h155v-332h439v-156h-439v-336h-155v336h-439z" />
<glyph unicode="&#xb2;" />
<glyph unicode="&#xb3;" />
<glyph unicode="&#xb4;" horiz-adv-x="768" d="M152 1370l393 238l71 -119l-395 -234z" />
<glyph unicode="&#xb5;" horiz-adv-x="1245" d="M129 -393v1513h152v-592q0 -66 8 -129t41 -120q47 -80 123.5 -121t169.5 -41q82 0 153.5 35.5t120.5 101.5q43 59 55.5 130t12.5 142v2v592h151v-1120h-143v174h-4q-51 -109 -150.5 -155t-216.5 -46q-88 0 -167 28t-154 97v-491h-152z" />
<glyph unicode="&#xb6;" horiz-adv-x="1155" d="M76 1114q0 84 33.5 164t97.5 135q74 68 152.5 82t172.5 16l474 2v-1773h-152v1636h-233v-1636h-152v987q-156 -4 -274.5 112.5t-118.5 274.5z" />
<glyph unicode="&#xb7;" />
<glyph unicode="&#xb8;" horiz-adv-x="663" d="M152 -309l90 10q4 -25 25.5 -41t45.5 -25q6 0 11.5 -1t11.5 -1q41 0 64.5 28t23.5 69q0 39 -28.5 67.5t-69.5 28.5q-27 0 -47.5 -12.5t-34.5 -32.5l-64 35l82 184h76l-49 -119q8 4 14 6l12 4q8 2 17.5 3.5t19.5 1.5q74 0 117 -45.5t43 -118.5q0 -76 -50 -132.5 t-128 -56.5q-74 0 -120 38t-62 110z" />
<glyph unicode="&#xb9;" />
<glyph unicode="&#xba;" horiz-adv-x="755" d="M66 666v90h624v-90h-624zM66 1221q0 131 91 223t222 92v2q129 -2 220 -96t91 -221q0 -125 -93 -217.5t-218 -92.5q-127 0 -220 90.5t-93 219.5zM160 1225q0 -92 62.5 -158t156.5 -66v3q94 -2 155.5 63.5t61.5 157.5t-61.5 156.5t-155.5 64.5t-156.5 -64.5t-62.5 -156.5z " />
<glyph unicode="&#xbb;" horiz-adv-x="870" d="M82 272l192 344l-192 345l119 63l231 -408l-231 -409zM436 272l193 344l-193 345l121 63l231 -408l-231 -409z" />
<glyph unicode="&#xbc;" />
<glyph unicode="&#xbd;" horiz-adv-x="1701" d="M197 1430v83h276v-907h-111v824h-165zM424 0l680 1513h131l-680 -1513h-131zM1036 0v82l375 334q4 2 8 5t8 7q47 43 88 97.5t41 119.5q0 82 -58 136.5t-146 54.5q-94 0 -145.5 -59.5t-51.5 -149.5v-4v-2v-4.5v-4.5l-111 2v4v5v5v5q0 125 89.5 206t226.5 81 q66 0 117 -17.5t96 -60.5q43 -39 68.5 -89.5t25.5 -105.5q0 -96 -48 -160.5t-112 -119.5q-8 -8 -15 -15.5t-15 -13.5l-287 -254h471v-84h-625z" />
<glyph unicode="&#xbe;" />
<glyph unicode="&#xbf;" horiz-adv-x="1210" d="M135 29q0 121 60.5 199.5t132.5 152.5q72 70 131 148.5t61 197.5l152 2v-7v-7q0 -129 -62.5 -229.5t-152.5 -184.5q-12 -12 -24.5 -23.5t-24.5 -21.5q-51 -49 -86 -104.5t-35 -141.5q0 -127 97 -215t222 -88q135 0 231.5 101.5t94.5 234.5v12v13v2h145v-45 q0 -14 -1 -25.5t-3 -22.5q-8 -78 -45 -149.5t-90 -126.5q-70 -70 -160 -104.5t-186 -34.5q-197 0 -327 134t-130 333zM520 862v258h152v-258h-152z" />
<glyph unicode="&#xc0;" horiz-adv-x="1515" d="M23 0l653 1513h168l649 -1513h-164l-219 508h-704l-220 -508h-163zM465 645h586l-291 694zM522 1866l66 123l405 -222l-67 -118z" />
<glyph unicode="&#xc1;" horiz-adv-x="1515" d="M23 0l653 1513h168l649 -1513h-164l-219 508h-704l-220 -508h-163zM465 645h586l-291 694zM526 1763l394 238l71 -119l-395 -233z" />
<glyph unicode="&#xc2;" horiz-adv-x="1515" d="M23 0l653 1513h168l649 -1513h-164l-219 508h-704l-220 -508h-163zM395 1649l297 258h131l297 -258h-184l-178 149l-178 -149h-185zM465 645h586l-291 694z" />
<glyph unicode="&#xc3;" horiz-adv-x="1515" d="M23 0l653 1513h168l649 -1513h-164l-219 508h-704l-220 -508h-163zM463 1772q37 39 81 61t99 22q41 0 73 -12t58 -28q10 -6 20.5 -11.5t20.5 -11.5q18 -8 35.5 -13t36.5 -5q14 0 27.5 4t27.5 10q12 8 25.5 17.5t27.5 19.5v2l62 -98q-25 -27 -59.5 -47.5t-69.5 -30.5 q-10 -2 -19.5 -3t-19.5 -1q-27 0 -51.5 7t-49.5 17q-10 4 -22 10.5t-25 12.5q-8 4 -16 9t-16 7q-16 8 -34 13.5t-38 5.5h-7h-5q-31 -4 -57.5 -21.5t-45.5 -38.5zM465 645h586l-291 694z" />
<glyph unicode="&#xc4;" horiz-adv-x="1515" d="M23 0l653 1513h168l649 -1513h-164l-219 508h-704l-220 -508h-163zM465 645h586l-291 694zM532 1649v258h152v-258h-152zM834 1649v258h151v-258h-151z" />
<glyph unicode="&#xc5;" horiz-adv-x="1515" d="M23 0l653 1513h168l649 -1513h-164l-219 508h-704l-220 -508h-163zM465 645h586l-291 694zM569 1835q0 78 55.5 133t133.5 55v2q78 -2 133 -57t55 -133t-55 -133t-133 -55t-133.5 55t-55.5 133zM645 1837q0 -47 33 -81t80 -34t79.5 33t32.5 80t-32.5 80t-79.5 33v2 q-45 -2 -79 -34t-34 -79z" />
<glyph unicode="&#xc6;" horiz-adv-x="2031" d="M23 0l1052 1513h842v-137h-649v-545h626v-137h-626v-557h649v-137h-801v510h-557l-356 -510h-180zM655 647h461v672h-4z" />
<glyph unicode="&#xc7;" horiz-adv-x="1665" d="M90 760q0 324 230.5 550t551.5 226q115 0 227.5 -30.5t209.5 -96.5q18 -12 37.5 -26.5t39.5 -30.5q51 -41 99.5 -95.5t75.5 -109.5q2 -6 5 -12.5t5 -12.5v2h-168q-76 115 -205 183.5t-266 81.5q-14 0 -28.5 1t-29.5 1q-258 0 -445 -190.5t-187 -440.5 q0 -266 192.5 -454.5t450.5 -188.5q154 0 295 75.5t229 200.5l168 2q-98 -190 -288.5 -306t-403.5 -116q-334 0 -564.5 226.5t-230.5 560.5zM653 -309l90 10q4 -25 26 -41t46 -25q6 0 11 -1t12 -1q41 0 64.5 28t23.5 69q0 39 -29 67.5t-70 28.5q-27 0 -47 -12.5t-35 -32.5 l-63 35l82 184h76l-49 -119q8 4 14 6l12 4q8 2 17.5 3.5t19.5 1.5q74 0 117 -45.5t43 -118.5q0 -76 -50.5 -132.5t-127.5 -56.5q-74 0 -120 38t-63 110z" />
<glyph unicode="&#xc8;" horiz-adv-x="1097" d="M156 0v1513h827v-137h-676v-545h654v-137h-654v-557h676v-137h-827zM313 1866l66 123l405 -222l-67 -118z" />
<glyph unicode="&#xc9;" horiz-adv-x="1097" d="M156 0v1513h827v-137h-676v-545h654v-137h-654v-557h676v-137h-827zM317 1763l394 238l71 -119l-395 -233z" />
<glyph unicode="&#xca;" horiz-adv-x="1097" d="M156 0v1513h827v-137h-676v-545h654v-137h-654v-557h676v-137h-827zM186 1649l297 258h131l297 -258h-184l-178 149l-178 -149h-185z" />
<glyph unicode="&#xcb;" horiz-adv-x="1097" d="M156 0v1513h827v-137h-676v-545h654v-137h-654v-557h676v-137h-827zM324 1649v258h151v-258h-151zM625 1649v258h151v-258h-151z" />
<glyph unicode="&#xcc;" horiz-adv-x="462" d="M-4 1866l65 123l406 -222l-68 -118zM156 0v1513h151v-1513h-151z" />
<glyph unicode="&#xcd;" horiz-adv-x="462" d="M0 1763l393 238l72 -119l-395 -233zM156 0v1513h151v-1513h-151z" />
<glyph unicode="&#xce;" horiz-adv-x="462" d="M-131 1649l297 258h131l297 -258h-184l-179 149l-178 -149h-184zM156 0v1513h151v-1513h-151z" />
<glyph unicode="&#xcf;" horiz-adv-x="462" d="M6 1649v258h152v-258h-152zM156 0v1513h151v-1513h-151zM307 1649v258h152v-258h-152z" />
<glyph unicode="&#xd0;" horiz-adv-x="1617" d="M53 737v137h197v639h407q164 -4 313.5 -38.5t280.5 -139.5q129 -106 203 -259.5t74 -317.5q0 -162 -65.5 -308.5t-182.5 -254.5q-135 -123 -285.5 -159t-326.5 -36h-418v737h-197zM401 137h195q152 0 287 18.5t260 118.5q115 90 173 215t60 269q-2 147 -60.5 267 t-174.5 212q-125 96 -259 117.5t-286 19.5l-195 2v-502h267v-137h-267v-600z" />
<glyph unicode="&#xd1;" horiz-adv-x="1515" d="M156 0v1513h204l848 -1255v1255h152v-1513h-152l-901 1331v-1331h-151zM463 1772q37 39 81 61t99 22q41 0 73 -12t58 -28q10 -6 20.5 -11.5t20.5 -11.5q18 -8 35.5 -13t36.5 -5q14 0 27.5 4t27.5 10q12 8 25.5 17.5t27.5 19.5v2l62 -98q-25 -27 -59.5 -47.5t-69.5 -30.5 q-10 -2 -19.5 -3t-19.5 -1q-27 0 -51.5 7t-49.5 17q-10 4 -22 10.5t-25 12.5q-8 4 -16 9t-16 7q-16 8 -34 13.5t-38 5.5h-7h-5q-31 -4 -57.5 -21.5t-45.5 -38.5z" />
<glyph unicode="&#xd2;" />
<glyph unicode="&#xd3;" horiz-adv-x="1779" d="M90 748q0 330 235.5 559t563.5 229v2q322 -2 561.5 -227.5t239.5 -550.5q0 -330 -235.5 -558.5t-565.5 -228.5q-317 0 -558 224.5t-241 550.5zM242 748q0 -262 195.5 -446.5t453.5 -184.5v2q268 -2 457.5 185.5t189.5 455.5q0 262 -193.5 446.5t-453.5 184.5 q-270 0 -459.5 -187.5t-189.5 -455.5zM657 1763l394 238l71 -119l-395 -233z" />
<glyph unicode="&#xd4;" horiz-adv-x="1779" d="M90 748q0 330 235.5 559t563.5 229v2q322 -2 561.5 -227.5t239.5 -550.5q0 -330 -235.5 -558.5t-565.5 -228.5q-317 0 -558 224.5t-241 550.5zM242 748q0 -262 195.5 -446.5t453.5 -184.5v2q268 -2 457.5 185.5t189.5 455.5q0 262 -193.5 446.5t-453.5 184.5 q-270 0 -459.5 -187.5t-189.5 -455.5zM528 1649l297 258h131l297 -258h-184l-178 149l-178 -149h-185z" />
<glyph unicode="&#xd5;" horiz-adv-x="1779" d="M90 748q0 330 235.5 559t563.5 229v2q322 -2 561.5 -227.5t239.5 -550.5q0 -330 -235.5 -558.5t-565.5 -228.5q-317 0 -558 224.5t-241 550.5zM242 748q0 -262 195.5 -446.5t453.5 -184.5v2q268 -2 457.5 185.5t189.5 455.5q0 262 -193.5 446.5t-453.5 184.5 q-270 0 -459.5 -187.5t-189.5 -455.5zM594 1772q37 39 81 61t99 22q41 0 73 -12t58 -28q10 -6 20.5 -11.5t20.5 -11.5q18 -8 35.5 -13t36.5 -5q14 0 27.5 4t27.5 10q12 8 25.5 17.5t27.5 19.5v2l62 -98q-25 -27 -59.5 -47.5t-69.5 -30.5q-10 -2 -19.5 -3t-19.5 -1 q-27 0 -51.5 7t-48.5 17q-10 4 -22.5 10.5t-25.5 12.5q-8 4 -16 9t-16 7q-16 8 -34 13.5t-38 5.5h-7h-5q-31 -4 -57.5 -21.5t-45.5 -38.5z" />
<glyph unicode="&#xd6;" horiz-adv-x="1779" d="M90 748q0 330 235.5 559t563.5 229v2q322 -2 561.5 -227.5t239.5 -550.5q0 -330 -235.5 -558.5t-565.5 -228.5q-317 0 -558 224.5t-241 550.5zM242 748q0 -262 195.5 -446.5t453.5 -184.5v2q268 -2 457.5 185.5t189.5 455.5q0 262 -193.5 446.5t-453.5 184.5 q-270 0 -459.5 -187.5t-189.5 -455.5zM664 1649v258h151v-258h-151zM965 1649v258h151v-258h-151z" />
<glyph unicode="&#xd7;" />
<glyph unicode="&#xd8;" horiz-adv-x="1777" d="M90 748q0 158 57.5 298t167.5 252q111 111 258.5 174.5t303.5 63.5q27 0 54 -2l54 -4q82 -10 162 -37t149 -70l193 258l110 -88l-186 -247q131 -115 203 -270.5t72 -330.5q0 -328 -242 -549t-561 -223q-109 2 -214.5 31t-199.5 86l-195 -260l-112 84l194 260 q-125 109 -196.5 256.5t-71.5 317.5zM242 735q2 -131 57 -242.5t147 -201.5v2l762 1016q-68 43 -146.5 62.5t-160.5 19.5h-5h-7q-272 2 -458.5 -191.5t-188.5 -464.5zM557 209q78 -47 159 -69.5t171 -22.5q256 0 453.5 184t195.5 444q2 139 -55.5 262t-159.5 218v2z" />
<glyph unicode="&#xd9;" horiz-adv-x="1341" d="M156 592v921h151v-919v-39.5t2 -38.5q4 -63 18.5 -124.5t49.5 -117.5q47 -76 127 -116.5t168 -40.5h7h7q76 4 147.5 38.5t116.5 98.5q51 68 66.5 147.5t17.5 159.5v15.5v15.5v921h152v-919q0 -117 -19.5 -225.5t-93.5 -204.5q-70 -94 -177.5 -142.5t-223.5 -48.5 q-113 0 -218.5 45t-177.5 134q-78 96 -99 208.5t-21 231.5zM436 1866l66 123l405 -222l-67 -118z" />
<glyph unicode="&#xda;" horiz-adv-x="1341" d="M156 592v921h151v-919v-39.5t2 -38.5q4 -63 18.5 -124.5t49.5 -117.5q47 -76 127 -116.5t168 -40.5h7h7q76 4 147.5 38.5t116.5 98.5q51 68 66.5 147.5t17.5 159.5v15.5v15.5v921h152v-919q0 -117 -19.5 -225.5t-93.5 -204.5q-70 -94 -177.5 -142.5t-223.5 -48.5 q-113 0 -218.5 45t-177.5 134q-78 96 -99 208.5t-21 231.5zM438 1763l393 238l72 -119l-395 -233z" />
<glyph unicode="&#xdb;" horiz-adv-x="1341" d="M156 592v921h151v-919v-39.5t2 -38.5q4 -63 18.5 -124.5t49.5 -117.5q47 -76 127 -116.5t168 -40.5h7h7q76 4 147.5 38.5t116.5 98.5q51 68 66.5 147.5t17.5 159.5v15.5v15.5v921h152v-919q0 -117 -19.5 -225.5t-93.5 -204.5q-70 -94 -177.5 -142.5t-223.5 -48.5 q-113 0 -218.5 45t-177.5 134q-78 96 -99 208.5t-21 231.5zM309 1649l297 258h131l297 -258h-184l-178 149l-178 -149h-185z" />
<glyph unicode="&#xdc;" horiz-adv-x="1341" d="M156 592v921h151v-919v-39.5t2 -38.5q4 -63 18.5 -124.5t49.5 -117.5q47 -76 127 -116.5t168 -40.5h7h7q76 4 147.5 38.5t116.5 98.5q51 68 66.5 147.5t17.5 159.5v15.5v15.5v921h152v-919q0 -117 -19.5 -225.5t-93.5 -204.5q-70 -94 -177.5 -142.5t-223.5 -48.5 q-113 0 -218.5 45t-177.5 134q-78 96 -99 208.5t-21 231.5zM444 1649v258h152v-258h-152zM745 1649v258h152v-258h-152z" />
<glyph unicode="&#xdd;" />
<glyph unicode="&#xde;" horiz-adv-x="1212" d="M156 0v1513h151v-305h246q106 -4 209.5 -14t195.5 -70q98 -61 148.5 -159.5t50.5 -212.5q0 -104 -43 -195.5t-129 -155.5q-88 -63 -187.5 -80.5t-205.5 -17.5v2h-285v-305h-151zM307 442h260q80 -2 158 7.5t147 52.5q61 39 96.5 103.5t37.5 135.5v6.5v6.5 q0 98 -49.5 171.5t-139.5 110.5q-47 20 -96 26.5t-100 6.5q-16 2 -34 1t-34 -1h-25.5h-25.5l-195 2v-629z" />
<glyph unicode="&#xdf;" horiz-adv-x="1134" d="M121 0v958v50.5t2 52.5q2 72 15.5 142.5t51.5 133.5q55 92 153.5 145.5t205.5 53.5q172 0 295 -127t123 -297q0 -98 -41 -184t-131 -133q133 -45 205.5 -145.5t72.5 -239.5q0 -90 -25.5 -164t-91.5 -140q-59 -61 -139 -97t-168 -36q-10 0 -22.5 1t-22.5 1 q-109 12 -204 76t-132 170l-4 2v-223h-143zM272 416h101v-3v-3v-3v-1v-3.5v-3.5q2 -106 78.5 -194t187.5 -88q123 0 203 85t80 206q0 88 -48.5 157.5t-128.5 102.5q-47 18 -97 24t-101 6h-19.5h-19.5q-8 -2 -17.5 -2h-19.5l-14 2v138h24q12 -2 23.5 -2t21.5 2q47 4 91.5 16 t82.5 39q57 39 86 98.5t29 126.5q0 111 -76.5 193t-189.5 82q-84 0 -147.5 -42t-96.5 -118q-16 -39 -22.5 -82t-8.5 -86q-2 -23 -2 -46.5v-45.5v-7v-8v-540z" />
<glyph unicode="&#xe0;" horiz-adv-x="1398" d="M86 565q0 115 44 216.5t118 176.5q80 84 187.5 134.5t250.5 50.5h5h5q129 -2 247 -61.5t177 -176.5l4 2v213h146v-1120h-146v211h-4q-61 -121 -179 -179.5t-251 -58.5q-35 0 -68.5 4.5t-68.5 12.5q-94 20 -186.5 74.5t-169.5 144.5q-8 10 -19.5 25.5t-21.5 35.5 q-27 51 -48.5 128t-21.5 167zM238 553q0 -184 136 -310t316 -126q176 0 305 130t129 304q0 186 -125 316t-313 130v2q-184 -2 -316 -131t-132 -315zM465 1473l65 122l406 -221l-68 -119z" />
<glyph unicode="&#xe1;" horiz-adv-x="1398" d="M86 565q0 115 44 216.5t118 176.5q80 84 187.5 134.5t250.5 50.5h5h5q129 -2 247 -61.5t177 -176.5l4 2v213h146v-1120h-146v211h-4q-61 -121 -179 -179.5t-251 -58.5q-35 0 -68.5 4.5t-68.5 12.5q-94 20 -186.5 74.5t-169.5 144.5q-8 10 -19.5 25.5t-21.5 35.5 q-27 51 -48.5 128t-21.5 167zM238 553q0 -184 136 -310t316 -126q176 0 305 130t129 304q0 186 -125 316t-313 130v2q-184 -2 -316 -131t-132 -315zM467 1370l393 238l72 -119l-395 -234z" />
<glyph unicode="&#xe2;" horiz-adv-x="1398" d="M86 565q0 115 44 216.5t118 176.5q80 84 187.5 134.5t250.5 50.5h5h5q129 -2 247 -61.5t177 -176.5l4 2v213h146v-1120h-146v211h-4q-61 -121 -179 -179.5t-251 -58.5q-35 0 -68.5 4.5t-68.5 12.5q-94 20 -186.5 74.5t-169.5 144.5q-8 10 -19.5 25.5t-21.5 35.5 q-27 51 -48.5 128t-21.5 167zM238 553q0 -184 136 -310t316 -126q176 0 305 130t129 304q0 186 -125 316t-313 130v2q-184 -2 -316 -131t-132 -315zM338 1255l297 258h131l297 -258h-184l-179 150l-178 -150h-184z" />
<glyph unicode="&#xe3;" horiz-adv-x="1398" d="M86 565q0 115 44 216.5t118 176.5q80 84 187.5 134.5t250.5 50.5h5h5q129 -2 247 -61.5t177 -176.5l4 2v213h146v-1120h-146v211h-4q-61 -121 -179 -179.5t-251 -58.5q-35 0 -68.5 4.5t-68.5 12.5q-94 20 -186.5 74.5t-169.5 144.5q-8 10 -19.5 25.5t-21.5 35.5 q-27 51 -48.5 128t-21.5 167zM238 553q0 -184 136 -310t316 -126q176 0 305 130t129 304q0 186 -125 316t-313 130v2q-184 -2 -316 -131t-132 -315zM403 1378q37 39 81 61.5t100 22.5q41 0 72.5 -12t58.5 -29q10 -6 20 -11t21 -11q18 -8 35.5 -13.5t35.5 -5.5q14 0 27.5 4.5 t28.5 10.5l25.5 17t27.5 20v2l61 -99q-25 -27 -59.5 -47t-69.5 -31q-10 -2 -19 -3t-20 -1q-27 0 -51 7.5t-49 17.5q-10 4 -22.5 10t-24.5 12q-8 4 -16.5 9.5t-16.5 7.5q-16 8 -33.5 13t-37.5 5h-7.5h-5.5q-31 -4 -57.5 -21.5t-44.5 -37.5z" />
<glyph unicode="&#xe4;" horiz-adv-x="1398" d="M86 565q0 115 44 216.5t118 176.5q80 84 187.5 134.5t250.5 50.5h5h5q129 -2 247 -61.5t177 -176.5l4 2v213h146v-1120h-146v211h-4q-61 -121 -179 -179.5t-251 -58.5q-35 0 -68.5 4.5t-68.5 12.5q-94 20 -186.5 74.5t-169.5 144.5q-8 10 -19.5 25.5t-21.5 35.5 q-27 51 -48.5 128t-21.5 167zM238 553q0 -184 136 -310t316 -126q176 0 305 130t129 304q0 186 -125 316t-313 130v2q-184 -2 -316 -131t-132 -315zM473 1255v258h152v-258h-152zM774 1255v258h152v-258h-152z" />
<glyph unicode="&#xe5;" horiz-adv-x="1398" d="M86 565q0 115 44 216.5t118 176.5q80 84 187.5 134.5t250.5 50.5h5h5q129 -2 247 -61.5t177 -176.5l4 2v213h146v-1120h-146v211h-4q-61 -121 -179 -179.5t-251 -58.5q-35 0 -68.5 4.5t-68.5 12.5q-94 20 -186.5 74.5t-169.5 144.5q-8 10 -19.5 25.5t-21.5 35.5 q-27 51 -48.5 128t-21.5 167zM238 553q0 -184 136 -310t316 -126q176 0 305 130t129 304q0 186 -125 316t-313 130v2q-184 -2 -316 -131t-132 -315zM512 1442q0 78 55.5 133t132.5 55v2q78 -2 133.5 -57t55.5 -133t-55.5 -133.5t-133.5 -55.5t-133 55.5t-55 133.5zM588 1444 q0 -47 32.5 -81t79.5 -34t80 33t33 80t-32.5 79.5t-80.5 32.5v2q-45 -2 -78.5 -33.5t-33.5 -78.5z" />
<glyph unicode="&#xe6;" horiz-adv-x="2369" d="M86 555q0 121 48 231.5t134 192.5q90 88 197.5 126t230.5 38q127 0 244 -55.5t188 -157.5v215h144v-213q49 74 135 125t178 71q31 8 60.5 11.5t58.5 3.5q131 0 254 -59.5t205 -161.5q74 -92 101.5 -196.5t25.5 -223.5v2h-1010q10 -160 139 -273.5t285 -113.5q10 0 20.5 1 t20.5 1q111 10 209 75.5t141 167.5l158 3q-53 -174 -210 -283t-337 -109q-125 0 -239.5 54.5t-194.5 148.5v-203h-144v205q-86 -102 -194.5 -153.5t-241.5 -51.5q-119 0 -225.5 37t-194.5 119q-86 82 -136 194.5t-50 231.5zM238 547q0 -180 132 -305t310 -125v2 q188 -2 318 123t130 315q0 193 -130 316.5t-320 123.5q-188 0 -314 -131t-126 -319zM1284 639v2h846q-16 150 -142 253t-276 103q-98 0 -175 -31.5t-144 -103.5q-45 -47 -73 -102t-36 -121z" />
<glyph unicode="&#xe7;" horiz-adv-x="1325" d="M86 559q0 250 182.5 417t423.5 167q178 0 334 -97.5t219 -267.5l-170 2q-57 98 -161.5 157.5t-219.5 59.5q-186 0 -321 -123.5t-135 -312.5q0 -186 129 -315t315 -129q131 0 225 53t168 156v2h168q-76 -166 -219 -260.5t-326 -94.5q-250 0 -431 165t-181 421zM483 -309 l90 10q4 -25 26 -41t46 -25q6 0 11.5 -1t11.5 -1q41 0 64.5 28t23.5 69q0 39 -29 67.5t-70 28.5q-27 0 -47 -12.5t-35 -32.5l-63 35l82 184h76l-49 -119q8 4 14 6l12 4q8 2 17.5 3.5t19.5 1.5q74 0 117 -45.5t43 -118.5q0 -76 -50.5 -132.5t-127.5 -56.5q-74 0 -120 38 t-63 110z" />
<glyph unicode="&#xe8;" horiz-adv-x="1331" d="M86 557q0 244 170 415t414 171q133 0 249.5 -57.5t200.5 -159.5q78 -96 103.5 -198.5t27.5 -223.5v2h-1013q6 -162 136 -275.5t285 -113.5h5.5h5.5q121 2 231.5 67.5t159.5 177.5l158 3q-57 -170 -212 -281t-333 -111q-246 0 -417 169t-171 415zM238 641v2h862 q-29 147 -151 250.5t-277 103.5q-158 0 -282 -100t-152 -256zM430 1473l66 122l405 -221l-67 -119z" />
<glyph unicode="&#xe9;" horiz-adv-x="1331" d="M86 557q0 244 170 415t414 171q133 0 249.5 -57.5t200.5 -159.5q78 -96 103.5 -198.5t27.5 -223.5v2h-1013q6 -162 136 -275.5t285 -113.5h5.5h5.5q121 2 231.5 67.5t159.5 177.5l158 3q-57 -170 -212 -281t-333 -111q-246 0 -417 169t-171 415zM238 641v2h862 q-29 147 -151 250.5t-277 103.5q-158 0 -282 -100t-152 -256zM434 1370l393 238l72 -119l-395 -234z" />
<glyph unicode="&#xea;" horiz-adv-x="1331" d="M86 557q0 244 170 415t414 171q133 0 249.5 -57.5t200.5 -159.5q78 -96 103.5 -198.5t27.5 -223.5v2h-1013q6 -162 136 -275.5t285 -113.5h5.5h5.5q121 2 231.5 67.5t159.5 177.5l158 3q-57 -170 -212 -281t-333 -111q-246 0 -417 169t-171 415zM238 641v2h862 q-29 147 -151 250.5t-277 103.5q-158 0 -282 -100t-152 -256zM303 1255l297 258h131l297 -258h-184l-178 150l-179 -150h-184z" />
<glyph unicode="&#xeb;" horiz-adv-x="1331" d="M86 557q0 244 170 415t414 171q133 0 249.5 -57.5t200.5 -159.5q78 -96 103.5 -198.5t27.5 -223.5v2h-1013q6 -162 136 -275.5t285 -113.5h5.5h5.5q121 2 231.5 67.5t159.5 177.5l158 3q-57 -170 -212 -281t-333 -111q-246 0 -417 169t-171 415zM238 641v2h862 q-29 147 -151 250.5t-277 103.5q-158 0 -282 -100t-152 -256zM440 1255v258h152v-258h-152zM741 1255v258h152v-258h-152z" />
<glyph unicode="&#xec;" horiz-adv-x="409" d="M-31 1473l66 122l405 -221l-67 -119zM129 0v1120h152v-1120h-152z" />
<glyph unicode="&#xed;" horiz-adv-x="409" d="M-27 1370l394 238l71 -119l-395 -234zM129 0v1120h152v-1120h-152z" />
<glyph unicode="&#xee;" horiz-adv-x="409" d="M-158 1255l297 258h131l297 -258h-184l-178 150l-178 -150h-185zM129 0v1120h152v-1120h-152z" />
<glyph unicode="&#xef;" horiz-adv-x="409" d="M-20 1255v258h151v-258h-151zM129 0v1120h152v-1120h-152zM281 1255v258h151v-258h-151z" />
<glyph unicode="&#xf0;" horiz-adv-x="1341" d="M86 551q0 252 173 422t415 170q29 0 59.5 -3t63.5 -12q55 -12 107 -37.5t91 -64.5l4 6q-27 45 -96 121t-227 188l-223 -75l-127 53l235 82q-49 25 -107.5 47t-123.5 45q-12 4 -25.5 8t-28.5 8l5 7l251 -3q14 -6 27.5 -9t24.5 -5q20 -6 35.5 -12t29.5 -14 q10 -6 18.5 -11.5t18.5 -11.5l293 104l115 -57l-293 -102q182 -104 318 -320.5t136 -509.5q0 -254 -168.5 -423t-412.5 -169q-238 0 -413 168t-175 410zM238 551q0 -180 128 -307t308 -127q188 0 309 133t121 315q0 176 -125 304t-305 128v2q-186 -2 -311 -134t-125 -314z " />
<glyph unicode="&#xf1;" horiz-adv-x="1249" d="M129 0v1120h143v-162h4q61 88 147.5 136.5t197.5 48.5q113 0 217 -48t180 -139q66 -82 84 -172t18 -196v-588h-151v590q0 70 -11.5 137.5t-54.5 126.5q-51 72 -127 107.5t-162 35.5h-12h-12q-74 -6 -140.5 -41.5t-109.5 -95.5q-37 -49 -47 -105.5t-10 -115.5 q-2 -8 -2 -16.5v-16.5v-10v-8v-588h-152zM330 1378q37 39 81 61.5t99 22.5q41 0 72.5 -12t58.5 -29q10 -6 20.5 -11t20.5 -11q18 -8 35.5 -13.5t36.5 -5.5q14 0 27.5 4.5t27.5 10.5l25.5 17t27.5 20v2l62 -99q-25 -27 -60 -47t-69 -31q-10 -2 -19.5 -3t-19.5 -1 q-27 0 -51.5 7.5t-49.5 17.5q-10 4 -22 10t-25 12q-8 4 -16 9.5t-17 7.5q-16 8 -33.5 13t-37.5 5h-7h-5q-31 -4 -57.5 -21.5t-45.5 -37.5z" />
<glyph unicode="&#xf2;" horiz-adv-x="1341" d="M86 551q0 244 171 418t417 174v2q233 -2 407 -174t174 -406q0 -240 -168.5 -416t-412.5 -176q-238 0 -413 168t-175 410zM238 551q0 -180 128 -307t308 -127q188 0 309 133t121 315q0 92 -32 169t-99 140q-59 57 -137 90t-162 33v2q-186 -2 -311 -134t-125 -314z M436 1473l66 122l405 -221l-67 -119z" />
<glyph unicode="&#xf3;" horiz-adv-x="1341" d="M86 551q0 244 171 418t417 174v2q233 -2 407 -174t174 -406q0 -240 -168.5 -416t-412.5 -176q-238 0 -413 168t-175 410zM238 551q0 -180 128 -307t308 -127q188 0 309 133t121 315q0 92 -32 169t-99 140q-59 57 -137 90t-162 33v2q-186 -2 -311 -134t-125 -314z M438 1370l393 238l72 -119l-395 -234z" />
<glyph unicode="&#xf4;" horiz-adv-x="1341" d="M86 551q0 244 171 418t417 174v2q233 -2 407 -174t174 -406q0 -240 -168.5 -416t-412.5 -176q-238 0 -413 168t-175 410zM238 551q0 -180 128 -307t308 -127q188 0 309 133t121 315q0 92 -32 169t-99 140q-59 57 -137 90t-162 33v2q-186 -2 -311 -134t-125 -314z M309 1255l297 258h131l297 -258h-184l-178 150l-178 -150h-185z" />
<glyph unicode="&#xf5;" horiz-adv-x="1341" d="M86 551q0 244 171 418t417 174v2q233 -2 407 -174t174 -406q0 -240 -168.5 -416t-412.5 -176q-238 0 -413 168t-175 410zM238 551q0 -180 128 -307t308 -127q188 0 309 133t121 315q0 92 -32 169t-99 140q-59 57 -137 90t-162 33v2q-186 -2 -311 -134t-125 -314z M375 1378q37 39 81 61.5t99 22.5q41 0 72.5 -12t58.5 -29q10 -6 20.5 -11t20.5 -11q18 -8 35.5 -13.5t36.5 -5.5q14 0 27.5 4.5t27.5 10.5l25.5 17t27.5 20v2l62 -99q-25 -27 -60 -47t-69 -31q-10 -2 -19.5 -3t-19.5 -1q-27 0 -51.5 7.5t-49.5 17.5q-10 4 -22 10t-25 12 q-8 4 -16 9.5t-16 7.5q-16 8 -34 13t-38 5h-7h-5q-31 -4 -57.5 -21.5t-45.5 -37.5z" />
<glyph unicode="&#xf6;" horiz-adv-x="1341" d="M86 551q0 244 171 418t417 174v2q233 -2 407 -174t174 -406q0 -240 -168.5 -416t-412.5 -176q-238 0 -413 168t-175 410zM238 551q0 -180 128 -307t308 -127q188 0 309 133t121 315q0 92 -32 169t-99 140q-59 57 -137 90t-162 33v2q-186 -2 -311 -134t-125 -314z M444 1255v258h152v-258h-152zM745 1255v258h152v-258h-152z" />
<glyph unicode="&#xf7;" />
<glyph unicode="&#xf8;" horiz-adv-x="1337" d="M86 557q0 238 172 412t410 174q53 0 99 -9.5t91 -25.5q23 -8 47.5 -19.5t48.5 -23.5l17 -4l116 156l111 -84l-121 -156q84 -88 129 -193.5t45 -226.5q0 -242 -174 -413t-413 -171q-14 0 -30 1t-30 3q-59 6 -117.5 26t-109.5 50v2l-113 -147l-106 82l112 145 q-59 49 -102 126t-64 159q-8 35 -13 69.5t-5 67.5zM238 567q0 -16 1 -32.5t3 -32.5q8 -70 36.5 -135.5t77.5 -114.5v2l527 686q-45 27 -98.5 42t-106.5 15q-178 0 -309 -123.5t-131 -306.5zM465 170q35 -23 76 -34t82 -15q12 -2 25.5 -3t27.5 -1h8h8q84 4 163 44t134 99 q57 63 84 141t27 160q0 86 -25.5 158t-83.5 135v2z" />
<glyph unicode="&#xf9;" horiz-adv-x="1245" d="M129 526v594h152v-592q0 -66 8 -129t41 -120q47 -80 123.5 -121t169.5 -41q82 0 153.5 35.5t120.5 101.5q43 59 55.5 130t12.5 142v594h151v-1120h-143v174h-4q-51 -109 -150.5 -155t-216.5 -46q-90 0 -171 29t-159 102q-16 16 -31.5 33t-31.5 35q-51 53 -65.5 148.5 t-14.5 205.5zM387 1473l66 122l405 -221l-67 -119z" />
<glyph unicode="&#xfa;" horiz-adv-x="1245" d="M129 526v594h152v-592q0 -66 8 -129t41 -120q47 -80 123.5 -121t169.5 -41q82 0 153.5 35.5t120.5 101.5q43 59 55.5 130t12.5 142v594h151v-1120h-143v174h-4q-51 -109 -150.5 -155t-216.5 -46q-90 0 -171 29t-159 102q-16 16 -31.5 33t-31.5 35q-51 53 -65.5 148.5 t-14.5 205.5zM391 1370l393 238l72 -119l-395 -234z" />
<glyph unicode="&#xfb;" horiz-adv-x="1245" d="M129 526v594h152v-592q0 -66 8 -129t41 -120q47 -80 123.5 -121t169.5 -41q82 0 153.5 35.5t120.5 101.5q43 59 55.5 130t12.5 142v594h151v-1120h-143v174h-4q-51 -109 -150.5 -155t-216.5 -46q-90 0 -171 29t-159 102q-16 16 -31.5 33t-31.5 35q-51 53 -65.5 148.5 t-14.5 205.5zM260 1255l297 258h131l297 -258h-184l-178 150l-179 -150h-184z" />
<glyph unicode="&#xfc;" horiz-adv-x="1245" d="M129 526v594h152v-592q0 -66 8 -129t41 -120q47 -80 123.5 -121t169.5 -41q82 0 153.5 35.5t120.5 101.5q43 59 55.5 130t12.5 142v594h151v-1120h-143v174h-4q-51 -109 -150.5 -155t-216.5 -46q-90 0 -171 29t-159 102q-16 16 -31.5 33t-31.5 35q-51 53 -65.5 148.5 t-14.5 205.5zM397 1255v258h152v-258h-152zM698 1255v258h152v-258h-152z" />
<glyph unicode="&#xfd;" />
<glyph unicode="&#xfe;" horiz-adv-x="1396" d="M129 -393v1906h152v-577h4q39 70 117.5 117t166.5 69q39 10 77 15.5t73 5.5q123 0 237.5 -51.5t221.5 -165.5q51 -45 92 -147.5t41 -225.5q0 -250 -181.5 -415t-424.5 -165q-16 0 -34 1t-36 3q-109 14 -207 71.5t-143 158.5l-4 2v-602h-152zM270 567q0 -92 27 -170 t92 -143q63 -66 146 -101.5t174 -35.5v2q188 -2 319 123t131 313q0 182 -129 312t-311 130q-184 0 -316.5 -121.5t-132.5 -308.5z" />
<glyph unicode="&#xff;" horiz-adv-x="1097" d="M18 1120h162l359 -893l379 893h161l-647 -1513h-160l177 428zM324 1255v258h151v-258h-151zM625 1255v258h151v-258h-151z" />
<glyph unicode="&#x152;" horiz-adv-x="2445" d="M90 754q0 336 231.5 559t563.5 223h25.5t25.5 -2q172 -10 331.5 -90t260.5 -219l4 2v286h799v-137h-648v-547h625v-137h-625v-555h648v-137h-799v293h-4q-102 -147 -267 -231.5t-343 -88.5h-7.5h-7.5q-336 0 -574.5 218.5t-238.5 562.5zM242 750q0 -264 188 -448.5 t451 -184.5q270 0 460.5 185t190.5 458q0 264 -189.5 447.5t-451.5 185.5q-272 -2 -460.5 -184.5t-188.5 -458.5z" />
<glyph unicode="&#x153;" horiz-adv-x="2328" d="M86 563q0 240 172 410t410 170q156 0 293 -85t217 -218q59 131 189 213t273 90h14.5h14.5q252 0 416 -174t164 -424v-43h-998q6 -166 137.5 -276.5t288.5 -108.5h9.5h9.5q115 4 219 69.5t149 173.5l154 2q-49 -172 -203.5 -279.5t-328.5 -109.5h-4.5h-4.5q-12 0 -25.5 1 t-27.5 1q-139 14 -265 93t-183 208q-74 -135 -212.5 -219t-293.5 -84q-244 0 -414 174.5t-170 415.5zM238 565q-2 -182 123.5 -315t312.5 -133v2q180 -2 303 127t123 305t-122 311t-304 135q-180 0 -309 -126t-127 -306zM1251 637v2h846q-18 147 -144 252.5t-274 105.5 q-158 0 -278.5 -102t-149.5 -258z" />
<glyph unicode="&#x178;" horiz-adv-x="1212" d="M4 1513h166l436 -849l436 849h166l-526 -1007v-506h-152v506zM381 1649v258h151v-258h-151zM682 1649v258h152v-258h-152z" />
<glyph unicode="&#x2c6;" horiz-adv-x="899" d="M154 1378q37 39 81 61.5t99 22.5q41 0 72.5 -12t58.5 -29q10 -6 20.5 -11t20.5 -11q18 -8 35.5 -13.5t36.5 -5.5q14 0 27 4.5t28 10.5l25.5 17t27.5 20v2l62 -99q-25 -27 -60 -47t-70 -31q-10 -2 -19 -3t-19 -1q-27 0 -51.5 7.5t-49.5 17.5q-10 4 -22.5 10t-24.5 12 q-8 4 -16 9.5t-17 7.5q-16 8 -33.5 13t-37.5 5h-7.5h-5.5q-31 -4 -57.5 -21.5t-44.5 -37.5z" />
<glyph unicode="&#x2dc;" horiz-adv-x="1028" d="M152 1255l297 258h131l297 -258h-185l-178 150l-178 -150h-184z" />
<glyph unicode="&#x2000;" horiz-adv-x="1012" />
<glyph unicode="&#x2001;" horiz-adv-x="2025" />
<glyph unicode="&#x2002;" horiz-adv-x="1012" />
<glyph unicode="&#x2003;" horiz-adv-x="2025" />
<glyph unicode="&#x2004;" horiz-adv-x="675" />
<glyph unicode="&#x2005;" horiz-adv-x="506" />
<glyph unicode="&#x2006;" horiz-adv-x="337" />
<glyph unicode="&#x2007;" horiz-adv-x="337" />
<glyph unicode="&#x2008;" horiz-adv-x="253" />
<glyph unicode="&#x2009;" horiz-adv-x="405" />
<glyph unicode="&#x200a;" horiz-adv-x="112" />
<glyph unicode="&#x2010;" horiz-adv-x="679" d="M63 547v137h555v-137h-555z" />
<glyph unicode="&#x2011;" horiz-adv-x="679" d="M63 547v137h555v-137h-555z" />
<glyph unicode="&#x2012;" horiz-adv-x="679" d="M63 547v137h555v-137h-555z" />
<glyph unicode="&#x2013;" horiz-adv-x="1024" d="M0 547v137h1024v-137h-1024z" />
<glyph unicode="&#x2014;" horiz-adv-x="2048" d="M0 547v137h2048v-137h-2048z" />
<glyph unicode="&#x2018;" horiz-adv-x="718" d="M201 1513h151l180 -395h-151z" />
<glyph unicode="&#x2019;" horiz-adv-x="718" d="M186 1118l181 395h151l-180 -395h-152z" />
<glyph unicode="&#x201a;" />
<glyph unicode="&#x201c;" horiz-adv-x="1028" d="M197 1513h151l180 -395h-151zM500 1513h151l180 -395h-151z" />
<glyph unicode="&#x201d;" horiz-adv-x="991" d="M178 1118l172 395h152l-180 -395h-144zM473 1118l180 395h152l-180 -395h-152z" />
<glyph unicode="&#x201e;" horiz-adv-x="1028" d="M182 -137l180 395h152l-180 -395h-152zM485 -137l181 395h149l-178 -395h-152z" />
<glyph unicode="&#x2022;" horiz-adv-x="1241" d="M242 612q0 158 110.5 269.5t265.5 111.5q158 0 269.5 -111.5t111.5 -269.5v2q0 -158 -111.5 -268t-269.5 -110q-156 0 -266 110.5t-110 265.5z" />
<glyph unicode="&#x2026;" horiz-adv-x="2048" d="M266 0v258h152v-258h-152zM948 0v258h152v-258h-152zM1630 0v258h152v-258h-152z" />
<glyph unicode="&#x202f;" horiz-adv-x="405" />
<glyph unicode="&#x2039;" horiz-adv-x="514" d="M82 616l231 408l119 -63l-192 -345l192 -344l-119 -65z" />
<glyph unicode="&#x203a;" horiz-adv-x="514" d="M82 272l192 344l-192 345l119 63l231 -408l-231 -409z" />
<glyph unicode="&#x205f;" horiz-adv-x="506" />
<glyph unicode="&#x2122;" horiz-adv-x="2048" d="M129 1391v122h698v-122h-272v-740h-152v740h-274zM979 651v862h221l248 -608l256 608h217v-862h-135v740l-299 -740h-80l-291 740v-740h-137z" />
<glyph unicode="&#x25fc;" horiz-adv-x="1116" d="M0 0v1116h1116v-1116h-1116z" />
</font>
</defs>
</svg>
