<?xml version="1.0" standalone="no"?>
<!DOCTYPE svg PUBLIC "-//W3C//DTD SVG 1.1//EN" "http://www.w3.org/Graphics/SVG/1.1/DTD/svg11.dtd" >
<svg xmlns="http://www.w3.org/2000/svg" xmlns:xlink="http://www.w3.org/1999/xlink" version="1.1">
<metadata></metadata>
<defs>
<font id="built_titlingregular" horiz-adv-x="684" >
<font-face units-per-em="2048" ascent="1561" descent="-487" />
<missing-glyph horiz-adv-x="303" />
<glyph unicode="&#x28;C&#x29;" horiz-adv-x="937" d="M49 776q0 184 3 299t12.5 186.5t23.5 112.5t37 76t49.5 58.5t65.5 39t94 22.5t135 7t135 -7t94 -22.5t66 -39t49 -58.5q23 -35 37 -76t23.5 -112.5t12.5 -186t3 -299.5q0 -184 -3 -299t-12.5 -187.5t-23.5 -113.5t-37 -76t-49.5 -58.5t-65.5 -38.5t-94 -22.5t-135 -7.5 t-135 7.5t-94 22.5t-66 39t-49 58q-23 35 -37 76t-23.5 113.5t-12.5 187.5t-3 299zM158 776q0 -172 2 -279.5t8 -173t17.5 -100.5t27.5 -61q12 -18 29.5 -33.5t46 -26t71.5 -15.5t109 -5q63 0 107.5 5t73 15.5t46 26t29.5 33.5q16 27 27.5 61.5t17.5 100t8 173t2 279.5 t-2 278.5t-8 172t-17.5 100.5t-27.5 62q-12 18 -29.5 33.5t-46 25.5t-73 15t-107.5 5q-66 0 -109 -5t-71.5 -15t-46 -25.5t-29.5 -33.5q-16 -27 -27.5 -62t-17.5 -100.5t-8 -172t-2 -278.5zM307 784q0 106 1 172t4 105t8.5 57.5t11.5 34.5q8 20 18 33.5t24.5 22t37 11.5 t57.5 3q70 0 94.5 -15.5t38.5 -54.5q6 -16 9 -31.5t6.5 -36t4.5 -48t1 -66.5v-41.5t-2 -38.5h-99q2 20 2 35.5v40.5q0 39 -1 62.5t-3 36.5t-5 21.5t-7 14.5q-12 18 -39 18q-20 0 -28.5 -4t-14.5 -14t-8 -21.5t-4 -42t-2 -90v-164.5v-163.5t2 -90t4 -43t8 -20.5 q6 -10 14.5 -14t28.5 -4q27 0 39 18q4 6 7 14t5 21.5t3 37t1 62.5v40t-2 36h99q2 -20 2 -38.5v-41.5q0 -39 -1 -66.5t-4.5 -48t-6.5 -36t-9 -31.5q-6 -20 -15 -33.5t-23.5 -22t-37 -11.5t-57.5 -3t-57.5 3t-37 11.5t-24.5 21.5t-18 34q-6 14 -11.5 33.5t-8.5 58.5t-4 103.5 t-1 172.5z" />
<glyph unicode="&#x28;R&#x29;" horiz-adv-x="937" d="M49 776q0 184 3 299t12.5 186.5t23.5 112.5t37 76t49.5 58.5t65.5 39t94 22.5t135 7t135 -7t94 -22.5t66 -39t49 -58.5q23 -35 37 -76t23.5 -112.5t12.5 -186t3 -299.5q0 -184 -3 -299t-12.5 -187.5t-23.5 -113.5t-37 -76t-49.5 -58.5t-65.5 -38.5t-94 -22.5t-135 -7.5 t-135 7.5t-94 22.5t-66 39t-49 58q-23 35 -37 76t-23.5 113.5t-12.5 187.5t-3 299zM158 776q0 -172 2 -279.5t8 -173t17.5 -100.5t27.5 -61q12 -18 29.5 -33.5t46 -26t71.5 -15.5t109 -5q63 0 107.5 5t73 15.5t46 26t29.5 33.5q16 27 27.5 61.5t17.5 100t8 173t2 279.5 t-2 278.5t-8 172t-17.5 100.5t-27.5 62q-12 18 -29.5 33.5t-46 25.5t-73 15t-107.5 5q-66 0 -109 -5t-71.5 -15t-46 -25.5t-29.5 -33.5q-16 -27 -27.5 -62t-17.5 -100.5t-8 -172t-2 -278.5zM315 352v856h181q80 0 106.5 -49t26.5 -182q0 -59 -3 -97t-9.5 -60.5t-16.5 -35 t-25 -20.5v-14q8 -8 14.5 -18.5t10.5 -31t8 -57.5t8 -98q4 -57 7.5 -91t6.5 -53.5t5 -26.5t6 -14v-8h-102q-4 8 -7.5 18.5t-7.5 33t-7 61.5t-7 104q-4 51 -7 80t-8.5 43.5t-12.5 17.5t-19 3h-43v-361h-105zM420 807h53q16 0 26.5 4t16.5 19.5t8 47t2 85.5q0 49 -2 77.5 t-8 43t-15 18.5t-22 4h-59v-299z" />
<glyph horiz-adv-x="0" />
<glyph unicode="&#xd;" horiz-adv-x="303" />
<glyph horiz-adv-x="303" />
<glyph unicode=" "  horiz-adv-x="303" />
<glyph unicode="&#x09;" horiz-adv-x="303" />
<glyph unicode="&#xa0;" horiz-adv-x="303" />
<glyph unicode="!" horiz-adv-x="339" d="M68 1614h204l-32 -1149h-140zM80 0v309h180v-309h-180z" />
<glyph unicode="&#x22;" horiz-adv-x="579" d="M59 1053zM59 1614h177l-29 -561h-119zM342 1614h177l-29 -561h-119z" />
<glyph unicode="#" d="M39 467v117h119v385h-119v118h119v463h116v-463h134v463h118v-463h119v-118h-119v-385h119v-117h-119v-467h-118v467h-134v-467h-116v467h-119zM274 584h134v385h-134v-385z" />
<glyph unicode="$" d="M72 1139q0 100 16 150t51 83q27 23 53.5 33t79.5 14v221h127v-221q59 -4 93 -15t61 -40q29 -31 38 -77t9 -126q0 -51 -3 -82.5t-7 -54.5h-156q4 16 4 38.5v57.5q0 59 -5 88t-23 45q-10 14 -24.5 18.5t-49.5 4.5q-33 0 -45 -4t-27 -21q-12 -18 -17 -46.5t-5 -88.5v-60.5 t2 -37.5t3 -23.5t5 -17.5q6 -18 16.5 -28.5t42.5 -28.5q39 -23 90.5 -44.5t98.5 -46.5q37 -23 54 -36t34 -37q8 -14 13 -30.5t8 -43.5t5 -67t2 -99q0 -63 -3 -108.5t-12 -79t-23.5 -59t-34.5 -46.5q-27 -27 -58.5 -40t-85.5 -17v-254h-127v254q-53 4 -86.5 19.5t-58.5 50.5 q-29 35 -40 80.5t-11 148.5q0 41 3 72.5t7 54.5h162q-6 -35 -6 -94q0 -68 4 -95.5t16 -50.5q12 -16 27.5 -22t48.5 -6q39 0 55.5 7t30.5 25q12 23 16 58t4 106q0 55 -1 79t-9 46q-6 18 -20.5 29.5t-42.5 27.5q-27 12 -57.5 27.5t-61.5 31t-58.5 31t-48.5 31.5 q-20 14 -33.5 37t-22.5 58.5t-13 89t-4 131.5z" />
<glyph unicode="%" horiz-adv-x="929" d="M33 0zM33 1143q0 102 1 169.5t4 110.5t9.5 67.5t14.5 43.5q14 33 38.5 43t102.5 10q39 0 63.5 -3t39 -9t22.5 -16.5t16 -24.5q8 -18 13.5 -43t8.5 -68t4 -110.5t1 -169.5t-1 -170t-4 -112t-8.5 -70t-13.5 -42q-8 -14 -16 -24t-22.5 -16.5t-39 -8.5t-63.5 -2 q-41 0 -64.5 2t-39 8.5t-23.5 16.5t-14 24q-8 16 -14.5 42t-9.5 70t-4 111.5t-1 170.5zM86 0v8l639 1542h119v-10l-641 -1540h-117zM156 996.5q0 -54.5 2 -85.5t3 -44t5 -21q4 -12 11.5 -15.5t25.5 -3.5q16 0 24.5 3.5t12.5 15.5q2 8 5 21t4 44t2 85t1 147q0 94 -1 150 t-2 86t-4 42t-5 23q-10 20 -37 20q-20 0 -26.5 -3t-10.5 -17q-4 -10 -5 -21.5t-3 -41.5t-2 -85v-153v-146.5zM557 410q0 102 1 169.5t4 110.5t9.5 67.5t14.5 43.5q14 33 38.5 43t102.5 10q39 0 63.5 -3t39 -9t22.5 -16.5t16 -24.5q8 -18 13.5 -43t8.5 -68t4 -110.5t1 -169.5 t-1 -170t-4 -112t-8.5 -70t-13.5 -42q-8 -14 -16 -24t-22.5 -16.5t-39 -8.5t-63.5 -2q-41 0 -64.5 2t-39 8.5t-23.5 16.5t-14 24q-8 16 -14.5 42t-9.5 70t-4 111.5t-1 170.5zM680 263.5q0 -54.5 2 -85.5t3 -44t5 -21q4 -12 11.5 -15.5t25.5 -3.5q16 0 24.5 3.5t12.5 15.5 q2 8 5 21t4 44t2 85t1 147q0 94 -1 150t-2 86t-4 42t-5 23q-10 20 -37 20q-20 0 -26.5 -3t-10.5 -17q-4 -10 -5 -21.5t-3 -41.5t-2 -85v-153v-146.5z" />
<glyph unicode="&#x26;" horiz-adv-x="811" d="M49 430q0 106 4 172t19.5 109t47.5 73.5t87 67.5l37 25l-33 77q-20 47 -32.5 81t-18.5 67t-8 70.5t-2 93.5q0 100 10 160.5t37.5 94t77 45t126.5 11.5q68 0 112 -11.5t69.5 -47t35 -104t9.5 -181.5q0 -90 -4.5 -147.5t-19.5 -97.5t-43 -68.5t-73 -63.5l-55 -37 q33 -72 51.5 -117t29.5 -72.5t15 -43t9 -27.5h8q2 12 6 27.5t11 40t19.5 62.5t32.5 97h168v-10l-145 -422l154 -346v-8h-160q-16 37 -26.5 60.5t-17.5 40t-11.5 26.5t-6.5 20h-8q-6 -31 -12 -46t-12 -27q-29 -53 -80 -77t-142 -24q-86 0 -138 14.5t-80.5 61.5t-38 137 t-9.5 244zM229 459q0 -104 4.5 -162.5t15.5 -88.5t31.5 -36t53.5 -6q41 0 60.5 18.5t41.5 83.5l33 97l-162 368l-26 -18q-16 -10 -26.5 -21.5t-16 -37t-7.5 -71.5t-2 -126zM303 1229q0 -41 1 -66.5t6 -47t13.5 -44t22.5 -55.5l25 -55l39 26q25 16 38 28.5t20 35t9 61.5 t2 107q0 70 -3 108.5t-12 58t-25.5 23.5t-45.5 4q-31 0 -48 -5t-26.5 -23.5t-12.5 -55.5t-3 -100z" />
<glyph unicode="'" horiz-adv-x="296" d="M59 1614h177l-29 -561h-119z" />
<glyph unicode="(" d="M221 741q0 283 20.5 486t56.5 346t82 237.5t97 159.5h139v-10q-53 -68 -99 -161t-81 -233.5t-55.5 -341t-20.5 -485.5q0 -283 20.5 -479.5t55.5 -334.5t81 -232t99 -170v-10h-139q-51 66 -97 160t-82 237t-56.5 346t-20.5 485z" />
<glyph unicode=")" d="M66 -477q51 76 98 170t82 232t55.5 335t20.5 479q0 283 -20.5 480.5t-56.5 336t-82 232.5t-97 172v10h139q51 -66 97 -160t82 -237t56.5 -346t20.5 -486t-20.5 -485.5t-56.5 -345.5t-82 -237.5t-97 -159.5h-139v10z" />
<glyph unicode="*" horiz-adv-x="997" d="M88 1075l342 66l4 14l-295 180l60 86l266 -227l16 8l-24 348h102l-29 -348l15 -8l254 240l65 -80l-289 -199l5 -14l344 -47l-21 -101l-336 101l-8 -13l180 -297l-92 -49l-133 322h-14l-117 -326l-96 41l166 309l-11 13l-325 -119z" />
<glyph unicode="+" d="M39 707v139h231v233h142v-233h233v-139h-233v-234h-142v234h-231z" />
<glyph unicode="," horiz-adv-x="319" d="M68 20v238h184v-250l-92 -299h-86v10l59 289l-4 12h-61z" />
<glyph unicode="-" horiz-adv-x="557" d="M45 707v147h465v-147h-465z" />
<glyph unicode="." horiz-adv-x="315" d="M68 0v258h180v-258h-180z" />
<glyph unicode="/" d="M16 -313l514 2050h138l-514 -2050h-138z" />
<glyph unicode="0" d="M49 776q0 188 2 312t8.5 204t15.5 125t25 76q12 25 26.5 41t39 25.5t66.5 13.5t110 4t110 -4t66.5 -13.5t38.5 -25.5t27 -41q14 -31 24 -76t16.5 -125t8.5 -203.5t2 -312.5q0 -188 -2 -312t-8.5 -204t-16.5 -126t-24 -77q-12 -25 -26.5 -41t-39 -25t-66.5 -13.5 t-110 -4.5t-110 4.5t-66.5 13.5t-38.5 25.5t-27 40.5q-16 31 -25 77t-15.5 126t-8.5 204t-2 312zM229 776q0 -172 1 -274.5t4.5 -159.5t7.5 -81.5t10 -43.5q12 -35 29.5 -43t60.5 -8t60.5 8t29.5 43q6 18 10 43t7.5 82t4.5 159.5t1 274.5q0 184 -1 288.5t-4.5 161t-7.5 78 t-10 39.5q-12 35 -29.5 44.5t-60.5 9.5t-60.5 -9.5t-29.5 -44.5q-6 -18 -10 -39.5t-7.5 -78t-4.5 -160.5t-1 -289z" />
<glyph unicode="1" d="M72 1141v164h98q29 0 49.5 4t32.5 16t18 33.5t9 56.5l6 135h155v-1357h172v-193h-538v193h180v948h-182z" />
<glyph unicode="2" d="M55 1029.5v90.5q0 76 2 133.5t6.5 100.5t13.5 73.5t25 53.5q18 27 36 45t44.5 29.5t64.5 16.5t93 5q117 0 170 -23.5t82 -87.5q14 -29 22.5 -58.5t12.5 -72.5t6 -105.5t2 -156.5q0 -76 -1 -126t-4 -85t-9.5 -61.5t-16.5 -52.5q-10 -31 -22.5 -58.5t-29.5 -59.5t-41 -71 t-56 -90l-179 -270q4 -8 5 -13h344v-186h-564v205l230 336q59 88 89 144t46 108q16 53 21.5 116.5t5.5 161.5q0 86 -1 138.5t-4.5 82t-8.5 44t-13 26.5q-12 20 -29.5 27.5t-56.5 7.5q-41 0 -57.5 -7.5t-28.5 -27.5q-6 -12 -11 -25.5t-8.5 -39t-4.5 -67.5t-1 -110v-101.5 t2 -53.5h-172q-4 33 -4 64.5z" />
<glyph unicode="3" d="M47 440q0 41 1 61.5t3 35.5h170q-2 -16 -2 -36v-61q0 -59 1 -98t3 -63.5t6 -40t11 -27.5q12 -29 31.5 -37t66.5 -8q53 0 72.5 8t33.5 39q6 12 9.5 25.5t5.5 37t3 62.5t1 104q0 70 -1 112t-3 65.5t-6 36t-13 22.5q-12 16 -32.5 21.5t-69.5 5.5h-125v182h125q53 0 69.5 6 t26.5 31q6 12 9 26.5t4.5 36t2.5 54t1 85.5q0 63 -1 104.5t-3.5 66t-5.5 39t-9 26.5q-12 27 -31.5 33t-62.5 6q-45 0 -61.5 -5t-32.5 -34q-8 -12 -12.5 -25.5t-6.5 -35t-2 -54.5v-82v-66.5t2 -43.5h-172q-2 16 -2 37.5v72.5q0 66 1 114t6 85t13.5 64.5t22.5 52.5 q27 51 79 73.5t165 22.5q55 0 95 -4t67.5 -14.5t46 -29t35.5 -48.5q12 -25 20 -53.5t13.5 -65.5t6.5 -88t1 -123q0 -92 -4.5 -151.5t-13.5 -96.5t-26.5 -58.5t-43.5 -37.5v-12q27 -16 46 -33t31.5 -54.5t18.5 -105t6 -184.5q0 -88 -1 -144.5t-6 -94.5t-14.5 -62.5 t-23.5 -50.5q-16 -27 -34.5 -44.5t-47.5 -28.5t-70 -15.5t-102 -4.5q-57 0 -96 6.5t-67 18.5t-46 30.5t-33 45.5q-16 29 -26.5 59.5t-15.5 71.5t-6 97t-1 138z" />
<glyph unicode="4" d="M35 313v179l342 1058h188v-1073h82v-164h-82v-313h-180v313h-350zM207 489l6 -12h178v387q0 66 1 110t5 81h-16q-4 -18 -10 -43t-24.5 -82.5t-51.5 -160.5t-88 -280z" />
<glyph unicode="5" d="M51 455q0 53 1 80.5t5 58.5h170q-2 -20 -3 -45t-1 -60q0 -70 1 -113.5t4 -73.5t8.5 -50.5t15.5 -40.5q10 -25 29.5 -35t64.5 -10q43 0 58.5 11t25.5 34q8 20 13.5 42.5t7.5 64.5t2 113v190q0 76 -1 121.5t-4.5 73.5t-8.5 41t-13 24q-12 16 -27.5 22t-48.5 6q-31 0 -46 -4 t-30 -14q-31 -23 -47 -57l-149 45l35 671h503v-186h-342l-20 -340l10 -4q20 23 54 36t94 13q59 0 89.5 -12.5t59.5 -46.5q20 -25 34.5 -52.5t23 -70.5t11.5 -105.5t3 -154.5q0 -113 -3 -196t-9.5 -145.5t-16.5 -107.5t-24 -78q-29 -72 -85.5 -99.5t-164.5 -27.5 q-80 0 -133.5 22.5t-85 78t-46 148.5t-14.5 233z" />
<glyph unicode="6" d="M49 776q0 283 6 443.5t36 239.5t88.5 98.5t162.5 19.5q78 0 131 -8t86 -46t47.5 -116t14.5 -217q0 -16 -1.5 -32.5t-1.5 -33.5h-167q2 14 2 28.5v35.5q0 70 -2 100.5t-9 52.5q-8 33 -27.5 44.5t-72.5 11.5q-43 0 -60.5 -10.5t-27.5 -38.5q-6 -18 -11 -41t-8.5 -67 t-4.5 -118.5t-1 -197.5l9 -6q18 16 57 29.5t88 13.5q68 0 104.5 -11.5t69.5 -48.5q20 -23 34.5 -51.5t24 -72.5t13.5 -106.5t4 -152.5q0 -182 -11.5 -286.5t-46.5 -163.5q-16 -29 -35.5 -46.5t-47 -28.5t-63.5 -15.5t-87 -4.5q-53 0 -90 3.5t-63.5 14.5t-45 29.5t-34.5 49.5 q-20 39 -31.5 82t-18 117.5t-8.5 194.5t-2 312zM229 575q0 -102 1 -164.5t3.5 -99.5t7.5 -56t11 -38q10 -29 32.5 -40t63.5 -11q39 0 56.5 10t27.5 41q6 18 10 37.5t7.5 53.5t4.5 90.5t1 146.5q0 61 -1 99t-4.5 61.5t-8.5 38t-11 28.5q-10 23 -28.5 30t-57.5 7 q-33 0 -63.5 -11.5t-51.5 -39.5v-183z" />
<glyph unicode="7" d="M51 1364v186h580v-133l-305 -1417h-195l303 1350l-6 14h-377z" />
<glyph unicode="8" d="M43 418q0 117 4 185.5t14.5 107.5t31 55t50.5 29v12q-31 20 -49 42.5t-26.5 60.5t-10.5 95.5t-2 145.5q0 84 2 142.5t8.5 99.5t16.5 68.5t27 49.5q16 20 33.5 34t43 21t62.5 9t94 2t94 -2t62.5 -9t42 -20.5t32.5 -34.5q16 -23 26.5 -50t17 -68t8.5 -99.5t2 -142.5 q0 -88 -2 -145.5t-10.5 -95.5t-27 -60.5t-48.5 -42.5v-12q31 -12 51 -28.5t30.5 -55.5t14.5 -107.5t4 -185.5q0 -90 -1 -146.5t-4 -94.5t-12.5 -61.5t-23.5 -47.5q-16 -25 -34.5 -43.5t-47.5 -29.5t-71 -16.5t-103 -5.5t-103 5.5t-71 16.5t-48.5 29.5t-35.5 43.5t-24.5 48 t-11.5 61t-4 94.5t-1 146.5zM217 438q0 -63 1 -102t3 -63.5t6 -39t13 -28.5q14 -25 34.5 -33t67.5 -8t66.5 8t33.5 33q8 14 12.5 28.5t6.5 39t3 63.5t1 102q0 68 -1 110t-2 67.5t-4 40t-7 24.5q-10 25 -32 32t-77 7t-77.5 -7t-33.5 -32q-4 -10 -7 -24.5t-5 -40t-2 -67.5 v-110zM229 1133q0 -72 1 -113t3.5 -64.5t6.5 -35t10 -23.5q8 -16 26.5 -19.5t65.5 -3.5t64.5 3.5t25.5 19.5q6 12 10 23.5t6.5 35t3.5 64.5t1 113q0 70 -1 110.5t-3.5 64t-7.5 36t-11 26.5q-8 16 -23.5 24.5t-64.5 8.5t-65.5 -8.5t-24.5 -24.5q-6 -14 -11 -26.5t-7.5 -36 t-3.5 -64.5t-1 -110z" />
<glyph unicode="9" d="M49 1083q0 100 1 167t6 113t13.5 74.5t20.5 53.5q14 29 33.5 45t48.5 25.5t70 12.5t98 3q61 0 103 -3t71 -12.5t47.5 -25.5t34.5 -45q12 -25 20.5 -53.5t12.5 -75.5t5 -116.5t1 -174.5q0 -150 -16.5 -287t-47 -268t-76.5 -259t-106 -257h-205v10q78 150 136.5 316 t91.5 305l-15 8q-14 -16 -50 -30.5t-89 -14.5q-70 0 -106.5 16.5t-59.5 63.5q-14 31 -22.5 60.5t-13.5 72.5t-6 108.5t-1 167.5zM229 1094q0 -86 1 -137.5t3.5 -81t6.5 -45t10 -29.5q12 -25 27.5 -33t52.5 -8q39 0 64.5 15.5t39.5 31.5q6 23 9 45t5.5 53t3.5 74t1 104 q0 78 -2 127.5t-5.5 79t-8.5 46t-11 28.5q-14 23 -30.5 29t-57.5 6q-47 0 -62.5 -6.5t-27.5 -28.5q-6 -10 -10.5 -26.5t-5.5 -45t-2 -77t-1 -121.5z" />
<glyph unicode=":" horiz-adv-x="354" d="M86 0v258h182v-258h-182zM86 838v258h182v-258h-182z" />
<glyph unicode=";" horiz-adv-x="358" d="M86 20v238h184v-250l-92 -299h-86v10l60 289l-5 12h-61zM86 838v258h182v-258h-182z" />
<glyph unicode="&#x3c;" d="M39 709v137l596 377h10v-166l-465 -273v-16l465 -270v-166h-10z" />
<glyph unicode="=" d="M39 471v139h606v-139h-606zM39 942v139h606v-139h-606z" />
<glyph unicode="&#x3e;" d="M39 332v166l465 270v16l-465 273v166h10l596 -377v-137l-596 -377h-10z" />
<glyph unicode="?" horiz-adv-x="630" d="M53 1206q0 78 3 130.5t10.5 87t20.5 58t34 44.5q14 16 29.5 26.5t36 15.5t52 7t80.5 2q45 0 75 -2t50.5 -7t35 -14.5t30.5 -23.5q23 -23 37 -49.5t22.5 -65.5t11.5 -94t3 -135q0 -82 -2 -132t-8.5 -84t-18.5 -58.5t-33 -53.5q-23 -29 -57.5 -67.5t-50.5 -65.5 q-18 -29 -24.5 -49.5t-6.5 -54.5q0 -63 1 -101.5t3 -54.5h-156q-4 18 -6 60t-2 128q0 55 7.5 89t27.5 63q23 35 53.5 69.5t59.5 71.5q16 20 25.5 35.5t14.5 37t6 54.5t1 88q0 61 -1 98t-2 59.5t-4 33t-8 18.5q-10 18 -25.5 23.5t-58.5 5.5q-45 0 -59 -6.5t-27 -22.5 q-12 -18 -16 -49t-4 -115v-87.5t4 -49.5h-156q-4 23 -6 49.5t-2 87.5zM215 0v309h182v-309h-182z" />
<glyph unicode="@" horiz-adv-x="1001" d="M61 514q0 217 4.5 350t13.5 212t23.5 119t32.5 71q47 76 136 102.5t237 26.5q68 0 119 -5.5t89 -14.5t65.5 -25.5t49.5 -36.5q29 -29 48.5 -65t32 -107.5t18.5 -193.5t6 -318q0 -158 -1 -248t-4 -139t-8 -70.5t-16 -40.5q-20 -37 -49 -49t-98 -12q-39 0 -64.5 6t-41 14 t-23.5 18.5t-15 18.5h-16q-18 -23 -46 -40t-81 -17q-37 0 -62.5 8t-43.5 35q-12 18 -19.5 35.5t-11.5 57.5t-5 111.5t-1 196.5q0 123 1 195.5t5 114.5t11 60.5t20 35.5q23 29 44 37t62 8q31 0 53.5 -18.5t34.5 -45.5h10l9 43h114v-700q0 -23 2 -34t11 -22q6 -8 15 -11t28 -3 q33 0 41 14q4 8 7 19.5t4 54.5t1 130v245q0 170 -3 269.5t-9.5 153.5t-17.5 76.5t-25 41.5q-16 18 -34 29.5t-43.5 19.5t-65.5 11t-97 3q-55 0 -93 -3t-62.5 -11t-40 -19.5t-29.5 -29.5q-16 -23 -26.5 -51.5t-15.5 -96t-7.5 -188.5t-2.5 -328q0 -195 1 -311.5t5.5 -186 t11.5 -103.5t19 -63t29.5 -49t47.5 -33.5t74 -19.5t111 -6q51 0 86 1t60.5 6t44 14.5t37.5 25.5q37 35 37 135v26.5t-2 22.5h159q2 -12 3 -24t1 -37q0 -80 -8 -128t-45 -95q-23 -29 -53.5 -51.5t-75.5 -38t-109.5 -23.5t-152.5 -8q-90 0 -154.5 7t-109.5 25.5t-75 49.5 t-52 78q-10 20 -18.5 43.5t-15.5 58.5t-11 88t-7 133t-5.5 193.5t-2.5 269.5zM461 514q0 -147 4 -211.5t10 -89.5q4 -18 14.5 -23.5t26.5 -5.5q35 0 53 33v563q-10 29 -21 39t-38 10q-12 0 -21.5 -4t-15.5 -20q-4 -8 -6 -19.5t-3 -41t-2 -84t-1 -146.5z" />
<glyph unicode="A" horiz-adv-x="669" d="M33 0l153 1550h308l143 -1550h-186l-35 422h-166l-35 -422h-182zM258 600h150l-50 582q-4 47 -8 92t-8 92h-14q-4 -47 -8.5 -92t-8.5 -92z" />
<glyph unicode="B" horiz-adv-x="694" d="M68 0v1550h321q70 0 119 -18.5t77.5 -64.5t42 -128t13.5 -206q0 -92 -5 -150.5t-15.5 -92.5t-26.5 -52.5t-39 -30.5v-12q31 -18 51.5 -37t30.5 -55.5t14 -103.5t4 -181q0 -125 -13 -206t-43 -128t-77 -65.5t-112 -18.5h-342zM248 176h129q27 0 45 9.5t29.5 38t15.5 79.5 t4 135q0 96 -5 151.5t-17.5 84t-32 37t-49.5 8.5h-119v-543zM248 866h110q31 0 51.5 9.5t31 36t14.5 74.5t4 126q0 57 -1 92t-3 57.5t-5.5 37t-7.5 26.5q-10 29 -30.5 40t-49.5 11h-114v-510z" />
<glyph unicode="C" d="M49 788q0 207 5 329t13.5 189.5t18.5 96.5t18 49q29 68 79 96.5t159 28.5q76 0 121 -13.5t78 -45.5q41 -41 63.5 -143.5t22.5 -254.5q0 -41 -1 -71.5t-3 -65.5h-172q2 33 2 57.5v75.5q0 94 -7.5 151.5t-21.5 86.5q-12 27 -30.5 35t-51.5 8q-41 0 -59.5 -14.5t-28.5 -51.5 q-6 -25 -11 -54.5t-8.5 -86.5t-4.5 -152.5t-1 -246.5q0 -154 1 -252.5t4.5 -157.5t8.5 -92t11 -58q10 -35 29.5 -50t66.5 -15q37 0 56.5 21.5t29.5 62.5t15.5 95t5.5 126v63.5t-2 59.5h170q4 -35 4 -70v-69q0 -121 -13.5 -211t-45 -150.5t-85 -90.5t-135.5 -30 q-109 0 -164 28t-84 99q-14 33 -24 78t-16.5 121t-9.5 192.5t-3 296.5z" />
<glyph unicode="D" horiz-adv-x="710" d="M68 0v1550h301q104 0 157.5 -26.5t83.5 -96.5q14 -35 24.5 -74.5t16.5 -109t8.5 -180.5t2.5 -287q0 -182 -3.5 -294.5t-9.5 -181.5t-15 -107.5t-24 -71.5q-29 -70 -82 -95.5t-159 -25.5h-301zM248 190h117q41 0 60 13.5t30 48.5q6 23 11 51.5t7 83.5t3 147.5t1 243.5 q0 147 -1 238.5t-3 148t-6 86t-12 52.5q-12 35 -32 49t-58 14h-117v-1176z" />
<glyph unicode="E" horiz-adv-x="602" d="M68 0v1550h479v-184h-299v-487h295v-177h-295v-509h297v-193h-477z" />
<glyph unicode="F" horiz-adv-x="573" d="M68 0v1550h473v-184h-293v-506h287v-178h-287v-682h-180z" />
<glyph unicode="G" horiz-adv-x="677" d="M49 788q0 180 3 293t9.5 183.5t16.5 109.5t22 70q31 78 85.5 105.5t156.5 27.5q115 0 168 -35t76 -98q27 -70 33 -143.5t6 -143.5v-47t-2 -33h-172q2 14 2 31.5v48.5q0 39 -3.5 79t-13.5 87q-8 35 -27.5 54.5t-66.5 19.5q-41 0 -61.5 -16.5t-30.5 -59.5q-6 -20 -10 -48 t-7.5 -85.5t-5.5 -151.5t-2 -245q0 -160 2 -258.5t6.5 -157t9.5 -88t11 -54.5q10 -39 27.5 -54t64.5 -15q41 0 61.5 15.5t30.5 51.5q6 23 11.5 50.5t8.5 65.5t5 91.5t2 126.5v74t-2 45h-156v176h322q2 -39 3 -100.5t1 -153.5q0 -127 -3 -211t-10.5 -139t-16.5 -90t-21 -66 q-29 -72 -82.5 -99.5t-157.5 -27.5t-157.5 28t-82.5 99q-14 35 -24 77t-16.5 116t-9.5 190.5t-3 304.5z" />
<glyph unicode="H" horiz-adv-x="731" d="M63 0v1550h187v-671h231v671h185v-1550h-185v702h-231v-702h-187z" />
<glyph unicode="I" horiz-adv-x="325" d="M70 0v1550h186v-1550h-186z" />
<glyph unicode="J" horiz-adv-x="667" d="M33 455q0 53 1 81.5t5 57.5h164q-2 -16 -2 -43v-96q0 -66 6 -130.5t18 -101.5q10 -29 25.5 -43t58.5 -14q47 0 63.5 15.5t26.5 49.5q6 25 11.5 60t8.5 96.5t5 158.5t2 249v755h186v-751q0 -176 -3 -293t-9 -192.5t-16.5 -122t-24.5 -82.5q-14 -35 -31.5 -60.5t-45 -42 t-67.5 -25t-102 -8.5q-119 0 -174 42t-82 141q-6 27 -11 53.5t-8 60t-4 78.5t-1 107z" />
<glyph unicode="K" horiz-adv-x="729" d="M68 0v1550h184v-540v-82t-2 -49h14q2 10 9.5 29.5t30 85t68.5 195.5t130 361h188v-10l-258 -700l270 -832v-8h-198q-55 174 -94 296t-66 205t-42 132t-22.5 76.5t-10.5 39t-5 19.5h-14q2 -25 2 -51.5v-83.5v-633h-184z" />
<glyph unicode="L" horiz-adv-x="548" d="M68 0v1550h180v-1357h276v-193h-456z" />
<glyph unicode="M" horiz-adv-x="987" d="M63 0v1550h291q41 -266 65.5 -427.5t39 -256t19.5 -139.5t9 -80h11q2 35 8 80t20.5 139.5t40 256t66.5 427.5h289v-1550h-162v1008v109t2 95h-10q-2 -14 -5.5 -33.5t-10.5 -64.5t-21.5 -123t-38 -208t-57 -321.5t-82.5 -461.5h-86q-49 270 -84 461.5t-58.5 321.5t-38 209 t-21.5 123t-10 63.5t-6 33.5h-10q2 -41 2 -95v-109v-1008h-162z" />
<glyph unicode="N" horiz-adv-x="716" d="M66 0v1550h208q45 -172 78 -293.5t54.5 -204.5t35 -133.5t20.5 -80t10 -45t5 -27.5h10q-2 39 -2 80v110v594h168v-1550h-94q-68 225 -117 387t-82.5 274.5t-54 184.5t-34 117t-20.5 70.5t-11 45.5h-11q2 -66 2 -137.5v-157.5v-784h-165z" />
<glyph unicode="O" d="M49 776q0 182 3 297t9.5 186.5t16.5 112.5t24 78q29 72 82.5 99.5t157.5 27.5t157.5 -27.5t82.5 -99.5q14 -37 24 -78t16.5 -112.5t9.5 -186.5t3 -297t-3 -298t-9.5 -187.5t-16.5 -113.5t-24 -77q-29 -72 -82.5 -99.5t-157.5 -27.5t-157.5 27.5t-82.5 99.5q-14 35 -24 77 t-16.5 113.5t-9.5 187.5t-3 298zM229 780q0 -162 1 -258t4.5 -152.5t8.5 -85t11 -53.5q10 -37 28.5 -51t59.5 -14t59.5 14t28.5 51q6 25 10 53.5t7.5 85t5.5 152.5t2 258t-1 259.5t-4.5 153.5t-7.5 84t-10 52q-10 37 -29.5 52.5t-60.5 15.5t-59.5 -15.5t-28.5 -50.5 q-6 -25 -11 -53.5t-8.5 -84.5t-4.5 -153.5t-1 -259.5z" />
<glyph unicode="P" horiz-adv-x="679" d="M68 0v1550h321q74 0 121 -24.5t75.5 -84t40 -158.5t11.5 -249q0 -147 -11.5 -248.5t-39 -164t-76.5 -91t-123 -28.5h-139v-502h-180zM248 682h110q25 0 42.5 16.5t29.5 56.5t18.5 108.5t6.5 174.5q0 104 -6.5 170t-18.5 100.5t-30.5 47t-43.5 12.5h-108v-686z" />
<glyph unicode="Q" d="M49 803q0 176 3 287.5t9.5 180t16.5 108.5t24 75q29 70 82.5 96.5t157.5 26.5t157.5 -26.5t82.5 -96.5q14 -35 24 -75t16.5 -108.5t9.5 -180t3 -287.5t-3 -288t-9.5 -181.5t-16.5 -110.5t-24 -73q-31 -70 -86 -99q31 -106 52 -154.5t38 -72.5v-10h-183q-14 23 -30.5 68.5 t-46.5 144.5q-98 2 -147.5 29.5t-76.5 93.5q-14 33 -24 73.5t-16.5 110t-9.5 181.5t-3 288zM229 801q0 -158 1 -251t4.5 -148.5t8.5 -82t11 -51.5q10 -35 28.5 -49t59.5 -14t59.5 14t28.5 49q6 25 10 52.5t7.5 82t5.5 147.5t2 251q0 156 -1 250t-4.5 148t-7.5 81t-10 51 q-10 35 -29.5 50.5t-60.5 15.5t-59.5 -14.5t-28.5 -49.5q-6 -25 -11 -51.5t-8.5 -81.5t-4.5 -149.5t-1 -249.5z" />
<glyph unicode="R" horiz-adv-x="698" d="M68 0v1550h327q72 0 111 -17t67 -54q18 -25 31.5 -54.5t22 -70.5t11.5 -95.5t3 -125.5q0 -74 -2 -124.5t-7 -86t-11.5 -60t-14.5 -45.5q-14 -35 -33.5 -53.5t-42.5 -28.5v-10q20 -10 40 -38t28 -91q14 -106 23.5 -216t15.5 -228q4 -47 9 -80t16 -64v-8h-187 q-6 12 -10 25.5t-7 38t-6 66.5l-8 112q-4 78 -9 156.5t-15 156.5q-10 63 -27.5 81.5t-58.5 18.5h-86v-655h-180zM248 821h82q37 0 61.5 10.5t40.5 45.5q8 16 12.5 32.5t7.5 44t4 69.5t1 110q0 51 -1 84.5t-3 55t-7.5 35t-11.5 23.5q-25 39 -72 39h-114v-549z" />
<glyph unicode="S" horiz-adv-x="636" d="M43 1214q0 129 15.5 194t52.5 105q33 35 75.5 49.5t122.5 14.5q94 0 142.5 -20.5t74.5 -55.5q29 -39 39 -95t10 -161q0 -66 -3 -107.5t-9 -68.5h-153q4 20 5 50t1 77q0 78 -6.5 116t-22.5 60q-12 16 -28.5 21.5t-49.5 5.5t-48 -6.5t-28 -24.5q-14 -23 -19 -59.5 t-5 -118.5v-77t1 -49.5t4 -32.5t7 -27q10 -27 20.5 -40.5t43.5 -37.5q37 -29 89 -57.5t99 -63.5q37 -27 54.5 -44.5t33.5 -49.5q8 -18 14.5 -37t9.5 -49.5t4 -78.5t1 -124q0 -80 -4 -136.5t-11.5 -96t-17.5 -67.5t-22 -52q-25 -47 -78.5 -72t-151.5 -25q-84 0 -132 18.5 t-77 71.5q-12 23 -22.5 47.5t-16.5 57.5t-9 78t-3 110q0 53 3 93t7 69h156q-4 -23 -5 -51.5t-1 -71.5q0 -90 4 -130t18 -66q12 -23 28.5 -32t51.5 -9q41 0 58.5 9t31.5 36q14 29 18.5 74t4.5 147v65.5t-2 44t-4 31t-6 29.5q-8 29 -21.5 43t-44.5 37q-25 18 -55.5 37.5 t-61 40t-59.5 42t-49 42.5q-20 20 -34.5 45.5t-23 66.5t-12.5 104.5t-4 161.5z" />
<glyph unicode="T" horiz-adv-x="614" d="M25 1366v184h565v-184h-191v-1366h-182v1366h-192z" />
<glyph unicode="U" horiz-adv-x="698" d="M55 430v1120h187v-1120q0 -61 1 -99t3 -62.5t7 -39t13 -28.5q12 -20 31.5 -27.5t54.5 -7.5t53.5 7t30.5 28q8 14 13.5 28.5t7.5 39t3 62.5t1 99v1120h180v-1120q0 -78 -1 -131t-4 -92t-11.5 -67.5t-22.5 -57.5q-31 -61 -87 -85t-165 -24q-111 0 -167 23.5t-87 85.5 q-14 29 -22 57.5t-12.5 67.5t-5.5 92t-1 131z" />
<glyph unicode="V" d="M33 1550h194q23 -279 40.5 -478.5t28.5 -338.5t19.5 -226t12.5 -141.5t5 -85t3 -55.5h14q0 25 2 55.5t7.5 85t12.5 141.5t18 226t28.5 339t40.5 478h190l-168 -1550h-286z" />
<glyph unicode="W" horiz-adv-x="1069" d="M37 1550h182q18 -281 30.5 -480.5t22 -336.5t14.5 -221t8 -134t5 -77t2 -47h16q0 20 2.5 47t7.5 77t14 134t22.5 221t35 336t50.5 481h180q29 -281 50 -480.5t35.5 -336.5t24 -221t14.5 -134t6 -77t3 -47h16q0 20 1 47t4 77t8.5 134t13.5 221t21.5 336t31.5 481h174 l-121 -1550h-264q-23 244 -39 418t-27.5 295t-17.5 196.5t-10 122.5t-6 74t-2 49h-15q0 -23 -2 -49.5t-6 -73.5t-11 -122.5t-18.5 -196.5t-29 -295t-39.5 -418h-264z" />
<glyph unicode="X" horiz-adv-x="698" d="M27 0v10l182 819l-154 711v10h187q33 -178 52 -285.5t30.5 -168t14.5 -86t5 -43.5h14q2 18 6.5 43.5t15.5 86t32.5 168t56.5 285.5h176v-10l-158 -706l181 -824v-10h-193q-39 207 -62.5 331t-35.5 194.5t-17.5 101t-7.5 53.5h-14q-2 -23 -7 -53.5t-17.5 -101t-37 -194.5 t-63.5 -331h-186z" />
<glyph unicode="Y" horiz-adv-x="665" d="M18 1540v10h183q39 -180 62.5 -288.5t35.5 -171t17.5 -90t9.5 -46.5h14q2 18 8 46t19.5 90.5t37 171t64.5 288.5h178v-10l-215 -862v-678h-194v676z" />
<glyph unicode="Z" horiz-adv-x="686" d="M47 0v213l381 1139l-6 12h-363v186h588v-100l-418 -1245l7 -12h401v-193h-590z" />
<glyph unicode="[" d="M209 -487v2457h387v-141h-248v-2175h248v-141h-387z" />
<glyph unicode="\" d="M16 1737h138l514 -2050h-138z" />
<glyph unicode="]" d="M86 -346h248v2175h-248v141h387v-2457h-387v141z" />
<glyph unicode="^" d="M39 684v10l235 856h136l235 -856v-10h-139l-156 649h-14l-158 -649h-139z" />
<glyph unicode="_" d="M18 -127h648v-147h-648v147z" />
<glyph unicode="`" horiz-adv-x="466" d="M61 1556v11h166l166 -346v-9h-135z" />
<glyph unicode="a" horiz-adv-x="669" d="M33 0l153 1550h308l143 -1550h-186l-35 422h-166l-35 -422h-182zM33 0zM258 600h150l-50 582q-4 47 -8 92t-8 92h-14q-4 -47 -8.5 -92t-8.5 -92z" />
<glyph unicode="b" horiz-adv-x="694" d="M68 0v1550h321q70 0 119 -18.5t77.5 -64.5t42 -128t13.5 -206q0 -92 -5 -150.5t-15.5 -92.5t-26.5 -52.5t-39 -30.5v-12q31 -18 51.5 -37t30.5 -55.5t14 -103.5t4 -181q0 -125 -13 -206t-43 -128t-77 -65.5t-112 -18.5h-342zM68 0zM248 176h129q27 0 45 9.5t29.5 38 t15.5 79.5t4 135q0 96 -5 151.5t-17.5 84t-32 37t-49.5 8.5h-119v-543zM248 866h110q31 0 51.5 9.5t31 36t14.5 74.5t4 126q0 57 -1 92t-3 57.5t-5.5 37t-7.5 26.5q-10 29 -30.5 40t-49.5 11h-114v-510z" />
<glyph unicode="c" d="M49 0zM49 788q0 207 5 329t13.5 189.5t18.5 96.5t18 49q29 68 79 96.5t159 28.5q76 0 121 -13.5t78 -45.5q41 -41 63.5 -143.5t22.5 -254.5q0 -41 -1 -71.5t-3 -65.5h-172q2 33 2 57.5v75.5q0 94 -7.5 151.5t-21.5 86.5q-12 27 -30.5 35t-51.5 8q-41 0 -59.5 -14.5 t-28.5 -51.5q-6 -25 -11 -54.5t-8.5 -86.5t-4.5 -152.5t-1 -246.5q0 -154 1 -252.5t4.5 -157.5t8.5 -92t11 -58q10 -35 29.5 -50t66.5 -15q37 0 56.5 21.5t29.5 62.5t15.5 95t5.5 126v63.5t-2 59.5h170q4 -35 4 -70v-69q0 -121 -13.5 -211t-45 -150.5t-85 -90.5t-135.5 -30 q-109 0 -164 28t-84 99q-14 33 -24 78t-16.5 121t-9.5 192.5t-3 296.5z" />
<glyph unicode="d" horiz-adv-x="710" d="M68 0v1550h301q104 0 157.5 -26.5t83.5 -96.5q14 -35 24.5 -74.5t16.5 -109t8.5 -180.5t2.5 -287q0 -182 -3.5 -294.5t-9.5 -181.5t-15 -107.5t-24 -71.5q-29 -70 -82 -95.5t-159 -25.5h-301zM68 0zM248 190h117q41 0 60 13.5t30 48.5q6 23 11 51.5t7 83.5t3 147.5 t1 243.5q0 147 -1 238.5t-3 148t-6 86t-12 52.5q-12 35 -32 49t-58 14h-117v-1176z" />
<glyph unicode="e" horiz-adv-x="602" d="M68 0v1550h479v-184h-299v-487h295v-177h-295v-509h297v-193h-477zM68 0z" />
<glyph unicode="f" horiz-adv-x="573" d="M68 0v1550h473v-184h-293v-506h287v-178h-287v-682h-180zM68 0z" />
<glyph unicode="g" horiz-adv-x="677" d="M49 0zM49 788q0 180 3 293t9.5 183.5t16.5 109.5t22 70q31 78 85.5 105.5t156.5 27.5q115 0 168 -35t76 -98q27 -70 33 -143.5t6 -143.5v-47t-2 -33h-172q2 14 2 31.5v48.5q0 39 -3.5 79t-13.5 87q-8 35 -27.5 54.5t-66.5 19.5q-41 0 -61.5 -16.5t-30.5 -59.5 q-6 -20 -10 -48t-7.5 -85.5t-5.5 -151.5t-2 -245q0 -160 2 -258.5t6.5 -157t9.5 -88t11 -54.5q10 -39 27.5 -54t64.5 -15q41 0 61.5 15.5t30.5 51.5q6 23 11.5 50.5t8.5 65.5t5 91.5t2 126.5v74t-2 45h-156v176h322q2 -39 3 -100.5t1 -153.5q0 -127 -3 -211t-10.5 -139 t-16.5 -90t-21 -66q-29 -72 -82.5 -99.5t-157.5 -27.5t-157.5 28t-82.5 99q-14 35 -24 77t-16.5 116t-9.5 190.5t-3 304.5z" />
<glyph unicode="h" horiz-adv-x="731" d="M63 0v1550h187v-671h231v671h185v-1550h-185v702h-231v-702h-187zM63 0z" />
<glyph unicode="i" horiz-adv-x="325" d="M70 0v1550h186v-1550h-186zM70 0z" />
<glyph unicode="j" horiz-adv-x="667" d="M33 0zM33 455q0 53 1 81.5t5 57.5h164q-2 -16 -2 -43v-96q0 -66 6 -130.5t18 -101.5q10 -29 25.5 -43t58.5 -14q47 0 63.5 15.5t26.5 49.5q6 25 11.5 60t8.5 96.5t5 158.5t2 249v755h186v-751q0 -176 -3 -293t-9 -192.5t-16.5 -122t-24.5 -82.5q-14 -35 -31.5 -60.5 t-45 -42t-67.5 -25t-102 -8.5q-119 0 -174 42t-82 141q-6 27 -11 53.5t-8 60t-4 78.5t-1 107z" />
<glyph unicode="k" horiz-adv-x="729" d="M68 0v1550h184v-540v-82t-2 -49h14q2 10 9.5 29.5t30 85t68.5 195.5t130 361h188v-10l-258 -700l270 -832v-8h-198q-55 174 -94 296t-66 205t-42 132t-22.5 76.5t-10.5 39t-5 19.5h-14q2 -25 2 -51.5v-83.5v-633h-184zM68 0z" />
<glyph unicode="l" horiz-adv-x="548" d="M68 0v1550h180v-1357h276v-193h-456zM68 0z" />
<glyph unicode="m" horiz-adv-x="987" d="M63 0v1550h291q41 -266 65.5 -427.5t39 -256t19.5 -139.5t9 -80h11q2 35 8 80t20.5 139.5t40 256t66.5 427.5h289v-1550h-162v1008v109t2 95h-10q-2 -14 -5.5 -33.5t-10.5 -64.5t-21.5 -123t-38 -208t-57 -321.5t-82.5 -461.5h-86q-49 270 -84 461.5t-58.5 321.5t-38 209 t-21.5 123t-10 63.5t-6 33.5h-10q2 -41 2 -95v-109v-1008h-162zM63 0z" />
<glyph unicode="n" horiz-adv-x="716" d="M66 0v1550h208q45 -172 78 -293.5t54.5 -204.5t35 -133.5t20.5 -80t10 -45t5 -27.5h10q-2 39 -2 80v110v594h168v-1550h-94q-68 225 -117 387t-82.5 274.5t-54 184.5t-34 117t-20.5 70.5t-11 45.5h-11q2 -66 2 -137.5v-157.5v-784h-165zM66 0z" />
<glyph unicode="o" d="M49 0zM49 776q0 182 3 297t9.5 186.5t16.5 112.5t24 78q29 72 82.5 99.5t157.5 27.5t157.5 -27.5t82.5 -99.5q14 -37 24 -78t16.5 -112.5t9.5 -186.5t3 -297t-3 -298t-9.5 -187.5t-16.5 -113.5t-24 -77q-29 -72 -82.5 -99.5t-157.5 -27.5t-157.5 27.5t-82.5 99.5 q-14 35 -24 77t-16.5 113.5t-9.5 187.5t-3 298zM229 780q0 -162 1 -258t4.5 -152.5t8.5 -85t11 -53.5q10 -37 28.5 -51t59.5 -14t59.5 14t28.5 51q6 25 10 53.5t7.5 85t5.5 152.5t2 258t-1 259.5t-4.5 153.5t-7.5 84t-10 52q-10 37 -29.5 52.5t-60.5 15.5t-59.5 -15.5 t-28.5 -50.5q-6 -25 -11 -53.5t-8.5 -84.5t-4.5 -153.5t-1 -259.5z" />
<glyph unicode="p" horiz-adv-x="679" d="M68 0v1550h321q74 0 121 -24.5t75.5 -84t40 -158.5t11.5 -249q0 -147 -11.5 -248.5t-39 -164t-76.5 -91t-123 -28.5h-139v-502h-180zM68 0zM248 682h110q25 0 42.5 16.5t29.5 56.5t18.5 108.5t6.5 174.5q0 104 -6.5 170t-18.5 100.5t-30.5 47t-43.5 12.5h-108v-686z" />
<glyph unicode="q" d="M49 0zM49 803q0 176 3 287.5t9.5 180t16.5 108.5t24 75q29 70 82.5 96.5t157.5 26.5t157.5 -26.5t82.5 -96.5q14 -35 24 -75t16.5 -108.5t9.5 -180t3 -287.5t-3 -288t-9.5 -181.5t-16.5 -110.5t-24 -73q-31 -70 -86 -99q31 -106 52 -154.5t38 -72.5v-10h-183 q-14 23 -30.5 68.5t-46.5 144.5q-98 2 -147.5 29.5t-76.5 93.5q-14 33 -24 73.5t-16.5 110t-9.5 181.5t-3 288zM229 801q0 -158 1 -251t4.5 -148.5t8.5 -82t11 -51.5q10 -35 28.5 -49t59.5 -14t59.5 14t28.5 49q6 25 10 52.5t7.5 82t5.5 147.5t2 251q0 156 -1 250t-4.5 148 t-7.5 81t-10 51q-10 35 -29.5 50.5t-60.5 15.5t-59.5 -14.5t-28.5 -49.5q-6 -25 -11 -51.5t-8.5 -81.5t-4.5 -149.5t-1 -249.5z" />
<glyph unicode="r" horiz-adv-x="698" d="M68 0v1550h327q72 0 111 -17t67 -54q18 -25 31.5 -54.5t22 -70.5t11.5 -95.5t3 -125.5q0 -74 -2 -124.5t-7 -86t-11.5 -60t-14.5 -45.5q-14 -35 -33.5 -53.5t-42.5 -28.5v-10q20 -10 40 -38t28 -91q14 -106 23.5 -216t15.5 -228q4 -47 9 -80t16 -64v-8h-187 q-6 12 -10 25.5t-7 38t-6 66.5l-8 112q-4 78 -9 156.5t-15 156.5q-10 63 -27.5 81.5t-58.5 18.5h-86v-655h-180zM68 0zM248 821h82q37 0 61.5 10.5t40.5 45.5q8 16 12.5 32.5t7.5 44t4 69.5t1 110q0 51 -1 84.5t-3 55t-7.5 35t-11.5 23.5q-25 39 -72 39h-114v-549z" />
<glyph unicode="s" horiz-adv-x="636" d="M43 0zM43 1214q0 129 15.5 194t52.5 105q33 35 75.5 49.5t122.5 14.5q94 0 142.5 -20.5t74.5 -55.5q29 -39 39 -95t10 -161q0 -66 -3 -107.5t-9 -68.5h-153q4 20 5 50t1 77q0 78 -6.5 116t-22.5 60q-12 16 -28.5 21.5t-49.5 5.5t-48 -6.5t-28 -24.5q-14 -23 -19 -59.5 t-5 -118.5v-77t1 -49.5t4 -32.5t7 -27q10 -27 20.5 -40.5t43.5 -37.5q37 -29 89 -57.5t99 -63.5q37 -27 54.5 -44.5t33.5 -49.5q8 -18 14.5 -37t9.5 -49.5t4 -78.5t1 -124q0 -80 -4 -136.5t-11.5 -96t-17.5 -67.5t-22 -52q-25 -47 -78.5 -72t-151.5 -25q-84 0 -132 18.5 t-77 71.5q-12 23 -22.5 47.5t-16.5 57.5t-9 78t-3 110q0 53 3 93t7 69h156q-4 -23 -5 -51.5t-1 -71.5q0 -90 4 -130t18 -66q12 -23 28.5 -32t51.5 -9q41 0 58.5 9t31.5 36q14 29 18.5 74t4.5 147v65.5t-2 44t-4 31t-6 29.5q-8 29 -21.5 43t-44.5 37q-25 18 -55.5 37.5 t-61 40t-59.5 42t-49 42.5q-20 20 -34.5 45.5t-23 66.5t-12.5 104.5t-4 161.5z" />
<glyph unicode="t" horiz-adv-x="614" d="M25 0zM25 1366v184h565v-184h-191v-1366h-182v1366h-192z" />
<glyph unicode="u" horiz-adv-x="698" d="M55 0zM55 430v1120h187v-1120q0 -61 1 -99t3 -62.5t7 -39t13 -28.5q12 -20 31.5 -27.5t54.5 -7.5t53.5 7t30.5 28q8 14 13.5 28.5t7.5 39t3 62.5t1 99v1120h180v-1120q0 -78 -1 -131t-4 -92t-11.5 -67.5t-22.5 -57.5q-31 -61 -87 -85t-165 -24q-111 0 -167 23.5t-87 85.5 q-14 29 -22 57.5t-12.5 67.5t-5.5 92t-1 131z" />
<glyph unicode="v" d="M33 0zM33 1550h194q23 -279 40.5 -478.5t28.5 -338.5t19.5 -226t12.5 -141.5t5 -85t3 -55.5h14q0 25 2 55.5t7.5 85t12.5 141.5t18 226t28.5 339t40.5 478h190l-168 -1550h-286z" />
<glyph unicode="w" horiz-adv-x="1069" d="M37 0zM37 1550h182q18 -281 30.5 -480.5t22 -336.5t14.5 -221t8 -134t5 -77t2 -47h16q0 20 2.5 47t7.5 77t14 134t22.5 221t35 336t50.5 481h180q29 -281 50 -480.5t35.5 -336.5t24 -221t14.5 -134t6 -77t3 -47h16q0 20 1 47t4 77t8.5 134t13.5 221t21.5 336t31.5 481 h174l-121 -1550h-264q-23 244 -39 418t-27.5 295t-17.5 196.5t-10 122.5t-6 74t-2 49h-15q0 -23 -2 -49.5t-6 -73.5t-11 -122.5t-18.5 -196.5t-29 -295t-39.5 -418h-264z" />
<glyph unicode="x" horiz-adv-x="698" d="M27 0v10l182 819l-154 711v10h187q33 -178 52 -285.5t30.5 -168t14.5 -86t5 -43.5h14q2 18 6.5 43.5t15.5 86t32.5 168t56.5 285.5h176v-10l-158 -706l181 -824v-10h-193q-39 207 -62.5 331t-35.5 194.5t-17.5 101t-7.5 53.5h-14q-2 -23 -7 -53.5t-17.5 -101t-37 -194.5 t-63.5 -331h-186zM27 0z" />
<glyph unicode="y" horiz-adv-x="665" d="M18 0zM18 1540v10h183q39 -180 62.5 -288.5t35.5 -171t17.5 -90t9.5 -46.5h14q2 18 8 46t19.5 90.5t37 171t64.5 288.5h178v-10l-215 -862v-678h-194v676z" />
<glyph unicode="z" horiz-adv-x="686" d="M47 0v213l381 1139l-6 12h-363v186h588v-100l-418 -1245l7 -12h401v-193h-590zM47 0z" />
<glyph unicode="{" d="M143 672v139h74q53 0 74.5 19.5t21.5 99.5q0 82 -8 174t-18.5 192.5t-18.5 209t-8 223.5q0 131 45 186t154 55h162v-141h-144q-41 0 -59.5 -23.5t-18.5 -76.5q0 -98 8.5 -202t19.5 -205t19.5 -200.5t8.5 -191.5q0 -76 -22.5 -118t-63.5 -64v-13q41 -23 63.5 -64.5 t22.5 -117.5q0 -92 -8.5 -191.5t-19.5 -201t-19.5 -204.5t-8.5 -202q0 -53 18.5 -76.5t59.5 -23.5h144v-141h-162q-109 0 -154 55t-45 186q0 115 8 223.5t18.5 209t18.5 192.5t8 174q0 80 -21.5 99.5t-74.5 19.5h-74z" />
<glyph unicode="|" d="M270 -487v2457h142v-2457h-142z" />
<glyph unicode="}" d="M61 -346h144q41 0 59.5 23.5t18.5 76.5q0 98 -8.5 201.5t-19.5 205t-19.5 201t-8.5 191.5q0 76 22.5 118t63.5 64v13q-41 23 -63.5 64.5t-22.5 117.5q0 92 8.5 191.5t19.5 200.5t19.5 204.5t8.5 202.5q0 53 -18.5 76.5t-59.5 23.5h-144v141h162q109 0 154 -55t45 -186 q0 -115 -8 -223.5t-18.5 -209t-18.5 -192.5t-8 -174q0 -80 21.5 -99.5t74.5 -19.5h74v-139h-74q-53 0 -74.5 -19.5t-21.5 -99.5q0 -82 8 -174t18.5 -192.5t18.5 -209t8 -223.5q0 -131 -45 -186t-154 -55h-162v141z" />
<glyph unicode="~" d="M39 664v145q23 39 59.5 65.5t87.5 26.5t93.5 -15.5t76.5 -37.5q43 -29 70 -37t61 -8q41 0 79 23.5t67 70.5h12v-141q-59 -92 -162 -92q-47 0 -87 14t-74 37q-41 27 -68 36t-61 9q-84 0 -142 -96h-12z" />
<glyph unicode="&#xa1;" horiz-adv-x="339" d="M68 -467l32 1149h140l32 -1149h-204zM80 838v309h180v-309h-180z" />
<glyph unicode="&#xa2;" d="M57 797q0 135 3 225t9.5 149.5t16.5 94t23 61.5q23 45 64.5 65.5t113.5 26.5v221h127v-221q72 -6 112.5 -26.5t63.5 -65.5q29 -55 37 -123.5t8 -146.5v-37t-2 -41h-176q2 14 2 25.5v25.5q0 72 -3 114t-14 77q-10 29 -28.5 39t-63.5 10q-72 0 -86 -45q-6 -18 -11 -44 t-8 -73t-4 -121t-1 -186q0 -115 1 -189.5t4 -123t8 -74t11 -43.5q14 -43 86 -43q76 0 92 43q6 18 9.5 34.5t4.5 38t2 51t1 72.5v30.5t-2 31.5h176q4 -25 4 -48.5v-45.5q-2 -70 -8 -141.5t-39 -133.5q-23 -47 -65 -68.5t-111 -25.5v-254h-127v254q-72 4 -114 25.5t-64 68.5 q-12 25 -22.5 60.5t-17 95t-9.5 151.5t-3 230z" />
<glyph unicode="&#xa3;" d="M41 580v127h88l4 6q-41 72 -61.5 154.5t-20.5 205.5q0 113 2 185.5t8.5 118.5t15.5 74t25 52q14 23 32 37t45.5 22.5t67.5 11.5t99 3q49 0 84 -3t60.5 -11.5t44 -22.5t34.5 -37q18 -25 29.5 -52.5t19 -69.5t9.5 -104.5t2 -156.5v-97.5t-2 -57.5h-172q2 18 2 40.5v63.5 q0 82 -1 134t-3 85t-7.5 50.5t-13.5 33.5q-8 14 -24.5 19.5t-61.5 5.5t-62.5 -7.5t-27.5 -23.5q-8 -12 -13 -29.5t-7.5 -47t-3.5 -79t-1 -125.5t4.5 -121.5t16.5 -82.5t33.5 -76t58.5 -98h250v-127h-205l-4 -9q29 -82 29 -168q0 -55 -8.5 -100t-20.5 -84q12 -23 36.5 -35 t70.5 -12q53 0 77.5 15.5t61.5 37.5h14v-198q-23 -23 -54.5 -38.5t-82.5 -15.5q-63 0 -103 33t-53 92h-14q-23 -53 -69 -89t-117 -36q-23 0 -47.5 9.5t-43.5 33.5v172q29 -6 46.5 -10t31.5 -4q41 0 65.5 55.5t24.5 163.5q0 63 -8 100t-28 87h-152z" />
<glyph unicode="&#xa4;" horiz-adv-x="1067" d="M68 401l147 146q-72 100 -72 229q0 125 72 232l-145 139l94 96l141 -147q94 78 232 78q127 0 229 -78l137 147l96 -96l-143 -139q35 -51 54.5 -108.5t19.5 -123.5t-19.5 -124t-54.5 -105l143 -146l-94 -94l-141 148q-49 -35 -105.5 -53.5t-121.5 -18.5q-133 0 -230 74 l-143 -150zM285 776q0 -53 19.5 -98t53 -80t79.5 -54.5t100 -19.5q51 0 97 19.5t80 54.5t54 80t20 98q0 51 -20 97.5t-54 81t-80 55t-97 20.5q-53 0 -99.5 -20.5t-80 -55t-53 -81t-19.5 -97.5z" />
<glyph unicode="&#xa5;" d="M27 1540v10h186l121 -569h16l123 569h182v-10l-219 -838v-38h185v-127h-185v-175h185v-126h-185v-236h-186v236h-195v126h195v175h-195v127h195v38z" />
<glyph unicode="&#xa6;" d="M270 -487v991h142v-991h-142zM270 1040v930h142v-930h-142z" />
<glyph unicode="&#xa7;" horiz-adv-x="737" d="M51 788q0 70 7.5 118t22.5 80t38.5 51.5t56.5 33.5q-6 35 -8 82t-2 117q0 109 14.5 164t48.5 90q14 14 29.5 24.5t37 16.5t51.5 9t73 3q88 0 131 -12.5t74 -48.5q25 -33 35 -83.5t10 -136.5q0 -55 -3 -91t-10 -60h-143q6 33 6 108q0 66 -6 97.5t-22 52.5q-10 14 -26.5 18 t-45.5 4q-33 0 -47.5 -5t-26.5 -21q-14 -18 -19 -49t-5 -101v-66.5t1 -42t4 -27.5t7 -23q10 -23 20.5 -33t40.5 -33q35 -25 84 -48.5t94 -51.5q35 -25 51.5 -39.5t30.5 -42.5q8 -16 14.5 -31.5t9.5 -41.5t4 -66.5t1 -106.5q0 -88 -7 -143.5t-21.5 -92t-36 -61.5t-50.5 -49 q2 -25 2 -57.5v-79.5q0 -68 -3 -117t-11 -86t-21.5 -64.5t-33.5 -50.5q-31 -35 -73 -49t-130 -14q-78 0 -122 16t-75 59q-12 18 -21 40t-15.5 49.5t-9.5 66.5t-3 94q0 47 3 81t7 57h148q-4 -18 -5 -43t-1 -62q0 -39 1 -65.5t3 -45t6 -30.5t10 -25q12 -20 27.5 -27.5 t48.5 -7.5q41 0 57.5 7.5t30.5 29.5q12 25 16.5 63t4.5 126v55.5t-1 37.5t-3.5 27.5t-6.5 24.5q-6 23 -20 36t-43 32q-49 31 -111.5 67.5t-103.5 71.5q-18 18 -31.5 38.5t-22 56.5t-12.5 89.5t-4 136.5zM209 702.5q0 -24.5 1 -41t3 -27.5t6 -24q10 -23 20.5 -34t41.5 -33 q27 -18 51 -30.5t50 -26t55.5 -31.5t68.5 -47q10 25 14 68.5t4 121.5v56.5t-2 37t-4 27.5t-6 24q-8 23 -21.5 36.5t-41.5 31.5q-47 29 -106.5 63.5t-100.5 67.5q-10 -8 -16.5 -17.5t-10.5 -27.5t-5 -49t-1 -80v-65.5z" />
<glyph unicode="&#xa8;" horiz-adv-x="595" d="M68 1266v229h157v-229h-157zM371 1266v229h157v-229h-157z" />
<glyph unicode="&#xaa;" horiz-adv-x="423" d="M47 1004q0 74 7 115.5t24.5 63t47.5 28t75 6.5q25 0 43 -7v35q0 39 -1 61.5t-5.5 34t-11.5 13.5t-19 2q-25 0 -32 -12.5t-7 -67.5v-18.5t4 -18.5h-109q-2 8 -3 16.5t-1 20.5q0 61 6.5 97t21.5 53.5t44 22.5t76 5q49 0 77.5 -10t45 -35t21.5 -63.5t5 -96.5v-344 q0 -23 11 -22q2 0 8 2q4 2 20 6v-80q-4 -6 -18.5 -16.5t-42.5 -10.5q-29 0 -42 7.5t-22 17.5q-14 -10 -33.5 -17.5t-54.5 -7.5q-43 0 -69.5 5.5t-41 28t-19.5 65.5t-5 121zM158 1004q0 -63 2 -78t6 -23t10 -10t29 -2q27 0 39 12v207q-10 10 -29 10q-18 0 -29.5 -3t-17.5 -14 t-8 -35t-2 -64z" />
<glyph unicode="&#xab;" horiz-adv-x="679" d="M45 426zM45 719v119l289 295h8v-172l-186 -177v-14l186 -174v-170h-8zM334 719v119l289 295h8v-172l-186 -177v-14l186 -174v-170h-8z" />
<glyph unicode="&#xac;" d="M39 756v141h606v-897h-139v756h-467z" />
<glyph unicode="&#xad;" horiz-adv-x="557" d="M45 707v147h465v-147h-465z" />
<glyph unicode="&#xaf;" horiz-adv-x="708" d="M68 1327v129h573v-129h-573z" />
<glyph unicode="&#xb0;" horiz-adv-x="514" d="M51 1264q0 80 2 130t6 80.5t11.5 49t17.5 35.5q18 29 56 42t110 13t113 -13.5t59 -41.5q8 -16 15.5 -34t11.5 -49.5t6 -82t2 -129.5q0 -80 -2 -131.5t-6 -83t-11.5 -50t-15.5 -32.5q-20 -33 -59 -44.5t-113 -11.5q-72 0 -110 11.5t-56 44.5q-10 14 -16 32.5t-11.5 50 t-7.5 83t-2 131.5zM178 1266q0 -49 1 -81t2 -50.5t4 -27.5t10 -17q8 -16 59 -17q31 0 45 3.5t18 13.5q6 8 9.5 17t4.5 27.5t2 50.5t1 81t-1 78.5t-2 48t-4 28t-10 17.5q-6 10 -19 14t-44 4q-29 0 -41 -4t-18 -14q-6 -8 -9.5 -17.5t-4.5 -28t-2 -48t-1 -78.5z" />
<glyph unicode="&#xb1;" d="M39 0v139h606v-139h-606zM39 0zM39 707v139h231v233h142v-233h233v-139h-233v-234h-142v234h-231z" />
<glyph unicode="&#xb2;" horiz-adv-x="438" d="M51 713zM51 1269.5v59.5q0 80 6 130t24.5 79t50.5 39t83 10q53 0 87 -8t52.5 -37t24.5 -85t6 -155q0 -78 -2 -120.5t-11.5 -73.5t-29.5 -59.5t-55 -77.5l-94 -134h188v-124h-328v126l125 183q31 43 48.5 74.5t26.5 61.5t11 62.5t2 81.5q0 45 -1 73t-2 42t-4 21.5t-7 13.5 q-4 12 -37 12q-29 0 -37 -12q-4 -10 -6 -31.5t-2 -91.5v-47.5t2 -48.5h-119q-2 16 -2 36.5z" />
<glyph unicode="&#xb3;" horiz-adv-x="438" d="M47 698zM47 960q0 25 1 38.5t3 27.5h115q-2 -16 -2 -32.5v-33.5q0 -47 2 -73.5t7 -40t15.5 -16.5t26.5 -3t26.5 3t16.5 16.5t8 41t2 74.5t-2 73t-7 38t-15.5 15t-28.5 3h-80v123h80q16 0 25.5 3t14.5 14.5t7 35t2 64.5q0 49 -2 75.5t-7 40t-14.5 16.5t-25.5 3t-25.5 -3 t-14.5 -14t-7 -34t-2 -64v-35t2 -36h-117q-2 18 -2 35.5v35.5q0 68 5 114t22.5 72.5t50.5 38t88 11.5q51 0 83 -8t50.5 -35t24.5 -74t6 -127q0 -47 -2 -78.5t-6 -53t-13.5 -35t-21.5 -21.5q12 -8 21.5 -19.5t16.5 -33t10 -58.5t3 -94q0 -90 -7 -141t-26.5 -76t-53.5 -30 t-85 -5q-53 0 -86 10.5t-51.5 39t-24.5 79.5t-6 133z" />
<glyph unicode="&#xb4;" horiz-adv-x="466" d="M74 1212v9l164 346h165v-11l-194 -344h-135z" />
<glyph unicode="&#xb6;" horiz-adv-x="837" d="M37 1190q0 203 50 281.5t146 78.5h537v-1759h-149v1610h-152v-1610h-150v1028h-71q-61 0 -102.5 16.5t-65 58.5t-33.5 113.5t-10 182.5z" />
<glyph unicode="&#xb7;" horiz-adv-x="315" d="M68 641v258h180v-258h-180zM68 641z" />
<glyph unicode="&#xb8;" horiz-adv-x="411" d="M68 -477l114 393h162v-10l-145 -393h-131v10z" />
<glyph unicode="&#xb9;" horiz-adv-x="438" d="M59 713zM59 1327v111h66q23 0 35 9t12 40v84h109v-729h92v-129h-312v129h97v485h-99z" />
<glyph unicode="&#xba;" horiz-adv-x="413" d="M47 1122q0 72 2 118t5 76t8.5 48t11.5 35q14 31 45 43t86 12t84.5 -12t46.5 -43q8 -16 13 -33.5t8 -47.5t4 -76t1 -120q0 -76 -1 -123t-4 -77.5t-8 -47t-13 -30.5q-18 -35 -48 -47.5t-83 -12.5q-55 0 -85 13.5t-46 48.5q-6 14 -11.5 31.5t-8.5 47t-5 77t-2 120.5z M162 1124q0 -59 1 -96t2 -59.5t3 -34.5t4 -23q6 -14 33 -14t33 14q2 10 4 22.5t4 35t2 59.5v96v94t-2 58.5t-4 34t-4 20.5q-6 16 -33 17q-27 0 -33 -17q-2 -8 -4 -20.5t-3 -34t-2 -58t-1 -94.5z" />
<glyph unicode="&#xbb;" horiz-adv-x="679" d="M45 426v172l186 176v14l-186 175v170h8l289 -293v-119l-289 -295h-8zM45 426zM334 426v172l186 176v14l-186 175v170h8l289 -293v-119l-289 -295h-8z" />
<glyph unicode="&#xbc;" horiz-adv-x="929" d="M34 1327v111h66q23 0 35 9t12 40v84h109v-729h92v-129h-312v129h97v485h-99zM35 0zM112 0v8l639 1542h119v-10l-641 -1540h-117zM539 147v113l186 578h125v-578h43v-113h-43v-167h-123v167h-188zM656 260h75v221h-8z" />
<glyph unicode="&#xbd;" horiz-adv-x="929" d="M24 1327v111h66q23 0 35 9t12 40v84h109v-729h92v-129h-312v129h97v485h-99zM25 0zM92 0v8l639 1542h119v-10l-641 -1540h-117zM569 536.5v59.5q0 80 6 130t24.5 79t50.5 39t83 10q53 0 87 -8t52.5 -37t24.5 -85t6 -155q0 -78 -2 -120.5t-11.5 -73.5t-29.5 -59.5 t-55 -77.5l-94 -134h188v-124h-328v126l125 183q31 43 48.5 74.5t26.5 61.5t11 62.5t2 81.5q0 45 -1 73t-2 42t-4 21.5t-7 13.5q-4 12 -37 12q-29 0 -37 -12q-4 -10 -6 -31.5t-2 -91.5v-47.5t2 -48.5h-119q-2 16 -2 36.5z" />
<glyph unicode="&#xbe;" horiz-adv-x="929" d="M39 0zM39 960q0 25 1 38.5t3 27.5h115q-2 -16 -2 -32.5v-33.5q0 -47 2 -73.5t7 -40t15.5 -16.5t26.5 -3t26.5 3t16.5 16.5t8 41t2 74.5t-2 73t-7 38t-15.5 15t-28.5 3h-80v123h80q16 0 25.5 3t14.5 14.5t7 35t2 64.5q0 49 -2 75.5t-7 40t-14.5 16.5t-25.5 3t-25.5 -3 t-14.5 -14t-7 -34t-2 -64v-35t2 -36h-117q-2 18 -2 35.5v35.5q0 68 5 114t22.5 72.5t50.5 38t88 11.5q51 0 83 -8t50.5 -35t24.5 -74t6 -127q0 -47 -2 -78.5t-6 -53t-13.5 -35t-21.5 -21.5q12 -8 21.5 -19.5t16.5 -33t10 -58.5t3 -94q0 -90 -7 -141t-26.5 -76t-53.5 -30 t-85 -5q-53 0 -86 10.5t-51.5 39t-24.5 79.5t-6 133zM112 0v8l639 1542h119v-10l-641 -1540h-117zM537 147v113l186 578h125v-578h43v-113h-43v-167h-123v167h-188zM654 260h75v221h-8z" />
<glyph unicode="&#xbf;" horiz-adv-x="630" d="M47 -39q0 82 1 132t7 84t18.5 58.5t35.5 53.5t57.5 67.5t50.5 65.5q18 29 24.5 49.5t6.5 54.5q0 63 -1 101.5t-3 54.5h155q4 -18 6.5 -60t2.5 -128q0 -55 -7.5 -89t-27.5 -63q-23 -35 -53.5 -69.5t-59.5 -71.5q-16 -20 -25.5 -35.5t-14.5 -37.5t-6 -54.5t-1 -87.5v-98.5 t2 -60t5 -32.5t7 -18q10 -18 25.5 -23.5t58.5 -5.5q45 0 59.5 6t26.5 23q12 18 16.5 49t4.5 115v87.5t-4 49.5h155q4 -23 6.5 -49.5t2.5 -87.5q0 -78 -3.5 -130.5t-11.5 -87t-20.5 -58t-32.5 -44.5q-16 -16 -30.5 -26.5t-35 -15.5t-52.5 -7t-81 -2q-45 0 -74.5 2t-50 7 t-36 14.5t-29.5 23.5q-23 20 -37 48t-22.5 67t-11.5 94t-3 135zM233 838v309h183v-309h-183z" />
<glyph unicode="&#xc0;" horiz-adv-x="669" d="M33 0l153 1550h308l143 -1550h-186l-35 422h-166l-35 -422h-182zM33 0zM86 1959v11h166l166 -346v-9h-135zM258 600h150l-50 582q-4 47 -8 92t-8 92h-14q-4 -47 -8.5 -92t-8.5 -92z" />
<glyph unicode="&#xc1;" horiz-adv-x="669" d="M33 0l153 1550h308l143 -1550h-186l-35 422h-166l-35 -422h-182zM33 0zM254 1615v9l164 346h165v-11l-194 -344h-135zM258 600h150l-50 582q-4 47 -8 92t-8 92h-14q-4 -47 -8.5 -92t-8.5 -92z" />
<glyph unicode="&#xc2;" horiz-adv-x="669" d="M33 0l153 1550h308l143 -1550h-186l-35 422h-166l-35 -422h-182zM33 0zM82 1615v9l188 346h125l190 -346v-9h-151l-94 187h-15l-94 -187h-149zM258 600h150l-50 582q-4 47 -8 92t-8 92h-14q-4 -47 -8.5 -92t-8.5 -92z" />
<glyph unicode="&#xc3;" horiz-adv-x="669" d="M33 0l153 1550h308l143 -1550h-186l-35 422h-166l-35 -422h-182zM33 0zM50 1679v139q20 37 59 60.5t88 23.5q80 0 145 -43q43 -29 68 -40t64 -11t74.5 21.5t64.5 68.5h10v-137q-29 -47 -69 -66.5t-91 -19.5q-41 0 -81 15.5t-74 41.5q-29 23 -52.5 30t-60.5 7 q-41 0 -75 -24.5t-62 -65.5h-8zM258 600h150l-50 582q-4 47 -8 92t-8 92h-14q-4 -47 -8.5 -92t-8.5 -92z" />
<glyph unicode="&#xc4;" horiz-adv-x="669" d="M33 0l153 1550h308l143 -1550h-186l-35 422h-166l-35 -422h-182zM33 0zM105 1669v229h157v-229h-157zM258 600h150l-50 582q-4 47 -8 92t-8 92h-14q-4 -47 -8.5 -92t-8.5 -92zM408 1669v229h157v-229h-157z" />
<glyph unicode="&#xc5;" horiz-adv-x="669" d="M33 0l153 1550h308l143 -1550h-186l-35 422h-166l-35 -422h-182zM33 0zM185 1777q0 43 1 71t4 45t8 27.5t13 18.5q14 16 42 23.5t81 7.5t81 -7.5t42 -23.5q8 -8 13 -18.5t8.5 -27.5t5.5 -45t2 -71t-2 -70.5t-5.5 -45t-9.5 -27t-12 -17.5q-16 -18 -43 -24t-80 -6t-79.5 6 t-43.5 24q-6 8 -11 17.5t-8 27t-5 45t-2 70.5zM258 600h150l-50 582q-4 47 -8 92t-8 92h-14q-4 -47 -8.5 -92t-8.5 -92zM273 1779q0 -63 2 -78.5t8 -21.5t16.5 -8t34.5 -2q25 0 35 2t14 8q6 6 9.5 21.5t3.5 78.5q0 33 -1.5 51.5t-2.5 28.5t-4 14.5t-5 8.5q-4 4 -14 7t-35 3 t-35 -2t-16 -8q-4 -4 -5 -8.5t-3 -14.5t-2 -28.5v-51.5z" />
<glyph unicode="&#xc6;" horiz-adv-x="956" d="M33 0l153 1550h709v-184h-299v-487h295v-177h-295v-509h297v-193h-479v422h-164l-35 -422h-182zM258 600h156v768h-86z" />
<glyph unicode="&#xc7;" d="M49 0zM49 788q0 207 5 329t13.5 189.5t18.5 96.5t18 49q29 68 79 96.5t159 28.5q76 0 121 -13.5t78 -45.5q41 -41 63.5 -143.5t22.5 -254.5q0 -41 -1 -71.5t-3 -65.5h-172q2 33 2 57.5v75.5q0 94 -7.5 151.5t-21.5 86.5q-12 27 -30.5 35t-51.5 8q-41 0 -59.5 -14.5 t-28.5 -51.5q-6 -25 -11 -54.5t-8.5 -86.5t-4.5 -152.5t-1 -246.5q0 -154 1 -252.5t4.5 -157.5t8.5 -92t11 -58q10 -35 29.5 -50t66.5 -15q37 0 56.5 21.5t29.5 62.5t15.5 95t5.5 126v63.5t-2 59.5h170q4 -35 4 -70v-69q0 -121 -13.5 -211t-45 -150.5t-85 -90.5t-135.5 -30 q-109 0 -164 28t-84 99q-14 33 -24 78t-16.5 121t-9.5 192.5t-3 296.5zM146 -477l114 393h162v-10l-145 -393h-131v10z" />
<glyph unicode="&#xc8;" horiz-adv-x="602" d="M61 0zM61 1959v11h166l166 -346v-9h-135zM68 0v1550h479v-184h-299v-487h295v-177h-295v-509h297v-193h-477z" />
<glyph unicode="&#xc9;" horiz-adv-x="602" d="M68 0v1550h479v-184h-299v-487h295v-177h-295v-509h297v-193h-477zM68 0zM226 1615v9l164 346h165v-11l-194 -344h-135z" />
<glyph unicode="&#xca;" horiz-adv-x="602" d="M57 0zM58 1615v9l188 346h125l190 -346v-9h-151l-94 187h-15l-94 -187h-149zM68 0v1550h479v-184h-299v-487h295v-177h-295v-509h297v-193h-477z" />
<glyph unicode="&#xcb;" horiz-adv-x="602" d="M68 0v1550h479v-184h-299v-487h295v-177h-295v-509h297v-193h-477zM68 0zM78 1669v229h157v-229h-157zM381 1669v229h157v-229h-157z" />
<glyph unicode="&#xcc;" horiz-adv-x="356" d="M-54 1959v11h166l166 -346v-9h-135zM0 0zM101 0v1550h186v-1550h-186z" />
<glyph unicode="&#xcd;" horiz-adv-x="337" d="M70 0v1550h186v-1550h-186zM70 0zM80 1615v9l164 346h165v-11l-194 -344h-135z" />
<glyph unicode="&#xce;" horiz-adv-x="374" d="M-63 1615v9l188 346h125l190 -346v-9h-151l-94 187h-15l-94 -187h-149zM0 0zM95 0v1550h186v-1550h-186z" />
<glyph unicode="&#xcf;" horiz-adv-x="370" d="M-45 1669v229h157v-229h-157zM0 0zM93 0v1550h186v-1550h-186zM258 1669v229h157v-229h-157z" />
<glyph unicode="&#xd0;" horiz-adv-x="708" d="M14 702v177h54v671h301q104 0 157.5 -26.5t83.5 -96.5q14 -35 24.5 -74.5t16.5 -109t8.5 -180.5t2.5 -287q0 -182 -3.5 -294.5t-9.5 -181.5t-15 -107.5t-24 -71.5q-29 -70 -82 -95.5t-159 -25.5h-301v702h-54zM248 190h117q41 0 60 13.5t30 48.5q6 23 11 51.5t7 83.5 t3 147.5t1 243.5q0 147 -1 238.5t-3 148t-6 86t-12 52.5q-12 35 -32 49t-58 14h-117v-487h145v-177h-145v-512z" />
<glyph unicode="&#xd1;" horiz-adv-x="716" d="M66 0v1550h208q45 -172 78 -293.5t54.5 -204.5t35 -133.5t20.5 -80t10 -45t5 -27.5h10q-2 39 -2 80v110v594h168v-1550h-94q-68 225 -117 387t-82.5 274.5t-54 184.5t-34 117t-20.5 70.5t-11 45.5h-11q2 -66 2 -137.5v-157.5v-784h-165zM66 0zM72 1679v139q20 37 59 60.5 t88 23.5q80 0 145 -43q43 -29 68 -40t64 -11t74.5 21.5t64.5 68.5h10v-137q-29 -47 -69 -66.5t-91 -19.5q-41 0 -81 15.5t-74 41.5q-29 23 -52.5 30t-60.5 7q-41 0 -75 -24.5t-62 -65.5h-8z" />
<glyph unicode="&#xd2;" d="M49 0zM49 776q0 182 3 297t9.5 186.5t16.5 112.5t24 78q29 72 82.5 99.5t157.5 27.5t157.5 -27.5t82.5 -99.5q14 -37 24 -78t16.5 -112.5t9.5 -186.5t3 -297t-3 -298t-9.5 -187.5t-16.5 -113.5t-24 -77q-29 -72 -82.5 -99.5t-157.5 -27.5t-157.5 27.5t-82.5 99.5 q-14 35 -24 77t-16.5 113.5t-9.5 187.5t-3 298zM94 1959v11h166l166 -346v-9h-135zM229 780q0 -162 1 -258t4.5 -152.5t8.5 -85t11 -53.5q10 -37 28.5 -51t59.5 -14t59.5 14t28.5 51q6 25 10 53.5t7.5 85t5.5 152.5t2 258t-1 259.5t-4.5 153.5t-7.5 84t-10 52 q-10 37 -29.5 52.5t-60.5 15.5t-59.5 -15.5t-28.5 -50.5q-6 -25 -11 -53.5t-8.5 -84.5t-4.5 -153.5t-1 -259.5z" />
<glyph unicode="&#xd3;" d="M49 0zM49 776q0 182 3 297t9.5 186.5t16.5 112.5t24 78q29 72 82.5 99.5t157.5 27.5t157.5 -27.5t82.5 -99.5q14 -37 24 -78t16.5 -112.5t9.5 -186.5t3 -297t-3 -298t-9.5 -187.5t-16.5 -113.5t-24 -77q-29 -72 -82.5 -99.5t-157.5 -27.5t-157.5 27.5t-82.5 99.5 q-14 35 -24 77t-16.5 113.5t-9.5 187.5t-3 298zM229 780q0 -162 1 -258t4.5 -152.5t8.5 -85t11 -53.5q10 -37 28.5 -51t59.5 -14t59.5 14t28.5 51q6 25 10 53.5t7.5 85t5.5 152.5t2 258t-1 259.5t-4.5 153.5t-7.5 84t-10 52q-10 37 -29.5 52.5t-60.5 15.5t-59.5 -15.5 t-28.5 -50.5q-6 -25 -11 -53.5t-8.5 -84.5t-4.5 -153.5t-1 -259.5zM258 1615v9l164 346h165v-11l-194 -344h-135z" />
<glyph unicode="&#xd4;" d="M49 0zM49 776q0 182 3 297t9.5 186.5t16.5 112.5t24 78q29 72 82.5 99.5t157.5 27.5t157.5 -27.5t82.5 -99.5q14 -37 24 -78t16.5 -112.5t9.5 -186.5t3 -297t-3 -298t-9.5 -187.5t-16.5 -113.5t-24 -77q-29 -72 -82.5 -99.5t-157.5 -27.5t-157.5 27.5t-82.5 99.5 q-14 35 -24 77t-16.5 113.5t-9.5 187.5t-3 298zM91 1615v9l188 346h125l190 -346v-9h-151l-94 187h-15l-94 -187h-149zM229 780q0 -162 1 -258t4.5 -152.5t8.5 -85t11 -53.5q10 -37 28.5 -51t59.5 -14t59.5 14t28.5 51q6 25 10 53.5t7.5 85t5.5 152.5t2 258t-1 259.5 t-4.5 153.5t-7.5 84t-10 52q-10 37 -29.5 52.5t-60.5 15.5t-59.5 -15.5t-28.5 -50.5q-6 -25 -11 -53.5t-8.5 -84.5t-4.5 -153.5t-1 -259.5z" />
<glyph unicode="&#xd5;" d="M49 0zM49 776q0 182 3 297t9.5 186.5t16.5 112.5t24 78q29 72 82.5 99.5t157.5 27.5t157.5 -27.5t82.5 -99.5q14 -37 24 -78t16.5 -112.5t9.5 -186.5t3 -297t-3 -298t-9.5 -187.5t-16.5 -113.5t-24 -77q-29 -72 -82.5 -99.5t-157.5 -27.5t-157.5 27.5t-82.5 99.5 q-14 35 -24 77t-16.5 113.5t-9.5 187.5t-3 298zM56 1679v139q20 37 59 60.5t88 23.5q80 0 145 -43q43 -29 68 -40t64 -11t74.5 21.5t64.5 68.5h10v-137q-29 -47 -69 -66.5t-91 -19.5q-41 0 -81 15.5t-74 41.5q-29 23 -52.5 30t-60.5 7q-41 0 -75 -24.5t-62 -65.5h-8z M229 780q0 -162 1 -258t4.5 -152.5t8.5 -85t11 -53.5q10 -37 28.5 -51t59.5 -14t59.5 14t28.5 51q6 25 10 53.5t7.5 85t5.5 152.5t2 258t-1 259.5t-4.5 153.5t-7.5 84t-10 52q-10 37 -29.5 52.5t-60.5 15.5t-59.5 -15.5t-28.5 -50.5q-6 -25 -11 -53.5t-8.5 -84.5 t-4.5 -153.5t-1 -259.5z" />
<glyph unicode="&#xd6;" d="M49 0zM49 776q0 182 3 297t9.5 186.5t16.5 112.5t24 78q29 72 82.5 99.5t157.5 27.5t157.5 -27.5t82.5 -99.5q14 -37 24 -78t16.5 -112.5t9.5 -186.5t3 -297t-3 -298t-9.5 -187.5t-16.5 -113.5t-24 -77q-29 -72 -82.5 -99.5t-157.5 -27.5t-157.5 27.5t-82.5 99.5 q-14 35 -24 77t-16.5 113.5t-9.5 187.5t-3 298zM111 1669v229h157v-229h-157zM229 780q0 -162 1 -258t4.5 -152.5t8.5 -85t11 -53.5q10 -37 28.5 -51t59.5 -14t59.5 14t28.5 51q6 25 10 53.5t7.5 85t5.5 152.5t2 258t-1 259.5t-4.5 153.5t-7.5 84t-10 52q-10 37 -29.5 52.5 t-60.5 15.5t-59.5 -15.5t-28.5 -50.5q-6 -25 -11 -53.5t-8.5 -84.5t-4.5 -153.5t-1 -259.5zM414 1669v229h157v-229h-157z" />
<glyph unicode="&#xd7;" d="M61 596l181 180l-179 178l99 101l178 -181l180 181l98 -101l-178 -178l183 -180l-101 -100l-180 180l-180 -180z" />
<glyph unicode="&#xd8;" d="M49 776q0 182 3 297t9.5 186.5t16.5 112.5t24 78q29 72 82.5 99.5t157.5 27.5q78 0 123 -14l41 184h94l-53 -238q10 -12 18 -27.5t17 -31.5q14 -37 24 -78t16.5 -112.5t9.5 -186.5t3 -297t-3 -298t-9.5 -187.5t-16.5 -113.5t-24 -77q-29 -72 -82.5 -99.5t-157.5 -27.5 q-84 0 -131 17l-55 -256h-95l70 313q-10 10 -16 23.5t-13 29.5q-14 35 -24 77t-16.5 113.5t-9.5 187.5t-3 298zM225 444h8q4 25 9.5 51.5t13.5 66.5t20.5 101.5t32 154.5t46 225.5t65.5 316.5q-20 37 -78 37q-41 0 -59.5 -15.5t-28.5 -50.5q-6 -25 -11 -53.5t-8.5 -84.5 t-4.5 -153.5t-1 -259.5v-180t-4 -156zM260 209q10 -25 28.5 -34t53.5 -9q41 0 59.5 14.5t28.5 50.5q6 25 10 53.5t7.5 85t5.5 152.5t2 258v180t4 152h-8q-4 -39 -13.5 -87t-29 -143.5t-55.5 -255t-93 -417.5z" />
<glyph unicode="&#xd9;" horiz-adv-x="698" d="M55 0zM55 430v1120h187v-1120q0 -61 1 -99t3 -62.5t7 -39t13 -28.5q12 -20 31.5 -27.5t54.5 -7.5t53.5 7t30.5 28q8 14 13.5 28.5t7.5 39t3 62.5t1 99v1120h180v-1120q0 -78 -1 -131t-4 -92t-11.5 -67.5t-22.5 -57.5q-31 -61 -87 -85t-165 -24q-111 0 -167 23.5t-87 85.5 q-14 29 -22 57.5t-12.5 67.5t-5.5 92t-1 131zM104 1959v11h166l166 -346v-9h-135z" />
<glyph unicode="&#xda;" horiz-adv-x="698" d="M55 0zM55 430v1120h187v-1120q0 -61 1 -99t3 -62.5t7 -39t13 -28.5q12 -20 31.5 -27.5t54.5 -7.5t53.5 7t30.5 28q8 14 13.5 28.5t7.5 39t3 62.5t1 99v1120h180v-1120q0 -78 -1 -131t-4 -92t-11.5 -67.5t-22.5 -57.5q-31 -61 -87 -85t-165 -24q-111 0 -167 23.5t-87 85.5 q-14 29 -22 57.5t-12.5 67.5t-5.5 92t-1 131zM269 1615v9l164 346h165v-11l-194 -344h-135z" />
<glyph unicode="&#xdb;" horiz-adv-x="698" d="M55 0zM55 430v1120h187v-1120q0 -61 1 -99t3 -62.5t7 -39t13 -28.5q12 -20 31.5 -27.5t54.5 -7.5t53.5 7t30.5 28q8 14 13.5 28.5t7.5 39t3 62.5t1 99v1120h180v-1120q0 -78 -1 -131t-4 -92t-11.5 -67.5t-22.5 -57.5q-31 -61 -87 -85t-165 -24q-111 0 -167 23.5t-87 85.5 q-14 29 -22 57.5t-12.5 67.5t-5.5 92t-1 131zM101 1615v9l188 346h125l190 -346v-9h-151l-94 187h-15l-94 -187h-149z" />
<glyph unicode="&#xdc;" horiz-adv-x="698" d="M55 0zM55 430v1120h187v-1120q0 -61 1 -99t3 -62.5t7 -39t13 -28.5q12 -20 31.5 -27.5t54.5 -7.5t53.5 7t30.5 28q8 14 13.5 28.5t7.5 39t3 62.5t1 99v1120h180v-1120q0 -78 -1 -131t-4 -92t-11.5 -67.5t-22.5 -57.5q-31 -61 -87 -85t-165 -24q-111 0 -167 23.5t-87 85.5 q-14 29 -22 57.5t-12.5 67.5t-5.5 92t-1 131zM119 1669v229h157v-229h-157zM422 1669v229h157v-229h-157z" />
<glyph unicode="&#xdd;" horiz-adv-x="665" d="M18 0zM18 1540v10h183q39 -180 62.5 -288.5t35.5 -171t17.5 -90t9.5 -46.5h14q2 18 8 46t19.5 90.5t37 171t64.5 288.5h178v-10l-215 -862v-678h-194v676zM252 1615v9l164 346h165v-11l-194 -344h-135z" />
<glyph unicode="&#xde;" horiz-adv-x="681" d="M68 0v1550h180v-237h143q74 0 121 -25.5t74.5 -87t39 -164t11.5 -258.5q0 -152 -11.5 -257t-39 -170.5t-74.5 -94.5t-121 -29h-143v-227h-180zM248 408h114q27 0 44.5 10t27.5 49t15.5 112.5t5.5 202.5q0 117 -5.5 186.5t-15.5 105.5t-29.5 46t-46.5 10h-110v-722z" />
<glyph unicode="&#xdf;" horiz-adv-x="970" d="M111 0v1257q0 80 9 138.5t39.5 95.5t88 54.5t151.5 17.5q92 0 146.5 -17.5t82 -54.5t36 -95.5t8.5 -138.5v-163q0 -47 7 -64.5t30 -36.5q39 -35 78.5 -60.5t72.5 -58.5q23 -23 31 -37t16 -38q4 -16 7.5 -31.5t4.5 -41.5t2 -68t1 -109q0 -133 -3.5 -217t-9.5 -134.5 t-15 -78t-22 -49.5q-29 -57 -75.5 -77t-147.5 -20q-49 0 -83 2t-57.5 10.5t-39.5 25t-31 42.5q-12 23 -19 47.5t-12.5 58.5t-6.5 79t-1 106q0 33 1 52.5t6 41.5h151q-4 -16 -4 -29.5v-31.5v-75t2 -51.5t5 -37.5t9 -35q8 -25 23.5 -33t56.5 -8q37 0 53.5 8.5t26.5 32.5 q6 18 11 38t7.5 56.5t3.5 100t1 172.5q0 55 -1 93t-6.5 62.5t-13.5 40t-20 27.5q-29 29 -73 55.5t-81 69.5q-18 23 -28.5 39t-16.5 39q-4 10 -5 21.5t-3 33t-2 56v92.5v65q0 61 -4 91t-15 48q-12 20 -27.5 25.5t-54.5 5.5t-57 -5t-31 -26q-12 -18 -16 -48t-4 -91v-1239h-182 z" />
<glyph unicode="&#xe0;" horiz-adv-x="669" d="M33 0l153 1550h308l143 -1550h-186l-35 422h-166l-35 -422h-182zM33 0zM86 1959v11h166l166 -346v-9h-135zM258 600h150l-50 582q-4 47 -8 92t-8 92h-14q-4 -47 -8.5 -92t-8.5 -92z" />
<glyph unicode="&#xe1;" horiz-adv-x="669" d="M33 0l153 1550h308l143 -1550h-186l-35 422h-166l-35 -422h-182zM33 0zM254 1615v9l164 346h165v-11l-194 -344h-135zM258 600h150l-50 582q-4 47 -8 92t-8 92h-14q-4 -47 -8.5 -92t-8.5 -92z" />
<glyph unicode="&#xe2;" horiz-adv-x="669" d="M33 0l153 1550h308l143 -1550h-186l-35 422h-166l-35 -422h-182zM33 0zM82 1615v9l188 346h125l190 -346v-9h-151l-94 187h-15l-94 -187h-149zM258 600h150l-50 582q-4 47 -8 92t-8 92h-14q-4 -47 -8.5 -92t-8.5 -92z" />
<glyph unicode="&#xe3;" horiz-adv-x="669" d="M33 0l153 1550h308l143 -1550h-186l-35 422h-166l-35 -422h-182zM33 0zM50 1679v139q20 37 59 60.5t88 23.5q80 0 145 -43q43 -29 68 -40t64 -11t74.5 21.5t64.5 68.5h10v-137q-29 -47 -69 -66.5t-91 -19.5q-41 0 -81 15.5t-74 41.5q-29 23 -52.5 30t-60.5 7 q-41 0 -75 -24.5t-62 -65.5h-8zM258 600h150l-50 582q-4 47 -8 92t-8 92h-14q-4 -47 -8.5 -92t-8.5 -92z" />
<glyph unicode="&#xe4;" horiz-adv-x="669" d="M33 0l153 1550h308l143 -1550h-186l-35 422h-166l-35 -422h-182zM33 0zM105 1669v229h157v-229h-157zM258 600h150l-50 582q-4 47 -8 92t-8 92h-14q-4 -47 -8.5 -92t-8.5 -92zM408 1669v229h157v-229h-157z" />
<glyph unicode="&#xe5;" horiz-adv-x="669" d="M33 0l153 1550h308l143 -1550h-186l-35 422h-166l-35 -422h-182zM33 0zM185 1777q0 43 1 71t4 45t8 27.5t13 18.5q14 16 42 23.5t81 7.5t81 -7.5t42 -23.5q8 -8 13 -18.5t8.5 -27.5t5.5 -45t2 -71t-2 -70.5t-5.5 -45t-9.5 -27t-12 -17.5q-16 -18 -43 -24t-80 -6t-79.5 6 t-43.5 24q-6 8 -11 17.5t-8 27t-5 45t-2 70.5zM258 600h150l-50 582q-4 47 -8 92t-8 92h-14q-4 -47 -8.5 -92t-8.5 -92zM273 1779q0 -63 2 -78.5t8 -21.5t16.5 -8t34.5 -2q25 0 35 2t14 8q6 6 9.5 21.5t3.5 78.5q0 33 -1.5 51.5t-2.5 28.5t-4 14.5t-5 8.5q-4 4 -14 7t-35 3 t-35 -2t-16 -8q-4 -4 -5 -8.5t-3 -14.5t-2 -28.5v-51.5z" />
<glyph unicode="&#xe6;" horiz-adv-x="956" d="M33 0l153 1550h709v-184h-299v-487h295v-177h-295v-509h297v-193h-479v422h-164l-35 -422h-182zM33 0zM258 600h156v768h-86z" />
<glyph unicode="&#xe7;" d="M49 0zM49 788q0 207 5 329t13.5 189.5t18.5 96.5t18 49q29 68 79 96.5t159 28.5q76 0 121 -13.5t78 -45.5q41 -41 63.5 -143.5t22.5 -254.5q0 -41 -1 -71.5t-3 -65.5h-172q2 33 2 57.5v75.5q0 94 -7.5 151.5t-21.5 86.5q-12 27 -30.5 35t-51.5 8q-41 0 -59.5 -14.5 t-28.5 -51.5q-6 -25 -11 -54.5t-8.5 -86.5t-4.5 -152.5t-1 -246.5q0 -154 1 -252.5t4.5 -157.5t8.5 -92t11 -58q10 -35 29.5 -50t66.5 -15q37 0 56.5 21.5t29.5 62.5t15.5 95t5.5 126v63.5t-2 59.5h170q4 -35 4 -70v-69q0 -121 -13.5 -211t-45 -150.5t-85 -90.5t-135.5 -30 q-109 0 -164 28t-84 99q-14 33 -24 78t-16.5 121t-9.5 192.5t-3 296.5zM146 -477l114 393h162v-10l-145 -393h-131v10z" />
<glyph unicode="&#xe8;" horiz-adv-x="602" d="M61 0zM61 1959v11h166l166 -346v-9h-135zM68 0v1550h479v-184h-299v-487h295v-177h-295v-509h297v-193h-477z" />
<glyph unicode="&#xe9;" horiz-adv-x="602" d="M68 0v1550h479v-184h-299v-487h295v-177h-295v-509h297v-193h-477zM68 0zM226 1615v9l164 346h165v-11l-194 -344h-135z" />
<glyph unicode="&#xea;" horiz-adv-x="602" d="M57 0zM58 1615v9l188 346h125l190 -346v-9h-151l-94 187h-15l-94 -187h-149zM68 0v1550h479v-184h-299v-487h295v-177h-295v-509h297v-193h-477z" />
<glyph unicode="&#xeb;" horiz-adv-x="602" d="M68 0v1550h479v-184h-299v-487h295v-177h-295v-509h297v-193h-477zM68 0zM78 1669v229h157v-229h-157zM381 1669v229h157v-229h-157z" />
<glyph unicode="&#xec;" horiz-adv-x="356" d="M-54 1959v11h166l166 -346v-9h-135zM0 0zM101 0v1550h186v-1550h-186z" />
<glyph unicode="&#xed;" horiz-adv-x="337" d="M70 0v1550h186v-1550h-186zM70 0zM80 1615v9l164 346h165v-11l-194 -344h-135z" />
<glyph unicode="&#xee;" horiz-adv-x="374" d="M-63 1615v9l188 346h125l190 -346v-9h-151l-94 187h-15l-94 -187h-149zM0 0zM95 0v1550h186v-1550h-186z" />
<glyph unicode="&#xef;" horiz-adv-x="370" d="M-45 1669v229h157v-229h-157zM0 0zM93 0v1550h186v-1550h-186zM258 1669v229h157v-229h-157z" />
<glyph unicode="&#xf0;" horiz-adv-x="708" d="M14 0zM14 702v177h54v671h301q104 0 157.5 -26.5t83.5 -96.5q14 -35 24.5 -74.5t16.5 -109t8.5 -180.5t2.5 -287q0 -182 -3.5 -294.5t-9.5 -181.5t-15 -107.5t-24 -71.5q-29 -70 -82 -95.5t-159 -25.5h-301v702h-54zM248 190h117q41 0 60 13.5t30 48.5q6 23 11 51.5 t7 83.5t3 147.5t1 243.5q0 147 -1 238.5t-3 148t-6 86t-12 52.5q-12 35 -32 49t-58 14h-117v-487h145v-177h-145v-512z" />
<glyph unicode="&#xf1;" horiz-adv-x="716" d="M66 0v1550h208q45 -172 78 -293.5t54.5 -204.5t35 -133.5t20.5 -80t10 -45t5 -27.5h10q-2 39 -2 80v110v594h168v-1550h-94q-68 225 -117 387t-82.5 274.5t-54 184.5t-34 117t-20.5 70.5t-11 45.5h-11q2 -66 2 -137.5v-157.5v-784h-165zM66 0zM72 1679v139q20 37 59 60.5 t88 23.5q80 0 145 -43q43 -29 68 -40t64 -11t74.5 21.5t64.5 68.5h10v-137q-29 -47 -69 -66.5t-91 -19.5q-41 0 -81 15.5t-74 41.5q-29 23 -52.5 30t-60.5 7q-41 0 -75 -24.5t-62 -65.5h-8z" />
<glyph unicode="&#xf2;" d="M49 0zM49 776q0 182 3 297t9.5 186.5t16.5 112.5t24 78q29 72 82.5 99.5t157.5 27.5t157.5 -27.5t82.5 -99.5q14 -37 24 -78t16.5 -112.5t9.5 -186.5t3 -297t-3 -298t-9.5 -187.5t-16.5 -113.5t-24 -77q-29 -72 -82.5 -99.5t-157.5 -27.5t-157.5 27.5t-82.5 99.5 q-14 35 -24 77t-16.5 113.5t-9.5 187.5t-3 298zM94 1959v11h166l166 -346v-9h-135zM229 780q0 -162 1 -258t4.5 -152.5t8.5 -85t11 -53.5q10 -37 28.5 -51t59.5 -14t59.5 14t28.5 51q6 25 10 53.5t7.5 85t5.5 152.5t2 258t-1 259.5t-4.5 153.5t-7.5 84t-10 52 q-10 37 -29.5 52.5t-60.5 15.5t-59.5 -15.5t-28.5 -50.5q-6 -25 -11 -53.5t-8.5 -84.5t-4.5 -153.5t-1 -259.5z" />
<glyph unicode="&#xf3;" d="M49 0zM49 776q0 182 3 297t9.5 186.5t16.5 112.5t24 78q29 72 82.5 99.5t157.5 27.5t157.5 -27.5t82.5 -99.5q14 -37 24 -78t16.5 -112.5t9.5 -186.5t3 -297t-3 -298t-9.5 -187.5t-16.5 -113.5t-24 -77q-29 -72 -82.5 -99.5t-157.5 -27.5t-157.5 27.5t-82.5 99.5 q-14 35 -24 77t-16.5 113.5t-9.5 187.5t-3 298zM229 780q0 -162 1 -258t4.5 -152.5t8.5 -85t11 -53.5q10 -37 28.5 -51t59.5 -14t59.5 14t28.5 51q6 25 10 53.5t7.5 85t5.5 152.5t2 258t-1 259.5t-4.5 153.5t-7.5 84t-10 52q-10 37 -29.5 52.5t-60.5 15.5t-59.5 -15.5 t-28.5 -50.5q-6 -25 -11 -53.5t-8.5 -84.5t-4.5 -153.5t-1 -259.5zM258 1615v9l164 346h165v-11l-194 -344h-135z" />
<glyph unicode="&#xf4;" d="M49 0zM49 776q0 182 3 297t9.5 186.5t16.5 112.5t24 78q29 72 82.5 99.5t157.5 27.5t157.5 -27.5t82.5 -99.5q14 -37 24 -78t16.5 -112.5t9.5 -186.5t3 -297t-3 -298t-9.5 -187.5t-16.5 -113.5t-24 -77q-29 -72 -82.5 -99.5t-157.5 -27.5t-157.5 27.5t-82.5 99.5 q-14 35 -24 77t-16.5 113.5t-9.5 187.5t-3 298zM91 1615v9l188 346h125l190 -346v-9h-151l-94 187h-15l-94 -187h-149zM229 780q0 -162 1 -258t4.5 -152.5t8.5 -85t11 -53.5q10 -37 28.5 -51t59.5 -14t59.5 14t28.5 51q6 25 10 53.5t7.5 85t5.5 152.5t2 258t-1 259.5 t-4.5 153.5t-7.5 84t-10 52q-10 37 -29.5 52.5t-60.5 15.5t-59.5 -15.5t-28.5 -50.5q-6 -25 -11 -53.5t-8.5 -84.5t-4.5 -153.5t-1 -259.5z" />
<glyph unicode="&#xf5;" d="M49 0zM49 776q0 182 3 297t9.5 186.5t16.5 112.5t24 78q29 72 82.5 99.5t157.5 27.5t157.5 -27.5t82.5 -99.5q14 -37 24 -78t16.5 -112.5t9.5 -186.5t3 -297t-3 -298t-9.5 -187.5t-16.5 -113.5t-24 -77q-29 -72 -82.5 -99.5t-157.5 -27.5t-157.5 27.5t-82.5 99.5 q-14 35 -24 77t-16.5 113.5t-9.5 187.5t-3 298zM56 1679v139q20 37 59 60.5t88 23.5q80 0 145 -43q43 -29 68 -40t64 -11t74.5 21.5t64.5 68.5h10v-137q-29 -47 -69 -66.5t-91 -19.5q-41 0 -81 15.5t-74 41.5q-29 23 -52.5 30t-60.5 7q-41 0 -75 -24.5t-62 -65.5h-8z M229 780q0 -162 1 -258t4.5 -152.5t8.5 -85t11 -53.5q10 -37 28.5 -51t59.5 -14t59.5 14t28.5 51q6 25 10 53.5t7.5 85t5.5 152.5t2 258t-1 259.5t-4.5 153.5t-7.5 84t-10 52q-10 37 -29.5 52.5t-60.5 15.5t-59.5 -15.5t-28.5 -50.5q-6 -25 -11 -53.5t-8.5 -84.5 t-4.5 -153.5t-1 -259.5z" />
<glyph unicode="&#xf6;" d="M49 0zM49 776q0 182 3 297t9.5 186.5t16.5 112.5t24 78q29 72 82.5 99.5t157.5 27.5t157.5 -27.5t82.5 -99.5q14 -37 24 -78t16.5 -112.5t9.5 -186.5t3 -297t-3 -298t-9.5 -187.5t-16.5 -113.5t-24 -77q-29 -72 -82.5 -99.5t-157.5 -27.5t-157.5 27.5t-82.5 99.5 q-14 35 -24 77t-16.5 113.5t-9.5 187.5t-3 298zM111 1669v229h157v-229h-157zM229 780q0 -162 1 -258t4.5 -152.5t8.5 -85t11 -53.5q10 -37 28.5 -51t59.5 -14t59.5 14t28.5 51q6 25 10 53.5t7.5 85t5.5 152.5t2 258t-1 259.5t-4.5 153.5t-7.5 84t-10 52q-10 37 -29.5 52.5 t-60.5 15.5t-59.5 -15.5t-28.5 -50.5q-6 -25 -11 -53.5t-8.5 -84.5t-4.5 -153.5t-1 -259.5zM414 1669v229h157v-229h-157z" />
<glyph unicode="&#xf7;" d="M39 244zM39 707v139h606v-139h-606zM252 244v258h180v-258h-180zM252 1051v258h180v-258h-180z" />
<glyph unicode="&#xf8;" d="M49 0zM49 776q0 182 3 297t9.5 186.5t16.5 112.5t24 78q29 72 82.5 99.5t157.5 27.5q78 0 123 -14l41 184h94l-53 -238q10 -12 18 -27.5t17 -31.5q14 -37 24 -78t16.5 -112.5t9.5 -186.5t3 -297t-3 -298t-9.5 -187.5t-16.5 -113.5t-24 -77q-29 -72 -82.5 -99.5 t-157.5 -27.5q-84 0 -131 17l-55 -256h-95l70 313q-10 10 -16 23.5t-13 29.5q-14 35 -24 77t-16.5 113.5t-9.5 187.5t-3 298zM225 444h8q4 25 9.5 51.5t13.5 66.5t20.5 101.5t32 154.5t46 225.5t65.5 316.5q-20 37 -78 37q-41 0 -59.5 -15.5t-28.5 -50.5q-6 -25 -11 -53.5 t-8.5 -84.5t-4.5 -153.5t-1 -259.5v-180t-4 -156zM260 209q10 -25 28.5 -34t53.5 -9q41 0 59.5 14.5t28.5 50.5q6 25 10 53.5t7.5 85t5.5 152.5t2 258v180t4 152h-8q-4 -39 -13.5 -87t-29 -143.5t-55.5 -255t-93 -417.5z" />
<glyph unicode="&#xf9;" horiz-adv-x="698" d="M55 0zM55 430v1120h187v-1120q0 -61 1 -99t3 -62.5t7 -39t13 -28.5q12 -20 31.5 -27.5t54.5 -7.5t53.5 7t30.5 28q8 14 13.5 28.5t7.5 39t3 62.5t1 99v1120h180v-1120q0 -78 -1 -131t-4 -92t-11.5 -67.5t-22.5 -57.5q-31 -61 -87 -85t-165 -24q-111 0 -167 23.5t-87 85.5 q-14 29 -22 57.5t-12.5 67.5t-5.5 92t-1 131zM104 1959v11h166l166 -346v-9h-135z" />
<glyph unicode="&#xfa;" horiz-adv-x="698" d="M55 0zM55 430v1120h187v-1120q0 -61 1 -99t3 -62.5t7 -39t13 -28.5q12 -20 31.5 -27.5t54.5 -7.5t53.5 7t30.5 28q8 14 13.5 28.5t7.5 39t3 62.5t1 99v1120h180v-1120q0 -78 -1 -131t-4 -92t-11.5 -67.5t-22.5 -57.5q-31 -61 -87 -85t-165 -24q-111 0 -167 23.5t-87 85.5 q-14 29 -22 57.5t-12.5 67.5t-5.5 92t-1 131zM269 1615v9l164 346h165v-11l-194 -344h-135z" />
<glyph unicode="&#xfb;" horiz-adv-x="698" d="M55 0zM55 430v1120h187v-1120q0 -61 1 -99t3 -62.5t7 -39t13 -28.5q12 -20 31.5 -27.5t54.5 -7.5t53.5 7t30.5 28q8 14 13.5 28.5t7.5 39t3 62.5t1 99v1120h180v-1120q0 -78 -1 -131t-4 -92t-11.5 -67.5t-22.5 -57.5q-31 -61 -87 -85t-165 -24q-111 0 -167 23.5t-87 85.5 q-14 29 -22 57.5t-12.5 67.5t-5.5 92t-1 131zM101 1615v9l188 346h125l190 -346v-9h-151l-94 187h-15l-94 -187h-149z" />
<glyph unicode="&#xfc;" horiz-adv-x="698" d="M55 0zM55 430v1120h187v-1120q0 -61 1 -99t3 -62.5t7 -39t13 -28.5q12 -20 31.5 -27.5t54.5 -7.5t53.5 7t30.5 28q8 14 13.5 28.5t7.5 39t3 62.5t1 99v1120h180v-1120q0 -78 -1 -131t-4 -92t-11.5 -67.5t-22.5 -57.5q-31 -61 -87 -85t-165 -24q-111 0 -167 23.5t-87 85.5 q-14 29 -22 57.5t-12.5 67.5t-5.5 92t-1 131zM119 1669v229h157v-229h-157zM422 1669v229h157v-229h-157z" />
<glyph unicode="&#xfd;" horiz-adv-x="665" d="M18 0zM18 1540v10h183q39 -180 62.5 -288.5t35.5 -171t17.5 -90t9.5 -46.5h14q2 18 8 46t19.5 90.5t37 171t64.5 288.5h178v-10l-215 -862v-678h-194v676zM252 1615v9l164 346h165v-11l-194 -344h-135z" />
<glyph unicode="&#xfe;" horiz-adv-x="681" d="M68 0v1550h180v-237h143q74 0 121 -25.5t74.5 -87t39 -164t11.5 -258.5q0 -152 -11.5 -257t-39 -170.5t-74.5 -94.5t-121 -29h-143v-227h-180zM68 0zM248 408h114q27 0 44.5 10t27.5 49t15.5 112.5t5.5 202.5q0 117 -5.5 186.5t-15.5 105.5t-29.5 46t-46.5 10h-110v-722z " />
<glyph unicode="&#xff;" horiz-adv-x="665" d="M18 0zM18 1540v10h183q39 -180 62.5 -288.5t35.5 -171t17.5 -90t9.5 -46.5h14q2 18 8 46t19.5 90.5t37 171t64.5 288.5h178v-10l-215 -862v-678h-194v676zM103 1669v229h157v-229h-157zM406 1669v229h157v-229h-157z" />
<glyph unicode="&#x152;" horiz-adv-x="1003" d="M49 776q0 176 2 287t8.5 179.5t16.5 109.5t26 75q29 70 83.5 96.5t156.5 26.5h602v-184h-301v-487h295v-177h-295v-509h299v-193h-600q-109 0 -162 24.5t-80 96.5q-12 35 -22 72.5t-16.5 106.5t-9.5 181.5t-3 294.5zM233 778q0 -152 1.5 -244t4.5 -147t8 -83t11 -52 q10 -35 28.5 -48.5t59.5 -13.5h117v1176h-117q-41 0 -59.5 -14.5t-28.5 -48.5q-8 -23 -12 -52.5t-7 -85t-4.5 -147.5t-1.5 -240z" />
<glyph unicode="&#x153;" horiz-adv-x="1003" d="M49 0zM49 776q0 176 2 287t8.5 179.5t16.5 109.5t26 75q29 70 83.5 96.5t156.5 26.5h602v-184h-301v-487h295v-177h-295v-509h299v-193h-600q-109 0 -162 24.5t-80 96.5q-12 35 -22 72.5t-16.5 106.5t-9.5 181.5t-3 294.5zM233 778q0 -152 1.5 -244t4.5 -147t8 -83 t11 -52q10 -35 28.5 -48.5t59.5 -13.5h117v1176h-117q-41 0 -59.5 -14.5t-28.5 -48.5q-8 -23 -12 -52.5t-7 -85t-4.5 -147.5t-1.5 -240z" />
<glyph unicode="&#x178;" horiz-adv-x="665" d="M18 0zM18 1540v10h183q39 -180 62.5 -288.5t35.5 -171t17.5 -90t9.5 -46.5h14q2 18 8 46t19.5 90.5t37 171t64.5 288.5h178v-10l-215 -862v-678h-194v676zM103 1669v229h157v-229h-157zM406 1669v229h157v-229h-157z" />
<glyph unicode="&#x2c6;" horiz-adv-x="638" d="M68 1212v9l188 346h125l190 -346v-9h-151l-94 187h-15l-94 -187h-149z" />
<glyph unicode="&#x2dc;" horiz-adv-x="708" d="M68 1276v139q20 37 59 60.5t88 23.5q80 0 145 -43q43 -29 68 -40t64 -11t74.5 21.5t64.5 68.5h10v-137q-29 -47 -69 -66.5t-91 -19.5q-41 0 -81 15.5t-74 41.5q-29 23 -52.5 30t-60.5 7q-41 0 -75 -24.5t-62 -65.5h-8z" />
<glyph unicode="&#x2000;" horiz-adv-x="985" />
<glyph unicode="&#x2001;" horiz-adv-x="1970" />
<glyph unicode="&#x2002;" horiz-adv-x="985" />
<glyph unicode="&#x2003;" horiz-adv-x="1970" />
<glyph unicode="&#x2004;" horiz-adv-x="656" />
<glyph unicode="&#x2005;" horiz-adv-x="492" />
<glyph unicode="&#x2006;" horiz-adv-x="328" />
<glyph unicode="&#x2007;" horiz-adv-x="328" />
<glyph unicode="&#x2008;" horiz-adv-x="246" />
<glyph unicode="&#x2009;" horiz-adv-x="394" />
<glyph unicode="&#x200a;" horiz-adv-x="109" />
<glyph unicode="&#x2010;" horiz-adv-x="557" d="M45 707v147h465v-147h-465z" />
<glyph unicode="&#x2011;" horiz-adv-x="557" d="M45 707v147h465v-147h-465z" />
<glyph unicode="&#x2012;" horiz-adv-x="557" d="M45 707v147h465v-147h-465z" />
<glyph unicode="&#x2013;" horiz-adv-x="823" d="M45 707v147h731v-147h-731z" />
<glyph unicode="&#x2014;" horiz-adv-x="1132" d="M45 707v147h1040v-147h-1040z" />
<glyph unicode="&#x2018;" horiz-adv-x="319" d="M68 1065v250l92 299h86v-10l-60 -289l4 -12h62v-238h-184z" />
<glyph unicode="&#x2019;" horiz-adv-x="319" d="M68 1376v238h184v-250l-92 -299h-86v10l59 289l-4 12h-61z" />
<glyph unicode="&#x201a;" horiz-adv-x="319" d="M68 20v238h184v-250l-92 -299h-86v10l59 289l-4 12h-61z" />
<glyph unicode="&#x201c;" horiz-adv-x="638" d="M68 1065v250l92 299h86v-10l-60 -289l4 -12h62v-238h-184zM68 1065zM387 1065v250l92 299h86v-10l-60 -289l4 -12h62v-238h-184z" />
<glyph unicode="&#x201d;" horiz-adv-x="638" d="M68 1065zM68 1376v238h184v-250l-92 -299h-86v10l59 289l-4 12h-61zM387 1376v238h184v-250l-92 -299h-86v10l59 289l-4 12h-61z" />
<glyph unicode="&#x201e;" horiz-adv-x="638" d="M68 0zM68 20v238h184v-250l-92 -299h-86v10l59 289l-4 12h-61zM387 20v238h184v-250l-92 -299h-86v10l59 289l-4 12h-61z" />
<glyph unicode="&#x2022;" horiz-adv-x="516" d="M68 766q0 49 2 80t5 51.5t9 31.5t16 21q18 18 55.5 25.5t102.5 7.5q68 0 103.5 -7t54.5 -26q8 -10 15 -21t10 -31.5t5.5 -51.5t2.5 -80t-2.5 -80t-5.5 -50.5t-10 -30.5t-15 -21q-18 -18 -54 -26.5t-104 -8.5q-66 0 -102.5 8t-55.5 27q-8 8 -14 19t-10 31.5t-6 51.5t-2 80 z" />
<glyph unicode="&#x2026;" horiz-adv-x="1083" d="M86 0v258h180v-258h-180zM86 0zM451 0v258h180v-258h-180zM816 0v258h180v-258h-180z" />
<glyph unicode="&#x202f;" horiz-adv-x="394" />
<glyph unicode="&#x2039;" horiz-adv-x="391" d="M45 719v119l289 295h8v-172l-186 -177v-14l186 -174v-170h-8z" />
<glyph unicode="&#x203a;" horiz-adv-x="391" d="M45 426v172l186 176v14l-186 175v170h8l289 -293v-119l-289 -295h-8z" />
<glyph unicode="&#x205f;" horiz-adv-x="492" />
<glyph unicode="&#x20ac;" d="M29 580l18 127h49v159h-67l18 127h49q0 135 2 216t8.5 131.5t17.5 81t30 61.5q35 57 85 75.5t136 18.5q57 0 97 -9t67.5 -23.5t43 -31t23.5 -30.5l-39 -176h-10q-20 41 -52 67.5t-91 26.5q-57 0 -82 -7.5t-41 -35.5q-8 -12 -13.5 -30.5t-8.5 -56.5t-4 -103.5t-1 -174.5 h260l-18 -127h-242v-159h213l-16 -127h-197q0 -100 1 -164t3 -105t6.5 -64.5t10.5 -43.5q8 -27 25.5 -35t72.5 -8q66 0 80 26q10 16 12 35t2 60q0 51 -1 78.5t-5 64.5h168q4 -37 5 -64.5t1 -78.5q0 -78 -10 -135.5t-39 -95.5t-79 -57.5t-130 -19.5q-92 0 -149.5 17.5t-88 80 t-42 183.5t-11.5 326h-67z" />
<glyph unicode="&#x2122;" horiz-adv-x="1091" d="M43 1442v108h356v-108h-116v-627h-123v627h-117zM449 815v735h186l90 -465h16l101 465h182v-735h-115v539h-14l-125 -539h-68l-124 539h-15v-539h-114z" />
<glyph unicode="&#x25fc;" horiz-adv-x="1546" d="M0 0v1546h1546v-1546h-1546z" />
</font>
</defs>
</svg>
