<?xml version="1.0" standalone="no"?><!-- Generator: Gravit.io --><svg xmlns="http://www.w3.org/2000/svg" xmlns:xlink="http://www.w3.org/1999/xlink" style="isolation:isolate" viewBox="0 0 300 300" width="300" height="300"><defs><clipPath id="_clipPath_9J8O3p51az6RzxbFgo1F2BjWyVkLG7HX"><rect width="300" height="300"/></clipPath></defs><g clip-path="url(#_clipPath_9J8O3p51az6RzxbFgo1F2BjWyVkLG7HX)"><path d=" M 11.255 107.789 L 245.048 107.789 C 251.608 107.789 256.933 113.114 256.933 119.674 L 256.933 246.112 C 256.933 275.854 232.787 300 203.045 300 L 52.758 300 C 23.64 300 0 276.36 0 247.242 L 0 119.043 C 0 112.832 5.043 107.789 11.255 107.789 Z " fill="rgb(47,47,47)"/><path d=" M 10.106 107.789 L 196.499 107.789 C 202.389 107.789 207.171 112.571 207.171 118.461 L 207.171 251.611 C 207.171 278.318 185.489 300 158.782 300 L 47.374 300 C 21.228 300 0 278.772 0 252.626 L 0 117.895 C 0 112.317 4.529 107.789 10.106 107.789 Z " fill="rgb(64,64,64)"/><path d="M 243.394 139.824 L 270.472 139.824 C 280.946 139.824 289.45 148.327 289.45 158.801 L 289.45 226.253 C 289.45 236.727 280.946 245.23 270.472 245.23 L 243.394 245.23 C 232.92 245.23 224.417 236.727 224.417 226.253 L 224.417 158.801 C 224.417 148.327 232.92 139.824 243.394 139.824 Z" style="fill:none;stroke:#2F2F2F;stroke-width:20;stroke-linecap:square;stroke-miterlimit:3;"/><path d=" M 79.237 101.415 Q 78.937 -8.31 192.245 14.61 Q 305.553 37.529 280.733 14.61 Q 319.808 40.513 183.717 47.678 Q 47.625 54.843 207.171 101.415 L 79.237 101.415 Z " fill="rgb(200,200,200)"/><path d=" M 65.033 101.415 Q 50.762 34.499 93.818 4.449 Q 32.904 32.637 25.587 101.415 L 65.033 101.415 Z " fill="rgb(200,200,200)"/><path d=" M 65.033 101.415 Q 63.7 29.767 125.801 0.315 Q 56.535 -5.656 37.314 101.415 L 65.033 101.415 Z " fill="rgb(151,147,147)"/><path d=" M 224.417 101.415 Q 129.38 69.39 154.586 59.219 C 179.793 49.048 338.399 55.483 280.733 14.61 Q 319.989 43.295 170.578 40.618 C 95.497 39.273 106.754 85.535 187.636 101.415 L 224.417 101.415 Z " fill="rgb(151,147,147)"/></g></svg>