<?xml version="1.0" standalone="no"?><!-- Generator: Gravit.io --><svg xmlns="http://www.w3.org/2000/svg" xmlns:xlink="http://www.w3.org/1999/xlink" style="isolation:isolate" viewBox="0 0 300 300" width="300" height="300"><defs><clipPath id="_clipPath_X0OeyYkFyLyNoRxqPBW7q7Ckt9WEIiOH"><rect width="300" height="300"/></clipPath></defs><g clip-path="url(#_clipPath_X0OeyYkFyLyNoRxqPBW7q7Ckt9WEIiOH)"><path d=" M 11.255 107.789 L 245.048 107.789 C 251.608 107.789 256.933 113.114 256.933 119.674 L 256.933 246.112 C 256.933 275.854 232.787 300 203.045 300 L 52.758 300 C 23.64 300 0 276.36 0 247.242 L 0 119.043 C 0 112.832 5.043 107.789 11.255 107.789 Z " fill="rgb(231,76,60)"/><path d=" M 10.106 107.789 L 196.499 107.789 C 202.389 107.789 207.171 112.571 207.171 118.461 L 207.171 251.611 C 207.171 278.318 185.489 300 158.782 300 L 47.374 300 C 21.228 300 0 278.772 0 252.626 L 0 117.895 C 0 112.317 4.529 107.789 10.106 107.789 Z " fill="rgb(236,112,99)"/><path d=" M 243.39 129.82 L 270.47 129.82 C 278.15 129.82 285.53 132.88 290.96 138.31 C 296.39 143.74 299.45 151.12 299.45 158.8 L 299.45 226.25 C 299.45 233.93 296.39 241.31 290.96 246.74 C 285.53 252.17 278.15 255.23 270.47 255.23 L 243.39 255.23 C 235.71 255.23 228.34 252.17 222.9 246.74 C 217.47 241.31 214.42 233.93 214.42 226.25 L 214.42 158.8 C 214.42 151.12 217.47 143.74 222.9 138.31 C 228.34 132.88 235.71 129.82 243.39 129.82 Z  M 243.39 149.82 L 270.47 149.82 C 272.85 149.82 275.14 150.77 276.82 152.45 C 278.5 154.14 279.45 156.42 279.45 158.8 L 279.45 226.25 C 279.45 228.63 278.5 230.92 276.82 232.6 C 275.14 234.28 272.85 235.23 270.47 235.23 L 243.39 235.23 C 241.01 235.23 238.73 234.28 237.05 232.6 C 235.36 230.92 234.42 228.63 234.42 226.25 L 234.42 158.8 C 234.42 156.42 235.36 154.14 237.05 152.45 C 238.73 150.77 241.01 149.82 243.39 149.82 Z " fill-rule="evenodd" fill="rgb(231,76,60)"/><path d=" M 79.237 101.415 Q 78.937 -8.31 192.245 14.61 Q 305.553 37.529 280.733 14.61 Q 319.808 40.513 183.717 47.678 Q 47.625 54.843 207.171 101.415 L 79.237 101.415 Z " fill="rgb(200,200,200)"/><path d=" M 65.033 101.415 Q 50.762 34.499 93.818 4.449 Q 32.904 32.637 25.587 101.415 L 65.033 101.415 Z " fill="rgb(200,200,200)"/><path d=" M 65.033 101.415 Q 63.7 29.767 125.801 0.315 Q 56.535 -5.656 37.314 101.415 L 65.033 101.415 Z " fill="rgb(151,147,147)"/><path d=" M 224.417 101.415 Q 129.38 69.39 154.586 59.219 C 179.793 49.048 338.399 55.483 280.733 14.61 Q 319.989 43.295 170.578 40.618 C 95.497 39.273 106.754 85.535 187.636 101.415 L 224.417 101.415 Z " fill="rgb(151,147,147)"/></g></svg>