<?xml version="1.0" encoding="utf-8"?>
<!-- Generator: Adobe Illustrator 16.0.0, SVG Export Plug-In . SVG Version: 6.00 Build 0)  -->
<!DOCTYPE svg PUBLIC "-//W3C//DTD SVG 1.1//EN" "http://www.w3.org/Graphics/SVG/1.1/DTD/svg11.dtd">
<svg version="1.1" id="Calque_1" xmlns="http://www.w3.org/2000/svg" xmlns:xlink="http://www.w3.org/1999/xlink" x="0px" y="0px"
	 width="265px" height="300px" viewBox="17.5 0 265 300" enable-background="new 17.5 0 265 300" xml:space="preserve">
<g>
	<g>
		<g>
			<path fill="#00ADEE" d="M121.769,294.872c-40.976,0-74.312-33.337-74.312-74.313c0-40.978,33.336-74.316,74.312-74.316
				c40.978,0,74.315,33.338,74.315,74.316C196.085,261.535,162.747,294.872,121.769,294.872z"/>
			<path fill="#FFFFFF" d="M121.769,149.383c39.313,0,71.176,31.865,71.176,71.176c0,39.309-31.863,71.174-71.176,71.174
				s-71.172-31.865-71.172-71.174C50.597,181.248,82.457,149.383,121.769,149.383 M121.769,143.103
				c-42.707,0-77.452,34.747-77.452,77.456c0,42.708,34.745,77.454,77.452,77.454c42.709,0,77.456-34.746,77.456-77.454
				C199.225,177.85,164.478,143.103,121.769,143.103L121.769,143.103z"/>
		</g>
		<g>
			<path fill="#FFFFFF" d="M177.164,217.268h-9.965v-9.898h-9.641v9.898h-9.961v9.619h9.961v10.049h9.641v-10.049h9.965V217.268z"/>
			<path fill="#FFFFFF" d="M103.769,217.197v11.766c0,0,16.859,0.053,19.516,0.053c-2.305,8.779-10.168,14.492-19.516,14.492
				c-11.859,0-21.465-9.617-21.465-21.471c0-11.855,9.605-21.477,21.465-21.477c5.289,0,10.121,1.91,13.863,5.076l9.016-9.139
				c-6.074-5.443-14.09-8.748-22.879-8.748c-18.918,0-34.27,15.35-34.27,34.283s15.352,34.283,34.27,34.283
				c18.941,0,35.289-14.891,32.523-39.135L103.769,217.197z"/>
		</g>
	</g>
	<g>
		<g>
			<path fill="#FAAF40" d="M163.636,194.932c-12.122,0-21.984-9.861-21.984-21.982V85.025c0-12.12,9.862-21.98,21.984-21.98h87.922
				c12.12,0,21.98,9.86,21.98,21.98v87.924c0,12.121-9.86,21.982-21.98,21.982H163.636z"/>
			<path fill="#FFFFFF" d="M251.558,66.186c10.402,0,18.84,8.436,18.84,18.84v87.924c0,10.406-8.438,18.842-18.84,18.842h-87.922
				c-10.402,0-18.844-8.436-18.844-18.842V85.025c0-10.404,8.441-18.84,18.844-18.84H251.558 M251.558,59.905h-87.922
				c-13.854,0-25.124,11.269-25.124,25.12v87.924c0,13.853,11.271,25.122,25.124,25.122h87.922c13.852,0,25.12-11.27,25.12-25.122
				V85.025C276.678,71.174,265.41,59.905,251.558,59.905L251.558,59.905z"/>
		</g>
		<path fill="#FFFFFF" d="M200.164,123.512h8.348v-8.118c0-3.575,0.09-9.099,2.691-12.518c2.734-3.621,6.5-6.081,12.965-6.081
			c10.543,0,14.977,1.5,14.977,1.5l-2.086,12.373c0,0-3.477-1.006-6.727-1.006c-3.258,0-6.164,1.162-6.164,4.413v9.433h13.328
			l-0.938,12.088h-12.391v56.195h-15.656v-56.195h-8.348V123.512z"/>
	</g>
	<g>
		<g>
			<path fill="#00ADEE" d="M100.777,153.757c-40.978,0-74.316-33.337-74.316-74.315c0-40.977,33.338-74.314,74.316-74.314
				s74.315,33.337,74.315,74.314C175.093,120.419,141.755,153.757,100.777,153.757z"/>
			<path fill="#FFFFFF" d="M100.777,8.268c39.313,0,71.176,31.864,71.176,71.174c0,39.311-31.863,71.176-71.176,71.176
				s-71.176-31.865-71.176-71.176C29.601,40.132,61.465,8.268,100.777,8.268 M100.777,1.987c-42.709,0-77.456,34.746-77.456,77.454
				c0,42.709,34.747,77.456,77.456,77.456s77.456-34.747,77.456-77.456C178.233,36.733,143.487,1.987,100.777,1.987L100.777,1.987z"
				/>
		</g>
		<path fill="#FFFFFF" d="M141.949,53.3c-2.859,1.27-5.938,2.128-9.164,2.511c3.293-1.978,5.832-5.103,7.016-8.828
			c-3.09,1.828-6.488,3.158-10.145,3.873c-2.895-3.106-7.059-5.045-11.652-5.045c-8.805,0-15.957,7.148-15.957,15.965
			c0,1.251,0.141,2.466,0.41,3.634c-13.266-0.669-25.023-7.013-32.902-16.682c-1.367,2.367-2.152,5.105-2.152,8.034
			c0,5.529,2.809,10.417,7.102,13.284c-2.621-0.077-5.086-0.804-7.242-1.993v0.196c0,7.74,5.504,14.192,12.816,15.651
			c-1.348,0.377-2.754,0.564-4.207,0.564c-1.031,0-2.031-0.098-3-0.282c2.023,6.342,7.918,10.966,14.91,11.083
			c-5.469,4.28-12.352,6.828-19.828,6.828c-1.281,0-2.563-0.07-3.809-0.221c7.066,4.529,15.457,7.167,24.477,7.167
			c29.367,0,45.414-24.317,45.414-45.419c0-0.695-0.012-1.386-0.035-2.066C137.101,59.311,139.82,56.498,141.949,53.3"/>
	</g>
</g>
</svg>
