<?xml version="1.0" encoding="utf-8"?>
<!-- Generator: Adobe Illustrator 16.0.0, SVG Export Plug-In . SVG Version: 6.00 Build 0)  -->
<!DOCTYPE svg PUBLIC "-//W3C//DTD SVG 1.1//EN" "http://www.w3.org/Graphics/SVG/1.1/DTD/svg11.dtd">
<svg version="1.1" id="Calque_1" xmlns="http://www.w3.org/2000/svg" xmlns:xlink="http://www.w3.org/1999/xlink" x="0px" y="0px"
	 width="250px" height="300px" viewBox="0 0 250 300" enable-background="new 0 0 250 300" xml:space="preserve">
<g>
	<g>
		<g>
			<rect x="110.987" y="121.055" fill="#6D6E71" width="50.442" height="25.292"/>
			<path fill="#6D6E71" d="M178.305,148.803c0-2.918-2.371-5.288-5.288-5.288h-73.24c-2.919,0-5.289,2.37-5.289,5.288l0,0
				c0,2.916,2.37,5.288,5.289,5.288h73.24C175.934,154.091,178.305,151.719,178.305,148.803L178.305,148.803z"/>
			<path fill="#6D6E71" d="M232.905,121.055c0,2.598-2.117,4.714-4.733,4.714H43.984c-2.599,0-4.717-2.116-4.717-4.714V12.995
				c0-2.61,2.118-4.728,4.717-4.728h184.188c2.616,0,4.733,2.117,4.733,4.728V121.055z"/>
			<path fill="#6D6E71" d="M39.268,107.563V12.995c0-2.61,2.118-4.728,4.717-4.728h184.188c2.616,0,4.733,2.117,4.733,4.728v94.568
				H39.268z"/>
		</g>
		<rect x="44.764" y="13.939" fill="#FFFFFF" width="182.645" height="89.614"/>
	</g>
	<g>
		<path fill="#92278F" d="M163.772,107.25c0-21.408-17.353-38.77-38.771-38.77s-38.773,17.361-38.773,38.77
			c0,21.417,17.355,38.789,38.773,38.789S163.772,128.667,163.772,107.25z"/>
		<path fill="#92278F" d="M101.57,188.316c3.015,6.286,0.359,13.823-5.928,16.837l-1.748,0.839
			c-6.286,3.012-13.824,0.359-16.836-5.928L18.337,77.546c-3.013-6.286-0.358-13.823,5.928-16.837l1.748-0.839
			c6.286-3.013,13.826-0.359,16.838,5.928L101.57,188.316z"/>
		<path fill="#92278F" d="M148.43,188.316c-3.014,6.286-0.359,13.823,5.927,16.837l1.749,0.839
			c6.285,3.012,13.825,0.359,16.837-5.928l58.72-122.519c3.014-6.286,0.359-13.823-5.927-16.837l-1.749-0.839
			c-6.286-3.013-13.824-0.359-16.837,5.928L148.43,188.316z"/>
		<path fill="#92278F" d="M125,162.929c-19.778,0-50.49,1.576-50.49,26.13v90.916c15.224,7.523,32.361,11.758,50.49,11.758
			s35.267-4.235,50.487-11.76v-90.914C175.487,165.858,144.776,162.929,125,162.929z"/>
	</g>
	<g>
		<path fill="#8DC63F" d="M92.524,29.98c1.217-0.249,3.428-0.467,5.609-0.467c2.805,0,4.58,0.374,5.982,1.34
			c1.309,0.778,2.182,2.149,2.182,3.957c0,1.932-1.215,3.677-3.49,4.518v0.094c2.213,0.561,4.238,2.306,4.238,5.172
			c0,1.87-0.811,3.334-1.994,4.362c-1.496,1.277-3.957,1.932-7.822,1.932c-2.117,0-3.707-0.155-4.705-0.28V29.98z M96.327,38.269
			h1.963c2.68,0,4.145-1.246,4.145-3.022c0-1.994-1.496-2.897-3.928-2.897c-1.121,0-1.775,0.063-2.18,0.156V38.269z M96.327,47.896
			c0.498,0.094,1.152,0.094,2.025,0.094c2.461,0,4.674-0.903,4.674-3.489c0-2.462-2.15-3.459-4.799-3.459h-1.9V47.896z"/>
		<path fill="#8DC63F" d="M110.317,40.388c0-2.057-0.031-3.552-0.125-4.892h3.303l0.156,2.866h0.094
			c0.748-2.119,2.523-3.209,4.176-3.209c0.373,0,0.592,0.031,0.902,0.093v3.584c-0.342-0.063-0.686-0.094-1.152-0.094
			c-1.807,0-3.084,1.152-3.428,2.897c-0.063,0.343-0.094,0.748-0.094,1.153v7.883h-3.832V40.388z"/>
		<path fill="#8DC63F" d="M132.907,47.024c0,1.371,0.063,2.711,0.25,3.646h-3.459l-0.279-1.683h-0.094
			c-0.904,1.185-2.492,2.025-4.486,2.025c-3.055,0-4.768-2.212-4.768-4.518c0-3.802,3.396-5.765,9.004-5.733v-0.249
			c0-0.997-0.404-2.648-3.084-2.648c-1.496,0-3.055,0.467-4.082,1.121l-0.748-2.492c1.121-0.686,3.084-1.34,5.484-1.34
			c4.861,0,6.262,3.084,6.262,6.418V47.024z M129.169,43.254c-2.711-0.031-5.297,0.53-5.297,2.836c0,1.495,0.967,2.181,2.182,2.181
			c1.557,0,2.648-0.997,3.021-2.087c0.094-0.281,0.094-0.562,0.094-0.842V43.254z"/>
		<path fill="#8DC63F" d="M139.079,35.496l2.461,7.695c0.436,1.34,0.748,2.556,1.027,3.802h0.094
			c0.281-1.246,0.623-2.431,1.029-3.802l2.43-7.695h4.02l-5.795,15.174h-3.771l-5.639-15.174H139.079z"/>
		<path fill="#8DC63F" d="M166.499,42.942c0,5.577-3.926,8.07-7.789,8.07c-4.27,0-7.604-2.929-7.604-7.821
			c0-4.984,3.271-8.038,7.852-8.038C163.478,35.153,166.499,38.331,166.499,42.942z M155.063,43.099c0,2.929,1.465,5.141,3.77,5.141
			c2.182,0,3.709-2.118,3.709-5.203c0-2.368-1.059-5.11-3.678-5.11C156.155,37.926,155.063,40.574,155.063,43.099z"/>
		<path fill="#8DC63F" d="M175.565,48.582c0-1.433,0.967-2.43,2.369-2.43c1.434,0,2.336,0.997,2.367,2.43
			c0,1.371-0.934,2.431-2.398,2.431C176.532,51.013,175.565,49.953,175.565,48.582z M176.501,44.189l-0.592-14.521h4.051
			l-0.561,14.521H176.501z"/>
	</g>
</g>
</svg>
