<?xml version="1.0" encoding="utf-8"?>
<!-- Generator: Adobe Illustrator 16.0.0, SVG Export Plug-In . SVG Version: 6.00 Build 0)  -->
<!DOCTYPE svg PUBLIC "-//W3C//DTD SVG 1.1//EN" "http://www.w3.org/Graphics/SVG/1.1/DTD/svg11.dtd">
<svg version="1.1" id="Calque_1" xmlns="http://www.w3.org/2000/svg" xmlns:xlink="http://www.w3.org/1999/xlink" x="0px" y="0px"
	 width="280px" height="300px" viewBox="0 0 280 300" enable-background="new 0 0 280 300" xml:space="preserve">
<g>
	<path fill="#007DBA" d="M140.004,8.268c-70.881,0-128.34,42.082-128.34,93.981c0,29.288,18.299,55.446,46.979,72.675
		c10.229,7.164,2.381,18.03,28.941,50.628c-4.226-20.574,7.385-35.104,14.928-33.414c11.861,2.645,24.449,4.074,37.493,4.074
		c70.875,0,128.332-42.064,128.332-93.963C268.336,50.35,210.879,8.268,140.004,8.268z"/>
	<g>
		<path fill="#007DBA" d="M214.973,291.732c7.258,0,13.148-5.888,13.148-13.15v-11.324c0-7.262-5.891-13.152-13.148-13.152h-75.611
			c-7.258,0-13.147,5.891-13.147,13.152v11.324c0,7.263,5.889,13.15,13.147,13.15H214.973z"/>
		<path fill="#FFCB05" d="M121.555,211.397c0-25.644,4.659-38.044,4.659-44.73l0.221-63.831c0-9.083,7.358-16.441,16.434-16.441
			h0.664c9.072,0,16.432,7.358,16.432,16.441v18.395v30.48v27.255c0,0.595,0.475,1.069,1.07,1.069c0.594,0,1.068-0.475,1.068-1.069
			c0,0,0-23.565,0-25.128c0-1.563,0.666-1.697,1.742-1.538c4.783,0.733,17.803,2.723,18.477,2.839
			c0.822,0.15,1.303,0.386,1.303,1.447c0,1.063,0,23.412,0,23.412c0,0.588,0.486,1.07,1.076,1.07c0.586,0,1.061-0.482,1.061-1.07
			c0,0,0-21.805,0-22.964c0-1.152,0.574-1.284,1.459-1.161c2.141,0.295,6.094,0.824,8.004,1.046
			c2.705,0.312,6.309,1.017,8.271,1.353c0.377,0.063,1.145,0.164,1.145,1.204s0,26.315,0,26.315c0,0.59,0.473,1.071,1.061,1.071
			c0.592,0,1.074-0.481,1.074-1.071c0,0,0-24.533,0-25.735c0-1.179,0.977-0.902,1.449-0.803
			c13.986,2.871,19.896,10.606,19.896,24.252v55.042c0,2.906-2.357,5.261-5.262,5.261h-87.44
			C129.067,243.808,121.555,233.528,121.555,211.397z"/>
	</g>
</g>
</svg>
