<?xml version="1.0" encoding="utf-8"?>
<!-- Generator: Adobe Illustrator 16.0.0, SVG Export Plug-In . SVG Version: 6.00 Build 0)  -->
<!DOCTYPE svg PUBLIC "-//W3C//DTD SVG 1.1//EN" "http://www.w3.org/Graphics/SVG/1.1/DTD/svg11.dtd">
<svg version="1.1" id="Calque_1" xmlns="http://www.w3.org/2000/svg" xmlns:xlink="http://www.w3.org/1999/xlink" x="0px" y="0px"
	 width="300px" height="274.663px" viewBox="0 0 300 274.663" enable-background="new 0 0 300 274.663" xml:space="preserve">
<g>
	<path fill="#8DC63F" d="M283.74,162.334h-44.295v8.17c0,7.168-5.832,13-13,13h-13.5c-7.168,0-13-5.832-13-13v-8.17h-95v8.17
		c0,7.168-5.832,13-13,13h-13.5c-7.168,0-13-5.832-13-13v-8.17H16.259c-2.939,0-5.675-0.861-7.991-2.33v98.229
		c0,4.414,3.578,7.992,7.991,7.992H283.74c4.414,0,7.992-3.578,7.992-7.992v-98.229C289.416,161.473,286.68,162.334,283.74,162.334z
		"/>
	<path fill="#8DC63F" d="M267.219,20.908c-0.469-4.706-9.656-8.462-20.955-8.462s-20.488,3.756-20.955,8.462H267.219z"/>
	<path fill="#8DC63F" d="M74.4,20.908c-0.468-4.706-9.656-8.462-20.955-8.462s-20.487,3.756-20.955,8.462H74.4z"/>
	<path fill="#92278F" d="M152.445,12.446c23.182,0,41.975,3.789,41.975,8.462h10.525c0-6.887-23.506-12.471-52.5-12.471
		c-28.996,0-52.5,5.584-52.5,12.471h10.524C110.469,16.235,129.262,12.446,152.445,12.446z"/>
	<path fill="#92278F" d="M99.945,170.504c0,4.418-3.582,8-8,8h-13.5c-4.418,0-8-3.582-8-8v-21c0-4.418,3.582-8,8-8h13.5
		c4.418,0,8,3.582,8,8V170.504z"/>
	<path fill="#92278F" d="M234.445,170.504c0,4.418-3.582,8-8,8h-13.5c-4.418,0-8-3.582-8-8v-21c0-4.418,3.582-8,8-8h13.5
		c4.418,0,8,3.582,8,8V170.504z"/>
	<path fill="#92278F" d="M283.74,27.908H16.259c-4.413,0-7.991,3.578-7.991,7.991v111.445c0,4.412,3.578,7.99,7.991,7.99h49.186
		v-5.83c0-7.168,5.832-13,13-13h13.5c7.168,0,13,5.832,13,13v5.83h95v-5.83c0-7.168,5.832-13,13-13h13.5c7.168,0,13,5.832,13,13
		v5.83h44.295c4.414,0,7.992-3.578,7.992-7.99V35.899C291.732,31.486,288.154,27.908,283.74,27.908z"/>
</g>
</svg>
