<?xml version="1.0" encoding="utf-8"?>
<!-- Generator: Adobe Illustrator 16.0.0, SVG Export Plug-In . SVG Version: 6.00 Build 0)  -->
<!DOCTYPE svg PUBLIC "-//W3C//DTD SVG 1.1//EN" "http://www.w3.org/Graphics/SVG/1.1/DTD/svg11.dtd">
<svg version="1.1" id="Calque_1" xmlns="http://www.w3.org/2000/svg" xmlns:xlink="http://www.w3.org/1999/xlink" x="0px" y="0px"
	 width="300px" height="300px" viewBox="0 0 300 300" enable-background="new 0 0 300 300" xml:space="preserve">
<g>
	<g>
		<rect x="36.865" y="16.865" fill="#C63232" width="225.276" height="146.413"/>
		<g>
			<g>
				<path fill="#FFFFFF" d="M222.738,139.628c-0.287-0.239-0.766-0.105-0.766,0.431c0,0.339,0,12.642,0,24.894
					c0,12.325-11.439,0.006-11.439,0.006l-0.01-66.269c0-0.516-0.449-0.956-0.986-0.956c-0.525,0-0.975,0.44-0.975,0.956v31.909
					c0,11.01-11.832,11.526-11.832-0.641v-36.5c0-6.858,5.557-12.416,12.424-12.416h27.166c6.877,0,12.434,5.558,12.434,12.416v36.5
					c0,12.167-11.842,11.65-11.842,0.641V98.689c0-0.516-0.439-0.956-0.975-0.956s-0.977,0.44-0.977,0.956l-0.004,66.569
					c0,0-11.445,12.225-11.445,0c0-12.354,0-24.856,0-25.2C223.512,139.523,223.033,139.389,222.738,139.628z"/>
				<path fill="#FFFFFF" d="M222.738,76.001L222.738,76.001c-7.92,0-14.357-6.418-14.357-14.376c0-7.92,6.438-14.352,14.357-14.352
					l0,0l0,0c7.928,0,14.365,6.432,14.365,14.352C237.104,69.583,230.666,76.001,222.738,76.001L222.738,76.001z"/>
			</g>
			<polygon fill="#C63232" points="217.391,103.573 222.742,108.025 228.094,103.573 224.248,85.38 224.23,85.38 227.377,80.903 
				222.732,77.814 218.104,80.903 221.254,85.38 221.236,85.38 			"/>
		</g>
		<g>
			<g>
				<path fill="#FFFFFF" d="M154.156,126.428c-0.287-0.239-0.766-0.105-0.766,0.431c0,0.483,0,25.326,0,39.628
					c0,5.802-11.445-0.626-11.445-0.626l-0.004-80.372c0-0.516-0.45-0.957-0.985-0.957c-0.526,0-0.976,0.44-0.976,0.957v31.909
					c0,11.009-11.832,11.526-11.832-0.641v-36.5c0-6.858,5.557-12.416,12.425-12.416h27.165c6.877,0,12.436,5.558,12.436,12.416
					v36.5c0,12.167-11.842,11.65-11.842,0.641V85.49c0-0.516-0.441-0.957-0.977-0.957s-0.975,0.44-0.975,0.957l-0.01,80.994
					c0,0-11.439,5.944-11.439,0.306c0-14.251,0-39.442,0-39.93C154.932,126.323,154.453,126.189,154.156,126.428z"/>
				<path fill="#FFFFFF" d="M154.156,62.802L154.156,62.802c-7.92,0-14.357-6.418-14.357-14.376c0-7.92,6.437-14.353,14.357-14.353
					l0,0l0,0c7.93,0,14.367,6.433,14.367,14.353C168.523,56.383,162.086,62.802,154.156,62.802L154.156,62.802z"/>
			</g>
			<polygon fill="#C63232" points="148.809,90.373 154.16,94.825 159.512,90.373 155.668,72.18 155.648,72.18 158.795,67.704 
				154.15,64.614 149.522,67.704 152.674,72.18 152.654,72.18 			"/>
		</g>
		<g>
			<g>
				<path fill="#FFFFFF" d="M81.753,130.919c-0.287-0.239-0.766-0.105-0.766,0.431c0,0.421,0,19.297,0,33.608
					c0,8.804-11.439-1.675-11.439-1.675l-0.01-73.303c0-0.516-0.449-0.956-0.985-0.956c-0.525,0-0.976,0.44-0.976,0.956v31.909
					c0,11.01-11.832,11.526-11.832-0.641v-36.5c0-6.858,5.558-12.416,12.425-12.416h27.165c6.878,0,12.435,5.558,12.435,12.416v36.5
					c0,12.167-11.842,11.65-11.842,0.641V89.98c0-0.516-0.439-0.956-0.976-0.956c-0.535,0-0.976,0.44-0.976,0.956l-0.009,74.972
					c0,0-11.44,8.81-11.44,0.006c0-14.311,0-33.188,0-33.608C82.528,130.814,82.049,130.68,81.753,130.919z"/>
				<path fill="#FFFFFF" d="M81.753,67.292L81.753,67.292c-7.92,0-14.357-6.418-14.357-14.376c0-7.92,6.438-14.352,14.357-14.352
					l0,0l0,0c7.93,0,14.366,6.432,14.366,14.352C96.12,60.874,89.683,67.292,81.753,67.292L81.753,67.292z"/>
			</g>
			<polygon fill="#C63232" points="76.407,94.864 81.758,99.316 87.11,94.864 83.264,76.671 83.246,76.671 86.392,72.194 
				81.749,69.105 77.119,72.194 80.271,76.671 80.251,76.671 			"/>
		</g>
		<g>
			<path fill="#FFFFFF" d="M52.36,202.333c-3.481,0-6.313-2.832-6.313-6.313v-9.848c0-3.481,2.832-6.313,6.313-6.313h62.612v-3.783
				H35.133c-5.295,0-9.604-4.303-9.604-9.593V15.517c0-5.293,4.309-9.599,9.604-9.599h229.734c5.295,0,9.603,4.306,9.603,9.599
				v150.967c0,5.29-4.308,9.593-9.603,9.593H180.11v3.783h61.78c3.481,0,6.313,2.832,6.313,6.313v9.848
				c0,3.48-2.832,6.313-6.313,6.313H52.36z M47.434,29.214c-0.137,0-0.249,0.113-0.249,0.253v125.528
				c0,0.135,0.114,0.249,0.249,0.249H250.92c0.135,0,0.249-0.114,0.249-0.249V29.467c0-0.14-0.112-0.253-0.249-0.253H47.434z"/>
			<path fill="#C63232" d="M264.867,8.95c3.625,0,6.57,2.941,6.57,6.566v150.967c0,3.625-2.945,6.561-6.57,6.561h-87.789v9.848
				h64.813c1.818,0,3.281,1.469,3.281,3.281v9.848c0,1.813-1.463,3.28-3.281,3.28H52.36c-1.808,0-3.281-1.468-3.281-3.28v-9.848
				c0-1.813,1.473-3.281,3.281-3.281h65.645v-9.848H35.133c-3.625,0-6.571-2.936-6.571-6.561V15.517
				c0-3.625,2.946-6.566,6.571-6.566H264.867 M47.434,158.276H250.92c1.809,0,3.281-1.469,3.281-3.281V29.467
				c0-1.817-1.473-3.286-3.281-3.286H47.434c-1.808,0-3.281,1.468-3.281,3.286v125.528
				C44.153,156.808,45.626,158.276,47.434,158.276 M264.867,2.885H35.133c-6.968,0-12.636,5.667-12.636,12.631v150.967
				c0,6.962,5.668,12.626,12.636,12.626h11.113c-1.979,1.715-3.232,4.245-3.232,7.063v9.848c0,5.153,4.192,9.346,9.346,9.346
				h189.531c5.153,0,9.347-4.192,9.347-9.346v-9.848c0-2.818-1.254-5.349-3.232-7.063h16.862c6.967,0,12.636-5.664,12.636-12.626
				V15.517C277.503,8.552,271.834,2.885,264.867,2.885L264.867,2.885z M50.218,32.247h197.917v119.966H50.218V32.247L50.218,32.247z
				"/>
		</g>
	</g>
	<g>
		<g>
			<path fill="#C63232" d="M154.17,194.147c-24.927,0-45.207-20.293-45.207-45.232c0-24.895,20.28-45.149,45.207-45.149
				c24.896,0,45.149,20.254,45.149,45.149C199.319,173.854,179.065,194.147,154.17,194.147z"/>
			<path fill="#FFFFFF" d="M154.17,108.025c22.584,0,40.891,18.298,40.891,40.89c0,22.646-18.307,40.973-40.891,40.973
				c-22.602,0-40.948-18.327-40.948-40.973C113.222,126.323,131.568,108.025,154.17,108.025 M154.17,99.508
				c-27.275,0-49.465,22.164-49.465,49.407c0,27.288,22.19,49.491,49.465,49.491c27.243,0,49.408-22.203,49.408-49.491
				C203.578,121.672,181.413,99.508,154.17,99.508L154.17,99.508z"/>
		</g>
		<path fill="#C63232" stroke="#FFFFFF" stroke-width="8.5173" stroke-miterlimit="10" d="M200.963,288.695
			c9.439-2.463,18.531-5.586,27.279-9.249v-39.844c0-19.541-15.82-35.366-35.391-35.366h-77.419
			c-19.57,0-35.343,15.825-35.343,35.366v43.11c10.88,4.026,22.133,7.131,33.649,9.239v-37.447c0-1.486,1.282-2.707,2.793-2.707
			c1.568,0,2.793,1.221,2.793,2.707l0.01,38.404c22.593,3.481,46.083,3.146,69.625-1.507v-36.897c0-1.486,1.281-2.707,2.793-2.707
			c1.559,0,2.773,1.221,2.773,2.707v35.697C196.672,289.714,198.82,289.255,200.963,288.695z"/>
	</g>
</g>
</svg>
