<?xml version="1.0" encoding="utf-8"?>
<!-- Generator: Adobe Illustrator 16.0.0, SVG Export Plug-In . SVG Version: 6.00 Build 0)  -->
<!DOCTYPE svg PUBLIC "-//W3C//DTD SVG 1.1//EN" "http://www.w3.org/Graphics/SVG/1.1/DTD/svg11.dtd">
<svg version="1.1" id="Calque_1" xmlns="http://www.w3.org/2000/svg" xmlns:xlink="http://www.w3.org/1999/xlink" x="0px" y="0px"
	 width="234.5px" height="299.99px" viewBox="32.495 0 234.5 299.99" enable-background="new 32.495 0 234.5 299.99"
	 xml:space="preserve">
<g>
	<path fill="#F9A51A" d="M235.53,72.317l0.005-0.014l-79.346-61.815l-0.018-0.001c-1.676-1.389-3.829-2.225-6.178-2.225
		c-2.223,0-4.264,0.756-5.899,2.015l-0.023-0.001L64.455,72.303l0.004,0.014c-2.287,1.773-3.766,4.54-3.766,7.658
		c0,5.354,4.34,9.692,9.693,9.692l0,0h159.216h0.001c5.354,0,9.693-4.339,9.693-9.692C239.297,76.857,237.818,74.091,235.53,72.317z
		"/>
	<path fill="#F9A51A" d="M90.969,214.658c0,5.665-4.594,10.258-10.259,10.258h-8.653c-5.665,0-10.259-4.593-10.259-10.258
		c0,0-1.104-19.835-1.104-50.521c0-32.96,1.104-50.521,1.104-50.521c0-5.666,4.594-10.259,10.259-10.259h8.653
		c5.665,0,10.259,4.593,10.259,10.259c0,0,1.21,18.126,1.21,50.521C92.178,191.687,90.969,214.658,90.969,214.658z"/>
	<path fill="#F9A51A" d="M164.527,214.658c0,5.665-4.594,10.258-10.258,10.258h-8.654c-5.665,0-10.258-4.593-10.258-10.258
		c0,0-1.105-19.835-1.105-50.521c0-32.96,1.105-50.521,1.105-50.521c0-5.666,4.593-10.259,10.258-10.259h8.654
		c5.664,0,10.258,4.593,10.258,10.259c0,0,1.211,18.126,1.211,50.521C165.738,191.687,164.527,214.658,164.527,214.658z"/>
	<path fill="#F9A51A" d="M238.086,214.658c0,5.665-4.593,10.258-10.258,10.258h-8.654c-5.664,0-10.258-4.593-10.258-10.258
		c0,0-1.105-19.835-1.105-50.521c0-32.96,1.105-50.521,1.105-50.521c0-5.666,4.594-10.259,10.258-10.259h8.654
		c5.665,0,10.258,4.593,10.258,10.259c0,0,1.211,18.126,1.211,50.521C239.297,191.687,238.086,214.658,238.086,214.658z"/>
	<path fill="#D01A6F" d="M239.297,250.975c0,1.416-1.149,2.564-2.564,2.564H63.258c-1.417,0-2.564-1.148-2.564-2.564v-6.986
		c0-1.417,1.147-2.565,2.564-2.565h173.475c1.415,0,2.564,1.148,2.564,2.565V250.975z"/>
	<path fill="#D01A6F" d="M248.985,270.071c0,1.415-1.149,2.564-2.565,2.564H53.569c-1.416,0-2.564-1.149-2.564-2.564v-6.987
		c0-1.419,1.148-2.567,2.564-2.567H246.42c1.416,0,2.565,1.148,2.565,2.567V270.071z"/>
	<path fill="#D01A6F" d="M258.677,289.163c0,1.416-1.149,2.564-2.565,2.564H43.877c-1.416,0-2.564-1.148-2.564-2.564v-6.986
		c0-1.417,1.148-2.564,2.564-2.564h212.235c1.416,0,2.565,1.147,2.565,2.564V289.163z"/>
</g>
</svg>
