<?xml version="1.0" encoding="utf-8"?>
<!-- Generator: Adobe Illustrator 16.0.0, SVG Export Plug-In . SVG Version: 6.00 Build 0)  -->
<!DOCTYPE svg PUBLIC "-//W3C//DTD SVG 1.1//EN" "http://www.w3.org/Graphics/SVG/1.1/DTD/svg11.dtd">
<svg version="1.1" id="Calque_1" xmlns="http://www.w3.org/2000/svg" xmlns:xlink="http://www.w3.org/1999/xlink" x="0px" y="0px"
	 width="236.825px" height="300px" viewBox="0 0 236.825 300" enable-background="new 0 0 236.825 300" xml:space="preserve">
<g>
	<path fill-rule="evenodd" clip-rule="evenodd" d="M227.26,283.732c0,4.418-3.582,8-8,8H17.565c-4.418,0-8-3.582-8-8V16.268
		c0-4.418,3.582-8,8-8H219.26c4.418,0,8,3.582,8,8V283.732z"/>
	<path fill-rule="evenodd" clip-rule="evenodd" fill="#FFFFFF" d="M173.26,98.607c0,2.762-2.238,5-5,5h-97.31c-2.762,0-5-2.238-5-5
		V58.783c0-2.762,2.238-5,5-5h97.31c2.762,0,5,2.238,5,5V98.607z"/>
	<path fill-rule="evenodd" clip-rule="evenodd" fill="#FFFFFF" stroke="#BCBEC0" stroke-width="2" stroke-miterlimit="10" d="
		M167.481,96.82c0,0.553-0.447,1-1,1h-93.75c-0.553,0-1-0.447-1-1V60.57c0-0.553,0.447-1,1-1h93.75c0.553,0,1,0.447,1,1V96.82z"/>
	<rect x="84.26" y="74.607" fill-rule="evenodd" clip-rule="evenodd" fill="#BCBEC0" width="70" height="5.101"/>
</g>
</svg>
