<?xml version="1.0" encoding="utf-8"?>
<!-- Generator: Adobe Illustrator 16.0.0, SVG Export Plug-In . SVG Version: 6.00 Build 0)  -->
<!DOCTYPE svg PUBLIC "-//W3C//DTD SVG 1.1//EN" "http://www.w3.org/Graphics/SVG/1.1/DTD/svg11.dtd">
<svg version="1.1" id="Calque_1" xmlns="http://www.w3.org/2000/svg" xmlns:xlink="http://www.w3.org/1999/xlink" x="0px" y="0px"
	 width="300px" height="300px" viewBox="0 0 300 300" enable-background="new 0 0 300 300" xml:space="preserve">
<g>
	<path fill="#C63232" stroke="#FFFFFF" stroke-width="4.8068" stroke-miterlimit="10" d="M218.826,183.914l-7.798-7.789
		c11.057-12.739,18.091-28.993,19.282-46.88h10.947l0.149-10.942l-11.097-0.004c-1.289-17.826-8.416-33.992-19.512-46.647
		l7.303-7.299l-7.705-7.771l-7.334,7.321c-12.687-10.978-30.746-19.367-52.145-19.323c-21.133,0.048-39.422,8.345-52.1,19.327
		l-7.948-7.944l-7.661,7.825l7.873,7.864c-11.087,12.66-18.223,28.816-19.494,46.647l-11.154,0.004l0.128,10.942h11.017
		c1.171,17.887,8.218,34.141,19.266,46.88l-7.215,7.215l7.771,7.71l7.188-7.18c12.708,11.132,28.967,18.241,46.876,19.468v10.152
		h10.96v-10.152c17.9-1.227,34.163-8.332,46.871-19.468l7.692,7.705L218.826,183.914z M150.94,192.357
		c-37.754,0-68.362-30.614-68.362-68.376c0-37.758,30.608-68.362,68.362-68.362s68.362,30.604,68.362,68.362
		C219.303,161.743,188.694,192.357,150.94,192.357z"/>
	<g>
		<path fill="#C63232" d="M175.628,93.88c0-13.645-11.069-24.71-24.71-24.71c-13.644,0-24.705,11.065-24.705,24.71
			c0,13.644,11.062,24.701,24.705,24.701C164.559,118.581,175.628,107.524,175.628,93.88z"/>
	</g>
	<path fill="#C63232" d="M174.286,127.929h-46.739c-11.799,0-21.376,9.568-21.376,21.372v17.954c4.203,4.322,9.008,8.027,14.288,11
		v-19.482c0-0.94,0.765-1.691,1.691-1.691c0.94,0,1.691,0.751,1.691,1.691v21.182c8.195,3.975,17.354,6.279,27.076,6.279
		c9.719,0,18.873-2.305,27.068-6.279v-21.182c0-0.94,0.764-1.691,1.69-1.691c0.933,0,1.705,0.751,1.705,1.691v19.482
		c5.272-2.973,10.085-6.678,14.275-11V149.3C195.657,137.497,186.093,127.929,174.286,127.929z"/>
	<g>
		<path fill="#C63232" stroke="#FFFFFF" stroke-width="1.0538" stroke-miterlimit="10" d="M278.11,139.475
			c-0.15-0.128-0.397-0.062-0.397,0.221c0,0.362,0,25.933,0,25.933c0,1.625-1.422,2.945-3.052,2.945
			c-1.634,0-2.954-1.32-2.954-2.945v-47.596c0-0.278-0.229-0.508-0.508-0.508c-0.291,0-0.512,0.229-0.512,0.508v16.708
			c0,5.767-6.204,6.041-6.204-0.34v-19.115c0-3.594,2.91-6.504,6.513-6.504h14.231c3.591,0,6.505,2.91,6.505,6.504v19.115
			c0,6.38-6.195,6.107-6.195,0.34v-16.708c0-0.278-0.229-0.508-0.513-0.508c-0.277,0-0.507,0.229-0.507,0.508l-0.01,47.596
			c0,1.625-1.311,2.945-2.953,2.945c-1.621,0-3.043-1.32-3.043-2.945c0,0,0-25.571,0-25.933
			C278.512,139.414,278.26,139.347,278.11,139.475z"/>
		<path fill="#C63232" stroke="#FFFFFF" stroke-width="1.0538" stroke-miterlimit="10" d="M278.11,106.146L278.11,106.146
			c-4.151,0-7.524-3.369-7.524-7.538c0-4.151,3.373-7.52,7.524-7.52l0,0l0,0c4.155,0,7.528,3.369,7.528,7.52
			C285.639,102.777,282.266,106.146,278.11,106.146L278.11,106.146z"/>
	</g>
	<g>
		<path fill="#C63232" stroke="#FFFFFF" stroke-width="1.0538" stroke-miterlimit="10" d="M252.195,56.157
			c-0.15-0.128-0.411-0.062-0.411,0.221c0,0.358,0,25.933,0,25.933c0,1.625-1.408,2.949-3.051,2.949
			c-1.621,0-2.941-1.324-2.941-2.949V34.715c0-0.278-0.243-0.508-0.521-0.508c-0.283,0-0.513,0.23-0.513,0.508v16.713
			c0,5.767-6.204,6.036-6.204-0.336V31.973c0-3.599,2.915-6.509,6.518-6.509h14.236c3.594,0,6.504,2.91,6.504,6.509v19.119
			c0,6.372-6.19,6.103-6.19,0.336V34.715c0-0.278-0.243-0.508-0.521-0.508c-0.282,0-0.512,0.23-0.512,0.508v47.596
			c0,1.625-1.32,2.949-2.95,2.949c-1.634,0-3.042-1.324-3.042-2.949c0,0,0-25.575,0-25.933
			C252.597,56.095,252.336,56.029,252.195,56.157z"/>
		<path fill="#C63232" stroke="#FFFFFF" stroke-width="1.0538" stroke-miterlimit="10" d="M252.195,22.833L252.195,22.833
			c-4.164,0-7.533-3.374-7.533-7.542c0-4.146,3.369-7.52,7.533-7.52l0,0l0,0c4.142,0,7.515,3.374,7.515,7.52
			C259.71,19.459,256.337,22.833,252.195,22.833L252.195,22.833z"/>
	</g>
	<g>
		<path fill="#C63232" stroke="#FFFFFF" stroke-width="1.0538" stroke-miterlimit="10" d="M48.304,56.157
			c-0.149-0.128-0.397-0.062-0.397,0.221c0,0.358,0,25.933,0,25.933c0,1.625-1.422,2.949-3.042,2.949
			c-1.634,0-2.954-1.324-2.954-2.949l-0.009-47.596c0-0.278-0.221-0.508-0.513-0.508c-0.277,0-0.508,0.23-0.508,0.508v16.713
			c0,5.767-6.195,6.036-6.195-0.336V31.973c0-3.599,2.91-6.509,6.504-6.509h14.228c3.603,0,6.517,2.91,6.517,6.509v19.119
			c0,6.372-6.203,6.103-6.203,0.336V34.715c0-0.278-0.222-0.508-0.504-0.508c-0.287,0-0.517,0.23-0.517,0.508l-0.014,47.596
			c0,1.625-1.319,2.949-2.94,2.949c-1.629,0-3.042-1.324-3.042-2.949c0,0,0-25.575,0-25.933
			C48.715,56.095,48.454,56.029,48.304,56.157z"/>
		<path fill="#C63232" stroke="#FFFFFF" stroke-width="1.0538" stroke-miterlimit="10" d="M48.304,22.833L48.304,22.833
			c-4.15,0-7.515-3.374-7.515-7.542c0-4.146,3.364-7.52,7.515-7.52l0,0l0,0c4.164,0,7.524,3.374,7.524,7.52
			C55.828,19.459,52.468,22.833,48.304,22.833L48.304,22.833z"/>
	</g>
	<g>
		<path fill="#C63232" stroke="#FFFFFF" stroke-width="1.0538" stroke-miterlimit="10" d="M21.898,139.475
			c-0.15-0.128-0.411-0.062-0.411,0.221c0,0.362,0,25.933,0,25.933c0,1.625-1.413,2.945-3.042,2.945
			c-1.629,0-2.954-1.32-2.954-2.945v-47.596c0-0.278-0.23-0.508-0.517-0.508c-0.283,0-0.503,0.229-0.503,0.508v16.708
			c0,5.767-6.204,6.041-6.204-0.34v-19.115c0-3.594,2.905-6.504,6.518-6.504h14.227c3.594,0,6.504,2.91,6.504,6.504v19.115
			c0,6.38-6.195,6.107-6.195,0.34v-16.708c0-0.278-0.238-0.508-0.521-0.508c-0.278,0-0.499,0.229-0.499,0.508l-0.009,47.596
			c0,1.625-1.32,2.945-2.954,2.945c-1.621,0-3.038-1.32-3.038-2.945c0,0,0-25.571,0-25.933
			C22.3,139.414,22.049,139.347,21.898,139.475z"/>
		<path fill="#C63232" stroke="#FFFFFF" stroke-width="1.0538" stroke-miterlimit="10" d="M21.898,106.146L21.898,106.146
			c-4.164,0-7.524-3.369-7.524-7.538c0-4.151,3.36-7.52,7.524-7.52l0,0l0,0c4.142,0,7.516,3.369,7.516,7.52
			C29.414,102.777,26.041,106.146,21.898,106.146L21.898,106.146z"/>
	</g>
	<g>
		<path fill="#C63232" stroke="#FFFFFF" stroke-width="1.0554" stroke-miterlimit="10" d="M49.125,219.985
			c-0.15-0.128-0.401-0.058-0.401,0.221c0,0.362,0,25.933,0,25.933c0,1.625-1.418,2.954-3.052,2.954c-1.629,0-2.94-1.329-2.94-2.954
			l-0.009-47.596c0-0.27-0.229-0.499-0.521-0.499c-0.269,0-0.512,0.229-0.512,0.499v16.717c0,5.764-6.191,6.033-6.191-0.34v-19.119
			c0-3.594,2.91-6.508,6.504-6.508h14.236c3.594,0,6.517,2.914,6.517,6.508v19.119c0,6.373-6.208,6.104-6.208,0.34v-16.717
			c0-0.27-0.229-0.499-0.517-0.499c-0.282,0-0.512,0.229-0.512,0.499v47.596c0,1.625-1.32,2.954-2.941,2.954
			c-1.634,0-3.051-1.329-3.051-2.954c0,0,0-25.57,0-25.933C49.527,219.928,49.275,219.857,49.125,219.985z"/>
		<path fill="#C63232" stroke="#FFFFFF" stroke-width="1.0538" stroke-miterlimit="10" d="M49.125,186.66L49.125,186.66
			c-4.15,0-7.523-3.364-7.523-7.541c0-4.146,3.373-7.512,7.523-7.512l0,0l0,0c4.151,0,7.516,3.365,7.516,7.512
			C56.641,183.296,53.276,186.66,49.125,186.66L49.125,186.66z"/>
	</g>
	<g>
		<path fill="#C63232" stroke="#FFFFFF" stroke-width="1.0538" stroke-miterlimit="10" d="M250.486,219.985
			c-0.15-0.128-0.411-0.058-0.411,0.221c0,0.362,0,25.933,0,25.933c0,1.625-1.413,2.954-3.042,2.954
			c-1.634,0-2.941-1.329-2.941-2.954l-0.013-47.596c0-0.27-0.229-0.499-0.521-0.499c-0.27,0-0.499,0.229-0.499,0.499v16.717
			c0,5.764-6.203,6.033-6.203-0.34v-19.119c0-3.594,2.914-6.508,6.513-6.508H257.6c3.59,0,6.513,2.914,6.513,6.508v19.119
			c0,6.373-6.204,6.104-6.204,0.34v-16.717c0-0.27-0.221-0.499-0.521-0.499c-0.27,0-0.499,0.229-0.499,0.499v47.596
			c0,1.625-1.329,2.954-2.954,2.954c-1.63,0-3.038-1.329-3.038-2.954c0,0,0-25.57,0-25.933
			C250.896,219.928,250.636,219.857,250.486,219.985z"/>
		<path fill="#C63232" stroke="#FFFFFF" stroke-width="1.0538" stroke-miterlimit="10" d="M250.486,186.66L250.486,186.66
			c-4.155,0-7.538-3.364-7.538-7.541c0-4.146,3.383-7.512,7.538-7.512l0,0l0,0c4.159,0,7.511,3.365,7.511,7.512
			C257.997,183.296,254.646,186.66,250.486,186.66L250.486,186.66z"/>
	</g>
	<g>
		<g>
			<path fill="#C63232" d="M153.952,292.756c-1.386,0-2.6-0.91-3.032-2.138c-0.432,1.228-1.646,2.138-3.031,2.138
				c-1.721,0-3.121-1.397-3.121-3.115l-0.005-25.715c-0.44,1.941-1.771,2.949-3.088,2.949c-0.89,0-1.707-0.438-2.3-1.232
				c-0.627-0.84-0.959-2.031-0.959-3.443v-16.811c0-3.444,2.8-6.246,6.242-6.246h12.518c3.441,0,6.241,2.802,6.241,6.246v16.811
				c0,3.212-1.689,4.676-3.259,4.676c-0.86,0-1.691-0.431-2.281-1.181c-0.378-0.482-0.648-1.075-0.805-1.754v25.7
				C157.071,291.358,155.672,292.756,153.952,292.756z"/>
			<path fill="#FFFFFF" d="M157.175,239.67c3.162,0,5.714,2.561,5.714,5.719v16.811c0,2.809-1.367,4.148-2.731,4.148
				c-1.358,0-2.713-1.327-2.713-3.854v-14.695c0-0.238-0.198-0.433-0.45-0.433s-0.45,0.194-0.45,0.433v41.842
				c0,1.422-1.161,2.588-2.592,2.588s-2.672-1.166-2.672-2.588c0,0,0-22.479,0-22.793c0-0.169-0.104-0.25-0.212-0.25
				c-0.053,0-0.107,0.019-0.15,0.057c-0.042-0.038-0.095-0.057-0.147-0.057c-0.107,0-0.21,0.081-0.21,0.25
				c0,0.314,0,22.793,0,22.793c0,1.422-1.25,2.588-2.671,2.588c-1.439,0-2.593-1.166-2.593-2.588l-0.009-41.842
				c0-0.238-0.203-0.433-0.45-0.433c-0.243,0-0.45,0.194-0.45,0.433v14.695c0,2.526-1.354,3.854-2.712,3.854
				c-1.364,0-2.732-1.34-2.732-4.148v-16.811c0-3.158,2.552-5.719,5.714-5.719H157.175 M157.175,238.614h-12.518
				c-3.732,0-6.769,3.039-6.769,6.774v16.811c0,3.575,1.963,5.203,3.787,5.203c0.925,0,1.856-0.411,2.561-1.217l0.005,23.455
				c0,2.009,1.636,3.644,3.648,3.644c1.232,0,2.348-0.621,3.031-1.555c0.683,0.934,1.799,1.555,3.032,1.555
				c2.011,0,3.647-1.635,3.647-3.644v-23.451c0.704,0.803,1.634,1.213,2.558,1.213c1.823,0,3.787-1.628,3.787-5.203v-16.811
				C163.944,241.653,160.907,238.614,157.175,238.614L157.175,238.614z"/>
		</g>
		<path fill="#C63232" stroke="#FFFFFF" stroke-width="0.9263" stroke-miterlimit="10" d="M150.918,237.352L150.918,237.352
			c-3.651,0-6.609-2.953-6.609-6.623c0-3.647,2.958-6.61,6.609-6.61l0,0l0,0c3.656,0,6.606,2.963,6.606,6.61
			C157.524,234.398,154.574,237.352,150.918,237.352L150.918,237.352z"/>
	</g>
</g>
</svg>
