<?xml version="1.0" encoding="utf-8"?>
<!-- Generator: Adobe Illustrator 16.0.0, SVG Export Plug-In . SVG Version: 6.00 Build 0)  -->
<!DOCTYPE svg PUBLIC "-//W3C//DTD SVG 1.1//EN" "http://www.w3.org/Graphics/SVG/1.1/DTD/svg11.dtd">
<svg version="1.1" id="Calque_1" xmlns="http://www.w3.org/2000/svg" xmlns:xlink="http://www.w3.org/1999/xlink" x="0px" y="0px"
	 width="300px" height="234.459px" viewBox="0 0 300 234.459" enable-background="new 0 0 300 234.459" xml:space="preserve">
<g>
	<g>
		<rect x="19.919" y="17.939" fill="#C63232" width="183.69" height="122.099"/>
		<g>
			<path fill="#FFFFFF" d="M132.273,119.567c0,1.644-1.319,2.959-2.968,2.959H33.462c-1.63,0-2.958-1.315-2.958-2.959V33.433
				c0-1.635,1.329-2.959,2.958-2.959h95.843c1.648,0,2.968,1.324,2.968,2.959V119.567z"/>
			<rect x="40.195" y="37.653" fill="#C63232" width="71.821" height="4.628"/>
			<rect x="36.696" y="47.831" fill="#C63232" width="39.409" height="2.32"/>
			<rect x="36.696" y="52.742" fill="#C63232" width="39.409" height="2.313"/>
			<rect x="36.696" y="57.646" fill="#C63232" width="39.409" height="2.316"/>
			<rect x="36.696" y="62.46" fill="#C63232" width="39.409" height="2.312"/>
			<rect x="36.696" y="66.712" fill="#C63232" width="39.409" height="2.32"/>
			<rect x="86.397" y="47.831" fill="#C63232" width="39.409" height="2.32"/>
			<rect x="86.397" y="52.742" fill="#C63232" width="39.409" height="2.313"/>
			<rect x="86.397" y="57.646" fill="#C63232" width="39.409" height="2.316"/>
			<rect x="86.397" y="62.46" fill="#C63232" width="39.409" height="2.312"/>
			<rect x="86.397" y="66.712" fill="#C63232" width="39.409" height="2.32"/>
			<rect x="40.168" y="76.5" fill="#C63232" width="78.429" height="2.32"/>
			<rect x="40.168" y="82.714" fill="#C63232" width="78.429" height="2.316"/>
		</g>
		<g>
			<path fill="#FFFFFF" stroke="#C63232" stroke-width="2.1901" stroke-miterlimit="10" d="M181.739,56.517
				c0-10.422-8.433-18.863-18.858-18.863c-10.414,0-18.853,8.441-18.853,18.863c0,10.412,8.438,18.862,18.853,18.862
				C173.307,75.379,181.739,66.929,181.739,56.517z"/>
			<g>
				<path fill="#FFFFFF" d="M163.719,169.082v0.097l-17.207,0.127l-0.018-64.127c0-0.455,0.011-0.844,0.021-1.178
					c0.007-0.255,0.015-0.532,0.011-0.736c-0.056-0.002-0.123-0.003-0.203-0.003h-35.937c-7.156,0-11.964-4.112-11.964-10.233
					c0-6.594,5.367-11.959,11.964-11.959l70.332-0.172c9.599,0,17.405,7.807,17.405,17.402v47.909c0,3.94-0.92,7.252-2.66,9.577
					c-1.617,2.162-3.834,3.353-6.241,3.353l0,0c-4.391,0-8.834-4.148-8.834-12.075v-41.885c0-0.087-0.069-0.18-0.181-0.18
					c-0.083,0-0.172,0.093-0.172,0.18l-0.018,64.135L163.719,169.082z"/>
				<path fill="#C63232" d="M180.721,81.992c9.018,0,16.308,7.299,16.308,16.307v47.909c0,8.011-3.909,11.834-7.807,11.834
					c-3.875,0-7.739-3.779-7.739-10.979v-41.885c0-0.691-0.558-1.275-1.275-1.275c-0.69,0-1.267,0.584-1.267,1.275l-0.018,63.024
					l-15.023-0.213c0,0,0-8.331,0-8.53c0-0.488-0.314-0.728-0.631-0.728c-0.321,0-0.645,0.246-0.645,0.728c0,0.146,0,8.633,0,8.633
					l-15.018,0.11l-0.018-63.024c0-2.542,0.354-3.012-1.267-3.012c-0.718,0-17.583,0-17.583,0h-18.354
					c-6.006,0-10.869-3.132-10.869-9.138c0-6.005,4.863-10.864,10.869-10.864L180.721,81.992 M180.721,79.802h-0.003h-0.002
					l-70.335,0.172c-7.195,0-13.054,5.856-13.054,13.054c0,6.775,5.248,11.328,13.059,11.328h18.354h16.67
					c-0.006,0.248-0.01,0.521-0.01,0.822l0.018,63.025l0,2.205l2.206-0.016l15.017-0.11l2.175-0.017v-0.073l14.077,0.199
					l2.221,0.032l0.001-2.221L181.116,155c1.896,3.455,5.013,5.232,8.105,5.232c4.814,0,9.997-4.389,9.997-14.024V98.299
					C199.219,88.1,190.92,79.802,180.721,79.802L180.721,79.802z"/>
			</g>
		</g>
		<g>
			<path fill="#FFFFFF" d="M31.142,167.964c-2.853,0-5.174-2.317-5.174-5.165v-8.052c0-2.851,2.321-5.17,5.174-5.17h51.216v-3.094
				H17.04c-4.328,0-7.85-3.52-7.85-7.845V15.109c0-4.331,3.521-7.854,7.85-7.854h187.97c4.328,0,7.849,3.523,7.849,7.854v123.529
				c0,4.325-3.521,7.845-7.849,7.845h-69.352v3.094h50.546c2.848,0,5.165,2.319,5.165,5.17v8.052c0,2.848-2.317,5.165-5.165,5.165
				H31.142z M27.111,26.316c-0.116,0-0.203,0.089-0.203,0.207v102.712c0,0.114,0.089,0.203,0.203,0.203h166.489
				c0.106,0,0.193-0.091,0.193-0.203V26.523c0-0.114-0.087-0.207-0.193-0.207H27.111z"/>
			<path fill="#C63232" d="M205.01,9.737c2.958,0,5.367,2.4,5.367,5.372v123.529c0,2.958-2.409,5.363-5.367,5.363h-71.833v8.057
				h53.027c1.479,0,2.684,1.209,2.684,2.688v8.052c0,1.488-1.204,2.684-2.684,2.684H31.142c-1.488,0-2.693-1.195-2.693-2.684v-8.052
				c0-1.479,1.205-2.688,2.693-2.688h53.697v-8.057H17.04c-2.968,0-5.368-2.405-5.368-5.363V15.109c0-2.972,2.4-5.372,5.368-5.372
				H205.01 M27.111,131.92h166.489c1.479,0,2.675-1.205,2.675-2.685V26.523c0-1.484-1.196-2.688-2.675-2.688H27.111
				c-1.488,0-2.684,1.204-2.684,2.688v102.712C24.427,130.715,25.623,131.92,27.111,131.92 M205.01,4.775H17.04
				c-5.696,0-10.331,4.636-10.331,10.334v123.529c0,5.693,4.634,10.326,10.331,10.326h9.094c-1.621,1.403-2.648,3.476-2.648,5.782
				v8.052c0,4.216,3.434,7.646,7.655,7.646h155.063c4.216,0,7.646-3.431,7.646-7.646v-8.052c0-2.307-1.026-4.379-2.645-5.782h13.804
				c5.695,0,10.33-4.633,10.33-10.326V15.109C215.34,9.411,210.705,4.775,205.01,4.775L205.01,4.775z M29.39,28.797h161.923v98.16
				H29.39V28.797L29.39,28.797z"/>
		</g>
	</g>
	<g>
		<g>
			<path fill="#C63232" d="M234.524,110.434c-20.394,0-36.985-16.604-36.985-37.012c0-20.367,16.592-36.937,36.985-36.937
				c20.364,0,36.932,16.57,36.932,36.937C271.456,93.83,254.889,110.434,234.524,110.434z"/>
			<path fill="#FFFFFF" d="M234.524,39.97c18.478,0,33.447,14.97,33.447,33.452c0,18.53-14.97,33.527-33.447,33.527
				c-18.486,0-33.501-14.997-33.501-33.527C201.023,54.939,216.038,39.97,234.524,39.97 M234.524,33.001
				c-22.315,0-40.47,18.133-40.47,40.421c0,22.33,18.154,40.496,40.47,40.496c22.285,0,40.416-18.167,40.416-40.496
				C274.94,51.134,256.81,33.001,234.524,33.001L234.524,33.001z"/>
		</g>
		<path fill="#C63232" stroke="#FFFFFF" stroke-width="6.9688" stroke-miterlimit="10" d="M266.183,118.686h-63.344
			c-16.023,0-28.93,12.955-28.93,28.944v62.988c8.361,5.922,17.618,10.652,27.539,13.947v-64.747c0-1.214,1.046-2.215,2.276-2.215
			c1.285,0,2.286,1.001,2.286,2.215l0.018,66.151c9.07,2.546,18.619,3.941,28.487,3.941c9.876,0,19.416-1.396,28.47-3.941v-66.151
			c0-1.214,1.045-2.215,2.285-2.215c1.284,0,2.276,1.001,2.276,2.215v64.756c9.938-3.286,19.213-8.025,27.584-13.956V147.63
			C295.131,131.641,282.189,118.686,266.183,118.686z"/>
	</g>
</g>
</svg>
