<?xml version="1.0" encoding="utf-8"?>
<!-- Generator: Adobe Illustrator 16.0.0, SVG Export Plug-In . SVG Version: 6.00 Build 0)  -->
<!DOCTYPE svg PUBLIC "-//W3C//DTD SVG 1.1//EN" "http://www.w3.org/Graphics/SVG/1.1/DTD/svg11.dtd">
<svg version="1.1" id="Calque_1" xmlns="http://www.w3.org/2000/svg" xmlns:xlink="http://www.w3.org/1999/xlink" x="0px" y="0px"
	 width="260px" height="300px" viewBox="0 0 260 300" enable-background="new 0 0 260 300" xml:space="preserve">
<g>
	<g>
		<g>
			<rect x="106.202" y="134.742" fill="#6DCFF6" width="56.562" height="28.36"/>
			<path fill="#6DCFF6" d="M181.687,165.856c0-3.272-2.658-5.93-5.93-5.93H93.629c-3.272,0-5.931,2.657-5.931,5.93l0,0
				c0,3.271,2.658,5.93,5.931,5.93h82.128C179.028,171.786,181.687,169.127,181.687,165.856L181.687,165.856z"/>
			<path fill="#6DCFF6" d="M242.913,134.742c0,2.912-2.374,5.285-5.308,5.285H31.067c-2.914,0-5.291-2.373-5.291-5.285V13.568
				c0-2.927,2.377-5.301,5.291-5.301h206.538c2.934,0,5.308,2.374,5.308,5.301V134.742z"/>
			<path fill="#6DCFF6" d="M25.776,119.613V13.568c0-2.927,2.377-5.301,5.291-5.301h206.538c2.934,0,5.308,2.374,5.308,5.301
				v106.045H25.776z"/>
		</g>
		<rect x="31.941" y="14.628" fill="#FFFFFF" width="204.808" height="100.488"/>
	</g>
	<g>
		<path fill="#0A4E9B" d="M173.478,84.864c0-24.006-19.459-43.475-43.475-43.475c-24.018,0-43.479,19.469-43.479,43.475
			c0,24.016,19.462,43.496,43.479,43.496C154.019,128.36,173.478,108.88,173.478,84.864z"/>
		<path fill="#0A4E9B" d="M103.728,175.767c3.38,7.05,0.402,15.502-6.646,18.881l-1.961,0.94c-7.049,3.378-15.502,0.403-18.88-6.646
			L10.394,51.556c-3.378-7.049-0.402-15.502,6.646-18.881l1.961-0.94c7.05-3.378,15.504-0.402,18.882,6.646L103.728,175.767z"/>
		<path fill="#0A4E9B" d="M156.272,175.767c-3.379,7.05-0.402,15.502,6.646,18.881l1.961,0.94
			c7.049,3.378,15.503,0.403,18.881-6.646l65.846-137.386c3.379-7.049,0.402-15.502-6.646-18.881l-1.962-0.94
			c-7.049-3.378-15.503-0.402-18.881,6.646L156.272,175.767z"/>
		<path fill="#0A4E9B" d="M130.001,147.299c-22.178,0-56.617,1.769-56.617,29.301v101.948c17.07,8.437,36.288,13.185,56.617,13.185
			c20.328,0,39.546-4.749,56.615-13.186V176.6C186.616,150.584,152.177,147.299,130.001,147.299z"/>
	</g>
</g>
</svg>
