<?xml version="1.0" encoding="utf-8"?>
<!-- Generator: Adobe Illustrator 16.0.0, SVG Export Plug-In . SVG Version: 6.00 Build 0)  -->
<!DOCTYPE svg PUBLIC "-//W3C//DTD SVG 1.1//EN" "http://www.w3.org/Graphics/SVG/1.1/DTD/svg11.dtd">
<svg version="1.1" id="Calque_1" xmlns="http://www.w3.org/2000/svg" xmlns:xlink="http://www.w3.org/1999/xlink" x="0px" y="0px"
	 width="300px" height="300px" viewBox="0 0 300 300" enable-background="new 0 0 300 300" xml:space="preserve">
<g>
	<rect x="18.309" y="22.195" fill="#C63232" width="237.788" height="157.247"/>
	<g>
		<path fill="#FFFFFF" d="M98.009,147.803c-7.158,3.762-14.438,5.208-23.137,5.208c-21.321,0-39.384-15.605-39.384-40.683
			c0-26.776,18.591-50.047,47.443-50.047c22.611,0,37.688,15.986,37.688,37.701c0,19.489-10.915,30.932-22.997,30.932
			c-5.209,0-10.011-3.391-9.757-11.443H87.47c-4.538,7.671-10.516,11.443-18.313,11.443c-7.544,0-14.042-6.127-14.042-16.387
			c0-16.118,12.742-30.797,30.792-30.797c5.473,0,10.539,1.167,13.92,2.736l-4.427,23.518c-1.949,9.884-0.386,14.422,3.909,14.554
			c6.62,0.249,14.042-8.716,14.042-23.657c0-18.974-11.311-32.625-31.465-32.625c-21.188,0-38.985,16.905-38.985,43.291
			c0,21.708,14.174,35.216,33.403,35.216c7.409,0,14.293-1.554,19.624-4.543L98.009,147.803z M90.851,91.656
			c-1.299-0.51-3.503-1.038-6.487-1.038c-11.44,0-20.67,10.785-20.67,23.39c0,5.722,2.863,9.884,8.569,9.884
			c7.552,0,14.436-9.615,15.867-17.682L90.851,91.656z"/>
	</g>
	<rect x="139.19" y="46.446" fill="#FFFFFF" width="113.367" height="91.178"/>
	<rect x="147.668" y="60.488" fill="#C63232" width="93.803" height="11.661"/>
	<rect x="147.668" y="84.724" fill="#C63232" width="93.803" height="7.084"/>
	<rect x="147.668" y="97.428" fill="#C63232" width="93.803" height="7.087"/>
	<g>
		<path fill="#FFFFFF" d="M33.701,218.582c-3.711,0-6.73-3.02-6.73-6.73v-10.519c0-3.709,3.019-6.727,6.73-6.727h66.918v-4.088
			H15.283c-5.643,0-10.233-4.589-10.233-10.229V18.972c0-5.643,4.591-10.233,10.233-10.233h245.443
			c5.64,0,10.229,4.591,10.229,10.233V180.29c0,5.64-4.589,10.229-10.229,10.229h-90.552v4.088h66.042
			c3.702,0,6.715,3.018,6.715,6.727v10.519c0,3.711-3.013,6.73-6.715,6.73H33.701z M28.442,33.582c-0.16,0-0.295,0.135-0.295,0.295
			v134.138c0,0.163,0.132,0.296,0.295,0.296h217.405c0.152,0,0.28-0.136,0.28-0.296V33.876c0-0.157-0.131-0.295-0.28-0.295H28.442z"
			/>
		<path fill="#C63232" d="M260.727,11.956c3.863,0,7.011,3.142,7.011,7.016V180.29c0,3.868-3.147,7.011-7.011,7.011h-93.77v10.523
			h69.26c1.929,0,3.497,1.564,3.497,3.509v10.519c0,1.939-1.568,3.513-3.497,3.513H33.701c-1.939,0-3.513-1.573-3.513-3.513v-10.519
			c0-1.944,1.574-3.509,3.513-3.509h70.136v-10.523H15.283c-3.868,0-7.016-3.143-7.016-7.011V18.972
			c0-3.874,3.147-7.016,7.016-7.016H260.727 M28.442,171.528h217.405c1.929,0,3.498-1.574,3.498-3.514V33.876
			c0-1.934-1.569-3.513-3.498-3.513H28.442c-1.939,0-3.513,1.579-3.513,3.513v134.138C24.929,169.954,26.503,171.528,28.442,171.528
			 M260.727,5.521H15.283c-7.417,0-13.451,6.034-13.451,13.451V180.29c0,7.414,6.034,13.446,13.451,13.446h12.005
			c-2.161,1.825-3.536,4.554-3.536,7.597v10.519c0,5.485,4.463,9.948,9.948,9.948h202.516c5.477,0,9.933-4.463,9.933-9.948v-10.519
			c0-3.043-1.372-5.771-3.53-7.597h18.107c7.414,0,13.446-6.032,13.446-13.446V18.972C274.173,11.555,268.141,5.521,260.727,5.521
			L260.727,5.521z M31.364,36.799h211.545v128.293H31.364V36.799L31.364,36.799z"/>
	</g>
	<g>
		<path fill="#C63232" d="M143.988,290.643c-6.425,0-13.861-2.578-15.987-8.337c-2.207-5.956-6.268-9.949-10.567-14.177
			c-6.372-6.266-12.961-12.745-12.396-25.416c0.602-13.41,5.229-19.351,8.608-23.688c2.549-3.272,3.653-4.847,3.116-7.885
			l-0.02-0.111l-0.01-0.112c-2.313-26.241,5.001-50.727,20.067-67.178c14.528-15.864,35.294-23.908,61.724-23.908
			c73.136,0,91.141,54.671,91.682,73.823c0.378,13.319-1.18,21.056-2.21,26.176c-0.519,2.58-0.894,4.443-0.732,5.724
			c0.096,0.759,0.587,1.469,1.519,2.761c2.367,3.281,5.943,8.238,5.516,21.608c-0.383,12.011-2.594,14.58-7.557,19.249
			c-2.54,2.389-5.7,5.36-9.846,11.378c-5.557,8.05-11.994,9.739-16.416,9.739c-8.631,0-16.982-6.786-17.512-12.136
			c-0.242-2.403,0.084-8.796,0.681-19.888c0.783-14.558,1.759-32.676,1.069-42.724c-0.336-4.877,0.672-8.613,2.996-11.104
			c1.967-2.105,4.828-3.22,8.277-3.22c4.842,0,10.104,2.079,14.409,4.606c-0.384-19.33-5.501-34.23-15.24-44.343
			c-14.745-15.309-37.574-17.463-53.464-17.751c-0.701-0.013-1.401-0.02-2.107-0.02c-14.631,0-34.961,2.948-48.728,16.993
			c-10.435,10.646-15.841,26.284-16.092,46.521c4.229-1.766,7.794-2.629,10.827-2.629c11.479,0,12.107,11.646,12.522,19.353
			l0.034,0.618c1.553,27.735,2.16,46.63,1.756,54.639c-0.338,6.84-6.735,11.437-15.916,11.437
			C143.989,290.643,143.989,290.643,143.988,290.643z"/>
		<path fill="#FFFFFF" d="M198.522,122.43c69.509,0,88.506,50.844,89.084,71.297c0.579,20.459-3.513,27.47-2.924,32.15
			c0.589,4.671,7.595,5.843,7.016,23.962c-0.578,18.112-5.259,12.274-16.945,29.235c-4.401,6.377-9.543,8.614-14.275,8.614
			c-7.844,0-14.564-6.148-14.925-9.792c-0.59-5.849,2.919-45.588,1.756-62.533c-0.584-8.477,3.354-11.546,8.681-11.546
			c5.325,0,12.038,3.068,17.007,6.87c1.168-60.205-39.109-68.973-71.255-69.556c-0.716-0.013-1.433-0.02-2.154-0.02
			c-31.687,0-68.544,13.008-67.402,70.15c5.831-2.877,10.169-4.066,13.409-4.066c9.261,0,9.534,9.721,9.961,17.514
			c0.589,10.519,2.346,42.664,1.756,54.365c-0.304,6.133-6.764,8.969-13.322,8.969c-5.939,0-11.958-2.327-13.55-6.639
			c-5.849-15.783-23.678-18.996-22.805-38.576c0.995-22.19,13.443-22.2,11.687-32.141
			C115.817,170.939,134.814,122.43,198.522,122.43 M198.522,117.232c-27.188,0-48.601,8.328-63.641,24.751
			c-15.557,16.988-23.116,42.196-20.739,69.161l0.02,0.226l0.039,0.223c0.33,1.866-0.127,2.652-2.606,5.835
			c-3.391,4.354-8.516,10.932-9.154,25.168c-0.617,13.829,6.708,21.032,13.17,27.387c4.086,4.019,7.947,7.814,9.953,13.229
			c2.25,6.091,9.482,10.03,18.424,10.03c10.662,0,18.103-5.59,18.515-13.91c0.407-8.094-0.2-27.084-1.758-54.913l-0.033-0.609
			c-0.226-4.179-0.48-8.916-2.101-12.974c-2.275-5.699-6.898-8.838-13.018-8.838c-2.419,0-5.107,0.478-8.116,1.449
			c0.832-17.699,5.942-31.441,15.238-40.924c13.135-13.4,32.738-16.212,46.871-16.212c0.689,0,1.375,0.006,2.06,0.019
			c24.518,0.445,40.927,5.833,51.639,16.956c8.527,8.854,13.335,21.673,14.339,38.186c-3.713-1.678-7.776-2.851-11.635-2.851
			c-4.188,0-7.707,1.398-10.177,4.045c-2.836,3.038-4.077,7.431-3.69,13.057c0.679,9.888-0.332,28.682-1.071,42.404
			c-0.621,11.544-0.933,17.688-0.67,20.293c0.647,6.549,9.757,14.47,20.097,14.47c5.044,0,12.358-1.885,18.554-10.86
			c3.991-5.792,7.039-8.659,9.488-10.964c5.218-4.907,7.96-8.072,8.374-21.059c0.456-14.255-3.589-19.861-6.005-23.212
			c-0.401-0.556-0.948-1.313-1.052-1.597c-0.096-0.872,0.276-2.72,0.706-4.854c1.053-5.235,2.646-13.146,2.26-26.763
			c-0.323-11.445-5.755-30.521-19.996-46.616C260.805,133.4,238.174,117.232,198.522,117.232L198.522,117.232z"/>
	</g>
</g>
</svg>
