<?xml version="1.0" encoding="utf-8"?>
<!-- Generator: Adobe Illustrator 16.0.0, SVG Export Plug-In . SVG Version: 6.00 Build 0)  -->
<!DOCTYPE svg PUBLIC "-//W3C//DTD SVG 1.1//EN" "http://www.w3.org/Graphics/SVG/1.1/DTD/svg11.dtd">
<svg version="1.1" id="Calque_1" xmlns="http://www.w3.org/2000/svg" xmlns:xlink="http://www.w3.org/1999/xlink" x="0px" y="0px"
	 width="250px" height="300px" viewBox="0 0 250 300" enable-background="new 0 0 250 300" xml:space="preserve">
<g>
	<circle cx="108.431" cy="68.345" r="43.057"/>
	<path d="M136.288,129.235H90.771c-44.246,0-80.111,35.866-80.111,80.111v46.677c10.315,9.495,21.952,17.573,34.594,23.954v-59.552
		c0-2.851,2.306-5.164,5.159-5.164c2.858,0,5.163,2.313,5.163,5.164v64.261c17.862,7.381,37.421,11.491,57.952,11.491
		c20.184,0,39.429-3.954,57.043-11.102v-64.65C170.571,217.575,180.532,129.235,136.288,129.235z"/>
	<path d="M237.523,39.747c4.348-8.939,0.625-19.711-8.316-24.059l-2.385-1.159c-8.939-4.348-19.711-0.625-24.059,8.316
		l-68.546,140.966c-4.349,8.941-0.624,19.713,8.316,24.06l2.384,1.16c8.94,4.347,19.711,0.624,24.059-8.316L237.523,39.747z"/>
	<g>
		<path fill="#BCBEC0" d="M163.115,49.131l-0.096-2.452c-0.471-5.005,1.229-10.197,5.664-15.482
			c3.586-4.342,6.043-7.646,6.043-11.326c0-3.965-2.551-6.607-7.836-6.704c-3.305,0-7.08,1.04-9.439,2.833l-2.832-8.308
			c3.398-2.17,8.779-3.869,14.822-3.869c11.703,0,17.084,6.798,17.084,14.349c0,6.891-4.059,11.516-8.117,16.142
			c-3.775,4.342-5.191,8.211-5.006,12.742v2.076H163.115z M160.85,62.253c0-4.342,3.02-7.363,7.174-7.363
			c4.246,0,7.078,3.021,7.176,7.363c0,4.152-2.832,7.364-7.271,7.364C163.775,69.617,160.85,66.405,160.85,62.253z"/>
	</g>
</g>
</svg>
