<?xml version="1.0" encoding="utf-8"?>
<!-- Generator: Adobe Illustrator 16.0.0, SVG Export Plug-In . SVG Version: 6.00 Build 0)  -->
<!DOCTYPE svg PUBLIC "-//W3C//DTD SVG 1.1//EN" "http://www.w3.org/Graphics/SVG/1.1/DTD/svg11.dtd">
<svg version="1.1" id="Calque_1" xmlns="http://www.w3.org/2000/svg" xmlns:xlink="http://www.w3.org/1999/xlink" x="0px" y="0px"
	 width="300px" height="300px" viewBox="0 0 300 300" enable-background="new 0 0 300 300" xml:space="preserve">
<g>
	<g>
		<rect x="32.663" y="19.314" fill="#C63232" width="233.644" height="151.857"/>
		<g>
			<path fill="#FFFFFF" d="M111.151,142.964c-6.934,3.655-13.997,5.058-22.449,5.058c-20.693,0-38.234-15.146-38.234-39.492
				c0-25.991,18.043-48.581,46.052-48.581c21.952,0,36.585,15.521,36.585,36.593c0,18.923-10.603,30.025-22.33,30.025
				c-5.041,0-9.712-3.285-9.464-11.103h-0.38c-4.412,7.446-10.215,11.103-17.784,11.103c-7.32,0-13.632-5.938-13.632-15.899
				c0-15.644,12.37-29.895,29.899-29.895c5.31,0,10.229,1.131,13.502,2.648l-4.284,22.828c-1.896,9.592-0.38,14.013,3.776,14.136
				c6.439,0.243,13.632-8.457,13.632-22.961c0-18.422-10.982-31.671-30.534-31.671c-20.564,0-37.845,16.402-37.845,42.019
				c0,21.064,13.748,34.182,32.42,34.182c7.188,0,13.876-1.509,19.054-4.415L111.151,142.964z M104.217,88.465
				c-1.259-0.5-3.401-1.006-6.312-1.006c-11.097,0-20.069,10.471-20.069,22.703c0,5.556,2.789,9.597,8.337,9.597
				c7.321,0,14.007-9.339,15.386-17.171L104.217,88.465z"/>
		</g>
		<g>
			<path fill="#FFFFFF" d="M232.119,53.798c0-9.628-7.816-17.439-17.445-17.439c-9.631,0-17.441,7.812-17.441,17.439
				c0,9.634,7.811,17.446,17.441,17.446C224.303,71.244,232.119,63.432,232.119,53.798z"/>
			<path fill="#FFFFFF" d="M231.182,77.364l-65.072,0.153c-5.555,0-10.059,4.504-10.059,10.06s4.504,8.452,10.059,8.452h16.975
				c0,0,15.617,0,16.273,0c1.488,0,1.17,0.432,1.17,2.788l0.021,72.974c0,0,13.885,17.354,13.885,0.431c0-12.284,0-22.952,0-23.198
				c0-0.882,1.178-0.908,1.178,0c0,0.346,0,10.728,0,22.773c0,17.016,13.902,0.425,13.902,0.425l0.01-73.404
				c0-0.655,0.535-1.181,1.184-1.181c0.65,0,1.18,0.525,1.18,1.181v38.736c0,13.355,14.373,13.989,14.373-0.789V92.448
				C246.26,84.115,239.508,77.364,231.182,77.364z"/>
		</g>
		<g>
			<path fill="#FFFFFF" d="M48.731,211.674c-3.611,0-6.549-2.937-6.549-6.546v-10.217c0-3.611,2.938-6.55,6.549-6.55h64.939v-3.917
				H30.862c-5.491,0-9.958-4.464-9.958-9.95V17.916c0-5.49,4.467-9.957,9.958-9.957h238.271c5.494,0,9.964,4.466,9.964,9.957
				v156.578c0,5.486-4.47,9.95-9.964,9.95h-87.899v3.917h64.071c3.611,0,6.55,2.938,6.55,6.55v10.217
				c0,3.609-2.938,6.546-6.55,6.546H48.731z M43.622,32.123c-0.141,0-0.255,0.117-0.255,0.262V162.58
				c0,0.138,0.119,0.258,0.255,0.258H254.67c0.138,0,0.259-0.12,0.259-0.258V32.385c0-0.145-0.116-0.262-0.259-0.262H43.622z"/>
			<path fill="#C63232" d="M269.133,11.104c3.766,0,6.818,3.051,6.818,6.812v156.578c0,3.757-3.053,6.805-6.818,6.805h-91.045
				v10.208h67.217c1.887,0,3.404,1.529,3.404,3.404v10.217c0,1.883-1.518,3.4-3.404,3.4H48.731c-1.874,0-3.404-1.518-3.404-3.4
				v-10.217c0-1.875,1.53-3.404,3.404-3.404h68.084v-10.208H30.862c-3.76,0-6.813-3.048-6.813-6.805V17.916
				c0-3.761,3.053-6.812,6.813-6.812H269.133 M43.622,165.983H254.67c1.875,0,3.404-1.53,3.404-3.403V32.385
				c0-1.885-1.529-3.407-3.404-3.407H43.622c-1.874,0-3.401,1.522-3.401,3.407V162.58C40.221,164.453,41.749,165.983,43.622,165.983
				 M269.133,4.814H30.862c-7.226,0-13.104,5.877-13.104,13.102v156.578c0,7.221,5.878,13.096,13.104,13.096h11.521
				c-2.049,1.778-3.347,4.401-3.347,7.321v10.217c0,5.344,4.349,9.691,9.694,9.691h196.573c5.346,0,9.695-4.348,9.695-9.691v-10.217
				c0-2.92-1.298-5.543-3.347-7.321h17.479c7.229,0,13.109-5.875,13.109-13.096V17.916C282.242,10.691,276.361,4.814,269.133,4.814
				L269.133,4.814z M46.512,35.268h205.271v124.424H46.512V35.268L46.512,35.268z"/>
		</g>
	</g>
	<g>
		<g>
			<path fill="#C63232" d="M152.482,143.125c-25.854,0-46.889-21.046-46.889-46.916c0-25.821,21.035-46.828,46.889-46.828
				c25.82,0,46.827,21.007,46.827,46.828C199.31,122.079,178.303,143.125,152.482,143.125z"/>
			<path fill="#FFFFFF" d="M152.482,53.798c23.42,0,42.41,18.979,42.41,42.411c0,23.491-18.99,42.499-42.41,42.499
				c-23.443,0-42.472-19.008-42.472-42.499C110.01,72.776,129.04,53.798,152.482,53.798 M152.482,44.964
				c-28.29,0-51.306,22.989-51.306,51.245c0,28.305,23.016,51.333,51.306,51.333c28.256,0,51.244-23.028,51.244-51.333
				C203.727,67.953,180.738,44.964,152.482,44.964L152.482,44.964z"/>
		</g>
		<path fill="#C63232" stroke="#FFFFFF" stroke-width="8.8338" stroke-miterlimit="10" d="M192.6,153.588h-80.297
			c-20.299,0-36.658,16.412-36.658,36.677v79.848c10.595,7.51,22.333,13.504,34.902,17.672v-82.06c0-1.543,1.328-2.809,2.896-2.809
			c1.629,0,2.898,1.266,2.898,2.809l0.019,83.839c11.487,3.235,23.59,5.001,36.111,5.001c12.522,0,24.613-1.766,36.088-4.991
			v-83.849c0-1.543,1.336-2.809,2.902-2.809c1.613,0,2.871,1.266,2.871,2.809v82.083c12.6-4.17,24.371-10.177,34.971-17.695v-79.848
			C229.303,170,212.895,153.588,192.6,153.588z"/>
	</g>
</g>
</svg>
