<?xml version="1.0" encoding="utf-8"?>
<!-- Generator: Adobe Illustrator 16.0.0, SVG Export Plug-In . SVG Version: 6.00 Build 0)  -->
<!DOCTYPE svg PUBLIC "-//W3C//DTD SVG 1.1//EN" "http://www.w3.org/Graphics/SVG/1.1/DTD/svg11.dtd">
<svg version="1.1" id="Calque_1" xmlns="http://www.w3.org/2000/svg" xmlns:xlink="http://www.w3.org/1999/xlink" x="0px" y="0px"
	 width="300px" height="300px" viewBox="0 0 300 300" enable-background="new 0 0 300 300" xml:space="preserve">
<g>
	<polyline fill="none" stroke="#C63232" stroke-width="17.7036" stroke-miterlimit="10" points="27.247,102.848 27.247,273.988 
		271.557,273.988 271.557,102.848 	"/>
	<polygon fill="#C63232" points="151.046,16.375 93.221,52.858 93.221,24.211 62.534,24.211 62.534,72.218 8.268,106.445 
		39.476,106.445 151.046,39.396 259.415,106.445 291.732,106.445 	"/>
	<rect x="158.279" y="143.468" fill="#C63232" width="77.933" height="50.427"/>
	<g>
		<path fill="#FFFFFF" d="M183.903,184.203c-2.305,1.215-4.668,1.678-7.475,1.678c-6.886,0-12.729-5.044-12.729-13.135
			c0-8.66,6.008-16.174,15.334-16.174c7.31,0,12.171,5.16,12.171,12.181c0,6.298-3.521,9.991-7.427,9.991
			c-1.678,0-3.23-1.1-3.153-3.693h-0.125c-1.466,2.479-3.404,3.693-5.922,3.693c-2.439,0-4.532-1.977-4.532-5.295
			c0-5.207,4.108-9.952,9.952-9.952c1.765,0,3.404,0.376,4.494,0.888l-1.427,7.6c-0.637,3.191-0.126,4.657,1.263,4.705
			c2.132,0.078,4.533-2.825,4.533-7.646c0-6.135-3.665-10.541-10.165-10.541c-6.847,0-12.595,5.458-12.595,13.983
			c0,7.011,4.581,11.38,10.791,11.38c2.393,0,4.62-0.502,6.337-1.466L183.903,184.203z M181.599,166.063
			c-0.425-0.164-1.139-0.338-2.103-0.338c-3.693,0-6.684,3.491-6.684,7.561c0,1.842,0.926,3.193,2.777,3.193
			c2.431,0,4.658-3.105,5.121-5.71L181.599,166.063z"/>
	</g>
	<path fill="#FFFFFF" d="M197.877,156.496v29.462h36.628v-29.462H197.877z M230.917,175.263h-30.311v-2.296h30.311V175.263z
		 M230.917,171.154h-30.311v-2.295h30.311V171.154z M230.917,164.799h-30.311v-3.761h30.311V164.799z"/>
	<path fill="#FFFFFF" stroke="#C63232" stroke-width="2.4689" stroke-miterlimit="10" d="M236.482,140.305H157.18
		c-1.254,0-2.267,1.013-2.267,2.267v52.124c0,1.254,1.013,2.266,2.267,2.266h28.604v3.404H163.13c-0.627,0-1.138,0.502-1.138,1.129
		v3.395c0,0.627,0.511,1.139,1.138,1.139h65.425c0.627,0,1.128-0.512,1.128-1.139v-3.395c0-0.627-0.501-1.129-1.128-1.129h-22.374
		v-3.404h30.302c1.253,0,2.266-1.012,2.266-2.266v-52.124C238.748,141.317,237.735,140.305,236.482,140.305z M232.798,190.731
		c0,0.627-0.501,1.128-1.128,1.128h-70.247c-0.617,0-1.128-0.501-1.128-1.128v-43.346c0-0.618,0.511-1.13,1.128-1.13h70.247
		c0.627,0,1.128,0.512,1.128,1.13V190.731z"/>
	<g>
		<path fill="#C63232" stroke="#FFFFFF" stroke-width="2.0282" stroke-miterlimit="10" d="M98.409,197.955
			c-0.289-0.241-0.771-0.106-0.771,0.434c0,0.686,0,49.908,0,49.908c0,3.125-2.729,5.67-5.863,5.67c-3.134,0-5.671-2.545-5.671-5.67
			l-0.01-91.618c0-0.521-0.453-0.964-0.993-0.964c-0.53,0-0.983,0.443-0.983,0.964v32.173c0,11.1-11.93,11.621-11.93-0.646v-36.801
			c0-6.924,5.604-12.527,12.527-12.527h27.389c6.935,0,12.537,5.603,12.537,12.527v36.801c0,12.268-11.938,11.746-11.938,0.646
			v-32.173c0-0.521-0.444-0.964-0.984-0.964s-0.983,0.443-0.983,0.964l-0.01,91.618c0,3.125-2.536,5.67-5.67,5.67
			c-3.135,0-5.864-2.545-5.864-5.67c0,0,0-49.223,0-49.908C99.19,197.849,98.709,197.714,98.409,197.955z"/>
		<path fill="#C63232" stroke="#FFFFFF" stroke-width="2.0282" stroke-miterlimit="10" d="M98.409,133.795L98.409,133.795
			c-7.984,0-14.476-6.471-14.476-14.495c0-7.985,6.491-14.471,14.476-14.471l0,0l0,0c7.995,0,14.485,6.485,14.485,14.471
			C112.895,127.324,106.404,133.795,98.409,133.795L98.409,133.795z"/>
	</g>
</g>
</svg>
