<?xml version="1.0" encoding="utf-8"?>
<!-- Generator: Adobe Illustrator 16.0.0, SVG Export Plug-In . SVG Version: 6.00 Build 0)  -->
<!DOCTYPE svg PUBLIC "-//W3C//DTD SVG 1.1//EN" "http://www.w3.org/Graphics/SVG/1.1/DTD/svg11.dtd">
<svg version="1.1" id="Calque_1" xmlns="http://www.w3.org/2000/svg" xmlns:xlink="http://www.w3.org/1999/xlink" x="0px" y="0px"
	 width="215px" height="300px" viewBox="0 0 215 300" enable-background="new 0 0 215 300" xml:space="preserve">
<g>
	<g>
		<path fill="#00AEEF" d="M13.366,45.567l10.578,207.993c0.239,4.812,4.339,8.502,9.143,8.254l13.967-0.708
			c4.803-0.243,8.494-4.333,8.256-9.144L44.729,43.961L13.366,45.567z"/>
		<polygon fill="#00AEEF" points="12.405,40.229 26.698,8.268 44.151,38.488 		"/>
		<polygon fill="#FBB040" points="20.604,21.895 26.698,8.268 34.087,21.062 		"/>
	</g>
	<path fill="#00AEEF" d="M104.175,24.634c-16.365,0-29.629,17.616-29.629,39.347c0,21.734,13.264,39.352,29.629,39.352
		s13.436-18.068,13.436-39.801C117.61,41.798,120.54,24.634,104.175,24.634z M101.099,92.678c-10.068,0-18.23-12.846-18.23-28.697
		c0-15.848,8.162-28.693,18.23-28.693s8.268,12.518,8.268,28.365C109.366,79.502,111.167,92.678,101.099,92.678z"/>
	<g>
		<path fill="#00AEEF" d="M135.63,111.428c-2.639-1.598-7.787-0.603-14.557-0.588c-12.146,0.029-18.195-3.348-14.47,8.904
			c3.284,10.803,5.511,25.264,7.071,39.549L135.63,111.428z"/>
	</g>
	<path fill="#00AEEF" d="M137.247,103.332c0.725,0,1.439-0.046,2.148-0.114l5.203-11.34c-1.373,0.519-2.803,0.8-4.273,0.8
		c-10.07,0-8.268-13.176-8.268-29.025c0-15.848-1.803-28.365,8.268-28.365c9.557,0,17.391,11.578,18.162,26.309l6.006-13.095
		c-4.527-14.035-15.021-23.867-27.246-23.867c-16.363,0-13.436,17.164-13.436,38.897
		C123.812,85.264,120.884,103.332,137.247,103.332z"/>
	<g>
		<g>
			<path fill="#00AEEF" d="M73.757,241.65L72.296,33.859c-0.029-4.815-3.961-8.685-8.771-8.648l-5.584,0.14
				c-4.808,0.032-8.676,3.958-8.646,8.773l1.43,208.267L73.757,241.65z"/>
		</g>
		<g>
			<path fill="#FBB040" d="M72.296,33.859c-0.029-4.815-3.961-8.685-8.771-8.648l-5.584,0.14c-4.808,0.032-8.676,3.958-8.646,8.773
				L72.296,33.859z"/>
		</g>
	</g>
	<g>
		<path fill="#00AEEF" d="M174.159,34.271c-0.902-0.424-1.98-0.023-2.413,0.899l-58.214,126.914
			c-0.418,0.914-0.02,1.992,0.895,2.407l27.365,12.56c0.908,0.423,1.992,0.02,2.407-0.894L202.423,49.23
			c0.428-0.914,0.029-1.991-0.893-2.4L174.159,34.271z"/>
		<path fill="#FFFFFF" d="M123.37,163.269c0.318,0.148,0.459,0.522,0.311,0.844l0,0c-0.145,0.32-0.527,0.463-0.842,0.313
			l-8.576-3.934l0.525-1.153L123.37,163.269z"/>
		<path fill="#FFFFFF" d="M121.411,156.7c0.318,0.158,0.459,0.54,0.314,0.845l0,0c-0.133,0.316-0.518,0.458-0.838,0.311
			l-4.479-2.043l0.531-1.157L121.411,156.7z"/>
		<path fill="#FFFFFF" d="M127.663,153.894c0.314,0.152,0.453,0.526,0.314,0.851l0,0c-0.143,0.312-0.525,0.454-0.842,0.313
			l-8.582-3.931l0.537-1.158L127.663,153.894z"/>
		<path fill="#FFFFFF" d="M131.962,144.537c0.33,0.143,0.467,0.52,0.314,0.841l0,0c-0.143,0.311-0.525,0.452-0.844,0.313
			l-8.578-3.939l0.539-1.152L131.962,144.537z"/>
		<path fill="#FFFFFF" d="M136.251,135.164c0.335,0.143,0.473,0.519,0.314,0.843l0,0c-0.135,0.314-0.512,0.455-0.838,0.311
			l-8.561-3.938l0.521-1.155L136.251,135.164z"/>
		<path fill="#FFFFFF" d="M140.56,125.784c0.316,0.157,0.453,0.527,0.314,0.846l0,0c-0.154,0.32-0.52,0.458-0.844,0.312
			l-8.572-3.929l0.525-1.161L140.56,125.784z"/>
		<path fill="#FFFFFF" d="M144.862,116.416c0.314,0.148,0.453,0.525,0.314,0.844l0,0c-0.15,0.33-0.527,0.47-0.844,0.313
			l-8.582-3.932l0.531-1.149L144.862,116.416z"/>
		<path fill="#FFFFFF" d="M149.159,107.051c0.322,0.146,0.463,0.521,0.313,0.842l0,0c-0.153,0.322-0.522,0.46-0.837,0.31
			l-8.58-3.931l0.527-1.157L149.159,107.051z"/>
		<path fill="#FFFFFF" d="M153.46,97.674c0.315,0.148,0.457,0.525,0.315,0.842l0,0c-0.161,0.326-0.53,0.464-0.845,0.313
			l-8.568-3.935l0.518-1.146L153.46,97.674z"/>
		<path fill="#FFFFFF" d="M157.761,88.313c0.312,0.142,0.455,0.524,0.312,0.834l0,0c-0.144,0.313-0.532,0.457-0.845,0.313
			l-8.58-3.93l0.52-1.161L157.761,88.313z"/>
		<path fill="#FFFFFF" d="M162.056,78.94c0.314,0.146,0.453,0.519,0.314,0.843l0,0c-0.143,0.318-0.525,0.459-0.844,0.314
			l-8.566-3.947l0.506-1.141L162.056,78.94z"/>
		<path fill="#FFFFFF" d="M166.351,69.565c0.315,0.148,0.457,0.531,0.313,0.843l0,0c-0.14,0.32-0.511,0.457-0.839,0.313
			l-8.586-3.932l0.543-1.161L166.351,69.565z"/>
		<path fill="#FFFFFF" d="M170.647,60.2c0.332,0.135,0.473,0.51,0.313,0.841l0,0c-0.144,0.314-0.532,0.456-0.839,0.313l-8.574-3.94
			l0.531-1.149L170.647,60.2z"/>
		<path fill="#FFFFFF" d="M174.95,50.831c0.322,0.144,0.463,0.521,0.312,0.834l0,0c-0.147,0.322-0.517,0.457-0.851,0.318
			l-8.564-3.934l0.527-1.161L174.95,50.831z"/>
		<path fill="#FFFFFF" d="M179.261,41.451c0.314,0.149,0.453,0.525,0.311,0.836l0,0c-0.16,0.332-0.529,0.469-0.85,0.318
			l-8.574-3.931l0.533-1.146L179.261,41.451z"/>
		<path fill="#FFFFFF" d="M125.712,147.342c0.32,0.146,0.459,0.523,0.313,0.845l0,0c-0.139,0.316-0.518,0.456-0.836,0.311
			l-4.479-2.061l0.523-1.154L125.712,147.342z"/>
		<path fill="#FFFFFF" d="M130.013,137.966c0.321,0.147,0.461,0.522,0.313,0.844l0,0c-0.146,0.32-0.529,0.462-0.844,0.313
			l-4.471-2.062l0.518-1.151L130.013,137.966z"/>
		<path fill="#FFFFFF" d="M134.31,128.598c0.328,0.146,0.469,0.522,0.311,0.84l0,0c-0.141,0.314-0.521,0.457-0.836,0.309
			l-4.482-2.052l0.531-1.155L134.31,128.598z"/>
		<path fill="#FFFFFF" d="M138.61,119.222c0.326,0.138,0.471,0.528,0.316,0.851l0,0c-0.15,0.313-0.516,0.459-0.838,0.311
			l-4.486-2.063l0.527-1.147L138.61,119.222z"/>
		<path fill="#FFFFFF" d="M142.921,109.849c0.316,0.153,0.457,0.53,0.314,0.846l0,0c-0.16,0.323-0.531,0.462-0.844,0.313
			l-4.494-2.045l0.535-1.165L142.921,109.849z"/>
		<path fill="#FFFFFF" d="M147.216,100.477c0.308,0.152,0.451,0.536,0.314,0.845l0,0c-0.141,0.317-0.531,0.462-0.846,0.313
			l-4.479-2.052l0.533-1.149L147.216,100.477z"/>
		<path fill="#FFFFFF" d="M151.509,91.117c0.322,0.149,0.463,0.527,0.313,0.845l0,0c-0.138,0.303-0.528,0.45-0.835,0.311
			l-4.486-2.063l0.539-1.152L151.509,91.117z"/>
		<path fill="#FFFFFF" d="M155.81,81.744c0.316,0.149,0.453,0.52,0.316,0.844l0,0c-0.148,0.318-0.531,0.462-0.846,0.313l-4.477-2.06
			l0.525-1.155L155.81,81.744z"/>
		<path fill="#FFFFFF" d="M160.104,72.369c0.314,0.15,0.457,0.533,0.314,0.844l0,0c-0.141,0.318-0.529,0.463-0.844,0.313
			l-4.475-2.053l0.527-1.145L160.104,72.369z"/>
		<path fill="#FFFFFF" d="M164.401,63.002c0.318,0.157,0.453,0.521,0.314,0.846l0,0c-0.141,0.316-0.512,0.455-0.844,0.313
			l-4.482-2.059l0.538-1.152L164.401,63.002z"/>
		<path fill="#FFFFFF" d="M168.706,53.635c0.322,0.145,0.461,0.521,0.313,0.835l0,0c-0.146,0.327-0.529,0.471-0.852,0.314
			l-4.461-2.056l0.518-1.15L168.706,53.635z"/>
		<path fill="#FFFFFF" d="M172.993,44.265c0.33,0.143,0.471,0.52,0.315,0.841l0,0c-0.142,0.318-0.511,0.457-0.825,0.305
			l-4.494-2.052l0.529-1.153L172.993,44.265z"/>
	</g>
	<g>
		<path fill-rule="evenodd" clip-rule="evenodd" fill="#FBB040" d="M180.183,277.909c0,1.142-0.924,2.065-2.066,2.065
			c0,0-12.85,11.758-81.822,11.758s-81.822-11.758-81.822-11.758c-1.139,0-2.066-0.924-2.066-2.065V109.863
			c0-1.139,0.928-2.066,2.066-2.066c0,0,12.816,11.758,81.822,11.758c69.005,0,81.822-11.758,81.822-11.758
			c1.143,0,2.066,0.928,2.066,2.066V277.909z"/>
	</g>
</g>
</svg>
