<?xml version="1.0" encoding="utf-8"?>
<!-- Generator: Adobe Illustrator 16.0.0, SVG Export Plug-In . SVG Version: 6.00 Build 0)  -->
<!DOCTYPE svg PUBLIC "-//W3C//DTD SVG 1.1//EN" "http://www.w3.org/Graphics/SVG/1.1/DTD/svg11.dtd">
<svg version="1.1" id="Calque_1" xmlns="http://www.w3.org/2000/svg" xmlns:xlink="http://www.w3.org/1999/xlink" x="0px" y="0px"
	 width="300px" height="274.663px" viewBox="0 0 300 274.663" enable-background="new 0 0 300 274.663" xml:space="preserve">
<g>
	<path fill="#D11A6F" d="M283.74,162.396h-44.295v8.17c0,7.168-5.832,13-13,13h-13.5c-7.168,0-13-5.832-13-13v-8.17h-95v8.17
		c0,7.168-5.832,13-13,13h-13.5c-7.168,0-13-5.832-13-13v-8.17H16.259c-2.939,0-5.675-0.862-7.991-2.33v98.229
		c0,4.413,3.578,7.991,7.991,7.991H283.74c4.414,0,7.992-3.578,7.992-7.991v-98.229C289.416,161.534,286.68,162.396,283.74,162.396z
		"/>
	<path fill="#D11A6F" d="M267.219,20.969c-0.469-4.706-9.656-8.462-20.955-8.462s-20.488,3.756-20.955,8.462H267.219z"/>
	<path fill="#D11A6F" d="M74.4,20.969c-0.468-4.706-9.656-8.462-20.955-8.462s-20.487,3.756-20.955,8.462H74.4z"/>
	<path fill="#FAA61A" d="M152.445,12.507c23.182,0,41.975,3.789,41.975,8.462h10.525c0-6.887-23.506-12.471-52.5-12.471
		c-28.996,0-52.5,5.584-52.5,12.471h10.524C110.469,16.296,129.262,12.507,152.445,12.507z"/>
	<path fill="#FAA61A" d="M99.945,170.566c0,4.418-3.582,8-8,8h-13.5c-4.418,0-8-3.582-8-8v-21c0-4.418,3.582-8,8-8h13.5
		c4.418,0,8,3.582,8,8V170.566z"/>
	<path fill="#FAA61A" d="M234.445,170.566c0,4.418-3.582,8-8,8h-13.5c-4.418,0-8-3.582-8-8v-21c0-4.418,3.582-8,8-8h13.5
		c4.418,0,8,3.582,8,8V170.566z"/>
	<path fill="#FAA61A" d="M283.74,27.969H16.259c-4.413,0-7.991,3.578-7.991,7.991v111.444c0,4.413,3.578,7.991,7.991,7.991h49.186
		v-5.83c0-7.168,5.832-13,13-13h13.5c7.168,0,13,5.832,13,13v5.83h95v-5.83c0-7.168,5.832-13,13-13h13.5c7.168,0,13,5.832,13,13
		v5.83h44.295c4.414,0,7.992-3.578,7.992-7.991V35.96C291.732,31.547,288.154,27.969,283.74,27.969z"/>
</g>
</svg>
