<?xml version="1.0" encoding="utf-8"?>
<!-- Generator: Adobe Illustrator 16.0.0, SVG Export Plug-In . SVG Version: 6.00 Build 0)  -->
<!DOCTYPE svg PUBLIC "-//W3C//DTD SVG 1.1//EN" "http://www.w3.org/Graphics/SVG/1.1/DTD/svg11.dtd">
<svg version="1.1" xmlns="http://www.w3.org/2000/svg" xmlns:xlink="http://www.w3.org/1999/xlink" x="0px" y="0px" width="500px"
	 height="500px" viewBox="0 0 500 500" enable-background="new 0 0 500 500" xml:space="preserve">
<g id="fond_test" display="none">
	<rect y="-4" display="inline" fill="#43B1E6" width="500" height="504"/>
</g>
<g id="Calque_4">
</g>
<g id="Calque_5">
	<g>
		<polygon fill="#83C4ED" points="272.585,231.733 327.743,199.167 294.381,181.002 		"/>
		<polygon fill="#83C4ED" points="231.375,163.691 120.136,218.059 209.301,269.1 263.296,237.219 		"/>
	</g>
</g>
<g id="Calque_3">
	<path fill="none" stroke="#344154" stroke-width="7" stroke-miterlimit="10" d="M286.725,392.591"/>
	<path fill="none" stroke="#364495" stroke-width="7" stroke-miterlimit="10" d="M444.073,228.94L286.725,339.027
		c0,0-10.378,6.857-10.378,34.286c0,27.43,17.349,13.888,17.349,13.888"/>
	<line fill="none" stroke="#364495" stroke-width="7" stroke-miterlimit="10" x1="78.768" y1="218.059" x2="241.133" y2="314.563"/>
	<path fill="none" stroke="#344154" stroke-width="7" stroke-miterlimit="10" d="M353.445,434.844"/>
	<polyline fill="none" stroke="#364495" stroke-width="7" stroke-miterlimit="10" points="338.098,438.541 445.25,354.94 
		426.902,349.937 	"/>
	<path fill="none" stroke="#364495" stroke-width="7" stroke-miterlimit="10" d="M426.947,301.622l18.303,6.059l-17.946,13.7
		L287.901,427.779c0,0-24.464,41.699,5.56,45.592"/>
	<polyline fill="none" stroke="#364495" stroke-width="7" stroke-miterlimit="10" points="430.939,351.037 430.04,350.792 
		430.04,319.291 	"/>
	<path fill="none" stroke="#364495" stroke-width="7" stroke-miterlimit="10" d="M82.008,276.913
		c-38.404,15.464-8.719,56.586-8.719,56.586l215.077,139.165l5.096,0.707l22.565-17.609c0,0,9.96,14.829,9.96,35.4l19.738-17.699
		c0,0,2.263-25.824-7.627-34.922v-1.497l6.895-3.881"/>
	<path fill="none" stroke="#364495" stroke-width="7" stroke-miterlimit="10" d="M444.073,230.813v-1.874l-142.115-65.746
		c-16.759,41.293-35.507,81.084-35.507,81.084s-24.455-51.904-42.47-98.669L80.447,216.153c0,0-0.667,0.682-1.68,1.906
		c-5.28,6.393-20.589,31.769,1.025,48.251c25.762,19.646,206.932,126.28,206.932,126.28L444.37,275.99l-0.297-6.81l-15.805-5.889
		v-21.58L444.073,230.813z"/>
	<path fill="none" stroke="#364495" stroke-width="7" stroke-miterlimit="10" d="M327.74,80.189
		c0,33.848-61.288,163.913-61.288,163.913s-61.287-130.065-61.287-163.913c0-33.849,27.439-61.287,61.287-61.287
		C300.299,18.903,327.74,46.341,327.74,80.189z"/>
	
		<line fill="none" stroke="#364495" stroke-width="7" stroke-miterlimit="10" x1="430.939" y1="302.942" x2="415.403" y2="297.414"/>
	<line fill="none" stroke="#364495" stroke-width="7" stroke-miterlimit="10" x1="79.793" y1="277.871" x2="91.556" y2="272.808"/>
	<circle fill="none" stroke="#364495" stroke-width="7" stroke-miterlimit="10" cx="266.451" cy="79.298" r="38.225"/>
</g>
<g id="repère">
</g>
</svg>
