<?xml version="1.0" encoding="utf-8"?>
<!-- Generator: Adobe Illustrator 16.0.0, SVG Export Plug-In . SVG Version: 6.00 Build 0)  -->
<!DOCTYPE svg PUBLIC "-//W3C//DTD SVG 1.1//EN" "http://www.w3.org/Graphics/SVG/1.1/DTD/svg11.dtd">
<svg version="1.1" id="Calque_1" xmlns="http://www.w3.org/2000/svg" xmlns:xlink="http://www.w3.org/1999/xlink" x="0px" y="0px"
	 width="299.99px" height="250.338px" viewBox="0 0 299.99 250.338" enable-background="new 0 0 299.99 250.338"
	 xml:space="preserve">
<g>
	<path fill="#652B91" d="M208.194,91.325h-22.442c-11.361,0-19.3-7.063-19.3-17.176c0-10.643,8.658-19.301,19.285-19.301
		l31.428-0.075V23.341c0-2.545-2.063-4.608-4.605-4.608H12.871c-2.545,0-4.606,2.063-4.606,4.608V141.31
		c0,2.545,2.063,4.607,4.606,4.607h199.688c2.545,0,4.605-2.063,4.605-4.607V91.325H208.194z"/>
	<g>
		<path fill="#EB1C24" d="M273.025,29.485c0-12.737-10.328-23.065-23.063-23.065c-12.738,0-23.066,10.328-23.066,23.065
			c0,12.737,10.328,23.065,23.066,23.065C262.697,52.551,273.025,42.223,273.025,29.485z"/>
		<path fill="#EB1C24" d="M271.778,60.642l-86.026,0.207c-7.346,0-13.3,5.954-13.3,13.301c0,7.346,5.954,11.176,13.3,11.176h22.442
			c0,0,20.645,0,21.506,0c1.973,0,1.563,0.576,1.563,3.681l0.025,145.872c0,4.992,4.049,9.04,9.039,9.04
			c4.991,0,9.322-4.048,9.322-9.04c0,0,0-78.7,0-79.481c0-1.17,1.559-1.205,1.559,0c0,1.095,0,79.481,0,79.481
			c0,4.992,4.33,9.04,9.32,9.04c4.993,0,9.041-4.048,9.041-9.04l0.027-145.872c0-0.859,0.695-1.557,1.559-1.557
			s1.56,0.697,1.56,1.557v51.221c0,17.664,19.015,18.496,19.015-1.037v-58.6C291.728,69.575,282.796,60.642,271.778,60.642z"/>
	</g>
</g>
<g>
	<path fill="#FFFFFF" d="M23.143,39.278c2.016-0.336,4.655-0.624,8.017-0.624c4.128,0,7.152,0.96,9.073,2.688
		c1.728,1.536,2.832,3.889,2.832,6.769c0,2.928-0.864,5.232-2.496,6.913c-2.256,2.353-5.81,3.552-9.889,3.552
		c-1.248,0-2.4-0.048-3.36-0.288v12.961h-4.176L23.143,39.278L23.143,39.278z M27.32,54.879c0.912,0.24,2.063,0.336,3.456,0.336
		c5.041,0,8.113-2.497,8.113-6.865c0-4.32-3.072-6.385-7.633-6.385c-1.823,0-3.216,0.144-3.937,0.336V54.879z"/>
	<path fill="#FFFFFF" d="M47.768,55.263c0-2.736-0.048-5.088-0.192-7.249h3.696l0.191,4.608h0.145
		c1.056-3.121,3.647-5.088,6.479-5.088c0.433,0,0.769,0.048,1.152,0.096v3.984c-0.432-0.096-0.864-0.096-1.44-0.096
		c-2.976,0-5.088,2.208-5.665,5.376c-0.096,0.576-0.144,1.296-0.144,1.968v12.385h-4.224L47.768,55.263L47.768,55.263z"/>
	<path fill="#FFFFFF" d="M84.01,59.439c0,8.593-6,12.337-11.568,12.337c-6.24,0-11.137-4.608-11.137-11.953
		c0-7.729,5.136-12.289,11.521-12.289C79.497,47.535,84.01,52.383,84.01,59.439z M65.624,59.68c0,5.088,2.88,8.929,7.009,8.929
		c4.032,0,7.058-3.792,7.058-9.025c0-3.937-1.968-8.881-6.961-8.881C67.784,50.703,65.624,55.311,65.624,59.68z"/>
	<path fill="#FFFFFF" d="M83.624,78.065c1.968-0.144,3.601-0.672,4.608-1.824c1.151-1.296,1.632-3.121,1.632-8.689V48.015h4.225
		v21.17c0,4.512-0.72,7.44-2.783,9.553c-1.873,1.872-4.945,2.64-7.201,2.64L83.624,78.065z M94.569,41.486
		c0,1.392-0.96,2.592-2.688,2.592c-1.535,0-2.544-1.2-2.544-2.592c0-1.44,1.057-2.64,2.641-2.64S94.569,40.046,94.569,41.486z"/>
	<path fill="#FFFFFF" d="M103.352,60.399c0.096,5.713,3.695,8.065,7.969,8.065c3.024,0,4.896-0.528,6.433-1.2l0.769,3.024
		c-1.488,0.672-4.081,1.488-7.777,1.488c-7.152,0-11.425-4.752-11.425-11.761c0-7.009,4.128-12.481,10.896-12.481
		c7.633,0,9.602,6.625,9.602,10.897c0,0.864-0.048,1.488-0.145,1.968H103.352z M115.738,57.375c0.048-2.64-1.104-6.817-5.856-6.817
		c-4.32,0-6.145,3.889-6.48,6.817H115.738z"/>
	<path fill="#FFFFFF" d="M130.136,42.446v5.568h6.048v3.216h-6.048v12.53c0,2.88,0.815,4.513,3.168,4.513
		c1.151,0,1.823-0.096,2.447-0.288l0.192,3.216c-0.816,0.288-2.112,0.576-3.745,0.576c-1.968,0-3.552-0.672-4.56-1.776
		c-1.152-1.296-1.633-3.36-1.633-6.097V51.231h-3.6v-3.216h3.6v-4.32L130.136,42.446z"/>
</g>
</svg>
