<?xml version="1.0" encoding="utf-8"?>
<!-- Generator: Adobe Illustrator 16.0.0, SVG Export Plug-In . SVG Version: 6.00 Build 0)  -->
<!DOCTYPE svg PUBLIC "-//W3C//DTD SVG 1.1//EN" "http://www.w3.org/Graphics/SVG/1.1/DTD/svg11.dtd">
<svg version="1.1" id="Calque_1" xmlns="http://www.w3.org/2000/svg" xmlns:xlink="http://www.w3.org/1999/xlink" x="0px" y="0px"
	 width="299.99px" height="256.5px" viewBox="-1 18.996 299.99 256.5" enable-background="new -1 18.996 299.99 256.5"
	 xml:space="preserve">
<g>
	<g>
		<path fill="#00ADEE" d="M191.119,188.589c13.867,1.531,22.953,6.723,30.445,11.063c1.75,1.018,3.383,1.961,5.004,2.824
			l-23.652-47.023c-2.672-5.292-9.117-7.412-14.387-4.756l-3.586,1.801c-5.277,2.656-7.41,9.096-4.746,14.373L191.119,188.589z"/>
		<path fill="#00ADEE" d="M245.826,207.339c1.16,0,2.184-0.115,3.258-0.195l0.023-121.706c0-5.924-4.805-10.715-10.707-10.715
			l-4.023-0.007c-5.902,0-10.699,4.798-10.699,10.707l-0.016,115.433C230.318,204.683,235.814,207.339,245.826,207.339z"/>
		<path fill="#00ADEE" d="M254.631,129.087c5.719-1.531,11.594,1.837,13.109,7.542l1.066,3.877
			c1.531,5.705-1.852,11.585-7.555,13.138l-68.848,18.119c-5.703,1.547-11.582-1.836-13.121-7.549l-1.031-3.869
			c-1.547-5.713,1.813-11.579,7.539-13.125L254.631,129.087z"/>
	</g>
	<g>
		<path fill="#00ADEE" d="M86.22,197.99c8.398,3.84,16.414,7.447,25.719,8.777l0.027-164.97c0-7.738-6.27-13.988-13.98-13.988
			l-5.242-0.015c-7.707,0-13.973,6.265-13.973,13.974l-0.02,152.912C81.318,195.761,83.81,196.894,86.22,197.99z"/>
		<path fill="#00ADEE" d="M119.181,98.766c7.465-2.003,15.129,2.396,17.113,9.844l1.391,5.066
			c1.996,7.448-2.414,15.113-9.863,17.146l-89.859,23.65c-7.449,2.018-15.129-2.396-17.133-9.858l-1.352-5.045
			c-2.016-7.455,2.375-15.113,9.844-17.132L119.181,98.766z"/>
		<g>
			<path fill="#00ADEE" d="M42.396,188.597c2.645-0.299,5.422-0.502,8.551-0.502c12.441,0,23.18,4.436,32.754,8.756l-32.027-63.669
				c-3.484-6.904-11.898-9.67-18.773-6.207l-4.688,2.345c-6.891,3.47-9.668,11.876-6.199,18.772L42.396,188.597z"/>
		</g>
	</g>
	<g>
		<path fill="#FAAF40" d="M245.826,229.437c-16.98,0-26.723-5.656-35.324-10.656c-7.941-4.609-14.793-8.588-27.598-8.588
			c-12.879,0-19.949,4.014-28.152,8.66c-8.73,4.957-18.633,10.584-35.379,10.584c-17.465,0-30.641-6.012-42.254-11.303
			c-9.336-4.262-17.41-7.941-26.172-7.941c-12.781,0-17.074,2.889-28.551,10.619l-3.738,2.506c-3.383,2.234-7.926,1.334-10.16-2.033
			c-2.25-3.369-1.344-7.912,2.031-10.162l3.672-2.469c12.152-8.188,19.484-13.125,36.746-13.125c11.949,0,22.273,4.711,32.254,9.256
			c10.758,4.914,21.891,9.988,36.172,9.988c12.875,0,19.953-4.014,28.148-8.674c8.742-4.951,18.637-10.57,35.383-10.57
			s26.422,5.619,34.965,10.57c8.008,4.66,14.934,8.674,27.957,8.674c19.281,0,28.805-9.539,32.383-13.125
			c2.867-2.881,7.512-2.859,10.363-0.014c2.871,2.867,2.871,7.506,0.016,10.365C284.283,216.32,271.189,229.437,245.826,229.437z"/>
		<path fill="#FAAF40" d="M245.826,266.697c-16.98,0-26.723-5.654-35.324-10.656c-7.941-4.602-14.793-8.588-27.598-8.588
			c-12.879,0-19.949,4.016-28.152,8.66c-8.73,4.967-18.633,10.584-35.379,10.584c-17.465,0-30.641-6.01-42.254-11.303
			c-9.336-4.26-17.41-7.941-26.172-7.941c-12.781,0-17.074,2.896-28.551,10.621l-3.738,2.512c-3.383,2.236-7.926,1.328-10.16-2.033
			c-2.25-3.375-1.344-7.92,2.031-10.17l3.672-2.469c12.152-8.18,19.484-13.123,36.746-13.123c11.949,0,22.273,4.711,32.254,9.256
			c10.758,4.914,21.891,9.988,36.172,9.988c12.875,0,19.953-4.016,28.148-8.668c8.742-4.951,18.637-10.576,35.383-10.576
			s26.422,5.625,34.965,10.576c8.008,4.652,14.934,8.668,27.957,8.668c19.281,0,28.805-9.539,32.383-13.125
			c2.867-2.875,7.512-2.859,10.363-0.016c2.871,2.869,2.871,7.506,0.016,10.367C284.283,253.58,271.189,266.697,245.826,266.697z"/>
	</g>
</g>
</svg>
