<?xml version="1.0" encoding="utf-8"?>
<!-- Generator: Adobe Illustrator 16.0.0, SVG Export Plug-In . SVG Version: 6.00 Build 0)  -->
<!DOCTYPE svg PUBLIC "-//W3C//DTD SVG 1.1//EN" "http://www.w3.org/Graphics/SVG/1.1/DTD/svg11.dtd">
<svg version="1.1" id="Calque_1" xmlns="http://www.w3.org/2000/svg" xmlns:xlink="http://www.w3.org/1999/xlink" x="0px" y="0px"
	 width="299.99px" height="238px" viewBox="-0.75 27.496 299.99 238" enable-background="new -0.75 27.496 299.99 238"
	 xml:space="preserve">
<g>
	<g>
		<path fill="#37B34A" d="M272.246,159.146c17.781-13.974,20.883-39.712,6.906-57.517c-13.98-17.789-39.73-20.883-57.516-6.908
			c-17.797,13.982-20.898,39.734-6.922,57.539C228.687,170.048,254.449,173.128,272.246,159.146z"/>
		<path fill="#37B34A" d="M86.445,189.701c10.559,4.818,20.48,9.35,33.176,9.35c10.945,0,16.652-3.234,24.531-7.717
			c9.066-5.141,20.332-11.527,39.004-11.527c15.172,0,25.266,4.217,33.289,8.557c-3.992-9.156-10.293-18.121-15.777-25.094
			c-12.902-16.429-34.25-40.921-54.652-24.892l-63.074,49.734C84.125,188.648,85.293,189.179,86.445,189.701z"/>
		<path fill="#37B34A" d="M168.969,155.023c0.141,7.359-5.715,13.443-13.066,13.594l-2.047,0.037
			c-7.367,0.156-13.469-5.699-13.609-13.059l-3.465-80.011c-0.145-7.359,5.703-13.443,13.07-13.602l2.047-0.035
			c7.359-0.15,13.445,5.705,13.605,13.064L168.969,155.023z"/>
		<path fill="#37B34A" d="M156.461,89.344c-6.707,3.051-14.613,0.102-17.664-6.607l-0.844-1.869
			c-3.055-6.699-0.094-14.611,6.617-17.66l65.441-27.32c6.707-3.057,14.609-0.092,17.66,6.615l0.844,1.854
			c3.059,6.701,0.102,14.613-6.598,17.67L156.461,89.344z"/>
	</g>
	<g>
		<path fill="#D70A8B" d="M246.078,221.044c-16.98,0-26.723-5.656-35.324-10.654c-7.938-4.609-14.797-8.59-27.598-8.59
			c-12.879,0-19.953,4.016-28.148,8.662c-8.734,4.961-18.637,10.582-35.387,10.582c-17.461,0-30.637-6.008-42.254-11.305
			c-9.336-4.26-17.406-7.939-26.168-7.939c-12.785,0-17.074,2.893-28.551,10.623l-3.738,2.506
			c-3.387,2.234-7.922,1.332-10.164-2.033c-2.25-3.371-1.34-7.918,2.031-10.166l3.68-2.469c12.145-8.184,19.48-13.123,36.742-13.123
			c11.949,0,22.273,4.711,32.254,9.256c10.758,4.912,21.891,9.988,36.168,9.988c12.879,0,19.957-4.018,28.156-8.67
			c8.734-4.955,18.633-10.574,35.379-10.574s26.426,5.619,34.965,10.574c8.004,4.652,14.93,8.67,27.957,8.67
			c19.281,0,28.801-9.537,32.383-13.123c2.863-2.879,7.516-2.863,10.363-0.014c2.871,2.863,2.871,7.502,0.016,10.365
			C284.539,207.929,271.437,221.044,246.078,221.044z"/>
		<path fill="#D70A8B" d="M246.078,258.308c-16.98,0-26.723-5.656-35.324-10.654c-7.938-4.609-14.797-8.59-27.598-8.59
			c-12.879,0-19.953,4.016-28.148,8.662c-8.734,4.961-18.637,10.582-35.387,10.582c-17.461,0-30.637-6.008-42.254-11.305
			c-9.336-4.26-17.406-7.939-26.168-7.939c-12.785,0-17.074,2.893-28.551,10.623l-3.738,2.506
			c-3.387,2.234-7.922,1.332-10.164-2.033c-2.25-3.371-1.34-7.918,2.031-10.166l3.68-2.469c12.145-8.184,19.48-13.123,36.742-13.123
			c11.949,0,22.273,4.711,32.254,9.256c10.758,4.912,21.891,9.988,36.168,9.988c12.879,0,19.957-4.018,28.156-8.67
			c8.734-4.955,18.633-10.574,35.379-10.574s26.426,5.619,34.965,10.574c8.004,4.652,14.93,8.67,27.957,8.67
			c19.281,0,28.801-9.537,32.383-13.123c2.863-2.879,7.516-2.863,10.363-0.016c2.871,2.865,2.871,7.504,0.016,10.367
			C284.539,245.191,271.437,258.308,246.078,258.308z"/>
	</g>
</g>
</svg>
