<?xml version="1.0" encoding="utf-8"?>
<!-- Generator: Adobe Illustrator 16.0.0, SVG Export Plug-In . SVG Version: 6.00 Build 0)  -->
<!DOCTYPE svg PUBLIC "-//W3C//DTD SVG 1.1//EN" "http://www.w3.org/Graphics/SVG/1.1/DTD/svg11.dtd">
<svg version="1.1" id="Calque_1" xmlns="http://www.w3.org/2000/svg" xmlns:xlink="http://www.w3.org/1999/xlink" x="0px" y="0px"
	 width="299.99px" height="299.99px" viewBox="0 0 299.99 299.99" enable-background="new 0 0 299.99 299.99" xml:space="preserve">
<g id="Calque_2">
	<path fill="#D11B70" d="M322.48,152.618"/>
	<path fill="#D0186E" d="M265.038,152.657l0.172-0.346c0,0-0.077,0.125-0.211,0.345c-1.398-0.047-2.867-0.094-4.396-0.142
		l-27.267-81.479c5.866-5.677,10.088-9.894,11.606-11.688c2.099-2.48-3.099,2.188-11.999,10.516l-0.123-0.369
		c0,0,0.034,0.145,0.095,0.396c-1.022,0.957-2.092,1.959-3.208,3.008l-76.894-38.334c0.134-8.162,0.137-14.129-0.06-16.472
		c-0.27-3.238-0.643,3.733-1.049,15.92l-0.347-0.173c0,0,0.126,0.077,0.346,0.212c-0.047,1.399-0.094,2.867-0.141,4.396
		L70.087,65.713c-5.677-5.865-9.894-10.087-11.688-11.605c-2.48-2.098,2.188,3.099,10.516,11.999l-0.368,0.123
		c0,0,0.145-0.034,0.396-0.095c0.958,1.022,1.96,2.093,3.009,3.208l-38.335,76.893c-8.162-0.134-14.129-0.138-16.472,0.058
		c-3.238,0.271,3.733,0.644,15.92,1.05l-0.173,0.348c0,0,0.078-0.126,0.212-0.346c1.398,0.046,2.867,0.094,4.396,0.141
		l27.265,81.479c-5.866,5.678-10.087,9.894-11.605,11.688c-2.099,2.479,3.098-2.189,11.998-10.515l0.124,0.367
		c0,0-0.035-0.145-0.095-0.396c1.022-0.957,2.092-1.96,3.208-3.009l76.894,38.336c-0.134,8.161-0.137,14.128,0.059,16.471
		c0.27,3.238,0.643-3.732,1.049-15.919l0.347,0.173c0,0-0.126-0.077-0.346-0.212c0.047-1.398,0.094-2.867,0.141-4.396l81.48-27.267
		c5.676,5.866,9.893,10.087,11.687,11.605c2.48,2.099-2.188-3.099-10.515-11.997l0.367-0.123c0,0-0.145,0.034-0.396,0.095
		c-0.957-1.022-1.96-2.093-3.009-3.209l38.336-76.894c8.161,0.134,14.128,0.137,16.471-0.06
		C284.195,153.435,277.223,153.062,265.038,152.657z M233.22,71.148c2.702,11.116,18.551,75.099,26.727,81.347
		c-4.496-0.139-9.5-0.277-14.825-0.419l-23.397-69.923C225.961,78.128,229.859,74.4,233.22,71.148z M204.333,207.643
		c-3.51-3.682-7.097-7.438-10.677-11.183l21.951-44.032c5.492,0.182,10.979,0.355,16.322,0.519
		C227.972,159.44,203.122,200.581,204.333,207.643z M93.769,92.357c3.508,3.681,7.095,7.437,10.675,11.181L82.492,147.57
		c-5.492-0.182-10.979-0.355-16.321-0.518C70.128,140.558,94.974,99.425,93.769,92.357z M147.448,192.539
		c-0.013,0.363-0.026,0.726-0.039,1.09c-3.385-2.062-22.847-13.807-28.402-14.749c2.213-2.121,4.364-4.187,6.435-6.174
		l22.321,11.127c-0.103,2.783-0.206,5.668-0.313,8.627c-0.014,0.031-0.043,0.065-0.053,0.097L147.448,192.539z M117.839,178.946
		c-0.267,0.248-0.53,0.494-0.799,0.744c-0.936-3.854-6.392-25.916-9.652-30.512c3.063,0.063,6.045,0.125,8.914,0.184l7.915,23.651
		c-2.039,1.896-4.152,3.861-6.319,5.879c-0.032,0.013-0.077,0.015-0.105,0.03L117.839,178.946z M106.512,148.398
		c-0.364-0.013-0.726-0.026-1.092-0.039c2.063-3.386,13.806-22.845,14.75-28.4c2.122,2.212,4.187,4.363,6.174,6.434l-11.129,22.321
		c-2.782-0.102-5.666-0.205-8.624-0.312c-0.031-0.015-0.065-0.044-0.097-0.054L106.512,148.398z M150.651,107.462
		c0.014-0.363,0.026-0.726,0.039-1.092c3.385,2.063,22.847,13.807,28.4,14.75c-2.212,2.122-4.362,4.188-6.433,6.174l-22.322-11.127
		c0.103-2.782,0.206-5.667,0.313-8.625c0.015-0.03,0.045-0.064,0.054-0.096L150.651,107.462z M180.261,121.052
		c0.267-0.248,0.53-0.495,0.8-0.745c0.936,3.849,6.393,25.918,9.652,30.513c-3.063-0.063-6.046-0.125-8.915-0.184l-7.914-23.653
		c2.038-1.896,4.151-3.861,6.317-5.877c0.033-0.013,0.078-0.015,0.106-0.031L180.261,121.052z M191.589,151.6
		c0.363,0.014,0.726,0.025,1.092,0.039c-2.062,3.384-13.808,22.847-14.749,28.401c-2.122-2.213-4.188-4.362-6.175-6.434
		l11.128-22.322c2.782,0.103,5.667,0.206,8.626,0.313c0.03,0.014,0.063,0.044,0.096,0.053L191.589,151.6z M126.459,126.51
		c1.294,1.348,2.555,2.66,3.775,3.932l-9.215,18.484c-1.858-0.068-3.783-0.141-5.753-0.211
		C117.045,145.792,126.943,129.364,126.459,126.51z M171.643,173.49c-1.295-1.349-2.558-2.661-3.777-3.933l9.214-18.485
		c1.858,0.069,3.783,0.14,5.754,0.212C181.055,154.207,171.151,170.647,171.643,173.49z M160.769,139.156
		c1.469-1.361,3.045-2.823,4.715-4.372c0.328,1.36,3.278,13.437,4.967,15.625c-3.978-0.078-7.546-0.146-10.579-0.206l-2.608-7.799
		c1.072-0.994,2.241-2.077,3.48-3.225c0.461,1.887,2.692,10.8,3.752,11.113L160.769,139.156z M157.251,142.415
		c0.244,1.002,1.733,7.022,2.535,7.788C153.103,150.074,149.05,150,149.05,150s4.224,0.169,11.161,0.437
		c-0.537,0.882-3.738,6.192-3.712,7.3c-4.631-4.813-7.449-7.735-7.449-7.735s2.867,3.105,7.583,8.2
		c-1.004,0.244-7.023,1.735-7.785,2.536c0.128-6.684,0.202-10.736,0.202-10.736s-0.169,4.224-0.436,11.161
		c-0.882-0.538-6.194-3.741-7.298-3.713c4.812-4.631,7.733-7.448,7.733-7.448s-3.104,2.866-8.199,7.583
		c-0.244-1.003-1.735-7.022-2.536-7.785c6.683,0.128,10.735,0.202,10.735,0.202s-4.223-0.169-11.16-0.436
		c0.535-0.88,3.739-6.192,3.713-7.299c4.63,4.812,7.447,7.733,7.447,7.733s-2.866-3.105-7.584-8.2c1-0.243,7.024-1.733,7.787-2.535
		C149.124,145.947,149.05,150,149.05,150s0.17-4.224,0.437-11.163c0.88,0.536,6.192,3.741,7.298,3.715
		c-4.812,4.631-7.733,7.447-7.733,7.447S152.156,147.134,157.251,142.415z M159.892,161.719c1.359,1.469,2.821,3.045,4.371,4.715
		c-1.36,0.328-13.436,3.276-15.624,4.966c0.042-2.104,0.081-4.096,0.116-5.952L159.892,161.719z M148.757,165.444
		c0.032-1.652,0.063-3.195,0.09-4.623l7.798-2.61c0.993,1.073,2.076,2.242,3.225,3.481
		C157.984,162.153,149.084,164.384,148.757,165.444z M160.223,161.606c-0.151-0.157-0.311-0.321-0.459-0.478l5.236-10.511
		c2.001,0.076,4.149,0.157,6.427,0.243c-0.729,1.191-7.183,11.816-7.536,14.559C162.604,164.082,161.379,162.807,160.223,161.606z
		 M159.763,161.129c-1.147-1.192-2.215-2.302-3.205-3.332l3.667-7.359c1.462,0.056,3.054,0.117,4.742,0.182
		C163.962,152.276,159.242,160.15,159.763,161.129z M141.455,141.788c-0.994-1.074-2.077-2.242-3.226-3.481
		c1.883-0.46,10.786-2.688,11.114-3.749c-0.032,1.65-0.063,3.193-0.09,4.622L141.455,141.788z M149.344,134.554l-11.138,3.727
		c-1.36-1.469-2.822-3.045-4.372-4.715c1.357-0.328,13.437-3.278,15.625-4.966C149.419,130.704,149.38,132.697,149.344,134.554z
		 M138.336,138.871l-5.239,10.511c-2.001-0.076-4.148-0.157-6.425-0.243c0.729-1.192,7.182-11.817,7.536-14.561
		C135.665,136.094,137.05,137.534,138.336,138.871z M138.338,138.873c1.147,1.192,2.214,2.302,3.204,3.331l-3.668,7.36
		c-1.462-0.056-3.054-0.117-4.744-0.182C134.136,147.725,138.853,139.86,138.338,138.873z M138.228,149.796l2.61,7.799
		c-1.073,0.993-2.242,2.076-3.481,3.226c-0.46-1.885-2.688-10.78-3.749-11.113C135.26,149.739,136.802,149.768,138.228,149.796z
		 M141.254,157.509l7.36,3.668c-0.056,1.462-0.117,3.054-0.181,4.742c-1.658-1.007-9.523-5.723-10.51-5.207
		C139.115,159.564,140.224,158.499,141.254,157.509z M148.635,171.677l15.638-5.233c1.227,1.321,2.5,2.693,3.826,4.122
		c-1.917,0.464-16.806,4.11-19.566,6.215C148.568,175.016,148.602,173.312,148.635,171.677z M164.084,165.622l7.356-14.76
		c1.802,0.067,3.672,0.138,5.619,0.21c-1.026,1.682-8.978,14.791-9.439,18.229C166.398,168.03,165.219,166.802,164.084,165.622z
		 M170.728,150.416l-5.234-15.64c1.321-1.226,2.693-2.499,4.121-3.825c0.462,1.912,4.11,16.806,6.215,19.566
		C174.068,150.482,172.364,150.448,170.728,150.416z M156.846,142.492l-7.36-3.67c0.056-1.462,0.117-3.054,0.181-4.742
		c1.659,1.007,9.534,5.729,10.513,5.206C158.986,140.433,157.877,141.501,156.846,142.492z M149.466,128.323l-15.639,5.234
		c-1.226-1.321-2.499-2.693-3.825-4.121c1.91-0.462,16.802-4.11,19.565-6.215C149.532,124.983,149.498,126.686,149.466,128.323z
		 M134.016,134.378l-7.357,14.761c-1.802-0.068-3.672-0.139-5.62-0.21c1.025-1.679,8.976-14.786,9.441-18.229
		C131.701,131.969,132.882,133.198,134.016,134.378z M127.373,149.584l5.235,15.639c-1.322,1.227-2.694,2.5-4.123,3.826
		c-0.463-1.916-4.11-16.803-6.215-19.565C124.033,149.517,125.737,149.552,127.373,149.584z M127.651,149.591
		c2.104,0.042,4.097,0.08,5.954,0.116l3.727,11.137c-1.469,1.359-3.045,2.821-4.714,4.371
		C132.289,163.853,129.34,151.78,127.651,149.591z M137.443,161.175c0.158-0.152,0.323-0.312,0.479-0.461l10.511,5.238
		c-0.076,2.001-0.158,4.149-0.243,6.425c-1.193-0.729-11.816-7.182-14.561-7.535C134.969,163.553,136.242,162.329,137.443,161.175z
		 M148.526,177.135l19.586-6.556c1.266,1.362,2.576,2.773,3.918,4.219c-3.325,0.81-21.95,5.43-23.615,7.787
		C148.453,180.717,148.49,178.895,148.526,177.135z M176.184,150.524l-6.556-19.587c1.362-1.267,2.774-2.577,4.219-3.919
		c0.809,3.323,5.43,21.95,7.788,23.616C179.767,150.596,177.947,150.559,176.184,150.524z M168.608,131.183l-18.485-9.215
		c0.069-1.858,0.141-3.783,0.212-5.753c2.923,1.778,19.354,11.678,22.205,11.191C171.191,128.702,169.879,129.963,168.608,131.183z
		 M168.352,131.429c-1.271,1.221-2.5,2.4-3.681,3.536l-14.76-7.357c0.067-1.801,0.137-3.672,0.209-5.619
		C151.802,123.013,164.91,130.965,168.352,131.429z M164.472,135.157c-1.34,1.287-2.613,2.512-3.814,3.667
		c-0.158,0.152-0.322,0.312-0.479,0.46l-10.511-5.239c0.076-2.001,0.158-4.148,0.243-6.425
		C151.106,128.35,161.731,134.804,164.472,135.157z M149.574,122.865l-19.586,6.555c-1.265-1.362-2.576-2.773-3.918-4.218
		c3.324-0.809,21.939-5.426,23.615-7.787C149.646,119.284,149.61,121.103,149.574,122.865z M121.916,149.475l6.556,19.586
		c-1.363,1.266-2.774,2.576-4.219,3.918c-0.81-3.328-5.429-21.944-7.788-23.614C118.334,149.403,120.154,149.44,121.916,149.475z
		 M129.492,168.815l18.485,9.216c-0.069,1.857-0.141,3.782-0.212,5.751c-2.928-1.78-19.362-11.681-22.206-11.188
		C126.908,171.299,128.221,170.037,129.492,168.815z M129.748,168.569c1.272-1.222,2.5-2.402,3.681-3.536l14.759,7.356
		c-0.068,1.803-0.139,3.674-0.21,5.621C146.294,176.983,133.188,169.034,129.748,168.569z M148.216,192.282l30.565-10.229
		c2.251,2.419,4.563,4.898,6.908,7.412c-3.096,0.745-32.877,8.001-37.669,12.045C148.088,198.377,148.153,195.292,148.216,192.282z
		 M148.228,191.665c0.063-3.064,0.125-6.048,0.184-8.917l23.652-7.915c1.896,2.04,3.862,4.153,5.879,6.32
		c0.012,0.032,0.015,0.077,0.03,0.105l0.022-0.048c0.248,0.267,0.495,0.531,0.744,0.8
		C174.891,182.946,152.823,188.402,148.228,191.665z M150.094,97.898l-37.701,12.616c-2.855-3.061-5.759-6.167-8.665-9.272
		c3.972-0.958,42.392-10.324,46.625-15.179C150.263,90.039,150.177,94.003,150.094,97.898z M150.08,98.491
		c-0.066,3.132-0.133,6.218-0.194,9.229l-30.564,10.229c-2.252-2.418-4.564-4.898-6.909-7.413
		C115.504,109.789,145.284,102.534,150.08,98.491z M149.871,108.336c-0.063,3.064-0.125,6.047-0.184,8.915l-23.652,7.916
		c-1.896-2.039-3.86-4.151-5.876-6.316c-0.012-0.033-0.015-0.079-0.031-0.107l-0.023,0.048c-0.249-0.267-0.495-0.531-0.745-0.8
		C123.21,117.053,145.276,111.597,149.871,108.336z M148.008,202.101l37.7-12.616c2.855,3.06,5.758,6.166,8.665,9.271
		c-3.978,0.959-42.396,10.325-46.625,15.18C147.837,209.961,147.924,205.997,148.008,202.101z M185.154,187.579l17.737-35.58
		c4.183,0.146,8.432,0.289,12.683,0.43c-2.133,3.488-22.676,37.278-22.234,43.703C190.591,193.257,187.85,190.392,185.154,187.579z
		 M184.745,187.151c-2.168-2.264-4.303-4.491-6.387-6.664l14.379-28.846c3.303,0.118,6.692,0.236,10.127,0.355
		C201.205,154.712,185.274,180.902,184.745,187.151z M191.332,150.834l-10.229-30.564c2.419-2.252,4.898-4.564,7.412-6.909
		c0.745,3.089,8.002,32.876,12.044,37.669C197.427,150.962,194.342,150.897,191.332,150.834z M179.538,120.692l-28.846-14.379
		c0.118-3.302,0.237-6.691,0.355-10.126c2.715,1.66,28.902,17.587,35.152,18.119C183.938,116.472,181.711,118.608,179.538,120.692z
		 M150.362,85.604l-46.658,15.613c-3.755-4.013-7.512-8.017-11.175-11.907c7.388-1.793,54.039-13.311,58.19-19.158
		C150.597,75.235,150.478,80.427,150.362,85.604z M104.761,103.87c2.749,2.875,5.488,5.737,8.185,8.551l-17.737,35.58
		c-4.183-0.145-8.432-0.289-12.683-0.43C84.657,144.084,105.2,110.296,104.761,103.87z M113.356,112.849
		c2.168,2.263,4.303,4.491,6.387,6.664l-14.379,28.844c-3.303-0.118-6.692-0.237-10.127-0.355
		C96.896,145.288,112.824,119.099,113.356,112.849z M106.769,149.165l10.229,30.564c-2.418,2.252-4.899,4.563-7.413,6.909
		c-0.747-3.098-8-32.872-12.043-37.668C100.675,149.037,103.76,149.102,106.769,149.165z M118.562,179.307l28.845,14.379
		c-0.118,3.303-0.237,6.69-0.355,10.127c-2.718-1.662-28.904-17.59-35.152-18.119C114.162,183.526,116.389,181.391,118.562,179.307z
		 M147.738,214.395l46.658-15.614c3.756,4.012,7.513,8.018,11.176,11.907c-7.392,1.794-54.063,13.313-58.191,19.164
		C147.502,224.768,147.621,219.574,147.738,214.395z M229.307,151.678l-19.498-58.268c4.122-3.879,8.109-7.646,11.838-11.188
		c1.995,8.228,15.265,62.099,22.531,69.826C239.423,151.927,234.424,151.802,229.307,151.678z M228.898,151.669
		c-5.083-0.12-10.275-0.239-15.452-0.355l-15.614-46.659c4.013-3.755,8.018-7.513,11.908-11.175
		C211.532,100.86,223.049,147.515,228.898,151.669z M212.987,151.302c-3.976-0.09-7.939-0.177-11.836-0.261l-12.615-37.7
		c3.061-2.855,6.166-5.759,9.271-8.666C198.764,108.644,208.133,147.071,212.987,151.302z M186.629,113.895L151.05,96.158
		c0.146-4.183,0.289-8.432,0.431-12.684c3.483,2.131,37.275,22.676,43.701,22.235C192.306,108.459,189.443,111.199,186.629,113.895z
		 M150.729,69.743L92.464,89.241c-3.879-4.122-7.646-8.109-11.188-11.839c8.228-1.995,62.092-15.262,69.826-22.53
		C150.976,59.628,150.852,64.627,150.729,69.743z M93.488,92.062L66.075,147.05c-5.658-0.172-11.143-0.327-16.283-0.461
		c4.409-7.23,33.116-54.7,33.442-65.306C86.51,84.735,89.956,88.357,93.488,92.062z M68.793,148.32l19.498,58.265
		c-4.122,3.881-8.109,7.648-11.838,11.188c-1.996-8.231-15.264-62.096-22.531-69.825C58.677,148.073,63.677,148.198,68.793,148.32z
		 M69.201,148.33c5.083,0.122,10.277,0.242,15.455,0.357l15.613,46.657c-4.013,3.755-8.017,7.513-11.908,11.175
		C86.567,199.128,75.05,152.47,69.201,148.33z M85.115,148.698c3.976,0.089,7.939,0.176,11.834,0.259l12.615,37.7
		c-3.061,2.855-6.166,5.758-9.271,8.664C99.334,191.344,89.969,152.931,85.115,148.698z M111.471,186.103l35.578,17.737
		c-0.145,4.183-0.288,8.432-0.429,12.684c-3.492-2.136-37.279-22.678-43.702-22.235C105.794,191.54,108.657,188.801,111.471,186.103
		z M147.37,230.259l58.267-19.499c3.88,4.12,7.646,8.109,11.188,11.838c-8.229,1.996-62.101,15.266-69.827,22.534
		C147.123,240.374,147.248,235.375,147.37,230.259z M204.614,207.938l27.412-54.988c5.657,0.171,11.142,0.326,16.281,0.459
		c-4.406,7.229-33.115,54.703-33.44,65.31C211.592,215.265,208.145,211.643,204.614,207.938z M152.811,34.726
		c9.771,5.949,66.22,39.984,76.419,38.623c-3.279,3.083-6.912,6.518-10.78,10.187l-65.987-32.896
		C152.614,44.794,152.734,39.402,152.811,34.726z M152.461,50.741c7.229,4.407,54.7,33.116,65.307,33.443
		c-3.452,3.274-7.073,6.721-10.779,10.252l-54.986-27.413C152.172,61.366,152.328,55.882,152.461,50.741z M151.998,67.12
		c6.493,3.957,47.624,28.8,54.694,27.6c-3.681,3.508-7.438,7.095-11.18,10.674L151.48,83.441
		C151.661,77.949,151.836,72.461,151.998,67.12z M70.199,65.829c11.115-2.703,75.093-18.549,81.345-26.725
		c-0.138,4.496-0.277,9.5-0.419,14.825L81.204,77.327C77.179,73.09,73.451,69.19,70.199,65.829z M33.777,146.238
		c5.949-9.771,39.985-66.218,38.623-76.417c3.083,3.278,6.517,6.911,10.186,10.779l-32.896,65.986
		C43.845,146.436,38.452,146.315,33.777,146.238z M64.879,228.85c-2.702-11.117-18.549-75.097-26.724-81.347
		c4.496,0.139,9.499,0.278,14.823,0.42l23.398,69.921C72.139,221.87,68.24,225.598,64.879,228.85z M145.288,265.273
		c-9.771-5.949-66.225-39.989-76.419-38.622c3.278-3.084,6.911-6.518,10.779-10.187l65.989,32.896
		C145.486,255.204,145.366,260.597,145.288,265.273z M145.639,249.258c-7.23-4.408-54.706-33.117-65.309-33.44
		c3.452-3.276,7.074-6.722,10.78-10.254l54.988,27.412C145.928,238.633,145.772,244.117,145.639,249.258z M146.102,232.879
		c-6.496-3.959-47.642-28.812-54.697-27.597c3.681-3.509,7.438-7.097,11.182-10.677l44.033,21.952
		C146.439,222.051,146.264,227.537,146.102,232.879z M227.901,234.171c-11.112,2.701-75.104,18.552-81.347,26.728
		c0.138-4.496,0.277-9.5,0.419-14.824l69.923-23.399C220.922,226.911,224.65,230.809,227.901,234.171z M225.701,230.179
		c-3.083-3.278-6.517-6.91-10.185-10.778l32.896-65.989c5.844,0.15,11.236,0.271,15.913,0.35
		C258.38,163.525,224.338,219.982,225.701,230.179z"/>
	<path fill="#F8A519" d="M266.995,153.275l0.172-0.346c0,0-0.076,0.125-0.211,0.345c-1.397-0.047-2.867-0.094-4.396-0.142
		l-27.267-81.479c5.867-5.677,10.088-9.894,11.607-11.688c2.098-2.48-3.101,2.188-12,10.516l-0.123-0.369
		c0,0,0.035,0.145,0.096,0.396c-1.022,0.957-2.092,1.959-3.209,3.008l-76.893-38.334c0.133-8.162,0.137-14.129-0.06-16.473
		c-0.27-3.237-0.643,3.734-1.049,15.921l-0.348-0.174c0,0,0.127,0.078,0.346,0.212c-0.047,1.4-0.094,2.868-0.141,4.397
		L72.044,66.331c-5.677-5.865-9.894-10.087-11.688-11.605c-2.48-2.099,2.188,3.099,10.516,11.999l-0.368,0.123
		c0,0,0.145-0.034,0.396-0.096c0.958,1.023,1.96,2.094,3.009,3.208l-38.335,76.894c-8.162-0.134-14.129-0.138-16.472,0.058
		c-3.238,0.271,3.733,0.644,15.92,1.049l-0.173,0.349c0,0,0.078-0.126,0.212-0.347c1.398,0.047,2.867,0.095,4.396,0.142
		l27.265,81.479c-5.866,5.678-10.087,9.894-11.605,11.688c-2.099,2.479,3.098-2.189,11.998-10.516l0.124,0.368
		c0,0-0.035-0.145-0.095-0.396c1.022-0.957,2.092-1.96,3.208-3.009l76.894,38.336c-0.134,8.161-0.137,14.128,0.059,16.471
		c0.27,3.238,0.643-3.733,1.049-15.919l0.347,0.173c0,0-0.126-0.077-0.346-0.212c0.047-1.399,0.094-2.867,0.141-4.396l81.479-27.266
		c5.676,5.866,9.893,10.087,11.688,11.605c2.48,2.099-2.188-3.099-10.516-11.997l0.367-0.123c0,0-0.144,0.034-0.396,0.095
		c-0.957-1.023-1.959-2.093-3.008-3.209l38.336-76.894c8.16,0.134,14.127,0.137,16.471-0.06
		C286.153,154.053,279.18,153.68,266.995,153.275z M235.178,71.766c2.702,11.116,18.551,75.099,26.727,81.347
		c-4.496-0.139-9.5-0.278-14.826-0.419L223.68,82.771C227.919,78.746,231.817,75.018,235.178,71.766z M206.29,208.261
		c-3.51-3.682-7.096-7.438-10.676-11.183l21.951-44.033c5.492,0.183,10.979,0.356,16.322,0.52
		C229.93,160.058,205.079,201.199,206.29,208.261z M95.727,92.975c3.508,3.681,7.095,7.437,10.675,11.181L84.45,148.188
		c-5.492-0.182-10.979-0.356-16.321-0.519C72.086,141.177,96.932,100.042,95.727,92.975z M149.406,193.157
		c-0.013,0.363-0.026,0.726-0.039,1.09c-3.385-2.062-22.847-13.807-28.402-14.749c2.213-2.122,4.364-4.187,6.435-6.174
		l22.322,11.127c-0.103,2.783-0.207,5.668-0.313,8.627c-0.014,0.031-0.043,0.065-0.053,0.097L149.406,193.157z M119.796,179.564
		c-0.267,0.248-0.53,0.494-0.799,0.744c-0.936-3.854-6.392-25.916-9.652-30.513c3.063,0.063,6.045,0.125,8.913,0.185l7.916,23.651
		c-2.04,1.896-4.152,3.861-6.319,5.879c-0.032,0.013-0.077,0.015-0.105,0.029L119.796,179.564z M108.47,149.016
		c-0.364-0.014-0.726-0.025-1.092-0.039c2.063-3.386,13.806-22.845,14.75-28.4c2.122,2.212,4.187,4.363,6.174,6.434l-11.129,22.32
		c-2.782-0.102-5.666-0.205-8.624-0.312c-0.031-0.016-0.065-0.044-0.097-0.054L108.47,149.016z M152.608,108.08
		c0.014-0.363,0.027-0.726,0.039-1.092c3.385,2.063,22.848,13.806,28.401,14.75c-2.213,2.122-4.362,4.188-6.434,6.174
		l-22.322-11.127c0.103-2.783,0.207-5.667,0.313-8.625c0.014-0.031,0.045-0.064,0.053-0.096L152.608,108.08z M182.219,121.671
		c0.266-0.247,0.53-0.494,0.799-0.744c0.936,3.849,6.393,25.918,9.653,30.513c-3.063-0.063-6.047-0.125-8.916-0.185l-7.914-23.652
		c2.039-1.896,4.152-3.861,6.318-5.877c0.033-0.014,0.078-0.016,0.105-0.031L182.219,121.671z M193.546,152.219
		c0.363,0.014,0.726,0.025,1.093,0.039c-2.062,3.384-13.808,22.847-14.75,28.401c-2.121-2.213-4.187-4.363-6.175-6.434
		l11.127-22.322c2.783,0.103,5.669,0.206,8.628,0.313c0.03,0.014,0.063,0.044,0.096,0.053L193.546,152.219z M128.416,127.129
		c1.294,1.349,2.555,2.661,3.775,3.933l-9.215,18.483c-1.858-0.067-3.783-0.14-5.753-0.212
		C119.002,146.41,128.901,129.982,128.416,127.129z M173.6,174.108c-1.295-1.349-2.558-2.661-3.777-3.933l9.215-18.485
		c1.857,0.069,3.783,0.14,5.754,0.212C183.012,154.825,173.108,171.265,173.6,174.108z M162.727,139.775
		c1.469-1.361,3.045-2.823,4.715-4.372c0.328,1.36,3.277,13.437,4.967,15.625c-3.979-0.078-7.547-0.146-10.58-0.206l-2.608-7.799
		c1.073-0.994,2.241-2.077,3.481-3.225c0.461,1.887,2.691,10.8,3.752,11.112L162.727,139.775z M159.208,143.033
		c0.244,1.002,1.734,7.022,2.535,7.788c-6.682-0.129-10.735-0.203-10.735-0.203s4.225,0.169,11.161,0.437
		c-0.537,0.882-3.739,6.192-3.713,7.3c-4.631-4.813-7.448-7.735-7.448-7.735s2.866,3.105,7.583,8.2
		c-1.004,0.244-7.022,1.735-7.784,2.536c0.128-6.685,0.201-10.736,0.201-10.736s-0.169,4.224-0.437,11.161
		c-0.882-0.538-6.194-3.741-7.298-3.713c4.812-4.631,7.733-7.448,7.733-7.448s-3.104,2.866-8.199,7.583
		c-0.244-1.003-1.735-7.022-2.536-7.786c6.683,0.129,10.735,0.203,10.735,0.203s-4.223-0.169-11.16-0.436
		c0.535-0.88,3.739-6.192,3.713-7.299c4.63,4.812,7.447,7.733,7.447,7.733s-2.866-3.105-7.584-8.201
		c1-0.242,7.025-1.732,7.787-2.534c-0.128,6.683-0.202,10.735-0.202,10.735s0.17-4.224,0.438-11.163
		c0.879,0.536,6.191,3.741,7.297,3.714c-4.811,4.632-7.733,7.448-7.733,7.448S154.114,147.751,159.208,143.033z M161.85,162.336
		c1.358,1.47,2.821,3.046,4.371,4.716c-1.361,0.327-13.437,3.276-15.625,4.966c0.043-2.104,0.082-4.097,0.116-5.952L161.85,162.336z
		 M150.714,166.062c0.032-1.652,0.063-3.195,0.091-4.623l7.799-2.61c0.992,1.073,2.076,2.242,3.225,3.481
		C159.942,162.771,151.042,165.001,150.714,166.062z M162.18,162.224c-0.15-0.157-0.31-0.321-0.459-0.478l5.237-10.511
		c2,0.076,4.148,0.157,6.427,0.243c-0.729,1.19-7.183,11.815-7.537,14.559C164.561,164.7,163.337,163.427,162.18,162.224z
		 M161.721,161.747c-1.148-1.192-2.216-2.302-3.205-3.332l3.666-7.359c1.463,0.056,3.055,0.116,4.741,0.182
		C165.919,152.894,161.2,160.768,161.721,161.747z M143.413,142.406c-0.994-1.074-2.077-2.242-3.226-3.481
		c1.883-0.46,10.786-2.688,11.114-3.749c-0.033,1.65-0.063,3.193-0.091,4.622L143.413,142.406z M151.302,135.172l-11.138,3.728
		c-1.36-1.469-2.822-3.045-4.372-4.715c1.357-0.328,13.437-3.278,15.625-4.966C151.376,131.323,151.337,133.315,151.302,135.172z
		 M140.294,139.489l-5.239,10.51c-2.001-0.075-4.148-0.156-6.425-0.242c0.729-1.192,7.182-11.817,7.536-14.561
		C137.622,136.711,139.008,138.152,140.294,139.489z M140.296,139.491c1.147,1.192,2.214,2.301,3.204,3.331l-3.668,7.36
		c-1.462-0.057-3.054-0.117-4.744-0.183C136.094,148.344,140.811,140.478,140.296,139.491z M140.186,150.414l2.61,7.798
		c-1.073,0.994-2.242,2.077-3.481,3.227c-0.46-1.885-2.688-10.78-3.749-11.112C137.217,150.356,138.76,150.386,140.186,150.414z
		 M143.211,158.126l7.36,3.668c-0.057,1.463-0.117,3.055-0.182,4.743c-1.658-1.007-9.523-5.723-10.51-5.207
		C141.073,160.182,142.181,159.117,143.211,158.126z M150.592,172.294l15.639-5.232c1.227,1.321,2.5,2.692,3.826,4.122
		c-1.916,0.464-16.806,4.109-19.565,6.215C150.526,175.635,150.559,173.93,150.592,172.294z M166.042,166.24l7.355-14.76
		c1.803,0.067,3.672,0.138,5.619,0.21c-1.025,1.682-8.978,14.791-9.439,18.229C168.356,168.648,167.175,167.42,166.042,166.24z
		 M172.686,151.034l-5.234-15.64c1.32-1.227,2.693-2.499,4.121-3.825c0.461,1.912,4.109,16.805,6.215,19.566
		C176.026,151.1,174.321,151.066,172.686,151.034z M158.803,143.11l-7.359-3.67c0.057-1.462,0.117-3.054,0.182-4.742
		c1.658,1.007,9.533,5.729,10.513,5.206C160.944,141.052,159.835,142.119,158.803,143.11z M151.423,128.941l-15.639,5.234
		c-1.226-1.321-2.499-2.693-3.825-4.121c1.91-0.462,16.802-4.11,19.565-6.216C151.489,125.601,151.456,127.304,151.423,128.941z
		 M135.974,134.996l-7.357,14.761c-1.802-0.067-3.672-0.139-5.62-0.211c1.025-1.678,8.976-14.785,9.441-18.229
		C133.659,132.588,134.84,133.816,135.974,134.996z M129.331,150.202l5.235,15.639c-1.322,1.227-2.694,2.5-4.123,3.825
		c-0.463-1.916-4.11-16.802-6.215-19.564C125.991,150.135,127.695,150.17,129.331,150.202z M129.609,150.208
		c2.104,0.041,4.097,0.08,5.954,0.117l3.727,11.136c-1.469,1.36-3.045,2.822-4.714,4.371
		C134.247,164.471,131.297,152.398,129.609,150.208z M139.4,161.792c0.158-0.151,0.323-0.311,0.479-0.46l10.511,5.238
		c-0.076,2.001-0.157,4.149-0.243,6.425c-1.192-0.729-11.816-7.182-14.56-7.536C136.925,164.172,138.199,162.947,139.4,161.792z
		 M150.483,177.752l19.586-6.555c1.266,1.362,2.576,2.773,3.918,4.218c-3.324,0.811-21.949,5.431-23.614,7.788
		C150.411,181.334,150.448,179.513,150.483,177.752z M178.141,151.142l-6.556-19.587c1.363-1.267,2.775-2.577,4.22-3.919
		c0.809,3.322,5.43,21.949,7.787,23.615C181.725,151.216,179.905,151.177,178.141,151.142z M170.565,131.802l-18.484-9.216
		c0.068-1.857,0.141-3.782,0.211-5.753c2.924,1.779,19.354,11.679,22.205,11.192C173.149,129.32,171.837,130.581,170.565,131.802z
		 M170.309,132.049c-1.271,1.221-2.5,2.4-3.681,3.535l-14.76-7.356c0.068-1.801,0.138-3.672,0.21-5.619
		C153.76,123.633,166.868,131.582,170.309,132.049z M166.43,135.776c-1.341,1.287-2.613,2.512-3.814,3.667
		c-0.158,0.152-0.322,0.311-0.479,0.46l-10.512-5.239c0.076-2.001,0.157-4.148,0.243-6.425
		C153.063,128.969,163.688,135.424,166.43,135.776z M151.532,123.484l-19.586,6.555c-1.265-1.362-2.576-2.773-3.918-4.218
		c3.324-0.809,21.938-5.426,23.614-7.787C151.604,119.902,151.567,121.721,151.532,123.484z M123.874,150.094l6.556,19.586
		c-1.363,1.266-2.774,2.576-4.219,3.918c-0.81-3.328-5.429-21.944-7.788-23.614C120.292,150.021,122.112,150.058,123.874,150.094z
		 M131.45,169.433l18.484,9.216c-0.068,1.857-0.14,3.782-0.211,5.751c-2.928-1.78-19.363-11.681-22.206-11.189
		C128.866,171.916,130.179,170.655,131.45,169.433z M131.706,169.187c1.272-1.222,2.5-2.402,3.681-3.536l14.759,7.356
		c-0.068,1.803-0.139,3.674-0.21,5.62C148.252,177.601,135.146,169.652,131.706,169.187z M150.173,192.9l30.566-10.229
		c2.25,2.42,4.563,4.899,6.908,7.412c-3.096,0.746-32.877,8.001-37.67,12.045C150.046,198.995,150.11,195.91,150.173,192.9z
		 M150.186,192.283c0.063-3.064,0.125-6.048,0.184-8.917l23.652-7.915c1.896,2.04,3.86,4.153,5.879,6.32
		c0.012,0.032,0.014,0.077,0.029,0.104l0.022-0.047c0.248,0.267,0.496,0.531,0.744,0.799
		C176.848,183.564,154.78,189.02,150.186,192.283z M152.05,98.516l-37.699,12.616c-2.855-3.061-5.759-6.167-8.665-9.272
		c3.972-0.958,42.392-10.324,46.625-15.179C152.22,90.657,152.135,94.621,152.05,98.516z M152.038,99.109
		c-0.067,3.132-0.133,6.218-0.194,9.228l-30.565,10.229c-2.252-2.418-4.564-4.899-6.909-7.413
		C117.461,110.407,147.241,103.152,152.038,99.109z M151.829,108.954c-0.063,3.064-0.125,6.046-0.184,8.915l-23.652,7.916
		c-1.896-2.039-3.86-4.151-5.876-6.316c-0.012-0.033-0.015-0.079-0.031-0.107l-0.023,0.048c-0.249-0.267-0.495-0.532-0.745-0.8
		C125.168,117.672,147.233,112.216,151.829,108.954z M149.966,202.719l37.699-12.616c2.855,3.06,5.758,6.166,8.666,9.271
		c-3.979,0.959-42.396,10.326-46.625,15.181C149.794,210.579,149.882,206.615,149.966,202.719z M187.112,188.197l17.736-35.58
		c4.184,0.146,8.432,0.289,12.684,0.429c-2.133,3.489-22.676,37.279-22.234,43.703C192.548,193.874,189.807,191.01,187.112,188.197z
		 M186.702,187.769c-2.168-2.265-4.303-4.491-6.387-6.664l14.379-28.846c3.303,0.117,6.693,0.236,10.127,0.355
		C203.163,155.33,187.231,181.52,186.702,187.769z M193.29,151.452l-10.229-30.564c2.418-2.252,4.897-4.564,7.412-6.909
		c0.743,3.089,8.002,32.876,12.043,37.669C199.385,151.58,196.3,151.515,193.29,151.452z M181.495,121.31l-28.846-14.379
		c0.119-3.303,0.238-6.691,0.356-10.126c2.714,1.66,28.902,17.587,35.152,18.119C185.895,117.092,183.669,119.226,181.495,121.31z
		 M152.319,86.222l-46.657,15.612c-3.755-4.012-7.512-8.016-11.175-11.906c7.388-1.793,54.039-13.311,58.189-19.158
		C152.555,75.853,152.436,81.045,152.319,86.222z M106.719,104.488c2.749,2.875,5.488,5.737,8.185,8.551l-17.737,35.58
		c-4.183-0.145-8.432-0.289-12.683-0.43C86.615,144.702,107.158,110.914,106.719,104.488z M115.314,113.469
		c2.168,2.263,4.303,4.49,6.387,6.664l-14.379,28.844c-3.303-0.117-6.692-0.236-10.127-0.355
		C98.854,145.906,114.782,119.719,115.314,113.469z M108.727,149.784l10.229,30.563c-2.418,2.252-4.899,4.563-7.413,6.909
		c-0.747-3.098-8-32.872-12.043-37.669C102.632,149.655,105.717,149.72,108.727,149.784z M120.52,179.927l28.845,14.379
		c-0.118,3.303-0.237,6.69-0.356,10.127c-2.717-1.662-28.903-17.59-35.151-18.119C116.119,184.144,118.347,182.01,120.52,179.927z
		 M149.695,215.013l46.657-15.614c3.756,4.012,7.514,8.017,11.176,11.907c-7.391,1.794-54.063,13.313-58.19,19.164
		C149.459,225.386,149.579,220.192,149.695,215.013z M231.264,152.297L211.766,94.03c4.123-3.879,8.11-7.646,11.838-11.188
		c1.996,8.228,15.266,62.099,22.531,69.825C241.38,152.545,236.382,152.42,231.264,152.297z M230.856,152.287
		c-5.084-0.121-10.275-0.24-15.453-0.355l-15.613-46.659c4.013-3.755,8.017-7.513,11.908-11.175
		C213.489,101.478,225.007,148.135,230.856,152.287z M214.944,151.92c-3.975-0.089-7.939-0.176-11.836-0.26l-12.615-37.701
		c3.062-2.854,6.166-5.758,9.271-8.666C200.721,109.262,210.091,147.689,214.944,151.92z M188.587,114.513l-35.58-17.737
		c0.146-4.183,0.289-8.432,0.431-12.684c3.483,2.131,37.276,22.676,43.701,22.235C194.264,109.077,191.401,111.818,188.587,114.513z
		 M152.686,70.361L94.421,89.859c-3.879-4.122-7.646-8.11-11.188-11.839c8.228-1.995,62.092-15.262,69.826-22.53
		C152.934,60.246,152.809,65.245,152.686,70.361z M95.445,92.68l-27.413,54.986c-5.658-0.171-11.143-0.326-16.283-0.46
		c4.409-7.23,33.116-54.701,33.442-65.306C88.469,85.353,91.913,88.975,95.445,92.68z M70.751,148.938l19.498,58.265
		c-4.122,3.88-8.109,7.648-11.838,11.188c-1.996-8.231-15.264-62.097-22.531-69.825C60.635,148.691,65.635,148.815,70.751,148.938z
		 M71.158,148.948c5.083,0.122,10.277,0.242,15.455,0.357l15.613,46.656c-4.013,3.756-8.017,7.514-11.908,11.176
		C88.525,199.746,77.007,153.09,71.158,148.948z M87.073,149.316c3.976,0.089,7.939,0.176,11.834,0.259l12.615,37.7
		c-3.061,2.854-6.166,5.758-9.271,8.664C101.291,191.961,91.927,153.551,87.073,149.316z M113.429,186.721l35.578,17.736
		c-0.145,4.184-0.288,8.433-0.429,12.685c-3.492-2.136-37.279-22.678-43.702-22.235
		C107.751,192.158,110.615,189.418,113.429,186.721z M149.328,230.876l58.268-19.499c3.879,4.121,7.646,8.11,11.188,11.839
		c-8.229,1.995-62.1,15.266-69.826,22.533C149.081,240.992,149.205,235.993,149.328,230.876z M206.571,208.556l27.412-54.988
		c5.658,0.171,11.143,0.326,16.281,0.459c-4.406,7.228-33.115,54.703-33.439,65.309C213.55,215.885,210.102,212.261,206.571,208.556
		z M154.768,35.344c9.771,5.948,66.221,39.984,76.42,38.623c-3.279,3.083-6.912,6.518-10.781,10.187l-65.986-32.896
		C154.571,45.412,154.692,40.02,154.768,35.344z M154.419,51.359c7.228,4.407,54.699,33.116,65.306,33.443
		c-3.451,3.274-7.072,6.721-10.779,10.252l-54.986-27.413C154.13,61.984,154.286,56.499,154.419,51.359z M153.956,67.738
		c6.492,3.957,47.623,28.8,54.693,27.599c-3.68,3.509-7.437,7.096-11.18,10.675l-44.031-21.952
		C153.618,78.567,153.794,73.079,153.956,67.738z M72.157,66.447c11.115-2.703,75.093-18.549,81.346-26.725
		c-0.139,4.496-0.278,9.5-0.42,14.825L83.161,77.945C79.136,73.707,75.408,69.808,72.157,66.447z M35.734,146.856
		c5.949-9.771,39.985-66.218,38.623-76.417c3.083,3.278,6.517,6.911,10.186,10.779l-32.896,65.986
		C45.803,147.054,40.41,146.933,35.734,146.856z M66.837,229.469c-2.703-11.117-18.549-75.097-26.724-81.347
		c4.496,0.139,9.499,0.278,14.823,0.419l23.398,69.921C74.096,222.488,70.198,226.218,66.837,229.469z M147.246,265.891
		c-9.771-5.949-66.225-39.989-76.419-38.622c3.278-3.084,6.911-6.519,10.779-10.188l65.989,32.896
		C147.444,255.822,147.323,261.217,147.246,265.891z M147.597,249.875c-7.23-4.407-54.706-33.116-65.309-33.439
		c3.452-3.276,7.074-6.723,10.78-10.254l54.988,27.412C147.886,239.25,147.73,244.735,147.597,249.875z M148.06,233.497
		c-6.496-3.959-47.642-28.812-54.697-27.597c3.681-3.509,7.438-7.097,11.182-10.677l44.033,21.952
		C148.396,222.668,148.221,228.155,148.06,233.497z M229.858,234.789c-11.111,2.701-75.104,18.552-81.346,26.728
		c0.138-4.496,0.277-9.5,0.419-14.824l69.923-23.4C222.88,227.529,226.608,231.427,229.858,234.789z M227.659,230.799
		c-3.084-3.278-6.518-6.91-10.186-10.778l32.896-65.989c5.844,0.15,11.236,0.271,15.912,0.349
		C260.337,164.143,226.296,220.6,227.659,230.799z"/>
</g>
<g id="Calque_4">
</g>
<g id="Calque_3" display="none">
</g>
</svg>
