<?xml version="1.0" standalone="no"?><!-- Generator: Gravit.io --><svg xmlns="http://www.w3.org/2000/svg" xmlns:xlink="http://www.w3.org/1999/xlink" style="isolation:isolate" viewBox="0 0 300 300" width="300" height="300"><defs><clipPath id="_clipPath_vzgi3mVz32g6IlLqE6qcl7KLbsDtFJJZ"><rect width="300" height="300"/></clipPath></defs><g clip-path="url(#_clipPath_vzgi3mVz32g6IlLqE6qcl7KLbsDtFJJZ)"><path d=" M 293.133 267.497 C 288.342 272.72 281.462 276 273.822 276 L 26.178 276 C 11.73 276 0 264.27 0 249.822 L 0 120.178 C 0 109.907 5.928 101.009 14.548 96.726 L 293.133 267.497 L 293.133 267.497 Z " fill="rgb(83,83,83)"/><path d=" M 293.133 267.497 C 297.395 262.835 300 256.63 300 249.822 L 300 120.178 C 300 105.73 288.27 94 273.822 94 L 264.849 94 L 251.801 72.076 C 248.163 65.963 239.435 61 232.321 61 L 143.007 61 C 135.893 61 127.606 66.2 124.511 72.606 L 114.176 94 L 69 94 L 69 85.326 C 69 84.042 67.958 83 66.674 83 L 28.504 83 C 27.22 83 26.178 84.042 26.178 85.326 L 26.178 94 C 22.001 94 18.051 94.98 14.548 96.726 L 293.133 267.497 L 293.133 267.497 Z " fill="rgb(36,36,36)"/><g id="Group"><defs><filter id="OMaDK5rZLxxkGOMstZM5xUgTSm4Y0mCR" x="-200%" y="-200%" width="400%" height="400%"><feOffset xmlns="http://www.w3.org/2000/svg" in="SourceAlpha" result="offOut" dx="0" dy="10"/><feGaussianBlur xmlns="http://www.w3.org/2000/svg" in="offOut" result="blurOut" stdDeviation="2.5"/><feComponentTransfer xmlns="http://www.w3.org/2000/svg" in="blurOut" result="opacOut"><feFuncA xmlns="http://www.w3.org/2000/svg" type="table" tableValues="0 0.5"/></feComponentTransfer><feBlend xmlns="http://www.w3.org/2000/svg" in="SourceGraphic" in2="opacOut" mode="normal"/></filter></defs><g filter="url(#OMaDK5rZLxxkGOMstZM5xUgTSm4Y0mCR)"><path d=" M 212.245 114.831 L 219.661 91.825 L 179.098 112.611 L 199.884 153.174 L 207.3 130.168 C 232.684 138.351 246.662 165.63 238.479 191.013 C 235.982 198.759 231.692 205.503 226.189 210.755 L 233.776 225.561 C 243.137 217.801 250.089 207.531 253.817 195.958 C 264.744 162.062 246.14 125.758 212.245 114.831 Z " fill="rgb(165,105,189)" vector-effect="non-scaling-stroke" stroke-width="10" stroke="rgb(165,105,189)" stroke-linejoin="round" stroke-linecap="square" stroke-miterlimit="3"/></g><defs><filter id="EdHQCDUw2IzvztkENtlroNtRIKtVWNuU" x="-200%" y="-200%" width="400%" height="400%"><feOffset xmlns="http://www.w3.org/2000/svg" in="SourceAlpha" result="offOut" dx="0" dy="10"/><feGaussianBlur xmlns="http://www.w3.org/2000/svg" in="offOut" result="blurOut" stdDeviation="2.5"/><feComponentTransfer xmlns="http://www.w3.org/2000/svg" in="blurOut" result="opacOut"><feFuncA xmlns="http://www.w3.org/2000/svg" type="table" tableValues="0 0.5"/></feComponentTransfer><feBlend xmlns="http://www.w3.org/2000/svg" in="SourceGraphic" in2="opacOut" mode="normal"/></filter></defs><g filter="url(#EdHQCDUw2IzvztkENtlroNtRIKtVWNuU)"><path d=" M 177.634 222.192 C 152.251 214.009 138.272 186.73 146.455 161.347 C 148.952 153.602 153.243 146.858 158.745 141.605 L 151.159 126.8 C 141.798 134.56 134.845 144.829 131.118 156.403 C 120.191 190.298 138.794 226.603 172.69 237.53 L 165.273 260.536 L 205.837 239.75 L 185.051 199.186 L 177.634 222.192 Z " fill="rgb(142,68,173)" vector-effect="non-scaling-stroke" stroke-width="10" stroke="rgb(142,68,173)" stroke-linejoin="round" stroke-linecap="square" stroke-miterlimit="3"/></g><path d=" M 145.27 100.824 L 240.446 131.507 L 209.764 226.683 L 114.587 196.001 L 145.27 100.824 Z " fill="none"/></g></g></svg>