<?xml version="1.0" encoding="utf-8"?>
<!-- Generator: Adobe Illustrator 16.0.0, SVG Export Plug-In . SVG Version: 6.00 Build 0)  -->
<!DOCTYPE svg PUBLIC "-//W3C//DTD SVG 1.1//EN" "http://www.w3.org/Graphics/SVG/1.1/DTD/svg11.dtd">
<svg version="1.1" id="Calque_1" xmlns="http://www.w3.org/2000/svg" xmlns:xlink="http://www.w3.org/1999/xlink" x="0px" y="0px"
	 width="300px" height="300px" viewBox="0 0 300 300" enable-background="new 0 0 300 300" xml:space="preserve">
<g>
	<path fill="#FAA61A" d="M252.908,46.985c-0.068,0.735-0.396,1.192-1.898,1.11c-2.385-0.129-13.182-11.027-14.383-12.578
		c-1.23-1.587,1.676-0.967,1.865-1.786c-3.814-3.055-7.789-5.921-11.914-8.575c-0.037,0.143-0.047,0.325-0.015,0.556
		c0.289,1.988-3.332,0.143-5.01-1.469c-1.676-1.613-6.406-4.207-9.18-5.884c-2.775-1.677-3.679-2.129-7.799-1.386
		c-4.127,0.743-1.361,3.643,1.539,4.61c2.903,0.968,6.321,3.483,1.293,5.29c-5.033,1.806-7.611-1.548-12.063-5.676
		c-4.449-4.128-12.77,1.741-17.354,4.128c-4.576,2.387-12.125,1.677-16.832,1.742c-4.709,0.064-1.484-4.451-1.937-5.225
		c-0.451-0.774-7.287-2.967-13.222,0.323c-5.937,3.29,2.45,4.579,3.16,6.901c0.709,2.322-9.933,5.87-16.707,5.031
		c-6.771-0.839-5.677,2.644-5.353,9.224c0.322,6.579,5.482,8.385,7.481,6.966s4.716-3.946,7.376-4.478
		c1.61-0.322,8.49,1.382,8.684,8.09s-6.449,8.32-8.964,6.901c-2.516-1.419-6.902-2.063-8.191,2.581s0.646,16.512,3.031,19.351
		c-7.934-1.871-11.933,0.129-22.706,2.838c-10.771,2.709-13.544,6.579-10.384,8.32c3.159,1.742,5.61,4.773,3.225,7.289
		c-2.386,2.516-17.156,6.256-22.896,4.837s0.129-7.288,1.483-8.643c1.354-1.354,4.515-5.74-5.16-6.386
		c-9.676-0.645-20.643,8.45-21.028,2.452c-0.386-5.999,2.774-14.255,5.097-18.904c2.321-4.649,4.45-0.898,8.643-0.06
		c4.192,0.839,7.678-7.353,7.999-12.255c0.322-4.901-4.772-3.999-5.997-2.708c-1.228,1.289,0.836,1.87-4.129,3.482
		c-4.967,1.612-3.161-4.708-1.937-8.063c1.226-3.354,9.87-12.514,13.029-19.222c3.16-6.708-0.646-3.934-3.031-2.58
		c-2.387,1.355-2.192-0.645-1.805-1.87c0.387-1.226,3.353-3.548,5.352-5.289c2.001-1.742,4.988-0.646,6.449-1.678
		c0.791-0.558,4.646-4.321,7.418-6.772c2.775-2.451-0.644-2.193-2.063-0.387c-1.419,1.806-4.322-0.258-2.902-0.387
		c1.418-0.129,4.321-1.419,3.998-2.516c-0.052-0.177-0.154-0.307-0.31-0.402C43.977,35.338,8.268,85.717,8.268,144.438
		C8.268,222.715,71.723,286.17,150,286.17c78.276,0,141.731-63.455,141.731-141.732C291.732,106.687,276.969,72.386,252.908,46.985z
		"/>
	<g>
		<path fill="#FFFFFF" d="M232.119,134.647v3.016c-2.07,0.17-3.808,0.738-5.228,1.719c-1.414,0.979-2.662,2.474-3.752,4.485
			c-0.326,0.654-2.039,4.872-5.146,12.656l-34.689,91.347h-3.188l-27.427-71.351l-30.197,71.351h-3.022l-36.408-90.366
			c-3.703-9.09-6.28-14.583-7.758-16.49c-1.463-1.907-3.942-3.023-7.425-3.351v-3.016h47.997v3.016
			c-3.864,0.112-6.438,0.7-7.709,1.757c-1.283,1.065-1.922,2.384-1.922,3.964c0,2.064,1.332,6.447,3.997,13.14l21.719,53.713
			l17.384-41.959l-4.572-11.754c-2.499-6.419-4.433-10.705-5.798-12.858c-1.357-2.149-2.926-3.683-4.688-4.61
			c-1.77-0.927-4.369-1.392-7.798-1.392v-3.016h53.627v3.016c-3.748,0.06-6.445,0.36-8.078,0.902
			c-1.144,0.379-2.043,1.019-2.697,1.92c-0.652,0.894-0.979,1.918-0.979,3.056c0,1.253,1.228,5.093,3.677,11.514l20.157,52.405
			l18.048-47.424c1.903-4.897,3.073-8.246,3.506-10.043c0.436-1.796,0.651-3.455,0.651-4.977c0-2.233-0.758-3.99-2.284-5.27
			c-1.523-1.272-4.435-1.972-8.734-2.083v-3.016H232.119L232.119,134.647z"/>
	</g>
</g>
</svg>
