<?xml version="1.0" encoding="utf-8"?>
<!-- Generator: Adobe Illustrator 16.0.0, SVG Export Plug-In . SVG Version: 6.00 Build 0)  -->
<!DOCTYPE svg PUBLIC "-//W3C//DTD SVG 1.0//EN" "http://www.w3.org/TR/2001/REC-SVG-20010904/DTD/svg10.dtd">
<svg version="1.0" id="Calque_1" xmlns="http://www.w3.org/2000/svg" xmlns:xlink="http://www.w3.org/1999/xlink" x="0px" y="0px"
	 width="300px" height="300px" viewBox="0 0 300 300" enable-background="new 0 0 300 300" xml:space="preserve">
<g>
	<path fill="#0A4E9B" d="M252.908,46.984c-0.068,0.735-0.395,1.191-1.897,1.109c-2.386-0.128-13.183-11.026-14.384-12.577
		c-1.229-1.587,1.677-0.968,1.867-1.786c-3.816-3.055-7.79-5.921-11.916-8.574c-0.039,0.143-0.047,0.324-0.014,0.556
		c0.288,1.988-3.332,0.144-5.01-1.469c-1.677-1.612-6.406-4.207-9.18-5.884c-2.775-1.678-3.678-2.129-7.8-1.386
		c-4.124,0.742-1.359,3.643,1.542,4.61c2.903,0.968,6.322,3.483,1.291,5.289c-5.033,1.806-7.611-1.548-12.063-5.676
		s-12.77,1.741-17.35,4.128s-12.128,1.677-16.836,1.741c-4.709,0.064-1.484-4.45-1.936-5.225c-0.451-0.773-7.288-2.967-13.223,0.323
		c-5.936,3.289,2.451,4.579,3.16,6.901c0.711,2.321-9.932,5.87-16.707,5.031c-6.771-0.839-5.676,2.645-5.352,9.224
		c0.322,6.579,5.482,8.385,7.481,6.966c2.001-1.419,4.716-3.945,7.376-4.478c1.611-0.322,8.492,1.382,8.686,8.09
		s-6.449,8.32-8.966,6.901c-2.516-1.419-6.902-2.063-8.191,2.58c-1.29,4.645,0.646,16.513,3.031,19.351
		c-7.934-1.87-11.933,0.129-22.704,2.839c-10.772,2.709-13.546,6.579-10.386,8.32c3.161,1.741,5.61,4.772,3.225,7.289
		c-2.385,2.516-17.157,6.256-22.897,4.837s0.129-7.288,1.484-8.643c1.354-1.354,4.515-5.741-5.161-6.386
		c-9.675-0.646-20.64,8.449-21.026,2.451c-0.389-5.999,2.772-14.255,5.095-18.904c2.323-4.649,4.45-0.898,8.644-0.06
		c4.191,0.839,7.676-7.354,7.997-12.256c0.321-4.901-4.772-3.998-5.997-2.708c-1.228,1.289,0.836,1.87-4.129,3.482
		c-4.967,1.612-3.161-4.709-1.936-8.063c1.225-3.354,9.87-12.514,13.029-19.222c3.162-6.708-0.646-3.935-3.031-2.58
		c-2.387,1.354-2.191-0.645-1.805-1.87c0.387-1.227,3.354-3.548,5.352-5.289c2.001-1.742,4.99-0.646,6.449-1.678
		c0.791-0.559,4.646-4.321,7.418-6.772c2.775-2.451-0.643-2.193-2.063-0.387c-1.418,1.806-4.32-0.259-2.901-0.388
		c1.418-0.129,4.322-1.419,3.998-2.516c-0.052-0.177-0.154-0.307-0.308-0.401C43.977,35.337,8.268,85.716,8.268,144.437
		c0,78.277,63.455,141.734,141.732,141.734s141.732-63.457,141.732-141.734C291.732,106.687,276.97,72.386,252.908,46.984z"/>
	<g>
		<path fill="#FFFFFF" d="M232.119,134.646v3.017c-2.07,0.17-3.808,0.737-5.225,1.718s-2.664,2.475-3.755,4.486
			c-0.325,0.653-2.038,4.872-5.146,12.656l-34.69,91.347h-3.187l-27.426-71.352l-30.198,71.352h-3.023l-36.407-90.367
			c-3.701-9.09-6.281-14.583-7.758-16.489c-1.463-1.907-3.943-3.023-7.425-3.351v-3.017h47.997v3.017
			c-3.864,0.111-6.438,0.7-7.709,1.757c-1.283,1.065-1.922,2.384-1.922,3.963c0,2.065,1.332,6.446,3.997,13.141l21.719,53.712
			l17.386-41.958l-4.574-11.754c-2.499-6.42-4.433-10.704-5.798-12.858c-1.358-2.149-2.926-3.684-4.688-4.61
			c-1.77-0.928-4.37-1.392-7.799-1.392v-3.017h53.628v3.017c-3.748,0.059-6.445,0.359-8.076,0.901
			c-1.145,0.379-2.045,1.02-2.699,1.921c-0.652,0.894-0.979,1.918-0.979,3.056c0,1.253,1.229,5.094,3.678,11.513l20.157,52.406
			l18.045-47.424c1.906-4.897,3.076-8.246,3.505-10.043c0.439-1.796,0.654-3.455,0.654-4.977c0-2.233-0.758-3.99-2.285-5.271
			c-1.521-1.272-4.434-1.972-8.732-2.083v-3.017H232.119z"/>
	</g>
</g>
</svg>
