<?xml version="1.0" encoding="utf-8"?>
<!-- Generator: Adobe Illustrator 16.0.0, SVG Export Plug-In . SVG Version: 6.00 Build 0)  -->
<!DOCTYPE svg PUBLIC "-//W3C//DTD SVG 1.1//EN" "http://www.w3.org/Graphics/SVG/1.1/DTD/svg11.dtd">
<svg version="1.1" id="Calque_1" xmlns="http://www.w3.org/2000/svg" xmlns:xlink="http://www.w3.org/1999/xlink" x="0px" y="0px"
	 width="16px" height="22px" viewBox="0 0 16 22" enable-background="new 0 0 16 22" xml:space="preserve">
<path fill="#FFFFFF" d="M14.293,8.845V6c0-3.313-2.688-6-6-6H8C4.687,0,2,2.687,2,6v2.845H0V22h16V8.845H14.293z M10,18.898H6
	l1.312-4.059C6.548,14.559,6,13.832,6,12.969c0-1.104,0.896-2,2-2c1.104,0,2,0.896,2,2c0,0.862-0.548,1.59-1.313,1.871L10,18.898z
	 M12.434,8.845H3.919V5.89c0-2.351,1.906-4.257,4.257-4.257c2.352,0,4.258,1.906,4.258,4.257V8.845z"/>
</svg>
