<?xml version="1.0" standalone="no"?><!-- Generator: Gravit.io --><svg xmlns="http://www.w3.org/2000/svg" xmlns:xlink="http://www.w3.org/1999/xlink" style="isolation:isolate" viewBox="0 0 300 300" width="300" height="300"><defs><clipPath id="_clipPath_ocGZr6sHdlB465Mt5ZgI3iK9IkfWXwLT"><rect width="300" height="300"/></clipPath></defs><g clip-path="url(#_clipPath_ocGZr6sHdlB465Mt5ZgI3iK9IkfWXwLT)"><path d=" M 0 150 C 0 67.213 67.213 0 150 0 C 232.787 0 300 67.213 300 150 C 300 232.787 232.787 300 150 300 C 67.213 300 0 232.787 0 150 Z " fill="rgb(36,36,36)"/><path d=" M 149.969 0 C 149.979 0 149.99 0 150 0 C 232.787 0 300 67.213 300 150 C 300 232.787 232.787 300 150 300 L 150 150 L 149.969 0 Z " fill="rgb(64,64,64)"/><defs><filter id="Gptm9cVIw3XzpAS71HPcoGshdkjtttPV" x="-200%" y="-200%" width="400%" height="400%"><feOffset xmlns="http://www.w3.org/2000/svg" in="SourceAlpha" result="offOut" dx="5" dy="2"/><feGaussianBlur xmlns="http://www.w3.org/2000/svg" in="offOut" result="blurOut" stdDeviation="2.5"/><feComponentTransfer xmlns="http://www.w3.org/2000/svg" in="blurOut" result="opacOut"><feFuncA xmlns="http://www.w3.org/2000/svg" type="table" tableValues="0 0.5"/></feComponentTransfer><feBlend xmlns="http://www.w3.org/2000/svg" in="SourceGraphic" in2="opacOut" mode="normal"/></filter></defs><g filter="url(#Gptm9cVIw3XzpAS71HPcoGshdkjtttPV)"><path d=" M 130.469 48 L 130.469 45.58 C 130.469 43.57 131.269 41.64 132.689 40.22 C 134.109 38.8 136.039 38 138.049 38 L 161.889 38 C 163.899 38 165.829 38.8 167.249 40.22 C 168.669 41.64 169.469 43.57 169.469 45.58 L 169.469 48 L 130.469 48 Z " fill="rgb(255,255,255)"/></g><defs><filter id="twdXxH7ImS3TuJ96cu6JWy7OAab12Nsi" x="-200%" y="-200%" width="400%" height="400%"><feOffset xmlns="http://www.w3.org/2000/svg" in="SourceAlpha" result="offOut" dx="5" dy="5"/><feGaussianBlur xmlns="http://www.w3.org/2000/svg" in="offOut" result="blurOut" stdDeviation="2.5"/><feComponentTransfer xmlns="http://www.w3.org/2000/svg" in="blurOut" result="opacOut"><feFuncA xmlns="http://www.w3.org/2000/svg" type="table" tableValues="0 0.5"/></feComponentTransfer><feBlend xmlns="http://www.w3.org/2000/svg" in="SourceGraphic" in2="opacOut" mode="normal"/></filter></defs><g filter="url(#twdXxH7ImS3TuJ96cu6JWy7OAab12Nsi)"><path d=" M 188.969 254 L 192.749 254 C 199.569 254 206.119 251.29 210.939 246.47 C 215.759 241.65 218.469 235.1 218.469 228.28 L 218.469 77.72 C 218.469 70.9 215.759 64.35 210.939 59.53 C 206.119 54.71 199.569 52 192.749 52 L 107.189 52 C 100.368 52 93.819 54.71 88.999 59.53 C 84.179 64.35 81.469 70.9 81.469 77.72 L 81.469 228.28 C 81.469 235.1 84.179 241.65 88.999 246.47 C 93.819 251.29 100.368 254 107.189 254 L 127.815 254 C 125.697 252.839 123.736 251.376 121.999 249.639 C 120.31 247.951 118.881 246.05 117.736 244 L 107.189 244 C 103.019 244 99.019 242.34 96.069 239.4 C 93.129 236.45 91.469 232.45 91.469 228.28 L 91.469 77.72 C 91.469 73.55 93.129 69.55 96.069 66.6 C 99.019 63.66 103.019 62 107.189 62 L 192.749 62 C 196.919 62 200.919 63.66 203.869 66.6 C 206.809 69.55 208.469 73.55 208.469 77.72 L 208.469 228.28 C 208.469 232.45 206.809 236.45 203.869 239.4 C 200.919 242.34 196.919 244 192.749 244 L 188.969 244 L 148.689 244 C 144.519 244 138.919 243.94 135.969 241 C 133.029 238.05 130.442 234.107 133.585 228.28 L 133.585 228.28 L 181.585 144.28 L 130.499 225 C 124.371 233.467 125.679 241.65 130.499 246.47 C 135.206 251.178 141.564 253.873 148.212 253.996 L 148.212 254 L 148.689 254 C 148.689 254 148.689 254 148.689 254 L 188.969 254 Z " fill="rgb(255,255,255)"/></g><defs><filter id="akQcBaw7GneXzOlwQqSVIqoTcTDixXjs" x="-200%" y="-200%" width="400%" height="400%"><feOffset xmlns="http://www.w3.org/2000/svg" in="SourceAlpha" result="offOut" dx="5" dy="5"/><feGaussianBlur xmlns="http://www.w3.org/2000/svg" in="offOut" result="blurOut" stdDeviation="2.5"/><feComponentTransfer xmlns="http://www.w3.org/2000/svg" in="blurOut" result="opacOut"><feFuncA xmlns="http://www.w3.org/2000/svg" type="table" tableValues="0 0.5"/></feComponentTransfer><feBlend xmlns="http://www.w3.org/2000/svg" in="SourceGraphic" in2="opacOut" mode="normal"/></filter></defs><g filter="url(#akQcBaw7GneXzOlwQqSVIqoTcTDixXjs)"><path d=" M 128.432 96.28 L 155.585 96.28 L 144.585 144.28 L 181.585 144.28 L 126.969 232 L 126.969 232 L 150.616 162.28 L 118.352 162.28 L 128.432 96.28 Z " fill="rgb(255,255,255)"/></g></g></svg>