<?xml version="1.0" standalone="no"?><!-- Generator: Gravit.io --><svg xmlns="http://www.w3.org/2000/svg" xmlns:xlink="http://www.w3.org/1999/xlink" style="isolation:isolate" viewBox="0 0 300 300" width="300" height="300"><defs><clipPath id="_clipPath_d6h4hBgsVtnrO7aVQxez0Fe58tKVkUV2"><rect width="300" height="300"/></clipPath></defs><g clip-path="url(#_clipPath_d6h4hBgsVtnrO7aVQxez0Fe58tKVkUV2)"><path d=" M 265.741 178.124 C 283.684 169.063 296 150.459 296 129 C 296 98.645 271.355 74 241 74 C 236.432 74 231.992 74.558 227.751 75.619 C 221.476 42.264 192.165 17 157 17 C 127.919 17 102.841 34.279 91.482 59.121 C 70.929 60.551 53.947 74.406 48.685 92.876 C 26.643 97.03 10 115.667 10 138 C 10 153.579 18.099 167.359 30.479 175.681 C 21.985 167.774 16.707 156.713 16.707 144.479 C 16.707 123.349 32.453 105.717 53.307 101.787 C 58.285 84.313 74.352 71.204 93.797 69.851 C 104.544 46.348 128.27 30 155.784 30 C 189.054 30 216.786 53.903 222.722 85.459 C 226.735 84.456 230.935 83.928 235.257 83.928 C 263.977 83.928 287.293 107.245 287.293 135.964 C 287.293 153.301 278.797 168.669 265.741 178.124 Z " fill="rgb(70,70,70)"/><rect x="93.232" y="276" width="121.199" height="7.192" transform="matrix(1,0,0,1,0,0)" fill="rgb(70,70,70)"/><defs><filter id="VE2wOpsuHitXhtWhYZ2sMagr3dA3Z0gc" x="-200%" y="-200%" width="400%" height="400%"><feOffset xmlns="http://www.w3.org/2000/svg" in="SourceAlpha" result="offOut" dx="0" dy="10"/><feGaussianBlur xmlns="http://www.w3.org/2000/svg" in="offOut" result="blurOut" stdDeviation="1"/><feComponentTransfer xmlns="http://www.w3.org/2000/svg" in="blurOut" result="opacOut"><feFuncA xmlns="http://www.w3.org/2000/svg" type="table" tableValues="0 0.5"/></feComponentTransfer><feBlend xmlns="http://www.w3.org/2000/svg" in="SourceGraphic" in2="opacOut" mode="normal"/></filter></defs><g filter="url(#VE2wOpsuHitXhtWhYZ2sMagr3dA3Z0gc)"><path d=" M 178.353 92.857 L 185.77 69.851 L 145.207 90.637 L 165.993 131.2 L 173.409 108.194 C 198.792 116.377 212.771 143.656 204.588 169.04 C 202.091 176.785 197.801 183.529 192.298 188.781 L 199.885 203.587 C 209.246 195.827 216.198 185.557 219.925 173.984 C 230.852 140.088 212.249 103.784 178.353 92.857 Z " fill="rgb(64,64,64)" vector-effect="non-scaling-stroke" stroke-width="10" stroke="rgb(64,64,64)" stroke-linejoin="round" stroke-linecap="square" stroke-miterlimit="3"/></g><defs><filter id="HnokviWjwnO4THhjvu345Go52PC9PVKx" x="-200%" y="-200%" width="400%" height="400%"><feOffset xmlns="http://www.w3.org/2000/svg" in="SourceAlpha" result="offOut" dx="0" dy="10"/><feGaussianBlur xmlns="http://www.w3.org/2000/svg" in="offOut" result="blurOut" stdDeviation="1"/><feComponentTransfer xmlns="http://www.w3.org/2000/svg" in="blurOut" result="opacOut"><feFuncA xmlns="http://www.w3.org/2000/svg" type="table" tableValues="0 0.5"/></feComponentTransfer><feBlend xmlns="http://www.w3.org/2000/svg" in="SourceGraphic" in2="opacOut" mode="normal"/></filter></defs><g filter="url(#HnokviWjwnO4THhjvu345Go52PC9PVKx)"><path d=" M 133.646 210.393 C 108.262 202.21 94.284 174.931 102.467 149.547 C 104.964 141.802 109.254 135.058 114.757 129.806 L 107.17 115 C 97.809 122.76 90.857 133.03 87.129 144.603 C 76.202 178.499 94.806 214.803 128.701 225.73 L 121.285 248.736 L 161.848 227.95 L 141.062 187.387 L 133.646 210.393 Z " fill="rgb(36,36,36)" vector-effect="non-scaling-stroke" stroke-width="10" stroke="rgb(36,36,36)" stroke-linejoin="round" stroke-linecap="square" stroke-miterlimit="3"/></g></g></svg>