<?xml version="1.0" encoding="utf-8"?>
<!-- Generator: Adobe Illustrator 16.0.0, SVG Export Plug-In . SVG Version: 6.00 Build 0)  -->
<!DOCTYPE svg PUBLIC "-//W3C//DTD SVG 1.1//EN" "http://www.w3.org/Graphics/SVG/1.1/DTD/svg11.dtd">
<svg version="1.1" xmlns="http://www.w3.org/2000/svg" xmlns:xlink="http://www.w3.org/1999/xlink" x="0px" y="0px" width="300px"
	 height="300px" viewBox="0 0 300 300" enable-background="new 0 0 300 300" xml:space="preserve">
<g id="Calque_2_1_" display="none">
	
		<rect x="-15.5" y="-40.833" display="inline" fill="#529DE8" stroke="#0A4D9B" stroke-width="10" stroke-miterlimit="10" width="354.667" height="348.667"/>
</g>
<g id="Calque_1">
	<g id="Calque_3" display="none">
		
			<rect x="-70.167" y="-65.5" display="inline" fill="#00FFFF" stroke="#000000" stroke-miterlimit="10" width="552.001" height="417.333"/>
	</g>
	<g id="Calque_2">
		<path fill="#FFFFFF" stroke="#EB1C24" stroke-width="10" stroke-miterlimit="10" d="M253.221,158.27
			c2.748-4.041,4.354-8.92,4.354-14.178c0-13.947-11.306-25.254-25.252-25.254c-1.837,0-3.625,0.201-5.351,0.573
			c-6.719-39.526-41.121-69.625-82.563-69.625c-45.48,0-82.496,36.254-83.722,81.442c-29.173,3.963-51.66,28.956-51.66,59.215
			c0,33.017,26.763,59.777,59.779,59.777l0,0H244.95c25.6,0,46.354-20.75,46.354-46.354
			C291.303,181.096,274.873,162.171,253.221,158.27z"/>
		<path fill="#652B91" stroke="#652B91" stroke-width="2" stroke-miterlimit="10" d="M188.402,178.107v-15.885c0-9.195-10-10-10-10
			H162.52l0,0h-41.155c0,0-10,0.807-10,10.002v8.004h5v-8.004c0,0,0.125-5.002,5-5.002h41.155l0,0h15.883c4.875,0,5,5,5,5v15.885
			h-2.038l4.469,7.879l4.469-7.879H188.402z"/>
		<path fill="#652B91" stroke="#652B91" stroke-width="2" stroke-miterlimit="10" d="M111.429,185.115V201c0,9.195,10,10,10,10
			h15.883l0,0h41.155c0,0,10-0.807,10-10.002v-8.004h-5v8.004c0,0-0.125,5.002-5,5.002h-41.155l0,0h-15.883c-4.875,0-5-5-5-5
			v-15.885h2.038L114,177.236l-4.469,7.879H111.429z"/>
	</g>
</g>
</svg>
