<?xml version="1.0" standalone="no"?><!-- Generator: Gravit.io --><svg xmlns="http://www.w3.org/2000/svg" xmlns:xlink="http://www.w3.org/1999/xlink" style="isolation:isolate" viewBox="0 0 300 300" width="300" height="300"><defs><clipPath id="_clipPath_W1BtWvQW0wwygUQlAabQUhJgYdn0GYvJ"><rect width="300" height="300"/></clipPath></defs><g clip-path="url(#_clipPath_W1BtWvQW0wwygUQlAabQUhJgYdn0GYvJ)"><path d=" M 265.741 178.124 C 283.684 169.063 296 150.459 296 129 C 296 98.645 271.355 74 241 74 C 236.432 74 231.992 74.558 227.751 75.619 C 221.476 42.264 192.165 17 157 17 C 127.919 17 102.841 34.279 91.482 59.121 C 70.929 60.551 53.947 74.406 48.685 92.876 C 26.643 97.03 10 115.667 10 138 C 10 153.579 18.099 167.359 30.479 175.681 C 21.985 167.774 16.707 156.713 16.707 144.479 C 16.707 123.349 32.453 105.717 53.307 101.787 C 58.285 84.313 74.352 71.204 93.797 69.851 C 104.544 46.348 128.27 30 155.784 30 C 189.054 30 216.786 53.903 222.722 85.459 C 226.735 84.456 230.935 83.928 235.257 83.928 C 263.977 83.928 287.293 107.245 287.293 135.964 C 287.293 153.301 278.797 168.669 265.741 178.124 Z " fill="rgb(70,70,70)"/><path d=" M 149.985 197.614 L 114.146 197.614 C 93.329 197.614 88.38 209.564 103.099 224.283 L 137.714 258.898 C 144.486 265.671 155.484 265.671 162.256 258.898 L 192.727 228.428 C 209.733 211.421 204.014 197.614 179.963 197.614 L 149.985 197.614 Z " fill="rgb(39,174,96)"/><path d=" M 149.152 118 L 157.285 118 C 165.779 118 172.675 124.896 172.675 133.389 L 172.675 194.985 C 172.675 195.817 172.608 196.633 172.481 197.429 L 184.656 197.614 C 203.462 197.614 209.318 207.368 199.429 220.103 C 197.843 222.749 195.612 225.543 192.727 228.428 L 162.256 258.898 C 158.658 262.496 153.868 264.183 149.152 263.965 L 149.152 118 L 149.152 118 Z " fill="rgb(241,196,15)" vector-effect="non-scaling-stroke" stroke-width="0.2" stroke="rgb(241,196,15)" stroke-linejoin="miter" stroke-linecap="square" stroke-miterlimit="3"/><path d=" M 149.152 118 L 145.361 118 C 145.358 118 145.356 118 145.353 118 L 141.516 118 C 133.022 118 126.127 124.896 126.127 133.389 L 126.127 194.985 C 126.127 195.817 126.193 196.633 126.32 197.429 L 114.146 197.614 C 95.34 197.614 89.484 207.368 99.372 220.103 C 100.958 222.749 103.189 225.543 106.074 228.428 L 136.545 258.898 C 140.017 262.37 144.598 264.062 149.152 263.965 L 149.152 118 L 149.152 118 Z " fill="rgb(244,208,63)" vector-effect="non-scaling-stroke" stroke-width="0.2" stroke="rgb(244,208,63)" stroke-linejoin="miter" stroke-linecap="square" stroke-miterlimit="3"/><rect x="88.801" y="275.78" width="121.199" height="7.192" transform="matrix(1,0,0,1,0,0)" fill="rgb(70,70,70)"/></g></svg>