<?xml version="1.0" encoding="utf-8"?>
<!-- Generator: Adobe Illustrator 16.0.0, SVG Export Plug-In . SVG Version: 6.00 Build 0)  -->
<!DOCTYPE svg PUBLIC "-//W3C//DTD SVG 1.1//EN" "http://www.w3.org/Graphics/SVG/1.1/DTD/svg11.dtd">
<svg version="1.1" id="Calque_1" xmlns="http://www.w3.org/2000/svg" xmlns:xlink="http://www.w3.org/1999/xlink" x="0px" y="0px"
	 width="300px" height="200px" viewBox="0 0 300 200" enable-background="new 0 0 300 200" xml:space="preserve">
<g>
	<path fill="#FAA61A" d="M257.78,139.308c0,3.735-3.028,6.763-6.763,6.763H48.983c-3.735,0-6.763-3.027-6.763-6.763V16.171
		c0-3.735,3.027-6.763,6.763-6.763h202.034c3.734,0,6.763,3.027,6.763,6.763V139.308z"/>
	<path fill="#FAA61A" d="M291.436,187.699c1.281,1.586-1.701,2.893-6.684,2.893H15.25c-4.982,0-7.966-1.307-6.686-2.893
		l32.305-39.957c0.75-0.928,4.379-1.672,8.113-1.672h202.035c3.734,0,7.363,0.744,8.115,1.672L291.436,187.699z"/>
	<path fill="#D11A6F" d="M197.338,179.616c0.414,1.383-0.393,2.522-1.808,2.522H26.467c-1.414,0-1.682-1.14-0.613-2.522
		l18.666-24.171c0.758-0.981,2.311-1.767,3.479-1.767h139.479c1.168,0,2.348,0.785,2.642,1.767L197.338,179.616z"/>
	<path fill="#D11A6F" d="M273.162,179.616c1.068,1.383,0.801,2.522-0.613,2.522h-55.843c-1.415,0-3.015-1.14-3.563-2.522
		l-9.607-24.171c-0.39-0.981,0.244-1.767,1.412-1.767h46.07c1.168,0,2.72,0.785,3.479,1.767L273.162,179.616z"/>
	<path fill="#FFFFFF" d="M246.368,132.545c0,1.168-0.946,2.113-2.113,2.113H55.746c-1.168,0-2.113-0.945-2.113-2.113V22.934
		c0-1.168,0.945-2.113,2.113-2.113h188.509c1.167,0,2.113,0.945,2.113,2.113V132.545z"/>
</g>
</svg>
