<?xml version="1.0" encoding="utf-8"?>
<!-- Generator: Adobe Illustrator 16.0.0, SVG Export Plug-In . SVG Version: 6.00 Build 0)  -->
<!DOCTYPE svg PUBLIC "-//W3C//DTD SVG 1.1//EN" "http://www.w3.org/Graphics/SVG/1.1/DTD/svg11.dtd">
<svg version="1.1" id="Calque_1" xmlns="http://www.w3.org/2000/svg" xmlns:xlink="http://www.w3.org/1999/xlink" x="0px" y="0px"
	 width="300px" height="230.067px" viewBox="0 0 300 230.067" enable-background="new 0 0 300 230.067" xml:space="preserve">
<g>
	<g>
		<rect x="113.273" y="173.396" fill="#92278F" width="73.835" height="37.035"/>
		<path fill="#92278F" d="M211.799,214.021c0-4.275-3.468-7.744-7.744-7.744H96.846c-4.277,0-7.744,3.469-7.744,7.744l0,0
			c0,4.277,3.467,7.744,7.744,7.744h107.209C208.331,221.765,211.799,218.298,211.799,214.021L211.799,214.021z"/>
		<path fill="#92278F" d="M291.732,173.396c0,3.82-3.098,6.922-6.923,6.922H15.19c-3.822,0-6.923-3.102-6.923-6.922V15.224
			c0-3.824,3.101-6.922,6.923-6.922H284.81c3.825,0,6.923,3.098,6.923,6.922V173.396z"/>
		<path fill="#92278F" d="M8.268,153.669V15.224c0-3.824,3.101-6.922,6.923-6.922H284.81c3.825,0,6.923,3.098,6.923,6.922v138.445
			H8.268z"/>
	</g>
	<rect x="16.322" y="16.607" fill="#FFFFFF" width="267.371" height="131.177"/>
</g>
</svg>
