<?xml version="1.0" encoding="utf-8"?>
<!-- Generator: Adobe Illustrator 16.0.0, SVG Export Plug-In . SVG Version: 6.00 Build 0)  -->
<!DOCTYPE svg PUBLIC "-//W3C//DTD SVG 1.1//EN" "http://www.w3.org/Graphics/SVG/1.1/DTD/svg11.dtd">
<svg version="1.1" id="Calque_1" xmlns="http://www.w3.org/2000/svg" xmlns:xlink="http://www.w3.org/1999/xlink" x="0px" y="0px"
	 width="300px" height="200px" viewBox="0 0 300 200" enable-background="new 0 0 300 200" xml:space="preserve">
<g>
	<path d="M257.78,139.307c0,3.736-3.028,6.764-6.763,6.764H48.983c-3.735,0-6.763-3.027-6.763-6.764V16.171
		c0-3.735,3.027-6.763,6.763-6.763h202.035c3.734,0,6.763,3.027,6.763,6.763V139.307z"/>
	<path d="M291.436,187.699c1.281,1.586-1.701,2.893-6.684,2.893H15.25c-4.982,0-7.966-1.307-6.686-2.893l32.305-39.957
		c0.75-0.928,4.379-1.672,8.113-1.672h202.036c3.734,0,7.363,0.744,8.115,1.672L291.436,187.699z"/>
	<path fill="#BCBEC0" d="M197.338,179.615c0.414,1.383-0.393,2.523-1.808,2.523H26.466c-1.414,0-1.682-1.141-0.613-2.523
		l18.666-24.17c0.758-0.982,2.311-1.768,3.479-1.768h139.479c1.168,0,2.348,0.785,2.642,1.768L197.338,179.615z"/>
	<path fill="#BCBEC0" d="M273.162,179.615c1.068,1.383,0.801,2.523-0.613,2.523h-55.843c-1.415,0-3.015-1.141-3.563-2.523
		l-9.607-24.17c-0.39-0.982,0.244-1.768,1.412-1.768h46.07c1.168,0,2.72,0.785,3.479,1.768L273.162,179.615z"/>
	<path fill="#FFFFFF" d="M246.368,132.545c0,1.168-0.946,2.113-2.113,2.113H55.746c-1.168,0-2.113-0.945-2.113-2.113V22.934
		c0-1.168,0.945-2.113,2.113-2.113h188.509c1.167,0,2.113,0.945,2.113,2.113V132.545z"/>
</g>
</svg>
