<?xml version="1.0" encoding="utf-8"?>
<!-- Generator: Adobe Illustrator 16.0.0, SVG Export Plug-In . SVG Version: 6.00 Build 0)  -->
<!DOCTYPE svg PUBLIC "-//W3C//DTD SVG 1.1//EN" "http://www.w3.org/Graphics/SVG/1.1/DTD/svg11.dtd">
<svg version="1.1" id="Calque_1" xmlns="http://www.w3.org/2000/svg" xmlns:xlink="http://www.w3.org/1999/xlink" x="0px" y="0px"
	 width="300px" height="150px" viewBox="0 0 300 150" enable-background="new 0 0 300 150" xml:space="preserve">
<g>
	<g>
		<g>
			<rect x="152.717" y="97.735" fill="#92278F" width="40.031" height="20.08"/>
			<path fill="#92278F" d="M206.135,119.761c0-2.318-1.88-4.199-4.199-4.199H143.81c-2.32,0-4.199,1.881-4.199,4.199l0,0
				c0,2.319,1.879,4.199,4.199,4.199h58.125C204.255,123.96,206.135,122.08,206.135,119.761L206.135,119.761z"/>
			<path fill="#92278F" d="M249.473,97.735c0,2.071-1.68,3.753-3.754,3.753H99.539c-2.073,0-3.754-1.682-3.754-3.753V11.979
				c0-2.073,1.681-3.753,3.754-3.753h146.18c2.074,0,3.754,1.68,3.754,3.753V97.735z"/>
			<path fill="#92278F" d="M95.785,87.04V11.979c0-2.073,1.681-3.753,3.754-3.753h146.18c2.074,0,3.754,1.68,3.754,3.753V87.04
				H95.785z"/>
		</g>
		<rect x="100.152" y="12.729" fill="#FFFFFF" width="144.962" height="71.12"/>
	</g>
	<g>
		<path fill="#92278F" d="M144.254,113.823c0,2.036-1.65,3.687-3.687,3.687H30.457c-2.035,0-3.685-1.65-3.685-3.687v-67.11
			c0-2.036,1.649-3.687,3.685-3.687h110.111c2.036,0,3.687,1.65,3.687,3.687V113.823z"/>
		<path fill="#92278F" d="M162.598,140.198c0.698,0.864-0.928,1.576-3.643,1.576H12.072c-2.715,0-4.34-0.712-3.643-1.576
			l17.606-21.777c0.408-0.506,2.386-0.911,4.421-0.911h110.111c2.036,0,4.014,0.405,4.424,0.911L162.598,140.198z"/>
		<path fill="#8DC63F" d="M111.312,135.792c0.227,0.754-0.214,1.375-0.984,1.375H18.185c-0.77,0-0.916-0.621-0.334-1.375
			l10.173-13.173c0.414-0.535,1.26-0.964,1.896-0.964h76.017c0.638,0,1.281,0.429,1.44,0.964L111.312,135.792z"/>
		<path fill="#8DC63F" d="M152.639,135.792c0.582,0.754,0.437,1.375-0.334,1.375h-30.436c-0.771,0-1.643-0.621-1.943-1.375
			l-5.234-13.173c-0.213-0.535,0.133-0.964,0.77-0.964h25.107c0.637,0,1.484,0.429,1.896,0.964L152.639,135.792z"/>
		<path fill="#FFFFFF" d="M138.035,110.138c0,0.637-0.516,1.151-1.151,1.151H34.143c-0.636,0-1.151-0.515-1.151-1.151V50.398
			c0-0.638,0.516-1.152,1.151-1.152h102.74c0.636,0,1.151,0.515,1.151,1.152V110.138z"/>
	</g>
	<g>
		<path fill="#92278F" d="M288.099,64.83h-77.252c-2.007,0-3.634,1.626-3.634,3.633v58.545c0,2.007,1.627,3.633,3.634,3.633h77.252
			c2.005,0,3.634-1.626,3.634-3.633V68.463C291.732,66.456,290.104,64.83,288.099,64.83z M284.195,123.644h-0.179H214.57v-51.86
			v-0.179h69.625V123.644z"/>
		<g>
			<rect x="214.437" y="71.492" fill="#FFFFFF" width="69.893" height="52.285"/>
			<path d="M284.195,71.626v52.018H214.57V71.626H284.195 M284.463,71.358h-0.268H214.57h-0.268v0.268v52.018v0.268h0.268h69.625
				h0.268v-0.268V71.626V71.358L284.463,71.358z"/>
		</g>
		
			<rect x="270.9" y="118.439" fill="#FFFFFF" stroke="#8DC63F" stroke-width="0.2982" stroke-linecap="round" stroke-linejoin="round" stroke-miterlimit="10" width="3.381" height="3.38"/>
		
			<polygon fill="#FFFFFF" stroke="#8DC63F" stroke-width="0.2982" stroke-linecap="round" stroke-linejoin="round" stroke-miterlimit="10" points="
			224.484,121.819 227.865,120.129 224.484,118.439 		"/>
		<circle fill="#FFFFFF" stroke="#8DC63F" stroke-width="0.2982" stroke-miterlimit="10" cx="249.473" cy="119.866" r="1.69"/>
	</g>
	<g>
		<path fill="#92278F" d="M276.86,92.4h-20.147c-1.413,0-2.559,1.146-2.559,2.558v41.209c0,1.412,1.146,2.557,2.559,2.557h20.147
			c1.412,0,2.559-1.145,2.559-2.557V94.958C279.419,93.546,278.272,92.4,276.86,92.4z M274.113,133.799h-0.126h-14.653V97.295
			v-0.127h14.779V133.799z"/>
		<g>
			<polygon fill="#FFFFFF" points="256.215,136.298 256.148,94.242 277.358,94.176 277.425,136.298 			"/>
			<path d="M277.358,94.242v41.989h-21.144V94.242H277.358 M277.491,94.109h-0.133h-21.144h-0.133v0.133v41.989v0.133h0.133h21.144
				h0.133v-0.133V94.242V94.109L277.491,94.109z"/>
		</g>
		
			<rect x="271.899" y="133.366" fill="#FFFFFF" stroke="#8DC63F" stroke-width="0.1634" stroke-linecap="round" stroke-linejoin="round" stroke-miterlimit="10" width="1.853" height="1.853"/>
		
			<polygon fill="#FFFFFF" stroke="#8DC63F" stroke-width="0.1634" stroke-linecap="round" stroke-linejoin="round" stroke-miterlimit="10" points="
			259.825,135.219 261.678,134.292 259.825,133.366 		"/>
		<circle fill="#FFFFFF" stroke="#8DC63F" stroke-width="0.1634" stroke-miterlimit="10" cx="266.787" cy="134.292" r="0.926"/>
	</g>
</g>
</svg>
