<?xml version="1.0" encoding="utf-8"?>
<!-- Generator: Adobe Illustrator 16.0.0, SVG Export Plug-In . SVG Version: 6.00 Build 0)  -->
<!DOCTYPE svg PUBLIC "-//W3C//DTD SVG 1.1//EN" "http://www.w3.org/Graphics/SVG/1.1/DTD/svg11.dtd">
<svg version="1.1" id="Calque_1" xmlns="http://www.w3.org/2000/svg" xmlns:xlink="http://www.w3.org/1999/xlink" x="0px" y="0px"
	 width="243px" height="299.99px" viewBox="30.162 0 243 299.99" enable-background="new 30.162 0 243 299.99" xml:space="preserve"
	>
<g>
	<path fill="#D70A8B" d="M264.313,254.164c0,0.822-0.672,1.488-1.488,1.488H40.382c-0.828,0-1.489-0.666-1.489-1.488V78.938
		c0-0.82,0.661-1.487,1.489-1.487h222.443c0.816,0,1.488,0.667,1.488,1.487V254.164z"/>
	<path fill="#D70A8B" d="M264.431,42.859c0,19.105-50.487,34.592-112.769,34.592c-62.284,0-112.771-15.486-112.771-34.592
		c0-19.104,50.486-34.597,112.771-34.597C213.944,8.262,264.431,23.755,264.431,42.859z"/>
	<path fill="#37B34A" d="M264.313,44.348l-0.004-0.003c-2.539,18.418-51.993,33.105-112.646,33.105
		c-61.131,0-110.862-14.92-112.684-33.538c-0.047,0.139-0.087,0.281-0.087,0.436V87.59c0,0.026,0.009,0.047,0.013,0.068
		c0.285,19.03,50.654,34.431,112.758,34.431c62.281,0,112.769-15.485,112.769-34.594c0-0.494-0.05-0.988-0.118-1.48V44.348z"/>
	<path fill="#37B34A" d="M264.313,100.892l-0.004-0.004c-2.539,18.419-51.993,33.108-112.646,33.108
		c-61.131,0-110.862-14.918-112.684-33.538c-0.047,0.14-0.087,0.281-0.087,0.434v43.244c0,0.023,0.009,0.044,0.013,0.067
		c0.285,19.03,50.654,34.432,112.758,34.432c62.281,0,112.769-15.487,112.769-34.595c0-0.494-0.05-0.988-0.118-1.479V100.892z"/>
	<path fill="#37B34A" d="M264.313,157.436c0,0-0.004,0-0.004-0.003c-2.539,18.419-51.993,33.109-112.646,33.109
		c-61.131,0-110.862-14.922-112.684-33.537c-0.047,0.139-0.087,0.278-0.087,0.431v43.248c0,0.021,0.009,0.042,0.013,0.065
		c0.285,19.03,50.654,34.43,112.758,34.43c62.281,0,112.769-15.485,112.769-34.592c0-0.497-0.05-0.99-0.118-1.48V157.436z"/>
	<path fill="#37B34A" d="M264.313,213.983l-0.004-0.003c-2.539,18.418-51.993,33.108-112.646,33.108
		c-61.131,0-110.862-14.921-112.684-33.537c-0.047,0.138-0.087,0.278-0.087,0.432v43.245c0,0.021,0.009,0.043,0.013,0.068
		c0.285,19.03,50.654,34.431,112.758,34.431c62.281,0,112.769-15.489,112.769-34.593c0-0.498-0.05-0.991-0.118-1.482V213.983z"/>
</g>
</svg>
