<?xml version="1.0" standalone="no"?><!-- Generator: Gravit.io --><svg xmlns="http://www.w3.org/2000/svg" xmlns:xlink="http://www.w3.org/1999/xlink" style="isolation:isolate" viewBox="0 0 300 300" width="300" height="300"><defs><clipPath id="_clipPath_GiPegLEI5iLxXoUD5KsowxuKBnDBCtOQ"><rect width="300" height="300"/></clipPath></defs><g clip-path="url(#_clipPath_GiPegLEI5iLxXoUD5KsowxuKBnDBCtOQ)"><path d="M 9.994 18.362 L 145.642 18.362 C 150.843 18.362 155.067 22.585 155.067 27.787 L 155.067 282.11 C 155.067 287.312 150.843 291.535 145.642 291.535 L 9.994 291.535 C 4.792 291.535 0.568 287.312 0.568 282.11 L 0.568 27.787 C 0.568 22.585 4.792 18.362 9.994 18.362 Z" style="stroke:none;fill:#626161;stroke-miterlimit:10;"/><path d=" M 150.748 243.796 L 3.658 243.796 L 3.658 47 C 3.658 42.748 4.49 43.19 5.779 40.846 C 55.242 80.692 103.57 148.356 150.748 243.796 L 150.748 243.796 Z " fill="rgb(255,255,255)" vector-effect="non-scaling-stroke" stroke-width="0.2" stroke="rgb(255,255,255)" stroke-linejoin="miter" stroke-linecap="square" stroke-miterlimit="3"/><path d=" M 150.748 243.796 L 151.977 243.796 L 151.977 51.219 C 151.977 44.063 148 38.462 142 38.253 L 12 38.253 C 10.823 38.253 6.649 39.21 5.779 40.846 C 54.842 82.64 103.17 150.304 150.748 243.796 L 150.748 243.796 Z " fill="rgb(236,236,236)" vector-effect="non-scaling-stroke" stroke-width="0.2" stroke="rgb(236,236,236)" stroke-linejoin="miter" stroke-linecap="square" stroke-miterlimit="3"/><path d=" M 67.089 268.492 C 67.089 262.637 71.843 257.884 77.698 257.884 C 83.553 257.884 88.307 262.637 88.307 268.492 C 88.307 274.347 83.553 279.101 77.698 279.101 C 71.843 279.101 67.089 274.347 67.089 268.492 Z " fill="rgb(235,235,235)"/><path d=" M 77.818 27.585 C 77.818 25.422 79.573 23.667 81.736 23.667 C 83.899 23.667 85.654 25.422 85.654 27.585 C 85.654 29.748 83.899 31.503 81.736 31.503 C 79.573 31.503 77.818 29.748 77.818 27.585 Z " fill="rgb(235,235,235)"/><path d=" M 67.089 27.585 C 67.089 26.154 68.251 24.993 69.682 24.993 C 71.112 24.993 72.274 26.154 72.274 27.585 C 72.274 29.016 71.112 30.177 69.682 30.177 C 68.251 30.177 67.089 29.016 67.089 27.585 Z " fill="rgb(235,235,235)"/><g opacity="0.93"><linearGradient id="_lgradient_114" x1="0%" y1="50%" x2="100%" y2="50%"><stop offset="0%" stop-opacity="1" style="stop-color:rgb(255,153,0)"/><stop offset="99.1304347826087%" stop-opacity="0" style="stop-color:rgb(255,153,0)"/></linearGradient><path d=" M 3.658 184.941 Q 51.278 203.634 140.975 132.441 Q 261.618 36.686 296.697 232.557 Q 169.473 182.981 106.37 219.127 C 58.154 246.746 14.506 207.684 3.658 191.508 L 3.658 184.941 Z " fill="url(#_lgradient_114)"/></g><g opacity="0.94"><linearGradient id="_lgradient_115" x1="4.655592254837261%" y1="50.92202627663877%" x2="98.58110240808635%" y2="70.3466764029064%"><stop offset="0%" stop-opacity="1" style="stop-color:rgb(255,153,0)"/><stop offset="100%" stop-opacity="0" style="stop-color:rgb(255,153,0)"/></linearGradient><path d=" M 146.372 165.335 Q 268.523 94.275 296.697 234.856 Q 221.142 143.683 153.952 193.487 C 92.582 238.978 29.588 218.216 3.658 183.329 Q 44.46 224.621 146.372 165.335 Z " fill="url(#_lgradient_115)"/></g><linearGradient id="_lgradient_116" x1="0%" y1="50%" x2="100.07323007774502%" y2="54.41243583542512%"><stop offset="0%" stop-opacity="1" style="stop-color:rgb(255,153,0)"/><stop offset="100%" stop-opacity="0" style="stop-color:rgb(255,153,0)"/></linearGradient><path d=" M 3.658 183.329 Q 26.901 206.356 70.306 204.594 C 162.934 200.834 152.538 161.555 229.65 160.522 Q 309.923 164.936 296.697 232.557 Q 181.043 195.227 124.754 220.134 Q 53.382 251.716 3.658 191.508 L 3.658 183.329 Z " fill="url(#_lgradient_116)"/></g></svg>