<?xml version="1.0" standalone="no"?><!-- Generator: Gravit.io --><svg xmlns="http://www.w3.org/2000/svg" xmlns:xlink="http://www.w3.org/1999/xlink" style="isolation:isolate" viewBox="0 0 300 300" width="300" height="300"><defs><clipPath id="_clipPath_TWd4TNA7bejgpwx92WNawtaZuRULZGDY"><rect width="300" height="300"/></clipPath></defs><g clip-path="url(#_clipPath_TWd4TNA7bejgpwx92WNawtaZuRULZGDY)"><path d="M 13.64 92 L 199.33 92 C 203.547 92 206.971 95.424 206.971 99.64 L 206.971 222.36 C 206.971 226.576 203.547 230 199.33 230 L 13.64 230 C 9.424 230 6 226.576 6 222.36 L 6 99.64 C 6 95.424 9.424 92 13.64 92 Z" style="stroke:none;fill:#626161;stroke-miterlimit:10;"/><path d=" M 201.353 205.883 L 10.019 205.883 L 10.019 108.599 C 10.019 106.45 11.101 104.542 12.778 103.358 C 77.119 123.487 139.984 157.669 201.353 205.883 L 201.353 205.883 Z " fill="rgb(255,255,255)" vector-effect="non-scaling-stroke" stroke-width="0.2" stroke="rgb(255,255,255)" stroke-linejoin="miter" stroke-linecap="square" stroke-miterlimit="3"/><path d=" M 201.353 205.883 L 202.951 205.883 L 202.951 108.599 C 202.951 104.983 199.889 102.049 196.116 102.049 L 16.855 102.049 C 15.324 102.049 13.91 102.532 12.778 103.358 C 76.599 124.472 139.464 158.654 201.353 205.883 L 201.353 205.883 Z " fill="rgb(236,236,236)" vector-effect="non-scaling-stroke" stroke-width="0.2" stroke="rgb(236,236,236)" stroke-linejoin="miter" stroke-linecap="square" stroke-miterlimit="3"/><path d=" M 101.066 218.359 C 101.066 215.401 103.467 213 106.425 213 C 109.383 213 111.784 215.401 111.784 218.359 C 111.784 221.317 109.383 223.718 106.425 223.718 C 103.467 223.718 101.066 221.317 101.066 218.359 Z " fill="rgb(235,235,235)"/><path d=" M 106.485 96.659 C 106.485 95.567 107.372 94.68 108.465 94.68 C 109.557 94.68 110.444 95.567 110.444 96.659 C 110.444 97.752 109.557 98.639 108.465 98.639 C 107.372 98.639 106.485 97.752 106.485 96.659 Z " fill="rgb(235,235,235)"/><path d=" M 98.447 96.659 C 98.447 95.936 99.033 95.35 99.756 95.35 C 100.479 95.35 101.066 95.936 101.066 96.659 C 101.066 97.382 100.479 97.969 99.756 97.969 C 99.033 97.969 98.447 97.382 98.447 96.659 Z " fill="rgb(235,235,235)"/><g opacity="0.93"><linearGradient id="_lgradient_81" x1="0%" y1="50%" x2="100%" y2="50%"><stop offset="0%" stop-opacity="0.62" style="stop-color:rgb(208,255,0)"/><stop offset="1.3043478260869565%" stop-opacity="1" style="stop-color:rgb(255,255,0)"/><stop offset="100%" stop-opacity="0" style="stop-color:rgb(255,255,0)"/></linearGradient><path d=" M 10.019 165 Q 54.055 180.311 137 122 Q 248.562 43.572 281 204 Q 163.353 163.395 105 193 C 60.413 215.621 20.051 183.628 10.019 170.379 L 10.019 165 Z " fill="url(#_lgradient_81)"/></g><g opacity="0.94"><linearGradient id="_lgradient_82" x1="4.655592254837261%" y1="50.92202627663877%" x2="98.58110240808635%" y2="70.3466764029064%"><stop offset="0%" stop-opacity="1" style="stop-color:rgb(255,255,0)"/><stop offset="100%" stop-opacity="0" style="stop-color:rgb(255,255,0)"/></linearGradient><path d=" M 141.99 148.942 Q 254.947 90.74 281 205.883 Q 211.132 131.208 149 172 C 92.25 209.259 33.997 192.254 10.019 163.68 Q 47.75 197.5 141.99 148.942 Z " fill="url(#_lgradient_82)"/></g><linearGradient id="_lgradient_83" x1="0%" y1="50%" x2="100.07323007774502%" y2="54.41243583542512%"><stop offset="0%" stop-opacity="1" style="stop-color:rgb(255,255,0)"/><stop offset="100%" stop-opacity="0" style="stop-color:rgb(255,253,253)"/></linearGradient><path d=" M 10.019 163.68 Q 31.512 182.54 71.65 181.097 C 157.305 178.017 147.692 145.846 219 145 Q 293.231 148.615 281 204 Q 174.052 173.425 122 193.825 Q 56 219.692 10.019 170.379 L 10.019 163.68 Z " fill="url(#_lgradient_83)"/></g></svg>