<?xml version="1.0" standalone="no"?><!-- Generator: Gravit.io --><svg xmlns="http://www.w3.org/2000/svg" xmlns:xlink="http://www.w3.org/1999/xlink" style="isolation:isolate" viewBox="0 0 300 300" width="300" height="300"><defs><clipPath id="_clipPath_ACGhrJoq0747g0WDVTpW0QrhglXPblBH"><rect width="300" height="300"/></clipPath></defs><g clip-path="url(#_clipPath_ACGhrJoq0747g0WDVTpW0QrhglXPblBH)"><path d=" M 265.741 178.124 C 283.684 169.063 296 150.459 296 129 C 296 98.645 271.355 74 241 74 C 236.432 74 231.992 74.558 227.751 75.619 C 221.476 42.264 192.165 17 157 17 C 127.919 17 102.841 34.279 91.482 59.121 C 70.929 60.551 53.947 74.406 48.685 92.876 C 26.643 97.03 10 115.667 10 138 C 10 153.579 18.099 167.359 30.479 175.681 C 21.985 167.774 16.707 156.713 16.707 144.479 C 16.707 123.349 32.453 105.717 53.307 101.787 C 58.285 84.313 74.352 71.204 93.797 69.851 C 104.544 46.348 128.27 30 155.784 30 C 189.054 30 216.786 53.903 222.722 85.459 C 226.735 84.456 230.935 83.928 235.257 83.928 C 263.977 83.928 287.293 107.245 287.293 135.964 C 287.293 153.301 278.797 168.669 265.741 178.124 Z " fill="rgb(70,70,70)"/><path d=" M 152.417 184.369 L 188.256 184.369 C 209.073 184.369 214.022 172.419 199.303 157.7 L 164.688 123.085 C 157.916 116.312 146.918 116.312 140.146 123.085 L 109.675 153.556 C 92.669 170.562 98.388 184.369 122.439 184.369 L 152.417 184.369 Z " fill="rgb(39,174,96)"/><path d=" M 153.25 263.983 L 145.117 263.983 C 136.623 263.983 129.727 257.088 129.727 248.594 L 129.727 186.998 C 129.727 186.167 129.794 185.351 129.921 184.555 L 117.746 184.369 C 98.941 184.369 93.084 174.616 102.973 161.88 C 104.559 159.234 106.79 156.441 109.675 153.556 L 140.146 123.085 C 143.744 119.487 148.534 117.8 153.25 118.019 L 153.25 161.732 L 153.25 263.983 L 153.25 263.983 Z " fill="rgb(241,196,15)"/><path d=" M 153.001 263.983 L 156.792 263.983 C 156.795 263.983 156.798 263.983 156.8 263.983 L 160.637 263.983 C 169.131 263.983 176.027 257.088 176.027 248.594 L 176.027 186.998 C 176.027 186.167 175.961 185.351 175.834 184.555 L 188.008 184.369 C 206.814 184.369 212.67 174.616 202.781 161.88 C 201.196 159.234 198.964 156.441 196.079 153.556 L 165.609 123.085 C 162.137 119.613 157.555 117.921 153.001 118.019 L 153.001 263.983 L 153.001 263.983 Z " fill="rgb(244,208,63)"/><rect x="93.232" y="276" width="121.199" height="7.192" transform="matrix(1,0,0,1,0,0)" fill="rgb(70,70,70)"/></g></svg>