<?xml version="1.0" encoding="utf-8"?>
<!-- Generator: Adobe Illustrator 16.0.0, SVG Export Plug-In . SVG Version: 6.00 Build 0)  -->
<!DOCTYPE svg PUBLIC "-//W3C//DTD SVG 1.1//EN" "http://www.w3.org/Graphics/SVG/1.1/DTD/svg11.dtd">
<svg version="1.1" id="Calque_1" xmlns="http://www.w3.org/2000/svg" xmlns:xlink="http://www.w3.org/1999/xlink" x="0px" y="0px"
	 width="300px" height="300px" viewBox="0 0 300 300" enable-background="new 0 0 300 300" xml:space="preserve">
<g>
	<g>
		
			<polyline fill="none" stroke="#662D91" stroke-width="3.9859" stroke-linecap="round" stroke-linejoin="round" stroke-miterlimit="10" points="
			10.281,163.134 44.207,155.411 79.516,169.652 114.825,155.536 150.135,134.858 185.443,155.038 220.752,151.8 256.062,141.599 
			291.365,113.793 		"/>
		<circle fill="#662D91" cx="44.207" cy="155.573" r="4.237"/>
		<circle fill="#662D91" cx="79.516" cy="169.652" r="4.237"/>
		<circle fill="#662D91" cx="114.825" cy="155.573" r="4.237"/>
		<circle fill="#662D91" cx="150.134" cy="134.963" r="4.237"/>
		<circle fill="#662D91" cx="185.444" cy="154.892" r="4.237"/>
		<circle fill="#662D91" cx="220.753" cy="152.079" r="4.237"/>
		<circle fill="#662D91" cx="256.062" cy="141.723" r="4.237"/>
	</g>
	<g>
		
			<polyline fill="none" stroke="#ED1C24" stroke-width="3.9859" stroke-linecap="round" stroke-linejoin="round" stroke-miterlimit="10" points="
			10.281,230.231 44.207,189.666 79.516,237.746 114.825,169.528 150.135,99.733 185.443,125.891 220.752,105.955 256.062,79.056 
			291.365,98.695 		"/>
		<circle fill="#ED1C24" cx="44.207" cy="189.694" r="4.237"/>
		<circle fill="#ED1C24" cx="79.516" cy="237.746" r="4.237"/>
		<circle fill="#ED1C24" cx="114.825" cy="169.652" r="4.237"/>
		<circle fill="#ED1C24" cx="150.132" cy="100.033" r="4.237"/>
		<circle fill="#ED1C24" cx="185.444" cy="125.799" r="4.237"/>
		<circle fill="#ED1C24" cx="220.753" cy="105.813" r="4.237"/>
		<circle fill="#ED1C24" cx="256.062" cy="79.056" r="4.237"/>
	</g>
	<polygon fill="#6D6E71" points="291.732,291.733 8.268,291.733 8.268,8.267 10.262,8.267 10.262,289.74 291.732,289.74 	"/>
</g>
</svg>
