<?xml version="1.0" encoding="utf-8"?>
<!-- Generator: Adobe Illustrator 16.0.0, SVG Export Plug-In . SVG Version: 6.00 Build 0)  -->
<!DOCTYPE svg PUBLIC "-//W3C//DTD SVG 1.1//EN" "http://www.w3.org/Graphics/SVG/1.1/DTD/svg11.dtd">
<svg version="1.1" id="Calque_1" xmlns="http://www.w3.org/2000/svg" xmlns:xlink="http://www.w3.org/1999/xlink" x="0px" y="0px"
	 width="300px" height="300px" viewBox="0 0 300 300" enable-background="new 0 0 300 300" xml:space="preserve">
<g>
	<polyline fill="#D80B8C" points="10.621,141.677 44.547,133.954 79.855,148.195 115.165,134.079 150.475,113.401 185.783,133.58 
		221.092,130.342 256.401,120.141 291.705,92.335 291.705,291.553 10.602,291.553 10.621,141.677 	"/>
	<polyline fill="#39B54A" points="10.621,230.051 44.547,189.485 79.855,237.565 115.165,201.688 150.475,131.893 185.783,158.051 
		221.092,138.115 256.401,111.216 291.705,130.855 291.705,289.56 8.607,291.553 10.621,230.051 	"/>
	<polygon fill="#6D6E71" points="292.072,291.553 8.607,291.553 8.607,8.086 10.602,8.086 10.602,289.56 292.072,289.56 	"/>
</g>
</svg>
