<?xml version="1.0" encoding="utf-8"?>
<!-- Generator: Adobe Illustrator 16.0.0, SVG Export Plug-In . SVG Version: 6.00 Build 0)  -->
<!DOCTYPE svg PUBLIC "-//W3C//DTD SVG 1.1//EN" "http://www.w3.org/Graphics/SVG/1.1/DTD/svg11.dtd">
<svg version="1.1" id="Calque_1" xmlns="http://www.w3.org/2000/svg" xmlns:xlink="http://www.w3.org/1999/xlink" x="0px" y="0px"
	 width="300px" height="300px" viewBox="0 0 300 300" enable-background="new 0 0 300 300" xml:space="preserve">
<g>
	<path fill="#D80B8C" d="M12.715,130.15c-0.892,6.433-1.364,13-1.364,19.678c0,78.371,63.533,141.904,141.904,141.904
		c10.326,0,20.391-1.113,30.091-3.209c0.083-0.024,0.166-0.046,0.249-0.07l-38.843-129.444L12.715,130.15z"/>
	<path fill="#39B54A" d="M153.468,149.606l38.843,129.443c71.491-21.452,112.054-96.797,90.602-168.286
		c-17.541-58.456-71.116-96.226-129.151-96.33L153.468,149.606z"/>
	<path fill="#6D6E71" d="M15.539,115.507l127.8,27.934l0.292-135.173c-0.077,0-0.154,0.004-0.231,0.004
		C81.261,12.535,30.124,56.797,15.539,115.507z"/>
</g>
</svg>
