<?xml version="1.0" encoding="utf-8"?>
<!-- Generator: Adobe Illustrator 16.0.0, SVG Export Plug-In . SVG Version: 6.00 Build 0)  -->
<!DOCTYPE svg PUBLIC "-//W3C//DTD SVG 1.1//EN" "http://www.w3.org/Graphics/SVG/1.1/DTD/svg11.dtd">
<svg version="1.1" id="Calque_1" xmlns="http://www.w3.org/2000/svg" xmlns:xlink="http://www.w3.org/1999/xlink" x="0px" y="0px"
	 width="300px" height="300px" viewBox="0 0 300 300" enable-background="new 0 0 300 300" xml:space="preserve">
<g>
	<polyline fill="#BCBEC0" points="10.281,141.857 44.207,134.135 79.516,148.375 114.825,134.259 150.135,113.582 185.443,133.761 
		220.752,130.522 256.062,120.322 291.365,92.516 291.365,291.733 10.262,291.733 10.281,141.857 	"/>
	<polyline points="10.281,230.231 44.207,189.666 79.516,237.746 114.825,201.868 150.135,132.074 185.443,158.231 220.752,138.295 
		256.062,111.396 291.365,131.036 291.365,289.74 8.268,291.733 10.281,230.231 	"/>
	<polygon fill="#6D6E71" points="291.732,291.733 8.268,291.733 8.268,8.267 10.262,8.267 10.262,289.74 291.732,289.74 	"/>
</g>
</svg>
