<?xml version="1.0" standalone="no"?>
<!DOCTYPE svg PUBLIC "-//W3C//DTD SVG 1.1//EN" "http://www.w3.org/Graphics/SVG/1.1/DTD/svg11.dtd" >
<svg xmlns="http://www.w3.org/2000/svg" xmlns:xlink="http://www.w3.org/1999/xlink" version="1.1">
<metadata></metadata>
<defs>
<font id="stacyshandregular" horiz-adv-x="869" >
<font-face units-per-em="1000" ascent="800" descent="-200" />
<missing-glyph horiz-adv-x="572" />
<glyph unicode="&#xd;" horiz-adv-x="572" />
<glyph unicode=" "  horiz-adv-x="572" />
<glyph unicode="&#x09;" horiz-adv-x="572" />
<glyph unicode="&#xa0;" horiz-adv-x="572" />
<glyph unicode="!" horiz-adv-x="318" d="M265 276l-1 -64l-41 -11v222q0 34 -12.5 100.5t-12.5 97.5q0 26 4.5 41.5t20.5 24.5q26 -73 34 -151.5t8 -180.5v-79zM318 74q-13 -31 -38 -45q-15 -8 -57 -19q-4 13 -4 30q0 41 46 41q11 0 22.5 -1.5t30.5 -5.5z" />
<glyph unicode="&#x22;" horiz-adv-x="434" d="M434 624l-30 -3q-17 0 -30 10t-29 44.5t-16 52.5q0 9 2 18t7 27l11 -11q13 -3 21 -16q3 -5 6 -13.5t5 -13.5q19 -50 53 -95zM222 599q0 -24 -7 -41.5t-24 -28.5q-17 70 -18 74q-9 42 -9 76q0 9 0.5 17.5t4.5 33.5q22 -20 37.5 -59.5t15.5 -71.5z" />
<glyph unicode="#" horiz-adv-x="710" d="M710 497q-15 -15 -30 -22.5t-35 -7.5q-17 0 -52 11t-53 11l-21 -3q7 -68 18.5 -86.5t45.5 -18.5q14 0 45.5 1.5t38.5 1.5l21 -3q-3 -20 -11 -34q-12 -17 -20 -30q-20 19 -23 21q-16 12 -30 12q-51 0 -53 -47t-5 -58q-16 -8 -38 -13l3 56q0 50 -45 50q-64 0 -90 -7 q-54 -14 -54 -58q0 -17 8 -52t8 -52q0 -43 -42 -53q-2 10 -3 26t-1 33q0 73 -7 96q-14 46 -62 46q-22 0 -46 -8l-9 6l-10 23q66 14 72 17q34 15 34 58q0 47 -41 49.5t-67 4.5l-19 30q22 2 32.5 4.5t73.5 16.5q-2 10 -4 22.5t-2 21.5t5.5 24.5t11.5 27.5q12 -18 25 -46 t21 -45l19 -9q50 0 83 3q64 6 64 33t-2.5 49.5t-8.5 56.5h11q12 0 22 -31q25 -80 32 -86q12 -10 30 -14t37 -4q8 0 24.5 1t24.5 1q24 0 41 -5.5t33 -20.5zM498 413q0 74 -80 74q-39 0 -76 -15q-49 -20 -49 -53q0 -23 17 -42t41 -19q6 0 14.5 1.5t18 3.5t41 4.5t47 5.5t21 15 t5.5 25z" />
<glyph unicode="$" horiz-adv-x="614" d="M610 312q0 -59 -41 -103t-41 -66q0 -30 3 -56q0 -2 9 -56q2 -14 -8 -21t-24 -10q-12 67 -20 103q-15 66 -64 66q-59 0 -69.5 -75.5t-36.5 -83.5q-4 15 -5.5 54.5t-5.5 63t-97 84.5q-44 29 -52 73q49 -39 60 -47q45 -32 65 -32q25 0 35 38q7 26 7 60q0 42 -14 67 q-18 32 -56 32q-12 0 -37 -6t-37 -6q-4 0 -14 3.5t-13 4.5q-19 24 -19 52q0 60 85 118t85 122q0 26 7 48.5t26 33.5q5 -20 9 -51q10 -74 13 -87q62 15 67 17q28 14 28 57q0 12 -6 37t-6 37q0 11 6.5 22t16.5 20q18 -62 34 -111q20 -62 40 -110q-12 -33 -24 -65 q-8 -27 -8 -71q0 -7 12 -22t12 -23q15 -9 25 -14q19 -10 25 -7q28 -37 28 -90zM474 531q0 34 -15 58q-19 30 -51 30q-33 0 -48 -21.5t-15 -55.5q0 -39 13.5 -65t49.5 -26q32 0 49 23t17 57zM561 307q0 19 -8.5 39.5t-22.5 44.5q-5 -18 -6.5 -39t-1.5 -35q0 -36 8 -74 q14 14 22.5 30t8.5 34zM308 494q0 20 -2 31.5t-10 45.5q-31 -6 -76.5 -48t-45.5 -72q0 -15 14 -22t50 -7q70 0 70 72zM485 309q0 44 -16 75q-21 41 -61 41q-35 0 -50 -32q-11 -24 -11 -65q0 -51 11 -82q17 -49 56 -49q37 0 56 39q15 31 15 73z" />
<glyph unicode="%" d="M871 174q0 -53 -63 -86q-53 -28 -112 -28q-48 0 -78 19q-36 23 -36 69q0 62 62 106q44 31 119 53q50 -31 71 -53q37 -38 37 -80zM479 566q0 -74 -55.5 -121.5t-132.5 -47.5q-50 0 -86 32t-36 81q0 63 71 107q63 39 130 39l21 2q10 2 20.5 4t12.5 2q31 0 45 -36 q10 -26 10 -62zM710 614q-9 -51 -68 -127q-46 -59 -91 -117q-87 -166 -136 -259q-52 -99 -66 -111q-4 11 -6 20.5t-2 22.5q0 31 64 148q56 102 128 215.5t102 149.5q18 22 33 34q19 16 42 24zM835 180q0 33 -27.5 57.5t-61.5 24.5q-47 0 -84 -34t-37 -80q0 -59 61 -59 q48 0 93 22q56 27 56 69zM446 548q0 20 -3 33t-19 54q-120 -22 -137 -29q-76 -30 -76 -102q0 -36 21.5 -53t59.5 -17q58 0 102 27q52 32 52 87z" />
<glyph unicode="&#x26;" horiz-adv-x="466" d="M323 645q-4 1 -10 1h-11q-15 0 -22 -1q0 28 -10 66q-23 87 -23 108q0 25 12 25q33 0 51 -86q13 -62 13 -113zM429 503l-55 3q-45 0 -80 -18q-26 -13 -67 -49q27 -12 56 -12q19 0 48 5t44 7q-12 -28 -47 -50q-96 -60 -101 -67q22 -20 36 -27.5t29 -7.5q5 0 21.5 1t29.5 1 q29 0 43 -30q-46 -11 -87 -11t-71 15q-39 19 -39 56q0 10 5 24q12 33 12 43q0 12 -8 29t-8 24q0 43 62 77q55 30 102 30q27 0 46.5 -10t28.5 -33zM323 -8q0 -27 -8 -44q-11 -23 -35 -27q-7 29 -13 84.5t-9 71t-6 30t-3 27.5t8 23t23 18q23 -68 33 -113t10 -70z" />
<glyph unicode="'" horiz-adv-x="191" d="M158 486h-13q-44 0 -73.5 44.5t-29.5 91.5q0 21 7.5 38.5t24.5 26.5q27 -92 32 -105q21 -56 52 -96z" />
<glyph unicode="(" horiz-adv-x="349" d="M349 52q-24 -26 -61 -26q-99 0 -193 121q-89 115 -89 219q0 87 63 213q71 142 146 142q6 -1 10 -1l7 -1q-79 -96 -87 -107q-50 -66 -73 -117q-30 -67 -30 -136q0 -117 98 -204q84 -74 209 -103z" />
<glyph unicode=")" horiz-adv-x="264" d="M263 302q0 -87 -21 -123q-40 -47 -73 -95l-46 -68q-31 -36 -70 -36q9 53 56 112q40 49 81 99q42 62 42 126q0 107 -76 219.5t-176 161.5q9 20 28 20q18 0 47 -24q13 -11 40 -38q92 -91 126 -157q42 -81 42 -197z" />
<glyph unicode="*" horiz-adv-x="783" d="M783 465q-24 -30 -39 -41q-25 -18 -54 -18q-10 0 -45 11q-19 6 -31 6q-44 0 -84 -8t-85 -24q15 -45 65 -101q113 -128 127 -165q-5 -20 -25 -30q-12 -6 -40 -11v20q0 48 -35 95q-14 19 -71 76q-2 -18 -2 -26q0 -16 2.5 -43.5t2.5 -32.5q0 -26 -3 -36q-6 -22 -25 -22 q-32 0 -51 39q-10 21 -20 68l43 -10q0 42 -7 75.5t-25 71.5q-6 -5 -83 -99q-57 -70 -97 -70q9 37 50 91q45 59 56 89l-16 1q-17 0 -40 -4q-57 -10 -68 -10l-25 2q24 26 83 52q27 11 55 23q-46 42 -70 65q-45 43 -57 72l14 1q48 0 125 -75q46 -47 62 -63l1 19q0 24 -8 60 q-18 81 -18 101q0 7 1 15q0 2 3 17q27 -28 48 -82q28 -73 37 -88q115 113 254 191q7 0 15.5 -4t16.5 -7q-83 -58 -128 -92q-82 -63 -105 -110q39 0 118 7t120 7z" />
<glyph unicode="+" horiz-adv-x="646" d="M646 413q-23 -10 -106 -15q-135 -9 -135 -65q0 -17 12 -78q6 -30 6 -48q0 -19 -4.5 -33t-16.5 -26q-12 35 -20 82q-2 11 -10.5 79.5t-113.5 80t-121 33.5q23 6 47 6q12 0 62 -5q20 -2 37 -2h18q35 0 45 7q15 10 15 48q0 15 -10 43t-10 43q0 12 8.5 22.5t20.5 17.5 q6 -58 12 -115q16 -66 74 -66q22 0 64.5 7.5t60.5 7.5q20 0 36 -5.5t29 -18.5z" />
<glyph unicode="," horiz-adv-x="318" d="M325 63q0 -68 -64.5 -129.5t-134.5 -70.5q74 69 112.5 107.5t38.5 74.5q0 23 -17 50t-17 39q0 11 3.5 18t14.5 7q27 0 47 -35q17 -30 17 -61z" />
<glyph unicode="-" horiz-adv-x="508" d="M498 243h-212q-16 0 -47 -5t-47 -5q-38 0 -55 31q45 10 102.5 15.5t111.5 5.5h94q12 0 23.5 -0.5t24.5 -3.5q5 -15 5 -38z" />
<glyph unicode="." horiz-adv-x="360" d="M309 102q0 -30 -32 -59t-62 -29q-28 0 -49 12q-26 15 -26 41q0 35 43 59q29 16 75 26q17 -9 35 -17q16 -10 16 -33z" />
<glyph unicode="/" horiz-adv-x="604" d="M593 762q0 -24 -7 -45t-22 -48q-39 -71 -100 -173q-90 -150 -103 -172q-60 -103 -97 -176q-3 -6 -21 -48q-13 -30 -24 -46q-16 -23 -35.5 -36.5t-46.5 -17.5q0 38 22 61q54 62 127 186q55 94 129 234q54 104 109 208q15 27 28 43q18 20 41 30z" />
<glyph unicode="0" horiz-adv-x="774" d="M773 443q0 -182 -104 -246q-80 -49 -277 -49q-117 0 -189 86q-67 80 -67 200q0 162 115 244q102 73 271 73q143 0 202 -85q49 -71 49 -223zM742 435q0 79 -31 166q-41 115 -105 115q-22 0 -35 -17.5t-24 -33.5q-12 1 -75 33q-28 14 -65 14q-96 0 -165 -95 q-63 -87 -63 -186q0 -114 84 -187q81 -70 197 -70q121 0 199 69q83 73 83 192z" />
<glyph unicode="1" horiz-adv-x="794" d="M794 106q-11 -23 -49 -32t-96 -9q-43 0 -107 4.5t-66 4.5q-35 0 -140 -7q-60 -4 -85 -4q-32 0 -58.5 2t-55.5 9q15 24 46 33t77 9q25 0 72.5 -3.5t53.5 -3.5q28 0 47.5 3.5t37.5 16.5l7 22q0 65 -23.5 235.5t-41.5 248.5q-9 -18 -47 -75q-59 -88 -59 -137h-64q3 27 19 56 q11 20 33 50q53 106 107 212l11 -11q13 -2 22 -11t16 -23q12 -26 15 -50q10 -134 21 -267q1 -7 38 -148q15 -58 15 -65q0 -10 -5.5 -20t-15.5 -20q57 -13 124 -16.5t151 -3.5z" />
<glyph unicode="2" horiz-adv-x="742" d="M742 95q-21 -5 -44.5 -7t-46.5 -2q-36 0 -65 2q-103 7 -110 7q-54 0 -127 -13q-169 -30 -212 -30q0 117 97 201l180 122q97 68 97 147q0 50 -25 83q-28 36 -76 36q-45 0 -145 -45.5t-128 -45.5q25 60 109 96q72 31 146 31q77 0 122.5 -38t45.5 -115q0 -79 -84 -149 q-83 -58 -166 -115q-98 -71 -119 -144q26 -6 53 -6q36 0 83 8q111 19 139 19h180h21q32 0 49.5 -7.5t25.5 -34.5z" />
<glyph unicode="3" horiz-adv-x="742" d="M743 269q0 -128 -122 -191q-96 -50 -236 -50q-59 0 -95 11q-59 18 -59 63l1 14q47 -23 88.5 -39t102.5 -16q108 0 186 45q95 55 95 156q0 63 -27 93t-89 30q-38 0 -92 -15q-119 -33 -147 -33q-9 0 -16 2q-2 1 -17 6l-4 5l6 31q99 12 201 53q138 56 138 126q0 61 -74 85 q-47 15 -124 15q-54 0 -124 -12q-153 -26 -157 -26q-15 0 -26 5.5t-15 18.5q98 27 169 40q91 16 174 16q81 0 141 -31q77 -40 77 -113q0 -37 -32 -71q-4 -4 -62 -53q67 -15 103 -56t36 -109z" />
<glyph unicode="4" horiz-adv-x="783" d="M783 307q-10 -5 -26.5 -7t-31.5 -2q-18 0 -37 1t-37 2q-39 0 -63 -12.5t-24 -49.5q0 -28 6 -60.5t12 -62.5q-20 0 -42 -10v33q0 67 -9 101q-15 56 -55 56q-53 0 -211 -14q-79 -7 -128 -7q5 21 18 43.5t47 61.5q81 88 112 126q54 65 96 136q18 32 31.5 45.5t26.5 13.5 q33 0 55 -115t45 -240q8 -8 20 -11.5t27 -3.5q16 0 54.5 5.5t49.5 5.5q23 0 39.5 -7.5t24.5 -27.5zM515 383q0 40 -10 91.5t-39 139.5q-60 -49 -126 -132q-70 -89 -97 -154q26 -6 53.5 -8.5t63.5 -2.5h32h24q49 0 68 9q31 14 31 57z" />
<glyph unicode="5" horiz-adv-x="614" d="M609 325q0 -99 -88 -153q-75 -46 -180 -46q-51 0 -95 23q-55 29 -55 75q0 16 10 29q15 -8 59 -42q69 -53 110 -53q75 0 131 41q63 46 63 118q0 62 -42.5 105.5t-103.5 43.5q-53 0 -115 -33l-120 -72q-24 0 -31.5 19.5t-7.5 48.5q0 151 28 181q11 12 147 56l168 70l20 -9 q4 -7 7.5 -14.5t4.5 -14.5q-105 -30 -209 -59q-115 -47 -115 -154q0 -10 1 -21t5 -41q97 36 112 41q70 23 116 23q82 0 131 -40.5t49 -121.5z" />
<glyph unicode="6" horiz-adv-x="805" d="M808 338q0 -93 -78 -155q-66 -52 -176 -78q-90 -21 -184 -21q-92 0 -157 65t-65 158q0 112 36 221.5t102 201.5q1 -2 5.5 -16t4.5 -27q0 -29 -52.5 -130t-52.5 -185q0 -150 55 -204t206 -54q20 0 38 16q0 1 3.5 9t3.5 11q0 13 -4 32q-9 44 -9 56q0 107 79 156 q65 40 179 40l10 -11h11q21 -16 33 -38t12 -47zM775 333q0 45 -39 60q-23 9 -79 9q-68 0 -96 -54q-21 -40 -21 -116q0 -33 5 -49q9 -29 35 -29q62 0 128.5 56.5t66.5 122.5z" />
<glyph unicode="7" horiz-adv-x="774" d="M774 698q0 -57 -27 -127q-77 -201 -78 -205q-7 -37 -9.5 -71.5t-2.5 -84.5v-52q0 -24 -2 -36t-11.5 -22.5t-26.5 -13t-24 -2.5q5 26 24 152q16 104 25 153q15 79 36 151q18 47 37 94l-11 22q-19 9 -56.5 13.5t-89.5 4.5q-59 0 -179 -7t-160 -7q-43 0 -82 7q1 9 3 16 q1 4 6 16l20 8q124 0 226 -2q355 -7 382 -7z" />
<glyph unicode="8" horiz-adv-x="783" d="M774 264q0 -117 -105 -171q-81 -42 -210 -42q-130 0 -200 27q-108 42 -108 149q0 55 25.5 110.5t66.5 96.5q-51 31 -75 62q-32 40 -32 91q0 64 65 111q59 43 128 43q38 0 76 -10q25 -7 71 -24q82 -14 165 -27q25 -23 25 -133q0 -14 54 -83t54 -200zM638 575q0 34 -26 61 t-61 31l-21 -64q-28 26 -29 27q-20 16 -35 16q-10 0 -30 -6t-30 -6l-14 1q20 23 42 42q-22 13 -51.5 19t-57.5 6q-62 0 -103 -26q-49 -31 -49 -90q0 -55 51 -95q47 -37 105 -37q30 0 54 2q84 7 92 7q10 0 77.5 35t74.5 43q11 14 11 34zM745 285q0 93 -34 145q-27 42 -73 42 q-37 0 -105.5 -29.5t-87.5 -29.5l-11 10l-24 1q-82 0 -149 -43q-77 -49 -77 -127q0 -98 97 -143q73 -34 183 -34q124 0 193 41q88 52 88 167z" />
<glyph unicode="9" horiz-adv-x="668" d="M662 84q1 -4 1 -10q0 -22 -17.5 -35.5t-41.5 -18.5q0 166 -21 283.5t-56 117.5q-16 0 -87 -18q-35 -9 -57 -9q-88 0 -154 29q-88 39 -88 116q0 99 87 141q65 31 175 31q100 0 145 -59q33 -42 45 -138q21 -158 21 -160q11 -51 25 -135q18 -108 23 -135zM557 532 q0 73 -63 116q-56 38 -133 38q-66 0 -118 -29q-63 -35 -63 -97q0 -55 46 -96t103 -41h40q93 0 126 12q62 22 62 97z" />
<glyph unicode=":" horiz-adv-x="307" d="M239 337q0 -13 -11 -18t-28 -5h-10l-21 3q-2 12 -2 17q0 21 11.5 33t33.5 14q13 -12 18 -19q9 -13 9 -25zM291 94q0 -17 -16 -23t-36 -6q-21 0 -28.5 3t-24.5 23q9 30 13 36q8 12 33 21q4 0 10 -2l8 -4q14 -7 22 -12q19 -14 19 -36z" />
<glyph unicode=";" horiz-adv-x="318" d="M318 423q-7 -35 -22.5 -49t-52.5 -25q-5 12 -8.5 23t-3.5 22q0 19 12.5 27t32.5 8q9 0 20.5 -2t21.5 -4zM310 9q0 -55 -45 -114q-48 -63 -101 -63q-16 0 -28 8t-20 23q74 0 116 56q37 50 37 127q0 37 -29 94q-14 28 -14 41q0 21 24 21q29 0 47 -83q13 -61 13 -110z" />
<glyph unicode="&#x3c;" horiz-adv-x="636" d="M636 52l-28 -3q-19 0 -36 7t-35 21q-81 66 -159 107.5t-177 68.5q-22 6 -36 14q-22 13 -22 32q0 26 100 106q92 74 199 140q113 70 147 70l15 -1q-12 -24 -30.5 -41.5t-46.5 -32.5q-103 -56 -170 -101q-81 -55 -156 -122q27 -17 144 -73q128 -61 185 -96q94 -57 106 -96z " />
<glyph unicode="=" horiz-adv-x="498" d="M476 476q-32 -8 -67 -10.5t-84 -2.5l-145 2q8 27 26 36t46 9q6 0 21 -1t23 -1l86 3q34 0 58 -6.5t36 -28.5zM445 349q-36 0 -105 -9.5t-98 -9.5q-34 0 -53 5t-31 14q73 20 118 27.5t77 7.5q34 0 57 -6.5t35 -28.5z" />
<glyph unicode="&#x3e;" horiz-adv-x="540" d="M540 445q-4 -10 -90 -112q-97 -116 -161 -189q-88 -100 -98 -106l-33 14q15 50 91 131q66 66 133.5 134.5t67.5 96.5q0 19 -17 38q-3 3 -23 15q-25 15 -51.5 31t-115 83t-92.5 69q-4 -5 -10 4.5t-10 25.5l12 13q9 0 95.5 -56.5t172.5 -112.5q102 -66 129 -79z" />
<glyph unicode="?" horiz-adv-x="540" d="M539 515q0 -61 -55 -110q-21 -19 -102 -68q-56 -34 -56 -58q0 -7 13 -29q9 -15 10 -18q-25 4 -43 9l-42 12q6 32 171 152q73 53 73 103q0 41 -27 66t-69 25q-46 0 -105 -26q-48 -21 -95 -55l-2 17q0 48 83 72q59 17 124 17q55 0 88.5 -27t33.5 -82zM318 74q-6 -25 -9 -30 q-9 -16 -26 -16q-8 0 -10 1q-3 2 -13 14l6 24q5 11 22 11q12 0 19.5 -2t10.5 -2z" />
<glyph unicode="@" horiz-adv-x="900" d="M848 116q-28 -57 -120 -82q-66 -18 -153 -18q-170 0 -279.5 107.5t-109.5 278.5q0 154 85.5 246.5t238.5 92.5q131 0 220 -71q96 -77 96 -205q0 -134 -116 -214q-103 -71 -244 -71q-54 0 -91 33.5t-37 87.5q0 69 50 93q33 16 107 16h35q7 0 17 2t20 5l13 24q-5 36 -23 57 t-54 21q-40 0 -70 -20q-39 -26 -58 -30q-16 3 -26 17q35 35 72 55q44 24 87 24q56 0 85 -46q24 -38 24 -97q0 -24 -1.5 -37t-11.5 -78h-43q-17 72 -86 72q-34 0 -67.5 -25.5t-33.5 -58.5q0 -39 46 -64q39 -21 83 -21q113 0 200 64q96 71 96 179q0 120 -81 186 q-75 61 -198 61q-131 0 -212 -77t-81 -207q0 -173 104 -270q101 -94 273 -94q41 0 116.5 32.5t108.5 32.5z" />
<glyph unicode="A" horiz-adv-x="858" d="M827 34q0 -9 -3 -16.5t-8 -17.5q-28 24 -86 161q-44 103 -125 103q-29 0 -72 -8q-97 -18 -121 -18t-33.5 4.5t-29.5 21.5q48 23 154 27t154 26q-44 91 -98 168q-76 109 -135 129q-21 -72 -59 -158q-105 -239 -110 -252.5t-14 -52t-17 -62.5t-31 -39t-56 -19q20 56 58 128 q34 62 69.5 129t53.5 125q11 34 24 95q17 79 34 159l9 8q19 -14 28.5 -20t20.5 -9l11 10v11h10q16 0 88 -98q50 -69 128 -190q68 -106 72 -118q40 -99 62 -158t22 -69z" />
<glyph unicode="B" horiz-adv-x="688" d="M668 232q0 -110 -80 -172q-74 -57 -187 -57q-84 0 -158 28q13 19 21 43q77 -23 153 -23q95 0 147 37q61 43 61 134q0 54 -30 79t-86 25q-67 0 -106 -11q-66 -18 -66 -65q0 -19 5 -41q13 -58 13 -70q0 -47 -48 -55q0 131 -32 271q-28 123 -84 259q-15 -6 -38 -20 q-7 -4 -37 -23l-1 14q0 59 155 92q112 24 212 24q68 0 112 -29q52 -35 52 -101q0 -55 -47 -108q-14 -16 -91 -82q108 -24 134 -55.5t26 -93.5zM604 560q0 57 -41 84q-35 23 -96 23q-52 0 -113 -14.5t-111 -38.5q47 -133 95 -265q122 50 165 76q101 62 101 135z" />
<glyph unicode="C" horiz-adv-x="783" d="M752 63q-40 -39 -94 -56t-117 -17q-199 0 -298 85q-106 91 -106 284q0 175 95 257q90 78 267 78q64 0 102 -24q46 -29 46 -90q0 -50 -43 -72q0 75 -20 107q-26 41 -97 41q-168 0 -236 -85q-61 -76 -61 -249q0 -168 100 -235q83 -56 261 -56q32 0 89.5 21.5t76.5 21.5 q6 0 18 -4q3 -1 17 -7z" />
<glyph unicode="D" horiz-adv-x="848" d="M816 307q0 -172 -132 -248q-106 -61 -290 -61q-68 0 -103 8q-65 15 -79 57l16 1q27 0 65 -10q87 -23 109 -23q164 0 258 55q118 69 118 223q0 147 -99.5 238.5t-247.5 91.5q-83 0 -181 -25q-34 -9 -176 -54q24 68 129 93q63 15 170 15q202 0 312 -75q131 -89 131 -286z M445 196q0 -26 -9 -39.5t-34 -19.5q0 89 -9.5 176.5t-31.5 162.5q-3 13 -23.5 57t-20.5 56q0 16 16 28q29 0 58 -96q23 -77 40 -190q14 -92 14 -135z" />
<glyph unicode="E" horiz-adv-x="710" d="M681 76q0 -32 -24 -45q-19 -10 -54 -10q-21 0 -51 3q-69 7 -86 7q-40 0 -95 -13q-123 -29 -156 -29l-24 1q13 47 19.5 94t6.5 100q0 52 -7 108t-19 110q-2 8 -34 75q-13 27 -13 43q0 26 4 42t21 41q78 -13 163 -13q111 0 219 24l53 -22q-14 -21 -23 -29t-30 -16 q-27 10 -40 15q-26 10 -43 10q-53 0 -111 -6q-155 -16 -188 -16q13 -18 59 -147q34 -97 76 -97q29 0 90 16t93 16h18q4 0 19 -4l6 -27q-48 -16 -133 -21t-110 -30q-35 -35 -35 -146l2 -79q36 0 183 19q78 10 133 10q34 0 61 10.5t47 35.5z" />
<glyph unicode="F" horiz-adv-x="614" d="M657 582q-13 -5 -28.5 -7t-30.5 -2q-22 0 -115 13q-43 6 -70 6h-27h-23q-63 0 -91.5 1.5t-70.5 9.5q-6 -27 -6 -54q0 -43 11.5 -123.5t25.5 -94.5q9 -8 25 -11.5t38 -3.5q11 0 29 1t23 1q35 0 140 -7q60 -4 85 -4q-21 -21 -50 -29.5t-63 -8.5q-22 0 -65 4t-61 4 q-47 0 -66 -11q-28 -16 -28 -59q0 -23 5 -50q13 -70 13 -85q0 -25 -7.5 -42.5t-26.5 -29.5q-26 110 -56 334t-30 322q50 0 232 -21q87 -10 142 -10q54 0 79 -5q48 -10 67 -38z" />
<glyph unicode="G" horiz-adv-x="710" d="M688 370q-24 -51 -33 -107t-9 -126q0 -34 10 -83q22 -109 22 -138h-42q0 33 -8 65t-24 71q-116 -48 -240 -48q-136 0 -188 77q-43 63 -43 207q0 156 94.5 245.5t252.5 89.5q40 0 81 -9q-3 -17 -8 -28q-9 -17 -13 -26q-40 17 -88 17q-131 0 -206 -85q-71 -81 -71 -213 q0 -110 35 -165q44 -69 146 -69q44 0 97 10q11 2 161 40q-8 36 -8 76q0 21 3 63t3 66q0 39 -43 39q-21 0 -53 -4q-72 -9 -90 -9q-35 0 -60.5 7t-47.5 26q58 12 141.5 17.5t158.5 5.5q29 0 38.5 -1.5t31.5 -10.5z" />
<glyph unicode="H" horiz-adv-x="657" d="M613 63q0 -24 -1.5 -34.5t-7.5 -28.5q-31 31 -43.5 106t-22.5 142q-17 64 -61 64q-16 0 -48 -8t-48 -8h-28q-55 0 -77 -11q-35 -18 -35 -69q0 -24 8 -57q18 -75 18 -94q0 -25 -10.5 -42t-33.5 -23q-11 46 -19 192q-4 69 -13 115q-26 116 -51 232q0 21 3.5 35t14.5 29 q18 -35 35 -138q23 -137 136 -137q81 0 113 9q67 19 67 76q0 37 -8 91q-18 122 -18 156q0 19 1.5 30.5t7.5 24.5q31 -31 47 -154q12 -91 12 -170q0 -52 19 -123q43 -161 43 -205z" />
<glyph unicode="I" horiz-adv-x="1081" d="M1070 74q-15 -14 -26 -18.5t-26 -4.5q-19 1 -32 1q-111 0 -258.5 -14.5t-297.5 -29t-239 -14.5q-6 0 -15 2t-17 4l-22 20q36 13 165 21t181 21q89 22 89 76q0 51 -15.5 245.5t-23.5 217.5l-23 11q-45 0 -105 -11q-141 -26 -178 -26q-43 0 -59 6t-31 22q77 17 309.5 45.5 t301.5 28.5q37 0 68 -10q-13 -30 -22 -41q-16 -21 -40 -21q-15 0 -40 15t-36 15q-24 0 -45 -5t-51 -16q11 -45 16.5 -156.5t11.5 -214.5t20 -134q9 -18 28 -26.5t41 -8.5q57 0 225 14q84 7 135 7q2 -8 11 -21z" />
<glyph unicode="J" horiz-adv-x="636" d="M848 667q-31 -24 -42 -31q-25 -15 -49 -15q-12 0 -29 4q-42 10 -50 10q-50 0 -120 -7q-161 -16 -202 -16q-60 0 -90 5q-58 10 -75 39q47 0 156.5 -2t116.5 -2q50 0 119 8q156 18 176 18t42 -3t47 -8zM595 300q0 -113 -48 -203q-59 -111 -162 -111q-38 0 -135 45 q-103 48 -103 77l1 18l10 11q28 -10 110 -68q69 -49 117 -49q103 0 142 117q24 72 24 201q0 36 -27 103t-27 102l1 17q48 -48 74 -120q23 -65 23 -140z" />
<glyph unicode="K" horiz-adv-x="582" d="M542 44q0 -14 -9 -25t-25 -19q-30 72 -118.5 131t-166.5 59q0 -12 3 -28q7 -38 7 -48q0 -23 -10.5 -37.5t-31.5 -24.5q-13 60 -16.5 181t-5.5 148l-36 208q0 31 6.5 50.5t29.5 27.5l43 -297q47 30 100 79q47 44 93 97q24 27 82 100q11 -14 16 -21t5 -22q0 -23 -72 -88 l-136 -120q-73 -69 -73 -100q0 -39 81 -85l152 -78q82 -47 82 -88z" />
<glyph unicode="L" horiz-adv-x="720" d="M699 52q-19 -21 -51 -29t-75 -8q-28 0 -71.5 2.5t-46.5 2.5q-28 0 -67 -6q-90 -14 -113 -14h-19q-21 0 -40 2.5t-26 7.5q-13 9 -17 29t-4 45q0 46 -5.5 150.5t-5.5 135.5q0 26 -11 79t-11 80q0 23 7.5 40t25.5 23q19 -82 25 -173t6 -206v-76q0 -45 7 -67q12 -39 47 -39 q49 0 125 12q164 26 210 26q34 0 59.5 -3.5t50.5 -13.5z" />
<glyph unicode="M" d="M826 10l-43 -10q0 164 -1 195q-4 110 -16 196q-15 101 -46 191q-55 -23 -92 -75l-98 -148q2 -5 18 -29q13 -19 13 -31q0 -23 -21 -36q-17 -10 -42 -10q-7 0 -15.5 1.5t-17.5 5.5q-8 16 -11 50.5t-20 59.5q-54 77 -120 147q-83 88 -145 118q15 12 34 12q40 0 100 -66 q50 -62 101 -123q56 -67 82 -67q8 0 51 55q58 74 96 114q66 70 119 96q37 -161 55.5 -322.5t18.5 -323.5zM217 345v-34t1 -30q0 -104 -9 -160q-14 -90 -51 -101q0 49 15 218q7 79 7 132q0 43 -21 126l-22 86q0 15 12 23q41 -16 58 -116q10 -61 10 -144z" />
<glyph unicode="N" horiz-adv-x="794" d="M774 126q-10 -32 -23 -49.5t-41 -34.5q-29 128 -41 262.5t-12 287.5q0 20 -6.5 60t-6.5 51q0 27 5 43t14 16h25v-73q0 -127 5.5 -241.5t21.5 -198.5q21 -108 59 -123zM655 118q0 -14 -12.5 -22t-28.5 -12q-22 64 -117 206q-51 77 -163 232q-85 118 -86 129l10 13 q15 -2 27 -10q5 -3 22 -19q21 -20 108 -143q78 -111 159 -235t81 -139zM218 141q0 -50 -6 -75q-11 -47 -43 -56q-6 28 -8.5 55.5t-2.5 64.5q0 45 7 134t7 134q0 33 -9 83q-20 111 -20 137q0 20 3.5 36t11.5 33q22 -27 37 -147q12 -92 17.5 -214t5.5 -185z" />
<glyph unicode="O" d="M835 277q0 -141 -114 -214q-97 -62 -246 -62q-146 0 -240 81q-100 86 -100 231q0 143 114.5 248.5t260.5 105.5q36 0 78 -34q20 -17 41 -34q102 -75 146 -134q60 -82 60 -188zM806 259q0 104 -66 189q-57 74 -158 128q-8 5 -36 33q-22 23 -42 23q-126 0 -226 -86.5 t-100 -209.5q0 -127 85.5 -216t212.5 -89q118 0 214 54q116 65 116 174z" />
<glyph unicode="P" horiz-adv-x="636" d="M646 508q0 -82 -71 -126q-42 -26 -141.5 -49t-123.5 -43q-4 -12 -7 -23q0 -36 17 -105t17 -103q0 -45 -41 -59q0 96 -20 205q-16 87 -47 193t-60 205q-14 -2 -27 -3l-26 3q50 56 131 87t162 31q106 0 169 -52q68 -56 68 -161zM606 510q0 88 -58 133q-53 41 -143 41 q-59 0 -110 -12q-80 -19 -80 -58q0 -9 8 -30.5t10.5 -29t12.5 -51.5t18 -90q4 -24 14 -37.5t30 -20.5q9 -3 23.5 -5t38.5 -2q73 0 149 44q87 51 87 118z" />
<glyph unicode="Q" horiz-adv-x="837" d="M796 240q0 -87 -87.5 -138.5t-87.5 -62.5q0 -22 46 -121q23 -50 23 -79l-2 -19l-16 1l-26 -1q-22 135 -55 169q-29 30 -122 30q-19 0 -40 -0.5t-43 -0.5q-99 0 -177 107q-72 99 -72 203q0 143 113 227q103 76 251 76q65 0 180 -153.5t115 -237.5zM759 251q0 67 -52.5 148 t-113.5 105q-20 7 -41 7q-13 0 -27 -1t-27 -2q22 31 53 63q-46 20 -96 20q-113 0 -194 -80t-81 -194q0 -99 67 -181q71 -87 167 -87q31 0 61 6.5t65 18.5q-7 20 -59 113q-38 68 -38 120l2 10q30 -21 66 -90q69 -132 95 -132q56 0 104.5 49.5t48.5 106.5z" />
<glyph unicode="R" horiz-adv-x="763" d="M752 10q-11 -4 -16 -6q-17 -7 -30 -10q-6 2 -84 63q-85 67 -161 107q-109 58 -197 58q0 -23 11 -70t11 -71q0 -25 -10 -40.5t-33 -20.5q-27 121 -45 247t-18 230q0 26 -12 60q-26 73 -26 79q0 39 70 65q57 21 105 21q100 0 170 -59q74 -63 74 -160q0 -94 -139 -168 q-91 -43 -126 -60q148 -61 164 -68q89 -40 156 -83q80 -51 136 -114zM519 508q0 79 -68 131q-62 48 -144 48q-47 0 -70 -28t-23 -76q0 -96 7 -150q15 -116 56 -116q14 0 34 7t38 14q70 22 114 59q56 48 56 111z" />
<glyph unicode="S" horiz-adv-x="731" d="M767 663q0 -11 -10.5 -27t-14.5 -22q-16 38 -50 56t-79 18q-106 0 -243 -61q-163 -72 -163 -165q0 -29 34 -41q26 -9 79 -9q33 0 65 2.5t57 4.5q127 0 195 -60q73 -64 73 -190q0 -86 -129 -132q-96 -34 -203 -34q-54 0 -133 21q-95 25 -108 60l28 3q35 0 102 -28t103 -28 q108 0 194 29q122 41 122 126q0 38 -21 74q-17 28 -50 60q-43 42 -83 57.5t-86 15.5q-27 0 -51 -2q-84 -7 -102 -7q-54 0 -83 10q-48 17 -48 60q0 91 94 149q62 39 175 66q11 3 97 29q68 21 96 21q32 0 87.5 -16.5t55.5 -39.5z" />
<glyph unicode="T" horiz-adv-x="593" d="M763 603q-24 -22 -50 -29.5t-59 -7.5q-22 0 -36 1q-57 4 -64 4q-35 0 -75 -9q-8 -2 -45 -12q11 -46 28.5 -258t17.5 -272q-3 -14 -4 -20h-42q0 36 -9 177t-17 225q-12 125 -20 133q-15 15 -39 15q-37 0 -91 -11q-123 -25 -155 -25q-28 0 -46 7t-26 29q69 8 207 28t229 30 q129 14 213 14q27 0 46 -3.5t37 -15.5z" />
<glyph unicode="U" horiz-adv-x="880" d="M853 350q0 -165 -105 -259q-101 -90 -269 -90q-125 0 -192 44q-60 40 -90 124q-20 57 -39 190q-8 53 -12 87.5t-4 70.5q0 55 11 88q16 49 59 62q0 -22 -14 -86q-7 -32 -7 -52q0 -150 11 -221q19 -123 75 -187q69 -79 199 -79q148 0 234 66q97 74 97 217q0 55 -24 134 q-52 172 -52 208q0 21 12 30q32 -13 73 -159q37 -133 37 -188z" />
<glyph unicode="V" horiz-adv-x="636" d="M659 710q0 -67 -31.5 -189t-61.5 -240q-33 -145 -33 -246q0 -30 -13.5 -46.5t-43.5 -30.5q-4 9 -6 24.5t-2 26.5q0 15 1 34t1 22q0 45 -43 136q-36 77 -91 168q-34 56 -82 128q-62 70 -123 140l6 30q51 -18 130 -122q60 -79 134 -205q42 -72 97 -171q20 70 39 163 q15 82 31.5 171t32.5 158q7 29 18 47q15 25 38 33z" />
<glyph unicode="W" horiz-adv-x="943" d="M950 669q0 -76 -21.5 -174.5t-43.5 -198.5t-22 -169q0 -27 6 -53h11q0 -41 -23.5 -62.5t-62.5 -21.5q0 72 -94 203q-97 136 -160 136q-26 0 -35.5 -23.5t-9.5 -64.5q0 -16 2 -43t2 -33q0 -31 -9 -50.5t-35 -30.5q-5 18 -7 45t-2 52q0 78 14 144q19 90 59 129 q2 -12 5 -24.5t7.5 -21t13.5 -16.5t19 -13q46 -23 90 -70q22 -23 75 -92q50 -64 76 -91q25 62 47 211q17 120 35 241q23 126 56 163q7 -34 7 -72zM415 88q0 -16 -9 -27t-25 -19q-24 68 -50 129q-21 49 -58 127q-31 62 -61 125q-7 14 -56 66q-42 44 -42 71q0 17 12 32h11 q9 -11 42 -41q28 -25 42 -48q9 -14 60.5 -120t87.5 -186q46 -101 46 -109z" />
<glyph unicode="X" horiz-adv-x="710" d="M678 61q0 -9 -4 -22t-6 -19q-34 22 -80 90l-82 124q-52 72 -104 104q-66 -150 -84 -196q-25 -62 -43 -122q-4 -15 -24 -22.5t-39 -7.5q6 56 43 138q33 68 66.5 139.5t33.5 106.5q0 52 -58 112q-157 162 -160 170q78 0 175 -112q57 -72 80 -99q33 126 61 190.5t66 73.5 q0 -55 -42.5 -162.5t-42.5 -133.5q0 -31 63 -110q58 -70 117 -140q64 -78 64 -102z" />
<glyph unicode="Y" horiz-adv-x="476" d="M561 741q-25 -54 -88 -120q-75 -79 -94 -107q-44 -66 -44 -145q0 -51 15 -120q35 -160 35 -184q0 -49 -47 -65q-4 26 -16 134t-21 163q-14 81 -34 138.5t-86.5 129.5t-74.5 102q36 -7 101 -81t90 -74q24 0 66 59q70 99 81 111q54 60 104 60z" />
<glyph unicode="Z" horiz-adv-x="742" d="M720 106q-10 -39 -50 -55q-28 -11 -81 -11q-13 0 -37 1t-33 1q-56 0 -135 -11q-180 -25 -226 -25q-14 3 -21 4q11 49 108 165q92 105 184 211q103 121 122 174q-46 23 -104 23q-37 0 -108.5 -13.5t-102.5 -13.5q-33 0 -56 26q76 17 154 25t158 8q46 0 65 -5 q40 -11 40 -43q0 -48 -83 -153q-39 -49 -170 -193q-106 -116 -132 -158q54 -8 103 -8q83 0 193.5 17.5t211.5 33.5z" />
<glyph unicode="[" horiz-adv-x="742" d="M742 95q-20 -27 -47.5 -36t-65.5 -9q-11 0 -34 1t-34 1q-42 0 -97 -13q-131 -31 -160 -31q-46 0 -65 28q-15 22 -15 67q0 23 4.5 64.5t4.5 51.5q0 77 -23.5 166.5t-46.5 173.5q-26 103 -26 171q50 6 115 26.5t126 39.5q71 19 122 19q22 0 34 -4t38 -18q-35 -15 -121 -29 q-118 -20 -143 -25q-79 -16 -106 -36q-3 -7 -4 -11q-4 -11 -4 -12q0 -72 21 -165.5t42.5 -191.5t21.5 -177v-35q-3 -25 -4 -37q16 -4 37.5 -6t40.5 -2q51 0 117 11q155 26 194 26q36 0 78 -8z" />
<glyph unicode="\" horiz-adv-x="561" d="M561 20q-15 -7 -23 -10q-16 -7 -23 -7q-10 0 -23 15q-4 5 -17 24q-26 46 -71 119q-30 48 -44 71q-22 35 -71 97q-65 82 -85 111q-46 64 -57 99l11 32q68 -76 145 -189l124 -188q72 -107 134 -174z" />
<glyph unicode="]" horiz-adv-x="731" d="M731 74q-94 -23 -207 -36t-214 -13q-27 0 -47 3.5t-40 13.5l31 42q27 -13 60.5 -18.5t70.5 -5.5q48 0 95.5 7.5t187.5 38.5l-117 561q-9 47 -45 63q-25 11 -79 11h-25q-17 0 -66 14q-25 7 -40 7q-28 0 -55 -1l-54 -2q-29 0 -48.5 7t-32.5 27q14 4 37 6t40 2q39 0 171 -12 q66 -6 104 -6q37 0 60.5 -3t42.5 -16q14 -10 22 -25t10 -34q21 -155 57 -318q32 -145 81 -313z" />
<glyph unicode="^" horiz-adv-x="593" d="M570 385l-9 -26q-45 22 -90 83q-38 53 -75 106q-47 58 -100 76q-32 -74 -63 -148q-5 -15 -10.5 -44.5t-8.5 -38.5q-10 -40 -45 -55q-1 5 -2 14.5t-1 18.5q0 37 38.5 149.5t61.5 133.5q15 13 31 13q56 0 154 -115q76 -89 119 -167z" />
<glyph unicode="_" horiz-adv-x="581" d="M551 47q-20 -24 -83 -34t-156 -10q-62 0 -165.5 3.5t-118.5 3.5l-20 4l-8 28q49 8 109.5 12.5t117.5 4.5h141t73 -1l-18 -1h11.5h19.5q26 0 48 -2t49 -8z" />
<glyph unicode="`" horiz-adv-x="254" d="M254 529q-3 -2 -14.5 -12t-18.5 -10q-24 0 -75 63q-28 35 -40 44l-106 84q4 8 9 17q4 4 22 4q13 0 28 -9q10 -6 23 -19l44 -45q21 -19 49 -42q57 -47 79 -75z" />
<glyph unicode="a" horiz-adv-x="434" d="M441 233q0 -43 -6 -68q-9 -38 -33 -59q-19 85 -33 108q-30 48 -101 48q-58 0 -116 -39q-65 -43 -65 -98q0 -45 41 -71q36 -23 84 -23q29 0 85 12.5t81 12.5q6 -3 8.5 -14.5t5.5 -21.5q-50 -10 -87.5 -14.5t-82.5 -4.5q-72 0 -115 18q-63 26 -63 88q0 84 61 133.5 t147 49.5q66 0 129 -26q3 14 5.5 27t2.5 28q0 42 -26.5 71.5t-68.5 29.5q-27 0 -60.5 -10t-64.5 -19q15 32 47.5 48.5t70.5 16.5q85 0 124 -73q30 -57 30 -150z" />
<glyph unicode="b" horiz-adv-x="530" d="M530 212q0 -112 -115 -168q-90 -44 -214 -44q-73 0 -99 70q-17 45 -17 138v35q0 19 -14 79q-7 30 -7 51q0 27 -8 82t-8 82q0 21 3 40t12 37q16 -33 25 -90q21 -135 28 -154q47 10 98 21t93 11q52 0 95 -11q14 -14 29.5 -27t34.5 -26h10q17 -20 35.5 -61t18.5 -65z M476 212q0 84 -67 125q-57 35 -145 35q-63 0 -98 -33t-35 -96q0 -43 7 -105t21 -75q10 -10 29 -12.5t44 -2.5q89 0 158 37q86 46 86 127z" />
<glyph unicode="c" horiz-adv-x="636" d="M636 63q-49 -24 -165 -42t-187 -18q-110 0 -171 39q-74 48 -74 152q0 107 81 185t189 78q43 0 90 -31q53 -35 53 -74q0 -15 -10.5 -23t-28.5 -12q-9 44 -36 71.5t-71 27.5q-82 0 -159.5 -76.5t-77.5 -158.5q0 -78 70 -119q57 -34 141 -34q59 0 139.5 20.5t162.5 42.5 q17 0 29 -6.5t25 -21.5z" />
<glyph unicode="d" horiz-adv-x="519" d="M512 226q0 -38 -10 -58q-13 -25 -47 -31q4 34 8.5 70t4.5 68q0 65 -50.5 116.5t-116.5 51.5q-87 0 -159 -95q-68 -89 -68 -179q0 -57 46 -95q43 -35 102 -35q23 0 93 14q35 7 56 7q17 0 24.5 -1.5t17.5 -6.5q-28 -27 -71 -40t-89 -13q-81 0 -139 33q-72 41 -72 116 q0 135 60 222q70 101 200 101q40 0 82 -21q32 -16 71 -48q4 20 4 46q0 34 -2 61q-7 96 -7 102q0 32 4.5 55t21.5 32q23 -99 31 -235q5 -86 5 -237z" />
<glyph unicode="e" horiz-adv-x="551" d="M551 52l-15 -37q-22 -7 -115.5 -11.5t-143.5 -4.5q-100 0 -160 41q-70 48 -70 144q0 106 78 177t184 71q63 0 103 -19q55 -26 55 -82l-1 -14q-39 35 -82 55t-91 20q-57 0 -104 -33q-43 -30 -73 -84q48 -11 105.5 -16.5t115.5 -5.5q21 0 76 9q31 5 48 5q55 0 90 -35 q-31 -7 -68.5 -10t-74.5 -3q-34 0 -102 3t-101 3q-64 0 -88.5 -12t-24.5 -40q0 -68 63 -109q55 -36 125 -36q40 0 90 8q120 19 150 19z" />
<glyph unicode="f" horiz-adv-x="625" d="M668 603q0 -30 -3.5 -41t-13.5 -18q-9 11 -23 64q-21 81 -121 81q-134 0 -189 -93q-43 -72 -43 -215q0 -59 22 -84.5t79 -25.5q27 0 67 4q91 9 113 9q25 0 42 -6t27 -25q-49 -23 -156.5 -25t-150.5 -16q24 -51 36 -81q23 -55 23 -81q0 -33 -28 -50q-22 68 -43 137 q-38 95 -83 95q-18 0 -43 -4q-57 -9 -71 -9q-24 0 -40 7.5t-27 26.5l212 32q-8 38 -12.5 76t-4.5 71q0 139 62 212q67 79 204 79q69 0 112 -25q53 -31 53 -95z" />
<glyph unicode="g" horiz-adv-x="498" d="M501 -234q0 -85 -100 -111q-53 -14 -169 -14q-49 0 -91 13q-62 19 -62 55q0 9 4.5 18.5t11.5 19.5q39 -31 94 -47.5t110 -16.5q69 0 109 28q47 33 47 99v20.5v16.5q0 74 -11 113q-18 62 -65 62q-19 0 -39 -3q-59 -9 -65 -9q-93 0 -154 32q-79 42 -79 127q0 122 125 179 q94 43 232 43q21 0 40 -12.5t19 -32.5q0 -10 -4 -26q-9 -35 -9 -45q0 -49 14 -104t30 -110q-4 -6 -8.5 -17.5t-4.5 -12.5q0 -46 12.5 -135.5t12.5 -129.5zM418 139q0 49 -12 111q-5 24 -25 109q-148 -25 -188 -41q-108 -44 -108 -144q0 -71 84 -102q57 -21 144 -21 q60 0 80 14q25 18 25 74z" />
<glyph unicode="h" horiz-adv-x="593" d="M589 67q0 -16 -10.5 -27.5t-27.5 -19.5q-15 56 -30 113q-22 71 -52 106q-40 47 -101 47q-131 0 -191 -76l-92 -210q-11 48 -16.5 110t-5.5 177v24v17q0 32 -8 71q-20 97 -20 119q0 20 3.5 35t14.5 29q40 -56 48 -179q12 -176 15 -191q90 56 122 71q72 34 136 34 q17 0 51 -5t51 -5q32 -20 72.5 -110t40.5 -130z" />
<glyph unicode="i" horiz-adv-x="169" d="M126 529q-14 0 -26 3q-18 6 -26 8v20l21 22q19 -16 23 -23t8 -30zM147 83q0 -33 -7 -53q-10 -27 -34 -40q-7 27 -20 152.5t-13 158.5q0 16 1.5 25.5t9.5 14.5q23 -19 45 -123q18 -87 18 -135z" />
<glyph unicode="j" horiz-adv-x="223" d="M84 599q0 -2 -5.5 -8t-4.5 -9l-24.5 7t-18.5 3q11 21 16 24q6 4 27 8q-1 -4 4.5 -12.5t5.5 -12.5zM214 -164q0 -96 -69 -172.5t-165 -76.5q-59 0 -136 33q-91 39 -91 89q0 16 11 32q5 7 13 16q21 -61 71.5 -98.5t114.5 -37.5q97 0 157.5 71.5t60.5 170.5q0 72 -24 168 q-55 220 -55 280q0 6 1 13q0 2 3 14q10 -10 15 -14q10 -10 14 -16q14 -26 46.5 -227.5t32.5 -244.5z" />
<glyph unicode="k" horiz-adv-x="487" d="M476 -10q-9 -3 -20 -6.5t-18 -3.5q-53 42 -107 84q-108 84 -162 84q-19 0 -33 -7q-7 -11 -7 -33q1 -20 1 -29q0 -37 -27 -51l-29 3q0 72 -3.5 198t-3.5 163q0 43 -8 97q-20 136 -20 164q0 16 3 28.5t12 17.5q19 -10 36 -108q13 -76 24 -190q6 -69 12 -137q121 99 193 151 q76 55 107 55q13 0 23 -6.5t17 -18.5q-63 -11 -128 -50q-51 -30 -112 -86q-23 -21 -100 -97q199 -71 350 -222z" />
<glyph unicode="l" horiz-adv-x="169" d="M161 57q0 -48 -45 -57q0 85 -19 201q-12 75 -45 216q-7 29 -46 192q-1 4 0.5 17.5t3.5 19.5q61 -49 88 -196l32 -224q13 -55 19 -84q12 -54 12 -85z" />
<glyph unicode="m" horiz-adv-x="932" d="M929 86q0 -18 -10.5 -32t-28.5 -23q-32 143 -55 192q-53 113 -148 113q-59 0 -111 -60q-28 -32 -83 -126q-50 -84 -80 -108q0 156 -26 217q-29 69 -91 69q-72 0 -113 -67q-18 -29 -55 -139q-31 -92 -65 -122q-10 43 -15.5 105t-5.5 169v64q0 23 3 35t9 22 q18 -14 28.5 -74.5t23.5 -130.5q32 68 80 117q62 63 121 63q56 0 93 -65q13 -23 45 -115q21 15 89 80q106 101 173 101q78 0 153 -105q69 -97 69 -180z" />
<glyph unicode="n" horiz-adv-x="551" d="M549 93q0 -42 -9 -83h-42q10 57 10 121q0 108 -25 180q-37 107 -122 107q-29 0 -58 -6.5t-63 -18.5q-101 -36 -123 -69.5t-22 -143.5q0 -17 3 -39q7 -52 7 -65q0 -26 -9.5 -44.5t-32.5 -31.5q-7 26 -10 58.5t-3 64.5q0 33 1 65.5t2 64.5q0 22 -2 40q-7 62 -7 66 q0 24 6 39t24 25q4 -13 9.5 -26.5t11.5 -26.5q141 50 143 51q94 30 155 30q94 0 132 -139q24 -87 24 -219z" />
<glyph unicode="o" horiz-adv-x="646" d="M646 180q0 -92 -136 -143q-102 -38 -214 -38q-114 0 -178 43q-76 51 -76 159q0 105 156 169q124 51 249 51q88 0 146 -78q53 -71 53 -163zM608 191q0 36 -19 74q-24 48 -81 105q-8 -10 -19.5 -21t-22.5 -21q-5 28 -24.5 41.5t-49.5 13.5q-99 0 -200 -60 q-115 -68 -115 -161q0 -73 80 -109q62 -28 145 -28q97 0 188 37q118 48 118 129z" />
<glyph unicode="p" horiz-adv-x="540" d="M540 212q0 -113 -105 -162q-127 -27 -253 -54q-7 -7 -10.5 -28t-3.5 -51t1.5 -59.5t3.5 -54.5q0 -36 -7 -62.5t-29 -47.5q-6 26 -9 58.5t-3 60.5q0 31 1 63t2 63q0 48 -31 69q-46 31 -55 45q40 0 56 8q23 12 23 48q0 35 -19 102t-19 99q0 48 96 76q69 20 138 20 q100 0 158 -45q65 -50 65 -148zM512 212q0 63 -49.5 110.5t-113.5 47.5q-76 0 -127 -11q-69 -15 -116 -52q44 -25 47.5 -145t80.5 -120q97 0 176 37q102 48 102 133z" />
<glyph unicode="q" horiz-adv-x="508" d="M508 52l-42 -20q-22 -14 -22 -63q0 -33 8 -81q18 -109 18 -135q0 -20 -8 -32t-28 -17q0 74 -11 152.5t-31 163.5q-55 -8 -81 -11t-62 -3q-97 0 -148 37q-59 43 -59 137q0 89 91 149q80 53 174 53q15 0 34 -7q44 -16 51 -16q18 0 37.5 18.5t36.5 35.5q0 -44 -11 -131 t-11 -130q0 -24 12 -43q3 -4 52 -57zM414 229q0 56 -19 86q-23 36 -77 36q-88 0 -164 -62q-80 -66 -80 -152q0 -60 56 -82q36 -14 109 -14h100h14q15 0 22 3q18 7 28.5 56t10.5 129z" />
<glyph unicode="r" horiz-adv-x="530" d="M519 328q-33 7 -104 54q-64 42 -108 42q-94 0 -140 -36q-52 -41 -52 -132q0 -37 10.5 -106.5t10.5 -98.5q0 -34 -30 -51l-30 174q-19 106 -34 175q41 5 118.5 55t135.5 50q45 0 118 -32t101 -64z" />
<glyph unicode="s" horiz-adv-x="530" d="M530 201q0 -89 -79 -147q-73 -54 -165 -54q-53 0 -135 36q-88 39 -109 80q46 0 134 -40.5t134 -40.5q68 0 126 50t58 118q0 61 -58 83q-37 14 -114 14h-33q-8 0 -48 -5q-16 -2 -30 -2q-29 0 -43 3q-30 6 -30 25q0 55 134 103q114 41 183 41q32 0 45.5 -10.5t18.5 -41.5 l-125 3q-77 0 -123 -17q-63 -23 -91 -82h28q26 0 78 4t77 4q77 0 116 -23q51 -30 51 -101z" />
<glyph unicode="t" horiz-adv-x="540" d="M540 359q-14 -18 -35 -24.5t-48 -6.5q-17 0 -34.5 1t-34.5 2q-51 0 -51 -51q0 -34 4.5 -126t4.5 -108q0 -60 -11 -110q-36 10 -62.5 38.5t-43.5 67.5q17 -17 32 -30t33 -24q4 16 8 68.5t4 75.5q0 140 -17 175t-85 35q-22 0 -73.5 -2.5t-73.5 -2.5l-15 1q15 20 40 27.5 t58 7.5q15 0 43 -2t40 -2q24 0 33 12.5t9 36.5q-1 11 -1 16q-7 51 -9 76q-5 45 -5 77q0 10 7 19.5t18 17.5q20 -105 41 -210q23 -42 170 -42q20 0 27 -2t27 -11z" />
<glyph unicode="u" horiz-adv-x="625" d="M619 260q0 -124 -85 -194q-80 -66 -206 -66q-142 0 -219 95q-72 88 -72 234q0 35 9.5 60.5t38.5 33.5q0 -117 11 -180q18 -101 65 -152q58 -63 168 -63q107 0 187.5 76.5t80.5 183.5q0 46 -25 79q-34 44 -40 66q6 12 12 19t28 13q23 -55 35 -103.5t12 -101.5z" />
<glyph unicode="v" horiz-adv-x="476" d="M476 540q0 -85 -53 -185q-143 -271 -149 -295t-24.5 -42t-48.5 -28l-2 19q0 13 8 46q5 21 5 29q0 45 -39.5 125.5t-77.5 156.5q-42 90 -42 142q24 -7 43 -27q16 -17 29 -45q23 -51 45 -107q62 -157 73 -181q39 55 78 129q15 30 66 137q40 85 68 136l11 -10h10z" />
<glyph unicode="w" horiz-adv-x="911" d="M911 540q0 -65 -58 -179q-46 -88 -91 -175q-10 -24 -14 -66t-9 -60t-24 -28q-12 -7 -37 -12q-15 89 -77.5 168t-145.5 108q-24 -59 -30 -95t-6 -108q0 -11 -9 -23q-4 -5 -18 -18q-6 21 -8.5 42t-2.5 49q0 66 15 128q20 82 59 110q6 -21 19.5 -36.5t33.5 -27.5 q50 -28 99 -80q39 -41 81 -100q12 19 66 124.5t94 179.5q51 93 63 99zM329 40q0 -8 -3 -16q-2 -5 -8 -14q-48 43 -95 121q-39 67 -78 135q-49 77 -103 115q5 10 12.5 17.5t18.5 7.5q18 0 39 -25q12 -14 28 -41q42 -75 80 -133q43 -66 91 -128q9 -12 13.5 -20.5t4.5 -18.5z " />
<glyph unicode="x" horiz-adv-x="498" d="M498 0l-14 -1q-48 0 -128.5 99.5t-107.5 99.5q-26 0 -63 -42q-89 -101 -100 -104q0 53 75 135q47 49 63 66q-62 45 -98 73q-68 52 -83 76q71 0 135 -53q21 -17 66 -64l191 191v-20q0 -28 -74.5 -105.5t-74.5 -97.5q0 -13 43 -64q50 -59 117 -126h21q12 -10 20 -31.5 t12 -31.5z" />
<glyph unicode="y" horiz-adv-x="476" d="M488 414q0 -17 -11.5 -37.5t-21.5 -38.5q-63 -130 -85 -179q-39 -86 -74 -181t-58 -188q-13 -88 -23 -134q-20 -85 -68 -96l-21 17q36 66 78 203.5t42 204.5q0 65 -74.5 195t-129.5 169l21 32q65 -47 124 -150q16 -29 88 -179q50 105 64 132q29 59 67 131q28 54 70 130 q6 -10 9 -18.5t3 -12.5z" />
<glyph unicode="z" horiz-adv-x="668" d="M668 106l-330 -54q-74 -18 -130 -31q-109 -26 -118 -26q-28 0 -48 5q10 18 117 115q96 87 209 184t140 114q-42 9 -86 9q-40 0 -119 -8t-119 -8q-25 0 -39.5 3t-28.5 14q69 24 150.5 35.5t162.5 11.5q44 0 81 -3.5t72 -12.5q-12 -41 -102 -116.5t-179 -147.5 q-107 -88 -143 -138q59 0 145 20.5t172 41.5t129 21q23 0 38.5 -6t25.5 -23z" />
<glyph unicode="{" horiz-adv-x="487" d="M484 -45q-22 -24 -55 -35.5t-69 -11.5q-69 0 -116 41q-51 44 -51 112q0 39 38 120q25 54 30 71q-32 5 -63 10q-38 9 -53 32q98 12 116 18q67 22 67 82q0 82 -98 100t-98 47q0 84 108 156q99 66 188 66l34 -3q-37 -30 -109 -60q-81 -34 -107 -52q-54 -37 -80 -100 q96 -26 132 -41q60 -26 60 -124q0 -39 -60 -152t-60 -170q0 -44 35.5 -78.5t81.5 -34.5q16 0 46 8t45 8q8 0 20.5 -4t17.5 -5z" />
<glyph unicode="|" horiz-adv-x="286" d="M267 55q0 -26 -9.5 -43t-34.5 -22q-9 36 -29 168t-37 263.5t-17 158.5q0 31 1.5 42.5t6.5 33.5q49 -69 60 -195q7 -104 15 -208q1 -4 32 -125q12 -46 12 -73z" />
<glyph unicode="}" horiz-adv-x="593" d="M582 298q-102 -9 -117 -12q-83 -16 -83 -57q0 -20 32 -84t32 -103q0 -53 -45 -82q-39 -25 -95 -25q-48 0 -87 16q-51 21 -60 60l18 2q20 0 85 -23q31 -11 52 -11q81 0 81 80q0 34 -40 91t-40 86q0 15 9 29q24 36 25 43q-15 16 -30 33q-12 17 -12 44q0 39 74.5 93 t74.5 139q0 55 -30 99q-34 50 -86 50q-37 0 -99 -19l-102 -32l-12 6v21q50 25 103.5 41t103.5 16q89 0 127 -67q29 -52 29 -150q0 -82 -71.5 -125.5t-71.5 -71.5q0 -29 33 -42q26 -10 72 -10q25 0 44.5 1.5t44.5 3.5q16 0 26.5 -11.5t14.5 -28.5z" />
<glyph unicode="~" horiz-adv-x="794" d="M794 317q-27 -34 -72 -50t-93 -16q-82 0 -146.5 76.5t-117.5 76.5q-39 0 -113 -33t-115 -33q20 41 107.5 73.5t142.5 32.5q44 0 108.5 -75.5t132.5 -75.5q28 0 58 9l88 30q12 -2 20 -15z" />
<glyph unicode="&#xa1;" horiz-adv-x="318" d="M190 647q0 -41 -46 -41q-11 0 -22.5 1.5t-30.5 5.5q13 31 38 45q15 8 57 19q4 -13 4 -30zM211 66q0 -26 -3 -37q-6 -20 -22 -29q-26 73 -34 151.5t-8 180.5v79l1 64l41 11v-222q0 -34 12.5 -100.5t12.5 -97.5z" />
<glyph unicode="&#xa2;" horiz-adv-x="636" d="M636 63q-39 -19 -129 -36q-75 -14 -159 -21l1 -14q0 -26 -9.5 -43t-34.5 -22l-14 76h-7q-110 0 -171 39q-74 48 -74 152q0 85 53 154t136 96l-6 73q0 31 1.5 42.5t6.5 33.5q20 -29 33.5 -64t19.5 -73l26 1q43 0 90 -31q53 -35 53 -74q0 -15 -10.5 -23t-28.5 -12 q-9 44 -36 71.5t-71 27.5l-17 -1q8 -113 16 -225q4 -24 19.5 -78t20.5 -79q54 8 114.5 24.5t122.5 33.5q17 0 29 -6.5t25 -21.5zM287 28q-14 87 -28.5 187.5t-24.5 184.5q-67 -30 -116 -92.5t-49 -126.5q0 -78 70 -119q57 -34 141 -34h7z" />
<glyph unicode="&#xa3;" horiz-adv-x="720" d="M699 52q-19 -21 -51 -29t-75 -8q-28 0 -71.5 2.5t-46.5 2.5q-28 0 -67 -6q-90 -14 -113 -14h-19q-21 0 -40 2.5t-26 7.5q-13 9 -17 29t-4 45q0 31 -4 93t-4 92q-7 4 -19 4q-16 0 -29 -29.5t-27 -29.5q-12 0 -26 21q-2 3 -6 11q23 32 32 46q17 25 44 25q16 0 29 -8l-1 61 q0 26 -11 79t-11 80q0 23 7.5 40t25.5 23q18 -74 24.5 -150t6.5 -168q10 -10 22 -16.5t24 -6.5q14 0 23 29.5t24 29.5q11 0 24 -15q4 -5 10 -15q-1 -1 -28 -46q-15 -25 -37 -25t-35 6t-27 20v-98q0 -45 7 -67q12 -39 47 -39q49 0 125 12q164 26 210 26q34 0 59.5 -3.5 t50.5 -13.5z" />
<glyph unicode="&#xa4;" horiz-adv-x="500" d="M474 601q6 -6 6 -15q0 -16 -29 -48q14 -24 14 -70q0 -42 -19.5 -90t-53.5 -91q31 -35 48 -60q22 -33 22 -53q0 -12 -8 -20t-30 10q-10 8 -21 19l-54 58q-39 -35 -82 -54.5t-88 -19.5q-24 0 -45.5 9t-36.5 23q-37 -25 -59 -25q-12 0 -20 8t10 30q8 10 19 21l17 16 q-17 40 -17 88q0 36 12.5 81.5t35.5 86.5q-37 39 -50.5 60t-13.5 33q0 8 5 13t14 5q17 0 45 -25q16 -17 33 -33l2 -5q18 20 39.5 31.5t45.5 11.5q14 0 33 -6q28 -10 57 -19q6 -2 19 -2q12 0 23 1l22 2l31 -2q15 12 25 19q24 16 38 16q7 0 11 -4zM429 501q0 19 -47.5 26.5 t-147.5 7.5q-59 0 -104 -76q-38 -65 -38 -122q0 -52 22.5 -88.5t55.5 -36.5q83 0 160 64q99 83 99 225z" />
<glyph unicode="&#xa5;" horiz-adv-x="476" d="M561 741q-25 -54 -88 -120q-75 -79 -94 -107q-44 -66 -44 -145l1 -31h71q24 0 36 -2q4 -9 4 -23h-108l6 -35h10h78h19t21 -2q4 -8 4 -19h-128q16 -70 23 -102q13 -59 13 -90q0 -49 -47 -65q-16 128 -31 257h-7q-18 0 -46 -2.5t-32 -2.5q-32 0 -46 15q28 4 63 7t65 3 l-6 36h-11q-12 0 -37 -3.5t-33 -3.5q-29 0 -42 19q26 5 43 7q37 5 75 5q-10 54 -28 105t-84.5 123t-74.5 102q36 -7 101 -81t90 -74q24 0 66 59q70 99 81 111q54 60 104 60z" />
<glyph unicode="&#xa6;" horiz-adv-x="286" d="M205 377q0 -11 -9 -18t-31 -9q-12 23 -44 125.5t-32 121.5q0 17 8 32q44 -29 54 -82q7 -44 14 -87q20 -42 40 -83zM302 -7q0 -10 -4 -16q-10 -14 -39 -17q-13 27 -47.5 152.5t-34.5 146.5t7 39q49 -35 60 -99q7 -53 15 -106q1 -4 31 -63q12 -24 12 -37z" />
<glyph unicode="&#xa7;" horiz-adv-x="624" d="M646 622q0 -11 -11 -28q-6 -8 -11 -15q-14 34 -44 49.5t-69 15.5q-93 0 -212 -53q-142 -63 -142 -144q0 -18 15 -28.5t41 -13.5q23 4 57 7.5t53 3.5q9 0 32 -3t40 -5q96 -10 148.5 -63.5t52.5 -153.5q0 -44 -38 -76q-32 -27 -90 -45q22 -7 33.5 -19.5t11.5 -34.5 q0 -81 -83 -133q-54 -34 -154 -58q-8 -2 -85 -26q-61 -19 -85 -19q-29 0 -71 13q-54 17 -54 37q0 10 9.5 24.5t12.5 19.5q14 -35 43.5 -50.5t69.5 -15.5q93 0 213 54q144 65 144 147q0 23 -22 33.5t-58 10.5q-46 -7 -87 -7l-40 1q-110 0 -171 54q-64 57 -64 168q0 43 36 75 q31 27 87 46q-18 7 -27 18t-9 32q0 79 82 130q55 34 153 58q8 2 84 25q59 18 84 18q28 0 76.5 -14.5t48.5 -34.5zM575 206q0 31 -19 64q-15 26 -42 52.5t-71 42.5q-12 4 -79 22q-17 0 -60 -4t-72 -4q-59 0 -114 -32q-66 -38 -66 -93q0 -32 19 -65q16 -28 44.5 -56t77.5 -44 q36 -12 91 -18q110 0 182 22q109 34 109 113z" />
<glyph unicode="&#xa8;" horiz-adv-x="408" d="M380 707q0 -30 -32 -59t-62 -29q-28 0 -49 12q-26 15 -26 41q0 35 43 59q29 16 75 26q17 -9 35 -17q16 -10 16 -33zM192 711q0 -30 -32 -59t-62 -29q-28 0 -49 12q-26 15 -26 41q0 35 43 59q29 16 75 26q17 -9 35 -17q16 -10 16 -33z" />
<glyph unicode="&#xa9;" horiz-adv-x="835" d="M776 445q0 -89 -24 -176q-35 -127 -109 -201q-96 -96 -248 -96q-122 0 -235 97t-113 200q0 83 35 186q39 116 102 191q73 88 158 88q189 0 304 -68q130 -77 130 -221zM745 445q0 122 -104 181t-299 59q-110 0 -190 -154q-69 -133 -69 -262q0 -69 106.5 -163.5 t188.5 -94.5q164 0 256 88q70 67 96 185q15 68 15 161zM604 144q-28 -27 -70.5 -41t-87.5 -14q-148 0 -223 64q-80 69 -80 213q0 131 70 191.5t202 60.5q48 0 76 -18q35 -22 35 -68q0 -37 -33 -54q0 56 -15 80q-19 31 -72 31q-127 0 -178 -64q-45 -56 -45 -186 q0 -126 75 -177q62 -42 196 -42q21 0 49 10q66 23 75 23q4 0 12 -3t14 -6z" />
<glyph unicode="&#xaa;" horiz-adv-x="252" d="M208 565q0 -21 -3.5 -37t-15.5 -27q-9 41 -17 54q-15 24 -50 24q-29 0 -60 -20.5t-31 -47.5q0 -21 20 -34t43 -13q15 0 31 3q47 9 52 9q3 -1 4 -7q2 -7 3 -11q-17 -3 -38 -6t-47 -3q-39 0 -58 8q-31 13 -31 45q0 42 30.5 66.5t73.5 24.5q35 0 64 -13q4 18 4 28 q0 20 -13 35t-34 15q-13 0 -30.5 -5t-32.5 -9q8 15 24.5 23.5t34.5 8.5q43 0 62 -36q15 -28 15 -75z" />
<glyph unicode="&#xab;" horiz-adv-x="864" d="M834 28l-28 -3q-19 0 -36 7t-35 21q-81 66 -159 107.5t-177 68.5q-22 6 -36 14q-22 13 -22 32q0 26 100 106q92 74 199 140q113 70 147 70l15 -1q-12 -24 -30.5 -41.5t-46.5 -32.5q-103 -56 -170 -101q-81 -55 -156 -122q27 -17 144 -73q128 -61 185 -96q94 -57 106 -96z M522 28l-28 -3q-19 0 -36 7t-35 21q-81 66 -159 107.5t-177 68.5q-22 6 -36 14q-22 13 -22 32q0 26 100 106q92 74 199 140q113 70 147 70l15 -1q-12 -24 -30.5 -41.5t-46.5 -32.5q-103 -56 -170 -101q-81 -55 -156 -122q27 -17 144 -73q128 -61 185 -96q94 -57 106 -96z " />
<glyph unicode="&#xac;" horiz-adv-x="1200" d="M1162 -83h-1123v765h1123v-765zM1067 255v18h-16q-21 0 -29 5t-8 27v250q0 10 -0.5 20t-0.5 19q0 24 9.5 31.5t44.5 7.5v18h-160v-18q37 0 45 -7t8 -37v-24v-258q0 -22 -9.5 -28t-29.5 -6h-14v-18h160zM1141 27q0 50 -78 66t-78 50q0 21 15.5 33.5t37.5 12.5 q16 0 31 -7.5t27 -21.5q3 -14 4 -17q1 -6 1 -18l16 -1q0 17 3 37.5t4 31.5q-42 13 -80 13q-44 0 -71 -18q-32 -22 -32 -64q0 -53 77.5 -68t77.5 -51q0 -25 -18 -38.5t-44 -13.5q-42 0 -57 15t-15 56h-16q0 -11 -2 -37.5t-2 -29.5q0 -10 22.5 -16.5t59.5 -6.5q47 0 79 22 q38 26 38 71zM941 184h-86q0 24 1 48.5t4 46.5q28 23 42 44q18 27 18 58q0 88 -115 98t-115 74q0 38 27 59t67 21q19 0 44 -7.5t38 -18.5q5 -11 5 -34v-20h18q0 30 1.5 43t7.5 37q-53 21 -111 21q-62 0 -102 -29q-45 -33 -45 -93q0 -87 115.5 -98t115.5 -75q0 -42 -32 -64 t-76 -22q-26 0 -52 8q-35 11 -42 29l-1 48h-19v-33v-14q0 -20 -3 -40q51 -21 106 -21q27 0 51 6q5 -40 5 -72q-19 -11 -45 -19v-12h45v-157q0 -62 64 -62q8 0 18 2t18 4l27 34l-8 11q-13 -15 -32 -15t-29.5 14t-10.5 53v13v108q8 0 25.5 1t25.5 1q15 0 29 -3zM802 -60v17 q-29 0 -37 5t-8 23q1 20 1 33v92q0 96 -93 96q-25 0 -50 -15t-43 -38q1 18 1 27q0 16 -5 26q-23 -10 -46 -16t-47 -6v-17q11 1 17 1q13 0 21.5 -3.5t8.5 -13.5v-172q0 -11 -5 -17t-21 -6q-14 1 -21 1v-17h144l-1 17q-30 0 -39.5 8.5t-9.5 31.5q0 6 1 23.5t1 29.5v28 q0 46 10 64q16 28 63 28q38 0 53 -23q12 -19 12 -62v-54v-12q0 -44 -4 -79h97zM680 633v18h-119v-18q14 0 32 -2.5t18 -10.5q0 -25 -38 -154l-40 -130l-116 318h-14l-122 -315q-16 67 -32 138t-28 131q-4 6 -3 10q0 10 15 12.5t22 2.5h12v18h-143v-18q26 0 32.5 -6.5 t12.5 -35.5q10 -43 22 -88q28 -105 32 -149q-23 0 -58.5 -32.5t-46.5 -57.5q-4 -10 -5.5 -21t-1.5 -30v-30l-40 -20v-10l40 4l1 -153q0 -32 -8.5 -39.5t-41.5 -7.5v-17h155v17h-17q-19 0 -25 2q-16 6 -16 39l1 160q17 0 35 -0.5t36 -0.5l5 25l-2 2h-74v36v25q0 32 8.5 50 t35.5 18q17 0 29 -9l11 -54h29q27 80 57 156q22 57 65 155q9 -26 58 -154q37 -98 54 -157h30q15 61 54 198q46 160 60 181q7 4 29 4zM487 80q0 56 -36 91t-93 35q-61 0 -102 -36t-41 -97q0 -59 34 -99t92 -40q64 0 105 41t41 105zM434 56q0 -41 -16 -69q-20 -34 -59 -34 q-46 0 -70 49q-19 38 -19 90q0 39 19 68t56 29q48 0 71 -45q18 -35 18 -88z" />
<glyph unicode="&#xad;" horiz-adv-x="508" d="M426 243h-212q-16 0 -47 -5t-47 -5q-37 0 -54 31q45 10 102.5 15.5t111.5 5.5h93q12 0 23.5 -0.5t24.5 -3.5q5 -15 5 -38z" />
<glyph unicode="&#xae;" horiz-adv-x="835" d="M776 445q0 -89 -24 -176q-35 -127 -109 -201q-96 -96 -248 -96q-122 0 -235 97t-113 200q0 83 35 186q39 116 102 191q73 88 158 88q189 0 304 -68q130 -77 130 -221zM745 445q0 122 -104 181t-299 59q-110 0 -190 -154q-69 -133 -69 -262q0 -69 106.5 -163.5 t188.5 -94.5q164 0 256 88q70 67 96 185q15 68 15 161zM624 159q-15 -8 -34 -13q-69 50 -144 83q-82 37 -155 37q0 -17 5 -40q12 -54 12 -67q0 -18 -7.5 -30t-25.5 -16q-19 84 -33 184.5t-14 173.5q0 24 -14 59t-14 45q0 30 52 50q42 16 79 16q74 0 128.5 -46t54.5 -119 q0 -59 -73 -107q-1 -1 -126 -64q116 -38 166 -55q88 -31 143 -91zM482 479q0 60 -49 97.5t-110 37.5q-35 0 -52 -21t-17 -57q0 -97 11.5 -148.5t35.5 -51.5q12 0 26 5.5t28 11.5q53 17 85 44q42 35 42 82z" />
<glyph unicode="&#xaf;" horiz-adv-x="376" d="M290 627h-148q-8 0 -41 -5q-13 -2 -24 -2q-27 0 -38 21q67 15 149 15h65q22 0 34 -3z" />
<glyph unicode="&#xb0;" horiz-adv-x="365" d="M268 496q0 -34 -50 -53q-37 -14 -79 -14t-66 16q-28 19 -28 59q0 39 57 63q46 19 93 19q32 0 52.5 -28t20.5 -62zM254 500q0 18 -12 37q-8 13 -25 30l-15 -16q-4 21 -28 21q-36 0 -73 -22q-43 -26 -43 -60q0 -28 29 -41q22 -10 54 -10q36 0 69 13q44 18 44 48z" />
<glyph unicode="&#xb1;" horiz-adv-x="508" d="M444 370q-18 -9 -106 -16.5t-88 -62.5q0 -23 7.5 -65t7.5 -60q0 -14 -2 -26t-8 -22h6h93q12 0 23.5 -0.5t24.5 -3.5q5 -15 5 -38h-212q-16 0 -47 -5t-47 -5q-37 0 -54 31q47 11 97.5 16t100.5 5q-8 31 -14 76q-2 13 -8 77t-91 75t-98 33q18 6 38 6q14 0 42.5 -3.5 t37.5 -3.5h14q27 0 36 7q13 11 13 48q0 14 -8 42t-8 43q0 11 6.5 21.5t16.5 17.5q5 -57 10 -113q13 -66 59 -66q18 0 52.5 7.5t48.5 7.5q16 0 29 -5.5t23 -17.5z" />
<glyph unicode="&#xb2;" horiz-adv-x="364" d="M331 429q-20 -4 -45 -4q-15 0 -51 2t-37 2q-26 0 -63 -7q-85 -16 -107 -16q0 75 93.5 133.5t93.5 101.5q0 25 -13 43t-37 18q-23 0 -73 -23.5t-64 -23.5q13 30 51 47.5t77 17.5t61.5 -19t22.5 -59q0 -49 -82 -103q-91 -60 -103 -101l27 -3q20 0 41 4q58 11 70 11h90 q29 0 36.5 -4t11.5 -17z" />
<glyph unicode="&#xb3;" horiz-adv-x="339" d="M321 507q0 -64 -61 -96q-48 -25 -118 -25q-32 0 -48 5q-29 9 -29 32v7q24 -11 45 -19t51 -8q54 0 92 22q48 28 48 78q0 62 -58 62q-21 0 -61 -12t-58 -12q-5 0 -17 4l-2 2l3 16q51 6 101 26q69 28 69 63q0 31 -37 43q-22 7 -62 7q-30 0 -98 -13q-31 -6 -43 -6 q-16 0 -20 12q48 13 89 20.5t82 7.5q42 0 71 -15q38 -19 38 -57q0 -15 -7.5 -25t-39.5 -37q70 -16 70 -82z" />
<glyph unicode="&#xb4;" horiz-adv-x="364" d="M289 780q-76 -56 -87 -66q-47 -40 -73 -82l-5 12q-4 11 -4 25q0 37 29.5 71.5t67.5 47.5q17 6 33 6q24 0 39 -14z" />
<glyph unicode="&#xb5;" horiz-adv-x="625" d="M619 260q0 -124 -85 -194q-80 -66 -206 -66q-55 0 -97 9.5t-75 32.5q17 -49 35 -98q14 -44 14 -97q0 -46 -17 -63q-27 -16 -46 -27q-14 25 -41 156q-21 105 -42.5 244t-21.5 172q0 35 9.5 60.5t38.5 33.5q0 -117 11 -180q18 -101 65 -152q58 -63 168 -63 q107 0 187.5 76.5t80.5 183.5q0 46 -25 79q-34 44 -40 66q6 12 12 19t28 13q23 -55 35 -103.5t12 -101.5z" />
<glyph unicode="&#xb6;" horiz-adv-x="561" d="M507 67q0 -26 -5.5 -43t-19.5 -22q-4 35 -16 171q-8 99 -19.5 252t-11.5 170q0 14 0.5 27t4.5 50q28 -71 33 -186t9 -219q0 -33 12.5 -103t12.5 -97zM419 592q-10 -2 -19 -3l-22 3q0 -59 -1.5 -150.5t-1.5 -92.5q0 -105 6 -183.5t24 -165.5q-35 14 -44 58q-9 102 -17 204 l-10 23q-22 18 -104.5 41t-120.5 48q-65 43 -82 125q-7 34 -7 65q0 71 39.5 107.5t107.5 36.5q65 0 132 -29.5t120 -86.5zM344 406q0 24 -3 72t-3 72q0 8 1 18.5t2 21.5q0 9 -1 13q-8 37 -74 56q-45 13 -88 13q-59 0 -92.5 -28.5t-33.5 -89.5q0 -23 6 -53q14 -67 91 -116 q68 -43 126 -43q14 0 25.5 1t23 6t16 19.5t4.5 37.5z" />
<glyph unicode="&#xb7;" horiz-adv-x="240" d="M201 252q0 -30 -32 -59t-62 -29q-28 0 -49 12q-26 15 -26 41q0 35 43 59q29 16 75 26q17 -9 35 -17q16 -10 16 -33z" />
<glyph unicode="&#xb8;" horiz-adv-x="276" d="M222 -80q0 -50 -67 -96.5t-139 -52.5q77 53 116.5 81t39.5 55q0 17 -23 43q-12 14 -12 23q0 18 19 18q29 0 49 -26q17 -22 17 -45z" />
<glyph unicode="&#xb9;" horiz-adv-x="312" d="M325 372q-6 -11 -24.5 -15.5t-47.5 -4.5q-19 0 -50 2t-37 2q-26 0 -66 -2.5t-46 -2.5q-15 0 -29 1t-28 4q8 12 23.5 16.5t38.5 4.5q18 0 33 -1t29 -2q16 0 24.5 1.5t18.5 8.5l3 11q0 32 -12 119t-20 123q-21 -33 -32 -51q-21 -34 -21 -55h-32q1 14 9 28q4 8 17 25 q26 53 53 106l6 -6q11 -1 19 -17q5 -9 8.5 -50.5t9.5 -107.5q2 -10 14 -56t12 -51q0 -8 -10 -20q19 -4 52 -7t85 -3z" />
<glyph unicode="&#xba;" horiz-adv-x="304" d="M310 560q0 -46 -68 -72q-50 -19 -107 -19t-89 22q-38 26 -38 80q0 52 78 84q62 26 124 26q44 0 72 -37.5t28 -83.5zM291 566q0 24 -16 49q-11 17 -34 40q-3 -4 -13 -13l-8 -8q-3 14 -13 21t-24 7q-49 0 -100 -30q-58 -34 -58 -81q0 -36 40 -54q31 -14 73 -14q49 0 94 18 q59 24 59 65z" />
<glyph unicode="&#xbb;" horiz-adv-x="804" d="M754 424q-4 -10 -90 -112q-97 -116 -161 -189q-88 -100 -98 -106l-33 14q15 50 91 131q66 66 133.5 134.5t67.5 96.5q0 19 -17 38q-3 3 -23 15q-25 15 -51.5 31t-115 83t-92.5 69q-4 -5 -10 4.5t-10 25.5l12 13q9 0 95.5 -56.5t172.5 -112.5q102 -66 129 -79zM442 424 q-4 -10 -90 -112q-97 -116 -161 -189q-88 -100 -98 -106l-33 14q15 50 91 131q66 66 133.5 134.5t67.5 96.5q0 19 -17 38q-3 3 -23 15q-25 15 -51.5 31t-115 83t-92.5 69q-4 -5 -10 4.5t-10 25.5l12 13q9 0 95.5 -56.5t172.5 -112.5q102 -66 129 -79z" />
<glyph unicode="&#xbc;" horiz-adv-x="632" d="M596 149q-6 -3 -16 -4t-11 -1q-6 0 -19 1t-20 1q-18 0 -30.5 -7t-12.5 -24q0 -15 3 -31.5t6 -31.5q-9 1 -21 -5v16q0 36 -4 51q-7 28 -28 28q-35 0 -63 -2q-99 -7 -107 -7q3 13 14.5 28.5t17.5 23.5q37 40 56 63q28 33 49 67q7 12 12 19q9 12 17 12q16 0 27 -58t23 -121 q6 -6 23 -6q9 0 26 2t26 2q14 0 19 -2q8 -3 13 -14zM462 187q0 27 -6 52t-18 62q-30 -23 -64 -66.5t-48 -76.5q11 -2 27.5 -3t31.5 -1h16h16q23 0 31 4q14 7 14 29zM333 377q-6 -11 -24.5 -15.5t-47.5 -4.5q-19 0 -50 2t-37 2q-26 0 -66 -2.5t-46 -2.5q-15 0 -29 1t-28 4 q8 12 23.5 16.5t38.5 4.5q18 0 33 -1t29 -2q16 0 24.5 1.5t18.5 8.5l3 11q0 32 -12 119t-20 123q-21 -33 -32 -51q-21 -34 -21 -55h-32q1 14 9 28q4 8 17 25q26 53 53 106l6 -6q11 -1 19 -17q5 -9 8.5 -50.5t9.5 -107.5q2 -10 14 -56t12 -51q0 -8 -10 -20q19 -4 52 -7t85 -3 zM599 717q-5 -21 -16 -45q-7 -16 -24 -44q-46 -73 -105 -163q-54 -81 -107 -161q-57 -88 -103 -166q-26 -45 -51 -90q-15 -20 -32.5 -33.5t-36.5 -17.5q8 36 28 59q49 57 127 176q55 83 137 220q79 132 119 196q15 25 28 40q17 19 36 29z" />
<glyph unicode="&#xbd;" horiz-adv-x="628" d="M656 49q-20 -4 -45 -4q-15 0 -51 2t-37 2q-26 0 -63 -7q-85 -16 -107 -16q0 75 93.5 133.5t93.5 101.5q0 25 -13 43t-37 18q-23 0 -73 -23.5t-64 -23.5q13 30 51 47.5t77 17.5t61.5 -19t22.5 -59q0 -49 -82 -103q-91 -60 -103 -101l27 -3q20 0 41 4q58 11 70 11h90 q29 0 36.5 -4t11.5 -17zM331 382q-6 -11 -24.5 -15.5t-47.5 -4.5q-19 0 -50 2t-37 2q-26 0 -66 -2.5t-46 -2.5q-15 0 -29 1t-28 4q8 12 23.5 16.5t38.5 4.5q18 0 33 -1t29 -2q16 0 24.5 1.5t18.5 8.5l3 11q0 32 -12 119t-20 123q-21 -33 -32 -51q-21 -34 -21 -55h-32 q1 14 9 28q4 8 17 25q26 53 53 106l6 -6q11 -1 19 -17q5 -9 8.5 -50.5t9.5 -107.5q2 -10 14 -56t12 -51q0 -8 -10 -20q19 -4 52 -7t85 -3zM575 708q-5 -21 -16 -45q-7 -16 -24 -44q-46 -73 -105 -163q-54 -81 -107 -161q-57 -88 -103 -166q-26 -45 -51 -90 q-15 -20 -32.5 -33.5t-36.5 -17.5q8 36 28 59q49 57 127 176q55 83 137 220q79 132 119 196q15 25 28 40q17 19 36 29z" />
<glyph unicode="&#xbe;" horiz-adv-x="688" d="M684 149q-6 -3 -16 -4t-11 -1q-6 0 -19 1t-20 1q-18 0 -30.5 -7t-12.5 -24q0 -15 3 -31.5t6 -31.5q-9 1 -21 -5v16q0 36 -4 51q-7 28 -28 28q-35 0 -63 -2q-99 -7 -107 -7q3 13 14.5 28.5t17.5 23.5q37 40 56 63q28 33 49 67q7 12 12 19q9 12 17 12q16 0 27 -58t23 -121 q6 -6 23 -6q9 0 26 2t26 2q14 0 19 -2q8 -3 13 -14zM550 187q0 27 -6 52t-18 62q-30 -23 -64 -66.5t-48 -76.5q11 -2 27.5 -3t31.5 -1h16h16q23 0 31 4q14 7 14 29zM329 502q0 -64 -61 -96q-48 -25 -118 -25q-32 0 -48 5q-29 9 -29 32v7q24 -11 45 -19t51 -8q54 0 92 22 q48 28 48 78q0 62 -58 62q-21 0 -61 -12t-58 -12q-5 0 -17 4l-2 2l3 16q51 6 101 26q69 28 69 63q0 31 -37 43q-22 7 -62 7q-30 0 -98 -13q-31 -6 -43 -6q-16 0 -20 12q48 13 89 20.5t82 7.5q42 0 71 -15q38 -19 38 -57q0 -15 -7.5 -25t-39.5 -37q70 -16 70 -82zM612 723 q-5 -21 -16 -45q-7 -16 -24 -44q-46 -73 -105 -163q-54 -81 -107 -161q-57 -88 -103 -166q-26 -45 -51 -90q-15 -20 -32.5 -33.5t-36.5 -17.5q8 36 28 59q49 57 127 176q55 83 137 220q79 132 119 196q15 25 28 40q17 19 36 29z" />
<glyph unicode="&#xbf;" horiz-adv-x="540" d="M339 582l-6 -24q-5 -11 -22 -11q-7 0 -16 1.5t-14 2.5q6 25 9 30q9 16 26 16q8 0 10 -1q3 -2 13 -14zM389 90q0 -48 -83 -72q-59 -17 -124 -17q-55 0 -88.5 27t-33.5 82q0 61 55 110q21 19 102 68q56 34 56 58q0 7 -13 29q-9 15 -10 18q25 -4 44.5 -9.5t40.5 -11.5 q-6 -32 -171 -152q-73 -53 -73 -103q0 -41 27 -66t69 -25q46 0 105 26q48 21 95 55z" />
<glyph unicode="&#xc0;" horiz-adv-x="858" d="M827 34q0 -9 -3 -16.5t-8 -17.5q-28 24 -86 161q-44 103 -125 103q-29 0 -72 -8q-97 -18 -121 -18t-33.5 4.5t-29.5 21.5q48 23 154 27t154 26q-44 91 -98 168q-76 109 -135 129q-21 -72 -59 -158q-105 -239 -110 -252.5t-14 -52t-17 -62.5t-31 -39t-56 -19q20 56 58 128 q34 62 69.5 129t53.5 125q11 34 24 95q17 79 34 159l9 8q19 -14 28.5 -20t20.5 -9l11 10v11h10q16 0 88 -98q50 -69 128 -190q68 -106 72 -118q40 -99 62 -158t22 -69zM449 759q-3 -2 -14.5 -12t-18.5 -10q-24 0 -75 63q-28 35 -40 44l-106 84q4 8 9 17q4 4 22 4q13 0 28 -9 q10 -6 23 -19l44 -45q21 -19 49 -42q57 -47 79 -75z" />
<glyph unicode="&#xc1;" horiz-adv-x="858" d="M827 34q0 -9 -3 -16.5t-8 -17.5q-28 24 -86 161q-44 103 -125 103q-29 0 -72 -8q-97 -18 -121 -18t-33.5 4.5t-29.5 21.5q48 23 154 27t154 26q-44 91 -98 168q-76 109 -135 129q-21 -72 -59 -158q-105 -239 -110 -252.5t-14 -52t-17 -62.5t-31 -39t-56 -19q20 56 58 128 q34 62 69.5 129t53.5 125q11 34 24 95q17 79 34 159l9 8q19 -14 28.5 -20t20.5 -9l11 10v11h10q16 0 88 -98q50 -69 128 -190q68 -106 72 -118q40 -99 62 -158t22 -69zM586 878q-76 -56 -87 -66q-47 -40 -73 -82l-5 12q-4 11 -4 25q0 37 29.5 71.5t67.5 47.5q17 6 33 6 q24 0 39 -14z" />
<glyph unicode="&#xc2;" horiz-adv-x="858" d="M827 34q0 -9 -3 -16.5t-8 -17.5q-28 24 -86 161q-44 103 -125 103q-29 0 -72 -8q-97 -18 -121 -18t-33.5 4.5t-29.5 21.5q48 23 154 27t154 26q-44 91 -98 168q-76 109 -135 129q-21 -72 -59 -158q-105 -239 -110 -252.5t-14 -52t-17 -62.5t-31 -39t-56 -19q20 56 58 128 q34 62 69.5 129t53.5 125q11 34 24 95q17 79 34 159l9 8q19 -14 28.5 -20t20.5 -9l11 10v11h10q16 0 88 -98q50 -69 128 -190q68 -106 72 -118q40 -99 62 -158t22 -69zM558 718l-8 -17q-39 16 -100 89q-57 69 -110 84q-26 -49 -51 -97q-2 -5 -6 -22.5t-8.5 -30.5t-13.5 -23 t-22 -14q-2 7 -2 21q0 25 30.5 98t48.5 87q11 9 25 9q44 0 122 -75q59 -56 95 -109z" />
<glyph unicode="&#xc3;" horiz-adv-x="858" d="M827 34q0 -9 -3 -16.5t-8 -17.5q-28 24 -86 161q-44 103 -125 103q-29 0 -72 -8q-97 -18 -121 -18t-33.5 4.5t-29.5 21.5q48 23 154 27t154 26q-44 91 -98 168q-76 109 -135 129q-21 -72 -59 -158q-105 -239 -110 -252.5t-14 -52t-17 -62.5t-31 -39t-56 -19q20 56 58 128 q34 62 69.5 129t53.5 125q11 34 24 95q17 79 34 159l9 8q19 -14 28.5 -20t20.5 -9l11 10v11h10q16 0 88 -98q50 -69 128 -190q68 -106 72 -118q40 -99 62 -158t22 -69zM603 771q-15 -15 -42 -23.5t-53 -8.5q-48 0 -85.5 36.5t-67.5 36.5q-18 0 -81 -21q-30 -10 -51 -10 q11 19 62.5 34.5t82.5 15.5q25 0 62 -36t77 -36q21 0 44 7q38 11 41 12q8 -2 11 -7z" />
<glyph unicode="&#xc4;" horiz-adv-x="858" d="M827 34q0 -9 -3 -16.5t-8 -17.5q-28 24 -86 161q-44 103 -125 103q-29 0 -72 -8q-97 -18 -121 -18t-33.5 4.5t-29.5 21.5q48 23 154 27t154 26q-44 91 -98 168q-76 109 -135 129q-21 -72 -59 -158q-105 -239 -110 -252.5t-14 -52t-17 -62.5t-31 -39t-56 -19q20 56 58 128 q34 62 69.5 129t53.5 125q11 34 24 95q17 79 34 159l9 8q19 -14 28.5 -20t20.5 -9l11 10v11h10q16 0 88 -98q50 -69 128 -190q68 -106 72 -118q40 -99 62 -158t22 -69zM595 830q0 -30 -32 -59t-62 -29q-28 0 -49 12q-26 15 -26 41q0 35 43 59q29 16 75 26q17 -9 35 -17 q16 -10 16 -33zM407 834q0 -30 -32 -59t-62 -29q-28 0 -49 12q-26 15 -26 41q0 35 43 59q29 16 75 26q17 -9 35 -17q16 -10 16 -33z" />
<glyph unicode="&#xc5;" horiz-adv-x="858" d="M827 34q0 -9 -3 -16.5t-8 -17.5q-28 24 -86 161q-44 103 -125 103q-29 0 -72 -8q-97 -18 -121 -18t-33.5 4.5t-29.5 21.5q48 23 154 27t154 26q-44 91 -98 168q-76 109 -135 129q-21 -72 -59 -158q-105 -239 -110 -252.5t-14 -52t-17 -62.5t-31 -39t-56 -19q20 56 58 128 q34 62 69.5 129t53.5 125q11 34 24 95q17 79 34 159l9 8q19 -14 28.5 -20t20.5 -9l11 10v11h10q16 0 88 -98q50 -69 128 -190q68 -106 72 -118q40 -99 62 -158t22 -69zM585 830q0 -44 -63 -67q-46 -17 -99 -17q-54 0 -83 19q-35 23 -35 74q0 48 72 78q59 24 116 24 q40 0 66 -34.5t26 -76.5zM567 835q0 21 -15 45q-10 16 -31 38l-19 -20q-5 26 -35 26q-45 0 -92 -28q-53 -32 -53 -75q0 -33 37 -50q29 -13 67 -13q44 0 86 17q55 22 55 60z" />
<glyph unicode="&#xc6;" horiz-adv-x="1143" d="M1146 76q0 -32 -24 -45q-19 -10 -54 -10q-21 0 -51 3q-69 7 -86 7q-40 0 -95 -13q-123 -29 -156 -29l-24 1q13 47 19.5 94t6.5 100v15q-12 32 -31 47q-23 18 -62 18q-30 0 -74 -8q-100 -18 -124 -18t-33 4.5t-25 21.5q53 23 160 27t160 26q-24 89 -63 168 q-53 109 -107 129q-35 -69 -93 -158q-154 -235 -165 -255l-52 -108q-15 -28 -41 -43t-60 -19q31 56 85 128l94 124q53 73 83 130q25 47 58 127q39 94 54 127l11 8q5 -3 15 -12q16 -14 28 -17l13 10l2 11h10q11 0 34 -38q18 -30 50 -94q2 18 7 33.5t18 34.5q78 -13 163 -13 q111 0 219 24l53 -22q-14 -21 -23 -29t-30 -16q-27 10 -40 15q-26 10 -43 10q-53 0 -111 -6q-155 -16 -188 -16q13 -18 59 -147q34 -97 76 -97q29 0 90 16t93 16h18q4 0 19 -4l6 -27q-42 -14 -165 -24q-77 -6 -98 -54q15 -88 20 -115q12 -72 11 -80q27 0 157 17q67 9 115 9 q34 0 61 10.5t47 35.5zM723 31l-5 11l1 -11h4z" />
<glyph unicode="&#xc7;" horiz-adv-x="783" d="M752 63q-37 -36 -89 -54.5t-107 -18.5q10 -10 16 -24.5t6 -25.5q0 -50 -67 -96.5t-139 -52.5q77 53 116.5 81t39.5 55q0 18 -17 37t-18 27q-172 0 -264 92t-92 276q0 175 95 257q90 78 267 78q64 0 102 -24q46 -29 46 -90q0 -50 -43 -72q0 75 -20 107q-26 41 -97 41 q-168 0 -236 -85q-61 -76 -61 -249q0 -168 100 -235q83 -56 261 -56q32 0 89.5 21.5t76.5 21.5q6 0 18 -4q3 -1 17 -7z" />
<glyph unicode="&#xc8;" horiz-adv-x="710" d="M681 76q0 -32 -24 -45q-19 -10 -54 -10q-21 0 -51 3q-69 7 -86 7q-40 0 -95 -13q-123 -29 -156 -29l-24 1q13 47 19.5 94t6.5 100q0 52 -7 108t-19 110q-2 8 -34 75q-13 27 -13 43q0 26 4 42t21 41q78 -13 163 -13q111 0 219 24l53 -22q-14 -21 -23 -29t-30 -16 q-27 10 -40 15q-26 10 -43 10q-53 0 -111 -6q-155 -16 -188 -16q13 -18 59 -147q34 -97 76 -97q29 0 90 16t93 16h18q4 0 19 -4l6 -27q-48 -16 -133 -21t-110 -30q-35 -35 -35 -146l2 -79q36 0 183 19q78 10 133 10q34 0 61 10.5t47 35.5zM429 699q-3 -2 -14.5 -12 t-18.5 -10q-24 0 -75 63q-28 35 -40 44l-106 84q4 8 9 17q4 4 22 4q13 0 28 -9q10 -6 23 -19l44 -45q21 -19 49 -42q57 -47 79 -75z" />
<glyph unicode="&#xc9;" horiz-adv-x="710" d="M681 76q0 -32 -24 -45q-19 -10 -54 -10q-21 0 -51 3q-69 7 -86 7q-40 0 -95 -13q-123 -29 -156 -29l-24 1q13 47 19.5 94t6.5 100q0 52 -7 108t-19 110q-2 8 -34 75q-13 27 -13 43q0 26 4 42t21 41q78 -13 163 -13q111 0 219 24l53 -22q-14 -21 -23 -29t-30 -16 q-27 10 -40 15q-26 10 -43 10q-53 0 -111 -6q-155 -16 -188 -16q13 -18 59 -147q34 -97 76 -97q29 0 90 16t93 16h18q4 0 19 -4l6 -27q-48 -16 -133 -21t-110 -30q-35 -35 -35 -146l2 -79q36 0 183 19q78 10 133 10q34 0 61 10.5t47 35.5zM520 823q-76 -56 -87 -66 q-47 -40 -73 -82l-5 12q-4 11 -4 25q0 37 29.5 71.5t67.5 47.5q17 6 33 6q24 0 39 -14z" />
<glyph unicode="&#xca;" horiz-adv-x="710" d="M681 76q0 -32 -24 -45q-19 -10 -54 -10q-21 0 -51 3q-69 7 -86 7q-40 0 -95 -13q-123 -29 -156 -29l-24 1q13 47 19.5 94t6.5 100q0 52 -7 108t-19 110q-2 8 -34 75q-13 27 -13 43q0 26 4 42t21 41q78 -13 163 -13q111 0 219 24l53 -22q-14 -21 -23 -29t-30 -16 q-27 10 -40 15q-26 10 -43 10q-53 0 -111 -6q-155 -16 -188 -16q13 -18 59 -147q34 -97 76 -97q29 0 90 16t93 16h18q4 0 19 -4l6 -27q-48 -16 -133 -21t-110 -30q-35 -35 -35 -146l2 -79q36 0 183 19q78 10 133 10q34 0 61 10.5t47 35.5zM552 703l-8 -17q-39 16 -100 89 q-57 69 -110 84q-26 -49 -51 -97q-2 -5 -6 -22.5t-8.5 -30.5t-13.5 -23t-22 -14q-2 7 -2 21q0 25 30.5 98t48.5 87q11 9 25 9q44 0 122 -75q59 -56 95 -109z" />
<glyph unicode="&#xcb;" horiz-adv-x="710" d="M681 76q0 -32 -24 -45q-19 -10 -54 -10q-21 0 -51 3q-69 7 -86 7q-40 0 -95 -13q-123 -29 -156 -29l-24 1q13 47 19.5 94t6.5 100q0 52 -7 108t-19 110q-2 8 -34 75q-13 27 -13 43q0 26 4 42t21 41q78 -13 163 -13q111 0 219 24l53 -22q-14 -21 -23 -29t-30 -16 q-27 10 -40 15q-26 10 -43 10q-53 0 -111 -6q-155 -16 -188 -16q13 -18 59 -147q34 -97 76 -97q29 0 90 16t93 16h18q4 0 19 -4l6 -27q-48 -16 -133 -21t-110 -30q-35 -35 -35 -146l2 -79q36 0 183 19q78 10 133 10q34 0 61 10.5t47 35.5zM549 770q0 -30 -32 -59t-62 -29 q-28 0 -49 12q-26 15 -26 41q0 35 43 59q29 16 75 26q17 -9 35 -17q16 -10 16 -33zM361 774q0 -30 -32 -59t-62 -29q-28 0 -49 12q-26 15 -26 41q0 35 43 59q29 16 75 26q17 -9 35 -17q16 -10 16 -33z" />
<glyph unicode="&#xcc;" horiz-adv-x="1081" d="M1070 74q-15 -14 -26 -18.5t-26 -4.5q-19 1 -32 1q-111 0 -258.5 -14.5t-297.5 -29t-239 -14.5q-6 0 -15 2t-17 4l-22 20q36 13 165 21t181 21q89 22 89 76q0 51 -15.5 245.5t-23.5 217.5l-23 11q-45 0 -105 -11q-141 -26 -178 -26q-43 0 -59 6t-31 22q77 17 309.5 45.5 t301.5 28.5q37 0 68 -10q-13 -30 -22 -41q-16 -21 -40 -21q-15 0 -40 15t-36 15q-24 0 -45 -5t-51 -16q11 -45 16.5 -156.5t11.5 -214.5t20 -134q9 -18 28 -26.5t41 -8.5q57 0 225 14q84 7 135 7q2 -8 11 -21zM569 764q-3 -2 -14.5 -12t-18.5 -10q-24 0 -75 63 q-28 35 -40 44l-106 84q4 8 9 17q4 4 22 4q13 0 28 -9q10 -6 23 -19l44 -45q21 -19 49 -42q57 -47 79 -75z" />
<glyph unicode="&#xcd;" horiz-adv-x="1081" d="M1070 74q-15 -14 -26 -18.5t-26 -4.5q-19 1 -32 1q-111 0 -258.5 -14.5t-297.5 -29t-239 -14.5q-6 0 -15 2t-17 4l-22 20q36 13 165 21t181 21q89 22 89 76q0 51 -15.5 245.5t-23.5 217.5l-23 11q-45 0 -105 -11q-141 -26 -178 -26q-43 0 -59 6t-31 22q77 17 309.5 45.5 t301.5 28.5q37 0 68 -10q-13 -30 -22 -41q-16 -21 -40 -21q-15 0 -40 15t-36 15q-24 0 -45 -5t-51 -16q11 -45 16.5 -156.5t11.5 -214.5t20 -134q9 -18 28 -26.5t41 -8.5q57 0 225 14q84 7 135 7q2 -8 11 -21zM688 883q-76 -56 -87 -66q-47 -40 -73 -82l-5 12q-4 11 -4 25 q0 37 29.5 71.5t67.5 47.5q17 6 33 6q24 0 39 -14z" />
<glyph unicode="&#xce;" horiz-adv-x="1081" d="M1070 74q-15 -14 -26 -18.5t-26 -4.5q-19 1 -32 1q-111 0 -258.5 -14.5t-297.5 -29t-239 -14.5q-6 0 -15 2t-17 4l-22 20q36 13 165 21t181 21q89 22 89 76q0 51 -15.5 245.5t-23.5 217.5l-23 11q-45 0 -105 -11q-141 -26 -178 -26q-43 0 -59 6t-31 22q77 17 309.5 45.5 t301.5 28.5q37 0 68 -10q-13 -30 -22 -41q-16 -21 -40 -21q-15 0 -40 15t-36 15q-24 0 -45 -5t-51 -16q11 -45 16.5 -156.5t11.5 -214.5t20 -134q9 -18 28 -26.5t41 -8.5q57 0 225 14q84 7 135 7q2 -8 11 -21zM695 758l-8 -17q-39 16 -100 89q-57 69 -110 84 q-26 -49 -51 -97q-2 -5 -6 -22.5t-8.5 -30.5t-13.5 -23t-22 -14q-2 7 -2 21q0 25 30.5 98t48.5 87q11 9 25 9q44 0 122 -75q59 -56 95 -109z" />
<glyph unicode="&#xcf;" horiz-adv-x="1081" d="M1070 74q-15 -14 -26 -18.5t-26 -4.5q-19 1 -32 1q-111 0 -258.5 -14.5t-297.5 -29t-239 -14.5q-6 0 -15 2t-17 4l-22 20q36 13 165 21t181 21q89 22 89 76q0 51 -15.5 245.5t-23.5 217.5l-23 11q-45 0 -105 -11q-141 -26 -178 -26q-43 0 -59 6t-31 22q77 17 309.5 45.5 t301.5 28.5q37 0 68 -10q-13 -30 -22 -41q-16 -21 -40 -21q-15 0 -40 15t-36 15q-24 0 -45 -5t-51 -16q11 -45 16.5 -156.5t11.5 -214.5t20 -134q9 -18 28 -26.5t41 -8.5q57 0 225 14q84 7 135 7q2 -8 11 -21zM732 820q0 -30 -32 -59t-62 -29q-28 0 -49 12q-26 15 -26 41 q0 35 43 59q29 16 75 26q17 -9 35 -17q16 -10 16 -33zM544 824q0 -30 -32 -59t-62 -29q-28 0 -49 12q-26 15 -26 41q0 35 43 59q29 16 75 26q17 -9 35 -17q16 -10 16 -33z" />
<glyph unicode="&#xd0;" horiz-adv-x="848" d="M816 307q0 -172 -132 -248q-106 -61 -290 -61q-68 0 -103 8q-65 15 -79 57l16 1q27 0 65 -10q87 -23 109 -23q164 0 258 55q118 69 118 223q0 147 -99.5 238.5t-247.5 91.5q-83 0 -181 -25q-34 -9 -176 -54q24 68 129 93q63 15 170 15q202 0 312 -75q131 -89 131 -286z M555 393h-135q25 -136 25 -197q0 -26 -9 -39.5t-34 -19.5q0 64 -5 126.5t-17 129.5h-37q-16 0 -47 -5t-47 -5q-37 0 -54 31q89 20 177 20l-11 42q-3 13 -23.5 57t-20.5 56q0 16 16 28q22 0 44 -55q18 -45 35 -127h90q12 0 23.5 -0.5t24.5 -3.5q5 -15 5 -38z" />
<glyph unicode="&#xd1;" horiz-adv-x="794" d="M774 126q-10 -32 -23 -49.5t-41 -34.5q-29 128 -41 262.5t-12 287.5q0 20 -6.5 60t-6.5 51q0 27 5 43t14 16h25v-73q0 -127 5.5 -241.5t21.5 -198.5q21 -108 59 -123zM655 118q0 -14 -12.5 -22t-28.5 -12q-22 64 -117 206q-51 77 -163 232q-85 118 -86 129l10 13 q15 -2 27 -10q5 -3 22 -19q21 -20 108 -143q78 -111 159 -235t81 -139zM218 141q0 -50 -6 -75q-11 -47 -43 -56q-6 28 -8.5 55.5t-2.5 64.5q0 45 7 134t7 134q0 33 -9 83q-20 111 -20 137q0 20 3.5 36t11.5 33q22 -27 37 -147q12 -92 17.5 -214t5.5 -185zM625 846 q-15 -15 -42 -23.5t-53 -8.5q-48 0 -85.5 36.5t-67.5 36.5q-18 0 -81 -21q-30 -10 -51 -10q11 19 62.5 34.5t82.5 15.5q25 0 62 -36t77 -36q21 0 44 7q38 11 41 12q8 -2 11 -7z" />
<glyph unicode="&#xd2;" d="M835 277q0 -141 -114 -214q-97 -62 -246 -62q-146 0 -240 81q-100 86 -100 231q0 143 114.5 248.5t260.5 105.5q36 0 78 -34q20 -17 41 -34q102 -75 146 -134q60 -82 60 -188zM806 259q0 104 -66 189q-57 74 -158 128q-8 5 -36 33q-22 23 -42 23q-126 0 -226 -86.5 t-100 -209.5q0 -127 85.5 -216t212.5 -89q118 0 214 54q116 65 116 174zM524 769q-3 -2 -14.5 -12t-18.5 -10q-24 0 -75 63q-28 35 -40 44l-106 84q4 8 9 17q4 4 22 4q13 0 28 -9q10 -6 23 -19l44 -45q21 -19 49 -42q57 -47 79 -75z" />
<glyph unicode="&#xd3;" d="M835 277q0 -141 -114 -214q-97 -62 -246 -62q-146 0 -240 81q-100 86 -100 231q0 143 114.5 248.5t260.5 105.5q36 0 78 -34q20 -17 41 -34q102 -75 146 -134q60 -82 60 -188zM806 259q0 104 -66 189q-57 74 -158 128q-8 5 -36 33q-22 23 -42 23q-126 0 -226 -86.5 t-100 -209.5q0 -127 85.5 -216t212.5 -89q118 0 214 54q116 65 116 174zM644 893q-76 -56 -87 -66q-47 -40 -73 -82l-5 12q-4 11 -4 25q0 37 29.5 71.5t67.5 47.5q17 6 33 6q24 0 39 -14z" />
<glyph unicode="&#xd4;" d="M835 277q0 -141 -114 -214q-97 -62 -246 -62q-146 0 -240 81q-100 86 -100 231q0 143 114.5 248.5t260.5 105.5q36 0 78 -34q20 -17 41 -34q102 -75 146 -134q60 -82 60 -188zM806 259q0 104 -66 189q-57 74 -158 128q-8 5 -36 33q-22 23 -42 23q-126 0 -226 -86.5 t-100 -209.5q0 -127 85.5 -216t212.5 -89q118 0 214 54q116 65 116 174zM616 753l-8 -17q-39 16 -100 89q-57 69 -110 84q-26 -49 -51 -97q-2 -5 -6 -22.5t-8.5 -30.5t-13.5 -23t-22 -14q-2 7 -2 21q0 25 30.5 98t48.5 87q11 9 25 9q44 0 122 -75q59 -56 95 -109z" />
<glyph unicode="&#xd5;" d="M835 277q0 -141 -114 -214q-97 -62 -246 -62q-146 0 -240 81q-100 86 -100 231q0 143 114.5 248.5t260.5 105.5q36 0 78 -34q20 -17 41 -34q102 -75 146 -134q60 -82 60 -188zM806 259q0 104 -66 189q-57 74 -158 128q-8 5 -36 33q-22 23 -42 23q-126 0 -226 -86.5 t-100 -209.5q0 -127 85.5 -216t212.5 -89q118 0 214 54q116 65 116 174zM666 776q-15 -15 -42 -23.5t-53 -8.5q-48 0 -85.5 36.5t-67.5 36.5q-18 0 -81 -21q-30 -10 -51 -10q11 19 62.5 34.5t82.5 15.5q25 0 62 -36t77 -36q21 0 44 7q38 11 41 12q8 -2 11 -7z" />
<glyph unicode="&#xd6;" d="M835 277q0 -141 -114 -214q-97 -62 -246 -62q-146 0 -240 81q-100 86 -100 231q0 143 114.5 248.5t260.5 105.5q36 0 78 -34q20 -17 41 -34q102 -75 146 -134q60 -82 60 -188zM806 259q0 104 -66 189q-57 74 -158 128q-8 5 -36 33q-22 23 -42 23q-126 0 -226 -86.5 t-100 -209.5q0 -127 85.5 -216t212.5 -89q118 0 214 54q116 65 116 174zM698 835q0 -30 -32 -59t-62 -29q-28 0 -49 12q-26 15 -26 41q0 35 43 59q29 16 75 26q17 -9 35 -17q16 -10 16 -33zM510 839q0 -30 -32 -59t-62 -29q-28 0 -49 12q-26 15 -26 41q0 35 43 59 q29 16 75 26q17 -9 35 -17q16 -10 16 -33z" />
<glyph unicode="&#xd7;" horiz-adv-x="508" d="M444 141q-79 62 -120 94q-45 35 -72 35q-20 0 -34 -14t-38 -50t-40 -52q-12 -12 -26 -19.5t-30 -7.5q14 30 31 55q7 11 65 85q17 23 17 46q0 30 -76 126q-34 43 -30 69q21 -12 42 -34q30 -35 60 -69l22 -22q18 -17 32 -17q16 0 39 23q11 10 24.5 37t23.5 37q6 6 17.5 8 t13.5 2q6 0 18 -2q-27 -31 -41 -48q-48 -57 -48 -93q0 -26 22 -48q12 -12 47.5 -37t50.5 -40t22.5 -30t7.5 -34z" />
<glyph unicode="&#xd8;" d="M835 277q0 -141 -114 -214q-97 -62 -246 -62q-91 0 -166 35q-16 -17 -34 -28.5t-35 -14.5q8 36 31 59l2 2q-65 40 -100 104q-38 69 -38 155q0 143 114.5 248.5t260.5 105.5q36 0 78 -34q20 -17 41 -34l25 -19l45 66q15 24 32.5 42t38.5 27q-6 -22 -17 -44t-27 -44 l-47 -66q78 -63 112 -119q44 -72 44 -165zM806 259q0 83 -42 154q-37 62 -108 116q-32 -45 -95 -131q-58 -79 -95 -131q-58 -82 -93 -134l-41 -66q33 -18 68 -27t76 -9q118 0 214 54q116 65 116 174zM632 546l-50 30q-8 5 -36 33q-22 23 -42 23q-126 0 -226 -86.5 t-100 -209.5q0 -78 32.5 -142.5t91.5 -107.5q45 53 107 137q39 54 114 163q59 87 109 160z" />
<glyph unicode="&#xd9;" horiz-adv-x="880" d="M853 350q0 -165 -105 -259q-101 -90 -269 -90q-125 0 -192 44q-60 40 -90 124q-20 57 -39 190q-8 53 -12 87.5t-4 70.5q0 55 11 88q16 49 59 62q0 -22 -14 -86q-7 -32 -7 -52q0 -150 11 -221q19 -123 75 -187q69 -79 199 -79q148 0 234 66q97 74 97 217q0 55 -24 134 q-52 172 -52 208q0 21 12 30q32 -13 73 -159q37 -133 37 -188zM544 769q-3 -2 -14.5 -12t-18.5 -10q-24 0 -75 63q-28 35 -40 44l-106 84q4 8 9 17q4 4 22 4q13 0 28 -9q10 -6 23 -19l44 -45q21 -19 49 -42q57 -47 79 -75z" />
<glyph unicode="&#xda;" horiz-adv-x="880" d="M853 350q0 -165 -105 -259q-101 -90 -269 -90q-125 0 -192 44q-60 40 -90 124q-20 57 -39 190q-8 53 -12 87.5t-4 70.5q0 55 11 88q16 49 59 62q0 -22 -14 -86q-7 -32 -7 -52q0 -150 11 -221q19 -123 75 -187q69 -79 199 -79q148 0 234 66q97 74 97 217q0 55 -24 134 q-52 172 -52 208q0 21 12 30q32 -13 73 -159q37 -133 37 -188zM618 893q-76 -56 -87 -66q-47 -40 -73 -82l-5 12q-4 11 -4 25q0 37 29.5 71.5t67.5 47.5q17 6 33 6q24 0 39 -14z" />
<glyph unicode="&#xdb;" horiz-adv-x="880" d="M853 350q0 -165 -105 -259q-101 -90 -269 -90q-125 0 -192 44q-60 40 -90 124q-20 57 -39 190q-8 53 -12 87.5t-4 70.5q0 55 11 88q16 49 59 62q0 -22 -14 -86q-7 -32 -7 -52q0 -150 11 -221q19 -123 75 -187q69 -79 199 -79q148 0 234 66q97 74 97 217q0 55 -24 134 q-52 172 -52 208q0 21 12 30q32 -13 73 -159q37 -133 37 -188zM615 773l-8 -17q-39 16 -100 89q-57 69 -110 84q-26 -49 -51 -97q-2 -5 -6 -22.5t-8.5 -30.5t-13.5 -23t-22 -14q-2 7 -2 21q0 25 30.5 98t48.5 87q11 9 25 9q44 0 122 -75q59 -56 95 -109z" />
<glyph unicode="&#xdc;" horiz-adv-x="880" d="M853 350q0 -165 -105 -259q-101 -90 -269 -90q-125 0 -192 44q-60 40 -90 124q-20 57 -39 190q-8 53 -12 87.5t-4 70.5q0 55 11 88q16 49 59 62q0 -22 -14 -86q-7 -32 -7 -52q0 -150 11 -221q19 -123 75 -187q69 -79 199 -79q148 0 234 66q97 74 97 217q0 55 -24 134 q-52 172 -52 208q0 21 12 30q32 -13 73 -159q37 -133 37 -188zM662 835q0 -30 -32 -59t-62 -29q-28 0 -49 12q-26 15 -26 41q0 35 43 59q29 16 75 26q17 -9 35 -17q16 -10 16 -33zM474 839q0 -30 -32 -59t-62 -29q-28 0 -49 12q-26 15 -26 41q0 35 43 59q29 16 75 26 q17 -9 35 -17q16 -10 16 -33z" />
<glyph unicode="&#xdd;" horiz-adv-x="476" d="M561 741q-25 -54 -88 -120q-75 -79 -94 -107q-44 -66 -44 -145q0 -51 15 -120q35 -160 35 -184q0 -49 -47 -65q-4 26 -16 134t-21 163q-14 81 -34 138.5t-86.5 129.5t-74.5 102q36 -7 101 -81t90 -74q24 0 66 59q70 99 81 111q54 60 104 60zM497 893q-76 -56 -87 -66 q-47 -40 -73 -82l-5 12q-4 11 -4 25q0 37 29.5 71.5t67.5 47.5q17 6 33 6q24 0 39 -14z" />
<glyph unicode="&#xde;" horiz-adv-x="636" d="M667 394q0 -82 -71 -126q-42 -26 -141.5 -49t-123.5 -43q-4 -12 -7 -23q0 -12 4 -33q9 -47 9 -61q0 -45 -41 -59q0 78 -13 149.5t-39.5 161t-53.5 178.5q-14 -2 -27 -3l-26 3q20 23 47 42q0 36 -25 96q-12 29 -12 57q0 9 6 15.5t31 21.5q9 -29 19.5 -83t17.5 -84 q46 26 100.5 39.5t108.5 13.5q106 0 169 -52q68 -56 68 -161zM627 396q0 88 -58 133q-53 41 -143 41q-59 0 -110 -12q-80 -19 -80 -58q0 -9 8 -30.5t10.5 -29t12.5 -51.5t18 -90q4 -24 14 -37.5t30 -20.5q9 -3 23.5 -5t38.5 -2q73 0 149 44q87 51 87 118z" />
<glyph unicode="&#xdf;" horiz-adv-x="688" d="M668 232q0 -74 -25 -115q-35 -57 -116 -57q-42 0 -57.5 3t-61.5 21q13 19 21 43q41 -12 59.5 -15.5t54.5 -3.5q39 0 60.5 27t21.5 87q0 54 -30 79t-86 25q-17 13 -43 29t-37 26q74 33 119 73q56 50 56 106q0 57 -41 84q-35 23 -96 23q-98 0 -147 -21q-41 -17 -41 -47 q0 -79 8 -133t50 -216q7 -29 24.5 -130.5t17.5 -124.5q0 -47 -48 -55q0 79 -26.5 207.5t-53.5 259.5t-27 204q0 54 71 77q49 16 129 16q26 0 37 -0.5t21 -2.5q68 0 112 -29q52 -35 52 -101q0 -55 -47 -108q-14 -16 -91 -82q108 -24 134 -55.5t26 -93.5z" />
<glyph unicode="&#xe0;" horiz-adv-x="434" d="M441 233q0 -43 -6 -68q-9 -38 -33 -59q-19 85 -33 108q-30 48 -101 48q-58 0 -116 -39q-65 -43 -65 -98q0 -45 41 -71q36 -23 84 -23q29 0 85 12.5t81 12.5q6 -3 8.5 -14.5t5.5 -21.5q-50 -10 -87.5 -14.5t-82.5 -4.5q-72 0 -115 18q-63 26 -63 88q0 84 61 133.5 t147 49.5q66 0 129 -26q3 14 5.5 27t2.5 28q0 42 -26.5 71.5t-68.5 29.5q-27 0 -60.5 -10t-64.5 -19q15 32 47.5 48.5t70.5 16.5q85 0 124 -73q30 -57 30 -150zM324 536q-3 -2 -14.5 -12t-18.5 -10q-24 0 -75 63q-28 35 -40 44l-106 84q4 8 9 17q4 4 22 4q13 0 28 -9 q10 -6 23 -19l44 -45q21 -19 49 -42q57 -47 79 -75z" />
<glyph unicode="&#xe1;" horiz-adv-x="434" d="M441 233q0 -43 -6 -68q-9 -38 -33 -59q-19 85 -33 108q-30 48 -101 48q-58 0 -116 -39q-65 -43 -65 -98q0 -45 41 -71q36 -23 84 -23q29 0 85 12.5t81 12.5q6 -3 8.5 -14.5t5.5 -21.5q-50 -10 -87.5 -14.5t-82.5 -4.5q-72 0 -115 18q-63 26 -63 88q0 84 61 133.5 t147 49.5q66 0 129 -26q3 14 5.5 27t2.5 28q0 42 -26.5 71.5t-68.5 29.5q-27 0 -60.5 -10t-64.5 -19q15 32 47.5 48.5t70.5 16.5q85 0 124 -73q30 -57 30 -150zM435 661q-76 -56 -87 -66q-47 -40 -73 -82l-5 12q-4 11 -4 25q0 37 29.5 71.5t67.5 47.5q17 6 33 6q24 0 39 -14 z" />
<glyph unicode="&#xe2;" horiz-adv-x="434" d="M441 233q0 -43 -6 -68q-9 -38 -33 -59q-19 85 -33 108q-30 48 -101 48q-58 0 -116 -39q-65 -43 -65 -98q0 -45 41 -71q36 -23 84 -23q29 0 85 12.5t81 12.5q6 -3 8.5 -14.5t5.5 -21.5q-50 -10 -87.5 -14.5t-82.5 -4.5q-72 0 -115 18q-63 26 -63 88q0 84 61 133.5 t147 49.5q66 0 129 -26q3 14 5.5 27t2.5 28q0 42 -26.5 71.5t-68.5 29.5q-27 0 -60.5 -10t-64.5 -19q15 32 47.5 48.5t70.5 16.5q85 0 124 -73q30 -57 30 -150zM467 529l-8 -17q-39 16 -100 89q-57 69 -110 84q-26 -49 -51 -97q-2 -5 -6 -22.5t-8.5 -30.5t-13.5 -23t-22 -14 q-2 7 -2 21q0 25 30.5 98t48.5 87q11 9 25 9q44 0 122 -75q59 -56 95 -109z" />
<glyph unicode="&#xe3;" horiz-adv-x="434" d="M441 233q0 -43 -6 -68q-9 -38 -33 -59q-19 85 -33 108q-30 48 -101 48q-58 0 -116 -39q-65 -43 -65 -98q0 -45 41 -71q36 -23 84 -23q29 0 85 12.5t81 12.5q6 -3 8.5 -14.5t5.5 -21.5q-50 -10 -87.5 -14.5t-82.5 -4.5q-72 0 -115 18q-63 26 -63 88q0 84 61 133.5 t147 49.5q66 0 129 -26q3 14 5.5 27t2.5 28q0 42 -26.5 71.5t-68.5 29.5q-27 0 -60.5 -10t-64.5 -19q15 32 47.5 48.5t70.5 16.5q85 0 124 -73q30 -57 30 -150zM481 543q-15 -15 -42 -23.5t-53 -8.5q-48 0 -85.5 36.5t-67.5 36.5q-18 0 -81 -21q-30 -10 -51 -10 q11 19 62.5 34.5t82.5 15.5q25 0 62 -36t77 -36q21 0 44 7q38 11 41 12q8 -2 11 -7z" />
<glyph unicode="&#xe4;" horiz-adv-x="434" d="M441 233q0 -43 -6 -68q-9 -38 -33 -59q-19 85 -33 108q-30 48 -101 48q-58 0 -116 -39q-65 -43 -65 -98q0 -45 41 -71q36 -23 84 -23q29 0 85 12.5t81 12.5q6 -3 8.5 -14.5t5.5 -21.5q-50 -10 -87.5 -14.5t-82.5 -4.5q-72 0 -115 18q-63 26 -63 88q0 84 61 133.5 t147 49.5q66 0 129 -26q3 14 5.5 27t2.5 28q0 42 -26.5 71.5t-68.5 29.5q-27 0 -60.5 -10t-64.5 -19q15 32 47.5 48.5t70.5 16.5q85 0 124 -73q30 -57 30 -150zM496 591q0 -30 -32 -59t-62 -29q-28 0 -49 12q-26 15 -26 41q0 35 43 59q29 16 75 26q17 -9 35 -17 q16 -10 16 -33zM308 595q0 -30 -32 -59t-62 -29q-28 0 -49 12q-26 15 -26 41q0 35 43 59q29 16 75 26q17 -9 35 -17q16 -10 16 -33z" />
<glyph unicode="&#xe5;" horiz-adv-x="434" d="M441 233q0 -43 -6 -68q-9 -38 -33 -59q-19 85 -33 108q-30 48 -101 48q-58 0 -116 -39q-65 -43 -65 -98q0 -45 41 -71q36 -23 84 -23q29 0 85 12.5t81 12.5q6 -3 8.5 -14.5t5.5 -21.5q-50 -10 -87.5 -14.5t-82.5 -4.5q-72 0 -115 18q-63 26 -63 88q0 84 61 133.5 t147 49.5q66 0 129 -26q3 14 5.5 27t2.5 28q0 42 -26.5 71.5t-68.5 29.5q-27 0 -60.5 -10t-64.5 -19q15 32 47.5 48.5t70.5 16.5q85 0 124 -73q30 -57 30 -150zM474 595q0 -44 -63 -67q-46 -17 -99 -17q-54 0 -83 19q-35 23 -35 74q0 48 72 78q59 24 116 24q40 0 66 -34.5 t26 -76.5zM456 600q0 21 -15 45q-10 16 -31 38l-19 -20q-5 26 -35 26q-45 0 -92 -28q-53 -32 -53 -75q0 -33 37 -50q29 -13 67 -13q44 0 86 17q55 22 55 60z" />
<glyph unicode="&#xe6;" horiz-adv-x="888" d="M873 52l-15 -37q-22 -7 -115.5 -11.5t-143.5 -4.5q-100 0 -160 41q-70 48 -70 144l1 27q-13 25 -37 38t-65 13q-58 0 -116 -39q-65 -43 -65 -98q0 -45 41 -71q36 -23 84 -23q29 0 85 12.5t81 12.5q6 -3 8.5 -14.5t5.5 -21.5q-50 -10 -87.5 -14.5t-82.5 -4.5 q-72 0 -115 18q-63 26 -63 88q0 84 61 133.5t147 49.5q66 0 129 -26q3 14 5.5 27t2.5 28q0 42 -26.5 71.5t-68.5 29.5q-27 0 -60.5 -10t-64.5 -19q15 32 47.5 48.5t70.5 16.5q58 0 94 -33q32 -29 47 -81q37 42 90.5 66t112.5 24q63 0 103 -19q55 -26 55 -82l-1 -14 q-39 35 -82 55t-91 20q-58 0 -104 -32q-41 -28 -72 -83q49 -13 103.5 -18.5t116.5 -5.5q21 0 76 9q31 5 48 5q55 0 90 -35q-31 -7 -68.5 -10t-74.5 -3q-34 0 -102 3t-101 3q-32 0 -50 -2t-36 -10q0 -24 -4.5 -43.5t-15.5 -39.5q18 -49 73 -77q50 -25 108 -25q40 0 90 8 q120 19 150 19z" />
<glyph unicode="&#xe7;" horiz-adv-x="636" d="M636 63q-49 -24 -165 -42t-187 -18q-110 0 -171 39q-74 48 -74 152q0 107 81 185t189 78q43 0 90 -31q53 -35 53 -74q0 -15 -10.5 -23t-28.5 -12q-9 44 -36 71.5t-71 27.5q-82 0 -159.5 -76.5t-77.5 -158.5q0 -78 70 -119q57 -34 141 -34q59 0 139.5 20.5t162.5 42.5 q17 0 29 -6.5t25 -21.5zM355 -86q0 -50 -67 -96.5t-139 -52.5q77 53 116.5 81t39.5 55q0 17 -23 43q-12 14 -12 23q0 18 19 18q29 0 49 -26q17 -22 17 -45z" />
<glyph unicode="&#xe8;" horiz-adv-x="551" d="M551 52l-15 -37q-22 -7 -115.5 -11.5t-143.5 -4.5q-100 0 -160 41q-70 48 -70 144q0 106 78 177t184 71q63 0 103 -19q55 -26 55 -82l-1 -14q-39 35 -82 55t-91 20q-57 0 -104 -33q-43 -30 -73 -84q48 -11 105.5 -16.5t115.5 -5.5q21 0 76 9q31 5 48 5q55 0 90 -35 q-31 -7 -68.5 -10t-74.5 -3q-34 0 -102 3t-101 3q-64 0 -88.5 -12t-24.5 -40q0 -68 63 -109q55 -36 125 -36q40 0 90 8q120 19 150 19zM349 524q-3 -2 -14.5 -12t-18.5 -10q-24 0 -75 63q-28 35 -40 44l-106 84q4 8 9 17q4 4 22 4q13 0 28 -9q10 -6 23 -19l44 -45 q21 -19 49 -42q57 -47 79 -75z" />
<glyph unicode="&#xe9;" horiz-adv-x="551" d="M551 52l-15 -37q-22 -7 -115.5 -11.5t-143.5 -4.5q-100 0 -160 41q-70 48 -70 144q0 106 78 177t184 71q63 0 103 -19q55 -26 55 -82l-1 -14q-39 35 -82 55t-91 20q-57 0 -104 -33q-43 -30 -73 -84q48 -11 105.5 -16.5t115.5 -5.5q21 0 76 9q31 5 48 5q55 0 90 -35 q-31 -7 -68.5 -10t-74.5 -3q-34 0 -102 3t-101 3q-64 0 -88.5 -12t-24.5 -40q0 -68 63 -109q55 -36 125 -36q40 0 90 8q120 19 150 19zM470 650q-76 -56 -87 -66q-47 -40 -73 -82l-5 12q-4 11 -4 25q0 37 29.5 71.5t67.5 47.5q17 6 33 6q24 0 39 -14z" />
<glyph unicode="&#xea;" horiz-adv-x="551" d="M551 52l-15 -37q-22 -7 -115.5 -11.5t-143.5 -4.5q-100 0 -160 41q-70 48 -70 144q0 106 78 177t184 71q63 0 103 -19q55 -26 55 -82l-1 -14q-39 35 -82 55t-91 20q-57 0 -104 -33q-43 -30 -73 -84q48 -11 105.5 -16.5t115.5 -5.5q21 0 76 9q31 5 48 5q55 0 90 -35 q-31 -7 -68.5 -10t-74.5 -3q-34 0 -102 3t-101 3q-64 0 -88.5 -12t-24.5 -40q0 -68 63 -109q55 -36 125 -36q40 0 90 8q120 19 150 19zM473 515l-8 -17q-39 16 -100 89q-57 69 -110 84q-26 -49 -51 -97q-2 -5 -6 -22.5t-8.5 -30.5t-13.5 -23t-22 -14q-2 7 -2 21 q0 25 30.5 98t48.5 87q11 9 25 9q44 0 122 -75q59 -56 95 -109z" />
<glyph unicode="&#xeb;" horiz-adv-x="551" d="M551 52l-15 -37q-22 -7 -115.5 -11.5t-143.5 -4.5q-100 0 -160 41q-70 48 -70 144q0 106 78 177t184 71q63 0 103 -19q55 -26 55 -82l-1 -14q-39 35 -82 55t-91 20q-57 0 -104 -33q-43 -30 -73 -84q48 -11 105.5 -16.5t115.5 -5.5q21 0 76 9q31 5 48 5q55 0 90 -35 q-31 -7 -68.5 -10t-74.5 -3q-34 0 -102 3t-101 3q-64 0 -88.5 -12t-24.5 -40q0 -68 63 -109q55 -36 125 -36q40 0 90 8q120 19 150 19zM505 602q0 -30 -32 -59t-62 -29q-28 0 -49 12q-26 15 -26 41q0 35 43 59q29 16 75 26q17 -9 35 -17q16 -10 16 -33zM317 606 q0 -30 -32 -59t-62 -29q-28 0 -49 12q-26 15 -26 41q0 35 43 59q29 16 75 26q17 -9 35 -17q16 -10 16 -33z" />
<glyph unicode="&#xec;" horiz-adv-x="169" d="M147 83q0 -33 -7 -53q-10 -27 -34 -40q-7 27 -20 152.5t-13 158.5q0 16 1.5 25.5t9.5 14.5q23 -19 45 -123q18 -87 18 -135zM162 444q-3 -2 -14.5 -12t-18.5 -10q-24 0 -75 63q-28 35 -40 44l-106 84q4 8 9 17q4 4 22 4q13 0 28 -9q10 -6 23 -19l44 -45q21 -19 49 -42 q57 -47 79 -75z" />
<glyph unicode="&#xed;" horiz-adv-x="169" d="M147 83q0 -33 -7 -53q-10 -27 -34 -40q-7 27 -20 152.5t-13 158.5q0 16 1.5 25.5t9.5 14.5q23 -19 45 -123q18 -87 18 -135zM246 560q-76 -56 -87 -66q-47 -40 -73 -82l-5 12q-4 11 -4 25q0 37 29.5 71.5t67.5 47.5q17 6 33 6q24 0 39 -14z" />
<glyph unicode="&#xee;" horiz-adv-x="169" d="M147 83q0 -33 -7 -53q-10 -27 -34 -40q-7 27 -20 152.5t-13 158.5q0 16 1.5 25.5t9.5 14.5q23 -19 45 -123q18 -87 18 -135zM264 430l-8 -17q-39 16 -100 89q-57 69 -110 84q-26 -49 -51 -97q-2 -5 -6 -22.5t-8.5 -30.5t-13.5 -23t-22 -14q-2 7 -2 21q0 25 30.5 98 t48.5 87q11 9 25 9q44 0 122 -75q59 -56 95 -109z" />
<glyph unicode="&#xef;" horiz-adv-x="169" d="M147 83q0 -33 -7 -53q-10 -27 -34 -40q-7 27 -20 152.5t-13 158.5q0 16 1.5 25.5t9.5 14.5q23 -19 45 -123q18 -87 18 -135zM270 502q0 -30 -32 -59t-62 -29q-28 0 -49 12q-26 15 -26 41q0 35 43 59q29 16 75 26q17 -9 35 -17q16 -10 16 -33zM82 506q0 -30 -32 -59 t-62 -29q-28 0 -49 12q-26 15 -26 41q0 35 43 59q29 16 75 26q17 -9 35 -17q16 -10 16 -33z" />
<glyph unicode="&#xf0;" horiz-adv-x="668" d="M772 416l-132 -35q-8 -49 -12 -73q-7 -43 -14 -74q-18 -118 -35 -235q-36 -122 -176 -122q-147 0 -210 51q-52 42 -52 121q0 77 87 116q65 29 155 29q25 0 56 -8q75 -19 88 -19q24 0 42 62q14 51 24 139l-25 -6q-44 -18 -88 -35q-11 -3 -20 -3q-23 0 -42 19q85 43 179 69 q4 51 5.5 88t1.5 68q23 -4 41 -18.5t18 -35.5q0 -7 -1 -10l-14 -78l62 17q10 3 24.5 5.5t23.5 2.5q4 -6 8 -15.5t6 -19.5zM557 56q0 73 -62 96q-35 13 -126 13h-40q-55 0 -102 -41t-47 -96q0 -61 63 -96q53 -30 118 -30q76 0 132 38q64 44 64 116z" />
<glyph unicode="&#xf1;" horiz-adv-x="551" d="M549 93q0 -42 -9 -83h-42q10 57 10 121q0 108 -25 180q-37 107 -122 107q-29 0 -58 -6.5t-63 -18.5q-101 -36 -123 -69.5t-22 -143.5q0 -17 3 -39q7 -52 7 -65q0 -26 -9.5 -44.5t-32.5 -31.5q-7 26 -10 58.5t-3 64.5q0 33 1 65.5t2 64.5q0 22 -2 40q-7 62 -7 66 q0 24 6 39t24 25q4 -13 9.5 -26.5t11.5 -26.5q141 50 143 51q94 30 155 30q94 0 132 -139q24 -87 24 -219zM498 543q-15 -15 -42 -23.5t-53 -8.5q-48 0 -85.5 36.5t-67.5 36.5q-18 0 -81 -21q-30 -10 -51 -10q11 19 62.5 34.5t82.5 15.5q25 0 62 -36t77 -36q21 0 44 7 q38 11 41 12q8 -2 11 -7z" />
<glyph unicode="&#xf2;" horiz-adv-x="646" d="M646 180q0 -92 -136 -143q-102 -38 -214 -38q-114 0 -178 43q-76 51 -76 159q0 105 156 169q124 51 249 51q88 0 146 -78q53 -71 53 -163zM608 191q0 36 -19 74q-24 48 -81 105q-8 -10 -19.5 -21t-22.5 -21q-5 28 -24.5 41.5t-49.5 13.5q-99 0 -200 -60 q-115 -68 -115 -161q0 -73 80 -109q62 -28 145 -28q97 0 188 37q118 48 118 129zM459 514q-3 -2 -14.5 -12t-18.5 -10q-24 0 -75 63q-28 35 -40 44l-106 84q4 8 9 17q4 4 22 4q13 0 28 -9q10 -6 23 -19l44 -45q21 -19 49 -42q57 -47 79 -75z" />
<glyph unicode="&#xf3;" horiz-adv-x="646" d="M646 180q0 -92 -136 -143q-102 -38 -214 -38q-114 0 -178 43q-76 51 -76 159q0 105 156 169q124 51 249 51q88 0 146 -78q53 -71 53 -163zM608 191q0 36 -19 74q-24 48 -81 105q-8 -10 -19.5 -21t-22.5 -21q-5 28 -24.5 41.5t-49.5 13.5q-99 0 -200 -60 q-115 -68 -115 -161q0 -73 80 -109q62 -28 145 -28q97 0 188 37q118 48 118 129zM563 640q-76 -56 -87 -66q-47 -40 -73 -82l-5 12q-4 11 -4 25q0 37 29.5 71.5t67.5 47.5q17 6 33 6q24 0 39 -14z" />
<glyph unicode="&#xf4;" horiz-adv-x="646" d="M646 180q0 -92 -136 -143q-102 -38 -214 -38q-114 0 -178 43q-76 51 -76 159q0 105 156 169q124 51 249 51q88 0 146 -78q53 -71 53 -163zM608 191q0 36 -19 74q-24 48 -81 105q-8 -10 -19.5 -21t-22.5 -21q-5 28 -24.5 41.5t-49.5 13.5q-99 0 -200 -60 q-115 -68 -115 -161q0 -73 80 -109q62 -28 145 -28q97 0 188 37q118 48 118 129zM550 510l-8 -17q-39 16 -100 89q-57 69 -110 84q-26 -49 -51 -97q-2 -5 -6 -22.5t-8.5 -30.5t-13.5 -23t-22 -14q-2 7 -2 21q0 25 30.5 98t48.5 87q11 9 25 9q44 0 122 -75q59 -56 95 -109z " />
<glyph unicode="&#xf5;" horiz-adv-x="646" d="M646 180q0 -92 -136 -143q-102 -38 -214 -38q-114 0 -178 43q-76 51 -76 159q0 105 156 169q124 51 249 51q88 0 146 -78q53 -71 53 -163zM608 191q0 36 -19 74q-24 48 -81 105q-8 -10 -19.5 -21t-22.5 -21q-5 28 -24.5 41.5t-49.5 13.5q-99 0 -200 -60 q-115 -68 -115 -161q0 -73 80 -109q62 -28 145 -28q97 0 188 37q118 48 118 129zM595 513q-15 -15 -42 -23.5t-53 -8.5q-48 0 -85.5 36.5t-67.5 36.5q-18 0 -81 -21q-30 -10 -51 -10q11 19 62.5 34.5t82.5 15.5q25 0 62 -36t77 -36q21 0 44 7q38 11 41 12q8 -2 11 -7z" />
<glyph unicode="&#xf6;" horiz-adv-x="646" d="M646 180q0 -92 -136 -143q-102 -38 -214 -38q-114 0 -178 43q-76 51 -76 159q0 105 156 169q124 51 249 51q88 0 146 -78q53 -71 53 -163zM608 191q0 36 -19 74q-24 48 -81 105q-8 -10 -19.5 -21t-22.5 -21q-5 28 -24.5 41.5t-49.5 13.5q-99 0 -200 -60 q-115 -68 -115 -161q0 -73 80 -109q62 -28 145 -28q97 0 188 37q118 48 118 129zM582 562q0 -30 -32 -59t-62 -29q-28 0 -49 12q-26 15 -26 41q0 35 43 59q29 16 75 26q17 -9 35 -17q16 -10 16 -33zM394 566q0 -30 -32 -59t-62 -29q-28 0 -49 12q-26 15 -26 41q0 35 43 59 q29 16 75 26q17 -9 35 -17q16 -10 16 -33z" />
<glyph unicode="&#xf7;" horiz-adv-x="508" d="M369 462q0 -30 -32 -59t-62 -29q-28 0 -49 12q-26 15 -26 41q0 35 43 59q29 16 75 26q17 -9 35 -17q16 -10 16 -33zM450 268h-212q-16 0 -47 -5t-47 -5q-37 0 -54 31q45 10 102.5 15.5t111.5 5.5h93q12 0 23.5 -0.5t24.5 -3.5q5 -15 5 -38zM359 157q0 -30 -32 -59 t-62 -29q-28 0 -49 12q-26 15 -26 41q0 35 43 59q29 16 75 26q17 -9 35 -17q16 -10 16 -33z" />
<glyph unicode="&#xf8;" horiz-adv-x="646" d="M646 180q0 -92 -136 -143q-102 -38 -214 -38l-52 3q-16 -29 -31 -58q-10 -18 -21 -33q-15 -20 -32.5 -33.5t-36.5 -17.5q8 36 28 59q17 19 32.5 39t34.5 47q-81 14 -125 58q-51 51 -51 138q0 105 156 169q124 51 249 51l31 -3l56 93q15 25 28 40q17 19 36 29 q-5 -21 -15 -42.5t-25 -45.5l-51 -82q63 -24 101 -90t38 -140zM608 191q0 36 -19 74q-24 48 -81 105q-8 -10 -19.5 -21t-22.5 -21l-4 14l-68 -104q-62 -95 -68 -104q-37 -57 -67 -107l43 -2q97 0 188 37q118 48 118 129zM446 366q-10 9 -23 13t-31 4q-99 0 -200 -60 q-115 -68 -115 -161q0 -57 50 -92q41 -29 108 -40q41 60 106 164q52 84 105 172z" />
<glyph unicode="&#xf9;" horiz-adv-x="625" d="M619 260q0 -124 -85 -194q-80 -66 -206 -66q-142 0 -219 95q-72 88 -72 234q0 35 9.5 60.5t38.5 33.5q0 -117 11 -180q18 -101 65 -152q58 -63 168 -63q107 0 187.5 76.5t80.5 183.5q0 46 -25 79q-34 44 -40 66q6 12 12 19t28 13q23 -55 35 -103.5t12 -101.5zM369 549 q-3 -2 -14.5 -12t-18.5 -10q-24 0 -75 63q-28 35 -40 44l-106 84q4 8 9 17q4 4 22 4q13 0 28 -9q10 -6 23 -19l44 -45q21 -19 49 -42q57 -47 79 -75z" />
<glyph unicode="&#xfa;" horiz-adv-x="625" d="M619 260q0 -124 -85 -194q-80 -66 -206 -66q-142 0 -219 95q-72 88 -72 234q0 35 9.5 60.5t38.5 33.5q0 -117 11 -180q18 -101 65 -152q58 -63 168 -63q107 0 187.5 76.5t80.5 183.5q0 46 -25 79q-34 44 -40 66q6 12 12 19t28 13q23 -55 35 -103.5t12 -101.5zM491 665 q-76 -56 -87 -66q-47 -40 -73 -82l-5 12q-4 11 -4 25q0 37 29.5 71.5t67.5 47.5q17 6 33 6q24 0 39 -14z" />
<glyph unicode="&#xfb;" horiz-adv-x="625" d="M619 260q0 -124 -85 -194q-80 -66 -206 -66q-142 0 -219 95q-72 88 -72 234q0 35 9.5 60.5t38.5 33.5q0 -117 11 -180q18 -101 65 -152q58 -63 168 -63q107 0 187.5 76.5t80.5 183.5q0 46 -25 79q-34 44 -40 66q6 12 12 19t28 13q23 -55 35 -103.5t12 -101.5zM468 555 l-8 -17q-39 16 -100 89q-57 69 -110 84q-26 -49 -51 -97q-2 -5 -6 -22.5t-8.5 -30.5t-13.5 -23t-22 -14q-2 7 -2 21q0 25 30.5 98t48.5 87q11 9 25 9q44 0 122 -75q59 -56 95 -109z" />
<glyph unicode="&#xfc;" horiz-adv-x="625" d="M619 260q0 -124 -85 -194q-80 -66 -206 -66q-142 0 -219 95q-72 88 -72 234q0 35 9.5 60.5t38.5 33.5q0 -117 11 -180q18 -101 65 -152q58 -63 168 -63q107 0 187.5 76.5t80.5 183.5q0 46 -25 79q-34 44 -40 66q6 12 12 19t28 13q23 -55 35 -103.5t12 -101.5zM515 617 q0 -30 -32 -59t-62 -29q-28 0 -49 12q-26 15 -26 41q0 35 43 59q29 16 75 26q17 -9 35 -17q16 -10 16 -33zM327 621q0 -30 -32 -59t-62 -29q-28 0 -49 12q-26 15 -26 41q0 35 43 59q29 16 75 26q17 -9 35 -17q16 -10 16 -33z" />
<glyph unicode="&#xfd;" horiz-adv-x="476" d="M488 414q0 -17 -11.5 -37.5t-21.5 -38.5q-63 -130 -85 -179q-39 -86 -74 -181t-58 -188q-13 -88 -23 -134q-20 -85 -68 -96l-21 17q36 66 78 203.5t42 204.5q0 65 -74.5 195t-129.5 169l21 32q65 -47 124 -150q16 -29 88 -179q50 105 64 132q29 59 67 131q28 54 70 130 q6 -10 9 -18.5t3 -12.5zM453 630q-76 -56 -87 -66q-47 -40 -73 -82l-5 12q-4 11 -4 25q0 37 29.5 71.5t67.5 47.5q17 6 33 6q24 0 39 -14z" />
<glyph unicode="&#xfe;" horiz-adv-x="540" d="M540 212q0 -113 -105 -162q-127 -27 -253 -54q-7 -7 -10.5 -28t-3.5 -51t1.5 -59.5t3.5 -54.5q0 -36 -7 -62.5t-29 -47.5q-6 26 -9 58.5t-3 60.5q0 31 1 63t2 63q0 48 -31 69q-46 31 -55 45q40 0 56 8q23 12 23 48q0 35 -19 102t-19 99q0 2 -25 166q-16 104 -22 155 q35 -15 46.5 -25t19 -35t9.5 -84.5t18 -119.5q37 19 94.5 29t93.5 10q100 0 158 -45q65 -50 65 -148zM512 212q0 63 -49.5 110.5t-113.5 47.5q-66 0 -119.5 -9.5t-97.5 -35.5l3 -48q10 -18 20 -146q7 -89 79 -89q97 0 176 37q102 48 102 133z" />
<glyph unicode="&#xff;" horiz-adv-x="476" d="M488 414q0 -17 -11.5 -37.5t-21.5 -38.5q-63 -130 -85 -179q-39 -86 -74 -181t-58 -188q-13 -88 -23 -134q-20 -85 -68 -96l-21 17q36 66 78 203.5t42 204.5q0 65 -74.5 195t-129.5 169l21 32q65 -47 124 -150q16 -29 88 -179q50 105 64 132q29 59 67 131q28 54 70 130 q6 -10 9 -18.5t3 -12.5zM446 575q0 -30 -32 -59t-62 -29q-28 0 -49 12q-26 15 -26 41q0 35 43 59q29 16 75 26q17 -9 35 -17q16 -10 16 -33zM258 579q0 -30 -32 -59t-62 -29q-28 0 -49 12q-26 15 -26 41q0 35 43 59q29 16 75 26q17 -9 35 -17q16 -10 16 -33z" />
<glyph unicode="&#x131;" horiz-adv-x="169" d="M147 83q0 -33 -7 -53q-10 -27 -34 -40q-7 27 -20 152.5t-13 158.5q0 16 1.5 25.5t9.5 14.5q23 -19 45 -123q18 -87 18 -135z" />
<glyph unicode="&#x141;" horiz-adv-x="720" d="M699 52q-19 -21 -51 -29t-75 -8q-28 0 -71.5 2.5t-46.5 2.5q-28 0 -67 -6q-90 -14 -113 -14h-19q-21 0 -40 2.5t-26 7.5q-13 9 -17 29t-4 45q0 30 -1 49q-4 75 -4 81l-8 -4q-30 -22 -60 -43q-17 -9 -30 -9q-8 0 -17 3q22 19 55 42q27 19 58 38q0 22 -2 73.5t-2 55.5 q0 26 -11 79t-11 80q0 23 7.5 40t25.5 23q18 -77 24.5 -155t6.5 -174l53 31l34 17q8 -6 15 -18l-102 -59v-97q0 -45 7 -67q12 -39 47 -39q49 0 125 12q164 26 210 26q34 0 59.5 -3.5t50.5 -13.5z" />
<glyph unicode="&#x142;" horiz-adv-x="169" d="M188 279l-62 -35l4 -18q13 -55 19 -84q12 -54 12 -85q0 -48 -45 -57q0 50 -6 105t-17 119l-15 -7q-7 -4 -17 -12q-22 -18 -31 -23t-19 -5q-8 0 -15 4q18 16 44 34.5t48 31.5q-17 95 -40 193q-30 120 -42 169q-1 4 0.5 17.5t3.5 19.5q44 -35 69 -118q11 -35 44 -260l26 15 l26 12q5 -4 13 -16z" />
<glyph unicode="&#x152;" horiz-adv-x="1240" d="M1240 83q0 -34 -24 -48q-19 -11 -54 -11q-24 0 -70 5t-69 5q-38 0 -158 -30q-60 -15 -95 -15l-24 1q7 27 12 52.5t8 56.5q-49 -49 -130 -75q-73 -23 -161 -23q-146 0 -240 81q-100 86 -100 231q0 143 114.5 248.5t260.5 105.5q36 0 78 -34q20 -17 41 -34q18 -14 27 -20 q24 -18 44 -35l-2 15q0 25 5 45t21 44q84 -14 164 -14q109 0 221 26l54 -23q-14 -21 -24 -30.5t-30 -18.5q-33 14 -51.5 20.5t-32.5 6.5q-41 0 -188 -16q-73 -8 -113 -8q14 -20 31 -70q6 -16 17 -51q21 -29 35.5 -60t21.5 -67q15 -13 31 -13q30 0 68 10q92 24 117 24h18 q4 0 19 -4l6 -29q-49 -18 -139 -24t-114 -38q0 -33 -7 -60t-21 -54v-36l2 -85q46 0 108 9q150 22 211 22q34 0 62 12t47 38zM772 199q0 56 -7 115t-19 119l-3 10q-30 42 -72 75q-36 29 -89 58q-8 5 -36 33q-22 23 -42 23q-126 0 -226 -86.5t-100 -209.5q0 -127 85.5 -216 t212.5 -89q80 0 160 30q91 34 135 93z" />
<glyph unicode="&#x153;" horiz-adv-x="1080" d="M1080 52l-15 -37q-22 -7 -115.5 -11.5t-143.5 -4.5q-69 0 -123 21t-82 67q-51 -45 -152 -69q-79 -19 -153 -19q-114 0 -178 43q-76 51 -76 159q0 105 156 169q124 51 249 51q54 0 98 -31q41 -28 67 -78q36 56 95.5 88t130.5 32q63 0 103 -19q55 -26 55 -82l-1 -14 q-39 35 -82 55t-91 20q-57 0 -104 -33q-43 -30 -73 -84q48 -11 105.5 -16.5t115.5 -5.5q21 0 76 9q31 5 48 5q55 0 90 -35q-31 -7 -68.5 -10t-74.5 -3q-34 0 -102 3t-101 3q-34 0 -52.5 -2t-37.5 -12l2 -31q0 -32 -15 -56q20 -45 74 -72q49 -24 104 -24q40 0 90 8 q120 19 150 19zM589 264q-13 28 -36 57q-15 19 -45 49q-8 -10 -19.5 -21t-22.5 -21q-5 28 -24.5 41.5t-49.5 13.5q-99 0 -200 -60q-115 -68 -115 -161q0 -73 80 -109q62 -28 145 -28q70 0 147 23q96 29 135 77q-8 29 -8 59q0 39 13 80z" />
<glyph unicode="&#x160;" horiz-adv-x="731" d="M767 663q0 -11 -10.5 -27t-14.5 -22q-16 38 -50 56t-79 18q-106 0 -243 -61q-163 -72 -163 -165q0 -29 34 -41q26 -9 79 -9q33 0 65 2.5t57 4.5q127 0 195 -60q73 -64 73 -190q0 -86 -129 -132q-96 -34 -203 -34q-54 0 -133 21q-95 25 -108 60l28 3q35 0 102 -28t103 -28 q108 0 194 29q122 41 122 126q0 38 -21 74q-17 28 -50 60q-43 42 -83 57.5t-86 15.5q-27 0 -51 -2q-84 -7 -102 -7q-54 0 -83 10q-48 17 -48 60q0 91 94 149q62 39 175 66q11 3 97 29q68 21 96 21q32 0 87.5 -16.5t55.5 -39.5zM751 993q0 -28 -32 -109t-51 -96 q-12 -9 -26 -9q-47 0 -128 83q-62 63 -99 121q5 7 8 19q41 -18 105 -99q60 -77 115 -93q27 53 54 107q4 11 6 22q7 34 8 38q5 15 13.5 24.5t24.5 15.5q2 -8 2 -24z" />
<glyph unicode="&#x161;" horiz-adv-x="530" d="M530 201q0 -89 -79 -147q-73 -54 -165 -54q-53 0 -135 36q-88 39 -109 80q46 0 134 -40.5t134 -40.5q68 0 126 50t58 118q0 61 -58 83q-37 14 -114 14h-33q-8 0 -48 -5q-16 -2 -30 -2q-29 0 -43 3q-30 6 -30 25q0 55 134 103q114 41 183 41q32 0 45.5 -10.5t18.5 -41.5 l-125 3q-77 0 -123 -17q-63 -23 -91 -82h28q26 0 78 4t77 4q77 0 116 -23q51 -30 51 -101zM552 748q0 -28 -32 -109t-51 -96q-12 -9 -26 -9q-47 0 -128 83q-62 63 -99 121q5 7 8 19q41 -18 105 -99q60 -77 115 -93q27 53 54 107q4 11 6 22q7 34 8 38q5 15 13.5 24.5 t24.5 15.5q2 -8 2 -24z" />
<glyph unicode="&#x178;" horiz-adv-x="476" d="M561 741q-25 -54 -88 -120q-75 -79 -94 -107q-44 -66 -44 -145q0 -51 15 -120q35 -160 35 -184q0 -49 -47 -65q-4 26 -16 134t-21 163q-14 81 -34 138.5t-86.5 129.5t-74.5 102q36 -7 101 -81t90 -74q24 0 66 59q70 99 81 111q54 60 104 60zM484 842q0 -30 -32 -59 t-62 -29q-28 0 -49 12q-26 15 -26 41q0 35 43 59q29 16 75 26q17 -9 35 -17q16 -10 16 -33zM296 846q0 -30 -32 -59t-62 -29q-28 0 -49 12q-26 15 -26 41q0 35 43 59q29 16 75 26q17 -9 35 -17q16 -10 16 -33z" />
<glyph unicode="&#x17d;" horiz-adv-x="742" d="M720 106q-10 -39 -50 -55q-28 -11 -81 -11q-13 0 -37 1t-33 1q-56 0 -135 -11q-180 -25 -226 -25q-14 3 -21 4q11 49 108 165q92 105 184 211q103 121 122 174q-46 23 -104 23q-37 0 -108.5 -13.5t-102.5 -13.5q-33 0 -56 26q76 17 154 25t158 8q46 0 65 -5 q40 -11 40 -43q0 -48 -83 -153q-39 -49 -170 -193q-106 -116 -132 -158q54 -8 103 -8q83 0 193.5 17.5t211.5 33.5zM540 900q0 -28 -32 -109t-51 -96q-12 -9 -26 -9q-47 0 -128 83q-62 63 -99 121q5 7 8 19q41 -18 105 -99q60 -77 115 -93q27 53 54 107q4 11 6 22q7 34 8 38 q5 15 13.5 24.5t24.5 15.5q2 -8 2 -24z" />
<glyph unicode="&#x17e;" horiz-adv-x="668" d="M668 106l-330 -54q-74 -18 -130 -31q-109 -26 -118 -26q-28 0 -48 5q10 18 117 115q96 87 209 184t140 114q-42 9 -86 9q-40 0 -119 -8t-119 -8q-25 0 -39.5 3t-28.5 14q69 24 150.5 35.5t162.5 11.5q44 0 81 -3.5t72 -12.5q-12 -41 -102 -116.5t-179 -147.5 q-107 -88 -143 -138q59 0 145 20.5t172 41.5t129 21q23 0 38.5 -6t25.5 -23zM545 765q0 -28 -32 -109t-51 -96q-12 -9 -26 -9q-47 0 -128 83q-62 63 -99 121q5 7 8 19q41 -18 105 -99q60 -77 115 -93q27 53 54 107q4 11 6 22q7 34 8 38q5 15 13.5 24.5t24.5 15.5q2 -8 2 -24 z" />
<glyph unicode="&#x192;" horiz-adv-x="421" d="M798 579q-7 -31 -10 -39q-9 -24 -23 -33q-4 10 -5.5 20t-1.5 28v27q0 50 -14 70q-23 32 -89 32q-138 0 -219 -114q-63 -88 -100 -263q-8 -38 -8 -62q0 -72 84 -72q31 0 94 8t94 8q24 0 40.5 -8t22.5 -30q-56 -28 -166 -30t-160 -20q6 -50 -64 -161q-78 -123 -149 -123 q-73 0 -177 42q-71 29 -144 72q30 0 133.5 -35.5t187.5 -35.5q59 0 108 76q44 69 44 133q0 21 -10.5 38.5t-21.5 17.5q-20 0 -60 -8t-60 -8q-24 0 -39 9.5t-21 32.5l226 39q0 83 21 180q36 169 119 259q90 97 230 97q61 0 97 -23q45 -29 45 -87q0 -18 -4 -37z" />
<glyph unicode="&#x2c6;" horiz-adv-x="548" d="M437 605l-8 -17q-39 16 -100 89q-57 69 -110 84q-26 -49 -51 -97q-2 -5 -6 -22.5t-8.5 -30.5t-13.5 -23t-22 -14q-2 7 -2 21q0 25 30.5 98t48.5 87q11 9 25 9q44 0 122 -75q59 -56 95 -109z" />
<glyph unicode="&#x2c7;" horiz-adv-x="552" d="M430 760q0 -28 -32 -109t-51 -96q-12 -9 -26 -9q-47 0 -128 83q-62 63 -99 121q5 7 8 19q41 -18 105 -99q60 -77 115 -93q27 53 54 107q4 11 6 22q7 34 8 38q5 15 13.5 24.5t24.5 15.5q2 -8 2 -24z" />
<glyph unicode="&#x2da;" horiz-adv-x="414" d="M344 667q0 -44 -63 -67q-46 -17 -99 -17q-54 0 -83 19q-35 23 -35 74q0 48 72 78q59 24 116 24q40 0 66 -34.5t26 -76.5zM326 672q0 21 -15 45q-10 16 -31 38l-19 -20q-5 26 -35 26q-45 0 -92 -28q-53 -32 -53 -75q0 -33 37 -50q29 -13 67 -13q44 0 86 17q55 22 55 60z " />
<glyph unicode="&#x2dc;" horiz-adv-x="504" d="M437 678q-15 -15 -42 -23.5t-53 -8.5q-48 0 -85.5 36.5t-67.5 36.5q-18 0 -81 -21q-30 -10 -51 -10q11 19 62.5 34.5t82.5 15.5q25 0 62 -36t77 -36q21 0 44 7q38 11 41 12q8 -2 11 -7z" />
<glyph unicode="&#x2013;" horiz-adv-x="370" d="M360 243h-212q-16 0 -47 -5t-47 -5q-37 0 -54 31q45 10 102.5 15.5t111.5 5.5h93q12 0 23.5 -0.5t24.5 -3.5q5 -15 5 -38z" />
<glyph unicode="&#x2014;" horiz-adv-x="528" d="M509 239l-361 4q-16 0 -47 -5t-47 -5q-37 0 -54 31q45 10 102.5 15.5t111.5 5.5l242 -4q12 0 23.5 -0.5t24.5 -3.5q5 -15 5 -38z" />
<glyph unicode="&#x2018;" horiz-adv-x="243" d="M126 741q-2 -8 -58 -121q-21 -42 -21 -80q0 -25 8 -42q1 -2 40 -53q-8 -3 -18 -6t-19 -3q-32 0 -44.5 26.5t-12.5 63.5q0 65 31 130q38 79 94 85z" />
<glyph unicode="&#x2019;" horiz-adv-x="286" d="M288 518q0 -67 -65 -95l-2 20q0 18 11 52t11 53q0 20 -37.5 95t-37.5 98q0 16 9 16q25 0 68 -100.5t43 -138.5z" />
<glyph unicode="&#x201a;" horiz-adv-x="192" d="M78 -206h-13q-44 0 -73.5 44.5t-29.5 91.5q0 21 7.5 38.5t24.5 26.5q27 -92 32 -105q21 -56 52 -96z" />
<glyph unicode="&#x201c;" horiz-adv-x="381" d="M296 741q-9 -23 -58 -95q-39 -57 -39 -104t37 -105q27 -38 39 -56q-57 6 -86 47.5t-29 101.5q0 69 34 130q39 69 102 81zM148 762q-73 -82 -74 -83q-43 -55 -43 -97q0 -35 35 -57q44 -27 50 -39q-61 0 -80 8q-36 15 -36 66q0 65 41 129q47 73 107 73z" />
<glyph unicode="&#x201d;" horiz-adv-x="466" d="M462 530q0 -57 -19 -91q-22 -41 -73 -58q4 12 34 80q22 49 22 85q0 55 -29 122q-34 80 -80 80q-4 6 -6.5 13.5t-3.5 11.5q12 1 30 5.5t23 4.5l11 -10l31.5 -31.5t25.5 -37.5q17 -37 25.5 -83.5t8.5 -90.5zM287 526q0 -32 -10 -54q-14 -30 -42 -30q-10 0 -18 3q-3 1 -16 9 q33 28 37 32q18 20 18 44q0 34 -37.5 82.5t-37.5 66.5q0 7 6 7q7 0 19.5 -8.5t16.5 -10.5q29 -20 46.5 -61t17.5 -80z" />
<glyph unicode="&#x201e;" horiz-adv-x="457" d="M422 -150q0 -57 -19 -91q-22 -41 -73 -58q4 12 34 80q22 49 22 85q0 55 -29 122q-34 80 -80 80q-4 6 -6.5 13.5t-3.5 11.5q12 1 30 5.5t23 4.5l11 -10l31.5 -31.5t25.5 -37.5q17 -37 25.5 -83.5t8.5 -90.5zM247 -154q0 -32 -10 -54q-14 -30 -42 -30q-10 0 -20.5 5 t-13.5 7q33 28 37 32q18 20 18 44q0 34 -37.5 82.5t-37.5 66.5q0 7 6 7q7 0 19.5 -8.5t16.5 -10.5q29 -20 46.5 -61t17.5 -80z" />
<glyph unicode="&#x2020;" horiz-adv-x="408" d="M384 410h-148q0 -82 12 -157q1 -4 32 -125q12 -46 12 -73q0 -26 -9.5 -43t-34.5 -22q-6 25 -17.5 97t-23.5 153q-16 110 -24 170h-11q-16 0 -47 -5t-47 -5q-37 0 -54 31q36 9 78 14.5t76 5.5q-13 102 -13 129q0 31 1.5 42.5t6.5 33.5q30 -43 45.5 -96t15.5 -108h4h93 q12 0 23.5 -0.5t24.5 -3.5q5 -15 5 -38z" />
<glyph unicode="&#x2021;" horiz-adv-x="396" d="M386 339h-141q0 -25 2.5 -45t4.5 -32.5t33 -133.5q12 -46 12 -73q0 -26 -9.5 -43t-34.5 -22q-5 22 -23 134q-21 132 -32 215h-24q-16 0 -47 -5t-47 -5q-37 0 -54 31q39 9 84 14.5t82 5.5l-9 68h-20q-16 0 -47 -5t-47 -5q-37 0 -54 31q38 8 82.5 14t80.5 6q-3 28 -5.5 58 t-2.5 33q0 31 1.5 42.5t6.5 33.5q25 -34 38 -75.5t19 -90.5h87q12 0 23.5 -0.5t24.5 -3.5q5 -15 5 -38h-136l4 -67h90q12 0 23.5 -0.5t24.5 -3.5q5 -15 5 -38z" />
<glyph unicode="&#x2022;" horiz-adv-x="410" d="M338 358q0 -48 -51.5 -95.5t-101.5 -47.5q-47 0 -80 19q-41 24 -41 67q0 68 100 110q41 17 91 28q29 -14 58 -27q25 -16 25 -54z" />
<glyph unicode="&#x2026;" horiz-adv-x="726" d="M225 102q0 -30 -32 -59t-62 -29q-28 0 -49 12q-26 15 -26 41q0 35 43 59q29 16 75 26q17 -9 35 -17q16 -10 16 -33zM447 102q0 -30 -32 -59t-62 -29q-28 0 -49 12q-26 15 -26 41q0 35 43 59q29 16 75 26q17 -9 35 -17q16 -10 16 -33zM679 102q0 -30 -32 -59t-62 -29 q-28 0 -49 12q-26 15 -26 41q0 35 43 59q29 16 75 26q17 -9 35 -17q16 -10 16 -33z" />
<glyph unicode="&#x2030;" horiz-adv-x="1329" d="M1270 174q0 -53 -63 -86q-53 -28 -112 -28q-48 0 -78 19q-36 23 -36 69q0 62 62 106q44 31 119 53q50 -31 71 -53q37 -38 37 -80zM871 174q0 -53 -63 -86q-53 -28 -112 -28q-48 0 -78 19q-36 23 -36 69q0 62 62 106q44 31 119 53q50 -31 71 -53q37 -38 37 -80zM479 566 q0 -74 -55.5 -121.5t-132.5 -47.5q-50 0 -86 32t-36 81q0 63 71 107q63 39 130 39l21 2q10 2 20.5 4t12.5 2q31 0 45 -36q10 -26 10 -62zM710 614q-9 -51 -68 -127q-46 -59 -91 -117q-87 -166 -136 -259q-52 -99 -66 -111q-4 11 -6 20.5t-2 22.5q0 31 64 148 q56 102 128 215.5t102 149.5q18 22 33 34q19 16 42 24zM1234 180q0 33 -27.5 57.5t-61.5 24.5q-47 0 -84 -34t-37 -80q0 -59 61 -59q48 0 93 22q56 27 56 69zM835 180q0 33 -27.5 57.5t-61.5 24.5q-47 0 -84 -34t-37 -80q0 -59 61 -59q48 0 93 22q56 27 56 69zM446 548 q0 20 -3 33t-19 54q-120 -22 -137 -29q-76 -30 -76 -102q0 -36 21.5 -53t59.5 -17q58 0 102 27q52 32 52 87z" />
<glyph unicode="&#x2039;" horiz-adv-x="636" d="M557 -3l-28 -3q-19 0 -36 7t-35 21q-81 66 -159 107.5t-177 68.5q-22 6 -36 14q-22 13 -22 32q0 26 100 106q92 74 199 140q113 70 147 70l15 -1q-12 -24 -30.5 -41.5t-46.5 -32.5q-103 -56 -170 -101q-81 -55 -156 -122q27 -17 144 -73q128 -61 185 -96q94 -57 106 -96z " />
<glyph unicode="&#x203a;" horiz-adv-x="540" d="M480 410q-4 -10 -90 -112q-97 -116 -161 -189q-88 -100 -98 -106l-33 14q15 50 91 131q66 66 133.5 134.5t67.5 96.5q0 19 -17 38q-3 3 -23 15q-25 15 -51.5 31t-115 83t-92.5 69q-4 -5 -10 4.5t-10 25.5l12 13q9 0 95.5 -56.5t172.5 -112.5q102 -66 129 -79z" />
<glyph unicode="&#x2122;" horiz-adv-x="649" d="M339 734q-12 -10 -23 -13.5t-28 -3.5q-7 0 -22 1t-24 1q-13 0 -23.5 -2t-32.5 -8q5 -20 13 -122t8 -125l-1 -9h-20q0 25 -8 134.5t-14 115.5t-18 6q-18 0 -42 -5q-57 -12 -72 -12q-13 0 -21.5 3.5t-12.5 13.5q42 5 112 15q131 19 191 19q14 0 21 -1.5t17 -7.5zM631 448 l-18 -4v30q0 66 -5 115t-21 94q-28 -12 -46 -43q-24 -41 -33 -49q1 -2 7 -11t6 -13q0 -10 -7.5 -14.5t-18.5 -4.5l-14 3q-3 7 -4 21t-8 24q-21 30 -50 60q-36 37 -60 49q7 5 14 5q21 0 63.5 -52.5t53.5 -52.5q28 33 56.5 64.5t53.5 43.5q31 -133 31 -265zM379 586v-31 q0 -40 -5 -69t-20 -34q0 23 3 54q7 72 7 90q0 16 -6 39t-12 48q3 8 5 10q17 -7 24 -48q4 -23 4 -59z" />
<glyph unicode="&#x2215;" horiz-adv-x="200" d="M340 723q-5 -21 -16 -45q-7 -16 -24 -44q-46 -73 -105 -163q-54 -81 -107 -161q-57 -88 -103 -166q-25 -45 -51 -90q-15 -20 -32.5 -33.5t-36.5 -17.5q8 36 28 59q49 57 127 176q55 83 137 220q79 132 119 196q15 25 28 40q17 19 36 29z" />
<glyph unicode="&#x25fc;" horiz-adv-x="475" d="M0 475h475v-475h-475v475z" />
<glyph unicode="&#xf001;" horiz-adv-x="651" d="M636 426q-13 0 -32 3.5t-29 5.5v17l25 18q23 -14 26 -18q5 -6 10 -26zM668 603q0 -30 -3.5 -41t-13.5 -18q-9 11 -23 64q-21 81 -121 81q-134 0 -189 -93q-43 -72 -43 -215q0 -59 22 -84.5t79 -25.5q27 0 67 4q91 9 113 9q25 0 42 -6t27 -25l-16 -7q21 -36 36 -96t15 -89 q0 -28 -8 -44q-11 -21 -39 -32q-9 24 -24 121.5t-15 129.5q-13 -3 -161 -9q-57 -2 -95 -15q24 -51 36 -81q23 -55 23 -81q0 -33 -28 -50q-22 68 -43 137q-38 95 -83 95q-18 0 -43 -4q-57 -9 -71 -9q-24 0 -40 7.5t-27 26.5l212 32q-8 38 -12.5 76t-4.5 71q0 139 62 212 q67 79 204 79q69 0 112 -25q53 -31 53 -95z" />
<glyph unicode="&#xf002;" horiz-adv-x="758" d="M758 53q0 -48 -45 -57q0 85 -19 201q-12 75 -45 216q-7 29 -46 192q-1 4 0.5 17.5t3.5 19.5l15 -14q-10 29 -33 43q-28 18 -82 18q-134 0 -189 -93q-43 -72 -43 -215q0 -59 22 -84.5t79 -25.5q27 0 67 4q91 9 113 9q25 0 42 -6t27 -25q-49 -23 -156.5 -25t-150.5 -16 q24 -51 36 -81q23 -55 23 -81q0 -33 -28 -50q-22 68 -43 137q-38 95 -83 95q-18 0 -43 -4q-57 -9 -71 -9q-24 0 -40 7.5t-27 26.5l212 32q-8 38 -12.5 76t-4.5 71q0 139 62 212q67 79 204 79q69 0 112 -25q53 -31 53 -95q0 -10 -0.5 -20.5t-4.5 -21.5q25 -60 41 -174 q22 -159 23 -165q13 -55 19 -84q12 -54 12 -85z" />
</font>
</defs>
</svg>
