<?xml version="1.0" encoding="utf-8"?>
<!-- Generator: Adobe Illustrator 16.0.0, SVG Export Plug-In . SVG Version: 6.00 Build 0)  -->
<!DOCTYPE svg PUBLIC "-//W3C//DTD SVG 1.1//EN" "http://www.w3.org/Graphics/SVG/1.1/DTD/svg11.dtd">
<svg version="1.1" xmlns="http://www.w3.org/2000/svg" xmlns:xlink="http://www.w3.org/1999/xlink" x="0px" y="0px" width="200px"
	 height="200px" viewBox="0 0 200 200" enable-background="new 0 0 200 200" xml:space="preserve">
<g id="fond_test" display="none">
	<rect x="-150" y="-154" display="inline" fill="#43B1E6" width="500" height="504"/>
</g>
<g id="Calque_6">
	<path fill="#FFFFFF" stroke="#010202" stroke-width="2" stroke-miterlimit="10" d="M46.125,13.344c-2.831,0-5.125,2.229-5.125,4.98
		v164.351c0,2.75,2.294,4.98,5.125,4.98H160.59c2.831,0,5.126-2.23,5.126-4.98V62.939c-19.247-19.247-53.386-49.595-53.386-49.595
		H46.125z"/>
	<path fill="#B7B7B7" d="M115.365,62.939h50.351L112.33,13.344v46.782C112.33,60.126,112.371,62.939,115.365,62.939z"/>
	<line fill="none" stroke="#010202" stroke-width="2" stroke-miterlimit="10" x1="54.488" y1="97.179" x2="87.275" y2="97.179"/>
	<line fill="none" stroke="#010202" stroke-width="2" stroke-miterlimit="10" x1="54.488" y1="106.172" x2="112.801" y2="106.172"/>
	<line fill="none" stroke="#010202" stroke-width="2" stroke-miterlimit="10" x1="54.488" y1="114.75" x2="152.02" y2="114.75"/>
	<line fill="none" stroke="#010202" stroke-width="2" stroke-miterlimit="10" x1="54.488" y1="124.117" x2="152.02" y2="124.117"/>
	<line fill="none" stroke="#010202" stroke-width="2" stroke-miterlimit="10" x1="54.488" y1="133.188" x2="112.801" y2="133.188"/>
	<line fill="none" stroke="#010202" stroke-width="2" stroke-miterlimit="10" x1="54.488" y1="142.18" x2="98.274" y2="142.18"/>
	<line fill="none" stroke="#010202" stroke-width="2" stroke-miterlimit="10" x1="54.488" y1="150.756" x2="87.275" y2="150.756"/>
	<line fill="none" stroke="#010202" stroke-width="2" stroke-miterlimit="10" x1="54.488" y1="160.125" x2="87.275" y2="160.125"/>
</g>
<g id="repère">
</g>
</svg>
