<?xml version="1.0" encoding="utf-8"?>
<!-- Generator: Adobe Illustrator 16.0.0, SVG Export Plug-In . SVG Version: 6.00 Build 0)  -->
<!DOCTYPE svg PUBLIC "-//W3C//DTD SVG 1.1//EN" "http://www.w3.org/Graphics/SVG/1.1/DTD/svg11.dtd">
<svg version="1.1" xmlns="http://www.w3.org/2000/svg" xmlns:xlink="http://www.w3.org/1999/xlink" x="0px" y="0px" width="500px"
	 height="500px" viewBox="0 0 500 500" enable-background="new 0 0 500 500" xml:space="preserve">
<g id="fond_test" display="none">
	<rect y="-4" display="inline" fill="#43B1E6" width="500" height="504"/>
</g>
<g id="Calque_6">
	<polyline fill="#FFFFFF" stroke="#EBAA26" stroke-width="7" stroke-miterlimit="10" points="36.68,317.154 20.232,328.381 
		250,433.287 480.25,212.53 465.385,208.086 	"/>
	<polyline fill="#FFFFFF" stroke="#EBAA26" stroke-width="7" stroke-miterlimit="10" points="36.198,296.881 19.75,308.105 
		249.517,413.014 479.766,192.256 464.902,187.813 	"/>
	<polyline fill="#FFFFFF" stroke="#EBAA26" stroke-width="7" stroke-miterlimit="10" points="36.439,277.896 19.991,289.12 
		249.758,394.029 480.008,173.271 465.143,168.827 	"/>
	<polygon fill="#FFFFFF" stroke="#EBAA26" stroke-width="7" stroke-miterlimit="10" points="19.991,270.777 249.758,370.215 
		480.008,154.928 280.65,99.9 	"/>
	
		<line fill="none" stroke="#EBAA26" stroke-width="7" stroke-miterlimit="10" x1="254.338" y1="139.018" x2="416.043" y2="187.813"/>
	<line fill="none" stroke="#EBAA26" stroke-width="7" stroke-miterlimit="10" x1="270.146" y1="124.859" x2="431.85" y2="173.654"/>
	
		<line fill="none" stroke="#EBAA26" stroke-width="7" stroke-miterlimit="10" x1="257.426" y1="222.086" x2="339.979" y2="252.572"/>
	
		<line fill="none" stroke="#EBAA26" stroke-width="7" stroke-miterlimit="10" x1="270.146" y1="209.183" x2="356.639" y2="239.429"/>
	
		<line fill="none" stroke="#EBAA26" stroke-width="7" stroke-miterlimit="10" x1="138.092" y1="216.714" x2="306.719" y2="278.911"/>
	
		<line fill="none" stroke="#EBAA26" stroke-width="7" stroke-miterlimit="10" x1="241.667" y1="237.041" x2="323.379" y2="265.768"/>
	<line fill="none" stroke="#EBAA26" stroke-width="7" stroke-miterlimit="10" x1="96.258" y1="242.137" x2="275.434" y2="308.492"/>
	
		<line fill="none" stroke="#EBAA26" stroke-width="7" stroke-miterlimit="10" x1="118.462" y1="229.909" x2="292.094" y2="295.348"/>
	<polyline fill="#C91F6E" points="147.616,211.357 229.5,242.137 266.834,204.167 194,180.667 172.5,195.5 	"/>
</g>
<g id="repère">
</g>
</svg>
