<?xml version="1.0" encoding="utf-8"?>
<!-- Generator: Adobe Illustrator 16.0.0, SVG Export Plug-In . SVG Version: 6.00 Build 0)  -->
<!DOCTYPE svg PUBLIC "-//W3C//DTD SVG 1.1//EN" "http://www.w3.org/Graphics/SVG/1.1/DTD/svg11.dtd">
<svg version="1.1" id="Calque_1" xmlns="http://www.w3.org/2000/svg" xmlns:xlink="http://www.w3.org/1999/xlink" x="0px" y="0px"
	 width="18.125px" height="20.438px" viewBox="0 0 18.125 20.438" enable-background="new 0 0 18.125 20.438" xml:space="preserve">
<rect x="5" fill="#FFFFFF" width="8.125" height="2.116"/>
<path fill="#FFFFFF" d="M9.063,2.313C4.058,2.313,0,6.37,0,11.375s4.058,9.063,9.063,9.063s9.063-4.058,9.063-9.063
	S14.067,2.313,9.063,2.313z M9.063,18.532c-3.953,0-7.157-3.205-7.157-7.157c0-3.953,3.204-7.157,7.157-7.157
	s7.157,3.205,7.157,7.157C16.22,15.327,13.016,18.532,9.063,18.532z"/>
<path fill="#FFFFFF" d="M14.271,8.699l0.113-1.41l-1.41-0.113l-5.086,4.312c-0.42,0.358-0.471,0.989-0.113,1.409l0,0
	c0.358,0.422,0.989,0.472,1.41,0.113L14.271,8.699z"/>
</svg>
