<?xml version="1.0" encoding="utf-8"?>
<!-- Generator: Adobe Illustrator 16.0.0, SVG Export Plug-In . SVG Version: 6.00 Build 0)  -->
<!DOCTYPE svg PUBLIC "-//W3C//DTD SVG 1.1//EN" "http://www.w3.org/Graphics/SVG/1.1/DTD/svg11.dtd">
<svg version="1.1" id="Calque_1" xmlns="http://www.w3.org/2000/svg" xmlns:xlink="http://www.w3.org/1999/xlink" x="0px" y="0px"
	 width="300px" height="268px" viewBox="0 0 300 268" enable-background="new 0 0 300 268" xml:space="preserve">
<g>
	<g>
		<path fill="#2E3192" d="M178.268,135.209c12.1,64.534-10.556,120.185-78.852,125.696C29.734,266.528-0.811,215.236,1.281,149.611
			C3.06,93.876,47.652,26.558,80.133,23.917C119.574,20.707,169.105,86.341,178.268,135.209z"/>
		<path fill="#F49AC1" d="M48.533,42.287l116.795,55.904c-4.109-8.316-8.938-16.535-14.287-24.305L61.783,31.162
			C57.365,34.113,52.913,37.871,48.533,42.287z"/>
		<path fill="#BFD730" d="M24.189,75.161l156.249,74.789c-0.515-4.849-1.239-9.768-2.171-14.74c-0.261-1.383-0.557-2.78-0.879-4.187
			l-144.781-69.3C29.675,65.974,26.854,70.472,24.189,75.161z"/>
		<path fill="#8ED8F8" d="M7.996,112.253l170.667,81.69c1.127-5.257,1.896-10.723,2.316-16.359L13.379,97.363
			C11.373,102.253,9.563,107.233,7.996,112.253z"/>
		<path fill="#BD1A8D" d="M170.474,217.399L2.382,136.941c-0.589,4.267-0.966,8.501-1.101,12.67
			c-0.045,1.419-0.069,2.828-0.084,4.233l160.695,76.916C165.183,226.638,168.039,222.169,170.474,217.399z"/>
		<path fill="#F99D1C" d="M3.162,182.157c1.087,6.879,2.632,13.46,4.635,19.688l114.621,54.864
			c7.051-2.108,13.429-4.901,19.156-8.299L3.162,182.157z"/>
	</g>
	<g>
		<path fill="#ED1941" d="M295.618,170.851c-15.014,65.556-59.039,108.56-125.431,85.822
			c-67.742-23.199-75.465-83.855-46.676-144.633c24.449-51.621,93.846-96.614,125.429-85.824
			C287.295,39.323,306.986,121.212,295.618,170.851z"/>
		<path fill="#FFDE17" d="M252.393,27.605c0,0.061,0.006,0.12,0.006,0.181c0,18.749-17.156,33.95-38.319,33.95
			c-13.289,0-24.995-5.996-31.867-15.099c-2.323,1.589-4.637,3.248-6.93,4.972c8.524,10.879,22.718,18.006,38.797,18.006
			c24.11,0,43.985-16.016,46.845-36.693C258.205,30.766,255.359,28.977,252.393,27.605z"/>
		<path fill="#F7941E" d="M214.079,40.794c8.11,0,14.684-5.825,14.684-13.009c0-0.761-0.089-1.501-0.229-2.225
			c-8.237,1.511-17.325,4.771-26.672,9.437C204.494,38.492,208.982,40.794,214.079,40.794z"/>
		<path fill="#F7941E" d="M285.225,149.103c-11.338-20.29-38.057-26.943-59.678-14.861c-21.621,12.082-29.957,38.323-18.621,58.613
			c11.339,20.291,38.058,26.944,59.678,14.862C288.226,195.635,296.563,169.394,285.225,149.103z M259.699,195.357
			c-14.348,8.018-32.078,3.604-39.604-9.862c-7.521-13.465-1.99-30.877,12.357-38.895c14.348-8.019,32.078-3.603,39.602,9.861
			C279.578,169.927,274.046,187.341,259.699,195.357z"/>
		<path fill="#B11116" d="M259.679,163.378c-3.939-7.05-13.224-9.362-20.735-5.164c-7.514,4.197-10.41,13.316-6.471,20.365
			c3.94,7.051,13.225,9.363,20.735,5.165C260.721,179.546,263.619,170.428,259.679,163.378z M250.81,179.45
			c-4.985,2.785-11.146,1.252-13.761-3.427c-2.614-4.679-0.693-10.73,4.293-13.516s11.146-1.252,13.76,3.427
			C257.717,170.612,255.795,176.663,250.81,179.45z"/>
		<path fill="#FDBA4D" d="M170.209,175.728c-2.006-17.715-16.014-30.672-31.288-28.941c-15.272,1.73-26.025,17.492-24.017,35.207
			c2.006,17.716,16.014,30.672,31.285,28.942C161.463,209.204,172.217,193.441,170.209,175.728z M145.34,203.428
			c-11.697,1.324-22.428-8.599-23.964-22.168c-1.538-13.567,6.698-25.641,18.396-26.966c11.698-1.326,22.428,8.598,23.966,22.166
			C165.274,190.029,157.037,202.102,145.34,203.428z"/>
		<path fill="#F37021" d="M145.492,177.997c-0.554-4.891-4.42-8.467-8.637-7.99c-4.215,0.479-7.185,4.829-6.63,9.719
			c0.555,4.892,4.421,8.468,8.638,7.99C143.078,187.237,146.047,182.886,145.492,177.997z"/>
		<path fill="#FCAF17" d="M282.789,62.968c-3.441,1.835-5.787,5.457-5.787,9.631c0,6.024,4.885,10.908,10.908,10.908
			c0.871,0,1.713-0.113,2.523-0.306C288.273,76.081,285.717,69.269,282.789,62.968z"/>
		<circle fill="#FCAF17" cx="253.973" cy="91.645" r="10.908"/>
		<circle fill="#FCAF17" cx="215.313" cy="98.951" r="10.909"/>
		<path fill="#FFDD00" d="M153.465,237.733c-4.293,0-7.998,2.486-9.777,6.094c5.695,3.806,12.115,7.203,19.295,10.138
			c0.883-1.575,1.391-3.39,1.391-5.323C164.373,242.616,159.489,237.733,153.465,237.733z"/>
		<circle fill="#FFDD00" cx="188.614" cy="237.733" r="10.909"/>
		<circle fill="#FFDD00" cx="228.763" cy="243.793" r="10.908"/>
		<circle fill="#FCAF17" cx="175.282" cy="96.703" r="10.909"/>
		<path fill="#FCAF17" d="M141.068,98.951c6.023,0,10.908-4.883,10.908-10.908c0-4.167-2.338-7.785-5.771-9.622
			c-4.799,5.441-9.236,11.128-13.169,16.986C135.029,97.58,137.885,98.951,141.068,98.951z"/>
	</g>
	<g>
		<path fill="#92278F" d="M245.34,134c7.396,70.756-21.963,128.866-96.201,128.815C73.391,262.765,44.912,204.688,52.939,134
			C59.756,73.964,113.832,5.184,149.139,5.184C192.017,5.184,239.738,80.42,245.34,134z"/>
		<path fill="#7ED3F7" d="M245.34,134c0.774,7.399-10.664-20.146-10.664-20.146L212.557,141.5l-19.394-26.434L168.618,141.5
			l-19.478-25.828L127.105,138.7l-21.514-23.937L84.985,141.5l-21.514-28.555c0,0-11.675,31.105-10.532,21.056
			C59.756,73.964,113.832,5.184,149.139,5.184C192.017,5.184,239.738,80.42,245.34,134z"/>
		<path fill="#FFCB05" d="M218.789,61.084l-5.793,7.571l-21.32-27.863l-21.317,27.863l-21.321-27.863l-21.318,27.863l-21.32-27.863
			L85.08,68.656l-5.068-6.624c-1.606,2.558-3.17,5.165-4.682,7.814l9.75,12.742l21.318-27.864l21.32,27.864l21.318-27.864
			l21.321,27.864l21.317-27.864l21.32,27.864l10.377-13.563C221.9,66.339,220.371,63.689,218.789,61.084z"/>
		<path fill="#72BF44" d="M234.314,199.574l-21.318,27.864l-21.32-27.864l-21.317,27.864l-21.321-27.864l-21.318,27.864
			l-21.32-27.864L85.08,227.438l-21.319-27.864l-4.171,5.452c0.747,2.008,1.543,3.98,2.396,5.909l1.774-2.321l21.319,27.865
			l21.318-27.865l21.32,27.865l21.318-27.865l21.321,27.865l21.317-27.865l21.32,27.865l21.318-27.865l1.465,1.916
			c0.857-1.925,1.657-3.892,2.408-5.896L234.314,199.574z"/>
		<path fill="#C6168D" d="M212.996,130.417l-21.32-27.864l-21.317,27.864l-21.321-27.864l-21.318,27.864l-21.32-27.864
			L85.08,130.417l-21.319-27.864l-5.887,7.696c-2.349,7.95-4.046,15.924-4.935,23.751c-0.27,2.363-0.494,4.709-0.68,7.042
			l11.501-15.032l21.319,27.865l21.318-27.865l21.32,27.865l21.318-27.865l21.321,27.865l21.317-27.865l21.32,27.865l21.318-27.865
			l11.653,15.229c-0.167-2.397-0.374-4.811-0.628-7.24c-0.768-7.341-2.33-15.09-4.558-22.994l-6.468-8.453L212.996,130.417z"/>
	</g>
</g>
</svg>
