<?xml version="1.0" encoding="utf-8"?>
<!-- Generator: Adobe Illustrator 16.0.0, SVG Export Plug-In . SVG Version: 6.00 Build 0)  -->
<!DOCTYPE svg PUBLIC "-//W3C//DTD SVG 1.1//EN" "http://www.w3.org/Graphics/SVG/1.1/DTD/svg11.dtd">
<svg version="1.1" id="Calque_1" xmlns="http://www.w3.org/2000/svg" xmlns:xlink="http://www.w3.org/1999/xlink" x="0px" y="0px"
	 width="300px" height="268px" viewBox="0 0 300 268" enable-background="new 0 0 300 268" xml:space="preserve">
<g>
	<g>
		<path fill="#D11A6F" d="M47.468,134c4.335-38.182,26.758-79.702,52.06-106.725c-6.585-2.632-13.117-3.87-19.395-3.359
			C47.652,26.558,3.06,93.876,1.281,149.611c-2.092,65.625,28.453,116.918,98.135,111.295c0.603-0.049,1.193-0.111,1.788-0.166
			C57.161,240.783,40.959,191.315,47.468,134z"/>
		<path fill="#FAA61A" d="M86.403,42.946l-24.62-11.784c-4.418,2.951-8.87,6.709-13.25,11.125l28.752,13.763
			C80.204,51.51,83.254,47.129,86.403,42.946z"/>
		<path fill="#FAA61A" d="M65.199,77.323L32.607,61.722c-2.933,4.252-5.754,8.75-8.418,13.438l34.53,16.528
			C60.688,86.836,62.858,82.036,65.199,77.323z"/>
		<path fill="#FAA61A" d="M46.084,157.859L2.382,136.941c-0.589,4.267-0.966,8.501-1.101,12.67
			c-0.045,1.419-0.069,2.828-0.084,4.233l45.794,21.919C46.393,169.951,46.089,163.976,46.084,157.859z"/>
		<path fill="#FAA61A" d="M50.92,115.332L13.379,97.363c-2.006,4.891-3.816,9.87-5.383,14.891l39.81,19.055
			C48.52,126.023,49.572,120.682,50.92,115.332z"/>
		<path fill="#FAA61A" d="M53.492,206.248l-50.33-24.091c1.087,6.879,2.632,13.46,4.635,19.688l56.561,27.073
			C59.904,222.022,56.291,214.426,53.492,206.248z"/>
	</g>
	<g>
		<path fill="#D11A6F" d="M248.94,26.215c-10.954-3.742-26.46-0.77-43.06,6.859c23.409,28.229,41.537,68.36,44.941,100.926
			c6.135,58.683-11.657,109.13-57.514,128.109c53.505,6.547,89.114-33.642,102.31-91.259
			C306.986,121.212,287.295,39.323,248.94,26.215z"/>
		<path fill="#FAA61A" d="M224.811,60.376c1.373,2.356,2.701,4.746,3.99,7.157c17.09-4.969,29.873-18.345,32.123-34.612
			c-2.719-2.155-5.564-3.944-8.531-5.316c0,0.061,0.006,0.12,0.006,0.181C252.398,43.233,240.748,56.263,224.811,60.376z"/>
		<path fill="#FAA61A" d="M211.805,40.622c0.743,0.103,1.498,0.173,2.274,0.173c8.11,0,14.684-5.825,14.684-13.009
			c0-0.761-0.089-1.501-0.229-2.225c-7.05,1.293-14.725,3.876-22.649,7.517C207.898,35.507,209.873,38.027,211.805,40.622z"/>
		<path fill="#FAA61A" d="M285.225,149.103c-7.23-12.938-20.717-20.32-35.146-20.845c0.295,1.937,0.546,3.854,0.743,5.743
			c0.312,2.978,0.554,5.933,0.742,8.866c8.479,1.122,16.169,5.863,20.49,13.596c7.523,13.465,1.991,30.879-12.355,38.896
			c-4.271,2.388-8.844,3.664-13.357,3.937c-1.423,4.99-3.122,9.791-5.097,14.381c8.451,0.463,17.263-1.434,25.358-5.958
			C288.226,195.635,296.563,169.394,285.225,149.103z"/>
		<path fill="#FAA61A" d="M259.679,163.378c-1.732-3.101-4.499-5.282-7.694-6.399c-0.011,1.881-0.05,3.748-0.115,5.602
			c1.315,0.809,2.439,1.934,3.232,3.354c2.615,4.678,0.693,10.729-4.292,13.516c-0.128,0.071-0.259,0.128-0.388,0.193
			c-0.259,1.883-0.551,3.746-0.873,5.59c1.244-0.345,2.475-0.827,3.659-1.489C260.721,179.546,263.619,170.428,259.679,163.378z"/>
		<path fill="#FAA61A" d="M282.789,62.968c-3.441,1.835-5.787,5.457-5.787,9.631c0,6.024,4.885,10.908,10.908,10.908
			c0.871,0,1.713-0.113,2.523-0.306C288.273,76.081,285.717,69.269,282.789,62.968z"/>
		<circle fill="#FAA61A" cx="253.973" cy="91.645" r="10.908"/>
		<path fill="#FAA61A" d="M230.323,233.008c-3.58,4.917-7.615,9.432-12.118,13.486c1.204,4.717,5.468,8.207,10.558,8.207
			c6.024,0,10.908-4.883,10.908-10.908C239.671,238.299,235.606,233.767,230.323,233.008z"/>
	</g>
	<g>
		<path fill="#FAA61A" d="M245.34,134c7.396,70.756-21.963,128.867-96.201,128.816C73.391,262.766,44.912,204.688,52.939,134
			C59.756,73.964,113.832,5.184,149.139,5.184C192.017,5.184,239.738,80.42,245.34,134z"/>
		<path fill="#D11A6F" d="M218.789,61.084l-5.793,7.571l-21.32-27.863l-21.317,27.863l-21.321-27.863l-21.318,27.863l-21.32-27.863
			L85.08,68.656l-5.068-6.624c-1.606,2.558-3.17,5.165-4.682,7.814l9.75,12.742l21.318-27.864l21.32,27.864l21.318-27.864
			l21.321,27.864l21.317-27.864l21.32,27.864l10.377-13.563C221.9,66.339,220.371,63.689,218.789,61.084z"/>
		<path fill="#D11A6F" d="M234.314,199.574l-21.318,27.864l-21.32-27.864l-21.317,27.864l-21.321-27.864l-21.318,27.864
			l-21.32-27.864L85.08,227.438l-21.319-27.864l-4.171,5.452c0.747,2.008,1.543,3.98,2.396,5.909l1.774-2.321l21.319,27.865
			l21.318-27.865l21.32,27.865l21.318-27.865l21.321,27.865l21.317-27.865l21.32,27.865l21.318-27.865l1.465,1.916
			c0.857-1.925,1.657-3.892,2.408-5.896L234.314,199.574z"/>
		<path fill="#D11A6F" d="M212.996,130.417l-21.32-27.864l-21.317,27.864l-21.321-27.864l-21.318,27.864l-21.32-27.864
			L85.08,130.417l-21.319-27.864l-5.887,7.696c-2.349,7.95-4.046,15.924-4.935,23.751c-0.27,2.363-0.494,4.709-0.68,7.042
			l11.501-15.032l21.319,27.865l21.318-27.865l21.32,27.865l21.318-27.865l21.321,27.865l21.317-27.865l21.32,27.865l21.318-27.865
			l11.653,15.229c-0.167-2.397-0.374-4.811-0.628-7.24c-0.768-7.341-2.33-15.09-4.558-22.994l-6.468-8.453L212.996,130.417z"/>
	</g>
</g>
</svg>
