<?xml version="1.0" encoding="utf-8"?>
<!-- Generator: Adobe Illustrator 16.0.0, SVG Export Plug-In . SVG Version: 6.00 Build 0)  -->
<!DOCTYPE svg PUBLIC "-//W3C//DTD SVG 1.1//EN" "http://www.w3.org/Graphics/SVG/1.1/DTD/svg11.dtd">
<svg version="1.1" id="Calque_1" xmlns="http://www.w3.org/2000/svg" xmlns:xlink="http://www.w3.org/1999/xlink" x="0px" y="0px"
	 width="300px" height="300px" viewBox="0 0 300 300" enable-background="new 0 0 300 300" xml:space="preserve">
<g>
	<path d="M236.542,117.353c16.478,0,35.976,7.593,34.016,16.477c-3.01,13.642-14.351,8.503-20.197,15.945
		c-5.846,7.44-5.313,24.98-19.663,23.385c-14.353-1.595-13.29-22.854-13.822-33.483
		C216.345,129.046,218.471,117.353,236.542,117.353z"/>
	<path d="M211.129,149.666c-2.485,5.444-11.393,6.702-19.89,2.813c-8.495-3.888-13.361-11.45-10.869-16.896
		c2.495-5.441,11.397-6.701,19.893-2.813C208.756,136.657,213.626,144.222,211.129,149.666z"/>
	<path d="M254.973,114.786c-5.503,2.344-12.93-2.732-16.582-11.332c-3.654-8.6-2.151-17.464,3.362-19.807
		c5.509-2.338,12.935,2.734,16.59,11.333C261.991,103.578,260.487,112.448,254.973,114.786z"/>
	<path d="M223.456,107.314c-5.994,2.846-14.569-2.697-19.158-12.374c-4.583-9.677-3.438-19.824,2.566-22.667
		c5.996-2.838,14.58,2.699,19.158,12.376C230.608,94.321,229.462,104.474,223.456,107.314z"/>
	<path d="M208.281,119.818c-3.521,5.303-13.433,4.904-22.132-0.884c-8.7-5.791-12.89-14.781-9.354-20.088
		c3.527-5.295,13.439-4.908,22.135,0.888C207.624,105.52,211.818,114.516,208.281,119.818z"/>
</g>
<g>
	<path d="M66.323,180.014c16.478,0,35.976,7.593,34.016,16.477c-3.01,13.642-14.351,8.503-20.197,15.945
		c-5.846,7.44-5.313,24.98-19.663,23.385c-14.352-1.594-13.291-22.854-13.822-33.483C46.127,191.707,48.252,180.014,66.323,180.014z
		"/>
	<path d="M40.91,212.326c-2.486,5.445-11.393,6.703-19.89,2.814c-8.495-3.889-13.362-11.451-10.87-16.896
		c2.496-5.441,11.398-6.701,19.894-2.813C38.537,199.318,43.407,206.883,40.91,212.326z"/>
	<path d="M84.754,177.447c-5.503,2.344-12.93-2.732-16.582-11.332c-3.654-8.6-2.151-17.464,3.362-19.806
		c5.509-2.338,12.935,2.734,16.59,11.333C91.771,166.238,90.268,175.109,84.754,177.447z"/>
	<path d="M53.237,169.975c-5.995,2.847-14.569-2.697-19.157-12.373c-4.584-9.677-3.439-19.824,2.565-22.668
		c5.996-2.837,14.58,2.699,19.159,12.376C60.389,156.982,59.244,167.135,53.237,169.975z"/>
	<path d="M38.063,182.479c-3.521,5.304-13.433,4.904-22.132-0.884c-8.7-5.791-12.89-14.781-9.354-20.088
		c3.526-5.295,13.439-4.908,22.134,0.888C37.405,168.182,41.6,177.178,38.063,182.479z"/>
</g>
<path d="M61.002,16.341c16.478,0,35.976,7.592,34.016,16.476c-3.01,13.642-14.351,8.503-20.197,15.945
	c-5.846,7.44-5.313,24.98-19.663,23.385c-14.353-1.594-13.291-22.854-13.822-33.483C40.805,28.034,42.931,16.341,61.002,16.341z"/>
<path d="M35.589,48.654c-2.486,5.444-11.393,6.702-19.89,2.813C7.204,47.579,2.337,40.017,4.829,34.571
	c2.496-5.44,11.398-6.701,19.894-2.813C33.216,35.646,38.085,43.21,35.589,48.654z"/>
<g>
	<path d="M275.605,271.006c-5.503,2.344-12.93-2.732-16.582-11.332c-3.654-8.6-2.151-17.464,3.361-19.807
		c5.51-2.338,12.936,2.734,16.591,11.334C282.623,259.797,281.119,268.668,275.605,271.006z"/>
	<path d="M244.089,263.533c-5.995,2.847-14.569-2.697-19.158-12.373c-4.583-9.678-3.438-19.824,2.565-22.668
		c5.996-2.838,14.581,2.699,19.159,12.377C251.24,250.541,250.095,260.693,244.089,263.533z"/>
	<path d="M228.914,276.038c-3.521,5.304-13.433,4.904-22.132-0.884c-8.7-5.791-12.89-14.781-9.354-20.088
		c3.526-5.295,13.439-4.908,22.134,0.888C228.257,261.74,232.451,270.736,228.914,276.038z"/>
	<path d="M231.942,299.999c-1.315-4.158-5.362-8.407-11.047-11.009c-8.495-3.889-17.397-2.629-19.894,2.813
		c-1.134,2.477-0.731,5.389,0.828,8.196H231.942z"/>
	<path d="M237.655,299.999h45.445c3.562-1.38,6.707-3.681,8.09-9.95c1.96-8.884-17.538-16.477-34.017-16.477
		c-18.07,0-20.196,11.693-19.666,22.323C237.569,297.134,237.61,298.521,237.655,299.999z"/>
</g>
<path d="M61.965,0c0.255,0.813,0.54,1.629,0.886,2.443c3.652,8.599,11.079,13.675,16.582,11.331
	C83.647,11.987,85.509,6.381,84.527,0H61.965z"/>
<path d="M32.573,0c4.666,5.736,10.757,8.479,15.343,6.302c2.368-1.12,3.967-3.386,4.771-6.302H32.573z"/>
<path d="M25.16,0H0.283c-1.437,5.354,2.721,12.861,10.326,17.923c8.699,5.788,18.61,6.187,22.132,0.883
	C36.028,13.88,32.633,5.767,25.16,0z"/>
</svg>
