<?xml version="1.0" encoding="utf-8"?>
<!-- Generator: Adobe Illustrator 16.0.0, SVG Export Plug-In . SVG Version: 6.00 Build 0)  -->
<!DOCTYPE svg PUBLIC "-//W3C//DTD SVG 1.1//EN" "http://www.w3.org/Graphics/SVG/1.1/DTD/svg11.dtd">
<svg version="1.1" xmlns="http://www.w3.org/2000/svg" xmlns:xlink="http://www.w3.org/1999/xlink" x="0px" y="0px"
	 width="299.99px" height="299.99px" viewBox="0 0 299.99 299.99" enable-background="new 0 0 299.99 299.99" xml:space="preserve">
<g id="Calque_2" display="none">
	<ellipse display="inline" fill="#F4BAE1" cx="160.828" cy="171.162" rx="332.333" ry="250"/>
</g>
<g id="Calque_4">
	<path fill="#38B349" d="M293.027,115.285c0,0-53.088-13.406-99.205,11.797c0,0-3.217,40.219-26.275,43.436
		c-1.613,0.226-3.075,0.572-4.427,1.002v-0.014c0,0-1.148-13.822-3.473-13.375s-3.396,7.555-9.651,6.682v21.271
		c0,0.001-0.001,0.001-0.001,0.003v-21.273c-6.257,0.873-7.328-6.234-9.652-6.682c-2.324-0.447-3.473,13.375-3.473,13.375v0.014
		c-1.351-0.43-2.813-0.776-4.425-1.002c-23.059-3.217-26.276-43.436-26.276-43.436C60.052,101.88,6.964,115.285,6.964,115.285
		c41.827,6.971,20.377,38.073,20.377,38.073c32.174-10.188,21.986,25.74,21.986,25.74c34.855-25.203,48.798,11.797,48.798,11.797
		c36.893-24.764,49.969,11.434,51.801,12.539c0.014,0.014,0.029,0.02,0.045,0.023c0.009,0.002,0.018,0.004,0.025,0.005
		c0.008-0.001,0.016-0.003,0.024-0.005c0.016-0.004,0.032-0.01,0.045-0.023c1.832-1.105,14.908-37.303,51.801-12.539
		c0,0,13.942-37,48.798-11.797c0,0-10.188-35.929,21.986-25.74C272.65,153.358,251.2,122.257,293.027,115.285z M147.174,173.086
		c-1.241-0.229-5.474-1.113-6.538-2.71l6.882,2.771C147.517,173.146,147.391,173.126,147.174,173.086z M153.556,173.086
		c-0.219,0.04-0.344,0.061-0.344,0.061l6.881-2.771C159.029,171.972,154.797,172.857,153.556,173.086z"/>
	<g>
		<path fill="#D90A8C" d="M102.328,128.495c0,0-15.167-2.75-40.75,7.5s-32.058,16.06-34.237,17.363
			C27.341,153.358,74.328,125.161,102.328,128.495z"/>
		<path fill="#D90A8C" d="M100.748,130.441c0.249-0.065,0.497-0.135,0.747-0.196C101.495,130.245,101.231,130.302,100.748,130.441z"
			/>
		<path fill="#D90A8C" d="M49.327,179.098c23.722-39.095,47.032-47.396,51.421-48.657C69.548,138.649,49.327,179.098,49.327,179.098
			z"/>
		<path fill="#D90A8C" d="M102.995,131.745c-17.75,18.75-4.87,59.15-4.87,59.15c-1.12-6.85-4.102-21.188-3.38-35.15
			S102.995,131.745,102.995,131.745z"/>
		<path fill="#D90A8C" d="M273.044,153.358c-2.179-1.304-8.653-7.113-34.236-17.363c-25.584-10.25-40.75-7.5-40.75-7.5
			C226.057,125.161,273.044,153.358,273.044,153.358z"/>
		<path fill="#D90A8C" d="M199.637,130.441c-0.483-0.139-0.747-0.196-0.747-0.196C199.14,130.306,199.387,130.376,199.637,130.441z"
			/>
		<path fill="#D90A8C" d="M199.637,130.441c4.389,1.262,27.699,9.562,51.421,48.657
			C251.058,179.098,230.837,138.649,199.637,130.441z"/>
		<path fill="#D90A8C" d="M205.64,155.745c0.722,13.962-2.26,28.301-3.38,35.15c0,0,12.88-40.4-4.87-59.15
			C197.39,131.745,204.919,141.783,205.64,155.745z"/>
	</g>
</g>
<g id="Calque_3" display="none">
</g>
</svg>
