<?xml version="1.0" encoding="utf-8"?>
<!-- Generator: Adobe Illustrator 16.0.0, SVG Export Plug-In . SVG Version: 6.00 Build 0)  -->
<!DOCTYPE svg PUBLIC "-//W3C//DTD SVG 1.1//EN" "http://www.w3.org/Graphics/SVG/1.1/DTD/svg11.dtd">
<svg version="1.1" id="Calque_1" xmlns="http://www.w3.org/2000/svg" xmlns:xlink="http://www.w3.org/1999/xlink" x="0px" y="0px"
	 width="240.879px" height="300px" viewBox="0 0 240.879 300" enable-background="new 0 0 240.879 300" xml:space="preserve">
<path d="M214.224,143.9H61.341V88.802c0-32.639,26.46-59.099,59.098-59.099c32.638,0,59.097,26.46,59.097,59.099v17.837h20.496
	V87.861c0-43.959-35.635-79.594-79.593-79.594c-43.958,0-79.593,35.635-79.593,79.594V143.9H26.67c-4.908,0-8.878,3.973-8.878,8.883
	v130.078c0,4.899,3.97,8.871,8.878,8.871h187.553c4.893,0,8.863-3.972,8.863-8.871V152.783
	C223.087,147.873,219.116,143.9,214.224,143.9z M136.962,259.067H105l5.356-55.908c-4.98-3.584-8.25-9.411-8.25-16.021
	c0-10.918,8.842-19.771,19.77-19.771c10.927,0,19.769,8.853,19.769,19.771c0,6.997-3.646,13.108-9.125,16.633L136.962,259.067z"/>
</svg>
