<?xml version="1.0" encoding="utf-8"?>
<!-- Generator: Adobe Illustrator 16.0.0, SVG Export Plug-In . SVG Version: 6.00 Build 0)  -->
<!DOCTYPE svg PUBLIC "-//W3C//DTD SVG 1.1//EN" "http://www.w3.org/Graphics/SVG/1.1/DTD/svg11.dtd">
<svg version="1.1" id="Calque_1" xmlns="http://www.w3.org/2000/svg" xmlns:xlink="http://www.w3.org/1999/xlink" x="0px" y="0px"
	 width="299.99px" height="262.5px" viewBox="0 0 299.99 262.5" enable-background="new 0 0 299.99 262.5" xml:space="preserve">
<path fill="#FAA61A" d="M283.917,125.135H148.648V77.23c0-38.738-31.402-70.142-70.141-70.142S8.366,38.492,8.366,77.23
	L8.263,93.777h18.062l0.104-15.718c0-28.764,23.317-52.08,52.08-52.08c28.762,0,52.079,23.316,52.079,52.08v47.076h-11.95
	c-4.325,0-7.823,3.502-7.823,7.828v114.631c0,4.318,3.498,7.818,7.823,7.818h165.28c4.313,0,7.811-3.5,7.811-7.818V132.963
	C291.728,128.637,288.229,125.135,283.917,125.135z M215.831,226.625h-28.167l4.721-49.268c-4.389-3.158-7.27-8.293-7.27-14.119
	c0-9.621,7.792-17.422,17.421-17.422c9.63,0,17.421,7.801,17.421,17.422c0,6.166-3.212,11.553-8.039,14.658L215.831,226.625z"/>
</svg>
