<?xml version="1.0" encoding="utf-8"?>
<!-- Generator: Adobe Illustrator 16.0.0, SVG Export Plug-In . SVG Version: 6.00 Build 0)  -->
<!DOCTYPE svg PUBLIC "-//W3C//DTD SVG 1.1//EN" "http://www.w3.org/Graphics/SVG/1.1/DTD/svg11.dtd">
<svg version="1.1" id="Calque_1" xmlns="http://www.w3.org/2000/svg" xmlns:xlink="http://www.w3.org/1999/xlink" x="0px" y="0px"
	 width="240.879px" height="300px" viewBox="0 0 240.879 300" enable-background="new 0 0 240.879 300" xml:space="preserve">
<g>
	<path fill="#6DCFF6" d="M57.573,142.106V93.938c0-34.721,28.146-62.867,62.866-62.867s62.866,28.146,62.866,62.867v48.169h21.803
		v-49.17c0-46.762-37.908-84.669-84.669-84.669c-46.762,0-84.669,37.907-84.669,84.669v49.17H57.573z"/>
	<path fill="#0A4E9B" d="M20.691,134.474c-5.222,0-9.444,4.227-9.444,9.449v138.373c0,5.212,4.223,9.437,9.444,9.437h199.513
		c5.205,0,9.428-4.225,9.428-9.437V143.923c0-5.223-4.223-9.449-9.428-9.449H20.691z M133.292,198.162l4.723,58.822h-34
		l5.699-59.473c-5.298-3.813-8.775-10.012-8.775-17.043c0-11.614,9.405-21.031,21.03-21.031c11.623,0,21.029,9.417,21.029,21.031
		C142.997,187.912,139.118,194.413,133.292,198.162z"/>
</g>
</svg>
