<?xml version="1.0" encoding="utf-8"?>
<!-- Generator: Adobe Illustrator 16.0.0, SVG Export Plug-In . SVG Version: 6.00 Build 0)  -->
<!DOCTYPE svg PUBLIC "-//W3C//DTD SVG 1.1//EN" "http://www.w3.org/Graphics/SVG/1.1/DTD/svg11.dtd">
<svg version="1.1" id="Calque_1" xmlns="http://www.w3.org/2000/svg" xmlns:xlink="http://www.w3.org/1999/xlink" x="0px" y="0px"
	 width="240.879px" height="300px" viewBox="0 0 240.879 300" enable-background="new 0 0 240.879 300" xml:space="preserve">
<path d="M220.204,134.474h-15.096V92.937c0-46.762-37.908-84.669-84.669-84.669c-46.762,0-84.669,37.907-84.669,84.669v41.537
	H20.691c-5.222,0-9.444,4.227-9.444,9.449v138.373c0,5.212,4.223,9.437,9.444,9.437h199.513c5.205,0,9.428-4.225,9.428-9.437
	V143.923C229.632,138.7,225.409,134.474,220.204,134.474z M57.573,93.938c0-34.721,28.146-62.867,62.866-62.867
	s62.866,28.146,62.866,62.867v40.536H57.573V93.938z M138.016,256.984h-34l5.699-59.473c-5.298-3.813-8.775-10.012-8.775-17.043
	c0-11.614,9.405-21.031,21.029-21.031s21.029,9.417,21.029,21.031c0,7.443-3.878,13.944-9.705,17.693L138.016,256.984z"/>
</svg>
