<?xml version="1.0" encoding="utf-8"?>
<!-- Generator: Adobe Illustrator 16.0.0, SVG Export Plug-In . SVG Version: 6.00 Build 0)  -->
<!DOCTYPE svg PUBLIC "-//W3C//DTD SVG 1.1//EN" "http://www.w3.org/Graphics/SVG/1.1/DTD/svg11.dtd">
<svg version="1.1" id="Calque_1" xmlns="http://www.w3.org/2000/svg" xmlns:xlink="http://www.w3.org/1999/xlink" x="0px" y="0px"
	 width="299.99px" height="262.5px" viewBox="0 0 299.99 262.5" enable-background="new 0 0 299.99 262.5" xml:space="preserve">
<g>
	<path fill="#D11A6F" d="M130.587,131.988V78.059c0-28.764-23.317-52.08-52.079-52.08c-28.763,0-52.08,23.316-52.08,52.08
		l-0.104,15.718H8.263L8.366,77.23c0-38.738,31.403-70.142,70.142-70.142s70.141,31.403,70.141,70.142v54.758H130.587z"/>
	<path fill="#FAA61A" d="M118.637,125.135c-4.325,0-7.823,3.502-7.823,7.828v114.631c0,4.318,3.498,7.818,7.823,7.818h165.281
		c4.313,0,7.811-3.5,7.811-7.818V132.963c0-4.326-3.498-7.828-7.811-7.828H118.637z M211.918,177.897l3.914,48.729h-28.168
		l4.721-49.268c-4.389-3.158-7.27-8.293-7.27-14.119c0-9.621,7.793-17.422,17.422-17.422s17.42,7.801,17.42,17.422
		C219.957,169.405,216.746,174.792,211.918,177.897z"/>
</g>
</svg>
