<?xml version="1.0" encoding="utf-8"?>
<!-- Generator: Adobe Illustrator 16.0.0, SVG Export Plug-In . SVG Version: 6.00 Build 0)  -->
<!DOCTYPE svg PUBLIC "-//W3C//DTD SVG 1.1//EN" "http://www.w3.org/Graphics/SVG/1.1/DTD/svg11.dtd">
<svg version="1.1" id="Calque_1" xmlns="http://www.w3.org/2000/svg" xmlns:xlink="http://www.w3.org/1999/xlink" x="0px" y="0px"
	 width="299.99px" height="262.5px" viewBox="0 0 299.99 262.5" enable-background="new 0 0 299.99 262.5" xml:space="preserve">
<g>
	<path fill="#D80B8C" d="M130.587,131.99V78.06c0-28.764-23.317-52.08-52.079-52.08c-28.763,0-52.08,23.316-52.08,52.08
		l-0.104,15.718H8.263L8.366,77.23c0-38.738,31.403-70.142,70.142-70.142s70.141,31.403,70.141,70.142v54.759H130.587z"/>
	<path fill="#39B54A" d="M118.637,125.136c-4.325,0-7.823,3.502-7.823,7.829v114.631c0,4.316,3.498,7.816,7.823,7.816h165.281
		c4.313,0,7.811-3.5,7.811-7.816V132.964c0-4.327-3.498-7.829-7.811-7.829H118.637z M211.918,177.896l3.914,48.73h-28.168
		l4.721-49.27c-4.389-3.158-7.27-8.293-7.27-14.117c0-9.621,7.793-17.424,17.422-17.424s17.42,7.803,17.42,17.424
		C219.957,169.406,216.746,174.791,211.918,177.896z"/>
</g>
</svg>
