<?xml version="1.0" encoding="utf-8"?>
<!-- Generator: Adobe Illustrator 16.0.0, SVG Export Plug-In . SVG Version: 6.00 Build 0)  -->
<!DOCTYPE svg PUBLIC "-//W3C//DTD SVG 1.1//EN" "http://www.w3.org/Graphics/SVG/1.1/DTD/svg11.dtd">
<svg version="1.1" id="Calque_1" xmlns="http://www.w3.org/2000/svg" xmlns:xlink="http://www.w3.org/1999/xlink" x="0px" y="0px"
	 width="240.879px" height="300px" viewBox="0 0 240.879 300" enable-background="new 0 0 240.879 300" xml:space="preserve">
<g>
	<path fill="#007DBA" d="M61.342,148.116V88.803c0-32.64,26.459-59.099,59.098-59.099c32.637,0,59.096,26.459,59.096,59.099v17.836
		h20.496V87.862c0-43.958-35.635-79.593-79.592-79.593c-43.959,0-79.594,35.635-79.594,79.593v60.254H61.342z"/>
	<path fill="#FFCB05" d="M26.671,143.901c-4.908,0-8.878,3.973-8.878,8.882v130.078c0,4.898,3.97,8.869,8.878,8.869h187.552
		c4.893,0,8.861-3.971,8.861-8.869V152.783c0-4.91-3.969-8.882-8.861-8.882H26.671z M132.522,203.771l4.439,55.295H105l5.356-55.906
		c-4.98-3.584-8.249-9.412-8.249-16.021c0-10.918,8.841-19.771,19.768-19.771c10.928,0,19.77,8.854,19.77,19.771
		C141.646,194.135,137.999,200.246,132.522,203.771z"/>
</g>
</svg>
