<?xml version="1.0" standalone="no"?><!-- Generator: Gravit.io --><svg xmlns="http://www.w3.org/2000/svg" xmlns:xlink="http://www.w3.org/1999/xlink" style="isolation:isolate" viewBox="0 0 300 300" width="300" height="300"><defs><clipPath id="_clipPath_quZ795GIqC7Fnq88Cbswzs8RAqayFea8"><rect width="300" height="300"/></clipPath></defs><g clip-path="url(#_clipPath_quZ795GIqC7Fnq88Cbswzs8RAqayFea8)"><path d=" M 150 0 C 150.01 0 150.021 0 150.031 0 C 232.819 0 300.031 67.213 300.031 150 C 300.031 232.787 232.819 300 150.031 300 L 150.031 150 L 150 0 Z " fill="rgb(82,190,128)"/><path d=" M 150 300 C 149.99 300 149.979 300 149.969 300 C 67.181 300 -0.031 232.787 -0.031 150 C -0.031 67.213 67.181 0 149.969 0 L 149.969 150 L 150 300 Z " fill="rgb(39,174,96)"/><defs><filter id="rZofbPFoi55iOLNSIXSAkzkyKSQhpM0E" x="-200%" y="-200%" width="400%" height="400%"><feOffset xmlns="http://www.w3.org/2000/svg" in="SourceAlpha" result="offOut" dx="5" dy="5"/><feGaussianBlur xmlns="http://www.w3.org/2000/svg" in="offOut" result="blurOut" stdDeviation="2.5"/><feComponentTransfer xmlns="http://www.w3.org/2000/svg" in="blurOut" result="opacOut"><feFuncA xmlns="http://www.w3.org/2000/svg" type="table" tableValues="0 0.5"/></feComponentTransfer><feBlend xmlns="http://www.w3.org/2000/svg" in="SourceGraphic" in2="opacOut" mode="normal"/></filter></defs><g filter="url(#rZofbPFoi55iOLNSIXSAkzkyKSQhpM0E)"><path d=" M 150.029 265.747 C 150.019 265.755 150.01 265.761 150 265.768" fill="rgb(255,255,255)"/></g><g id="Group"><defs><filter id="bq7oEJzKsBNzsX3Rqn8c5VmkkAFnxG1G" x="-200%" y="-200%" width="400%" height="400%"><feOffset xmlns="http://www.w3.org/2000/svg" in="SourceAlpha" result="offOut" dx="5" dy="5"/><feGaussianBlur xmlns="http://www.w3.org/2000/svg" in="offOut" result="blurOut" stdDeviation="2.5"/><feComponentTransfer xmlns="http://www.w3.org/2000/svg" in="blurOut" result="opacOut"><feFuncA xmlns="http://www.w3.org/2000/svg" type="table" tableValues="0 0.5"/></feComponentTransfer><feBlend xmlns="http://www.w3.org/2000/svg" in="SourceGraphic" in2="opacOut" mode="normal"/></filter></defs><g filter="url(#bq7oEJzKsBNzsX3Rqn8c5VmkkAFnxG1G)"><path d=" M 150.031 265.745 C 150.031 265.746 150.03 265.746 150.029 265.747" fill="rgb(255,255,255)"/></g><defs><filter id="Wu5VrAZlCYSxAOXOf1ajbBzKZColXvCk" x="-200%" y="-200%" width="400%" height="400%"><feOffset xmlns="http://www.w3.org/2000/svg" in="SourceAlpha" result="offOut" dx="5" dy="5"/><feGaussianBlur xmlns="http://www.w3.org/2000/svg" in="offOut" result="blurOut" stdDeviation="2.5"/><feComponentTransfer xmlns="http://www.w3.org/2000/svg" in="blurOut" result="opacOut"><feFuncA xmlns="http://www.w3.org/2000/svg" type="table" tableValues="0 0.5"/></feComponentTransfer><feBlend xmlns="http://www.w3.org/2000/svg" in="SourceGraphic" in2="opacOut" mode="normal"/></filter></defs><g filter="url(#Wu5VrAZlCYSxAOXOf1ajbBzKZColXvCk)"><path d=" M 150 265.768 C 124.42 247.672 93.722 196.699 81.789 169.564 C 73.021 150.961 68.762 132.359 69.008 116.214 C 69.002 115.888 69 115.56 69 115.232 C 69 70.527 105.295 34.232 150 34.232 C 166.31 34.232 181.5 39.063 194.213 47.375 C 187.45 45.078 180.201 43.844 172.666 43.844 C 135.321 43.844 105.002 74.162 105 111.506 C 105 111.507 105 111.508 105 111.51 L 105 111.51 C 105 111.928 105.006 112.345 105.014 112.761 C 105.032 113.92 105.083 115.071 105.161 116.214 L 105.243 116.214 C 107.599 138.843 126.753 156.51 150 156.51 C 174.836 156.51 195 136.346 195 111.51 C 195 86.674 174.836 66.51 150 66.51 C 143.061 66.51 136.488 68.084 130.62 70.901 C 141.254 59.891 156.166 53.042 172.666 53.042 C 197.116 53.042 218.081 68.082 226.796 89.412 C 229.521 97.524 231 106.207 231 115.232 C 231 115.56 230.998 115.888 230.992 116.214 L 230.992 116.214 C 231.238 132.359 226.979 150.961 218.211 169.564 C 206.277 196.688 175.605 247.635 150.031 265.745" fill="rgb(255,255,255)"/></g></g></g></svg>