<?xml version="1.0" encoding="utf-8"?>
<!-- Generator: Adobe Illustrator 16.0.0, SVG Export Plug-In . SVG Version: 6.00 Build 0)  -->
<!DOCTYPE svg PUBLIC "-//W3C//DTD SVG 1.1//EN" "http://www.w3.org/Graphics/SVG/1.1/DTD/svg11.dtd">
<svg version="1.1" id="Calque_2" xmlns="http://www.w3.org/2000/svg" xmlns:xlink="http://www.w3.org/1999/xlink" x="0px" y="0px"
	 width="422px" height="38px" viewBox="0 0 422 38" enable-background="new 0 0 422 38" xml:space="preserve">
<rect x="12" y="13" fill="#B7B7B7" width="12" height="12"/>
<ellipse fill="none" stroke="#B13336" stroke-miterlimit="10" cx="66.173" cy="18.875" rx="17.452" ry="17.875"/>
<ellipse fill="none" stroke="#B7B7B7" stroke-miterlimit="10" cx="18.173" cy="18.875" rx="17.452" ry="17.875"/>
<rect x="156" y="13" fill="#323232" width="12" height="12"/>
<ellipse fill="none" stroke="#323232" stroke-miterlimit="10" cx="162.173" cy="18.875" rx="17.452" ry="17.875"/>
<rect x="205" y="12" fill="#323232" width="3" height="15"/>
<rect x="212" y="12" fill="#323232" width="3" height="15"/>
<ellipse fill="none" stroke="#323232" stroke-miterlimit="10" cx="210.173" cy="18.875" rx="17.452" ry="17.875"/>
<rect x="301" y="12" fill="#323232" width="3" height="15"/>
<rect x="308" y="12" fill="#323232" width="3" height="15"/>
<ellipse fill="none" stroke="#323232" stroke-miterlimit="10" cx="306.173" cy="18.875" rx="17.452" ry="17.875"/>
<ellipse fill="none" stroke="#B7B7B7" stroke-miterlimit="10" cx="114.173" cy="18.875" rx="17.452" ry="17.875"/>
<ellipse fill="#DB433E" stroke="#B13336" stroke-miterlimit="10" cx="66.135" cy="18.819" rx="8.536" ry="8.743"/>
<ellipse fill="none" stroke="#323232" stroke-miterlimit="10" cx="354.173" cy="18.875" rx="17.452" ry="17.875"/>
<ellipse fill="#323232" stroke="#323232" stroke-miterlimit="10" cx="354.135" cy="18.819" rx="8.536" ry="8.743"/>
<ellipse fill="none" stroke="#B7B7B7" stroke-miterlimit="10" cx="402.173" cy="18.875" rx="17.452" ry="17.875"/>
<ellipse fill="#B7B7B7" stroke="#B7B7B7" stroke-miterlimit="10" cx="402.135" cy="18.819" rx="8.536" ry="8.743"/>
<polygon fill="#B7B7B7" points="108,13 108,25 121,19.583 121,18.542 "/>
<ellipse fill="none" stroke="#323232" stroke-miterlimit="10" cx="258.173" cy="18.875" rx="17.452" ry="17.875"/>
<polygon fill="#323232" points="252,13 252,25 265,19.583 265,18.542 "/>
</svg>
