<?xml version="1.0" encoding="utf-8"?>
<!-- Generator: Adobe Illustrator 16.0.0, SVG Export Plug-In . SVG Version: 6.00 Build 0)  -->
<!DOCTYPE svg PUBLIC "-//W3C//DTD SVG 1.1//EN" "http://www.w3.org/Graphics/SVG/1.1/DTD/svg11.dtd">
<svg version="1.1" id="Calque_1" xmlns="http://www.w3.org/2000/svg" xmlns:xlink="http://www.w3.org/1999/xlink" x="0px" y="0px"
	 width="20.125px" height="20.125px" viewBox="0 0 20.125 20.125" enable-background="new 0 0 20.125 20.125" xml:space="preserve">
<g>
	<circle fill="#8BBA3F" cx="10.063" cy="10.063" r="10.063"/>
	<g>
		<path fill="#FFFFFF" d="M9.307,13.447L9.269,12.95c-0.114-1.011,0.229-2.155,1.183-3.3c0.859-1.011,1.335-1.755,1.335-2.614
			c0-0.973-0.61-1.622-1.812-1.64c-0.687,0-1.45,0.228-1.927,0.591L7.591,4.786c0.648-0.458,1.716-0.763,2.728-0.763
			c2.193,0,3.186,1.354,3.186,2.805c0,1.297-0.725,2.232-1.64,3.319c-0.839,0.992-1.145,1.85-1.087,2.824l0.038,0.477H9.307z
			 M8.907,16.137c0-0.706,0.477-1.201,1.125-1.201c0.687,0,1.125,0.495,1.125,1.201c0,0.668-0.439,1.183-1.145,1.183
			C9.365,17.319,8.907,16.805,8.907,16.137z"/>
	</g>
</g>
</svg>
