<svg version="1.1" id="Calque_1" xmlns="http://www.w3.org/2000/svg" x="0" y="0" viewBox="0 0 69.2 39" xml:space="preserve"><style>.st0{fill:#fff}</style><g id="Groupe_496" transform="translate(-377.803 -212.096)"><g id="Groupe_497" transform="translate(377.803 230.392)"><path id="Tracé_4" class="st0" d="M8.8 1.2c0-.4 0-.8.1-1.2H0v2.4h8.8V1.2z"/><path id="Tracé_5" class="st0" d="M60.4 1.2c0 .4 0 .8-.1 1.2h8.8V0h-8.8c.1.4.1.8.1 1.2z"/></g><linearGradient id="Tracé_6_1_" gradientUnits="userSpaceOnUse" x1="-109.812" y1="514.333" x2="-108.664" y2="514.333" gradientTransform="matrix(38.969 0 0 -19.4845 4679.446 10262.85)"><stop offset=".233" stop-color="#fff" stop-opacity="0"/><stop offset=".279" stop-color="#fff" stop-opacity=".133"/><stop offset=".375" stop-color="#fff" stop-opacity=".396"/><stop offset=".467" stop-color="#fff" stop-opacity=".612"/><stop offset=".551" stop-color="#fff" stop-opacity=".78"/><stop offset=".627" stop-color="#fff" stop-opacity=".898"/><stop offset=".691" stop-color="#fff" stop-opacity=".973"/><stop offset=".736" stop-color="#fff"/></linearGradient><path id="Tracé_6" d="M447 231.6h-8.7c0 5.9-4.8 10.7-10.7 10.7-5.9 0-10.7-4.8-10.7-10.7H408c0 10.8 8.7 19.5 19.5 19.5s19.5-8.7 19.5-19.5z" fill="url(#Tracé_6_1_)"/><linearGradient id="Tracé_7_1_" gradientUnits="userSpaceOnUse" x1="-108.409" y1="514.336" x2="-109.558" y2="514.336" gradientTransform="matrix(38.969 0 0 -19.4905 4649.225 10246.5)"><stop offset=".233" stop-color="#fff" stop-opacity="0"/><stop offset=".279" stop-color="#fff" stop-opacity=".133"/><stop offset=".375" stop-color="#fff" stop-opacity=".396"/><stop offset=".467" stop-color="#fff" stop-opacity=".612"/><stop offset=".551" stop-color="#fff" stop-opacity=".78"/><stop offset=".627" stop-color="#fff" stop-opacity=".898"/><stop offset=".691" stop-color="#fff" stop-opacity=".973"/><stop offset=".736" stop-color="#fff"/></linearGradient><path id="Tracé_7" d="M386.6 231.6c0-5.9 4.8-10.7 10.7-10.7 5.9 0 10.7 4.8 10.7 10.7h8.7c0-10.8-8.7-19.5-19.5-19.5s-19.5 8.7-19.5 19.5h8.9z" fill="url(#Tracé_7_1_)"/><path id="Tracé_8" class="st0" d="M427.5 212.1c-10.8 0-19.5 8.7-19.5 19.5 0 5.9-4.8 10.7-10.7 10.7-5.9 0-10.7-4.8-10.7-10.7h-8.8c0 10.8 8.7 19.5 19.5 19.5 10.7 0 19.5-8.7 19.5-19.5 0-5.9 4.8-10.7 10.7-10.7 5.9 0 10.7 4.8 10.7 10.7h8.7c.1-10.8-8.6-19.5-19.4-19.5z"/></g></svg>