<?xml version="1.0" encoding="utf-8"?>
<!-- Generator: Adobe Illustrator 16.0.0, SVG Export Plug-In . SVG Version: 6.00 Build 0)  -->
<!DOCTYPE svg PUBLIC "-//W3C//DTD SVG 1.1//EN" "http://www.w3.org/Graphics/SVG/1.1/DTD/svg11.dtd">
<svg version="1.1" id="Calque_1" xmlns="http://www.w3.org/2000/svg" xmlns:xlink="http://www.w3.org/1999/xlink" x="0px" y="0px"
	 width="178.104px" height="172.098px" viewBox="0 0 178.104 172.098" enable-background="new 0 0 178.104 172.098"
	 xml:space="preserve">
<linearGradient id="SVGID_1_" gradientUnits="userSpaceOnUse" x1="81.0842" y1="152.6882" x2="81.0841" y2="33.7566" gradientTransform="matrix(1 0 0 -1 0.105 171.8569)">
	<stop  offset="0" style="stop-color:#FFFFFF"/>
	<stop  offset="0.0212" style="stop-color:#F2F2F3"/>
	<stop  offset="0.0733" style="stop-color:#DEDFE0"/>
	<stop  offset="0.1329" style="stop-color:#CFD0D2"/>
	<stop  offset="0.2034" style="stop-color:#C4C6C8"/>
	<stop  offset="0.2956" style="stop-color:#BEC0C2"/>
	<stop  offset="0.4909" style="stop-color:#BCBEC0"/>
	<stop  offset="0.7271" style="stop-color:#BEBFC2"/>
	<stop  offset="0.8154" style="stop-color:#C3C5C7"/>
	<stop  offset="0.8789" style="stop-color:#CDCFD1"/>
	<stop  offset="0.9305" style="stop-color:#DBDDDE"/>
	<stop  offset="0.9744" style="stop-color:#EEEEEF"/>
	<stop  offset="1" style="stop-color:#FFFFFF"/>
</linearGradient>
<path opacity="0.3" fill="url(#SVGID_1_)" enable-background="new    " d="M125.677,104.821c-31.313-0.64-56.7-25.404-56.7-56.724
	c0-10.561,2.885-20.449,7.927-28.929c-29.479,3.643-52.305,28.776-52.305,59.235c0,32.97,26.727,59.696,59.692,59.696
	c23.44,0,43.716-13.5,53.487-33.154C134.948,105.207,130.019,104.904,125.677,104.821z"/>
<linearGradient id="SVGID_2_" gradientUnits="userSpaceOnUse" x1="53.2668" y1="148.8767" x2="55.5895" y2="35.0576" gradientTransform="matrix(1 0 0 -1 0.105 171.8569)">
	<stop  offset="0" style="stop-color:#FFFFFF;stop-opacity:0"/>
	<stop  offset="0.0726" style="stop-color:#FFFFFF;stop-opacity:0.1426"/>
	<stop  offset="0.5091" style="stop-color:#FFFFFF"/>
	<stop  offset="0.9303" style="stop-color:#FFFFFF;stop-opacity:0.1419"/>
	<stop  offset="1" style="stop-color:#FFFFFF;stop-opacity:0"/>
</linearGradient>
<path fill="url(#SVGID_2_)" d="M26.209,78.404c0-30.013,21.46-49.133,36.796-55.621C40.781,31.475,25.03,53.103,25.03,78.404
	c0,32.97,26.726,59.696,59.688,59.696c0.177,0,0.328,0,0.487,0C52.568,137.729,26.209,111.147,26.209,78.404z"/>
<g>
	
		<radialGradient id="SVGID_3_" cx="77.8254" cy="98.1511" r="71.3352" gradientTransform="matrix(1 0 0 -1 0.105 171.8569)" gradientUnits="userSpaceOnUse">
		<stop  offset="0" style="stop-color:#0061AF"/>
		<stop  offset="0.2541" style="stop-color:#0062AF"/>
		<stop  offset="0.4106" style="stop-color:#0066B2"/>
		<stop  offset="0.5407" style="stop-color:#006DB7"/>
		<stop  offset="0.6564" style="stop-color:#0077BF"/>
		<stop  offset="0.7625" style="stop-color:#0086C9"/>
		<stop  offset="0.8615" style="stop-color:#0099D7"/>
		<stop  offset="0.9533" style="stop-color:#00B0E8"/>
		<stop  offset="1" style="stop-color:#00C0F3"/>
	</radialGradient>
	<path fill="url(#SVGID_3_)" d="M85.537,105.244c-2.051,0-20.041-0.611-20.041-21.767V6.774c0-2.5,1.052-3.521,3.632-3.521h11.957
		c1.961,0,2.762,0.727,2.762,2.506v75.829c0,3.646,0.902,4.646,4.201,4.646h49.696c2.377,0,3.533,1.185,3.533,3.621v11.521
		c0,2.117-0.456,3.869-6.053,3.869H85.537z"/>
	<path fill="#FFFFFF" d="M81.084,3.398c2.035,0,2.616,0.831,2.616,2.36c0,1.518,0,39.828,0,39.828s0,32.368,0,36.001
		c0,3.628,0.918,4.79,4.347,4.79c3.436,0,47.143,0,49.696,0c2.563,0,3.388,1.396,3.388,3.477c0,2.082,0,9.397,0,11.521
		c0,2.132-0.489,3.725-5.907,3.725s-43.401,0-49.688,0c-7.314,0-19.896-4.256-19.896-21.622c0-17.38,0-74.078,0-76.704
		c0-2.606,1.222-3.375,3.486-3.375c2.267,0,5.604,0,5.604,0S79.047,3.398,81.084,3.398 M81.084,3.108h-6.353h-5.604
		c-2.647,0-3.777,1.097-3.777,3.666v76.704c0,21.297,18.121,21.912,20.187,21.912h49.688c5.211,0,6.198-1.411,6.198-4.016V89.854
		c0-2.534-1.204-3.768-3.679-3.768H88.047c-3.185,0-4.056-0.967-4.056-4.499V45.587V5.759C83.991,3.901,83.122,3.108,81.084,3.108
		L81.084,3.108z"/>
</g>
<path fill="#0054A6" d="M88.047,86.377c-3.428,0-4.347-1.161-4.347-4.79c0-3.633,0-36.001,0-36.001s-0.026-2.96-0.026-7.254
	c-3.557,2.571-7.133,5.449-10.64,8.602c-2.62,2.363-5.069,4.774-7.364,7.225c0,11.939-0.028,23.125-0.028,29.319
	c0,8.642,3.122,14.046,7.161,17.279c7.563-2.944,15.979-7.837,24.276-14.362C92.365,86.395,88.921,86.377,88.047,86.377z"/>
<linearGradient id="SVGID_4_" gradientUnits="userSpaceOnUse" x1="100.5906" y1="153.0066" x2="101.7518" y2="66.4911" gradientTransform="matrix(1 0 0 -1 0.105 171.8569)">
	<stop  offset="0" style="stop-color:#FFFFFF;stop-opacity:0"/>
	<stop  offset="0.1413" style="stop-color:#FFFFFF;stop-opacity:0.1413"/>
	<stop  offset="1" style="stop-color:#FFFFFF"/>
</linearGradient>
<path opacity="0.1" fill="url(#SVGID_4_)" d="M135.223,105.099c1.012,0,1.864-0.059,2.554-0.153
	c-2.83,0.261-7.758-0.042-12.102-0.125c-31.313-0.64-56.699-25.404-56.699-56.724c0-10.561,2.885-20.449,7.927-28.929
	c-3.887,0.489-7.652,1.341-11.263,2.521c0,18.726,0,49.733,0,61.789c0,17.365,12.581,21.622,19.896,21.622
	C91.822,105.099,129.805,105.099,135.223,105.099z"/>
<g>
	
		<radialGradient id="SVGID_5_" cx="97.573" cy="-19.324" r="51.409" fx="97.1532" fy="-19.4301" gradientTransform="matrix(0.991 -0.134 -0.0871 -0.6446 30.6379 12.7146)" gradientUnits="userSpaceOnUse">
		<stop  offset="0" style="stop-color:#00C0F3"/>
		<stop  offset="1" style="stop-color:#0061AF"/>
	</radialGradient>
	<path fill="url(#SVGID_5_)" d="M112.158,72.245c16.515-18.003,23.413-36.724,16.401-44.513c-2.233-2.478-5.643-3.733-10.134-3.733
		c-8.768,0-20.789,4.854-32.984,13.316l-0.229,0.158V25.216l0.063-0.043c14.43-10.166,28.664-15.996,39.053-15.996
		c5.283,0,9.324,1.485,12.013,4.413c9.443,10.257-0.862,35.56-23.973,58.855L112.158,72.245z"/>
	<path fill="#FFFFFF" d="M124.328,9.322c5.07,0,9.186,1.403,11.906,4.366c9.459,10.273-1.226,35.727-23.969,58.654
		c16.373-17.849,23.663-36.643,16.401-44.708c-2.313-2.565-5.855-3.78-10.241-3.78c-8.72,0-20.767,4.806-33.067,13.342
		c0-0.792,0-1.25,0-1.25s0-4.47,0-10.654C99.849,15.083,114.052,9.322,124.328,9.322 M124.328,9.032
		c-10.418,0-24.683,5.84-39.137,16.022l-0.124,0.087v0.149v10.654v1.25v0.555l0.456-0.315c12.171-8.446,24.164-13.29,32.901-13.29
		c4.448,0,7.821,1.239,10.025,3.685c6.96,7.732,0.063,26.371-16.4,44.318l0.421,0.4c23.166-23.353,33.473-48.74,23.976-59.056
		C133.73,10.532,129.652,9.032,124.328,9.032L124.328,9.032z"/>
</g>
<g>
	
		<radialGradient id="SVGID_6_" cx="37.8596" cy="92.3923" r="31.4618" gradientTransform="matrix(1 0 0 -1 0.105 171.8569)" gradientUnits="userSpaceOnUse">
		<stop  offset="0" style="stop-color:#00C0F3"/>
		<stop  offset="0.1212" style="stop-color:#00BAEF"/>
		<stop  offset="0.2867" style="stop-color:#00AFE7"/>
		<stop  offset="0.4776" style="stop-color:#009DDB"/>
		<stop  offset="0.6877" style="stop-color:#0086C9"/>
		<stop  offset="0.9108" style="stop-color:#006BB6"/>
		<stop  offset="1" style="stop-color:#0061AF"/>
	</radialGradient>
	<path fill="url(#SVGID_6_)" d="M53.329,105.392c-5.278,0-9.314-1.479-12.002-4.398c-9.229-10.029,0.639-34.893,22.956-57.834
		l0.249-0.256v12.721l-0.038,0.042C48.038,73.64,41.175,92.33,48.175,100.105c2.229,2.472,5.637,3.726,10.125,3.726
		c2.483,0,5.271-0.393,8.282-1.167l0.082,0.278C61.73,104.567,57.244,105.392,53.329,105.392z"/>
	<path fill="#FFFFFF" d="M64.387,43.26c0,4.195,0,8.338,0,12.308c-16.313,17.816-23.575,36.575-16.32,44.634
		c2.313,2.565,5.853,3.773,10.232,3.773c2.52,0,5.316-0.4,8.318-1.171c-4.866,1.604-9.363,2.442-13.289,2.442
		c-5.063,0-9.176-1.396-11.895-4.352C32.118,90.772,42.35,65.914,64.387,43.26 M64.677,42.545l-0.499,0.513
		c-10.747,11.049-19.021,22.985-23.295,33.61c-4.342,10.795-4.223,19.47,0.337,24.423c2.715,2.95,6.788,4.445,12.108,4.445
		c3.93,0,8.433-0.827,13.379-2.458l-0.163-0.557c-3.001,0.771-5.774,1.162-8.246,1.162c-4.445,0-7.815-1.237-10.017-3.678
		c-6.949-7.719-0.086-26.325,16.319-44.242l0.075-0.083v-0.113V43.26L64.677,42.545L64.677,42.545z"/>
</g>
<linearGradient id="SVGID_7_" gradientUnits="userSpaceOnUse" x1="89.4807" y1="154.1921" x2="132.9146" y2="147.6033" gradientTransform="matrix(1 0 0 -1 0.105 171.8569)">
	<stop  offset="0" style="stop-color:#FFFFFF;stop-opacity:0"/>
	<stop  offset="0.0726" style="stop-color:#FFFFFF;stop-opacity:0.114"/>
	<stop  offset="0.5091" style="stop-color:#FFFFFF;stop-opacity:0.8"/>
	<stop  offset="0.9306" style="stop-color:#FFFFFF;stop-opacity:0.1131"/>
	<stop  offset="1" style="stop-color:#FFFFFF;stop-opacity:0"/>
</linearGradient>
<path opacity="0.7" fill="url(#SVGID_7_)" enable-background="new    " d="M87.783,24.618c3.188-1.869,17.899-9.644,29.96-9.644
	c12.041,0,15.19,8.48,14.06,14.297c-0.357-5.297-2.427-13.265-14.457-13.265C108.437,16.007,101.06,18.831,87.783,24.618z"/>
<linearGradient id="SVGID_8_" gradientUnits="userSpaceOnUse" x1="93.8718" y1="158.2673" x2="140.617" y2="151.1762" gradientTransform="matrix(1 0 0 -1 0.105 171.8569)">
	<stop  offset="0" style="stop-color:#FFFFFF;stop-opacity:0"/>
	<stop  offset="0.0726" style="stop-color:#FFFFFF;stop-opacity:0.114"/>
	<stop  offset="0.5091" style="stop-color:#FFFFFF;stop-opacity:0.8"/>
	<stop  offset="0.9306" style="stop-color:#FFFFFF;stop-opacity:0.1131"/>
	<stop  offset="1" style="stop-color:#FFFFFF;stop-opacity:0"/>
</linearGradient>
<path opacity="0.7" fill="url(#SVGID_8_)" enable-background="new    " d="M138.805,28.917c1.12-2.799,3.083-18.104-14.175-19.085
	c-4.714-0.273-16.427,1.767-32.604,11.297c4.685-2.48,22.784-11.571,32.607-10.409C139.417,12.496,139.876,23.137,138.805,28.917z"
	/>
<linearGradient id="SVGID_9_" gradientUnits="userSpaceOnUse" x1="46.4675" y1="111.905" x2="45.3074" y2="70.8159" gradientTransform="matrix(1 0 0 -1 0.105 171.8569)">
	<stop  offset="0" style="stop-color:#FFFFFF;stop-opacity:0.2"/>
	<stop  offset="0.0831" style="stop-color:#FFFFFF;stop-opacity:0.2855"/>
	<stop  offset="0.5834" style="stop-color:#FFFFFF;stop-opacity:0.8"/>
	<stop  offset="0.9482" style="stop-color:#FFFFFF;stop-opacity:0.2746"/>
	<stop  offset="1" style="stop-color:#FFFFFF;stop-opacity:0.2"/>
</linearGradient>
<path opacity="0.7" fill="url(#SVGID_9_)" enable-background="new    " d="M51.956,59.914c-3.706,6.622-11.38,19.868-10.93,28.746
	c0.479,9.788,4.56,11.08,7.807,12.287c-3.368-0.759-8.784-2.863-8.412-13.756C40.72,78.642,47.206,67.23,51.956,59.914z"/>
<linearGradient id="SVGID_10_" gradientUnits="userSpaceOnUse" x1="51.4543" y1="128.8064" x2="50.4381" y2="66.5279" gradientTransform="matrix(1 0 0 -1 0.105 171.8569)">
	<stop  offset="0" style="stop-color:#FFFFFF;stop-opacity:0"/>
	<stop  offset="0.6216" style="stop-color:#FFFFFF;stop-opacity:0.8"/>
	<stop  offset="0.9465" style="stop-color:#FFFFFF;stop-opacity:0.1131"/>
	<stop  offset="1" style="stop-color:#FFFFFF;stop-opacity:0"/>
</linearGradient>
<path opacity="0.7" fill="url(#SVGID_10_)" enable-background="new    " d="M40.781,98.879C31.139,79.858,58.536,49.17,64.387,43.26
	C42.35,65.914,32.026,90.864,41.434,100.895c3.448,3.684,8.168,4.173,10.184,4.296C47.944,104.629,43.009,103.231,40.781,98.879z"/>
<linearGradient id="SVGID_11_" gradientUnits="userSpaceOnUse" x1="74.551" y1="168.1726" x2="74.6961" y2="127.8237" gradientTransform="matrix(1 0 0 -1 0.105 171.8569)">
	<stop  offset="0" style="stop-color:#FFFFFF;stop-opacity:0.8"/>
	<stop  offset="0.8529" style="stop-color:#FFFFFF;stop-opacity:0.1176"/>
	<stop  offset="1" style="stop-color:#FFFFFF;stop-opacity:0"/>
</linearGradient>
<path opacity="0.7" fill="url(#SVGID_11_)" enable-background="new    " d="M67.078,6.739c0-1.022,0.429-2.142,1.893-2.142
	c1.443,0,9.893,0,11.333,0c1.462,0,2.081,0.337,2.081,1.698c0,1.363,0,20.862,0,22.158c0,1.307,0.152,6.145,0.397,9.685
	c0.184-5.08,0.215-30.112,0.245-31.663c0.032-1.518-0.428-2.498-2.907-2.498c-2.454,0-9.583,0-11.209,0
	c-1.925,0-2.565,1.56-2.565,2.7c0,0.642,0,36.198,0.205,39.583C67.414,39.374,67.078,7.749,67.078,6.739z"/>
<linearGradient id="SVGID_12_" gradientUnits="userSpaceOnUse" x1="104.1921" y1="34.6047" x2="104.3523" y2="-9.9416" gradientTransform="matrix(0 1 1 0 106.3223 -8.624)">
	<stop  offset="0" style="stop-color:#FFFFFF;stop-opacity:0.8"/>
	<stop  offset="0.8529" style="stop-color:#FFFFFF;stop-opacity:0.1176"/>
	<stop  offset="1" style="stop-color:#FFFFFF;stop-opacity:0"/>
</linearGradient>
<path opacity="0.7" fill="url(#SVGID_12_)" enable-background="new    " d="M137.846,87.822c1.02,0,2.121,0.454,2.121,1.97
	c0,1.531,0.028,9.368,0,10.885c-0.021,1.759-0.571,2.952-4.225,2.935c-1.353-0.007-18.318-0.005-19.623-0.005
	c-1.315,0-6.153,0.149-9.674,0.414c5.08,0.19,28.419,0.368,29.97,0.283c3.337-0.185,4.189-1.087,4.189-3.827
	c0-2.58,0-9.025,0-10.745c0-2.021-1.56-2.671-2.721-2.671c-0.62,0-40.563-0.207-43.962,0
	C100.82,87.968,136.822,87.822,137.846,87.822z"/>
<g>
	<g>
		<path fill="#FFFFFF" d="M143.503,39.978c0-5.81-4.698-10.5-10.499-10.5c-5.802,0-10.5,4.69-10.5,10.5
			c0,5.792,4.699,10.5,10.5,10.5C138.805,50.478,143.503,45.771,143.503,39.978z"/>
	</g>
</g>
<g>
	<path fill="#FFFFFF" d="M141.084,39.978c0-4.461-3.625-8.08-8.08-8.08c-4.458,0-8.081,3.619-8.081,8.08
		c0,4.455,3.623,8.08,8.081,8.08C137.459,48.058,141.084,44.433,141.084,39.978z"/>
</g>
<g>
	<path fill="#BFD730" d="M141.07,39.374c-0.306-3.979-3.462-7.157-7.439-7.46c0,0.48,0,5.317,0,7.46
		C136.103,39.374,139.751,39.374,141.07,39.374z"/>
</g>
<g>
	<path fill="#90D7EC" d="M141.07,40.574c-0.306,3.973-3.462,7.156-7.439,7.462c0-0.49,0-5.327,0-7.462
		C136.103,40.574,139.751,40.574,141.07,40.574z"/>
</g>
<g>
	<path fill="#ED0C6E" d="M124.937,39.374c0.306-3.979,3.463-7.157,7.438-7.46c0,0.48,0,5.317,0,7.46
		C129.906,39.374,126.256,39.374,124.937,39.374z"/>
</g>
<g>
	<path fill="#FDB913" d="M124.937,40.574c0.306,3.973,3.463,7.156,7.438,7.462c0-0.49,0-5.327,0-7.462
		C129.906,40.574,126.256,40.574,124.937,40.574z"/>
</g>
<g>
	<g>
		
			<linearGradient id="SVGID_13_" gradientUnits="userSpaceOnUse" x1="11.8284" y1="27.9397" x2="11.8284" y2="4.0237" gradientTransform="matrix(1 0 0 -1 0.105 171.8569)">
			<stop  offset="0" style="stop-color:#B1B3B6"/>
			<stop  offset="0.0136" style="stop-color:#B6B8BA;stop-opacity:0.9725"/>
			<stop  offset="0.0946" style="stop-color:#CFD1D2;stop-opacity:0.8097"/>
			<stop  offset="0.1799" style="stop-color:#E3E4E5;stop-opacity:0.638"/>
			<stop  offset="0.2707" style="stop-color:#F1F1F2;stop-opacity:0.4553"/>
			<stop  offset="0.3706" style="stop-color:#FAFAFB;stop-opacity:0.2544"/>
			<stop  offset="0.497" style="stop-color:#FFFFFF;stop-opacity:0"/>
		</linearGradient>
		<path fill="url(#SVGID_13_)" d="M5.883,167.833v-22.416h13.851v-1.5H4.133v23.916H5.883z"/>
	</g>
	<g>
		
			<linearGradient id="SVGID_14_" gradientUnits="userSpaceOnUse" x1="37.5227" y1="28.1086" x2="37.5227" y2="3.8469" gradientTransform="matrix(1 0 0 -1 0.105 171.8569)">
			<stop  offset="0" style="stop-color:#B1B3B6"/>
			<stop  offset="0.0136" style="stop-color:#B6B8BA;stop-opacity:0.9725"/>
			<stop  offset="0.0946" style="stop-color:#CFD1D2;stop-opacity:0.8097"/>
			<stop  offset="0.1799" style="stop-color:#E3E4E5;stop-opacity:0.638"/>
			<stop  offset="0.2707" style="stop-color:#F1F1F2;stop-opacity:0.4553"/>
			<stop  offset="0.3706" style="stop-color:#FAFAFB;stop-opacity:0.2544"/>
			<stop  offset="0.497" style="stop-color:#FFFFFF;stop-opacity:0"/>
		</linearGradient>
		<path fill="url(#SVGID_14_)" d="M25.714,155.837c0,8.107,3.996,12.173,12.007,12.173c7.885,0,11.82-4.064,11.82-12.173
			c0-8.063-3.936-12.089-11.82-12.089C29.709,143.749,25.714,147.774,25.714,155.837z M37.72,145.26
			c6.606,0,9.902,3.556,9.902,10.688c0,7.04-3.296,10.541-9.902,10.541c-6.731,0-10.088-3.501-10.088-10.541
			C27.633,148.814,30.988,145.26,37.72,145.26z"/>
	</g>
	<g>
		
			<linearGradient id="SVGID_15_" gradientUnits="userSpaceOnUse" x1="67.5461" y1="28.1086" x2="67.5461" y2="3.8469" gradientTransform="matrix(1 0 0 -1 0.105 171.8569)">
			<stop  offset="0" style="stop-color:#B1B3B6"/>
			<stop  offset="0.0136" style="stop-color:#B6B8BA;stop-opacity:0.9725"/>
			<stop  offset="0.0946" style="stop-color:#CFD1D2;stop-opacity:0.8097"/>
			<stop  offset="0.1799" style="stop-color:#E3E4E5;stop-opacity:0.638"/>
			<stop  offset="0.2707" style="stop-color:#F1F1F2;stop-opacity:0.4553"/>
			<stop  offset="0.3706" style="stop-color:#FAFAFB;stop-opacity:0.2544"/>
			<stop  offset="0.497" style="stop-color:#FFFFFF;stop-opacity:0"/>
		</linearGradient>
		<path fill="url(#SVGID_15_)" d="M77.271,144.854c-2.05-0.738-4.184-1.106-6.408-1.106c-8.561,0-12.834,4.147-12.834,12.456
			c0,7.863,4.18,11.806,12.542,11.806c2.292,0,4.528-0.344,6.701-1.011v-1.5c-2.172,0.671-4.293,0.99-6.368,0.99
			c-7.409,0-11.111-3.429-11.111-10.284c0-7.298,3.597-10.945,10.806-10.945c1.469,0,3.104,0.245,4.913,0.737v8.787h1.761
			L77.271,144.854L77.271,144.854z"/>
	</g>
	<g>
		
			<linearGradient id="SVGID_16_" gradientUnits="userSpaceOnUse" x1="87.949" y1="27.9397" x2="87.949" y2="4.0237" gradientTransform="matrix(1 0 0 -1 0.105 171.8569)">
			<stop  offset="0" style="stop-color:#B1B3B6"/>
			<stop  offset="0.0136" style="stop-color:#B6B8BA;stop-opacity:0.9725"/>
			<stop  offset="0.0946" style="stop-color:#CFD1D2;stop-opacity:0.8097"/>
			<stop  offset="0.1799" style="stop-color:#E3E4E5;stop-opacity:0.638"/>
			<stop  offset="0.2707" style="stop-color:#F1F1F2;stop-opacity:0.4553"/>
			<stop  offset="0.3706" style="stop-color:#FAFAFB;stop-opacity:0.2544"/>
			<stop  offset="0.497" style="stop-color:#FFFFFF;stop-opacity:0"/>
		</linearGradient>
		<path fill="url(#SVGID_16_)" d="M88.936,167.833v-23.916h-1.766v23.916H88.936z"/>
	</g>
	<g>
		
			<linearGradient id="SVGID_17_" gradientUnits="userSpaceOnUse" x1="107.5007" y1="27.9397" x2="107.5007" y2="4.0237" gradientTransform="matrix(1 0 0 -1 0.105 171.8569)">
			<stop  offset="0" style="stop-color:#B1B3B6"/>
			<stop  offset="0.0136" style="stop-color:#B6B8BA;stop-opacity:0.9725"/>
			<stop  offset="0.0946" style="stop-color:#CFD1D2;stop-opacity:0.8097"/>
			<stop  offset="0.1799" style="stop-color:#E3E4E5;stop-opacity:0.638"/>
			<stop  offset="0.2707" style="stop-color:#F1F1F2;stop-opacity:0.4553"/>
			<stop  offset="0.3706" style="stop-color:#FAFAFB;stop-opacity:0.2544"/>
			<stop  offset="0.497" style="stop-color:#FFFFFF;stop-opacity:0"/>
		</linearGradient>
		<path fill="url(#SVGID_17_)" d="M99.091,143.917v23.916h10.203c4.549,0,6.827-1.904,6.827-5.731c0-4.316-3.184-6.989-9.521-8.021
			l-0.465,1.441c5.347,0.839,8.025,2.991,8.025,6.434c0,2.88-1.714,4.325-5.149,4.325h-8.166v-22.363H99.091z"/>
	</g>
	<g>
		
			<linearGradient id="SVGID_18_" gradientUnits="userSpaceOnUse" x1="133.615" y1="27.9397" x2="133.615" y2="4.0237" gradientTransform="matrix(1 0 0 -1 0.105 171.8569)">
			<stop  offset="0" style="stop-color:#B1B3B6"/>
			<stop  offset="0.0136" style="stop-color:#B6B8BA;stop-opacity:0.9725"/>
			<stop  offset="0.0946" style="stop-color:#CFD1D2;stop-opacity:0.8097"/>
			<stop  offset="0.1799" style="stop-color:#E3E4E5;stop-opacity:0.638"/>
			<stop  offset="0.2707" style="stop-color:#F1F1F2;stop-opacity:0.4553"/>
			<stop  offset="0.3706" style="stop-color:#FAFAFB;stop-opacity:0.2544"/>
			<stop  offset="0.497" style="stop-color:#FFFFFF;stop-opacity:0"/>
		</linearGradient>
		<path fill="url(#SVGID_18_)" d="M125.024,143.917v23.916h9.862c4.323,0,6.489-1.904,6.489-5.731c0-3.317-2.35-5.663-7.041-7.041
			l8.082-11.144h-2.418l-7.932,11.082v1.194c4.9,0.732,7.35,2.643,7.35,5.763c0,2.88-1.595,4.325-4.806,4.325h-7.837v-22.363
			L125.024,143.917L125.024,143.917z"/>
	</g>
	<g>
		
			<linearGradient id="SVGID_19_" gradientUnits="userSpaceOnUse" x1="161.4607" y1="28.1086" x2="161.4607" y2="3.8469" gradientTransform="matrix(1 0 0 -1 0.105 171.8569)">
			<stop  offset="0" style="stop-color:#B1B3B6"/>
			<stop  offset="0.0136" style="stop-color:#B6B8BA;stop-opacity:0.9725"/>
			<stop  offset="0.0946" style="stop-color:#CFD1D2;stop-opacity:0.8097"/>
			<stop  offset="0.1799" style="stop-color:#E3E4E5;stop-opacity:0.638"/>
			<stop  offset="0.2707" style="stop-color:#F1F1F2;stop-opacity:0.4553"/>
			<stop  offset="0.3706" style="stop-color:#FAFAFB;stop-opacity:0.2544"/>
			<stop  offset="0.497" style="stop-color:#FFFFFF;stop-opacity:0"/>
		</linearGradient>
		<path fill="url(#SVGID_19_)" d="M149.642,155.837c0,8.107,4.01,12.173,12.013,12.173c7.886,0,11.835-4.064,11.835-12.173
			c0-8.063-3.949-12.089-11.835-12.089C153.652,143.749,149.642,147.774,149.642,155.837z M161.655,145.26
			c6.6,0,9.906,3.556,9.906,10.688c0,7.04-3.307,10.541-9.906,10.541c-6.717,0-10.084-3.501-10.084-10.541
			C151.571,148.814,154.938,145.26,161.655,145.26z"/>
	</g>
</g>
<g>
	<g>
		<polygon fill="#8A8C8E" points="3.832,143.046 3.832,118.538 6.173,118.538 6.173,140.954 20.026,140.954 20.026,143.046 		"/>
		<path fill="#FFFFFF" d="M5.883,118.838v22.415h13.851v1.5H4.133v-23.915H5.883 M6.464,118.259H5.883h-1.75H3.553v0.58v23.915
			v0.582h0.579h15.601h0.58v-0.582v-1.5v-0.582h-0.58H6.464v-21.833V118.259L6.464,118.259z"/>
	</g>
	<g>
		<path fill="#8A8C8E" d="M37.72,143.212c-8.167,0-12.308-4.164-12.308-12.387c0-8.258,4.141-12.444,12.308-12.444
			c8.044,0,12.121,4.187,12.121,12.444C49.842,139.049,45.764,143.212,37.72,143.212z M37.72,120.467
			c-6.588,0-9.797,3.354-9.797,10.256c0,7.009,3.209,10.408,9.797,10.408c6.46,0,9.611-3.398,9.611-10.408
			C47.332,123.819,44.18,120.467,37.72,120.467z"/>
		<path fill="#FFFFFF" d="M37.72,118.661c7.885,0,11.82,4.063,11.82,12.165c0,8.071-3.936,12.096-11.82,12.096
			c-8.011,0-12.007-4.024-12.007-12.096C25.714,122.724,29.709,118.661,37.72,118.661 M37.72,141.41
			c6.606,0,9.902-3.555,9.902-10.688c0-7.039-3.296-10.556-9.902-10.556c-6.731,0-10.088,3.518-10.088,10.556
			C27.633,137.855,30.988,141.41,37.72,141.41 M37.72,118.079c-8.357,0-12.587,4.286-12.587,12.746
			c0,8.407,4.229,12.676,12.587,12.676c8.234,0,12.398-4.269,12.398-12.676C50.119,122.365,45.955,118.079,37.72,118.079
			L37.72,118.079z M37.72,140.83c-6.397,0-9.509-3.306-9.509-10.106c0-6.704,3.11-9.977,9.509-9.977
			c6.275,0,9.322,3.272,9.322,9.977C47.042,137.523,43.996,140.83,37.72,140.83L37.72,140.83z"/>
	</g>
	<g>
		<path fill="#8A8C8E" d="M70.863,143.212c-8.715,0-13.123-4.286-13.123-12.757c0-8.016,4.317-12.074,12.831-12.074
			c2.313,0,4.589,0.341,6.788,1.015l0.194,0.061v2.112l-0.372-0.123c-2.144-0.644-4.25-0.979-6.277-0.979
			c-7.286,0-10.832,3.271-10.832,9.988c0,7.187,3.452,10.676,10.526,10.676c1.379,0,2.938-0.229,4.624-0.674v-8.87h2.332v10.433
			l-0.188,0.066C75.31,142.84,73.108,143.212,70.863,143.212z"/>
		<path fill="#FFFFFF" d="M70.571,118.661c2.292,0,4.528,0.337,6.701,1.01v1.5c-2.172-0.672-4.293-1.004-6.368-1.004
			c-7.409,0-11.111,3.431-11.111,10.288c0,7.309,3.597,10.955,10.806,10.955c1.469,0,3.104-0.245,4.913-0.737v-8.787h1.761v9.931
			c-2.05,0.737-4.184,1.104-6.408,1.104c-8.561,0-12.834-4.146-12.834-12.466C58.029,122.601,62.209,118.661,70.571,118.661
			 M70.571,118.079c-8.697,0-13.122,4.163-13.122,12.376c0,8.655,4.516,13.046,13.415,13.046c2.276,0,4.51-0.381,6.594-1.146
			l0.396-0.122v-0.417v-9.93v-0.582h-0.583H75.51h-0.578v0.582v8.351c-1.579,0.403-3.049,0.593-4.333,0.593
			c-6.888,0-10.226-3.39-10.226-10.375c0-6.529,3.442-9.709,10.531-9.709c1.999,0,4.08,0.333,6.185,0.977l0.766,0.244v-0.796v-1.5
			v-0.429l-0.418-0.123C75.221,118.433,72.91,118.079,70.571,118.079L70.571,118.079z"/>
	</g>
	<g>
		<rect x="86.884" y="118.538" fill="#8A8C8E" width="2.329" height="24.508"/>
		<path fill="#FFFFFF" d="M88.936,118.838v23.915h-1.766v-23.915H88.936 M89.517,118.259h-0.581h-1.766h-0.579v0.58v23.915v0.582
			h0.579h1.766h0.581v-0.582v-23.915V118.259L89.517,118.259z"/>
	</g>
	<g>
		<path fill="#8A8C8E" d="M98.793,143.046v-24.508h10.5c4.714,0,7.108,2.029,7.108,6.031c0,4.47-3.282,7.255-9.76,8.296
			l-0.245,0.043l-0.655-2.002l0.337-0.05c5.236-0.81,7.788-2.827,7.788-6.153c0-2.705-1.59-4.021-4.857-4.021h-7.878v22.364
			L98.793,143.046L98.793,143.046z"/>
		<path fill="#FFFFFF" d="M109.294,118.838c4.549,0,6.827,1.904,6.827,5.73c0,4.315-3.184,6.98-9.521,8.021l-0.465-1.438
			c5.347-0.843,8.025-2.994,8.025-6.448c0-2.878-1.714-4.314-5.149-4.314h-8.166v22.365h-1.754v-23.915H109.294 M109.294,118.259
			H99.091h-0.579v0.58v23.915v0.582h0.579h1.754h0.581v-0.582v-21.785h7.584c4.094,0,4.569,2.133,4.569,3.735
			c0,3.157-2.47,5.071-7.532,5.867l-0.674,0.106l0.207,0.654l0.468,1.439l0.153,0.463l0.49-0.075
			c6.643-1.076,10.01-3.966,10.01-8.589C116.702,121.691,115.417,118.259,109.294,118.259L109.294,118.259z"/>
	</g>
	<g>
		<path fill="#8A8C8E" d="M139.854,143.046l-8.091-11.282v-1.531l0.249-0.042c4.796-0.71,7.122-2.5,7.122-5.488
			c0-2.705-1.493-4.021-4.524-4.021h-7.545v22.364h-2.343v-24.508h10.164c4.5,0,6.783,2.029,6.783,6.031
			c0,3.344-2.313,5.769-6.86,7.197l8.178,11.279H139.854L139.854,143.046z"/>
		<path fill="#FFFFFF" d="M134.886,118.838c4.323,0,6.489,1.904,6.489,5.73c0,3.308-2.35,5.664-7.041,7.041l8.082,11.143h-2.418
			l-7.932-11.082v-1.193c4.9-0.734,7.35-2.652,7.35-5.775c0-2.878-1.595-4.315-4.806-4.315h-7.837v22.366h-1.75v-23.915
			L134.886,118.838 M134.886,118.259h-9.862h-0.579v0.58v23.915v0.582h0.579h1.75h0.582v-0.582v-21.785h7.255
			c2.878,0,4.225,1.184,4.225,3.735c0,2.813-2.234,4.521-6.856,5.193l-0.49,0.082v0.5v1.193v0.185l0.093,0.152l7.958,11.082
			l0.17,0.245h0.289h2.418h1.132l-0.671-0.918l-7.595-10.498c4.434-1.479,6.674-3.952,6.674-7.35
			C141.958,121.691,140.733,118.259,134.886,118.259L134.886,118.259z"/>
	</g>
	<g>
		<path fill="#8A8C8E" d="M161.655,143.212c-8.156,0-12.296-4.164-12.296-12.387c0-8.258,4.14-12.444,12.296-12.444
			c8.039,0,12.11,4.187,12.11,12.444C173.765,139.049,169.693,143.212,161.655,143.212z M161.655,120.467
			c-6.594,0-9.798,3.354-9.798,10.256c0,7.009,3.204,10.408,9.798,10.408c6.478,0,9.612-3.398,9.612-10.408
			C171.267,123.819,168.132,120.467,161.655,120.467z"/>
		<path fill="#FFFFFF" d="M161.655,118.661c7.886,0,11.835,4.063,11.835,12.165c0,8.071-3.949,12.096-11.835,12.096
			c-8.002,0-12.013-4.024-12.013-12.096C149.642,122.724,153.652,118.661,161.655,118.661 M161.655,141.41
			c6.6,0,9.906-3.555,9.906-10.688c0-7.039-3.307-10.556-9.906-10.556c-6.717,0-10.084,3.518-10.084,10.556
			C151.571,137.855,154.938,141.41,161.655,141.41 M161.655,118.079c-8.353,0-12.594,4.286-12.594,12.746
			c0,8.407,4.242,12.676,12.594,12.676c8.229,0,12.417-4.269,12.417-12.676C174.071,122.365,169.885,118.079,161.655,118.079
			L161.655,118.079z M161.655,140.83c-6.396,0-9.502-3.306-9.502-10.106c0-6.704,3.108-9.977,9.502-9.977
			c6.268,0,9.325,3.272,9.325,9.977C170.979,137.523,167.923,140.83,161.655,140.83L161.655,140.83z"/>
	</g>
</g>
<g>
	
		<linearGradient id="SVGID_20_" gradientUnits="userSpaceOnUse" x1="5.0417" y1="54.3547" x2="4.8485" y2="41.5888" gradientTransform="matrix(1 0 0 -1 0.105 171.8569)">
		<stop  offset="0" style="stop-color:#D1D3D4"/>
		<stop  offset="0.3114" style="stop-color:#C3C5C7"/>
		<stop  offset="1" style="stop-color:#A7A9AC"/>
	</linearGradient>
	<path fill="url(#SVGID_20_)" d="M5.883,118.838v15.776h-1.75v-15.776H5.883z"/>
	
		<linearGradient id="SVGID_21_" gradientUnits="userSpaceOnUse" x1="37.717" y1="53.8713" x2="37.5236" y2="41.095" gradientTransform="matrix(1 0 0 -1 0.105 171.8569)">
		<stop  offset="0" style="stop-color:#D1D3D4"/>
		<stop  offset="0.3114" style="stop-color:#C3C5C7"/>
		<stop  offset="1" style="stop-color:#A7A9AC"/>
	</linearGradient>
	<path fill="url(#SVGID_21_)" d="M25.812,132.875c-0.065-0.652-0.099-1.326-0.099-2.05c0-8.102,3.996-12.165,12.007-12.165
		c7.885,0,11.82,4.063,11.82,12.165c0,0.509-0.005,0.999-0.034,1.459l-1.931-0.032c0.033-0.489,0.048-1.002,0.048-1.53
		c0-7.039-3.296-10.556-9.902-10.556c-6.731,0-10.088,3.518-10.088,10.556c0,0.765,0.047,1.476,0.107,2.157L25.812,132.875z"/>
	
		<linearGradient id="SVGID_22_" gradientUnits="userSpaceOnUse" x1="67.74" y1="53.4177" x2="67.5465" y2="40.6343" gradientTransform="matrix(1 0 0 -1 0.105 171.8569)">
		<stop  offset="0" style="stop-color:#D1D3D4"/>
		<stop  offset="0.3114" style="stop-color:#C3C5C7"/>
		<stop  offset="1" style="stop-color:#A7A9AC"/>
	</linearGradient>
	<path fill="url(#SVGID_22_)" d="M58.068,131.732c-0.022-0.417-0.039-0.835-0.039-1.277c0-7.854,4.18-11.794,12.542-11.794
		c2.292,0,4.528,0.337,6.701,1.01v1.5c-2.172-0.672-4.293-1.004-6.368-1.004c-7.409,0-11.111,3.431-11.111,10.288
		c0,0.451,0,0.879,0.029,1.279L58.068,131.732z M75.51,132.314v-0.429h1.762v0.413L75.51,132.314z"/>
	
		<linearGradient id="SVGID_23_" gradientUnits="userSpaceOnUse" x1="88.0432" y1="53.0994" x2="87.85" y2="40.3358" gradientTransform="matrix(1 0 0 -1 0.105 171.8569)">
		<stop  offset="0" style="stop-color:#D1D3D4"/>
		<stop  offset="0.3114" style="stop-color:#C3C5C7"/>
		<stop  offset="1" style="stop-color:#A7A9AC"/>
	</linearGradient>
	<path fill="url(#SVGID_23_)" d="M88.936,118.838v12.3l-1.766,0.019v-12.317L88.936,118.838L88.936,118.838z"/>
	
		<linearGradient id="SVGID_24_" gradientUnits="userSpaceOnUse" x1="107.5408" y1="52.8049" x2="107.3475" y2="40.0348" gradientTransform="matrix(1 0 0 -1 0.105 171.8569)">
		<stop  offset="0" style="stop-color:#D1D3D4"/>
		<stop  offset="0.3114" style="stop-color:#C3C5C7"/>
		<stop  offset="1" style="stop-color:#A7A9AC"/>
	</linearGradient>
	<path fill="url(#SVGID_24_)" d="M99.091,131.151v-12.313h10.203c4.549,0,6.827,1.904,6.827,5.73c0,2.973-1.511,5.174-4.531,6.582
		c-1.444,0-5.454,0-5.454,0c5.347-0.843,8.025-2.994,8.025-6.448c0-2.878-1.714-4.314-5.149-4.314h-8.166v10.75L99.091,131.151z"/>
	
		<linearGradient id="SVGID_25_" gradientUnits="userSpaceOnUse" x1="133.1306" y1="52.4177" x2="132.9375" y2="39.6561" gradientTransform="matrix(1 0 0 -1 0.105 171.8569)">
		<stop  offset="0" style="stop-color:#D1D3D4"/>
		<stop  offset="0.3114" style="stop-color:#C3C5C7"/>
		<stop  offset="1" style="stop-color:#A7A9AC"/>
	</linearGradient>
	<path fill="url(#SVGID_25_)" d="M125.024,131.734v-12.896h9.862c4.323,0,6.489,1.904,6.489,5.73c0,3.308-2.35,5.664-7.041,7.041
		l0.09,0.123l-2.357-0.062v-1.193c4.9-0.734,7.35-2.652,7.35-5.775c0-2.878-1.595-4.314-4.806-4.314h-7.837v11.328L125.024,131.734z
		"/>
	
		<linearGradient id="SVGID_26_" gradientUnits="userSpaceOnUse" x1="161.6267" y1="51.9949" x2="161.4332" y2="39.2099" gradientTransform="matrix(1 0 0 -1 0.105 171.8569)">
		<stop  offset="0" style="stop-color:#D1D3D4"/>
		<stop  offset="0.3114" style="stop-color:#C3C5C7"/>
		<stop  offset="1" style="stop-color:#A7A9AC"/>
	</linearGradient>
	<path fill="url(#SVGID_26_)" d="M149.692,132.253c-0.03-0.459-0.05-0.939-0.05-1.428c0-8.102,4.01-12.165,12.013-12.165
		c7.886,0,11.835,4.063,11.835,12.165c0,1.152-0.092,2.224-0.245,3.21l-1.959-0.008c0.185-1.009,0.275-2.109,0.275-3.305
		c0-7.039-3.307-10.556-9.906-10.556c-6.717,0-10.084,3.518-10.084,10.556c0,0.551,0.021,1.07,0.061,1.571L149.692,132.253z"/>
</g>
<radialGradient id="SVGID_27_" cx="133.0027" cy="39.9783" r="6.501" gradientUnits="userSpaceOnUse">
	<stop  offset="0" style="stop-color:#FFFFFF;stop-opacity:0.8"/>
	<stop  offset="1" style="stop-color:#FFFFFF;stop-opacity:0"/>
</radialGradient>
<circle fill="url(#SVGID_27_)" cx="133.003" cy="39.978" r="6.5"/>
</svg>
