<?xml version="1.0" encoding="utf-8"?>
<!-- Generator: Adobe Illustrator 16.0.0, SVG Export Plug-In . SVG Version: 6.00 Build 0)  -->
<!DOCTYPE svg PUBLIC "-//W3C//DTD SVG 1.1//EN" "http://www.w3.org/Graphics/SVG/1.1/DTD/svg11.dtd">
<svg version="1.1" id="Слой_1" xmlns="http://www.w3.org/2000/svg" xmlns:xlink="http://www.w3.org/1999/xlink" x="0px" y="0px"
	 width="352px" height="178px" viewBox="245.445 208.14 352 178" enable-background="new 245.445 208.14 352 178"
	 xml:space="preserve">
<g>
	<g>
		<path fill="#8BB900" d="M456.892,384.792c-3.148,0-6.219-1.6-7.967-4.49c-2.66-4.395-1.254-10.111,3.143-12.771L567.58,297.64
			l-115.512-69.891c-4.396-2.659-5.803-8.377-3.143-12.771c2.658-4.394,8.379-5.804,12.771-3.143l128.664,77.848
			c2.785,1.685,4.488,4.703,4.488,7.957s-1.703,6.271-4.488,7.957l-128.664,77.848C460.193,384.359,458.531,384.792,456.892,384.792
			z"/>
	</g>
	<g>
		<path fill="#8BB900" d="M340.07,306.8c-2.466,0-4.882-0.977-6.604-2.742c-1.721-1.723-2.698-4.141-2.698-6.559
			c0-2.464,0.977-4.837,2.698-6.604c3.488-3.44,9.674-3.44,13.162,0c1.719,1.767,2.743,4.14,2.743,6.604
			c0,2.418-1.024,4.836-2.743,6.559C344.907,305.824,342.488,306.8,340.07,306.8z"/>
	</g>
	<g>
		<path fill="#8BB900" d="M312.166,306.8c-2.466,0-4.882-0.977-6.604-2.742c-1.721-1.723-2.698-4.141-2.698-6.559
			c0-2.464,0.977-4.837,2.698-6.556c3.488-3.488,9.674-3.488,13.162-0.047c1.719,1.767,2.743,4.14,2.743,6.604
			c0,2.418-1.024,4.836-2.743,6.559C317.003,305.824,314.584,306.8,312.166,306.8z"/>
	</g>
	<g>
		<path fill="#8BB900" d="M284.262,306.8c-2.466,0-4.882-0.977-6.604-2.742c-1.721-1.723-2.698-4.141-2.698-6.559
			c0-2.464,0.977-4.837,2.698-6.604c3.488-3.44,9.719-3.44,13.162,0c1.719,1.767,2.743,4.14,2.743,6.604
			c0,2.418-1.024,4.836-2.743,6.559C289.099,305.824,286.681,306.8,284.262,306.8z"/>
	</g>
	<g>
		<path fill="#8BB900" d="M256.358,306.8c-2.466,0-4.837-0.977-6.604-2.742c-1.721-1.723-2.698-4.092-2.698-6.559
			c0-2.464,0.977-4.837,2.698-6.604c3.488-3.44,9.719-3.44,13.162,0c1.719,1.767,2.743,4.14,2.743,6.604
			c0,2.467-1.024,4.836-2.743,6.559C261.195,305.824,258.777,306.8,256.358,306.8z"/>
	</g>
	<g>
		<path fill="#8BB900" d="M565.115,306.941H365.137c-5.136,0-9.301-4.164-9.301-9.301s4.165-9.301,9.301-9.301h199.978
			c5.137,0,9.301,4.165,9.301,9.301S570.251,306.941,565.115,306.941z"/>
	</g>
</g>
</svg>
