<?xml version="1.0" standalone="no"?>
<!DOCTYPE svg PUBLIC "-//W3C//DTD SVG 1.1//EN" "http://www.w3.org/Graphics/SVG/1.1/DTD/svg11.dtd" >
<svg xmlns="http://www.w3.org/2000/svg">
<metadata></metadata>
<defs>
<font id="digitalsansef-mediumitaRg" horiz-adv-x="1024" >
<font-face units-per-em="2048" ascent="1638" descent="-410" />
<missing-glyph horiz-adv-x="395" />
<glyph horiz-adv-x="0" />
<glyph horiz-adv-x="682" />
<glyph unicode=" "  horiz-adv-x="395" />
<glyph unicode="&#x09;" horiz-adv-x="395" />
<glyph unicode="&#xa0;" horiz-adv-x="395" />
<glyph unicode="!" horiz-adv-x="503" d="M84 100q0 48 33.5 84.5t81.5 36.5q47 0 81.5 -35.5t34.5 -83.5q0 -47 -34.5 -81.5t-81.5 -34.5t-81 33.5t-34 80.5zM131 295l168 1071h201l-170 -1071h-199z" />
<glyph unicode="&#x22;" horiz-adv-x="720" d="M201 819l55 547h193l-119 -547h-129zM512 819l55 547h195l-119 -547h-131z" />
<glyph unicode="#" horiz-adv-x="1259" d="M70 414l53 157h221l80 250h-223l51 158h223l121 387h180l-121 -387h252l123 387h180l-123 -387h220l-52 -158h-219l-80 -250h220l-52 -157h-219l-131 -414h-180l131 414h-252l-131 -414h-180l131 414h-223zM526 571h252l78 250h-252z" />
<glyph unicode="$" d="M4 0l31 199h409l62 391h-103q-122 0 -194 60t-72 179q0 23 2 35l35 213q11 69 46 130t89 100q48 35 97 47t116 12h107l18 113h68l-19 -113h406l-31 -199h-405l-60 -379h105q120 0 189 -56t69 -173q0 -19 -4 -51l-35 -217q-23 -142 -117.5 -216.5t-239.5 -74.5h-92 l-22 -143h-70l25 143h-410zM346 899q0 -28 8.5 -48.5t22.5 -32t35 -19t41 -9.5t47 -2h39l59 379h-47q-164 0 -189 -141q-16 -82 -16 -127zM512 199h47q155 0 180 139q2 11 8.5 45.5t9.5 58t3 45.5q0 103 -148 103h-39z" />
<glyph unicode="%" horiz-adv-x="1783" d="M102 688q0 15 4 39l70 440q17 100 84 149.5t170 49.5h191q86 0 140 -37.5t54 -120.5q0 -13 -4 -41l-70 -438q-33 -197 -254 -197h-190q-195 0 -195 156zM266 735q0 -36 22 -47.5t62 -11.5h131q52 0 77 18.5t32 67.5l59 373q2 8 2 26q0 37 -20.5 48.5t-61.5 11.5h-133 q-53 0 -77 -17.5t-31 -68.5l-60 -373q-2 -8 -2 -27zM344 0l997 1366h181l-998 -1366h-180zM1047 156q0 15 4 39l69 440q15 98 82.5 148.5t169.5 50.5h193q86 0 140 -37.5t54 -120.5q0 -13 -4 -41l-69 -438q-33 -197 -254 -197h-191q-194 0 -194 156zM1210 203 q0 -37 21.5 -48.5t62.5 -11.5h131q53 0 77.5 17.5t31.5 68.5l59 373q2 8 2 27q0 20 -6.5 32.5t-19.5 18t-25.5 7t-32.5 1.5h-131q-53 0 -77 -17.5t-31 -68.5l-60 -373q-2 -8 -2 -26z" />
<glyph unicode="&#x26;" horiz-adv-x="1280" d="M45 250q0 40 23 166q11 62 35 109t62.5 81.5t79 58.5t101.5 50q-9 16 -29.5 51.5t-32 57t-22 53.5t-10.5 61q0 42 18 152q22 127 110.5 201.5t217.5 74.5h176q107 0 172.5 -57.5t65.5 -163.5q0 -39 -23 -152q-13 -69 -40 -118.5t-78.5 -88t-88.5 -57.5t-115 -54 q-13 -6 -20 -9l236 -289q11 26 20 64.5t13.5 67t11 77t8.5 63.5h201l-41 -252q-8 -56 -26 -94t-58 -98l155 -205h-262l-53 70q-71 -43 -117.5 -56.5t-128.5 -13.5h-276q-125 0 -205 64t-80 186zM248 309q0 -59 42.5 -89t104.5 -30h199q53 0 77.5 6t63.5 33l-278 349 q-10 -5 -40 -18t-43 -19.5t-36.5 -21t-35.5 -27.5t-24 -33.5t-16 -44.5q-14 -82 -14 -105zM451 973q0 -20 4.5 -38.5t16.5 -38.5t18.5 -30t25.5 -34t23 -29l139 63q51 24 81 55t38 80q10 67 10 80q0 44 -28 71.5t-72 27.5h-107q-77 0 -113 -62t-36 -145z" />
<glyph unicode="'" horiz-adv-x="407" d="M201 819l55 547h193l-119 -547h-129z" />
<glyph unicode="(" horiz-adv-x="557" d="M43 -131q0 48 10 106l178 1129q18 118 61 194t134 162h223q-103 -91 -150.5 -164.5t-66.5 -193.5l-178 -1125q-8 -44 -8 -98q0 -78 26 -134t84 -128h-223q-36 56 -50.5 83t-27 71.5t-12.5 97.5z" />
<glyph unicode=")" horiz-adv-x="557" d="M-57 -383q101 88 150.5 164.5t68.5 195.5l178 1125q6 46 6 94q0 81 -25.5 138.5t-84.5 125.5h223q48 -66 70 -123t22 -131q0 -44 -10 -102l-181 -1129q-20 -124 -59.5 -195t-134.5 -163h-223z" />
<glyph unicode="*" horiz-adv-x="804" d="M190 1139l35 102l234 -84l-4 250h110l-4 -250l234 84l36 -102l-237 -78l147 -197l-86 -65l-145 202l-150 -200l-88 65l154 195z" />
<glyph unicode="+" d="M96 604l25 162h358l56 358h174l-56 -358h357l-27 -162h-356l-58 -358h-174l58 358h-357z" />
<glyph unicode="," horiz-adv-x="389" d="M-37 -190l123 190q-53 67 -53 111q0 55 43.5 90t99.5 35q44 0 73.5 -37t29.5 -82q0 -36 -31 -84l-146 -223h-139z" />
<glyph unicode="-" horiz-adv-x="548" d="M12 514l29 178h551l-29 -178h-551z" />
<glyph unicode="." horiz-adv-x="417" d="M31 106q0 50 34.5 87.5t84.5 37.5q52 0 88 -35t36 -87q0 -51 -35.5 -87t-86.5 -36q-50 0 -85.5 35.5t-35.5 84.5z" />
<glyph unicode="/" horiz-adv-x="1079" d="M-10 0l993 1366h188l-993 -1366h-188z" />
<glyph unicode="0" horiz-adv-x="1198" d="M94 240q0 32 6 67l117 748q22 150 133 237q54 42 111 58t133 16h303q76 0 127.5 -14.5t93.5 -59.5q62 -68 62 -168q0 -46 -4 -69l-119 -746q-24 -156 -120.5 -232.5t-256.5 -76.5h-303q-283 0 -283 240zM303 315q0 -69 39.5 -92.5t114.5 -23.5h209q94 0 140.5 37 t61.5 129l101 632q4 32 4 52q0 70 -39 94t-115 24h-209q-94 0 -140.5 -38.5t-61.5 -131.5l-101 -632q-4 -32 -4 -50z" />
<glyph unicode="1" horiz-adv-x="1198" d="M449 1167l30 199h443l-215 -1366h-199l184 1167h-243z" />
<glyph unicode="2" horiz-adv-x="1198" d="M88 0l74 471q22 135 115.5 215t230.5 80h211q175 0 201 141q20 118 20 144q0 65 -39 90.5t-108 25.5h-519l31 199h569q126 0 200.5 -58.5t74.5 -181.5q0 -3 -6 -57l-37 -229q-18 -115 -119 -203q-49 -41 -101.5 -56.5t-123.5 -15.5h-217q-172 0 -193 -141 q-6 -38 -17.5 -112.5t-17.5 -112.5h687l-31 -199h-885z" />
<glyph unicode="3" horiz-adv-x="1198" d="M63 0l31 199h529q81 0 125 33.5t57 111.5q20 123 20 150q0 96 -133 96h-241l30 196h244q74 0 115.5 31t54.5 103q23 117 23 155q0 27 -8.5 45t-19.5 27t-33.5 14t-37 5.5t-43.5 0.5h-528l31 199h587q69 0 117.5 -13t87.5 -53q55 -55 55 -149q0 -36 -4.5 -74t-14.5 -91.5 t-13 -72.5q-13 -82 -58.5 -134t-126.5 -89q62 -33 89.5 -74t27.5 -108q0 -13 -4 -41l-29 -186q-18 -124 -116 -203q-59 -49 -108 -63.5t-132 -14.5h-574z" />
<glyph unicode="4" horiz-adv-x="1198" d="M100 508q0 40 31 88l510 770h215l-518 -782h500l123 782h198l-217 -1366h-197l62 387h-547q-59 0 -84 8q-33 12 -54.5 44.5t-21.5 68.5z" />
<glyph unicode="5" horiz-adv-x="1198" d="M84 0l31 199h516q31 0 44 0.5t35 6.5t40 19q60 40 73 115q2 13 9 48.5t10.5 54t6.5 47t3 51.5q0 57 -35 91t-92 34h-537l113 700h885l-31 -199h-688l-47 -301h383q116 0 187 -62t71 -177q0 -33 -6 -68l-41 -262q-21 -136 -120.5 -216.5t-238.5 -80.5h-571z" />
<glyph unicode="6" horiz-adv-x="1198" d="M84 227q0 33 8 95l117 743q48 301 375 301h608l-31 -199h-571q-31 0 -57 -5t-45 -16.5t-33.5 -23t-25 -32.5t-17.5 -36.5t-12.5 -43.5t-8.5 -44.5t-7 -49t-7 -48.5h487q49 0 78 -3t65 -19.5t62 -48.5q47 -57 47 -156q0 -35 -6 -70l-45 -284q-20 -130 -113.5 -208.5 t-226.5 -78.5h-369q-119 0 -195.5 56t-76.5 171zM293 313q0 -60 40.5 -87t104.5 -27h264q70 0 116.5 37.5t58.5 105.5q2 12 7.5 39t8 42.5t6 38t5 42.5t1.5 39q0 62 -39 91.5t-104 29.5h-361q-56 0 -65 -52l-39 -250q-4 -32 -4 -49z" />
<glyph unicode="7" horiz-adv-x="1198" d="M254 1167l31 199h753q59 0 98.5 -25t39.5 -81q0 -50 -31 -103l-664 -1157h-211l670 1167h-686z" />
<glyph unicode="8" horiz-adv-x="1198" d="M84 221q0 29 4 63.5t8 58.5t12 65t11 59q14 86 58.5 136t129.5 91q-65 37 -93 78.5t-28 112.5q0 28 4 59t12 74t11 59q27 152 120.5 220.5t252.5 68.5h321q83 0 139 -14.5t101 -63.5q49 -52 49 -135q0 -65 -31 -233q-14 -80 -62 -133t-128 -93q60 -33 89.5 -78t29.5 -112 q0 -24 -3 -53t-6.5 -48t-10 -54t-9.5 -50q-51 -299 -365 -299h-338q-56 0 -104 12t-88 37t-63 69t-23 103zM293 311q0 -112 139 -112h260q75 0 122.5 35t59.5 106l6.5 32.5t7 36t5 33t2.5 35.5q0 62 -39.5 90.5t-103.5 28.5h-252q-70 0 -122 -32.5t-63 -96.5 q-22 -112 -22 -156zM385 901q0 -57 40.5 -81.5t100.5 -24.5h260q157 0 183 139q16 78 16 121q0 58 -42.5 84t-104.5 26h-246q-76 0 -126 -34.5t-63 -106.5q-18 -92 -18 -123z" />
<glyph unicode="9" horiz-adv-x="1198" d="M86 0l31 199h571q31 0 57 5t45 16.5t33.5 23t25 32.5t17.5 36.5t12.5 43.5t8.5 44.5t7 49t7 48.5h-487q-49 0 -78 3t-65 19.5t-62 48.5q-47 57 -47 156q0 36 6 70l45 282q22 131 115 210t225 79h369q119 0 195.5 -56t76.5 -171q0 -33 -8 -95l-117 -743 q-48 -301 -375 -301h-608zM373 823q0 -123 143 -123h361q25 0 43 14t22 38l39 249q4 32 4 50q0 116 -145 116h-265q-71 0 -116.5 -38t-57.5 -107q-28 -147 -28 -199z" />
<glyph unicode=":" horiz-adv-x="417" d="M31 106q0 50 34.5 87.5t84.5 37.5q52 0 88 -35t36 -87q0 -51 -35.5 -87t-86.5 -36q-50 0 -85.5 35.5t-35.5 84.5zM150 870q0 51 34 88t84 37q52 0 88.5 -35.5t36.5 -87.5q0 -51 -36 -86.5t-87 -35.5t-85.5 34.5t-34.5 85.5z" />
<glyph unicode=";" horiz-adv-x="389" d="M-37 -190l123 190q-53 67 -53 111q0 55 43.5 90t99.5 35q44 0 73.5 -37t29.5 -82q0 -36 -31 -84l-146 -223h-139zM156 870q0 52 34 88.5t86 36.5q51 0 87 -36t36 -87t-36 -86.5t-87 -35.5t-85.5 34.5t-34.5 85.5z" />
<glyph unicode="&#x3c;" d="M96 602l23 152l954 424l-26 -177l-752 -323l649 -326l-29 -174z" />
<glyph unicode="=" d="M70 438l26 164h887l-27 -164h-886zM121 770l26 162h887l-24 -162h-889z" />
<glyph unicode="&#x3e;" d="M29 178l26 176l752 324l-647 326l26 174l822 -424l-25 -152z" />
<glyph unicode="?" horiz-adv-x="1021" d="M162 1167l31 199h593q121 0 184.5 -59t63.5 -179q0 -46 -4 -71l-41 -252q-9 -54 -45 -111.5t-80 -89.5q-27 -21 -57.5 -33.5t-73.5 -17.5t-63.5 -6.5t-78.5 -0.5t-67 1q-14 0 -24.5 -15.5t-12.5 -29.5l-32 -205h-197l37 233q15 93 82.5 146t163.5 53h47q35 0 58.5 1.5 t51.5 8.5t46 20t33 37t22 58q3 16 9.5 50t10 54.5t7 49.5t3.5 53q0 52 -37.5 79t-91.5 27h-538zM219 100q0 49 32.5 85t80.5 36q50 0 84.5 -34.5t34.5 -84.5q0 -47 -35 -81.5t-82 -34.5t-81 33.5t-34 80.5z" />
<glyph unicode="@" horiz-adv-x="1501" d="M82 373q0 196 95 359t258.5 256t359.5 93q131 0 249 -43.5t206 -121t140 -191.5t52 -248q0 -95 -31 -190q-17 -52 -44.5 -101t-65.5 -92t-89 -69.5t-106 -26.5q-61 0 -103 35.5t-49 95.5q-43 -65 -110 -103t-144 -38q-131 0 -209.5 96.5t-78.5 230.5q0 76 26 149.5 t71.5 132t113.5 94.5t147 36q156 0 221 -141l23 116h123l-80 -419q-1 -8 -6 -28t-7 -34t-2 -28q0 -37 17.5 -64t52.5 -27t68 21.5t57 56.5t40.5 69t27.5 68q24 80 24 160q0 147 -72 260t-192 171.5t-266 58.5q-165 0 -301.5 -79t-214.5 -215.5t-78 -301.5q0 -116 42 -225 t120 -191q163 -168 440 -168q226 0 420 86l33 -111q-197 -88 -451 -88q-205 0 -370 86t-261 246t-96 367zM553 319q0 -87 46 -145.5t130 -58.5q54 0 98 28t70 73t39.5 96.5t13.5 101.5q0 78 -44.5 131t-121.5 53q-100 0 -165.5 -87.5t-65.5 -191.5z" />
<glyph unicode="A" horiz-adv-x="1196" d="M-72 0l641 1255q64 125 179 125q117 0 139 -125l243 -1255h-210l-66 340h-541l-174 -340h-211zM406 528h413l-121 613z" />
<glyph unicode="B" horiz-adv-x="1198" d="M41 0l217 1366h684q78 0 129.5 -17.5t87.5 -72.5q35 -49 35 -123q0 -51 -27 -209q-18 -106 -52.5 -160.5t-123.5 -101.5q61 -31 82 -69t21 -109q0 -60 -25 -191q-27 -148 -112 -230.5t-230 -82.5h-686zM270 199h428q149 0 176 149q1 5 10 52t9 71q0 113 -133 113h-428z M365 780h423q155 0 181 142q18 97 18 131q0 114 -143 114h-420z" />
<glyph unicode="C" horiz-adv-x="1062" d="M82 229q0 24 8 78l119 756q11 80 38.5 137.5t84.5 102.5q52 40 106 51.5t137 11.5h572l-31 -199h-524q-86 0 -133 -33.5t-60 -115.5l-102 -645q-4 -36 -4 -58q0 -36 12 -60t35 -35.5t48.5 -16t60.5 -4.5h512l-31 -199h-586q-116 0 -189 58t-73 171z" />
<glyph unicode="D" horiz-adv-x="1206" d="M41 0l217 1366h688q79 0 131.5 -19.5t89.5 -76.5q37 -56 37 -129q0 -41 -6 -82l-119 -746q-22 -143 -111.5 -228t-232.5 -85h-694zM270 199h430q86 0 131.5 45t59.5 133l100 629q4 32 4 47q0 58 -40 86t-101 28h-430z" />
<glyph unicode="E" horiz-adv-x="1087" d="M82 229q0 42 4 62l123 772q22 139 115 221t233 82h588l-33 -199h-516q-85 0 -134.5 -35.5t-62.5 -117.5l-37 -234h689l-31 -196h-688l-37 -230q-2 -12 -2 -35q0 -68 39.5 -94t111.5 -26h514l-30 -199h-570q-58 0 -106.5 12.5t-87.5 38.5t-60.5 71.5t-21.5 106.5z" />
<glyph unicode="F" horiz-adv-x="1038" d="M41 0l172 1087q11 65 43.5 122t83.5 94q50 37 102.5 50t124.5 13h580l-33 -199h-524q-75 0 -125.5 -36t-63.5 -107q-20 -115 -39 -244h691l-33 -196h-688l-92 -584h-199z" />
<glyph unicode="G" horiz-adv-x="1193" d="M84 221q0 43 12 129l111 694q15 95 44 154.5t97 106.5q53 37 108 49t132 12h571l-33 -199h-528q-95 0 -140 -32.5t-59 -122.5l-104 -654q-4 -36 -4 -53q0 -51 32.5 -78.5t84.5 -27.5h290q73 0 117.5 39t56.5 112l66 404h197l-68 -424q-13 -80 -37 -134.5t-76 -105.5 t-106.5 -70.5t-130.5 -19.5h-346q-82 0 -133.5 14.5t-98.5 63.5q-32 33 -43.5 64t-11.5 79z" />
<glyph unicode="H" horiz-adv-x="1212" d="M41 0l217 1366h197l-93 -586h599l92 586h198l-217 -1366h-196l92 584h-598l-92 -584h-199z" />
<glyph unicode="I" horiz-adv-x="415" d="M41 0l217 1366h197l-215 -1366h-199z" />
<glyph unicode="J" horiz-adv-x="581" d="M-49 0l33 199q13 0 38.5 -1t38.5 -1q56 0 92.5 11t59 37t34.5 59.5t21 88.5l156 973h197l-162 -1026q-15 -94 -38.5 -148t-84.5 -108q-57 -50 -112 -67t-138 -17h-135z" />
<glyph unicode="K" horiz-adv-x="1054" d="M41 0l217 1366h197l-215 -1366h-199zM354 682q0 43 78 121l529 563h237l-627 -674l424 -692h-237l-361 573q-43 73 -43 109z" />
<glyph unicode="L" horiz-adv-x="1009" d="M84 227q0 57 8 101l164 1038h199l-156 -991q-6 -35 -6 -66q0 -32 11 -54t24 -33t40.5 -16.5t44 -6t50.5 -0.5h14h484l-33 -199h-537q-307 0 -307 227z" />
<glyph unicode="M" horiz-adv-x="1585" d="M41 0l190 1198q12 78 65 130t130 52q64 0 99.5 -32t47.5 -97l193 -975l508 977q66 129 182 129q70 0 108 -39.5t38 -109.5q0 -6 -5 -41l-188 -1192h-190l172 1083l-504 -964q-18 -33 -30.5 -53t-32.5 -43.5t-46 -34.5t-57 -11q-30 0 -51 10.5t-33.5 33t-18 41.5t-12.5 51 l-203 970l-172 -1083h-190z" />
<glyph unicode="N" horiz-adv-x="1202" d="M41 0l186 1178q13 87 61 143.5t132 56.5q37 0 61.5 -8.5t40.5 -30t23.5 -39.5t19.5 -56q4 -12 6 -19l306 -967l174 1108h190l-188 -1196q-11 -76 -62.5 -131t-126.5 -55q-21 0 -38 3.5t-28.5 8t-22 15t-16.5 18t-12.5 23.5t-10 25.5t-10 30t-9.5 31.5l-311 969 l-175 -1108h-190z" />
<glyph unicode="O" horiz-adv-x="1177" d="M84 246q0 41 4 61l119 748q11 71 45 134.5t88 106.5q88 70 244 70h305q282 0 282 -236q0 -38 -6 -75l-118 -746q-51 -309 -377 -309h-301q-138 0 -211.5 56t-73.5 190zM293 324q0 -74 39 -99.5t117 -25.5h208q92 0 140 35.5t61 123.5l100 639q5 40 5 52q0 70 -39 94 t-115 24h-209q-95 0 -142.5 -38.5t-62.5 -131.5l-100 -632q-2 -14 -2 -41z" />
<glyph unicode="P" horiz-adv-x="1132" d="M41 0l217 1366h674q115 0 190.5 -57.5t75.5 -169.5q0 -13 -4 -41l-47 -293q-22 -136 -112.5 -214.5t-227.5 -78.5h-488l-79 -512h-199zM352 715h420q86 0 131 35t58 118q2 14 8 44.5t9 49.5t6 45.5t3 47.5q0 58 -39 85t-100 27h-424z" />
<glyph unicode="Q" horiz-adv-x="1189" d="M82 223q0 41 6 82l119 754q13 84 43 142.5t92 101.5q54 38 109 50.5t135 12.5h307q77 0 128.5 -11.5t96.5 -51.5q64 -59 64 -160q0 -41 -6 -84l-119 -754q-20 -119 -79 -193t-171 -102l166 -205h-273l-161 195h-168q-77 0 -129 11.5t-97 51.5q-63 58 -63 160zM291 309 q0 -36 13 -59t38 -33.5t49.5 -14t59.5 -3.5h206q95 0 145 31.5t64 119.5l103 656q4 32 4 49q0 36 -13 59.5t-38 34.5t-50 14.5t-61 3.5h-207q-96 0 -144.5 -34.5t-62.5 -126.5l-102 -648q-4 -32 -4 -49z" />
<glyph unicode="R" horiz-adv-x="1163" d="M41 0l217 1366h666q264 0 264 -233q0 -22 -4 -58l-37 -235q-20 -127 -111.5 -205t-220.5 -78h-231l432 -557h-250l-404 524q-14 19 -14 58q0 69 38.5 107t107.5 38q48 0 145 1t145 1q145 0 168 137q27 137 27 191q0 58 -40 84t-103 26h-412l-184 -1167h-199z" />
<glyph unicode="S" horiz-adv-x="1038" d="M12 0l31 199h510q85 0 133.5 30.5t61.5 108.5q20 122 20 149q0 103 -147 103h-211q-118 0 -192.5 58.5t-74.5 172.5q0 15 4 43l33 213q11 70 46 130.5t91 99.5q83 59 211 59h580l-31 -199h-510q-83 0 -131.5 -31.5t-64.5 -109.5q-19 -97 -19 -127q0 -38 15.5 -62 t45 -34.5t55 -13.5t62.5 -3q25 0 73 1t71 1q55 0 96 -5t81.5 -19.5t66 -39t41.5 -66.5t16 -99q0 -19 -4 -51l-33 -217q-21 -142 -116 -216.5t-240 -74.5h-570z" />
<glyph unicode="T" horiz-adv-x="901" d="M129 1167l31 199h878l-32 -199h-340l-185 -1167h-198l184 1167h-338z" />
<glyph unicode="U" horiz-adv-x="1200" d="M84 229q0 50 10 115l162 1022h199l-156 -985q-6 -35 -6 -70q0 -36 14 -60t41 -34.5t52 -14t61 -3.5h205q107 0 154.5 37t64.5 141l155 989h199l-162 -1022q-15 -96 -40.5 -153.5t-88.5 -110.5q-63 -52 -115 -66t-145 -14h-326q-80 0 -129 14.5t-92 65.5q-31 36 -44 69 t-13 80z" />
<glyph unicode="V" horiz-adv-x="1155" d="M131 1366h209l209 -1102l561 1102h211l-651 -1255q-30 -59 -68 -92t-96 -33q-56 0 -83.5 33t-39.5 92z" />
<glyph unicode="W" horiz-adv-x="1603" d="M172 1366h195l69 -1079l338 942q58 153 178 153q122 0 129 -153l41 -942l412 1079h195l-469 -1239q-23 -63 -70.5 -104t-110.5 -41q-62 0 -95 39.5t-36 103.5l-45 965l-344 -965q-23 -63 -69 -103t-109 -40q-61 0 -95.5 41t-37.5 104z" />
<glyph unicode="X" horiz-adv-x="1128" d="M-68 0l566 694l-332 672h235l232 -481l391 481h233l-540 -670l344 -696h-236l-254 510l-405 -510h-234z" />
<glyph unicode="Y" horiz-adv-x="1077" d="M131 1366h225l232 -592l428 592h227l-586 -811l-88 -555h-198l88 555z" />
<glyph unicode="Z" horiz-adv-x="1028" d="M0 117q0 47 51 110l787 940h-652l31 199h764q123 0 123 -106q0 -62 -37 -105l-805 -956h653l-32 -199h-711q-172 0 -172 117z" />
<glyph unicode="[" horiz-adv-x="550" d="M25 -383l292 1843h295l-24 -145h-115l-246 -1551h115l-23 -147h-294z" />
<glyph unicode="\" d="M227 1460h172l414 -1843h-172z" />
<glyph unicode="]" horiz-adv-x="550" d="M-27 -383l25 147h115l245 1551h-116l22 145h295l-291 -1843h-295z" />
<glyph unicode="^" d="M43 733l354 633h230l354 -633h-188l-281 494l-283 -494h-186z" />
<glyph unicode="_" d="M0 -127h1024v-164h-1024v164z" />
<glyph unicode="`" d="M516 1401h166l94 -246h-147z" />
<glyph unicode="a" horiz-adv-x="1071" d="M76 199q0 15 4 47l29 184q19 120 98.5 188t200.5 68h419q1 8 4.5 23t5 26.5t1.5 22.5q0 94 -117 94h-543l29 174h567q118 0 182 -48t64 -161q0 -19 -4 -51l-82 -510q-19 -115 -95.5 -185.5t-191.5 -70.5h-338q-102 0 -167.5 50t-65.5 149zM260 270q0 -45 33.5 -69.5 t79.5 -24.5h250q123 0 141 115l31 196q0 2 1 6.5t1 6.5q0 9 -13 14.5t-24 5.5h-336q-65 0 -99.5 -31.5t-45.5 -95.5q-19 -97 -19 -123z" />
<glyph unicode="b" horiz-adv-x="1079" d="M78 207q0 37 6 74l174 1108h176l-57 -363h420q104 0 165.5 -55.5t61.5 -157.5q0 -21 -4 -57l-76 -482q-20 -132 -99.5 -203t-211.5 -71h-309q-106 0 -176 52.5t-70 154.5zM262 285q0 -55 38 -82t95 -27h215q77 0 121 39q24 21 32 42t13 60l62 392q2 12 2 36 q0 50 -36 77.5t-87 27.5h-324q-19 0 -33.5 -11.5t-17.5 -29.5l-78 -502q-2 -8 -2 -22z" />
<glyph unicode="c" horiz-adv-x="858" d="M78 201q0 34 6 71l78 496q21 127 89 192.5t193 65.5h441l-27 -174h-369q-76 0 -111.5 -29t-47.5 -104l-64 -406q-2 -10 -2 -28q0 -109 127 -109h363l-29 -176h-397q-116 0 -183 45.5t-67 155.5z" />
<glyph unicode="d" horiz-adv-x="1079" d="M78 205q0 35 6 69l76 482q20 123 103 196.5t206 73.5h420l57 363h176l-176 -1108q-12 -73 -38 -124.5t-79 -90.5q-91 -66 -211 -66h-309q-107 0 -169 50.5t-62 154.5zM260 262q0 -47 38 -66.5t89 -19.5h213q67 0 115.5 34t58.5 97l80 502v4q0 37 -37 37h-323 q-67 0 -111 -37.5t-55 -103.5l-62 -392q-6 -54 -6 -55z" />
<glyph unicode="e" horiz-adv-x="1038" d="M78 197q0 41 6 82l78 485q42 262 321 262h310q102 0 163.5 -45t61.5 -143q0 -53 -27 -215l-719 -275q-1 -9 -2.5 -24.5t-2.5 -28.5t-1 -25q0 -58 34 -76t97 -18h521l-27 -176h-567q-64 0 -107.5 11t-81.5 46q-57 54 -57 140zM299 518l526 203q6 21 6 43q0 48 -36.5 68 t-87.5 20h-193q-166 0 -184 -131z" />
<glyph unicode="f" horiz-adv-x="485" d="M41 0l180 1137q18 115 104.5 183.5t204.5 68.5h132l-27 -170h-92q-62 0 -102 -36t-52 -98q-2 -10 -5 -29.5t-5 -29.5h225l-26 -174h-228l-133 -852h-176z" />
<glyph unicode="g" horiz-adv-x="1075" d="M-16 -365l26 175h537q48 0 80.5 12.5t51 40.5t27.5 58t17 79h-387q-47 0 -73 2.5t-60 15t-62 37.5q-61 55 -61 146q0 39 4 59l76 479q24 146 100 216.5t221 70.5h293q54 0 95 -7t78.5 -26t58 -57t20.5 -94q0 -40 -6 -84l-135 -848q-21 -135 -111.5 -205t-230.5 -70h-559z M266 276q0 -58 35 -79t98 -21h314q39 0 45 39l76 485q1 5 4.5 26.5t3.5 31.5q0 47 -40.5 70.5t-90.5 23.5h-219q-139 0 -160 -137l-64 -402q-2 -12 -2 -37z" />
<glyph unicode="h" horiz-adv-x="1067" d="M41 0l219 1389h176l-57 -363h393q244 0 244 -207q0 -19 -4 -55l-121 -764h-176l112 702q4 36 4 58q0 92 -122 92h-316q-25 0 -35.5 -10.5t-13.5 -36.5l-127 -805h-176z" />
<glyph unicode="i" horiz-adv-x="395" d="M43 0l164 1026h174l-162 -1026h-176zM211 1296q0 48 33 83.5t82 35.5q47 0 81.5 -35t34.5 -82t-34.5 -81.5t-81.5 -34.5t-81 33.5t-34 80.5z" />
<glyph unicode="j" horiz-adv-x="393" d="M-244 -365l29 175h90q61 0 104 35t52 94l172 1087h176l-178 -1118q-20 -130 -102.5 -201.5t-213.5 -71.5h-129zM207 1296q0 49 32 84t80 35q50 0 84.5 -34t34.5 -83q0 -47 -34.5 -81.5t-81.5 -34.5t-81 33.5t-34 80.5z" />
<glyph unicode="k" horiz-adv-x="929" d="M41 0l219 1389h176l-219 -1389h-176zM309 510q0 43 49 92l420 424h213l-493 -502l352 -524h-217l-305 455q-19 30 -19 55z" />
<glyph unicode="l" horiz-adv-x="393" d="M41 0l219 1389h176l-219 -1389h-176z" />
<glyph unicode="m" horiz-adv-x="1462" d="M41 0l119 756q18 124 102 200q44 40 88.5 55t108.5 15h159q75 0 118 -21.5t75 -84.5q45 56 99 81t128 25h158q62 0 100.5 -13.5t71.5 -56.5q43 -54 43 -129q0 -33 -6 -71l-121 -756h-174l113 713q2 12 2 35q0 62 -34.5 84t-100.5 22h-19.5h-20.5t-19 -0.5t-20.5 -1.5 t-18 -2.5t-19.5 -3.5t-17.5 -5.5t-18.5 -8t-15.5 -10.5t-16.5 -13q-15 -14 -23.5 -32t-11 -29.5t-6.5 -38.5l-112 -709h-177l113 709q6 54 6 55q0 90 -143 90q-34 0 -55.5 -1.5t-48 -5.5t-44 -13.5t-34 -24.5t-26.5 -39t-15 -57l-111 -713h-176z" />
<glyph unicode="n" horiz-adv-x="1060" d="M41 0l123 776q20 125 99 187.5t208 62.5h309q232 0 232 -192q0 -22 -4 -58l-123 -776h-176l114 727q2 8 2 25q0 58 -33.5 79t-95.5 21h-196q-149 0 -168 -125l-115 -727h-176z" />
<glyph unicode="o" horiz-adv-x="1071" d="M74 197q0 39 4 59l82 510q23 139 119 207q45 32 85 42.5t101 10.5h332q57 0 94.5 -9.5t69.5 -41.5q57 -57 57 -150q0 -29 -6 -59l-80 -510q-20 -134 -117 -205q-42 -31 -82 -41t-100 -10h-330q-59 0 -97 9.5t-73 41.5q-59 54 -59 146zM260 270q0 -44 30 -69t75 -25h258 q57 0 94.5 34.5t46.5 92.5l65 414q2 12 2 35q0 49 -28.5 74.5t-77.5 25.5h-236q-140 0 -161 -135l-66 -412q-2 -12 -2 -35z" />
<glyph unicode="p" horiz-adv-x="1071" d="M-16 -365l176 1119q43 272 303 272h315q110 0 176 -47t66 -152q0 -33 -6 -67q-54 -364 -80 -504q-20 -114 -102.5 -185t-196.5 -71h-418l-59 -365h-174zM250 213q0 -37 41 -37h323q62 0 101.5 34.5t50.5 96.5l68 418v8q0 63 -28.5 91t-92.5 28h-217q-145 0 -166 -139 l-78 -494q0 -1 -1 -3t-1 -3z" />
<glyph unicode="q" horiz-adv-x="1071" d="M76 209q0 15 4 47l80 504q43 266 317 266h318q221 0 221 -203q0 -35 -6 -69l-176 -1119h-177l58 365h-418q-97 0 -159 56.5t-62 152.5zM260 276q0 -100 113 -100h323q21 0 36 11.5t18 31.5l77 494q2 8 2 26q0 61 -31 87t-93 26h-216q-65 0 -108 -32t-53 -95l-66 -418 q-2 -10 -2 -31z" />
<glyph unicode="r" horiz-adv-x="512" d="M41 0l119 752q44 274 317 274h131l-28 -174h-50q-98 0 -143 -28t-59 -119l-111 -705h-176z" />
<glyph unicode="s" horiz-adv-x="935" d="M10 0l29 176h479q141 0 141 172q0 47 -25 64.5t-73 17.5h-217q-98 0 -163.5 49.5t-65.5 143.5q0 37 24 174q22 118 121 186q64 43 178 43h514l-28 -174h-465h-11h-11h-9.5t-10 -0.5t-9 -1.5t-10 -2t-9 -2.5t-9.5 -3.5t-9.5 -5t-10.5 -6q-63 -38 -63 -143 q0 -27 10.5 -44.5t31.5 -25t39.5 -10t45.5 -2.5h231q92 0 142.5 -55t50.5 -148q0 -39 -23 -161q-17 -99 -94 -172q-44 -42 -84.5 -56t-107.5 -14h-529z" />
<glyph unicode="t" horiz-adv-x="483" d="M41 0l219 1389h176l-57 -363h223l-27 -174h-225l-133 -852h-176z" />
<glyph unicode="u" horiz-adv-x="1071" d="M78 201q0 21 4 57l121 768h176l-115 -717q-2 -8 -2 -26q0 -63 35.5 -85t103.5 -22h189q75 0 120 30t56 101l115 719h176l-123 -768q-42 -258 -316 -258h-301q-114 0 -176.5 45.5t-62.5 155.5z" />
<glyph unicode="v" horiz-adv-x="1007" d="M82 1026h182l205 -801l463 801h180l-547 -954q-21 -37 -57 -60.5t-76 -23.5q-38 0 -66.5 23.5t-37.5 60.5z" />
<glyph unicode="w" horiz-adv-x="1374" d="M123 1026h172l70 -803l270 680q54 131 149 131q93 0 105 -131l55 -680l324 803h172l-361 -899q-59 -141 -168 -141q-107 0 -118 135l-56 657l-254 -657q-22 -59 -64 -97t-100 -38q-111 0 -122 141z" />
<glyph unicode="x" horiz-adv-x="935" d="M-61 0l446 528l-260 498h209l172 -330l285 330h208l-415 -498l274 -528h-209l-194 358l-305 -358h-211z" />
<glyph unicode="y" horiz-adv-x="1067" d="M-16 -365l26 179h541q47 0 77.5 12.5t47.5 41t24.5 56t14.5 76.5h-402q-66 0 -105.5 13t-76.5 55q-53 62 -53 135q0 33 6 63l119 760h176l-113 -711q-4 -24 -4 -36q0 -52 33.5 -77.5t87.5 -25.5h313q26 0 37.5 13t16.5 40l127 797h176l-179 -1116q-19 -122 -99.5 -198.5 t-201.5 -76.5h-589z" />
<glyph unicode="z" horiz-adv-x="1003" d="M0 109q0 56 68 116l702 627h-633l27 174h721q67 0 103 -21t36 -83q0 -70 -51 -115l-721 -631h633l-27 -176h-717q-59 0 -100 26.5t-41 82.5z" />
<glyph unicode="{" horiz-adv-x="571" d="M49 473l23 141q66 16 98 59t43 115l63 392q24 149 105 214.5t233 65.5q51 0 78 -2l-24 -153q-61 0 -94 -4.5t-62 -21.5t-44 -50.5t-24 -91.5l-57 -361q-14 -93 -48 -145t-114 -92q50 -31 71 -68.5t21 -95.5q0 -37 -6 -78l-55 -350q-8 -54 -8 -80q0 -22 7 -38.5 t22.5 -26.5t29.5 -16t37.5 -8t36.5 -2.5t37 -0.5h8l-25 -156h-84q-56 0 -98.5 9t-77.5 31t-54 62.5t-19 98.5q0 32 8 94l59 375q6 35 6 65q0 96 -92 119z" />
<glyph unicode="|" d="M424 -383v1749h176v-1749h-176z" />
<glyph unicode="}" horiz-adv-x="571" d="M-86 -379l25 154q106 0 147 20q60 30 78 152l55 350q14 96 47.5 148.5t114.5 93.5q-51 31 -71.5 65.5t-20.5 91.5q0 42 6 82l57 359q6 37 6 71q0 24 -7.5 41.5t-23.5 27.5t-30 16t-39.5 8.5t-38.5 3t-39 0.5l25 153q27 2 80 2q57 0 100 -9t80 -30.5t56.5 -63t19.5 -100.5 q0 -16 -9 -77l-61 -392q-6 -34 -6 -67q0 -93 92 -117l-22 -141q-68 -16 -99.5 -58.5t-42.5 -115.5l-59 -375q-27 -171 -111.5 -233t-263.5 -62q-7 0 -22.5 1t-22.5 1z" />
<glyph unicode="~" horiz-adv-x="1366" d="M88 637q24 41 36 60t35.5 53t40 51t43.5 40t52.5 33.5t59.5 18.5t73 8q62 0 136.5 -24.5t132.5 -54.5t127 -54.5t120 -24.5q33 0 61.5 9.5t47 20.5t41 36t33.5 40t34 50l117 -68q-64 -105 -102 -143q-52 -53 -122.5 -81.5t-146.5 -28.5q-54 0 -124.5 24t-128.5 52.5 t-125.5 52.5t-114.5 24q-32 0 -60.5 -10t-47.5 -23t-40.5 -39t-33 -43.5t-31.5 -50.5z" />
<glyph unicode="&#xa1;" horiz-adv-x="503" d="M29 -344l170 1071h200l-170 -1071h-200zM211 918q0 47 35 81.5t82 34.5t81.5 -33.5t34.5 -80.5q0 -48 -32.5 -83.5t-81.5 -35.5q-47 0 -83 35t-36 82z" />
<glyph unicode="&#xa2;" horiz-adv-x="858" d="M78 201q0 34 6 71l78 496q21 127 89 192.5t193 65.5h148l22 150h66l-25 -150h230l-27 -174h-229l-107 -676h232l-29 -176h-231l-19 -113h-65l18 113h-55q-37 0 -64 1t-60 6t-55.5 13t-46 23t-37.5 36t-23 52t-9 70zM262 285q0 -109 129 -109h66l106 676h-82 q-70 0 -108 -33q-17 -15 -26 -32t-11 -28t-6 -40l-64 -406q-4 -20 -4 -28z" />
<glyph unicode="&#xa3;" horiz-adv-x="1228" d="M-23 0l31 199q60 11 100.5 26t75.5 49q31 30 53.5 71t28.5 81q4 27 13.5 83t13.5 83h-221l30 199h224l43 268q24 144 110 225.5t228 81.5h149q77 0 128 -17t89 -71q41 -57 41 -143q0 -49 -22 -170h-201q1 10 4.5 29t5.5 34t2 29q0 47 -30.5 77.5t-77.5 30.5h-80 q-59 0 -100 -37t-50 -96q-6 -40 -18.5 -120.5t-18.5 -120.5h410l-31 -199h-411q-4 -22 -11 -67t-10.5 -64.5t-12 -55t-18.5 -56t-25.5 -49t-37.5 -52.5t-51 -49h469q67 0 122 42t64 107q1 10 4 32t4 32h203l-14 -103q-20 -137 -133 -223t-254 -86h-818z" />
<glyph unicode="&#xa4;" horiz-adv-x="1366" d="M92 1217l98 98l199 -199q141 101 295 101q148 0 289 -99l198 195l97 -96l-195 -197q101 -147 101 -291q0 -80 -25 -147t-76 -140l199 -198l-96 -99l-199 199q-133 -102 -293 -102q-145 0 -293 100l-196 -197l-99 99l199 196q-102 126 -102 291q0 154 100 287zM354 729 q0 -135 96.5 -232.5t231.5 -97.5q136 0 233 96.5t97 233.5t-97 234.5t-233 97.5t-232 -98t-96 -234z" />
<glyph unicode="&#xa5;" horiz-adv-x="1120" d="M18 383l21 123h434l8 49l-35 88h-385l21 121h315l-245 602h227l229 -592l430 592h226l-426 -602h317l-20 -125h-387l-68 -84l-8 -49h440l-18 -125h-443l-59 -381h-199l60 383h-435z" />
<glyph unicode="&#xa6;" d="M424 313h176v-696h-176v696zM424 678v688h176v-688h-176z" />
<glyph unicode="&#xa7;" horiz-adv-x="1095" d="M84 -80q0 38 6 76h162q-2 -18 -2 -53q0 -91 50 -138t142 -47t161 54t69 143q0 58 -41 102q-17 19 -42.5 40t-62.5 45t-60 38t-67.5 40t-52.5 30q-114 69 -153 103q-99 86 -99 200q0 117 70 201.5t184 126.5q-63 66 -63 157q0 79 36 145t95 107.5t131 64.5t147 23 q148 0 236 -75.5t88 -221.5q0 -31 -6 -61h-160q2 14 2 45q0 87 -47.5 131.5t-134.5 44.5q-85 0 -150 -50.5t-65 -133.5q0 -15 3 -29t10.5 -27.5t14 -23.5t20.5 -22t21 -18.5t25 -18t24 -15.5t26.5 -15.5t23.5 -13.5q2 -1 34.5 -19.5t41.5 -24t42 -25t47 -29t43.5 -29 t45.5 -32t39 -31.5t37 -34t27.5 -32.5t21.5 -33.5q22 -48 22 -109q0 -111 -73.5 -198.5t-182.5 -124.5q78 -78 78 -177q0 -108 -64 -192t-160 -125t-202 -41q-156 0 -247 75.5t-91 227.5zM254 592q0 -41 33 -82q12 -16 33.5 -34.5t53 -40.5t52 -36t57.5 -37.5t43 -27.5 q11 -7 68.5 -46t89.5 -55q74 22 126 74.5t52 124.5q0 51 -39 96q-22 25 -56 53t-89.5 64t-82.5 53t-96.5 58t-70.5 41q-74 -27 -124 -80t-50 -125z" />
<glyph unicode="&#xa8;" d="M373 1294q0 52 37.5 87.5t89.5 35.5q44 0 74 -36t30 -81q0 -51 -38 -84.5t-91 -33.5q-43 0 -72.5 34t-29.5 78zM694 1294q0 52 37.5 87.5t89.5 35.5q44 0 74.5 -36t30.5 -81q0 -51 -38 -84.5t-91 -33.5q-43 0 -73 34t-30 78z" />
<glyph unicode="&#xa9;" horiz-adv-x="1570" d="M131 682q0 143 55.5 273.5t149.5 225t224.5 150t273.5 55.5q142 0 272 -56t223.5 -150.5t149 -224.5t55.5 -273t-55.5 -272.5t-149 -224t-223 -150t-272.5 -55.5q-190 0 -352 94t-256.5 256t-94.5 352zM242 684q0 -121 46 -232t124 -192.5t187.5 -129.5t231.5 -48 q162 0 298 81t214 219t78 300q0 120 -45.5 231t-123.5 192.5t-187.5 130t-230.5 48.5q-162 0 -298.5 -81t-215 -219t-78.5 -300zM483 453v444q0 108 53.5 150.5t163.5 42.5h377v-144h-346q-46 0 -68 -15t-22 -59v-380q0 -54 21 -72.5t75 -18.5h338v-143h-385 q-96 0 -151.5 50t-55.5 145z" />
<glyph unicode="&#xaa;" horiz-adv-x="692" d="M100 604l19 107h545l-17 -107h-547zM172 932q0 18 2.5 36.5t7 44.5t6.5 36q12 70 63 107.5t124 37.5h211q2 6 2 18q0 37 -47 37h-318l19 117h331q154 0 154 -123q0 -18 -2 -26l-39 -256q-10 -67 -60.5 -106.5t-119.5 -39.5h-187q-63 0 -105 28.5t-42 88.5zM313 967 q0 -14 15.5 -22.5t29.5 -8.5h138q47 0 55 43l14 90q0 1 1 2t1 2q-2 4 -10 4h-178q-27 0 -40 -10.5t-17 -36.5q-9 -45 -9 -63z" />
<glyph unicode="&#xab;" horiz-adv-x="909" d="M72 500q0 49 61 114l313 334h160l-401 -426l268 -432h-166l-203 330q-2 4 -7 12.5t-7.5 13t-6.5 12.5t-6 14t-3.5 13.5t-1.5 14.5zM395 500q0 48 62 114l313 334h160l-402 -426l267 -432h-166l-203 330q-31 55 -31 80z" />
<glyph unicode="&#xac;" d="M68 383v164h888v-547h-176v383h-712z" />
<glyph unicode="&#xad;" horiz-adv-x="548" d="M12 514l29 178h551l-29 -178h-551z" />
<glyph unicode="&#xae;" d="M199 1133q0 173 124 295t298 122t297.5 -121.5t123.5 -295.5t-123.5 -297t-297.5 -123q-173 0 -297.5 123.5t-124.5 296.5zM283 1133q0 -139 99.5 -238.5t238.5 -99.5q140 0 240 99.5t100 238.5t-100 238t-240 99t-239 -99t-99 -238zM461 930v436h237q50 0 81.5 -24.5 t31.5 -73.5v-72q0 -40 -27 -68t-67 -28h-64l174 -170h-114l-144 135v106h117q37 0 37 33v47q0 31 -43 31h-127v-352h-92z" />
<glyph unicode="&#xaf;" d="M379 1178l20 129h504l-20 -129h-504z" />
<glyph unicode="&#xb0;" horiz-adv-x="798" d="M213 1098q0 121 87 204.5t208 83.5q123 0 210 -84t87 -206q0 -120 -88 -204.5t-209 -84.5t-208 85t-87 206zM324 1098q0 -76 53.5 -129.5t130.5 -53.5q74 0 130 53.5t56 127.5q0 76 -55 129t-131 53q-75 0 -129.5 -52.5t-54.5 -127.5z" />
<glyph unicode="&#xb1;" d="M18 113l25 163h889l-27 -163h-887zM111 698l26 162h355l55 342h174l-53 -342h356l-27 -162h-356l-53 -342h-176l55 342h-356z" />
<glyph unicode="&#xb2;" horiz-adv-x="755" d="M98 532l45 293q13 88 79 137.5t157 49.5h133q46 0 72 14t34 55q13 59 13 82q0 58 -80 58h-342l22 145h375q84 0 136.5 -37.5t52.5 -118.5q0 -25 -4 -51.5t-12.5 -66.5t-10.5 -50q-17 -85 -81 -130.5t-152 -45.5h-136q-92 0 -102 -69l-9 -60t-9 -61h432l-23 -144h-590z " />
<glyph unicode="&#xb3;" horiz-adv-x="755" d="M82 532l22 144h351q43 0 64 16t30 58q12 58 12 86q0 45 -69 45h-170l24 143h168q40 0 61.5 14t28.5 52q12 58 12 90q0 7 -1.5 12.5t-3 9.5t-5.5 7t-6.5 5t-8.5 3.5t-9 2t-10.5 1t-10 0.5h-10.5h-10h-348l22 145h377q188 0 188 -141q0 -27 -20 -140q-17 -86 -98 -133 q59 -36 59 -106q0 -20 -3 -41t-9.5 -52t-8.5 -40q-14 -81 -79 -131q-38 -30 -73 -40t-87 -10h-379z" />
<glyph unicode="&#xb4;" d="M477 1155l172 246h166l-190 -246h-148z" />
<glyph unicode="&#xb6;" horiz-adv-x="1228" d="M201 940q0 91 39 176.5t108 143.5q126 106 371 106h581l-22 -139h-129l-254 -1610h-152l254 1610h-204l-254 -1610h-152l164 1030h-27q-143 0 -233 76t-90 217z" />
<glyph unicode="&#xb7;" horiz-adv-x="417" d="M117 621q0 50 34.5 87t84.5 37q52 0 88 -35t36 -87q0 -51 -35.5 -87t-86.5 -36q-50 0 -85.5 36t-35.5 85z" />
<glyph unicode="&#xb8;" d="M182 -356l39 61q79 -35 146 -35q48 0 88.5 24.5t40.5 69.5q0 33 -25.5 49.5t-60.5 16.5q-37 0 -86 -18l-29 32l135 156h74l-101 -119q42 10 74 10q59 0 98 -28t39 -84q0 -82 -76 -130t-163 -48q-96 0 -193 43z" />
<glyph unicode="&#xb9;" horiz-adv-x="755" d="M315 532l131 834h158l-131 -834h-158z" />
<glyph unicode="&#xba;" horiz-adv-x="690" d="M100 604l17 107h545l-17 -107h-545zM172 930q0 21 2 31l41 256q12 76 63 112.5t132 36.5h170q147 0 147 -119q0 -20 -2 -30l-41 -256q-12 -73 -63.5 -109.5t-128.5 -36.5h-168q-152 0 -152 115zM311 971q0 -35 54 -35h122q56 0 64 49l33 207q0 3 1 8t1 8q0 35 -49 35 h-123q-31 0 -47.5 -11t-20.5 -40l-33 -207q0 -2 -1 -7t-1 -7z" />
<glyph unicode="&#xbb;" horiz-adv-x="909" d="M8 90l402 426l-269 432h168l203 -330q31 -55 31 -79q0 -49 -62 -115l-313 -334h-160zM330 90l401 426l-266 432h166l203 -330q30 -54 30 -79q0 -56 -59 -115l-316 -334h-159z" />
<glyph unicode="&#xbc;" horiz-adv-x="1624" d="M158 532l131 834h157l-131 -834h-157zM186 0l998 1366h180l-997 -1366h-181zM893 315q0 24 20 52l322 467h147l-297 -461h273l72 461h157l-131 -834h-158l37 227h-327q-49 0 -82 21t-33 67z" />
<glyph unicode="&#xbd;" horiz-adv-x="1624" d="M104 0l998 1366h180l-997 -1366h-181zM158 532l131 834h157l-131 -834h-157zM885 0l45 293q13 87 78 136.5t155 49.5h135q46 0 72.5 14.5t34.5 55.5q12 54 12 82q0 57 -80 57h-344l23 146h377q84 0 136 -37.5t52 -118.5q0 -25 -4 -51.5t-12.5 -66.5t-10.5 -50 q-17 -85 -81 -130.5t-152 -45.5h-135q-93 0 -103 -70q-3 -21 -9 -61l-9 -60h432l-22 -143h-590z" />
<glyph unicode="&#xbe;" horiz-adv-x="1783" d="M82 532l22 144h351q43 0 64 16t30 58q12 58 12 86q0 45 -69 45h-170l24 143h168q40 0 61.5 14t28.5 52q12 58 12 90q0 7 -1.5 12.5t-3 9.5t-5.5 7t-6.5 5t-8.5 3.5t-9 2t-10.5 1t-10 0.5h-10.5h-10h-348l22 145h377q188 0 188 -141q0 -27 -20 -140q-17 -86 -98 -133 q59 -36 59 -106q0 -20 -3 -41t-9.5 -52t-8.5 -40q-14 -81 -79 -131q-38 -30 -73 -40t-87 -10h-379zM358 0l998 1366h182l-997 -1366h-183zM1051 307q0 33 20 60l320 467h149l-297 -461h273l71 461h158l-131 -834h-158l37 227h-328q-46 0 -80 18.5t-34 61.5z" />
<glyph unicode="&#xbf;" horiz-adv-x="1021" d="M12 -106q0 34 6 69l39 252q7 53 43.5 110.5t81.5 90.5q24 18 53 30t52.5 18t59.5 9t56 3t61.5 -0.5t57.5 -0.5q14 0 24.5 15.5t12.5 29.5l33 205h199l-37 -236q-15 -91 -84 -143.5t-164 -52.5h-45q-36 0 -59.5 -1.5t-52 -9t-46.5 -20.5t-33 -37t-22 -59 q-29 -147 -29 -193q0 -118 129 -118h537l-31 -199h-594q-121 0 -184.5 59t-63.5 179zM606 918q0 49 33.5 82.5t83.5 33.5q47 0 81 -33.5t34 -80.5t-33.5 -83t-79.5 -36q-47 0 -83 35t-36 82z" />
<glyph unicode="&#xc0;" horiz-adv-x="1196" d="M-72 0l641 1255q64 125 179 125q117 0 139 -125l243 -1255h-210l-66 340h-541l-174 -340h-211zM406 528h413l-121 613zM653 1720h166l94 -245h-147z" />
<glyph unicode="&#xc1;" horiz-adv-x="1196" d="M-72 0l641 1255q64 125 179 125q117 0 139 -125l243 -1255h-210l-66 340h-541l-174 -340h-211zM406 528h413l-121 613zM614 1475l172 245h166l-190 -245h-148z" />
<glyph unicode="&#xc2;" horiz-adv-x="1196" d="M-72 0l641 1255q64 125 179 125q117 0 139 -125l243 -1255h-210l-66 340h-541l-174 -340h-211zM406 528h413l-121 613zM504 1473l186 225h205l127 -225l-145 -3l-95 172l-135 -169h-143z" />
<glyph unicode="&#xc3;" horiz-adv-x="1196" d="M-72 0l641 1255q64 125 179 125q117 0 139 -125l243 -1255h-210l-66 340h-541l-174 -340h-211zM406 528h413l-121 613zM434 1473l19 118q6 2 37 10t47 13q11 4 40 15.5t49 16.5t44 5q41 0 116.5 -30t116.5 -30q19 0 38 4.5t44 14t37 12.5q62 19 96 27l-18 -121l-68 -19 q-9 -2 -61 -21.5t-82 -19.5q-43 0 -122 31t-122 31q-19 0 -57 -10t-94.5 -28t-59.5 -19z" />
<glyph unicode="&#xc4;" horiz-adv-x="1196" d="M-72 0l641 1255q64 125 179 125q117 0 139 -125l243 -1255h-210l-66 340h-541l-174 -340h-211zM406 528h413l-121 613zM489 1585q0 52 37.5 87.5t89.5 35.5q44 0 74.5 -36t30.5 -81q0 -51 -38 -84.5t-91 -33.5q-43 0 -73 34t-30 78zM811 1585q0 52 37.5 87.5t89.5 35.5 q44 0 74 -36t30 -81q0 -51 -38 -84.5t-91 -33.5q-43 0 -72.5 34t-29.5 78z" />
<glyph unicode="&#xc5;" horiz-adv-x="1196" d="M-72 0l641 1255q64 125 179 125q117 0 139 -125l243 -1255h-210l-66 340h-541l-174 -340h-211zM406 528h413l-121 613zM573 1694q0 86 61.5 147.5t147.5 61.5t148.5 -61.5t62.5 -147.5q0 -88 -61.5 -149.5t-149.5 -61.5q-86 0 -147.5 62.5t-61.5 148.5zM659 1694 q0 -52 35.5 -88.5t87.5 -36.5t88.5 36.5t36.5 88.5t-36.5 87.5t-88.5 35.5q-51 0 -87 -36t-36 -87z" />
<glyph unicode="&#xc6;" horiz-adv-x="1779" d="M-72 0l881 1206q72 98 134.5 129t186.5 31h705l-31 -199h-542q-126 0 -144 -123l-39 -256h666l-31 -198h-667l-37 -240q-2 -10 -2 -33q0 -118 120 -118h523l-31 -199h-563q-114 0 -186 64t-72 176q0 15 2 30.5t5.5 35t4.5 30.5h-420l-239 -336h-224zM514 524h326l92 588z " />
<glyph unicode="&#xc7;" horiz-adv-x="1062" d="M82 229q0 24 8 78l119 756q25 157 110 230t244 73h584l-31 -199h-524q-34 0 -48.5 -1t-37.5 -8t-43 -23q-52 -41 -64 -117l-102 -645q-4 -36 -4 -58q0 -36 12 -60t35 -35.5t48.5 -16t60.5 -4.5h512l-31 -199h-348l-103 -119q42 10 76 10q58 0 97.5 -27.5t39.5 -82.5 q0 -56 -39.5 -98.5t-92.5 -62t-107 -19.5q-96 0 -193 43l37 61q91 -35 147 -35q48 0 88.5 24.5t40.5 69.5q0 33 -25.5 49.5t-60.5 16.5q-34 0 -86 -18l-28 32l135 156h-164q-116 0 -189 58t-73 171z" />
<glyph unicode="&#xc8;" horiz-adv-x="1087" d="M82 229q0 42 4 62l123 772q22 139 115 221t233 82h588l-33 -199h-516q-85 0 -134.5 -35.5t-62.5 -117.5l-37 -234h689l-31 -196h-688l-37 -230q-2 -12 -2 -35q0 -68 39.5 -94t111.5 -26h514l-30 -199h-570q-58 0 -106.5 12.5t-87.5 38.5t-60.5 71.5t-21.5 106.5z M676 1720h166l94 -245h-148z" />
<glyph unicode="&#xc9;" horiz-adv-x="1087" d="M82 229q0 42 4 62l123 772q22 139 115 221t233 82h588l-33 -199h-516q-85 0 -134.5 -35.5t-62.5 -117.5l-37 -234h689l-31 -196h-688l-37 -230q-2 -12 -2 -35q0 -68 39.5 -94t111.5 -26h514l-30 -199h-570q-58 0 -106.5 12.5t-87.5 38.5t-60.5 71.5t-21.5 106.5z M637 1475l172 245h166l-191 -245h-147z" />
<glyph unicode="&#xca;" horiz-adv-x="1087" d="M82 229q0 42 4 62l123 772q22 139 115 221t233 82h588l-33 -199h-516q-85 0 -134.5 -35.5t-62.5 -117.5l-37 -234h689l-31 -196h-688l-37 -230q-2 -12 -2 -35q0 -68 39.5 -94t111.5 -26h514l-30 -199h-570q-58 0 -106.5 12.5t-87.5 38.5t-60.5 71.5t-21.5 106.5z M526 1473l187 225h205l126 -225l-145 -3l-94 172l-135 -169h-144z" />
<glyph unicode="&#xcb;" horiz-adv-x="1087" d="M82 229q0 42 4 62l123 772q22 139 115 221t233 82h588l-33 -199h-516q-85 0 -134.5 -35.5t-62.5 -117.5l-37 -234h689l-31 -196h-688l-37 -230q-2 -12 -2 -35q0 -68 39.5 -94t111.5 -26h514l-30 -199h-570q-58 0 -106.5 12.5t-87.5 38.5t-60.5 71.5t-21.5 106.5z M508 1585q0 52 37.5 87.5t89.5 35.5q44 0 74 -36t30 -81q0 -51 -38 -84.5t-91 -33.5q-43 0 -72.5 34t-29.5 78zM829 1585q0 52 37.5 87.5t89.5 35.5q44 0 74.5 -36t30.5 -81q0 -51 -38 -84.5t-91 -33.5q-43 0 -73 34t-30 78z" />
<glyph unicode="&#xcc;" horiz-adv-x="415" d="M41 0l217 1366h197l-215 -1366h-199zM262 1720h166l94 -245h-147z" />
<glyph unicode="&#xcd;" horiz-adv-x="415" d="M41 0l217 1366h197l-215 -1366h-199zM223 1475l172 245h166l-190 -245h-148z" />
<glyph unicode="&#xce;" horiz-adv-x="415" d="M41 0l217 1366h197l-215 -1366h-199zM166 1473l156 227h163l95 -227l-115 -3l-72 172l-112 -169h-115z" />
<glyph unicode="&#xcf;" horiz-adv-x="415" d="M41 0l217 1366h197l-215 -1366h-199zM188 1589q0 44 23.5 81.5t64.5 37.5q42 0 67.5 -36.5t25.5 -80.5q0 -43 -24.5 -79.5t-65.5 -36.5q-40 0 -65.5 36t-25.5 78zM408 1589q0 42 23.5 80.5t62.5 38.5q41 0 66.5 -36.5t25.5 -80.5q0 -43 -24.5 -79.5t-65.5 -36.5 t-64.5 35.5t-23.5 78.5z" />
<glyph unicode="&#xd0;" horiz-adv-x="1206" d="M25 584l30 196h109l94 586h688q79 0 131.5 -19.5t89.5 -76.5q37 -56 37 -129q0 -41 -6 -82l-119 -746q-22 -143 -111.5 -228t-232.5 -85h-694l92 584h-108zM270 199h430q86 0 131.5 45t59.5 133l100 629q4 32 4 47q0 58 -40 86t-101 28h-430l-62 -387h365l-33 -196h-362z " />
<glyph unicode="&#xd1;" horiz-adv-x="1202" d="M41 0l186 1178q13 87 61 143.5t132 56.5q37 0 61.5 -8.5t40.5 -30t23.5 -39.5t19.5 -56q4 -12 6 -19l306 -967l174 1108h190l-188 -1196q-11 -76 -62.5 -131t-126.5 -55q-21 0 -38 3.5t-28.5 8t-22 15t-16.5 18t-12.5 23.5t-10 25.5t-10 30t-9.5 31.5l-311 969 l-175 -1108h-190zM438 1473l19 118q6 2 37 10t47 13q11 4 40 15.5t49 16.5t44 5q41 0 116.5 -30t116.5 -30q19 0 38 4.5t44 14t37 12.5q61 19 96 27l-18 -121l-68 -19q-9 -2 -61 -21.5t-82 -19.5q-43 0 -122 31t-122 31q-44 0 -211 -57z" />
<glyph unicode="&#xd2;" horiz-adv-x="1177" d="M84 246q0 41 4 61l119 748q11 71 45 134.5t88 106.5q88 70 244 70h305q282 0 282 -236q0 -38 -6 -75l-118 -746q-51 -309 -377 -309h-301q-138 0 -211.5 56t-73.5 190zM293 324q0 -74 39 -99.5t117 -25.5h208q92 0 140 35.5t61 123.5l100 639q5 40 5 52q0 70 -39 94 t-115 24h-209q-95 0 -142.5 -38.5t-62.5 -131.5l-100 -632q-2 -14 -2 -41zM643 1720h166l94 -245h-147z" />
<glyph unicode="&#xd3;" horiz-adv-x="1177" d="M84 246q0 41 4 61l119 748q11 71 45 134.5t88 106.5q88 70 244 70h305q282 0 282 -236q0 -38 -6 -75l-118 -746q-51 -309 -377 -309h-301q-138 0 -211.5 56t-73.5 190zM293 324q0 -74 39 -99.5t117 -25.5h208q92 0 140 35.5t61 123.5l100 639q5 40 5 52q0 70 -39 94 t-115 24h-209q-95 0 -142.5 -38.5t-62.5 -131.5l-100 -632q-2 -14 -2 -41zM604 1475l172 245h166l-190 -245h-148z" />
<glyph unicode="&#xd4;" horiz-adv-x="1177" d="M84 246q0 41 4 61l119 748q11 71 45 134.5t88 106.5q88 70 244 70h305q282 0 282 -236q0 -38 -6 -75l-118 -746q-51 -309 -377 -309h-301q-138 0 -211.5 56t-73.5 190zM293 324q0 -74 39 -99.5t117 -25.5h208q92 0 140 35.5t61 123.5l100 639q5 40 5 52q0 70 -39 94 t-115 24h-209q-95 0 -142.5 -38.5t-62.5 -131.5l-100 -632q-2 -14 -2 -41zM494 1473l186 225h205l127 -225l-146 -3l-94 172l-135 -169h-143z" />
<glyph unicode="&#xd5;" horiz-adv-x="1177" d="M84 246q0 41 4 61l119 748q11 71 45 134.5t88 106.5q88 70 244 70h305q282 0 282 -236q0 -38 -6 -75l-118 -746q-51 -309 -377 -309h-301q-138 0 -211.5 56t-73.5 190zM293 324q0 -74 39 -99.5t117 -25.5h208q92 0 140 35.5t61 123.5l100 639q5 40 5 52q0 70 -39 94 t-115 24h-209q-95 0 -142.5 -38.5t-62.5 -131.5l-100 -632q-2 -14 -2 -41zM424 1473l18 118q6 2 37 10t47 13q11 4 40 15.5t49 16.5t44 5q41 0 117 -30t117 -30q19 0 38 4.5t44 14t37 12.5q62 19 96 27l-18 -121l-68 -19q-9 -2 -61 -21.5t-82 -19.5q-43 0 -122 31t-122 31 q-19 0 -57 -10t-94.5 -28t-59.5 -19z" />
<glyph unicode="&#xd6;" horiz-adv-x="1177" d="M84 246q0 41 4 61l119 748q11 71 45 134.5t88 106.5q88 70 244 70h305q282 0 282 -236q0 -38 -6 -75l-118 -746q-51 -309 -377 -309h-301q-138 0 -211.5 56t-73.5 190zM293 324q0 -74 39 -99.5t117 -25.5h208q92 0 140 35.5t61 123.5l100 639q5 40 5 52q0 70 -39 94 t-115 24h-209q-95 0 -142.5 -38.5t-62.5 -131.5l-100 -632q-2 -14 -2 -41zM475 1585q0 52 37.5 87.5t89.5 35.5q44 0 74.5 -36t30.5 -81q0 -51 -38 -84.5t-91 -33.5q-43 0 -73 34t-30 78zM797 1585q0 52 37.5 87.5t89.5 35.5q44 0 74 -36t30 -81q0 -51 -38 -84.5t-91 -33.5 q-43 0 -72.5 34t-29.5 78z" />
<glyph unicode="&#xd7;" d="M88 385l348 301l-252 299l133 117l254 -301l349 301l96 -117l-348 -299l252 -301l-134 -115l-251 301l-349 -301z" />
<glyph unicode="&#xd8;" horiz-adv-x="1181" d="M41 0l82 100q-37 60 -37 148q0 9 1 18.5t2.5 21.5t2.5 19l117 748q23 154 135 241q91 70 244 70h303q69 0 116 -11t93 -46l45 57h78l-82 -100q33 -53 33 -138q0 -42 -5 -73l-118 -746q-51 -309 -377 -309h-303q-68 0 -115 10t-94 43l-43 -53h-78zM303 377q0 -15 8 -43 l633 782q-16 32 -43 41.5t-70 9.5h-227q-95 0 -142.5 -38.5t-62.5 -131.5l-94 -589q-2 -10 -2 -31zM317 248q18 -31 46 -40t71 -9h225q92 0 140 35.5t61 123.5l94 590q2 10 2 33q0 22 -6 43z" />
<glyph unicode="&#xd9;" horiz-adv-x="1200" d="M84 229q0 50 10 115l162 1022h199l-156 -985q-6 -35 -6 -70q0 -36 14 -60t41 -34.5t52 -14t61 -3.5h205q107 0 154.5 37t64.5 141l155 989h199l-162 -1022q-15 -96 -40.5 -153.5t-88.5 -110.5q-63 -52 -115 -66t-145 -14h-326q-80 0 -129 14.5t-92 65.5q-31 36 -44 69 t-13 80zM655 1720h166l94 -245h-147z" />
<glyph unicode="&#xda;" horiz-adv-x="1200" d="M84 229q0 50 10 115l162 1022h199l-156 -985q-6 -35 -6 -70q0 -36 14 -60t41 -34.5t52 -14t61 -3.5h205q107 0 154.5 37t64.5 141l155 989h199l-162 -1022q-15 -96 -40.5 -153.5t-88.5 -110.5q-63 -52 -115 -66t-145 -14h-326q-80 0 -129 14.5t-92 65.5q-31 36 -44 69 t-13 80zM616 1475l172 245h166l-190 -245h-148z" />
<glyph unicode="&#xdb;" horiz-adv-x="1200" d="M84 229q0 50 10 115l162 1022h199l-156 -985q-6 -35 -6 -70q0 -36 14 -60t41 -34.5t52 -14t61 -3.5h205q107 0 154.5 37t64.5 141l155 989h199l-162 -1022q-15 -96 -40.5 -153.5t-88.5 -110.5q-63 -52 -115 -66t-145 -14h-326q-80 0 -129 14.5t-92 65.5q-31 36 -44 69 t-13 80zM506 1473l186 225h205l127 -225l-145 -3l-95 172l-135 -169h-143z" />
<glyph unicode="&#xdc;" horiz-adv-x="1200" d="M84 229q0 50 10 115l162 1022h199l-156 -985q-6 -35 -6 -70q0 -36 14 -60t41 -34.5t52 -14t61 -3.5h205q107 0 154.5 37t64.5 141l155 989h199l-162 -1022q-15 -96 -40.5 -153.5t-88.5 -110.5q-63 -52 -115 -66t-145 -14h-326q-80 0 -129 14.5t-92 65.5q-31 36 -44 69 t-13 80zM481 1585q0 52 37.5 87.5t89.5 35.5q44 0 74.5 -36t30.5 -81q0 -51 -38 -84.5t-91 -33.5q-43 0 -73 34t-30 78zM803 1585q0 52 37.5 87.5t89.5 35.5q44 0 74 -36t30 -81q0 -51 -38 -84.5t-91 -33.5q-43 0 -72.5 34t-29.5 78z" />
<glyph unicode="&#xdd;" horiz-adv-x="1077" d="M131 1366h225l232 -592l428 592h227l-586 -811l-88 -555h-198l88 555zM555 1475l172 245h166l-193 -245h-145z" />
<glyph unicode="&#xde;" horiz-adv-x="1132" d="M41 0l217 1366h197l-33 -205h479q115 0 189.5 -57.5t74.5 -169.5q0 -13 -4 -41l-45 -293q-22 -137 -113 -215t-229 -78h-487l-47 -307h-199zM319 510h420q86 0 131 35.5t58 118.5q2 14 8 44.5t9 49t6 45t3 47.5q0 58 -38.5 85.5t-98.5 27.5h-426z" />
<glyph unicode="&#xdf;" horiz-adv-x="1128" d="M43 0l170 1071q23 137 105 216t217 79h221q101 0 164 -57t63 -156q0 -23 -3.5 -47.5t-10 -58t-8.5 -46.5q-12 -66 -43 -110t-89 -78q222 -56 222 -262q0 -25 -2 -35l-35 -219q-21 -131 -112.5 -214t-223.5 -83h-402l29 176h365q70 0 116 40t58 108q2 14 9 49t10.5 55 t7 49t3.5 53q0 71 -46 105.5t-119 34.5l-328 -2l29 172h204q141 0 168 131q17 79 17 112q0 44 -31.5 75.5t-75.5 31.5h-145q-66 0 -108.5 -37t-53.5 -102l-166 -1051h-176z" />
<glyph unicode="&#xe0;" horiz-adv-x="1071" d="M76 199q0 15 4 47l29 184q19 120 98.5 188t200.5 68h419q1 8 4.5 23t5 26.5t1.5 22.5q0 94 -117 94h-543l29 174h567q118 0 182 -48t64 -161q0 -19 -4 -51l-82 -510q-19 -115 -95.5 -185.5t-191.5 -70.5h-338q-102 0 -167.5 50t-65.5 149zM260 270q0 -45 33.5 -69.5 t79.5 -24.5h250q123 0 141 115l31 196q0 2 1 6.5t1 6.5q0 9 -13 14.5t-24 5.5h-336q-65 0 -99.5 -31.5t-45.5 -95.5q-19 -97 -19 -123zM539 1401h166l94 -246h-148z" />
<glyph unicode="&#xe1;" horiz-adv-x="1071" d="M76 199q0 15 4 47l29 184q19 120 98.5 188t200.5 68h419q1 8 4.5 23t5 26.5t1.5 22.5q0 94 -117 94h-543l29 174h567q118 0 182 -48t64 -161q0 -19 -4 -51l-82 -510q-19 -115 -95.5 -185.5t-191.5 -70.5h-338q-102 0 -167.5 50t-65.5 149zM260 270q0 -45 33.5 -69.5 t79.5 -24.5h250q123 0 141 115l31 196q0 2 1 6.5t1 6.5q0 9 -13 14.5t-24 5.5h-336q-65 0 -99.5 -31.5t-45.5 -95.5q-19 -97 -19 -123zM500 1155l172 246h166l-191 -246h-147z" />
<glyph unicode="&#xe2;" horiz-adv-x="1071" d="M76 199q0 15 4 47l29 184q19 120 98.5 188t200.5 68h419q1 8 4.5 23t5 26.5t1.5 22.5q0 94 -117 94h-543l29 174h567q118 0 182 -48t64 -161q0 -19 -4 -51l-82 -510q-19 -115 -95.5 -185.5t-191.5 -70.5h-338q-102 0 -167.5 50t-65.5 149zM260 270q0 -45 33.5 -69.5 t79.5 -24.5h250q123 0 141 115l31 196q0 2 1 6.5t1 6.5q0 9 -13 14.5t-24 5.5h-336q-65 0 -99.5 -31.5t-45.5 -95.5q-19 -97 -19 -123zM393 1178l187 225h204l127 -225l-145 -2l-94 172l-135 -170h-144z" />
<glyph unicode="&#xe3;" horiz-adv-x="1071" d="M76 199q0 15 4 47l29 184q19 120 98.5 188t200.5 68h419q1 8 4.5 23t5 26.5t1.5 22.5q0 94 -117 94h-543l29 174h567q118 0 182 -48t64 -161q0 -19 -4 -51l-82 -510q-19 -115 -95.5 -185.5t-191.5 -70.5h-338q-102 0 -167.5 50t-65.5 149zM260 270q0 -45 33.5 -69.5 t79.5 -24.5h250q123 0 141 115l31 196q0 2 1 6.5t1 6.5q0 9 -13 14.5t-24 5.5h-336q-65 0 -99.5 -31.5t-45.5 -95.5q-19 -97 -19 -123zM330 1212l18 119q6 2 37 10t47 13q11 4 40 15.5t49 16.5t44 5q41 0 117 -30t117 -30q19 0 38 4.5t44 14t37 12.5q62 19 96 27l-19 -121 l-67 -19q-9 -2 -61.5 -21.5t-82.5 -19.5q-43 0 -121.5 31t-121.5 31q-19 0 -57.5 -10.5t-93 -28t-60.5 -19.5z" />
<glyph unicode="&#xe4;" horiz-adv-x="1071" d="M76 199q0 15 4 47l29 184q19 120 98.5 188t200.5 68h419q1 8 4.5 23t5 26.5t1.5 22.5q0 94 -117 94h-543l29 174h567q118 0 182 -48t64 -161q0 -19 -4 -51l-82 -510q-19 -115 -95.5 -185.5t-191.5 -70.5h-338q-102 0 -167.5 50t-65.5 149zM260 270q0 -45 33.5 -69.5 t79.5 -24.5h250q123 0 141 115l31 196q0 2 1 6.5t1 6.5q0 9 -13 14.5t-24 5.5h-336q-65 0 -99.5 -31.5t-45.5 -95.5q-19 -97 -19 -123zM371 1294q0 52 37.5 87.5t89.5 35.5q44 0 74 -36t30 -81q0 -51 -38 -84.5t-91 -33.5q-43 0 -72.5 34t-29.5 78zM692 1294q0 52 37.5 87.5 t89.5 35.5q44 0 74.5 -36t30.5 -81q0 -51 -38 -84.5t-91 -33.5q-43 0 -73 34t-30 78z" />
<glyph unicode="&#xe5;" horiz-adv-x="1071" d="M76 199q0 15 4 47l29 184q19 120 98.5 188t200.5 68h419q1 8 4.5 23t5 26.5t1.5 22.5q0 94 -117 94h-543l29 174h567q118 0 182 -48t64 -161q0 -19 -4 -51l-82 -510q-19 -115 -95.5 -185.5t-191.5 -70.5h-338q-102 0 -167.5 50t-65.5 149zM260 270q0 -45 33.5 -69.5 t79.5 -24.5h250q123 0 141 115l31 196q0 2 1 6.5t1 6.5q0 9 -13 14.5t-24 5.5h-336q-65 0 -99.5 -31.5t-45.5 -95.5q-19 -97 -19 -123zM410 1346q0 88 62.5 150.5t150.5 62.5t150.5 -62.5t62.5 -150.5t-62.5 -150.5t-150.5 -62.5t-150.5 62.5t-62.5 150.5zM492 1346 q0 -56 38 -94t93 -38q54 0 92.5 39t38.5 93t-38.5 92.5t-92.5 38.5t-92.5 -38.5t-38.5 -92.5z" />
<glyph unicode="&#xe6;" horiz-adv-x="1726" d="M82 203q0 23 2 33l33 204q9 55 45.5 110.5t83.5 86.5q77 49 188 49h402q8 46 8 66q0 52 -34.5 80t-88.5 28h-541l27 166h549q79 0 122.5 -24t79.5 -91q49 63 104.5 89t135.5 26h270q113 0 173.5 -55.5t60.5 -167.5q0 -26 -3.5 -55t-10 -65.5t-9.5 -55.5l-725 -279 q-6 -35 -6 -65q0 -107 137 -107h523l-27 -176h-530q-87 0 -130 22.5t-83 94.5q-56 -61 -104.5 -89t-119.5 -28h-295q-51 0 -87 9t-72 36q-78 60 -78 158zM272 270q0 -94 121 -94h234q54 0 96.5 26.5t52.5 76.5q1 8 11.5 59.5t16 86.5t5.5 60q0 31 -37 31h-323 q-60 0 -103 -32t-55 -89q-19 -97 -19 -125zM981 510l530 203q5 30 5 39q0 44 -30.5 70t-76.5 26h-231q-66 0 -110 -34t-54 -99z" />
<glyph unicode="&#xe7;" horiz-adv-x="858" d="M78 185v16q0 34 6 71l78 496q21 127 89 192.5t193 65.5h441l-27 -174h-369q-76 0 -111.5 -29t-47.5 -104l-64 -406q-2 -10 -2 -28q0 -109 127 -109h363l-29 -176h-246l-102 -119q42 10 74 10q59 0 99 -27t40 -83t-39.5 -98.5t-93 -62t-107.5 -19.5q-92 0 -192 43l37 61 q91 -35 147 -35q48 0 88.5 24.5t40.5 69.5q0 33 -25.5 49.5t-60.5 16.5q-34 0 -86 -18l-29 32l136 156q-140 0 -196 15q-125 34 -132 170z" />
<glyph unicode="&#xe8;" horiz-adv-x="1038" d="M78 197q0 41 6 82l78 485q42 262 321 262h310q102 0 163.5 -45t61.5 -143q0 -53 -27 -215l-719 -275q-1 -9 -2.5 -24.5t-2.5 -28.5t-1 -25q0 -58 34 -76t97 -18h521l-27 -176h-567q-64 0 -107.5 11t-81.5 46q-57 54 -57 140zM299 518l526 203q6 21 6 43q0 48 -36.5 68 t-87.5 20h-193q-166 0 -184 -131zM539 1401h166l94 -246h-148z" />
<glyph unicode="&#xe9;" horiz-adv-x="1038" d="M78 197q0 41 6 82l78 485q42 262 321 262h310q102 0 163.5 -45t61.5 -143q0 -53 -27 -215l-719 -275q-1 -9 -2.5 -24.5t-2.5 -28.5t-1 -25q0 -58 34 -76t97 -18h521l-27 -176h-567q-64 0 -107.5 11t-81.5 46q-57 54 -57 140zM299 518l526 203q6 21 6 43q0 48 -36.5 68 t-87.5 20h-193q-166 0 -184 -131zM522 1155l172 246h166l-190 -246h-148z" />
<glyph unicode="&#xea;" horiz-adv-x="1038" d="M78 197q0 41 6 82l78 485q42 262 321 262h310q102 0 163.5 -45t61.5 -143q0 -53 -27 -215l-719 -275q-1 -9 -2.5 -24.5t-2.5 -28.5t-1 -25q0 -58 34 -76t97 -18h521l-27 -176h-567q-64 0 -107.5 11t-81.5 46q-57 54 -57 140zM299 518l526 203q6 21 6 43q0 48 -36.5 68 t-87.5 20h-193q-166 0 -184 -131zM393 1178l187 225h204l127 -225l-145 -2l-94 172l-135 -170h-144z" />
<glyph unicode="&#xeb;" horiz-adv-x="1038" d="M78 197q0 41 6 82l78 485q42 262 321 262h310q102 0 163.5 -45t61.5 -143q0 -53 -27 -215l-719 -275q-1 -9 -2.5 -24.5t-2.5 -28.5t-1 -25q0 -58 34 -76t97 -18h521l-27 -176h-567q-64 0 -107.5 11t-81.5 46q-57 54 -57 140zM299 518l526 203q6 21 6 43q0 48 -36.5 68 t-87.5 20h-193q-166 0 -184 -131zM387 1294q0 52 37.5 87.5t89.5 35.5q44 0 74 -36t30 -81q0 -51 -38 -84.5t-91 -33.5q-43 0 -72.5 34t-29.5 78zM709 1294q0 52 37.5 87.5t89.5 35.5q44 0 74 -36t30 -81q0 -51 -38 -84.5t-91 -33.5q-43 0 -72.5 34t-29.5 78z" />
<glyph unicode="&#xec;" horiz-adv-x="395" d="M43 0l164 1026h174l-162 -1026h-176zM203 1401h166l94 -246h-148z" />
<glyph unicode="&#xed;" horiz-adv-x="395" d="M43 0l164 1026h174l-162 -1026h-176zM164 1155l172 246h166l-191 -246h-147z" />
<glyph unicode="&#xee;" horiz-adv-x="395" d="M43 0l164 1026h174l-162 -1026h-176zM109 1178l157 225h162l96 -225l-116 -2l-72 172l-113 -170h-114z" />
<glyph unicode="&#xef;" horiz-adv-x="395" d="M43 0l164 1026h174l-162 -1026h-176zM127 1296q0 42 23.5 80.5t62.5 38.5q41 0 65.5 -37t24.5 -80q0 -42 -25 -79t-65 -37t-63 36t-23 78zM340 1296q0 42 23.5 80.5t62.5 38.5q41 0 65.5 -37t24.5 -80q0 -42 -25 -79t-65 -37t-63 36t-23 78z" />
<glyph unicode="&#xf0;" horiz-adv-x="1079" d="M78 205q0 35 6 69l76 482q19 123 102.5 196.5t206.5 73.5h420q8 55 8 123l-209 -53l-8 118l201 52q-31 68 -90 141h198q26 -38 60 -107l200 52l6 -119l-180 -47q4 -32 4 -47q0 -13 -4 -41l-129 -817q-11 -73 -37 -124.5t-80 -90.5q-91 -66 -211 -66h-309 q-107 0 -169 50.5t-62 154.5zM260 262q0 -47 38 -66.5t89 -19.5h213q67 0 115.5 34t58.5 97l80 502v4q0 37 -37 37h-323q-67 0 -111 -37.5t-55 -103.5l-62 -392q-6 -54 -6 -55z" />
<glyph unicode="&#xf1;" horiz-adv-x="1060" d="M41 0l123 776q20 125 99 187.5t208 62.5h309q232 0 232 -192q0 -22 -4 -58l-123 -776h-176l114 727q2 8 2 25q0 58 -33.5 79t-95.5 21h-196q-149 0 -168 -125l-115 -727h-176zM326 1212l18 119q6 2 37 10t47 13q11 4 40 15.5t49 16.5t44 5q41 0 117 -30t117 -30 q19 0 38 4.5t43.5 14t36.5 12.5q58 17 97 27l-19 -121l-67 -19q-9 -2 -61.5 -21.5t-82.5 -19.5q-43 0 -121.5 31t-121.5 31q-19 0 -57.5 -10.5t-93 -28t-60.5 -19.5z" />
<glyph unicode="&#xf2;" horiz-adv-x="1071" d="M74 197q0 39 4 59l82 510q23 139 119 207q45 32 85 42.5t101 10.5h332q57 0 94.5 -9.5t69.5 -41.5q57 -57 57 -150q0 -29 -6 -59l-80 -510q-20 -134 -117 -205q-42 -31 -82 -41t-100 -10h-330q-59 0 -97 9.5t-73 41.5q-59 54 -59 146zM260 270q0 -44 30 -69t75 -25h258 q57 0 94.5 34.5t46.5 92.5l65 414q2 12 2 35q0 49 -28.5 74.5t-77.5 25.5h-236q-140 0 -161 -135l-66 -412q-2 -12 -2 -35zM537 1401h165l95 -246h-148z" />
<glyph unicode="&#xf3;" horiz-adv-x="1071" d="M74 197q0 39 4 59l82 510q23 139 119 207q45 32 85 42.5t101 10.5h332q57 0 94.5 -9.5t69.5 -41.5q57 -57 57 -150q0 -29 -6 -59l-80 -510q-20 -134 -117 -205q-42 -31 -82 -41t-100 -10h-330q-59 0 -97 9.5t-73 41.5q-59 54 -59 146zM260 270q0 -44 30 -69t75 -25h258 q57 0 94.5 34.5t46.5 92.5l65 414q2 12 2 35q0 49 -28.5 74.5t-77.5 25.5h-236q-140 0 -161 -135l-66 -412q-2 -12 -2 -35zM498 1155l172 246h166l-191 -246h-147z" />
<glyph unicode="&#xf4;" horiz-adv-x="1071" d="M74 197q0 39 4 59l82 510q23 139 119 207q45 32 85 42.5t101 10.5h332q57 0 94.5 -9.5t69.5 -41.5q57 -57 57 -150q0 -29 -6 -59l-80 -510q-20 -134 -117 -205q-42 -31 -82 -41t-100 -10h-330q-59 0 -97 9.5t-73 41.5q-59 54 -59 146zM260 270q0 -44 30 -69t75 -25h258 q57 0 94.5 34.5t46.5 92.5l65 414q2 12 2 35q0 49 -28.5 74.5t-77.5 25.5h-236q-140 0 -161 -135l-66 -412q-2 -12 -2 -35zM391 1178l187 225h204l127 -225l-145 -2l-94 172l-135 -170h-144z" />
<glyph unicode="&#xf5;" horiz-adv-x="1071" d="M74 197q0 39 4 59l82 510q23 139 119 207q45 32 85 42.5t101 10.5h332q57 0 94.5 -9.5t69.5 -41.5q57 -57 57 -150q0 -29 -6 -59l-80 -510q-20 -134 -117 -205q-42 -31 -82 -41t-100 -10h-330q-59 0 -97 9.5t-73 41.5q-59 54 -59 146zM260 270q0 -44 30 -69t75 -25h258 q57 0 94.5 34.5t46.5 92.5l65 414q2 12 2 35q0 49 -28.5 74.5t-77.5 25.5h-236q-140 0 -161 -135l-66 -412q-2 -12 -2 -35zM328 1212l18 119q6 2 37 10t47 13q11 4 40 15.5t49 16.5t44 5q41 0 117 -30t117 -30q19 0 38 4.5t43.5 14t36.5 12.5q57 17 97 27l-19 -121l-67 -19 q-9 -2 -61.5 -21.5t-82.5 -19.5q-43 0 -121.5 31t-121.5 31q-19 0 -57.5 -10.5t-93 -28t-60.5 -19.5z" />
<glyph unicode="&#xf6;" horiz-adv-x="1071" d="M74 197q0 39 4 59l82 510q23 139 119 207q45 32 85 42.5t101 10.5h332q57 0 94.5 -9.5t69.5 -41.5q57 -57 57 -150q0 -29 -6 -59l-80 -510q-20 -134 -117 -205q-42 -31 -82 -41t-100 -10h-330q-59 0 -97 9.5t-73 41.5q-59 54 -59 146zM260 270q0 -44 30 -69t75 -25h258 q57 0 94.5 34.5t46.5 92.5l65 414q2 12 2 35q0 49 -28.5 74.5t-77.5 25.5h-236q-140 0 -161 -135l-66 -412q-2 -12 -2 -35zM365 1294q0 52 37.5 87.5t89.5 35.5q44 0 74 -36t30 -81q0 -51 -38 -84.5t-91 -33.5q-43 0 -72.5 34t-29.5 78zM686 1294q0 52 37.5 87.5t89.5 35.5 q44 0 74.5 -36t30.5 -81q0 -51 -38.5 -84.5t-91.5 -33.5q-43 0 -72.5 34t-29.5 78z" />
<glyph unicode="&#xf7;" d="M96 604l25 162h889l-27 -162h-887zM401 317q0 46 33.5 79.5t79.5 33.5t79.5 -33.5t33.5 -79.5t-33.5 -79t-79.5 -33t-79.5 33t-33.5 79zM516 1053q0 46 33.5 79t79.5 33t79 -33t33 -79t-33 -79.5t-79 -33.5t-79.5 33.5t-33.5 79.5z" />
<glyph unicode="&#xf8;" horiz-adv-x="1081" d="M41 0l76 82q-35 48 -35 117q0 21 4 57l82 510q23 139 119 207q45 32 85 42.5t103 10.5h338q48 0 80 -8t63 -33l41 41h70l-76 -80q35 -51 35 -121q0 -29 -6 -59l-80 -510q-19 -132 -119 -205q-43 -31 -83 -41t-99 -10h-336q-49 0 -83.5 8.5t-67.5 34.5l-39 -43h-72z M268 283q0 -11 8 -31l533 573q-21 18 -35 22.5t-43 4.5h-233q-141 0 -162 -135l-64 -400q-4 -24 -4 -34zM299 201q34 -25 78 -25h248q62 0 100 33t47 94l64 404q2 10 2 28q0 25 -9 39z" />
<glyph unicode="&#xf9;" horiz-adv-x="1071" d="M78 201q0 21 4 57l121 768h176l-115 -717q-2 -8 -2 -26q0 -63 35.5 -85t103.5 -22h189q75 0 120 30t56 101l115 719h176l-123 -768q-42 -258 -316 -258h-301q-114 0 -176.5 45.5t-62.5 155.5zM539 1401h166l94 -246h-148z" />
<glyph unicode="&#xfa;" horiz-adv-x="1071" d="M78 201q0 21 4 57l121 768h176l-115 -717q-2 -8 -2 -26q0 -63 35.5 -85t103.5 -22h189q75 0 120 30t56 101l115 719h176l-123 -768q-42 -258 -316 -258h-301q-114 0 -176.5 45.5t-62.5 155.5zM500 1155l172 246h166l-191 -246h-147z" />
<glyph unicode="&#xfb;" horiz-adv-x="1071" d="M78 201q0 21 4 57l121 768h176l-115 -717q-2 -8 -2 -26q0 -63 35.5 -85t103.5 -22h189q75 0 120 30t56 101l115 719h176l-123 -768q-42 -258 -316 -258h-301q-114 0 -176.5 45.5t-62.5 155.5zM393 1178l187 225h204l127 -225l-145 -2l-94 172l-135 -170h-144z" />
<glyph unicode="&#xfc;" horiz-adv-x="1071" d="M78 201q0 21 4 57l121 768h176l-115 -717q-2 -8 -2 -26q0 -63 35.5 -85t103.5 -22h189q75 0 120 30t56 101l115 719h176l-123 -768q-42 -258 -316 -258h-301q-114 0 -176.5 45.5t-62.5 155.5zM362 1294q0 52 37.5 87.5t89.5 35.5q44 0 74.5 -36t30.5 -81q0 -51 -38 -84.5 t-91 -33.5q-43 0 -73 34t-30 78zM684 1294q0 52 37.5 87.5t89.5 35.5q44 0 74 -36t30 -81q0 -51 -38 -84.5t-91 -33.5q-43 0 -72.5 34t-29.5 78z" />
<glyph unicode="&#xfd;" horiz-adv-x="1067" d="M-16 -365l26 179h541q47 0 77.5 12.5t47.5 41t24.5 56t14.5 76.5h-402q-66 0 -105.5 13t-76.5 55q-53 62 -53 135q0 33 6 63l119 760h176l-113 -711q-4 -24 -4 -36q0 -52 33.5 -77.5t87.5 -25.5h313q26 0 37.5 13t16.5 40l127 797h176l-179 -1116q-19 -122 -99.5 -198.5 t-201.5 -76.5h-589zM516 1155l172 246h166l-190 -246h-148z" />
<glyph unicode="&#xfe;" horiz-adv-x="1071" d="M-16 -365l276 1754h176l-63 -396q37 20 56.5 26.5t53.5 6.5h295q110 0 176 -47t66 -152q0 -33 -6 -67l-80 -504q-19 -113 -102 -184.5t-197 -71.5h-418l-59 -365h-174zM250 213q0 -37 41 -37h323q62 0 101.5 34.5t50.5 96.5l68 418v8q0 63 -28.5 91t-92.5 28h-217 q-145 0 -166 -139l-78 -494q0 -1 -1 -3t-1 -3z" />
<glyph unicode="&#xff;" horiz-adv-x="1067" d="M-16 -365l26 179h541q47 0 77.5 12.5t47.5 41t24.5 56t14.5 76.5h-402q-66 0 -105.5 13t-76.5 55q-53 62 -53 135q0 33 6 63l119 760h176l-113 -711q-4 -24 -4 -36q0 -52 33.5 -77.5t87.5 -25.5h313q26 0 37.5 13t16.5 40l127 797h176l-179 -1116q-19 -122 -99.5 -198.5 t-201.5 -76.5h-589zM381 1294q0 52 37.5 87.5t89.5 35.5q44 0 74 -36t30 -81q0 -51 -38 -84.5t-91 -33.5q-43 0 -72.5 34t-29.5 78zM702 1294q0 52 37.5 87.5t89.5 35.5q44 0 74.5 -36t30.5 -81q0 -51 -38 -84.5t-91 -33.5q-43 0 -73 34t-30 78z" />
<glyph unicode="&#x152;" horiz-adv-x="1847" d="M84 250q0 30 6 65l117 736q22 140 116 227.5t234 87.5h336q82 0 132.5 -33.5t84.5 -109.5q67 82 133 112.5t172 30.5h490l-31 -199h-506q-89 0 -136 -47t-61 -137l-30 -192h674l-31 -199h-676l-33 -211q-4 -36 -4 -57q0 -70 35.5 -97.5t107.5 -27.5h506l-30 -199h-492 q-103 0 -156.5 28t-103.5 115q-62 -76 -118.5 -109.5t-143.5 -33.5h-336q-120 0 -188 65.5t-68 184.5zM293 311q0 -112 145 -112h242q92 0 138.5 41.5t60.5 132.5l98 622q4 20 4 60q0 112 -147 112h-242q-90 0 -135.5 -41.5t-59.5 -130.5l-98 -622q-6 -30 -6 -62z" />
<glyph unicode="&#x153;" horiz-adv-x="1718" d="M78 203q0 43 4 63l76 484q23 146 108 211t236 65h229q89 0 137 -21.5t82 -93.5q29 42 54 62q32 25 85.5 39t100.5 14h264q111 0 174.5 -52t63.5 -161q0 -29 -3.5 -61t-10.5 -72t-9 -59l-719 -277q-8 -36 -8 -57q0 -51 36.5 -81t88.5 -30h530l-28 -176h-537 q-78 0 -125 26.5t-78 94.5q-97 -121 -239 -121h-262q-71 0 -124.5 18t-89.5 65t-36 120zM260 287q0 -111 135 -111h191q73 0 120.5 34t57.5 103l63 404q2 10 2 28q0 65 -34 86t-103 21h-188q-79 0 -123 -30t-55 -105l-64 -404q-2 -8 -2 -26zM973 504l532 207l2 26q2 4 2 11 q0 46 -34 75t-80 29h-224q-65 0 -109 -34.5t-54 -98.5z" />
<glyph unicode="&#x178;" horiz-adv-x="1077" d="M131 1366h225l232 -592l428 592h227l-586 -811l-88 -555h-198l88 555zM416 1585q0 52 37.5 87.5t89.5 35.5q44 0 74 -36t30 -81q0 -51 -38 -84.5t-91 -33.5q-43 0 -72.5 34t-29.5 78zM737 1585q0 52 37.5 87.5t89.5 35.5q44 0 74.5 -36t30.5 -81q0 -51 -38 -84.5 t-91 -33.5q-43 0 -73 34t-30 78z" />
<glyph unicode="&#x2c6;" d="M371 1178l186 225h205l127 -225l-146 -2l-94 172l-135 -170h-143z" />
<glyph unicode="&#x2dc;" d="M307 1212l19 119q6 2 37 10t47 13q11 4 40 15.5t49 16.5t44 5q41 0 116.5 -30t116.5 -30q19 0 38 4.5t44 14t37 12.5q62 19 96 27l-18 -121l-68 -19q-9 -2 -61 -21.5t-82 -19.5q-43 0 -122 31t-122 31q-19 0 -57.5 -10.5t-93 -28t-60.5 -19.5z" />
<glyph unicode="&#x2000;" horiz-adv-x="951" />
<glyph unicode="&#x2001;" horiz-adv-x="1903" />
<glyph unicode="&#x2002;" horiz-adv-x="951" />
<glyph unicode="&#x2003;" horiz-adv-x="1903" />
<glyph unicode="&#x2004;" horiz-adv-x="634" />
<glyph unicode="&#x2005;" horiz-adv-x="475" />
<glyph unicode="&#x2006;" horiz-adv-x="317" />
<glyph unicode="&#x2007;" horiz-adv-x="317" />
<glyph unicode="&#x2008;" horiz-adv-x="237" />
<glyph unicode="&#x2009;" horiz-adv-x="380" />
<glyph unicode="&#x200a;" horiz-adv-x="105" />
<glyph unicode="&#x2010;" horiz-adv-x="548" d="M12 514l29 178h551l-29 -178h-551z" />
<glyph unicode="&#x2011;" horiz-adv-x="548" d="M12 514l29 178h551l-29 -178h-551z" />
<glyph unicode="&#x2012;" horiz-adv-x="548" d="M12 514l29 178h551l-29 -178h-551z" />
<glyph unicode="&#x2013;" horiz-adv-x="1060" d="M123 514l27 178h843l-26 -178h-844z" />
<glyph unicode="&#x2014;" horiz-adv-x="1462" d="M123 514l27 178h1245l-29 -178h-1243z" />
<glyph unicode="&#x2018;" horiz-adv-x="389" d="M164 1073q0 37 29 82l145 223h141l-125 -190q56 -71 56 -111q0 -53 -44.5 -89t-99.5 -36q-45 0 -73.5 37t-28.5 84z" />
<glyph unicode="&#x2019;" horiz-adv-x="368" d="M133 952l125 191q-55 69 -55 110q0 55 43 90t100 35q45 0 74 -36.5t29 -81.5q0 -36 -31 -84l-146 -224h-139z" />
<glyph unicode="&#x201a;" horiz-adv-x="368" d="M-47 -190l123 190q-53 67 -53 111q0 54 43 89.5t98 35.5q45 0 74.5 -36t29.5 -83q0 -37 -30 -84l-146 -223h-139z" />
<glyph unicode="&#x201c;" horiz-adv-x="694" d="M164 1073q0 37 29 82l145 223h141l-125 -190q56 -71 56 -111q0 -53 -44.5 -89t-99.5 -36q-45 0 -73.5 37t-28.5 84zM467 1073q0 31 31 82l145 223h139l-125 -190q56 -65 56 -111q0 -54 -44 -89.5t-100 -35.5q-45 0 -73.5 37.5t-28.5 83.5z" />
<glyph unicode="&#x201d;" horiz-adv-x="694" d="M143 954l125 191q-53 62 -53 108q0 55 43 90t98 35q45 0 74 -36.5t29 -81.5q0 -39 -29 -84l-145 -222h-142zM449 954l122 191q-53 62 -53 108q0 55 43 90t98 35q45 0 75 -36t30 -82q0 -36 -31 -84l-145 -222h-139z" />
<glyph unicode="&#x201e;" horiz-adv-x="694" d="M-37 -190l123 190q-53 67 -53 111q0 55 43.5 90t99.5 35q44 0 73.5 -37t29.5 -82q0 -36 -31 -84l-146 -223h-139zM266 -190l125 190q-55 69 -55 111q0 55 43.5 90t99.5 35q45 0 74 -36.5t29 -82.5q0 -36 -31 -84l-145 -223h-140z" />
<glyph unicode="&#x2022;" horiz-adv-x="563" d="M0 696q0 118 82.5 202.5t200.5 84.5t199 -84.5t81 -202.5q0 -116 -82 -201t-198 -85q-118 0 -200.5 84t-82.5 202z" />
<glyph unicode="&#x2026;" horiz-adv-x="1253" d="M31 106q0 50 34.5 87.5t84.5 37.5q52 0 88 -35t36 -87q0 -51 -35.5 -87t-86.5 -36q-50 0 -85.5 35.5t-35.5 84.5zM449 106q0 51 34 88t84 37q52 0 88.5 -35t36.5 -87q0 -51 -36 -87t-87 -36q-49 0 -84.5 35t-35.5 85zM866 106q0 50 34.5 87.5t84.5 37.5q52 0 88.5 -35 t36.5 -87q0 -51 -36 -87t-87 -36q-50 0 -85.5 35.5t-35.5 84.5z" />
<glyph unicode="&#x202f;" horiz-adv-x="380" />
<glyph unicode="&#x2039;" horiz-adv-x="587" d="M72 500q0 47 61 112l313 336h160l-401 -428l268 -430h-166l-203 328q-1 1 -8.5 14t-9.5 17.5t-6.5 14.5t-6 18.5t-1.5 17.5z" />
<glyph unicode="&#x203a;" horiz-adv-x="587" d="M8 90l402 428l-269 430h168l203 -330q31 -55 31 -79q0 -47 -62 -113l-313 -336h-160z" />
<glyph unicode="&#x205f;" horiz-adv-x="475" />
<glyph unicode="&#x20ac;" horiz-adv-x="1198" d="M88 543l72 123h98l16 96h-151l72 123h98l29 178q14 82 40 139t82 101q52 40 106.5 51.5t137.5 11.5h572l-31 -199h-524q-29 0 -53.5 -4t-43 -10t-33 -18t-24.5 -22t-18.5 -28.5t-13 -32.5t-9 -38t-6.5 -39.5t-5.5 -44t-6.5 -45.5h493l-72 -123h-442l-14 -96h401l-72 -123 h-350q-3 -19 -9.5 -55.5t-10 -59.5t-7 -54.5t-3.5 -58.5q0 -36 12 -60t35 -35.5t48 -16t60 -4.5h512l-31 -199h-585q-114 0 -188 58t-74 169q0 26 8 80l37 236h-152z" />
<glyph unicode="&#x2122;" horiz-adv-x="1632" d="M152 1221l24 145h586l-25 -145h-213l-110 -689h-158l111 689h-215zM672 532l114 721q9 57 46.5 89t95.5 32q45 0 70 -20.5t36 -65.5l121 -524l291 526q46 84 133 84q47 0 75.5 -23.5t28.5 -68.5q0 -13 -4 -33l-112 -717h-152l86 553l-264 -475q-24 -43 -50.5 -66.5 t-68.5 -23.5q-41 0 -59.5 22t-28.5 66l-117 479l-88 -555h-153z" />
<glyph unicode="&#x25fc;" d="M0 0v1024h1024v-1024h-1024z" />
<glyph unicode="&#xfb01;" horiz-adv-x="880" d="M41 0l180 1137q18 115 104.5 183.5t204.5 68.5h132l-27 -170h-92q-62 0 -102 -36t-52 -98q-2 -10 -5 -29.5t-5 -29.5h225l-26 -174h-228l-133 -852h-176zM528 0l162 1026h176l-161 -1026h-177zM696 1296q0 47 33.5 83t79.5 36q50 0 84.5 -34t34.5 -83q0 -47 -35 -81.5 t-82 -34.5t-81 33.5t-34 80.5z" />
<glyph unicode="&#xfb02;" horiz-adv-x="878" d="M41 0l180 1137q18 115 104.5 183.5t204.5 68.5h132l-27 -170h-92q-62 0 -102 -36t-52 -98q-2 -10 -5 -29.5t-5 -29.5h225l-26 -174h-228l-133 -852h-176zM526 0l219 1389h177l-222 -1389h-174z" />
</font>
</defs>
</svg>
