<?xml version="1.0" encoding="utf-8"?>
<!-- Generator: Adobe Illustrator 16.0.0, SVG Export Plug-In . SVG Version: 6.00 Build 0)  -->
<!DOCTYPE svg PUBLIC "-//W3C//DTD SVG 1.1//EN" "http://www.w3.org/Graphics/SVG/1.1/DTD/svg11.dtd">
<svg version="1.1" id="Calque_1" xmlns="http://www.w3.org/2000/svg" xmlns:xlink="http://www.w3.org/1999/xlink" x="0px" y="0px"
	 width="300px" height="163.514px" viewBox="0 0 300 163.514" enable-background="new 0 0 300 163.514" xml:space="preserve">
<g>
	<path fill="#00AEEF" d="M274.18,38.974c-3.839-8.227-6.257-9.096-13.164-10.53l-40.369-5.266c-6.786,0-12.286,5.5-12.286,12.286
		v76.351h-11.848V19.667c0-5.815-4.716-10.531-10.531-10.531H18.799c-5.816,0-10.531,4.716-10.531,10.531v100.485
		c0,5.815,4.715,10.531,10.531,10.531h7.03c1.771-11.832,11.946-20.915,24.271-20.915c10.729,0,19.822,6.884,23.168,16.472
		c3.351-9.585,12.448-16.472,23.177-16.472c12.325,0,22.501,9.083,24.271,20.915h42.887h22.379h34.665h1.766
		c1.771-11.832,11.946-20.915,24.271-20.915c12.325,0,22.5,9.083,24.271,20.915h3.226h5.266c6.786,0,12.286-4.589,12.286-12.287
		C291.731,75.833,278.019,47.201,274.18,38.974z"/>
	<path fill="#FFFFFF" d="M266.392,44.239c-0.769-2.193-3.438-3.612-5.376-3.612l-35.396-1.944c-1.938,0-3.51,1.572-3.51,3.511V76.42
		c0,1.938,1.571,3.51,3.51,3.51h47.682c1.939,0,3.949-2.413,3.119-4.721L266.392,44.239z"/>
	<path fill="#FBB040" d="M50.1,114.304c-11.066,0-20.037,8.97-20.037,20.037c0,11.066,8.971,20.037,20.037,20.037
		c11.067,0,20.038-8.971,20.038-20.037C70.138,123.273,61.167,114.304,50.1,114.304z M50.1,143.7c-5.168,0-9.358-4.189-9.358-9.359
		c0-5.169,4.19-9.358,9.358-9.358c5.169,0,9.359,4.189,9.359,9.358C59.459,139.511,55.269,143.7,50.1,143.7z"/>
	<path fill="#FBB040" d="M96.444,114.304c-11.066,0-20.037,8.97-20.037,20.037c0,11.066,8.971,20.037,20.037,20.037
		c11.067,0,20.038-8.971,20.038-20.037C116.482,123.273,107.512,114.304,96.444,114.304z M96.444,143.7
		c-5.168,0-9.358-4.189-9.358-9.359c0-5.169,4.19-9.358,9.358-9.358c5.169,0,9.359,4.189,9.359,9.358
		C105.804,139.511,101.613,143.7,96.444,143.7z"/>
	<path fill="#FBB040" d="M246.683,114.304c-11.066,0-20.037,8.97-20.037,20.037c0,11.066,8.971,20.037,20.037,20.037
		c11.067,0,20.038-8.971,20.038-20.037C266.721,123.273,257.75,114.304,246.683,114.304z M246.683,143.7
		c-5.168,0-9.358-4.189-9.358-9.359c0-5.169,4.19-9.358,9.358-9.358c5.169,0,9.359,4.189,9.359,9.358
		C256.042,139.511,251.852,143.7,246.683,143.7z"/>
</g>
</svg>
