<?xml version="1.0" encoding="utf-8"?>
<!-- Generator: Adobe Illustrator 16.0.0, SVG Export Plug-In . SVG Version: 6.00 Build 0)  -->
<!DOCTYPE svg PUBLIC "-//W3C//DTD SVG 1.1//EN" "http://www.w3.org/Graphics/SVG/1.1/DTD/svg11.dtd">
<svg version="1.1" id="Calque_1" xmlns="http://www.w3.org/2000/svg" xmlns:xlink="http://www.w3.org/1999/xlink" x="0px" y="0px"
	 width="299.99px" height="264.189px" viewBox="0 0 299.99 264.189" enable-background="new 0 0 299.99 264.189"
	 xml:space="preserve">
<g>
	<path fill="#D11A6F" d="M41.637,186.707c-18.432,0-33.374,14.941-33.374,33.373s14.942,33.375,33.374,33.375
		s33.374-14.943,33.374-33.375S60.068,186.707,41.637,186.707z M41.637,231.846c-6.498,0-11.767-5.268-11.767-11.766
		s5.269-11.766,11.767-11.766s11.767,5.268,11.767,11.766S48.135,231.846,41.637,231.846z"/>
	<path fill="#D11A6F" d="M217.375,186.707c-18.432,0-33.374,14.941-33.374,33.373s14.942,33.375,33.374,33.375
		s33.373-14.943,33.373-33.375S235.807,186.707,217.375,186.707z M217.375,231.846c-6.498,0-11.767-5.268-11.767-11.766
		s5.269-11.766,11.767-11.766s11.766,5.268,11.766,11.766S223.873,231.846,217.375,231.846z"/>
	<path fill="#FAA61A" d="M255.107,220.08c0,1.613-0.112,3.197-0.309,4.756l36.93-12.029l-24.727-35.461l-30.713,10.09
		C247.538,193.967,255.107,206.137,255.107,220.08z"/>
	<path fill="#FAA61A" d="M24.522,24.757c8.771-1.069,78.824-10.847,87.81-14.697c4.92,11.553,26.218,66.47,44.617,75.241
		c18.397,8.771,85.339,29.739,95.938,34.016c10.601,4.279,12.74,8.984,12.954,16.899c0.214,7.916-0.214,26.314,0,30.381
		c-5.135,2.352-21.024,8.342-29.553,9.412c-8.527,1.07-42.566,7.621-101.59,5.775c-13.523-0.422-76.894-0.969-109.214-4.064
		c-12.729-1.219-16.937-4.707-16.541-10.826c1.338-20.713-1.75-40.731,1.03-61.484c2.781-20.751,9.877-46.433,12.873-57.129
		C25.843,37.584,24.522,24.757,24.522,24.757z"/>
	<path fill="#FFFFFF" d="M109.026,23.474c-3.485,0-6.311,2.825-6.311,6.311s2.825,6.312,6.311,6.312s6.312-2.826,6.312-6.312
		S112.512,23.474,109.026,23.474z M109.026,33.078c-1.818,0-3.293-1.474-3.293-3.293c0-1.818,1.475-3.293,3.293-3.293
		c1.819,0,3.294,1.475,3.294,3.293C112.32,31.604,110.846,33.078,109.026,33.078z"/>
	<path fill="#FFFFFF" d="M117.268,41.984c-3.485,0-6.312,2.825-6.312,6.311s2.826,6.312,6.312,6.312s6.312-2.826,6.312-6.312
		S120.753,41.984,117.268,41.984z M117.268,51.587c-1.818,0-3.293-1.474-3.293-3.293c0-1.818,1.475-3.293,3.293-3.293
		s3.294,1.475,3.294,3.293C120.562,50.114,119.086,51.587,117.268,51.587z"/>
	<path fill="#FFFFFF" d="M126.147,61.106c-3.485,0-6.312,2.826-6.312,6.312s2.826,6.311,6.312,6.311s6.311-2.825,6.311-6.311
		S129.633,61.106,126.147,61.106z M126.147,70.71c-1.819,0-3.294-1.475-3.294-3.293c0-1.819,1.475-3.294,3.294-3.294
		c1.818,0,3.293,1.475,3.293,3.294C129.44,69.236,127.966,70.71,126.147,70.71z"/>
	<path fill="#FFFFFF" d="M137.785,76.331c-3.485,0-6.312,2.826-6.312,6.312s2.826,6.311,6.312,6.311s6.312-2.825,6.312-6.311
		S141.271,76.331,137.785,76.331z M137.785,85.935c-1.819,0-3.293-1.475-3.293-3.293c0-1.819,1.474-3.293,3.293-3.293
		c1.818,0,3.293,1.474,3.293,3.293C141.078,84.46,139.604,85.935,137.785,85.935z"/>
	<path fill="#FFFFFF" d="M156.454,89.229c-3.485,0-6.312,2.825-6.312,6.311c0,3.486,2.826,6.312,6.312,6.312
		s6.312-2.825,6.312-6.312C162.766,92.054,159.939,89.229,156.454,89.229z M156.454,98.833c-1.819,0-3.294-1.474-3.294-3.293
		c0-1.818,1.475-3.293,3.294-3.293c1.818,0,3.294,1.475,3.294,3.293C159.748,97.359,158.272,98.833,156.454,98.833z"/>
	<path fill="#FFFFFF" d="M177.501,97.04c-3.485,0-6.312,2.825-6.312,6.311s2.826,6.311,6.312,6.311s6.312-2.826,6.312-6.311
		S180.986,97.04,177.501,97.04z M177.501,106.643c-1.819,0-3.294-1.475-3.294-3.293s1.475-3.293,3.294-3.293
		s3.294,1.475,3.294,3.293S179.32,106.643,177.501,106.643z"/>
	<path fill="#FFFFFF" d="M196.327,102.815c-3.485,0-6.312,2.826-6.312,6.311c0,3.486,2.826,6.311,6.312,6.311
		s6.311-2.824,6.311-6.311C202.638,105.641,199.813,102.815,196.327,102.815z M196.327,112.419c-1.819,0-3.294-1.473-3.294-3.293
		c0-1.819,1.475-3.292,3.294-3.292s3.294,1.474,3.294,3.292C199.621,110.946,198.146,112.419,196.327,112.419z"/>
	<path fill="#D11A6F" d="M147.476,63.365c0.216,1.192-0.575,2.333-1.767,2.548l-19.051,3.454c-1.191,0.217-2.333-0.574-2.549-1.766
		l0,0c-0.216-1.191,0.575-2.333,1.767-2.55l19.051-3.453C146.118,61.382,147.259,62.172,147.476,63.365L147.476,63.365z"/>
	<path fill="#D11A6F" d="M151.494,74.84c0.598,1.054,0.228,2.392-0.826,2.988l-12.172,7.017c-1.053,0.597-2.391,0.227-2.987-0.826
		l0,0c-0.598-1.054-0.228-2.393,0.826-2.99l12.17-7.015C149.56,73.417,150.897,73.787,151.494,74.84L151.494,74.84z"/>
	<path fill="#D11A6F" d="M163.35,83.782c1.042,0.619,1.385,1.965,0.766,3.005l-5.776,9.882c-0.618,1.042-1.964,1.385-3.003,0.767
		l0,0c-1.043-0.618-1.385-1.965-0.768-3.007l5.777-9.881C160.963,83.506,162.309,83.164,163.35,83.782L163.35,83.782z"/>
	<path fill="#D11A6F" d="M183.656,90.66c1.088,0.536,1.535,1.851,1,2.937l-5.25,10.825c-0.534,1.087-1.848,1.534-2.935,0.999l0,0
		c-1.087-0.534-1.534-1.85-1-2.936l5.249-10.825C181.256,90.573,182.57,90.125,183.656,90.66L183.656,90.66z"/>
	<path fill="#D11A6F" d="M201.961,96.688c1.107,0.49,1.609,1.785,1.119,2.893l-4.402,10.172c-0.489,1.109-1.783,1.609-2.891,1.121
		l0,0c-1.109-0.49-1.609-1.785-1.121-2.893l4.403-10.172C199.559,96.7,200.853,96.2,201.961,96.688L201.961,96.688z"/>
</g>
</svg>
