<?xml version="1.0" encoding="utf-8"?>
<!-- Generator: Adobe Illustrator 16.0.0, SVG Export Plug-In . SVG Version: 6.00 Build 0)  -->
<!DOCTYPE svg PUBLIC "-//W3C//DTD SVG 1.1//EN" "http://www.w3.org/Graphics/SVG/1.1/DTD/svg11.dtd">
<svg version="1.1" id="Calque_1" xmlns="http://www.w3.org/2000/svg" xmlns:xlink="http://www.w3.org/1999/xlink" x="0px" y="0px"
	 width="299.99px" height="288.514px" viewBox="0 0 299.99 288.514" enable-background="new 0 0 299.99 288.514"
	 xml:space="preserve">
<g>
	<path fill="#FFCB05" d="M26.183,210.23h105.892V46.505C115.784,100.266,88.089,206.157,26.183,210.23z"/>
	<path fill="#007DBA" d="M123.115,7.407C165.097,23.87,264.032,49.763,264.032,210.23H123.115
		C145.922,167.059,180.948,98.637,123.115,7.407z"/>
	<path fill="#FFCB05" d="M8.263,225.707c7.919,25.162,30.269,39.098,61.027,46.747c6.039-5.485,11.56-11.524,26.715-11.524
		c26.343,0,25.264,18.226,50.782,20.064c1.075,0.032,2.126,0.076,3.207,0.103c0.961,0.025,1.877-0.007,2.829,0.006
		c28.014-0.834,25.77-20.173,59.594-20.173c12.771,0,20.127,2.769,25.836,6.262c24.488-9.787,42.752-24.163,53.475-41.484H8.263z"/>
</g>
</svg>
