<?xml version="1.0" encoding="utf-8"?>
<!-- Generator: Adobe Illustrator 16.0.0, SVG Export Plug-In . SVG Version: 6.00 Build 0)  -->
<!DOCTYPE svg PUBLIC "-//W3C//DTD SVG 1.1//EN" "http://www.w3.org/Graphics/SVG/1.1/DTD/svg11.dtd">
<svg version="1.1" id="Calque_1" xmlns="http://www.w3.org/2000/svg" xmlns:xlink="http://www.w3.org/1999/xlink" x="0px" y="0px"
	 width="299.99px" height="288.175px" viewBox="0 0 299.99 288.175" enable-background="new 0 0 299.99 288.175"
	 xml:space="preserve">
<g>
	<path fill="#D11A6F" d="M87.014,255.083c-1.357,3.946-5.062,6.801-9.47,6.801c-4.409,0-8.112-2.854-9.47-6.801H50.943
		c1.608,13.27,12.895,23.563,26.601,23.563s24.991-10.293,26.6-23.563H87.014z"/>
	<path fill="#D11A6F" d="M147.773,255.083c-1.357,3.946-5.062,6.801-9.47,6.801s-8.112-2.854-9.47-6.801h-17.13
		c1.608,13.27,12.894,23.563,26.6,23.563s24.991-10.293,26.601-23.563H147.773z"/>
	<path fill="#D11A6F" d="M208.534,255.083c-1.358,3.946-5.062,6.801-9.47,6.801c-4.409,0-8.112-2.854-9.471-6.801h-17.13
		c1.608,13.27,12.895,23.563,26.601,23.563c13.705,0,24.991-10.293,26.6-23.563H208.534z"/>
	<path fill="#D11A6F" d="M269.294,255.083c-1.357,3.946-5.062,6.801-9.47,6.801s-8.112-2.854-9.47-6.801h-17.13
		c1.608,13.27,12.894,23.563,26.6,23.563s24.992-10.293,26.6-23.563H269.294z"/>
	<path fill="#FAA61A" d="M18.46,237.205l25.002,17.041c-1.955,3.492-2.234,8.521-1.955,11.314H8.263
		C8.542,255.363,13.71,240.976,18.46,237.205z"/>
	<path fill="#FAA61A" d="M22.93,232.595c6.983-7.123,16.063-16.9,36.036-18.019c19.975-1.117,168.313,5.308,188.847,6.425
		c20.532,1.118,45.256,0.839,43.858,29.193c-11.593,0-243.879,0-243.879,0L22.93,232.595z"/>
	<path fill="#FAA61A" d="M271.232,173.419c-7.912-3.732-25.463-12.61-42.783-21.611l-25.334,34.453
		c-2.925,3.977-8.517,4.828-12.497,1.903l-11.101-8.153c-3.98-2.938-4.834-8.529-1.907-12.506l22.55-30.668
		c-6.271-3.405-11.277-6.212-14.038-7.928c-1.146-0.711-2.344-1.439-3.556-2.182l-29.512,26.762
		c-3.659,3.316-9.31,3.037-12.63-0.615l-9.253-10.206c-3.32-3.662-3.043-9.315,0.615-12.632l27.853-25.256
		c-1.608-3.775-2.521-8.088-2.386-13.117c0.016-0.606,0.066-1.244,0.099-1.863h-37.159c-4.937,0-8.939-4.003-8.939-8.939v-13.78
		c0-4.937,4.003-8.939,8.939-8.939h42.803c3.15-11.903,6.864-22.916,9.158-29.8c4.47-13.409,0.93-18.625-11.548-18.809
		s-28.68,6.146-33.711,10.428c-3.166-2.422-17.132-7.821-28.865-7.821c-28.309,0-25.886,33.522-31.285,65.374
		c-5.4,31.851-22.352,68.904-28.87,94.418c-6.52,25.514,0.932,28.865,8.381,29.424c7.448,0.559,46.561,1.677,65.448,2.794
		c18.887,1.118,72.741,8.568,82.984,8.568c10.242,0,69.466,0.559,79.337,0C285.015,193.345,287.436,181.058,271.232,173.419z"/>
	<path fill="#D11A6F" d="M116.095,81.607c0,2.467,2.002,4.47,4.47,4.47h43.58c2.469,0,4.47-2.003,4.47-4.47V67.264
		c0-2.467-2.001-4.47-4.47-4.47h-43.58c-2.468,0-4.47,2.003-4.47,4.47V81.607z"/>
	<path fill="#D11A6F" d="M144.515,150.171c1.656,1.834,4.484,1.965,6.315,0.311l32.283-29.275c1.83-1.659,1.965-4.488,0.309-6.316
		l-9.64-10.625c-1.656-1.82-4.485-1.964-6.311-0.301l-32.284,29.271c-1.829,1.658-1.964,4.487-0.308,6.312L144.515,150.171z"/>
	<path fill="#D11A6F" d="M194.09,184.703c1.985,1.467,4.782,1.039,6.249-0.951l25.815-35.107c1.465-1.99,1.033-4.788-0.951-6.25
		l-11.559-8.494c-1.987-1.459-4.79-1.039-6.246,0.951l-25.82,35.107c-1.46,1.99-1.03,4.788,0.955,6.25L194.09,184.703z"/>
</g>
</svg>
