<?xml version="1.0" encoding="utf-8"?>
<!-- Generator: Adobe Illustrator 16.0.0, SVG Export Plug-In . SVG Version: 6.00 Build 0)  -->
<!DOCTYPE svg PUBLIC "-//W3C//DTD SVG 1.1//EN" "http://www.w3.org/Graphics/SVG/1.1/DTD/svg11.dtd">
<svg version="1.1" id="Calque_1" xmlns="http://www.w3.org/2000/svg" xmlns:xlink="http://www.w3.org/1999/xlink" x="0px" y="0px"
	 width="300px" height="194.257px" viewBox="0 0 300 194.257" enable-background="new 0 0 300 194.257" xml:space="preserve">
<g>
	<path fill="#D11A6F" d="M57.027,92.837c-26.718,0-48.376,21.659-48.376,48.376c0,26.719,21.659,48.377,48.376,48.377
		c26.718,0,48.377-21.658,48.377-48.377C105.404,114.496,83.745,92.837,57.027,92.837z M57.027,169.322
		c-15.523,0-28.108-12.585-28.108-28.108s12.585-28.108,28.108-28.108c15.524,0,28.109,12.585,28.109,28.108
		S72.551,169.322,57.027,169.322z"/>
	<path fill="#D11A6F" d="M248.708,103.545c-23.759,0-43.021,19.262-43.021,43.023c0,23.761,19.263,43.022,43.021,43.022
		c23.762,0,43.024-19.262,43.024-43.022C291.732,122.807,272.47,103.545,248.708,103.545z M248.708,171.566
		c-13.805,0-24.997-11.192-24.997-24.998s11.192-24.998,24.997-24.998c13.807,0,24.998,11.192,24.998,24.998
		S262.515,171.566,248.708,171.566z"/>
	<path fill="#FAA61A" d="M273.83,96.828c-8.071-4.937-17.56-7.781-27.715-7.781c-6.264,0-12.271,1.091-17.854,3.08
		c-6.457-11.856-11.724-21.585-12.908-23.955c15.488,0.191,15.297-7.075,15.297-10.517c0-3.441-4.398-16.826-7.84-27.343
		c-3.441-10.518-18.739-7.458-24.094-7.266c-0.955-3.824-1.004-18.753-13.243-18.372c-12.237,0.383-34.942,19.422-34.942,24.108
		c0,3.639,3.251,8.031,8.415,8.031c5.162,0,15.488-8.987,22.753-12.238c0.383,2.294,4.207,14.15,6.693,20.938
		c-16.254-0.288-35.033,2.317-48.187,9.657c-16.444,9.178-15.679,24.092-21.797,24.667c-3.637,0.341-12.79,0.32-28.874-0.956
		C77.487,77.923,80.11,65.782,72.516,60.14c-6.692-4.972-21.99-3.762-27.344-3.508c-25.611,1.214-33,7.62-36.904,12.304
		c1.529,9.56,10.325,9.943,23.71,10.134c46.656-0.191,64.248,13.768,74,23.71c-4.399,3.06-45.126,26.006-53.349,30.595
		s-5.915,16.688,6.324,17.069s57.159-0.052,65.573-0.052c3.634,3.251,12.428,7.643,30.595,7.648
		c14.881,0.005,31.458-7.457,31.076-11.473c-0.682-34.716,10.99-52.201,16.918-64.439c0.938,1.464,4.998,8.736,10.26,18.197
		c-12.456,9.741-20.474,24.896-20.474,41.934c0,17.952,6.551,21.177,6.551,6.656c0-15.969,7.431-30.192,19.014-39.432
		c11.403,20.513,25.187,45.226,26.909,46.947c2.869,2.868,8.413,1.338,10.517-0.191s3.823-6.502,2.294-9.369
		c-0.872-1.635-13.541-24.728-24.916-45.566c5.201-1.814,10.787-2.812,16.606-2.812c5.61,0,11.007,0.916,16.046,2.607
		C282.62,106.705,288.05,105.527,273.83,96.828z M76.914,136.817c6.502-3.06,38.052-17.783,38.052-17.783
		c1.912,3.06,3.633,10.516,3.825,13.385C111.332,132.802,80.929,136.625,76.914,136.817z"/>
</g>
</svg>
