<?xml version="1.0" encoding="utf-8"?>
<!-- Generator: Adobe Illustrator 16.0.0, SVG Export Plug-In . SVG Version: 6.00 Build 0)  -->
<!DOCTYPE svg PUBLIC "-//W3C//DTD SVG 1.1//EN" "http://www.w3.org/Graphics/SVG/1.1/DTD/svg11.dtd">
<svg version="1.1" id="Calque_1" xmlns="http://www.w3.org/2000/svg" xmlns:xlink="http://www.w3.org/1999/xlink" x="0px" y="0px"
	 width="299.99px" height="205.068px" viewBox="0 0 299.99 205.068" enable-background="new 0 0 299.99 205.068"
	 xml:space="preserve">
<g>
	<path fill="#FAA61A" d="M169.457,50.348c19.731,0.001,54.342,7.763,86.689,32.993c32.346,25.23,35.581,42.697,35.581,56.606
		s-11.969,30.083-33.641,30.083c-21.673,0-245.727,0-247.668,0c-1.94,0-2.156-1.941-2.156-3.235s0-43.128,0-45.285
		c0-2.156,0-4.313,3.02-5.391c1.413-0.505,25.596-9.645,54.558-25.877C99.696,71.266,134.199,50.345,169.457,50.348z"/>
	<circle fill="#FFFFFF" cx="268.761" cy="133.802" r="10.028"/>
	<circle fill="#FFFFFF" cx="214.634" cy="136.173" r="10.028"/>
	<path fill="#FFFFFF" d="M186.601,70.403c12.289-0.246,30.729,3.234,46.903,14.232c16.173,10.998,30.729,22.966,6.469,25.554
		s-43.17-2.199-49.49-4.852c-8.733-3.666-21.55-13.275-24.938-21.962C161.34,72.594,179.406,70.546,186.601,70.403z"/>
	<path fill="#FFFFFF" d="M8.263,134.666c7.548-2.373,80.004-26.525,89.062-28.896c9.057-2.372,32.563,19.407,5.606,23.289
		c-26.956,3.882-87.768,18.977-94.668,20.702V134.666z"/>
	<path fill="#D11A6F" d="M148.647,7.003H90.423c-10.501,0-19.049,8.343-19.391,18.761h12.358c0.526-3.775,3.759-6.685,7.68-6.685
		h2.505l20.083,34.584c0,0,12.373-5.984,16.901-6.47l12.964-28.114h3.951c3.921,0,7.154,2.909,7.68,6.685h12.884
		C167.697,15.346,159.148,7.003,148.647,7.003z M120.209,39.917L108.143,19.08h21.274L120.209,39.917z"/>
	<path fill="#D11A6F" d="M279.759,195.477c0,1.429-1.158,2.588-2.587,2.588H10.851c-1.429,0-2.588-1.159-2.588-2.588v-9.92
		c0-1.429,1.159-2.587,2.588-2.587h266.321c1.429,0,2.587,1.158,2.587,2.587V195.477z"/>
</g>
</svg>
