<?xml version="1.0" encoding="utf-8"?>
<!-- Generator: Adobe Illustrator 16.0.0, SVG Export Plug-In . SVG Version: 6.00 Build 0)  -->
<!DOCTYPE svg PUBLIC "-//W3C//DTD SVG 1.1//EN" "http://www.w3.org/Graphics/SVG/1.1/DTD/svg11.dtd">
<svg version="1.1" id="Calque_1" xmlns="http://www.w3.org/2000/svg" xmlns:xlink="http://www.w3.org/1999/xlink" x="0px" y="0px"
	 width="300px" height="239.189px" viewBox="0 0 300 239.189" enable-background="new 0 0 300 239.189" xml:space="preserve">
<g>
	<path fill="#39B54A" d="M38.949,100.863c12.218,0,99.608,0,107.126,0c7.52,0,17.858,52.623,46.987,52.623
		c29.131,0,31.012-23.49,31.012-37.585c0-14.096-43.229-84.574-80.817-84.574c-22.553,0-20.675-23.494,5.639-23.494
		c26.313,0,97.731,54.505,97.731,115.584c16.914,0,45.105,26.308,45.105,44.166c0,17.855-19.734,18.791-22.553,5.639
		c-2.818-13.154-16.912-21.607-20.672-20.67c-3.762,0.936-29.131,42.285-62.021,42.285s-144.715,0-163.511,0
		c-18.795,0-28.191-46.988,26.312-68.6C20.157,127.176,24.854,100.863,38.949,100.863z"/>
	<path fill="#D80B8C" d="M260.91,174.991c-1.298-6.051-6.559-10.879-10.016-13c-0.605,0.705-1.248,1.459-1.838,2.148
		c-2.592,3.045-5.875,6.883-9.742,10.945c8.102,0.738,14.471,7.479,14.471,15.764c0,8.783-7.119,15.908-15.908,15.908
		c-8.781,0-15.904-7.125-15.904-15.908c0-0.148,0.039-0.291,0.045-0.434c-6.889,4.949-14.65,9.084-23.141,11.242
		c4.732,17.113,20.381,29.701,39,29.701c22.371,0,40.506-18.137,40.506-40.51c0-0.121-0.016-0.236-0.016-0.357
		C269.738,189.87,262.807,183.841,260.91,174.991z"/>
	<path fill="#D80B8C" d="M89.895,203.294c-2.706,2.135-6.081,3.463-9.798,3.463c-3.714,0-7.09-1.328-9.796-3.463H41.559
		c5.253,16.281,20.513,28.064,38.538,28.064c18.026,0,33.284-11.783,38.54-28.064H89.895z"/>
</g>
</svg>
