<?xml version="1.0" encoding="utf-8"?>
<!-- Generator: Adobe Illustrator 16.0.0, SVG Export Plug-In . SVG Version: 6.00 Build 0)  -->
<!DOCTYPE svg PUBLIC "-//W3C//DTD SVG 1.1//EN" "http://www.w3.org/Graphics/SVG/1.1/DTD/svg11.dtd">
<svg version="1.1" id="Calque_1" xmlns="http://www.w3.org/2000/svg" xmlns:xlink="http://www.w3.org/1999/xlink" x="0px" y="0px"
	 width="300px" height="176.014px" viewBox="0 0 300 176.014" enable-background="new 0 0 300 176.014" xml:space="preserve">
<g>
	<path fill="#0A4E9B" d="M279.439,67.798l-49.635-0.072l0.168-49.529c0-6.786-5.5-12.287-12.287-12.287H20.561
		c-6.785,0-12.287,5.501-12.287,12.287V136.07c0,6.785,5.502,12.286,12.287,12.286h10.401c1.056-16.882,14.931-30.284,32.08-30.284
		c17.137,0,31.025,13.402,32.081,30.284h108.121c1.055-16.882,14.938-30.284,32.086-30.284c17.137,0,31.025,13.402,32.082,30.284
		h11.922c6.785,0,12.287-5.501,12.287-12.286l0.105-55.985C291.727,73.3,286.225,67.798,279.439,67.798z"/>
	<rect x="176.18" y="30.872" fill="#FFFFFF" width="29.182" height="35.834"/>
	<g>
		<rect x="33.866" y="30.872" fill="#FFFFFF" width="26.614" height="35.834"/>
		<rect x="63.042" y="30.872" fill="#FFFFFF" width="27.605" height="35.834"/>
		<rect x="93.209" y="30.872" fill="#FFFFFF" width="27.606" height="35.834"/>
		<rect x="123.377" y="30.872" fill="#FFFFFF" width="26.619" height="35.834"/>
	</g>
	<path fill="#6DCFF6" d="M63.042,130.617c-10.904,0-19.741,8.837-19.741,19.743c0,10.9,8.837,19.744,19.741,19.744
		c10.9,0,19.74-8.844,19.74-19.744C82.782,139.454,73.942,130.617,63.042,130.617z M63.042,158.111c-4.28,0-7.751-3.468-7.751-7.751
		c0-4.277,3.471-7.751,7.751-7.751s7.748,3.474,7.748,7.751C70.79,154.644,67.322,158.111,63.042,158.111z"/>
	<path fill="#6DCFF6" d="M235.33,130.617c-10.902,0-19.74,8.837-19.74,19.743c0,10.9,8.838,19.744,19.74,19.744
		c10.9,0,19.742-8.844,19.742-19.744C255.072,139.454,246.23,130.617,235.33,130.617z M235.33,158.111
		c-4.279,0-7.75-3.468-7.75-7.751c0-4.277,3.471-7.751,7.75-7.751c4.281,0,7.748,3.474,7.748,7.751
		C243.078,154.644,239.611,158.111,235.33,158.111z"/>
</g>
</svg>
