<?xml version="1.0" encoding="utf-8"?>
<!-- Generator: Adobe Illustrator 16.0.0, SVG Export Plug-In . SVG Version: 6.00 Build 0)  -->
<!DOCTYPE svg PUBLIC "-//W3C//DTD SVG 1.1//EN" "http://www.w3.org/Graphics/SVG/1.1/DTD/svg11.dtd">
<svg version="1.1" id="Calque_1" xmlns="http://www.w3.org/2000/svg" xmlns:xlink="http://www.w3.org/1999/xlink" x="0px" y="0px"
	 width="299.99px" height="188.514px" viewBox="0 0 299.99 188.514" enable-background="new 0 0 299.99 188.514"
	 xml:space="preserve">
<g>
	<path d="M291.728,92.039c0-7.216-26.836-30.443-61.113-30.443s-119.52,0-141.168,0s-31.346-10.6-36.983-17.59
		c-5.638-6.991-25.934-33.149-25.934-33.149H8.263c0,0,13.351,46.479,13.756,48.71c0.79,4.341-8.344,3.607-7.667,10.599
		c0.677,6.99,6.043,10.948,10.824,12.628c4.172,1.466,2.819,2.143,0.226,4.285c-2.093,1.729-11.952,10.147-11.952,10.147h21.424
		c0,0,5.638-2.255,8.569-3.607c2.932-1.354,5.187-1.805,10.147,0.45c4.961,2.256,33.826,12.403,45.553,12.403
		s17.815-0.677,16.237,4.511c-1.579,5.187-3.608,10.373-17.364,27.963c-13.756,17.59-32.924,41.944-32.924,41.944h24.806
		c0,0,106.666-69.457,109.146-71.486c2.481-2.029,4.511-2.255,8.118-2.255c3.608,0,46.004,0.226,51.642,0
		S291.728,103.314,291.728,92.039z"/>
	<polygon points="174.839,55.432 116.808,7.624 92.903,7.624 115.154,55.432 	"/>
	<circle fill="#FFFFFF" cx="206.373" cy="83.019" r="5.299"/>
	<circle fill="#FFFFFF" cx="184.063" cy="83.019" r="5.299"/>
	<circle fill="#FFFFFF" cx="161.754" cy="83.019" r="5.3"/>
	<circle fill="#FFFFFF" cx="139.445" cy="83.019" r="5.299"/>
	<circle fill="#FFFFFF" cx="117.136" cy="83.019" r="5.3"/>
	<path fill="#FFFFFF" d="M263.989,74.675c-1.318,0.304-4.735,2.143-9.922,2.03c-5.187-0.113-5.863,2.706-5.977,3.495
		c-0.112,0.789,0.451,3.495,4.85,3.608c4.396,0.112,11.5-0.902,14.545-1.917c3.044-1.015,4.715-1.987,4.623-2.646
		C271.921,77.907,265.249,74.385,263.989,74.675z"/>
</g>
</svg>
