<?xml version="1.0" encoding="utf-8"?>
<!-- Generator: Adobe Illustrator 16.0.0, SVG Export Plug-In . SVG Version: 6.00 Build 0)  -->
<!DOCTYPE svg PUBLIC "-//W3C//DTD SVG 1.1//EN" "http://www.w3.org/Graphics/SVG/1.1/DTD/svg11.dtd">
<svg version="1.1" id="Calque_1" xmlns="http://www.w3.org/2000/svg" xmlns:xlink="http://www.w3.org/1999/xlink" x="0px" y="0px"
	 width="300px" height="142.567px" viewBox="0 0 300 142.567" enable-background="new 0 0 300 142.567" xml:space="preserve">
<g>
	<path fill="#39B54A" d="M67.851,74.143c15.673-1.93,168.068-35.393,181.705-40.417c13.638-5.023,21.533-17.226,25.84-22.25
		c4.307-5.023,22.25-5.741,14.354,11.484c-7.895,17.226-27.273,30.145-49.523,35.169S96.678,88.99,80.17,91.861
		s-48.089,4.307-64.597-10.047c-16.508-14.354-1.912-24.403,12.92-12.919C43.36,80.406,57.416,75.428,67.851,74.143z"/>
	<path fill="#D80B8C" d="M100.625,116.982c0-9.51-7.713-17.225-17.226-17.225s-17.226,7.715-17.226,17.225
		s7.713,17.227,17.226,17.227S100.625,126.492,100.625,116.982z"/>
	<path fill="#D80B8C" d="M258.528,82.531c0-9.509-7.713-17.226-17.227-17.226c-9.512,0-17.225,7.716-17.225,17.226
		c0,9.51,7.713,17.227,17.225,17.227C250.815,99.757,258.528,92.041,258.528,82.531z"/>
</g>
</svg>
