<?xml version="1.0" encoding="utf-8"?>
<!-- Generator: Adobe Illustrator 16.0.0, SVG Export Plug-In . SVG Version: 6.00 Build 0)  -->
<!DOCTYPE svg PUBLIC "-//W3C//DTD SVG 1.1//EN" "http://www.w3.org/Graphics/SVG/1.1/DTD/svg11.dtd">
<svg version="1.1" id="Calque_1" xmlns="http://www.w3.org/2000/svg" xmlns:xlink="http://www.w3.org/1999/xlink" x="0px" y="0px"
	 width="299.99px" height="264.189px" viewBox="0 0 299.99 264.189" enable-background="new 0 0 299.99 264.189"
	 xml:space="preserve">
<g>
	<path fill="#662D91" d="M41.637,187.044c-18.432,0-33.374,14.942-33.374,33.374s14.942,33.374,33.374,33.374
		s33.374-14.942,33.374-33.374S60.068,187.044,41.637,187.044z M41.637,232.184c-6.498,0-11.767-5.268-11.767-11.766
		s5.269-11.767,11.767-11.767s11.767,5.269,11.767,11.767S48.135,232.184,41.637,232.184z"/>
	<path fill="#662D91" d="M217.374,187.044c-18.432,0-33.373,14.942-33.373,33.374s14.941,33.374,33.373,33.374
		c18.433,0,33.375-14.942,33.375-33.374S235.807,187.044,217.374,187.044z M217.374,232.184c-6.498,0-11.766-5.268-11.766-11.766
		s5.268-11.767,11.766-11.767c6.499,0,11.768,5.269,11.768,11.767S223.873,232.184,217.374,232.184z"/>
	<path fill="#ED1C24" d="M255.108,220.418c0,1.612-0.113,3.197-0.31,4.756l36.929-12.029l-24.725-35.461l-30.713,10.09
		C247.538,194.305,255.108,206.474,255.108,220.418z"/>
	<path fill="#ED1C24" d="M24.522,25.095c8.771-1.069,78.824-10.847,87.81-14.697c4.92,11.553,26.218,66.47,44.616,75.241
		s85.34,29.738,95.939,34.017c10.601,4.278,12.74,8.984,12.954,16.899c0.214,7.916-0.214,26.314,0,30.38
		c-5.134,2.353-21.024,8.343-29.552,9.412c-8.529,1.07-42.566,7.622-101.591,5.776c-13.523-0.423-76.894-0.97-109.214-4.064
		c-12.729-1.219-16.937-4.707-16.541-10.826c1.338-20.713-1.75-40.732,1.03-61.484c2.781-20.751,9.877-46.433,12.873-57.129
		C25.843,37.922,24.522,25.095,24.522,25.095z"/>
	<path fill="#FFFFFF" d="M109.026,23.812c-3.485,0-6.311,2.825-6.311,6.311s2.825,6.312,6.311,6.312s6.312-2.826,6.312-6.312
		S112.512,23.812,109.026,23.812z M109.026,33.415c-1.818,0-3.293-1.474-3.293-3.293c0-1.818,1.475-3.293,3.293-3.293
		c1.819,0,3.294,1.475,3.294,3.293C112.32,31.941,110.846,33.415,109.026,33.415z"/>
	<path fill="#FFFFFF" d="M117.268,42.321c-3.485,0-6.312,2.825-6.312,6.311s2.826,6.312,6.312,6.312s6.312-2.826,6.312-6.312
		S120.753,42.321,117.268,42.321z M117.268,51.925c-1.818,0-3.293-1.474-3.293-3.293c0-1.818,1.475-3.293,3.293-3.293
		s3.294,1.475,3.294,3.293C120.562,50.451,119.086,51.925,117.268,51.925z"/>
	<path fill="#FFFFFF" d="M126.147,61.443c-3.485,0-6.312,2.826-6.312,6.312s2.826,6.311,6.312,6.311s6.311-2.825,6.311-6.311
		S129.633,61.443,126.147,61.443z M126.147,71.048c-1.819,0-3.294-1.475-3.294-3.293c0-1.819,1.475-3.294,3.294-3.294
		c1.818,0,3.293,1.475,3.293,3.294C129.44,69.573,127.966,71.048,126.147,71.048z"/>
	<path fill="#FFFFFF" d="M137.785,76.668c-3.485,0-6.312,2.826-6.312,6.312s2.826,6.311,6.312,6.311s6.312-2.825,6.312-6.311
		S141.271,76.668,137.785,76.668z M137.785,86.272c-1.819,0-3.293-1.475-3.293-3.293c0-1.819,1.474-3.293,3.293-3.293
		c1.818,0,3.293,1.474,3.293,3.293C141.078,84.798,139.604,86.272,137.785,86.272z"/>
	<path fill="#FFFFFF" d="M156.454,89.566c-3.486,0-6.311,2.825-6.311,6.311c0,3.486,2.824,6.312,6.311,6.312
		c3.485,0,6.311-2.825,6.311-6.312C162.765,92.392,159.939,89.566,156.454,89.566z M156.454,99.17c-1.818,0-3.293-1.474-3.293-3.293
		c0-1.818,1.475-3.293,3.293-3.293s3.293,1.475,3.293,3.293C159.747,97.696,158.272,99.17,156.454,99.17z"/>
	<path fill="#FFFFFF" d="M177.501,97.377c-3.485,0-6.311,2.825-6.311,6.311s2.825,6.311,6.311,6.311s6.311-2.825,6.311-6.311
		S180.986,97.377,177.501,97.377z M177.501,106.98c-1.818,0-3.293-1.475-3.293-3.293s1.475-3.293,3.293-3.293
		s3.293,1.475,3.293,3.293S179.319,106.98,177.501,106.98z"/>
	<path fill="#FFFFFF" d="M196.327,103.152c-3.485,0-6.311,2.826-6.311,6.312s2.825,6.311,6.311,6.311s6.311-2.825,6.311-6.311
		S199.813,103.152,196.327,103.152z M196.327,112.757c-1.818,0-3.293-1.474-3.293-3.293s1.475-3.293,3.293-3.293
		s3.293,1.474,3.293,3.293S198.146,112.757,196.327,112.757z"/>
	<path fill="#662D91" d="M147.476,63.702c0.216,1.192-0.575,2.333-1.767,2.548l-19.051,3.454c-1.191,0.217-2.333-0.574-2.549-1.766
		l0,0c-0.216-1.191,0.575-2.333,1.767-2.55l19.051-3.453C146.118,61.72,147.259,62.51,147.476,63.702L147.476,63.702z"/>
	<path fill="#662D91" d="M151.495,75.178c0.598,1.054,0.227,2.392-0.827,2.988l-12.172,7.017c-1.053,0.597-2.391,0.227-2.987-0.826
		l0,0c-0.598-1.054-0.228-2.393,0.826-2.99l12.17-7.015C149.56,73.754,150.897,74.124,151.495,75.178L151.495,75.178z"/>
	<path fill="#662D91" d="M163.351,84.119c1.041,0.619,1.383,1.965,0.766,3.005l-5.777,9.882c-0.618,1.042-1.963,1.385-3.004,0.767
		l0,0c-1.041-0.618-1.385-1.965-0.766-3.007l5.775-9.881C160.964,83.844,162.309,83.501,163.351,84.119L163.351,84.119z"/>
	<path fill="#662D91" d="M183.657,90.997c1.086,0.536,1.533,1.851,0.998,2.937l-5.248,10.825c-0.535,1.087-1.85,1.534-2.936,0.999
		l0,0c-1.086-0.534-1.533-1.85-1-2.936l5.249-10.825C181.256,90.91,182.569,90.463,183.657,90.997L183.657,90.997z"/>
	<path fill="#662D91" d="M201.96,97.025c1.109,0.49,1.61,1.785,1.121,2.893l-4.404,10.172c-0.488,1.109-1.783,1.609-2.891,1.121l0,0
		c-1.107-0.49-1.609-1.785-1.121-2.893l4.404-10.172C199.559,97.037,200.853,96.537,201.96,97.025L201.96,97.025z"/>
</g>
</svg>
