<?xml version="1.0" encoding="utf-8"?>
<!-- Generator: Adobe Illustrator 16.0.0, SVG Export Plug-In . SVG Version: 6.00 Build 0)  -->
<!DOCTYPE svg PUBLIC "-//W3C//DTD SVG 1.1//EN" "http://www.w3.org/Graphics/SVG/1.1/DTD/svg11.dtd">
<svg version="1.1" id="Calque_1" xmlns="http://www.w3.org/2000/svg" xmlns:xlink="http://www.w3.org/1999/xlink" x="0px" y="0px"
	 width="300px" height="163.514px" viewBox="0 0 300 163.514" enable-background="new 0 0 300 163.514" xml:space="preserve">
<g>
	<path d="M223.474,66.945C213.413,29.496,172.61,4.902,120.626,4.902c-72.701,0-87.93,54.268-88.085,64.276
		c-0.132,8.563-15.488,3.082-21.403,7.383c-11.035,8.027-4.013,54.845,3.848,56.898c2.643,0,12.02,0,25.797,0
		c0.873-15.266,13.493-27.387,28.98-27.387c15.486,0,28.106,12.121,28.979,27.387c34.175,0,73.534,0,107.689,0
		c0.873-15.266,13.494-27.387,28.979-27.387s28.106,12.121,28.98,27.387c14.915,0,24.619,0,26.155,0
		C312.346,69.18,239.124,65.827,223.474,66.945z"/>
	<g>
		<path fill="#FFFFFF" d="M117.274,20.089c-1.832-0.045-3.679-0.097-5.59-0.097c-43.693-0.005-57.07,31.302-57.07,49.186
			c0,0,23.645-0.154,62.66-0.22V20.089z"/>
		<path fill="#FFFFFF" d="M131.806,20.842v48.097c29.722-0.028,57.668,0.015,67.632,0.239
			C198.936,48.03,187.713,25.448,131.806,20.842z"/>
	</g>
	<path fill="#BCBEC0" d="M69.763,111.66c-12.965,0-23.476,10.512-23.476,23.477s10.511,23.475,23.476,23.475
		c12.966,0,23.476-10.51,23.476-23.475S82.729,111.66,69.763,111.66z M69.763,144.354c-5.091,0-9.219-4.125-9.219-9.217
		s4.128-9.219,9.219-9.219c5.092,0,9.218,4.127,9.218,9.219S74.855,144.354,69.763,144.354z"/>
	<path fill="#BCBEC0" d="M235.411,111.66c-12.965,0-23.476,10.512-23.476,23.477s10.511,23.475,23.476,23.475
		c12.966,0,23.476-10.51,23.476-23.475S248.377,111.66,235.411,111.66z M235.411,144.354c-5.091,0-9.218-4.125-9.218-9.217
		s4.127-9.219,9.218-9.219c5.092,0,9.219,4.127,9.219,9.219S240.503,144.354,235.411,144.354z"/>
</g>
</svg>
