<?xml version="1.0" encoding="utf-8"?>
<!-- Generator: Adobe Illustrator 16.0.0, SVG Export Plug-In . SVG Version: 6.00 Build 0)  -->
<!DOCTYPE svg PUBLIC "-//W3C//DTD SVG 1.1//EN" "http://www.w3.org/Graphics/SVG/1.1/DTD/svg11.dtd">
<svg version="1.1" id="Calque_1" xmlns="http://www.w3.org/2000/svg" xmlns:xlink="http://www.w3.org/1999/xlink" x="0px" y="0px"
	 width="300px" height="194.257px" viewBox="0 0 300 194.257" enable-background="new 0 0 300 194.257" xml:space="preserve">
<g>
	<path fill="#FBB040" d="M57.027,92.837c-26.717,0-48.376,21.659-48.376,48.377s21.659,48.377,48.376,48.377
		c26.718,0,48.377-21.659,48.377-48.377S83.745,92.837,57.027,92.837z M57.027,169.322c-15.523,0-28.108-12.585-28.108-28.108
		s12.585-28.108,28.108-28.108c15.524,0,28.109,12.585,28.109,28.108S72.551,169.322,57.027,169.322z"/>
	<path fill="#FBB040" d="M248.709,103.545c-23.761,0-43.023,19.262-43.023,43.023c0,23.761,19.263,43.022,43.023,43.022
		s43.023-19.262,43.023-43.022C291.732,122.807,272.47,103.545,248.709,103.545z M248.709,171.565
		c-13.806,0-24.998-11.192-24.998-24.997c0-13.806,11.192-24.998,24.998-24.998s24.997,11.192,24.997,24.998
		C273.706,160.373,262.515,171.565,248.709,171.565z"/>
	<path fill="#00AEEF" d="M273.83,96.828c-8.07-4.937-17.56-7.781-27.715-7.781c-6.265,0-12.271,1.09-17.854,3.079
		c-6.459-11.856-11.725-21.585-12.909-23.955c15.488,0.19,15.297-7.075,15.297-10.518c0-3.44-4.398-16.826-7.84-27.343
		c-3.441-10.518-18.739-7.458-24.093-7.267c-0.957-3.823-1.006-18.753-13.244-18.371c-12.237,0.383-34.942,19.423-34.942,24.108
		c0,3.639,3.251,8.03,8.414,8.03s15.488-8.986,22.754-12.238c0.382,2.295,4.207,14.15,6.692,20.938
		c-16.253-0.287-35.033,2.317-48.186,9.657c-16.444,9.178-15.68,24.093-21.798,24.667c-3.637,0.342-12.79,0.32-28.874-0.956
		C77.487,77.923,80.11,65.781,72.516,60.14c-6.692-4.972-21.99-3.762-27.344-3.508c-25.611,1.214-33,7.619-36.904,12.304
		c1.53,9.561,10.326,9.943,23.71,10.134c46.656-0.19,64.248,13.768,74,23.711c-4.399,3.06-45.126,26.006-53.349,30.595
		s-5.914,16.687,6.324,17.069c12.238,0.382,57.16-0.052,65.573-0.052c3.634,3.25,12.428,7.643,30.595,7.648
		c14.881,0.005,31.458-7.458,31.076-11.473c-0.682-34.716,10.99-52.201,16.918-64.439c0.938,1.465,4.998,8.736,10.259,18.198
		c-12.455,9.739-20.472,24.896-20.472,41.934c0,17.952,6.55,21.176,6.55,6.656c0-15.969,7.431-30.193,19.014-39.432
		c11.403,20.512,25.186,45.226,26.908,46.947c2.869,2.868,8.413,1.338,10.517-0.191s3.824-6.502,2.295-9.37
		c-0.872-1.634-13.541-24.727-24.916-45.565c5.201-1.814,10.786-2.812,16.606-2.812c5.61,0,11.006,0.916,16.046,2.606
		C282.62,106.705,288.05,105.527,273.83,96.828z M76.914,136.816c6.501-3.06,38.051-17.782,38.051-17.782
		c1.912,3.06,3.633,10.516,3.825,13.385C111.332,132.802,80.929,136.625,76.914,136.816z"/>
</g>
</svg>
