<?xml version="1.0" encoding="utf-8"?>
<!-- Generator: Adobe Illustrator 16.0.0, SVG Export Plug-In . SVG Version: 6.00 Build 0)  -->
<!DOCTYPE svg PUBLIC "-//W3C//DTD SVG 1.1//EN" "http://www.w3.org/Graphics/SVG/1.1/DTD/svg11.dtd">
<svg version="1.1" id="Calque_1" xmlns="http://www.w3.org/2000/svg" xmlns:xlink="http://www.w3.org/1999/xlink" x="0px" y="0px"
	 width="299.99px" height="138.514px" viewBox="0 0 299.99 138.514" enable-background="new 0 0 299.99 138.514"
	 xml:space="preserve">
<g>
	<path fill="#FAA61A" d="M21.849,10.971c6.573,18.726,22.515,29.93,47.989,29.943c23.442,0.01,42.329-10.798,52.207-28.134
		c2.895-5.081,7.628-5.397,10.563-2.933c49.815,41.829,157,48.354,159.119,98.517l-0.001,6.303
		c-0.005,8.564-6.952,15.5-15.512,15.496L23.766,130.05c-8.563,0-15.506-6.947-15.503-15.51V26.28
		C8.267,18.374,14.206,11.926,21.849,10.971z"/>
	<path fill="#D11A6F" d="M291.727,114.667c-0.004,8.564-6.951,15.5-15.511,15.496l-252.45-0.113c-8.563,0-15.504-6.947-15.502-15.51
		L291.727,114.667z"/>
	<path fill="#FFFFFF" d="M142.489,21.723c-4.37-0.282-8.143,3.032-8.424,7.401c-0.283,4.372,3.031,8.143,7.401,8.425
		c4.371,0.282,8.143-3.03,8.425-7.402C150.174,25.777,146.86,22.005,142.489,21.723z M141.712,33.765
		c-2.28-0.148-4.01-2.115-3.863-4.396c0.147-2.279,2.115-4.01,4.396-3.861c2.28,0.146,4.01,2.115,3.862,4.396
		C145.961,32.182,143.992,33.911,141.712,33.765z"/>
	<path fill="#FFFFFF" d="M194.412,47.573c-4.37-0.283-8.142,3.031-8.424,7.402c-0.283,4.369,3.031,8.141,7.402,8.422
		c4.37,0.283,8.142-3.029,8.424-7.4C202.096,51.628,198.782,47.854,194.412,47.573z M193.635,59.616
		c-2.281-0.148-4.011-2.117-3.863-4.396c0.146-2.281,2.116-4.012,4.396-3.863c2.28,0.146,4.01,2.117,3.863,4.396
		C197.883,58.032,195.915,59.761,193.635,59.616z"/>
	<path fill="#D11A6F" d="M201.309,40.522c1.381,0.644,1.977,2.283,1.333,3.662l-5.84,12.125c-0.643,1.379-2.281,1.977-3.659,1.332
		l0,0c-1.38-0.641-1.977-2.283-1.335-3.66l5.839-12.125C198.29,40.476,199.929,39.879,201.309,40.522L201.309,40.522z"/>
	<path fill="#FFFFFF" d="M221.019,57.468c-4.37-0.281-8.142,3.031-8.424,7.402c-0.282,4.369,3.032,8.141,7.402,8.424
		c4.37,0.281,8.143-3.031,8.425-7.402C228.703,61.522,225.389,57.751,221.019,57.468z M220.242,69.511
		c-2.281-0.148-4.012-2.115-3.863-4.396c0.146-2.281,2.115-4.01,4.396-3.861c2.28,0.145,4.011,2.115,3.863,4.395
		S222.521,69.655,220.242,69.511z"/>
	<path fill="#D11A6F" d="M227.916,50.417c1.38,0.645,1.977,2.283,1.332,3.664l-5.84,12.123c-0.643,1.379-2.281,1.977-3.659,1.332
		l0,0c-1.38-0.641-1.977-2.283-1.335-3.66l5.84-12.125C224.896,50.37,226.535,49.774,227.916,50.417L227.916,50.417z"/>
	<path fill="#FFFFFF" d="M167.305,36.945c-4.37-0.282-8.142,3.032-8.425,7.401c-0.282,4.371,3.032,8.143,7.403,8.424
		c4.369,0.283,8.142-3.031,8.424-7.401C174.988,41,171.675,37.228,167.305,36.945z M166.527,48.987
		c-2.281-0.148-4.011-2.115-3.863-4.397c0.146-2.279,2.115-4.009,4.396-3.861c2.28,0.146,4.01,2.115,3.863,4.396
		C170.775,47.405,168.808,49.134,166.527,48.987z"/>
	<path fill="#D11A6F" d="M174.201,29.895c1.38,0.645,1.977,2.284,1.333,3.663l-5.84,12.125c-0.643,1.379-2.281,1.977-3.66,1.332l0,0
		c-1.379-0.641-1.976-2.284-1.334-3.662l5.839-12.124C171.183,29.849,172.821,29.252,174.201,29.895L174.201,29.895z"/>
</g>
</svg>
