<?xml version="1.0" encoding="utf-8"?>
<!-- Generator: Adobe Illustrator 16.0.0, SVG Export Plug-In . SVG Version: 6.00 Build 0)  -->
<!DOCTYPE svg PUBLIC "-//W3C//DTD SVG 1.1//EN" "http://www.w3.org/Graphics/SVG/1.1/DTD/svg11.dtd">
<svg version="1.1" id="Calque_1" xmlns="http://www.w3.org/2000/svg" xmlns:xlink="http://www.w3.org/1999/xlink" x="0px" y="0px"
	 width="300px" height="163.514px" viewBox="0 0 300 163.514" enable-background="new 0 0 300 163.514" xml:space="preserve">
<g>
	<path fill="#FAA61A" d="M223.474,66.944C213.413,29.495,172.61,4.901,120.626,4.901c-72.701,0-87.93,54.268-88.085,64.276
		c-0.132,8.563-15.488,3.082-21.403,7.383c-11.035,8.026-4.013,54.847,3.848,56.899c2.643,0,12.02,0,25.797,0
		c0.873-15.268,13.493-27.389,28.98-27.389c15.486,0,28.106,12.121,28.979,27.389c34.175,0,73.534,0,107.689,0
		c0.873-15.268,13.494-27.389,28.979-27.389s28.106,12.121,28.98,27.389c14.915,0,24.619,0,26.155,0
		C312.346,69.18,239.124,65.826,223.474,66.944z"/>
	<g>
		<path fill="#FFFFFF" d="M117.274,20.089c-1.832-0.045-3.679-0.097-5.59-0.097c-43.693-0.005-57.07,31.302-57.07,49.186
			c0,0,23.645-0.154,62.66-0.22V20.089z"/>
		<path fill="#FFFFFF" d="M131.806,20.842v48.097c29.722-0.028,57.668,0.015,67.632,0.239
			C198.936,48.029,187.713,25.447,131.806,20.842z"/>
	</g>
	<path fill="#D11A6F" d="M69.763,111.661c-12.965,0-23.476,10.51-23.476,23.475s10.511,23.477,23.476,23.477
		c12.966,0,23.476-10.512,23.476-23.477S82.729,111.661,69.763,111.661z M69.763,144.354c-5.091,0-9.219-4.127-9.219-9.219
		c0-5.09,4.128-9.217,9.219-9.217c5.092,0,9.218,4.127,9.218,9.217C78.981,140.228,74.855,144.354,69.763,144.354z"/>
	<path fill="#D11A6F" d="M235.411,111.661c-12.965,0-23.476,10.51-23.476,23.475s10.511,23.477,23.476,23.477
		c12.966,0,23.476-10.512,23.476-23.477S248.377,111.661,235.411,111.661z M235.411,144.354c-5.091,0-9.218-4.127-9.218-9.219
		c0-5.09,4.127-9.217,9.218-9.217c5.092,0,9.219,4.127,9.219,9.217C244.63,140.228,240.503,144.354,235.411,144.354z"/>
</g>
</svg>
