<?xml version="1.0" encoding="utf-8"?>
<!-- Generator: Adobe Illustrator 16.0.0, SVG Export Plug-In . SVG Version: 6.00 Build 0)  -->
<!DOCTYPE svg PUBLIC "-//W3C//DTD SVG 1.1//EN" "http://www.w3.org/Graphics/SVG/1.1/DTD/svg11.dtd">
<svg version="1.1" id="Calque_1" xmlns="http://www.w3.org/2000/svg" xmlns:xlink="http://www.w3.org/1999/xlink" x="0px" y="0px"
	 width="300px" height="138.851px" viewBox="0 0 300 138.851" enable-background="new 0 0 300 138.851" xml:space="preserve">
<path fill="#39B54A" d="M63.715,17.474c54.34-21.104,69.25,2.7,81.275,2.7c11.973,0,27.844-29.186,92.057-0.45
	c36.994,16.561,76.299,17.187,40.709,51.049c-77.977,74.236-161.951,88.158-258.65,0C-10.617,43.678,26.279,32.032,63.715,17.474z"
	/>
<path fill="#FFFFFF" d="M79.935,46.265c30.906-10.115,59.071,4.804,67.236,4.804c8.128,0,28.098-16.974,70.431-2.155
	c21.928,7.676,43.762,8.073,19.711,20.702c-64.045,33.631-108.378,36.965-175.612,0C41.993,58.779,55.253,54.343,79.935,46.265z"/>
</svg>
