<?xml version="1.0" standalone="no"?><!-- Generator: Gravit.io --><svg xmlns="http://www.w3.org/2000/svg" xmlns:xlink="http://www.w3.org/1999/xlink" style="isolation:isolate" viewBox="0 0 300 300" width="300" height="300"><defs><clipPath id="_clipPath_ZXqJ07EcGdQad9b47XRasfKisflbJRRC"><rect width="300" height="300"/></clipPath></defs><g clip-path="url(#_clipPath_ZXqJ07EcGdQad9b47XRasfKisflbJRRC)"><path d=" M 150 0 C 67.213 0 0 67.213 0 150 C 0 232.787 67.213 300 150 300 L 150 0 Z " fill="rgb(36,36,36)"/><path d=" M 150 300 C 232.787 300 300 232.787 300 150 C 300 67.213 232.787 0 150 0 L 150 300 Z " fill="rgb(64,64,64)"/><defs><filter id="AlyzB8MYd4VjL0NSDFJnJKH2atow0Hjh" x="-200%" y="-200%" width="400%" height="400%"><feOffset xmlns="http://www.w3.org/2000/svg" in="SourceAlpha" result="offOut" dx="5" dy="5"/><feGaussianBlur xmlns="http://www.w3.org/2000/svg" in="offOut" result="blurOut" stdDeviation="2.5"/><feComponentTransfer xmlns="http://www.w3.org/2000/svg" in="blurOut" result="opacOut"><feFuncA xmlns="http://www.w3.org/2000/svg" type="table" tableValues="0 0.5"/></feComponentTransfer><feBlend xmlns="http://www.w3.org/2000/svg" in="SourceGraphic" in2="opacOut" mode="normal"/></filter></defs><g filter="url(#AlyzB8MYd4VjL0NSDFJnJKH2atow0Hjh)"><path d=" M 103.683 42 C 90.678 42 79.98 52.338 79.98 64.906 L 79.98 245 L 95.782 245 L 95.782 64.906 C 95.782 60.615 99.243 57.271 103.683 57.271 L 174.792 57.271 L 174.792 103.084 L 222.198 103.084 L 222.198 133.626 L 238 133.626 L 238 92.287 L 185.964 42 L 103.683 42 Z " fill="rgb(255,255,255)"/></g><g transform="matrix(1,0,0,1,118.312,179.5)"><text transform="matrix(1,0,0,1,7.5,70.422)" style="font-family:&quot;Open Sans&quot;;font-weight:400;font-size:60px;font-style:normal;letter-spacing:8;fill:#ffffff;stroke:#FFFFFF;stroke-width:5;">TXT</text></g></g></svg>