<?xml version="1.0" encoding="utf-8"?>
<!-- Generator: Adobe Illustrator 16.0.0, SVG Export Plug-In . SVG Version: 6.00 Build 0)  -->
<!DOCTYPE svg PUBLIC "-//W3C//DTD SVG 1.1//EN" "http://www.w3.org/Graphics/SVG/1.1/DTD/svg11.dtd">
<svg version="1.1" id="Calque_1" xmlns="http://www.w3.org/2000/svg" xmlns:xlink="http://www.w3.org/1999/xlink" x="0px" y="0px"
	 width="270px" height="300px" viewBox="0 0 270 300" enable-background="new 0 0 270 300" xml:space="preserve">
<g>
	<g>
		<path fill="#007DBA" d="M134.903,111.465c-2.188,0-4.287,0.404-6.231,1.135v146.606c-0.251,11.336-9.501,20.452-20.896,20.452
			c-11.503,0-20.825-9.282-20.911-20.764c0-0.054,0.016-0.103,0.016-0.156c0-3.343-2.707-6.049-6.05-6.049
			c-3.34,0-6.049,2.706-6.049,6.049c0,18.222,14.772,32.994,32.994,32.994c17.904,0,32.448-14.271,32.948-32.056
			c0.01-0.159,0.047-0.31,0.047-0.471V112.475C138.924,111.821,136.947,111.465,134.903,111.465z"/>
		<path fill="#007DBA" d="M134.903,19.906c1.958,0,3.916,0.041,5.867,0.117v-5.707c0-3.34-2.709-6.049-6.049-6.049
			c-3.34,0-6.049,2.709-6.049,6.049v5.731C130.745,19.959,132.82,19.906,134.903,19.906z"/>
	</g>
	<path fill="#FFCB05" d="M234.686,104.866c9.984,0,18.551,6.049,22.244,14.678c-9.035-52.677-60.223-93.039-122.027-93.039
		c-61.404,0-112.315,39.842-121.833,92.015c3.92-8.075,12.173-13.653,21.751-13.653c11.329,0,20.723,7.831,23.443,18.306
		c0.628,2.206,1.977,2.438,2.612,0.025c2.625-10.523,12.113-18.331,23.45-18.331c11.508,0,21.219,8.225,23.571,18.8
		c0.516,2.135,2.625,2.188,3.426,0.034c2.442-10.779,12.062-18.834,23.579-18.834c11.687,0,21.513,8.414,23.703,19.307
		c0.459,2.124,2.402,2.036,2.795,0.028c2.248-11.033,12.006-19.335,23.705-19.335c11.863,0,21.781,8.728,23.779,19.808
		c0.234,1.258,1.723,1.288,2.02,0.019C212.943,113.619,222.814,104.866,234.686,104.866z"/>
</g>
</svg>
