<?xml version="1.0" encoding="utf-8"?>
<!-- Generator: Adobe Illustrator 16.0.0, SVG Export Plug-In . SVG Version: 6.00 Build 0)  -->
<!DOCTYPE svg PUBLIC "-//W3C//DTD SVG 1.1//EN" "http://www.w3.org/Graphics/SVG/1.1/DTD/svg11.dtd">
<svg version="1.1" id="Calque_1" xmlns="http://www.w3.org/2000/svg" xmlns:xlink="http://www.w3.org/1999/xlink" x="0px" y="0px"
	 width="270px" height="300px" viewBox="0 0 270 300" enable-background="new 0 0 270 300" xml:space="preserve">
<g>
	<g>
		<path fill="#FBB040" d="M134.903,111.465c-2.188,0-4.287,0.403-6.231,1.134v146.607c-0.251,11.335-9.501,20.452-20.896,20.452
			c-11.503,0-20.826-9.282-20.912-20.764c0-0.054,0.016-0.104,0.016-0.156c0-3.343-2.707-6.049-6.049-6.049
			c-3.341,0-6.05,2.706-6.05,6.049c0,18.222,14.772,32.994,32.995,32.994c17.903,0,32.447-14.271,32.947-32.056
			c0.01-0.159,0.047-0.31,0.047-0.471V112.475C138.924,111.821,136.947,111.465,134.903,111.465z"/>
		<path fill="#FBB040" d="M134.903,19.906c1.96,0,3.916,0.04,5.867,0.117v-5.707c0-3.34-2.709-6.049-6.049-6.049
			c-3.34,0-6.049,2.709-6.049,6.049v5.731C130.745,19.959,132.82,19.906,134.903,19.906z"/>
	</g>
	<path fill="#00AEEF" d="M234.686,104.865c9.984,0,18.551,6.05,22.244,14.678c-9.033-52.676-60.223-93.038-122.027-93.038
		c-61.404,0-112.315,39.842-121.833,92.014c3.92-8.074,12.173-13.653,21.751-13.653c11.329,0,20.723,7.832,23.444,18.307
		c0.627,2.206,1.976,2.438,2.611,0.025c2.625-10.523,12.113-18.332,23.451-18.332c11.507,0,21.218,8.226,23.57,18.801
		c0.516,2.135,2.625,2.188,3.426,0.034c2.442-10.779,12.062-18.835,23.579-18.835c11.689,0,21.513,8.414,23.703,19.308
		c0.459,2.124,2.402,2.036,2.795,0.027c2.248-11.032,12.008-19.335,23.705-19.335c11.863,0,21.781,8.729,23.779,19.808
		c0.234,1.259,1.723,1.289,2.02,0.02C212.945,113.619,222.814,104.865,234.686,104.865z"/>
	<path fill="#FBB040" d="M134.903,26.505c-61.404,0-75.83,98.377-75.336,98.411c0.496,0.034,0.992-0.512,1.31-1.719
		c2.625-10.523,12.113-18.332,23.451-18.332c11.507,0,21.218,8.226,23.57,18.801c0.258,1.067,0.915,1.615,1.608,1.628
		C110.199,125.305,103.838,53.54,134.903,26.505z"/>
	<path fill="#FBB040" d="M134.903,26.505c61.406,0,75.568,99.072,75.074,99.109c-1.072,0.079-0.99-0.786-1.309-1.993
		c-2.625-10.523-11.852-18.71-23.189-18.756c-11.838-0.047-21.596,8.165-23.947,18.74c-0.258,1.067-0.623,2.075-1.316,2.088
		C159.521,125.704,165.969,53.54,134.903,26.505z"/>
</g>
</svg>
