<?xml version="1.0" encoding="utf-8"?>
<!-- Generator: Adobe Illustrator 16.0.0, SVG Export Plug-In . SVG Version: 6.00 Build 0)  -->
<!DOCTYPE svg PUBLIC "-//W3C//DTD SVG 1.1//EN" "http://www.w3.org/Graphics/SVG/1.1/DTD/svg11.dtd">
<svg version="1.1" id="Calque_1" xmlns="http://www.w3.org/2000/svg" xmlns:xlink="http://www.w3.org/1999/xlink" x="0px" y="0px"
	 width="300px" height="300px" viewBox="0 0 300 300" enable-background="new 0 0 300 300" xml:space="preserve">
<g>
	<g>
		<g>
			<rect x="125.016" y="156.945" width="60.556" height="30.375"/>
			<path d="M205.822,190.264c0-3.506-2.844-6.352-6.352-6.352H111.54c-3.509,0-6.352,2.846-6.352,6.352l0,0
				c0,3.508,2.843,6.354,6.352,6.354h87.931C202.978,196.618,205.822,193.771,205.822,190.264L205.822,190.264z"/>
			<path d="M271.38,156.945c0,3.136-2.541,5.679-5.678,5.679H44.573c-3.135,0-5.678-2.543-5.678-5.679V27.219
				c0-3.135,2.543-5.676,5.678-5.676h221.13c3.137,0,5.678,2.541,5.678,5.676L271.38,156.945L271.38,156.945z"/>
			<path d="M38.895,140.766V27.219c0-3.135,2.543-5.676,5.678-5.676h221.13c3.137,0,5.678,2.541,5.678,5.676v113.547H38.895z"/>
		</g>
		<rect x="45.501" y="28.354" fill="#FFFFFF" width="219.285" height="107.586"/>
	</g>
</g>
</svg>
