<?xml version="1.0" encoding="utf-8"?>
<!-- Generator: Adobe Illustrator 16.0.0, SVG Export Plug-In . SVG Version: 6.00 Build 0)  -->
<!DOCTYPE svg PUBLIC "-//W3C//DTD SVG 1.1//EN" "http://www.w3.org/Graphics/SVG/1.1/DTD/svg11.dtd">
<svg version="1.1" id="Calque_1" xmlns="http://www.w3.org/2000/svg" xmlns:xlink="http://www.w3.org/1999/xlink" x="0px" y="0px"
	 width="300px" height="300px" viewBox="0 0 300 300" enable-background="new 0 0 300 300" xml:space="preserve">
<g id="Calque_1_1_">
	<g>
		<g>
			<g>
				<rect x="125.016" y="156.945" fill="#D8098B" width="60.556" height="30.375"/>
				<path fill="#D8098B" d="M205.822,190.264c0-3.506-2.844-6.352-6.352-6.352H111.54c-3.509,0-6.352,2.846-6.352,6.352l0,0
					c0,3.508,2.843,6.354,6.352,6.354h87.932C202.978,196.618,205.822,193.771,205.822,190.264L205.822,190.264z"/>
				<path fill="#D8098B" d="M271.38,156.945c0,3.136-2.541,5.679-5.678,5.679H44.573c-3.135,0-5.678-2.543-5.678-5.679V27.219
					c0-3.135,2.543-5.676,5.678-5.676h221.13c3.137,0,5.678,2.541,5.678,5.676L271.38,156.945L271.38,156.945z"/>
				<path fill="#D8098B" d="M38.895,140.766V27.219c0-3.135,2.543-5.676,5.678-5.676h221.13c3.137,0,5.678,2.541,5.678,5.676
					v113.547H38.895z"/>
			</g>
			<rect x="45.501" y="28.354" fill="#FFFFFF" width="219.285" height="107.586"/>
		</g>
	</g>
</g>
<g id="Calque_2">
	<path fill="#FFFFFF" stroke="#38B349" stroke-width="4" stroke-miterlimit="10" d="M256.834,122.901
		c0,3.276-2.671,5.932-5.967,5.932H61.133c-3.295,0-5.966-2.656-5.966-5.932V41.432c0-3.276,2.671-5.932,5.966-5.932h189.734
		c3.296,0,5.967,2.656,5.967,5.932V122.901L256.834,122.901z"/>
	
		<rect x="67.167" y="55.167" fill="#FFFFFF" stroke="#38B349" stroke-width="4" stroke-miterlimit="10" width="82.833" height="2.667"/>
	
		<rect x="67.167" y="65.167" fill="#FFFFFF" stroke="#38B349" stroke-width="4" stroke-miterlimit="10" width="82.833" height="2.667"/>
	
		<rect x="67.167" y="75.5" fill="#FFFFFF" stroke="#38B349" stroke-width="4" stroke-miterlimit="10" width="82.833" height="2.667"/>
	
		<rect x="67.167" y="85.5" fill="#FFFFFF" stroke="#38B349" stroke-width="4" stroke-miterlimit="10" width="82.833" height="2.667"/>
	
		<rect x="67.167" y="95.833" fill="#FFFFFF" stroke="#38B349" stroke-width="4" stroke-miterlimit="10" width="82.833" height="2.667"/>
	
		<rect x="67.167" y="106.333" fill="#FFFFFF" stroke="#38B349" stroke-width="4" stroke-miterlimit="10" width="82.833" height="2.667"/>
	
		<rect x="67.167" y="116.583" fill="#FFFFFF" stroke="#38B349" stroke-width="4" stroke-miterlimit="10" width="82.833" height="2.667"/>
	<circle fill="#FFFFFF" stroke="#38B349" stroke-width="4" stroke-miterlimit="10" cx="207.713" cy="82.147" r="32"/>
</g>
</svg>
