<?xml version="1.0" encoding="utf-8"?>
<!-- Generator: Adobe Illustrator 16.0.0, SVG Export Plug-In . SVG Version: 6.00 Build 0)  -->
<!DOCTYPE svg PUBLIC "-//W3C//DTD SVG 1.1//EN" "http://www.w3.org/Graphics/SVG/1.1/DTD/svg11.dtd">
<svg version="1.1" id="Calque_1" xmlns="http://www.w3.org/2000/svg" xmlns:xlink="http://www.w3.org/1999/xlink" x="0px" y="0px"
	 width="300px" height="300px" viewBox="0 0 300 300" enable-background="new 0 0 300 300" xml:space="preserve">
<g id="Calque_2">
</g>
<g id="Calque_4">
	<rect x="13.312" y="36.877" fill="#FFFFFF" stroke="#0A4D9B" stroke-miterlimit="10" width="277.021" height="162.623"/>
</g>
<g id="Calque_3">
	<path fill="none" stroke="#90278E" stroke-width="15" stroke-miterlimit="10" d="M290.334,191.553
		c0,6.838-5.438,12.381-12.145,12.381H21.811c-6.707,0-12.146-5.543-12.146-12.381V45.715c0-6.838,5.438-12.382,12.146-12.382
		h256.378c6.707,0,12.145,5.544,12.145,12.382V191.553L290.334,191.553z"/>
	<path fill="#90278E" d="M183.219,233.385v-13.109h-33.221h-0.172h-33.219v13.109c-16.389,0-16.799,14.747-16.799,14.747h16.799
		h33.219H150h33.221h16.799C200.018,248.132,199.607,233.385,183.219,233.385z"/>
	<path fill="#90278E" d="M9.667,166.874v36.028h280.667v-36.028H9.667z M150,195.639c-6.454,0-11.688-5.229-11.688-11.688
		c0-6.454,5.232-11.688,11.688-11.688s11.688,5.23,11.688,11.688C161.688,190.406,156.456,195.639,150,195.639z"/>
</g>
</svg>
