<?xml version="1.0" encoding="utf-8"?>
<!-- Generator: Adobe Illustrator 16.0.0, SVG Export Plug-In . SVG Version: 6.00 Build 0)  -->
<!DOCTYPE svg PUBLIC "-//W3C//DTD SVG 1.1//EN" "http://www.w3.org/Graphics/SVG/1.1/DTD/svg11.dtd">
<svg version="1.1" id="Calque_1" xmlns="http://www.w3.org/2000/svg" xmlns:xlink="http://www.w3.org/1999/xlink" x="0px" y="0px"
	 width="257.5px" height="300px" viewBox="0 0 257.5 300" enable-background="new 0 0 257.5 300" xml:space="preserve">
<g>
	<path fill="#FAA61A" d="M135.068,18.619c0-5.229-13.027-5.229-13.027,0l0.195,244.701c0,0-33.73,12.135-33.73,18.945
		c0,6.803,4.232,9.467,9.467,9.467h61.549c5.24,0,9.473-2.664,9.473-9.467c0-6.811-33.73-19.096-33.73-19.096L135.068,18.619z"/>
	<path fill="#FAA61A" d="M88.336,133.549L52.535,12.096c-0.416-2.154-2.207-3.814-4.486-3.814c-1.465,0-2.707,0.703-3.561,1.764
		c-0.416,0.396-0.775,0.879-0.943,1.479L7.795,133.561c-0.533,1.883,0.535,3.861,2.416,4.408c1.881,0.561,3.861-0.533,4.408-2.396
		L47.965,21.691L81.5,135.572c0.561,1.875,2.539,2.957,4.422,2.396C87.803,137.408,88.877,135.43,88.336,133.549z"/>
	<path fill="#FAA61A" d="M249.697,133.549L213.91,12.096c-0.418-2.154-2.221-3.814-4.492-3.814c-1.459,0-2.715,0.703-3.568,1.764
		c-0.41,0.396-0.762,0.879-0.932,1.479L169.17,133.561c-0.547,1.883,0.521,3.861,2.402,4.408c1.895,0.561,3.867-0.533,4.42-2.396
		l33.34-113.881l33.543,113.881c0.553,1.875,2.533,2.957,4.42,2.396C249.17,137.408,250.244,135.43,249.697,133.549z"/>
	<path fill="#FAA61A" d="M214.092,14.973c0,3.705-3.008,6.719-6.719,6.719H49.611c-3.711,0-6.711-3.014-6.711-6.719l0,0
		c0-3.711,3-6.705,6.711-6.705h157.762C211.084,8.268,214.092,11.262,214.092,14.973L214.092,14.973z"/>
	<path fill="#D11A6F" d="M88.506,134.818c-6.791,3.488-18.111,6.965-40.443,6.965c-22.324,0-33.561-3.326-40.436-6.965
		c0,11.197,18.111,20.266,40.436,20.266C70.395,155.084,88.506,146.016,88.506,134.818z"/>
	<path fill="#D11A6F" d="M168.994,134.818c6.791,3.488,18.105,6.965,40.436,6.965c22.338,0,33.576-3.326,40.443-6.965
		c0,11.197-18.105,20.266-40.443,20.266C187.1,155.084,168.994,146.016,168.994,134.818z"/>
</g>
</svg>
