<?xml version="1.0" encoding="utf-8"?>
<!-- Generator: Adobe Illustrator 16.0.0, SVG Export Plug-In . SVG Version: 6.00 Build 0)  -->
<!DOCTYPE svg PUBLIC "-//W3C//DTD SVG 1.1//EN" "http://www.w3.org/Graphics/SVG/1.1/DTD/svg11.dtd">
<svg version="1.1" id="Calque_1" xmlns="http://www.w3.org/2000/svg" xmlns:xlink="http://www.w3.org/1999/xlink" x="0px" y="0px"
	 width="299.99px" height="299.99px" viewBox="0.005 0.005 299.99 299.99" enable-background="new 0.005 0.005 299.99 299.99"
	 xml:space="preserve">
<g>
	<g>
		<path fill="#F9A51A" d="M178.345,45.387c0-16.047-13.012-29.055-29.055-29.055c-16.047,0-29.055,13.008-29.055,29.055
			s13.008,29.055,29.055,29.055C165.334,74.441,178.345,61.434,178.345,45.387z"/>
		<path fill="#F9A51A" d="M250.982,85.072h-67.676h-3.898h-8.68c0.336,2.469,0.531,5.032,0.531,7.673
			c0,15.389-6.012,28.411-14.297,32.79l-1.531-31.491l3.781-8.972h-17.957l3.781,8.972l-1.492,30.785
			c-7.68-4.941-13.148-17.424-13.148-32.084c0-2.641,0.191-5.204,0.523-7.673h-10.684h-3.543H48.66
			c-7.436,0-13.465,6.028-13.465,13.464s6.029,13.465,13.465,13.465h68.033v86.628v1.482v70.094c0,7.436,6.027,13.463,13.465,13.463
			c7.434,0,13.465-6.027,13.465-13.463v-62.416c0-3.521,2.855-6.377,6.375-6.377c3.523,0,6.379,2.855,6.379,6.377v62.416
			c0,7.436,6.031,13.463,13.465,13.463s13.465-6.027,13.465-13.463v-70.094v-1.482v-86.628h67.676
			c7.438,0,13.465-6.029,13.465-13.465S258.42,85.072,250.982,85.072z"/>
	</g>
	<g>
		<path fill="#D01A6F" d="M8.472,198.689c-0.129,0.895-0.205,1.801-0.205,2.717c0,15.721,19.09,28.465,42.641,28.465
			c23.547,0,42.637-12.744,42.637-28.465c0-0.916-0.078-1.822-0.205-2.717H8.472z"/>
		<path fill="#D01A6F" d="M86.586,178.152l-30.584-52.72c-0.045-0.081-0.133-0.124-0.178-0.202c-0.242-0.379-0.564-0.689-0.896-1.01
			c-0.254-0.246-0.486-0.496-0.775-0.689c-0.1-0.07-0.166-0.178-0.277-0.241c-0.232-0.138-0.498-0.149-0.74-0.252
			c-0.365-0.151-0.721-0.299-1.107-0.376c-0.377-0.072-0.742-0.075-1.119-0.075s-0.742,0.003-1.119,0.075
			c-0.398,0.077-0.74,0.225-1.105,0.376c-0.256,0.1-0.51,0.114-0.754,0.252c-0.111,0.063-0.166,0.171-0.266,0.241
			c-0.287,0.193-0.52,0.443-0.775,0.689c-0.332,0.318-0.652,0.631-0.896,1.01c-0.055,0.078-0.133,0.121-0.178,0.202l-30.594,52.72
			c-1.627,2.822-0.664,6.432,2.158,8.07c2.813,1.633,6.424,0.678,8.063-2.146l25.467-43.9l25.457,43.9
			c1.639,2.824,5.26,3.779,8.072,2.146C87.26,184.584,88.224,180.975,86.586,178.152z"/>
	</g>
	<g>
		<path fill="#D01A6F" d="M206.658,198.689c-0.125,0.895-0.203,1.801-0.203,2.717c0,15.721,19.09,28.465,42.641,28.465
			c23.547,0,42.637-12.744,42.637-28.465c0-0.916-0.078-1.822-0.207-2.717H206.658z"/>
		<path fill="#D01A6F" d="M284.771,178.152l-30.582-52.72c-0.043-0.081-0.133-0.124-0.176-0.202
			c-0.246-0.379-0.566-0.689-0.898-1.01c-0.254-0.246-0.488-0.496-0.773-0.689c-0.102-0.07-0.168-0.178-0.277-0.241
			c-0.234-0.138-0.5-0.149-0.742-0.252c-0.367-0.151-0.723-0.299-1.109-0.376c-0.375-0.072-0.742-0.075-1.117-0.075
			s-0.742,0.003-1.117,0.075c-0.398,0.077-0.742,0.225-1.109,0.376c-0.254,0.1-0.508,0.114-0.754,0.252
			c-0.109,0.063-0.164,0.171-0.266,0.241c-0.285,0.193-0.52,0.443-0.773,0.689c-0.332,0.318-0.652,0.631-0.898,1.01
			c-0.055,0.078-0.133,0.121-0.176,0.202l-30.594,52.72c-1.629,2.822-0.664,6.432,2.16,8.07c2.813,1.633,6.422,0.678,8.059-2.146
			l25.469-43.9l25.457,43.9c1.637,2.824,5.258,3.779,8.07,2.146C285.447,184.584,286.412,180.975,284.771,178.152z"/>
	</g>
</g>
</svg>
