<?xml version="1.0" encoding="utf-8"?>
<!-- Generator: Adobe Illustrator 16.0.0, SVG Export Plug-In . SVG Version: 6.00 Build 0)  -->
<!DOCTYPE svg PUBLIC "-//W3C//DTD SVG 1.1//EN" "http://www.w3.org/Graphics/SVG/1.1/DTD/svg11.dtd">
<svg version="1.1" id="Calque_1" xmlns="http://www.w3.org/2000/svg" xmlns:xlink="http://www.w3.org/1999/xlink" x="0px" y="0px"
	 width="300px" height="258.5px" viewBox="0 0 300 258.5" enable-background="new 0 0 300 258.5" xml:space="preserve">
<path fill="#0A4E9B" d="M291.642,126.239l-0.004-0.003c0.058-0.506,0.095-1.02,0.095-1.543c0-7.417-6.014-13.431-13.432-13.431
	c-3.116,0-5.977,1.07-8.255,2.851l-0.012-0.006l-49.378,34.338v-0.666c0-10.749-4.704-20.396-12.159-27.009
	c18.119-10.952,30.234-30.839,30.234-53.558c0-34.54-28-62.541-62.541-62.541c-34.543,0-62.544,28.001-62.544,62.541
	c0,17.397,7.108,33.132,18.576,44.47H99.751c8.691-9.363,14.012-21.897,14.012-35.678c0-28.978-23.49-52.468-52.468-52.468
	c-28.977,0-52.468,23.49-52.468,52.468c0,16.009,7.179,30.332,18.482,39.956c-11.333,6.088-19.042,18.052-19.042,31.818v68.838
	c0,19.936,16.161,36.098,36.098,36.098h140.193c19.628,0,35.585-15.668,36.074-35.178l49.974,33.859
	c0.121,0.086,0.244,0.169,0.369,0.25l0.249,0.169l0.015-0.009c2.053,1.273,4.467,2.021,7.062,2.021
	c7.418,0,13.432-6.014,13.432-13.432c0-0.721-0.073-1.422-0.183-2.111l0.183-0.122L291.642,126.239z"/>
</svg>
