<?xml version="1.0" encoding="utf-8"?>
<!-- Generator: Adobe Illustrator 16.0.0, SVG Export Plug-In . SVG Version: 6.00 Build 0)  -->
<!DOCTYPE svg PUBLIC "-//W3C//DTD SVG 1.1//EN" "http://www.w3.org/Graphics/SVG/1.1/DTD/svg11.dtd">
<svg version="1.1" id="Calque_1" xmlns="http://www.w3.org/2000/svg" xmlns:xlink="http://www.w3.org/1999/xlink" x="0px" y="0px"
	 width="300px" height="300px" viewBox="0 0 300 300" enable-background="new 0 0 300 300" xml:space="preserve">
<g>
	<path fill-rule="evenodd" clip-rule="evenodd" fill="#FAA61A" d="M285.164,277.732c0,7.732-6.269,14-14,14H28.836
		c-7.732,0-14-6.268-14-14V22.268c0-7.731,6.268-14,14-14h242.328c7.731,0,14,6.269,14,14V277.732z"/>
	<path fill-rule="evenodd" clip-rule="evenodd" fill="#D11A6F" d="M79.528,8.268v77.725c0,4.418,3.582,8,8,8h114.492
		c4.418,0,8-3.582,8-8V8.268H79.528z M168.493,23.816h22.677v55.851h-22.677V23.816z"/>
	<path fill-rule="evenodd" clip-rule="evenodd" fill="#FFFFFF" d="M268.868,135c0-1.657-1.344-3-3-3H34.132c-1.657,0-3,1.343-3,3
		v137.667c0,1.656,1.343,3,3,3h231.736c1.656,0,3-1.344,3-3V135z"/>
	<g>
		<path fill-rule="evenodd" clip-rule="evenodd" fill="#D11A6F" d="M254.893,161.479c0,2.209-1.791,4-4,4H47.361
			c-2.209,0-4-1.791-4-4v-3c0-2.209,1.791-4,4-4h203.531c2.209,0,4,1.791,4,4V161.479z"/>
		<path fill-rule="evenodd" clip-rule="evenodd" fill="#D11A6F" d="M254.893,201.479c0,2.209-1.791,4-4,4H47.361
			c-2.209,0-4-1.791-4-4v-3c0-2.209,1.791-4,4-4h203.531c2.209,0,4,1.791,4,4V201.479z"/>
		<path fill-rule="evenodd" clip-rule="evenodd" fill="#D11A6F" d="M254.893,241.479c0,2.209-1.791,4-4,4H47.361
			c-2.209,0-4-1.791-4-4v-3c0-2.209,1.791-4,4-4h203.531c2.209,0,4,1.791,4,4V241.479z"/>
	</g>
</g>
</svg>
