<?xml version="1.0" encoding="utf-8"?>
<!-- Generator: Adobe Illustrator 16.0.0, SVG Export Plug-In . SVG Version: 6.00 Build 0)  -->
<!DOCTYPE svg PUBLIC "-//W3C//DTD SVG 1.1//EN" "http://www.w3.org/Graphics/SVG/1.1/DTD/svg11.dtd">
<svg version="1.1" id="Calque_1" xmlns="http://www.w3.org/2000/svg" xmlns:xlink="http://www.w3.org/1999/xlink" x="0px" y="0px"
	 width="120.946px" height="300px" viewBox="0 0 120.946 300" enable-background="new 0 0 120.946 300" xml:space="preserve">
<path fill-rule="evenodd" clip-rule="evenodd" fill="#FAA61A" d="M81.596,218.794c8.639-5.67,38.026-21.086,30.607-50.311
	c-8.415-33.115-43.74-23.88-43.74-23.88l-6.039-35.816c-0.21-1.229-0.879-0.781,5.742-7.289c3.031-2.978,9.025-8.077,14.461-13.813
	c21.203-22.425,18.34-64.205,9.252-76.103C82.786-0.37,59.235,22.146,54.657,44.878c-4.568,22.786-1.059,49.838-1.059,49.838
	s-20.804,22.88-32.687,39.701c-11.876,16.816-18.596,47.646-4.315,66.46c12.492,16.457,30.477,19.295,44.428,20.963
	c4.259,0.502,11.166-1.178,12.865,1.553c9.257,14.836,4.313,69.982-30.292,54.824c-12.132-5.295-5.294-19.041-5.294-19.041
	c4.432,9.158,25.083,3.068,15.518-13.328c-8.332-14.303-27.235-1.57-28.662,13.723c-2.902,31.023,32.046,40.545,47.686,24.432
	c15.65-16.113,11.376-47.246,8.52-59.213C81.032,223.37,80.243,219.659,81.596,218.794z M68.831,30.263
	c7.167-8.331,13.688-3.354,16.808,5.648c2.716,7.874,3.622,22.569-28.055,55.303C57.583,91.214,54.565,46.982,68.831,30.263z
	 M43.958,214.204c-60.428-24.211-6.043-78.323,14.37-103.01l4.854,34.716c0,0-29.607,12.458-24.171,35.345
	c5.436,22.881,31.272,17.195,31.272,17.195s-28.197-3.855-21.307-22.965c3.367-9.408,12.151-15.424,21.46-17.143l-4.363,1.119
	l6.602,57.564C64.846,219.175,55.3,218.765,43.958,214.204z M78.95,214.542l-8.514-56.199c9.639-1.777,19.808,1.109,25.181,9.689
	C102.801,179.45,97.352,204.937,78.95,214.542z"/>
</svg>
