<?xml version="1.0" encoding="utf-8"?>
<!-- Generator: Adobe Illustrator 16.0.0, SVG Export Plug-In . SVG Version: 6.00 Build 0)  -->
<!DOCTYPE svg PUBLIC "-//W3C//DTD SVG 1.1//EN" "http://www.w3.org/Graphics/SVG/1.1/DTD/svg11.dtd">
<svg version="1.1" id="Calque_1" xmlns="http://www.w3.org/2000/svg" xmlns:xlink="http://www.w3.org/1999/xlink" x="0px" y="0px"
	 width="120.946px" height="300px" viewBox="0 0 120.946 300" enable-background="new 0 0 120.946 300" xml:space="preserve">
<path fill-rule="evenodd" clip-rule="evenodd" fill="#ED1C24" d="M81.11,218.794c8.639-5.67,38.027-21.086,30.607-50.311
	c-8.414-33.115-43.74-23.88-43.74-23.88l-6.04-35.816c-0.209-1.229-0.879-0.781,5.743-7.289c3.031-2.978,9.025-8.077,14.461-13.813
	c21.203-22.425,18.34-64.205,9.252-76.103C82.299-0.37,58.748,22.146,54.17,44.878c-4.568,22.786-1.059,49.838-1.059,49.838
	s-20.803,22.88-32.686,39.701c-11.876,16.816-18.596,47.646-4.315,66.46c12.492,16.457,30.477,19.295,44.427,20.963
	c4.26,0.502,11.167-1.178,12.866,1.553c9.258,14.836,4.313,69.982-30.292,54.824c-12.132-5.295-5.294-19.041-5.294-19.041
	c4.432,9.158,25.084,3.068,15.517-13.328c-8.332-14.303-27.235-1.57-28.662,13.723c-2.902,31.023,32.046,40.545,47.688,24.432
	c15.65-16.113,11.375-47.246,8.52-59.213C80.545,223.37,79.756,219.659,81.11,218.794z M68.344,30.263
	c7.168-8.331,13.688-3.354,16.809,5.648c2.715,7.874,3.621,22.569-28.057,55.303C57.096,91.214,54.078,46.982,68.344,30.263z
	 M43.471,214.204c-60.428-24.211-6.043-78.323,14.371-103.01l4.854,34.716c0,0-29.607,12.458-24.172,35.345
	c5.436,22.881,31.273,17.195,31.273,17.195s-28.198-3.855-21.309-22.965c3.367-9.408,12.152-15.424,21.461-17.143l-4.363,1.119
	l6.602,57.564C64.36,219.175,54.813,218.765,43.471,214.204z M78.463,214.542l-8.514-56.199c9.639-1.777,19.809,1.109,25.182,9.689
	C102.315,179.45,96.866,204.937,78.463,214.542z"/>
</svg>
