<?xml version="1.0" encoding="utf-8"?>
<!-- Generator: Adobe Illustrator 16.0.0, SVG Export Plug-In . SVG Version: 6.00 Build 0)  -->
<!DOCTYPE svg PUBLIC "-//W3C//DTD SVG 1.1//EN" "http://www.w3.org/Graphics/SVG/1.1/DTD/svg11.dtd">
<svg version="1.1" id="Calque_1" xmlns="http://www.w3.org/2000/svg" xmlns:xlink="http://www.w3.org/1999/xlink" x="0px" y="0px"
	 width="192.906px" height="300px" viewBox="0 0 192.906 300" enable-background="new 0 0 192.906 300" xml:space="preserve">
<path fill="#0A4E9B" d="M7.217,52.347l0.485,13.442l0.635,119.573c0,0.061-0.013,0.117-0.013,0.117l0.602,67.566
	c-3.877,11.715,9.763,27.195,30.684,34.668c21.109,7.557,41.617,4.145,45.828-7.611c4.204-11.746-9.465-27.355-30.578-34.906
	c-15.045-5.4-29.845-5.234-38.571-0.41L15.497,97.071l91.864-39.095l0.461,83.026c-0.014,0.055-0.014,0.115-0.014,0.115
	l0.588,67.576c-3.869,11.715,9.758,27.188,30.701,34.658c21.094,7.557,41.607,4.145,45.84-7.572
	c4.182-11.779-9.49-27.389-30.6-34.936c-15.047-5.41-29.801-5.26-38.576-0.42l-0.877-168.059l-0.07-11.844l0,0l-0.08-12.255
	L7.217,52.347z M15.322,62.601l91.894-38.858l0.074,21.912L15.439,83.836l-0.03-7.112L15.322,62.601z"/>
</svg>
