<?xml version="1.0" encoding="utf-8"?>
<!-- Generator: Adobe Illustrator 16.0.0, SVG Export Plug-In . SVG Version: 6.00 Build 0)  -->
<!DOCTYPE svg PUBLIC "-//W3C//DTD SVG 1.1//EN" "http://www.w3.org/Graphics/SVG/1.1/DTD/svg11.dtd">
<svg version="1.1" id="Calque_1" xmlns="http://www.w3.org/2000/svg" xmlns:xlink="http://www.w3.org/1999/xlink" x="0px" y="0px"
	 width="166.216px" height="300px" viewBox="0 0 166.216 300" enable-background="new 0 0 166.216 300" xml:space="preserve">
<path fill="#FAA61A" d="M145.391,81.016c-22.029-16.325-26.287-15.393-38.963-39.841C99.779,28.334,93.674,13.194,90.867,8.268
	l-2.227,0.429l0.051,28.892l-0.195,198.776c-10.2-5.724-27.336-5.992-44.825,0.307c-24.524,8.885-40.357,27.335-35.372,41.244
	c4.919,13.913,28.823,17.994,53.315,9.134c24.315-8.801,40.098-27.008,35.534-40.84l0.807-192.363c0,0,11.186,21.867,34.865,32.6
	c25.549,11.512,23.508,52.884,23.508,52.884S166.65,96.789,145.391,81.016z"/>
</svg>
