<?xml version="1.0" encoding="utf-8"?>
<!-- Generator: Adobe Illustrator 16.0.0, SVG Export Plug-In . SVG Version: 6.00 Build 0)  -->
<!DOCTYPE svg PUBLIC "-//W3C//DTD SVG 1.1//EN" "http://www.w3.org/Graphics/SVG/1.1/DTD/svg11.dtd">
<svg version="1.1" xmlns="http://www.w3.org/2000/svg" xmlns:xlink="http://www.w3.org/1999/xlink" x="0px" y="0px"
	 width="299.99px" height="299.991px" viewBox="0 0 299.99 299.991" enable-background="new 0 0 299.99 299.991"
	 xml:space="preserve">
<g id="Calque_2">
	<path fill="#FFFFFF" d="M281.788,266.555c0,8.386-6.798,15.184-15.185,15.184H36.546c-8.386,0-15.184-6.798-15.184-15.184V33.394
		c0-8.386,6.798-15.184,15.184-15.184h230.058c8.387,0,15.185,6.798,15.185,15.184V266.555z"/>
</g>
<g id="Calque_1">
	<g>
		<path fill="#D11A6F" d="M256.062,291.728H43.929c-18.543,0-33.622-15.086-33.622-33.619V41.88
			c0-18.537,15.079-33.617,33.622-33.617h212.132c18.543,0,33.621,15.08,33.621,33.617v216.229
			C289.683,276.642,274.604,291.728,256.062,291.728z M43.929,21.444c-11.27,0-20.441,9.167-20.441,20.436v216.229
			c0,11.275,9.172,20.439,20.441,20.439h212.132c11.277,0,20.441-9.164,20.441-20.439V41.88c0-11.269-9.164-20.436-20.441-20.436
			H43.929z"/>
		<polygon fill="#FAA61A" points="186.323,59.476 113.561,59.476 113.561,111.991 61.035,111.991 61.035,184.689 113.01,184.689 
			113.01,237.275 186.249,237.275 186.249,184.689 238.765,184.689 238.765,111.991 186.452,111.991 		"/>
	</g>
</g>
</svg>
