<?xml version="1.0" encoding="utf-8"?>
<!-- Generator: Adobe Illustrator 16.0.0, SVG Export Plug-In . SVG Version: 6.00 Build 0)  -->
<!DOCTYPE svg PUBLIC "-//W3C//DTD SVG 1.1//EN" "http://www.w3.org/Graphics/SVG/1.1/DTD/svg11.dtd">
<svg version="1.1" id="Calque_1" xmlns="http://www.w3.org/2000/svg" xmlns:xlink="http://www.w3.org/1999/xlink" x="0px" y="0px"
	 width="300px" height="300px" viewBox="0 0 300 300" enable-background="new 0 0 300 300" xml:space="preserve">
<g>
	<g>
		<linearGradient id="SVGID_1_" gradientUnits="userSpaceOnUse" x1="76.5015" y1="203.0371" x2="142.6945" y2="238.5546">
			<stop  offset="0.005" style="stop-color:#999B9E"/>
			<stop  offset="0.0874" style="stop-color:#818385"/>
			<stop  offset="0.1881" style="stop-color:#696A6D"/>
			<stop  offset="0.2979" style="stop-color:#535456"/>
			<stop  offset="0.4184" style="stop-color:#404042"/>
			<stop  offset="0.5549" style="stop-color:#242425"/>
			<stop  offset="0.7209" style="stop-color:#0A0A0B"/>
			<stop  offset="1" style="stop-color:#000000"/>
		</linearGradient>
		<polygon fill="url(#SVGID_1_)" points="86.247,190.789 98.558,187.561 110.666,187.561 122.371,189.174 136.296,193.211 
			147.395,201.486 152.844,208.348 152.844,218.033 149.413,229.738 142.955,243.057 135.69,250.928 123.985,256.781 
			109.657,258.193 98.558,256.781 89.274,250.525 79.386,238.416 74.139,225.904 74.139,214.199 77.166,199.467 		"/>
		<linearGradient id="SVGID_2_" gradientUnits="userSpaceOnUse" x1="177.9639" y1="203.8613" x2="244.1568" y2="233.7287">
			<stop  offset="0.005" style="stop-color:#999B9E"/>
			<stop  offset="0.0874" style="stop-color:#818385"/>
			<stop  offset="0.1881" style="stop-color:#696A6D"/>
			<stop  offset="0.2979" style="stop-color:#535456"/>
			<stop  offset="0.4184" style="stop-color:#404042"/>
			<stop  offset="0.5549" style="stop-color:#242425"/>
			<stop  offset="0.7209" style="stop-color:#0A0A0B"/>
			<stop  offset="1" style="stop-color:#000000"/>
		</linearGradient>
		<polygon fill="url(#SVGID_2_)" points="172.621,205.117 186.143,192.807 206.727,185.945 226.908,185.945 243.254,192 
			249.106,202.092 249.106,218.234 245.878,234.582 235.384,248.709 220.854,255.975 201.883,255.975 184.729,247.498 
			175.85,233.572 170.805,217.832 		"/>
		<path fill="#7B0E4C" d="M253.849,206.23c-2.809-8.436-6.458-24.521-33.097-23.512c-32.088-0.504-48.535,17.658-50.452,20.182
			s-5.348,4.238-9.485,4.137c-4.137-0.102-7.063-2.221-10.191-5.953c-21.693-21.189-50.351-16.346-62.257-14.832
			c-11.906,1.512-17.003,17.639-19.071,23.207c-0.835,2.248,0,10.797,0.404,15.135c0.403,4.338,5.75,13.219,8.072,17.154
			c2.32,3.936,7.466,18.465,34.307,18.668c26.84,0.201,35.72-18.971,39.555-27.244c3.834-8.275,4.439-16.447,10.338-16.447
			c5.899,0,2.779,1.211,12.971,20.078c10.192,18.869,21.189,21.594,34.206,21.998s27.547-3.633,33.097-12.311
			c5.551-8.678,10.394-19.574,11.604-23.006C255.06,220.055,254.756,208.955,253.849,206.23z M141.215,241.629
			c-5.582,9.555-16.918,15.633-30.447,14.953c-23.714-1.195-33.602-21.393-33.904-38.445s5.146-29.061,30.372-28.656
			c13.927,0.223,38.948,3.484,42.783,23.51C151.429,220.355,146.815,232.041,141.215,241.629z M240.832,237.006
			c-4.801,8.992-11.877,16.719-25.087,17.982c-8.843,0.846-19.392-0.326-28.291-8.195c-8.4-7.426-15.136-23.74-14.228-32.895
			c2.014-20.289,27.948-25.004,41.834-26.1c25.15-1.986,31.342,9.654,32.11,26.693C247.51,222.008,244.623,229.91,240.832,237.006z"
			/>
	</g>
	<g>
		<linearGradient id="SVGID_3_" gradientUnits="userSpaceOnUse" x1="64.9082" y1="77.2764" x2="223.3896" y2="77.2764">
			<stop  offset="0.005" style="stop-color:#425C90"/>
			<stop  offset="0.0629" style="stop-color:#395080"/>
			<stop  offset="0.1613" style="stop-color:#2C3F68"/>
			<stop  offset="0.2663" style="stop-color:#1F2F54"/>
			<stop  offset="0.3772" style="stop-color:#112041"/>
			<stop  offset="0.4961" style="stop-color:#020E30"/>
			<stop  offset="0.6268" style="stop-color:#01051C"/>
			<stop  offset="0.7785" style="stop-color:#000007"/>
			<stop  offset="1" style="stop-color:#000000"/>
		</linearGradient>
		<path fill="url(#SVGID_3_)" d="M67.704,126.191c-1.404-12.737-8.939-40.147,8.723-64.324c8.693-11.9,24.635-27.041,48.188-31.399
			c67.16-12.429,92.018,32.854,98.775,65.342c-19.258,7.71-33.795,12.938-75.951,20.496
			C102.517,124.361,85.802,126.191,67.704,126.191z"/>
		<linearGradient id="SVGID_4_" gradientUnits="userSpaceOnUse" x1="0.0049" y1="158.4902" x2="299.9951" y2="158.4902">
			<stop  offset="0.005" style="stop-color:#425C90"/>
			<stop  offset="0.0629" style="stop-color:#395080"/>
			<stop  offset="0.1613" style="stop-color:#2C3F68"/>
			<stop  offset="0.2663" style="stop-color:#1F2F54"/>
			<stop  offset="0.3772" style="stop-color:#112041"/>
			<stop  offset="0.4961" style="stop-color:#020E30"/>
			<stop  offset="0.6268" style="stop-color:#01051C"/>
			<stop  offset="0.7785" style="stop-color:#000007"/>
			<stop  offset="1" style="stop-color:#000000"/>
		</linearGradient>
		<path fill="url(#SVGID_4_)" d="M68.577,141.017c14.572,1.501,66.287-4.578,86.346-9.812c20.063-5.233,62.145-10.467,71.957-22.459
			c4.359,3.707,55.82,3.625,68.467,16.204c12.646,12.578-3.488,40.489-13.084,39.18c-9.592-1.309-64.977-9.158-90.707-4.143
			c-25.729,5.016-69.775,23.332-98.34,35.76c-28.564,12.43-55.166,17.662-75.008,5.887c-19.842-11.773-21.15-19.188-14.828-22.023
			C9.704,176.777,36.741,163.912,68.577,141.017z"/>
	</g>
</g>
</svg>
