<?xml version="1.0" encoding="utf-8"?>
<!-- Generator: Adobe Illustrator 16.0.0, SVG Export Plug-In . SVG Version: 6.00 Build 0)  -->
<!DOCTYPE svg PUBLIC "-//W3C//DTD SVG 1.1//EN" "http://www.w3.org/Graphics/SVG/1.1/DTD/svg11.dtd">
<svg version="1.1" id="Calque_1" xmlns="http://www.w3.org/2000/svg" xmlns:xlink="http://www.w3.org/1999/xlink" x="0px" y="0px"
	 width="300px" height="300px" viewBox="0 0 300 300" enable-background="new 0 0 300 300" xml:space="preserve">
<g>
	<g>
		<path d="M205.929,253.949c0,22.219-10.238,48.51-22.217,45.865c-18.394-4.059-11.465-19.35-21.5-27.234
			c-10.032-7.881-33.683-7.162-31.531-26.512c2.149-19.354,30.816-17.92,45.148-18.637
			C190.162,226.715,205.929,229.584,205.929,253.949z"/>
		<path d="M162.359,219.684c-7.341-3.352-9.038-15.361-3.794-26.82c5.242-11.453,15.439-18.016,22.782-14.654
			c7.337,3.365,9.035,15.369,3.792,26.822C179.899,216.484,169.699,223.049,162.359,219.684z"/>
		<path d="M209.39,278.801c-3.16-7.42,3.684-17.434,15.279-22.357c11.596-4.928,23.548-2.902,26.707,4.531
			c3.152,7.43-3.688,17.441-15.283,22.369C224.503,288.264,212.542,286.236,209.39,278.801z"/>
		<path d="M219.465,236.305c-3.838-8.084,3.638-19.645,16.684-25.834c13.05-6.178,26.73-4.635,30.565,3.461
			c3.826,8.086-3.641,19.66-16.689,25.832C236.983,245.947,223.294,244.402,219.465,236.305z"/>
		<path d="M202.604,215.844c-7.152-4.748-6.613-18.113,1.191-29.842c7.809-11.73,19.931-17.379,27.086-12.613
			c7.139,4.756,6.617,18.121-1.197,29.846C221.883,214.957,209.753,220.613,202.604,215.844z"/>
	</g>
	<circle cx="185.458" cy="168.063" r="4.045"/>
	<circle cx="237.018" cy="162.443" r="4.045"/>
	<circle cx="277.02" cy="208.738" r="4.045"/>
	<circle cx="260.401" cy="254.264" r="4.045"/>
</g>
<path d="M300,67.653V37.068c-2.97-3.765-7.064-6.707-11.986-8.247c-13-4.067-26.836,3.174-30.903,16.175
	c-0.2,0.639-0.364,1.28-0.511,1.921L155.798,15.381c0.246-0.61,0.476-1.23,0.676-1.869c1.425-4.554,1.457-9.209,0.345-13.512h-47.77
	c-3.171,12.281,3.533,25.007,15.475,29.33l-0.017,0.053c-12.682-3.361-25.883,3.832-29.839,16.479
	c-4.067,13,3.174,26.839,16.173,30.906c13,4.067,26.838-3.178,30.904-16.178c0.248-0.792,0.453-1.587,0.618-2.382l100.87,31.557
	c-0.318,0.748-0.604,1.518-0.852,2.31c-4.067,13,3.174,26.839,16.174,30.907c13,4.066,26.837-3.179,30.904-16.179
	s-3.175-26.836-16.175-30.903C283.319,79.039,293.847,75.436,300,67.653z"/>
<g>
	<path d="M32.239,233.424c-3.16-7.42,3.684-17.434,15.279-22.357c11.596-4.928,23.548-2.902,26.707,4.531
		c3.152,7.43-3.688,17.441-15.283,22.369C47.353,242.887,35.392,240.859,32.239,233.424z"/>
	<path d="M42.314,190.928c-3.838-8.084,3.638-19.645,16.684-25.834c13.05-6.178,26.73-4.635,30.565,3.461
		c3.826,8.086-3.641,19.66-16.689,25.832C59.833,200.57,46.144,199.025,42.314,190.928z"/>
	<path d="M25.454,170.467c-7.152-4.748-6.613-18.113,1.191-29.842c7.809-11.73,19.931-17.379,27.086-12.612
		c7.139,4.756,6.617,18.121-1.197,29.845C44.732,169.58,32.603,175.236,25.454,170.467z"/>
	<circle cx="8.308" cy="122.685" r="4.045"/>
	<circle cx="59.867" cy="117.067" r="4.045"/>
	<circle cx="99.869" cy="163.361" r="4.045"/>
	<circle cx="83.25" cy="208.887" r="4.045"/>
	<path d="M4.197,132.832c-1.321-0.604-2.736-0.884-4.197-0.875v38.612c3.111-2.684,5.933-6.42,7.989-10.914
		C13.232,148.201,11.534,136.197,4.197,132.832z"/>
	<path d="M0,182v69.99c1.738,1.016,3.873,1.854,6.562,2.447c11.979,2.645,22.217-23.646,22.217-45.865
		C28.778,184.953,13.963,181.535,0,182z"/>
</g>
</svg>
