<?xml version="1.0" encoding="UTF-8" standalone="no"?>
<!-- Generator: Adobe Illustrator 16.0.0, SVG Export Plug-In . SVG Version: 6.00 Build 0)  -->

<svg
   xmlns:dc="http://purl.org/dc/elements/1.1/"
   xmlns:cc="http://creativecommons.org/ns#"
   xmlns:rdf="http://www.w3.org/1999/02/22-rdf-syntax-ns#"
   xmlns:svg="http://www.w3.org/2000/svg"
   xmlns="http://www.w3.org/2000/svg"
   xmlns:sodipodi="http://sodipodi.sourceforge.net/DTD/sodipodi-0.dtd"
   xmlns:inkscape="http://www.inkscape.org/namespaces/inkscape"
   version="1.1"
   id="Layer_1"
   x="0px"
   y="0px"
   width="300"
   height="300"
   viewBox="-10 -10 300 300"
   enable-background="new -10 -10 70 70"
   xml:space="preserve"
   sodipodi:docname="default.svg"
   inkscape:version="0.92.5 (2060ec1f9f, 2020-04-08)"><metadata
   id="metadata21"><rdf:RDF><cc:Work
       rdf:about=""><dc:format>image/svg+xml</dc:format><dc:type
         rdf:resource="http://purl.org/dc/dcmitype/StillImage" /><dc:title></dc:title></cc:Work></rdf:RDF></metadata><defs
   id="defs19" /><sodipodi:namedview
   pagecolor="#ffffff"
   bordercolor="#666666"
   borderopacity="1"
   objecttolerance="10"
   gridtolerance="10"
   guidetolerance="10"
   inkscape:pageopacity="0"
   inkscape:pageshadow="2"
   inkscape:window-width="1920"
   inkscape:window-height="1056"
   id="namedview17"
   showgrid="false"
   inkscape:zoom="2.38396"
   inkscape:cx="140.01415"
   inkscape:cy="181.94223"
   inkscape:window-x="0"
   inkscape:window-y="0"
   inkscape:window-maximized="1"
   inkscape:current-layer="Layer_1" />
<rect
   id="bg"
   x="-10"
   y="-10"
   width="300"
   height="300"
   style="fill:#eeeeee;stroke-width:4.28571415" />
<path
   id="inner"
   d="m 252.74079,226.46503 c -9.69627,-15.38806 -24.02168,-19.53076 -39.17438,-23.91496 -11.68541,-3.38723 -23.77229,-6.87354 -32.82376,-16.11257 -11.08927,-11.27632 -5.97349,-17.74735 1.08885,-26.71392 7.65239,-9.68487 19.21005,-24.34842 22.83551,-56.51163 C 207.37393,79.105021 201.5586,56.880578 188.71135,42.204643 177.39093,29.287343 161.33794,22.742 140.99646,22.742 c -20.32324,0 -36.36405,6.545343 -47.684479,19.462643 -12.865502,14.682127 -18.686913,36.937532 -15.973904,61.063037 3.625455,32.15701 15.1892,46.83295 22.835503,56.56118 7.06234,8.97894 12.17813,15.46855 1.09494,26.75107 -9.075807,9.22664 -21.162688,12.70056 -32.854175,16.05683 -15.146619,4.33467 -29.447704,8.4464 -39.15614,23.83446 -6.058647,9.62296 -7.640222,29.78534 -7.932205,34.78878 h 239.347 c -0.30415,-5.01583 -1.87356,-25.1844 -7.93221,-34.79497 z"
   inkscape:connector-curvature="0"
   style="fill:#ffffff;stroke-width:6.13743448" />
<linearGradient
   id="outline_1_"
   gradientUnits="userSpaceOnUse"
   x1="-199.4575"
   y1="36.999001"
   x2="-158.1021"
   y2="36.999001"
   gradientTransform="matrix(5.8552982,0,0,-5.9576124,1191.0959,364.4267)">
	<stop
   offset="0"
   style="stop-color:#5A8FB3"
   id="stop4" />
	<stop
   offset="0.2308"
   style="stop-color:#5996B3"
   id="stop6" />
	<stop
   offset="0.5623"
   style="stop-color:#57A9B3"
   id="stop8" />
	<stop
   offset="0.953"
   style="stop-color:#53C8B4"
   id="stop10" />
	<stop
   offset="1"
   style="stop-color:#52CCB4"
   id="stop12" />
</linearGradient>
<path
   id="outline"
   d="m 214.3092,197.02375 c -11.08993,-3.2052 -21.55921,-6.23166 -29.29406,-14.10167 -7.27813,-7.42318 -5.26391,-9.979 1.44041,-18.48051 7.73485,-9.81219 19.44544,-24.6526 23.11086,-57.15734 C 212.34768,82.56014 206.26988,59.63525 192.89052,44.37781 181.10966,30.93147 163.8541,23.83 142.99752,23.83 c -20.85657,0 -38.10042,7.10147 -49.887135,20.55376 -13.396923,15.26341 -19.480577,38.21213 -16.699311,62.95409 3.659562,32.49878 15.358447,47.35706 23.110862,57.19308 6.721884,8.5313 8.741964,11.09903 1.457974,18.5103 -7.740709,7.87597 -18.209982,10.88456 -29.299917,14.05997 -14.901733,4.26565 -30.301168,8.6862 -40.729454,25.21857 -7.442084,11.80203 -8.501892,36.26399 -8.54288,37.29466 -0.04684,1.19748 0.421582,2.45453 1.264745,3.34817 0.743623,0.78045 1.686326,1.2094 2.681726,1.2094 h 233.2985 c 0.98955,0 1.9381,-0.42895 2.67002,-1.2094 0.84901,-0.88768 1.31744,-2.14474 1.2706,-3.34817 -0.0469,-1.03067 -1.10666,-25.47475 -8.53703,-37.28274 -10.44585,-16.53833 -25.85114,-20.98271 -40.74702,-25.30794 z M 27.794534,258.73866 v 0 0 c 0.281054,-4.82567 1.803432,-24.2177 7.635308,-33.47583 9.339201,-14.79871 23.105007,-18.75456 37.690555,-22.93085 11.253883,-3.22902 22.88836,-6.57124 31.624463,-15.44809 10.66836,-10.85477 5.73819,-17.09834 -1.05395,-25.73688 C 96.324943,151.79356 85.194022,137.66806 81.710119,106.73018 79.104511,83.51932 84.708032,62.10766 97.086132,47.98216 107.9887,35.55458 123.42912,29.25738 142.98581,29.25738 c 19.58012,0 35.0264,6.2972 45.92896,18.72478 12.36639,14.11358 17.96406,35.49546 15.35845,58.6944 -3.48976,30.94384 -14.61482,45.05146 -21.98079,54.36917 -6.798,8.62662 -11.72231,14.85233 -1.0481,25.70114 8.71269,8.8828 20.35302,12.24289 31.59519,15.50171 14.58555,4.21799 28.38063,8.20363 37.70812,23.0083 5.83188,9.25217 7.34255,28.65611 7.62945,33.46986 z"
   style="fill:url(#outline_1_);stroke-width:5.90623379"
   inkscape:connector-curvature="0" />
</svg>