<?xml version="1.0" encoding="utf-8"?>
<!-- Generator: Adobe Illustrator 16.0.0, SVG Export Plug-In . SVG Version: 6.00 Build 0)  -->
<!DOCTYPE svg PUBLIC "-//W3C//DTD SVG 1.1//EN" "http://www.w3.org/Graphics/SVG/1.1/DTD/svg11.dtd">
<svg version="1.1" id="Calque_1" xmlns="http://www.w3.org/2000/svg" xmlns:xlink="http://www.w3.org/1999/xlink" x="0px" y="0px"
	 width="300px" height="300px" viewBox="0 0 300 300" enable-background="new 0 0 300 300" xml:space="preserve">
<g>
	<path fill="#F1D6BF" d="M127.368,199.454c3.728,8.197,10.805,32.786-19.001,44.336c-29.805,11.551,19.651,42.304,41.633,42.304
		c21.982,0,72.757-30.037,41.453-41.188c-27.199-9.687-23.846-38.126-19.002-42.969
		C175.984,198.403,127.368,199.454,127.368,199.454z"/>
	<path fill="#EECFB4" d="M127.368,199.454c1.96,4.308,4.844,13.144,2.812,22.239c2.777,0.859,29.354,5.827,48.194,15.306
		c-12.69-12.398-9.778-31.208-5.923-35.062C175.984,198.403,127.368,199.454,127.368,199.454z"/>
	<path fill="#F1D6BF" d="M150.597,221.81c-8.717,0-48.793-15.317-61.113-60.493c-10.757-1.77-20.475-32.322-0.521-31.204
		c0-61.729,42.422-60.918,61.599-60.918c19.18,0,62.989-0.629,62.989,61.104c17.699-1.305,10.758,27.571-1.389,31.11
		C200.709,205.561,159.811,221.81,150.597,221.81z"/>
	<path fill="#ECC9AA" d="M150.597,221.81c-2.725,0-1.898-152.615,4.824-152.615c19.178,0,58.13-0.629,58.13,61.104
		c17.699-1.305,10.758,27.571-1.389,31.11C200.709,205.561,159.811,221.81,150.597,221.81z"/>
	<path d="M134.819,154.371c-4.563-6.055-11.303-12.505-25.053-4.75c-1.46,0.102-3.387-0.009-4.807-1.127
		c0.78,1.249,2.122,1.813,3.302,2.018c-0.031,0.018-0.062,0.037-0.091,0.055c-1.442,0.201-4.062,0.405-5.865-1.013
		c0.987,1.578,2.87,2.072,4.182,2.104c-0.136,0.094-0.276,0.189-0.415,0.284c-1.327,0.103-4.299,0.271-6.15-1.422
		c1.042,1.979,3.493,2.506,4.725,2.433c-0.297,0.219-0.592,0.426-0.895,0.655c3.941-1.62,8.215-3.568,12.631-4.512
		c-0.736,0.926-1.185,2.055-1.185,3.286c0,3.089,2.724,5.589,6.086,5.589c3.359,0,6.084-2.5,6.084-5.589
		c0-1.179-0.402-2.271-1.083-3.173C129.144,150.02,132.005,151.62,134.819,154.371z"/>
	<path d="M165.244,154.412c4.563-6.052,11.303-12.505,25.053-4.749c1.462,0.101,3.387-0.011,4.806-1.125
		c-0.779,1.245-2.121,1.811-3.301,2.014c0.029,0.018,0.06,0.038,0.091,0.059c1.443,0.199,4.062,0.404,5.865-1.015
		c-0.987,1.576-2.87,2.074-4.182,2.106c0.136,0.093,0.275,0.188,0.415,0.282c1.327,0.102,4.299,0.272,6.149-1.422
		c-1.041,1.98-3.492,2.508-4.724,2.435c0.297,0.216,0.591,0.425,0.894,0.653c-3.942-1.619-8.214-3.57-12.63-4.51
		c0.736,0.923,1.184,2.052,1.184,3.286c0,3.085-2.725,5.589-6.085,5.589c-3.359,0-6.085-2.504-6.085-5.589
		c0-1.182,0.402-2.273,1.082-3.176C170.92,150.061,168.059,151.662,165.244,154.412z"/>
	<path fill="#BE1E2D" d="M119.268,239.689c0.975,7.054,6.659,37.011,30.732,44.651c1.457,0.46,1.362,0.353,2.57,0.062
		c6.703-1.621,23.595-12.033,27.923-44.977c0.62-4.722,5.985-0.97,9.216,1.637c3.229,2.608,19.969,8.794,33.134,7.551
		c13.165-1.241,8.416,2.213,3.727,7.699c-54.832,64.147-107.366,52.039-153.999,0c-6.007-6.7-4.968-7.699,1.488-7.201
		c6.46,0.495,29.615-3.828,38.66-9.757C118.149,235.796,118.838,236.567,119.268,239.689z"/>
	<circle fill="#FFFFFF" cx="124.294" cy="150.18" r="1.024"/>
	<circle fill="#FFFFFF" cx="182.692" cy="150.18" r="1.024"/>
	<path fill="#F69CA4" d="M141.051,191.024c5.635-2.188,7.182,0.279,8.43,0.279c1.241,0,2.887-3.027,9.547-0.047
		c3.837,1.716,7.913,1.782,4.223,5.294c-8.088,7.7-16.797,9.145-26.826,0C133.341,193.74,137.167,192.532,141.051,191.024z"/>
	<path d="M99.385,147.042c4.344-7.098,15.956-16.819,37.335-6.063c4.809,2.418-2.113,4.563-6.531,1.146
		C127.509,140.052,109.215,136.338,99.385,147.042z"/>
	<path d="M200.579,147.042c-4.344-7.098-15.956-16.819-37.335-6.063c-4.809,2.418,2.113,4.563,6.531,1.146
		C172.455,140.052,190.749,136.338,200.579,147.042z"/>
	<path d="M87.542,130.089c-5.085-20.722,1.406-53.16,38.58-66.362c-4.31-9.677-10.098-31.477,14.476-38.913
		c-3.248,2.436-8.86,8.697-8.901,10.522s0.597,3.892,2.969-0.16c2.37-4.055,13.882-19.084,31.696-9.789
		c-4.544-0.786-9.996-1.819-12.561,0.632c-2.563,2.453-0.223,2.049,3.534,1.22c3.758-0.83,36.971,3.331,21.834,37.669
		c12.368,8.03,41.162,26.235,35.807,61.931c-0.896,9.562-3.086-4.858-8.578-4.068c-5.49,0.791-8.942,12.347-21.147,7.284
		c-12.205-5.06-22.614-8.941-24.838-11.5c-2.225-2.559-4.529-1.47-1.859,1.554c2.671,3.026,10.557,15.064,32.798,15.044
		c-10.483,2.162-33.933,5.234-55.329-17.369c-3.126-3.036-4.768-1.019-2.544,1.54c2.225,2.56,8.919,16.965,29.218,19.691
		c-8.225,0.504-34.063,2.892-51.162-15.389C96.416,107.463,90.354,141.546,87.542,130.089z"/>
</g>
</svg>
