<?xml version="1.0" encoding="utf-8"?>
<!-- Generator: Adobe Illustrator 16.0.0, SVG Export Plug-In . SVG Version: 6.00 Build 0)  -->
<!DOCTYPE svg PUBLIC "-//W3C//DTD SVG 1.1//EN" "http://www.w3.org/Graphics/SVG/1.1/DTD/svg11.dtd">
<svg version="1.1" id="Calque_1" xmlns="http://www.w3.org/2000/svg" xmlns:xlink="http://www.w3.org/1999/xlink" x="0px" y="0px"
	 width="300px" height="300px" viewBox="0 0 300 300" enable-background="new 0 0 300 300" xml:space="preserve">
<g>
	<path fill="#FEEBDF" d="M123.348,188.884c3.978,8.747,11.531,34.991-20.277,47.317s19.086,43.34,42.544,43.34
		c23.46,0,79.533-30.25,46.125-42.148c-29.026-10.337-25.448-40.69-20.279-45.859C175.231,187.762,123.348,188.884,123.348,188.884z
		"/>
	<path fill="#FEE6D6" d="M123.348,188.884c2.092,4.599,5.169,14.028,3.001,23.733c2.963,0.919,31.327,6.221,51.434,16.336
		c-13.545-13.233-10.437-33.306-6.322-37.42C175.231,187.762,123.348,188.884,123.348,188.884z"/>
	<path fill="#1C75BC" d="M117.948,228.537c1.554,7.438,26.069,5.716,32.618,6.313c1.623,0.149,29.231,3.585,32.727-6.595
		c1.282-3.743,6.312-0.628,9.832,1.749c3.671,2.48,30.452,11.674,44.503,10.348c14.049-1.327,8.83,2.233,3.976,8.216
		c-63.39,78.134-134.167,58.65-183.075-1.192c-6.078-7.438-5.3-8.217,1.591-7.688c6.893,0.53,41.605-4.583,50.84-11.508
		C115.588,224.71,117.377,225.799,117.948,228.537z"/>
	<circle fill="#FFFFFF" cx="150.565" cy="268.602" r="3.194"/>
	<circle fill="#FFFFFF" cx="150.565" cy="255.632" r="3.194"/>
	<path fill="#FFFFFF" d="M150.566,233.458c9.556,0.192,24.144-3.438,28.045-5.169c9.875-4.374,11.332-0.994,10.935,8.151
		s-6.163,18.688-17.098,17.893c-10.935-0.795-19.683-11.729-20.478-14.513c-0.796-2.784-2.585-2.598-3.579,1.087
		s-11.134,14.514-20.875,13.473c-9.742-1.041-17.971-10.935-17.098-18.139c1.02-8.407,2.916-12.724,8.549-8.809
		C124.691,231.411,140.61,233.259,150.566,233.458z"/>
	<path fill="#FEEBDF" d="M147.603,212.741c-11.929,0-75.281-27.834-75.281-93.309c0-65.474,53.339-64.412,75.179-64.412
		c21.839,0,74.854-0.796,74.854,64.679C222.354,185.171,160.327,212.741,147.603,212.741z"/>
	<path fill="#FEE2D1" d="M147.603,212.741c-1.323-23.979-2.649-137.044,2.964-157.723c21.838,0,71.788-0.794,71.788,64.681
		C222.354,185.171,160.327,212.741,147.603,212.741z"/>
	<path d="M131.3,140.773c-4.869-6.463-12.063-13.345-26.737-5.069c-1.558,0.108-3.614-0.009-5.129-1.204
		c0.833,1.333,2.265,1.934,3.523,2.151c-0.033,0.021-0.065,0.044-0.097,0.061c-1.539,0.216-4.335,0.434-6.26-1.081
		c1.054,1.686,3.063,2.214,4.463,2.246c-0.145,0.102-0.295,0.203-0.442,0.303c-1.417,0.112-4.589,0.292-6.564-1.516
		c1.112,2.112,3.728,2.675,5.042,2.597c-0.317,0.231-0.631,0.454-0.954,0.699c4.206-1.73,8.767-3.812,13.479-4.815
		c-0.786,0.988-1.265,2.192-1.265,3.506c0,3.295,2.907,5.965,6.496,5.965c3.584,0,6.492-2.67,6.492-5.965
		c0-1.26-0.429-2.421-1.155-3.385C125.242,136.13,128.296,137.838,131.3,140.773z"/>
	<path d="M163.769,140.817c4.869-6.458,12.063-13.346,26.737-5.069c1.56,0.106,3.614-0.01,5.129-1.199
		c-0.833,1.329-2.265,1.931-3.522,2.149c0.03,0.017,0.063,0.04,0.096,0.062c1.541,0.212,4.335,0.433,6.26-1.084
		c-1.053,1.684-3.063,2.215-4.463,2.248c0.145,0.098,0.294,0.2,0.443,0.301c1.416,0.109,4.588,0.291,6.563-1.518
		c-1.111,2.116-3.727,2.675-5.041,2.601c0.317,0.229,0.631,0.453,0.954,0.696c-4.208-1.728-8.767-3.809-13.479-4.813
		c0.785,0.984,1.263,2.19,1.263,3.504c0,3.295-2.908,5.966-6.494,5.966c-3.585,0-6.494-2.671-6.494-5.966
		c0-1.26,0.43-2.423,1.155-3.386C169.826,136.173,166.772,137.882,163.769,140.817z"/>
	<path fill="#3F075B" d="M206.633,119.635c-46.336,0.627-53.743,16.422-60.173,16.352c-6.574-0.071-11.334-13.814-58.706-16.352
		c-11.742-0.631-11.024,23.232,6.071,36.429c18.809,14.519,33.345,6.76,39.216,1.729c5.87-5.031,9.225-14.887,13.628-14.887
		s5.662,5.242,12.789,15.096c7.128,9.854,29.354,10.624,45.288-8.176C213.29,139.744,217.117,119.491,206.633,119.635z
		 M137.652,144.584c-8.07,12.16-15.725,20.022-30.086,14.467c-14.362-5.556-19.918-19.184-19.079-24.636
		c0.838-5.452,3.773-7.13,12.161-7.023C108.929,127.494,145.727,132.424,137.652,144.584z M185.143,159.051
		c-14.362,5.556-22.016-2.307-30.088-14.467c-8.071-12.16,28.726-17.09,37.008-17.192c8.386-0.106,11.319,1.571,12.158,7.023
		S199.505,153.495,185.143,159.051z"/>
	<path fill="#3F075B" d="M212.14,128.326c2.783-1.988,5.982-4.242,7.563-5.7c1.581-1.457,1.653,1.192-0.105,2.851
		c-1.758,1.657-7.988,6.472-7.988,6.472L212.14,128.326z"/>
	<path fill="#3F075B" d="M81.084,128.326c-2.783-1.988-5.981-4.242-7.563-5.7c-1.582-1.457-1.651,1.192,0.106,2.851
		c1.759,1.657,7.988,6.472,7.988,6.472L81.084,128.326z"/>
	<circle fill="#FFFFFF" cx="120.067" cy="136.301" r="1.093"/>
	<circle fill="#FFFFFF" cx="182.39" cy="136.301" r="1.093"/>
	<path fill="#8B5E3C" d="M148.32,32.594c40.029,0.162,86.684,23.858,81.383,84.562c-5.303,60.703-33.071,85.423-16.561,90.474
		c14.388,4.402,35.906-19.817,29.018,15.295c-3.38,17.23-11.333,18.823-26.508,18.025c-13.758-0.724-47.646-7.482-48.902-32.109
		c-0.465-9.08,25.995-11.255,39.25-39.354c15.938-33.791,13.164-62.366,11.84-69.523c-1.325-7.157-5.899,1.287-23.396,2.878
		c-17.495,1.591-90.603,0.676-97.284,0.265c-11.863-0.729-19.604-12.904-20.146-4.24c-0.53,8.481-3.202,51.082,13.253,72.896
		c26.243,34.793,40.559,26.775,36.848,39.233s-5.954,24.241-42.943,29.159c-29.098,3.869-29.69-6.959-30.75-23.327
		c-0.618-9.538,0.094-17.831,20.941-10.338c35.587,12.789-10.339-50.434-7.953-93.044C68.326,79.235,83.375,32.328,148.32,32.594z"
		/>
	<path fill="#C72633" d="M137.949,179.887c6.015-2.336,7.665,0.299,8.996,0.299c1.325,0,3.082-3.23,10.189-0.05
		c4.095,1.833,8.445,1.902,4.506,5.65c-8.631,8.217-17.926,9.758-28.629,0C129.722,182.787,133.806,181.498,137.949,179.887z"/>
</g>
</svg>
