<?xml version="1.0" encoding="utf-8"?>
<!-- Generator: Adobe Illustrator 16.0.0, SVG Export Plug-In . SVG Version: 6.00 Build 0)  -->
<!DOCTYPE svg PUBLIC "-//W3C//DTD SVG 1.1//EN" "http://www.w3.org/Graphics/SVG/1.1/DTD/svg11.dtd">
<svg version="1.1" id="Calque_1" xmlns="http://www.w3.org/2000/svg" xmlns:xlink="http://www.w3.org/1999/xlink" x="0px" y="0px"
	 width="300px" height="300px" viewBox="0 0 300 300" enable-background="new 0 0 300 300" xml:space="preserve">
<g>
	<path fill="#FEEBDF" d="M126.179,194.45c3.911,8.604,11.342,34.418-19.947,46.543s18.773,42.632,41.85,42.632
		s78.233-29.754,45.37-41.459c-28.552-10.169-25.032-40.025-19.947-45.109C177.214,193.347,126.179,194.45,126.179,194.45z"/>
	<path fill="#FEE2D1" d="M126.179,194.45c2.057,4.522,5.084,13.799,2.95,23.345c2.916,0.904,30.816,6.119,50.595,16.069
		c-13.323-13.017-10.267-32.761-6.22-36.808C177.214,193.347,126.179,194.45,126.179,194.45z"/>
	<path fill="#FEEBDF" d="M150.037,217.917c-11.734,0-74.052-27.378-74.052-91.783c0-64.404,52.468-63.361,73.95-63.361
		s73.632-0.782,73.632,63.623C223.567,190.799,162.553,217.917,150.037,217.917z"/>
	<path fill="#FEE2D1" d="M150.037,217.917c-1.302-23.586-2.607-134.806,2.914-155.146c21.482,0,70.616-0.781,70.616,63.624
		C223.567,190.799,162.553,217.917,150.037,217.917z"/>
	<path fill="#603913" d="M96.231,178.805c-36.152-14.471-39.281-44.196-39.281-64.534s12.905-84.478,66.882-84.481
		c15.123-0.003,22.424,4.953,26.4,4.953c5.367,0,9.713-4.956,29.491-4.956c23.114,0,63.326,19.298,63.326,89.308
		c0,31.094-17.489,56.974-39.411,59.711c10.657-11.871,16.408-21.12,14.453-31.289c-1.956-10.169-7.822-16.036-21.512-19.947
		s-42.41-23.577-44.448-30.563c-2.039-6.981-2.095-2.683-4.833,0.838c-2.737,3.52-25.031,25.813-45.37,28.942
		C81.591,129.915,72.986,157.685,96.231,178.805z"/>
	<path fill="#3C2415" d="M134.001,147.125c-4.79-6.356-11.866-13.127-26.302-4.987c-1.532,0.107-3.555-0.009-5.044-1.183
		c0.819,1.311,2.228,1.902,3.466,2.116c-0.032,0.02-0.064,0.041-0.096,0.06c-1.515,0.211-4.265,0.425-6.157-1.063
		c1.036,1.656,3.012,2.176,4.39,2.209c-0.144,0.099-0.29,0.199-0.435,0.298c-1.395,0.109-4.515,0.286-6.457-1.492
		c1.094,2.078,3.667,2.631,4.959,2.555c-0.313,0.229-0.621,0.446-0.938,0.688c4.139-1.701,8.624-3.748,13.259-4.736
		c-0.772,0.972-1.242,2.157-1.242,3.449c0,3.241,2.859,5.867,6.388,5.867c3.527,0,6.388-2.626,6.388-5.867
		c0-1.238-0.424-2.383-1.137-3.33C128.042,142.557,131.045,144.237,134.001,147.125z"/>
	<path fill="#3C2415" d="M165.938,147.167c4.79-6.353,11.866-13.127,26.301-4.985c1.533,0.105,3.556-0.01,5.045-1.181
		c-0.819,1.308-2.228,1.9-3.466,2.114c0.031,0.019,0.064,0.04,0.096,0.062c1.515,0.208,4.265,0.425,6.157-1.065
		c-1.036,1.655-3.012,2.178-4.39,2.211c0.144,0.097,0.29,0.196,0.435,0.297c1.395,0.106,4.514,0.285,6.457-1.493
		c-1.094,2.08-3.667,2.631-4.959,2.557c0.313,0.226,0.62,0.446,0.938,0.685c-4.139-1.699-8.624-3.746-13.259-4.733
		c0.772,0.969,1.242,2.154,1.242,3.448c0,3.24-2.86,5.867-6.388,5.867s-6.388-2.627-6.388-5.867c0-1.239,0.423-2.385,1.137-3.332
		C171.896,142.6,168.894,144.281,165.938,147.167z"/>
	<path fill="#BE1E2D" d="M132.176,186.888c3.26-0.651,10.234-4.823,13.168-4.823c2.217,0,2.614,1.438,3.777,1.438
		c1.162,0,2.051-1.438,3.83-1.438c3.344,0,9.922,3.993,14.682,5.167c2.873,0.895-9.846,13.215-17.697,13.215
		C142.085,200.446,129.477,187.427,132.176,186.888z"/>
	<path fill="#FFFFFF" d="M144.952,186.185c2.398,0.874,6.84,0.847,9.582,0.006c1.614-0.491,7.713,1.261,8.019,2.718
		c0.231,1.105-1.489,2.141-3.129,3.195c-5.476,3.52-10.561,5.182-18.285,0.488c-3.53-2.145-5.023-3.303-4.596-4.336
		C137.052,187.027,143.485,185.649,144.952,186.185z"/>
	<path fill="#603913" d="M94.879,135.192c3.711-8.302,14.592-14.276,32.722-7.432c4.073,1.804,2.063,4.157-0.812,4.37
		c-2.652,0.195-3.496-0.779-5.601-2.1C115.81,126.655,98.418,130.12,94.879,135.192z"/>
	<path fill="#603913" d="M202.916,135.192c-3.711-8.302-14.592-14.276-32.721-7.432c-4.075,1.804-2.063,4.157,0.812,4.37
		c2.653,0.195,3.496-0.779,5.6-2.1C181.986,126.655,199.378,130.12,202.916,135.192z"/>
	<path fill="#8DC63F" d="M116.637,236.688c1.021,7.404,3.148,31.727,28.419,39.746c1.529,0.484,1.863,0.307,3.129,0
		c7.039-1.702,28.182-5.44,32.726-40.023c0.65-4.955,6.281-1.018,9.672,1.72c3.39,2.738,20.964,9.231,34.783,7.927
		c13.82-1.304,8.836,2.322,3.911,8.083c-57.56,67.339-112.707,54.627-161.662,0c-6.305-7.035-5.214-8.083,1.564-7.561
		c6.779,0.521,31.088-4.019,40.583-10.243C115.461,232.6,116.185,233.41,116.637,236.688z"/>
	<circle fill="#FFFFFF" cx="122.952" cy="142.725" r="1.076"/>
	<circle fill="#FFFFFF" cx="184.255" cy="142.725" r="1.076"/>
</g>
</svg>
