<?xml version="1.0" encoding="utf-8"?>
<!-- Generator: Adobe Illustrator 16.0.0, SVG Export Plug-In . SVG Version: 6.00 Build 0)  -->
<!DOCTYPE svg PUBLIC "-//W3C//DTD SVG 1.1//EN" "http://www.w3.org/Graphics/SVG/1.1/DTD/svg11.dtd">
<svg version="1.1" id="Calque_1" xmlns="http://www.w3.org/2000/svg" xmlns:xlink="http://www.w3.org/1999/xlink" x="0px" y="0px"
	 width="300px" height="300px" viewBox="0 0 300 300" enable-background="new 0 0 300 300" xml:space="preserve">
<g>
	<rect fill="#00AEEF" width="300" height="300"/>
	<circle fill="#2E3192" cx="76.5" cy="76.5" r="74.5"/>
	<circle fill="#92278F" cx="85.076" cy="85.075" r="65.924"/>
	<circle fill="#EF58A0" cx="91.507" cy="91.507" r="59.493"/>
	<circle fill="#D1223F" cx="93.651" cy="93.65" r="57.349"/>
	<circle fill="#F7941E" cx="102.591" cy="102.591" r="48.409"/>
	<circle fill="#D7DF23" cx="108.521" cy="108.521" r="42.479"/>
	<circle fill="#39B54A" cx="117.096" cy="117.096" r="33.904"/>
	<circle fill="#006838" cx="119.508" cy="119.508" r="31.492"/>
	<circle fill="#2E3192" cx="225.5" cy="76.5" r="74.5"/>
	<circle fill="#92278F" cx="216.924" cy="85.075" r="65.924"/>
	<circle fill="#EF58A0" cx="210.493" cy="91.507" r="59.493"/>
	<circle fill="#D1223F" cx="208.349" cy="93.65" r="57.349"/>
	<circle fill="#F7941E" cx="199.409" cy="102.591" r="48.409"/>
	<circle fill="#D7DF23" cx="193.479" cy="108.521" r="42.479"/>
	<circle fill="#39B54A" cx="184.903" cy="117.096" r="33.903"/>
	<circle fill="#006838" cx="182.491" cy="119.508" r="31.491"/>
	<circle fill="#2E3192" cx="76.5" cy="225.5" r="74.5"/>
	<circle fill="#92278F" cx="85.076" cy="216.924" r="65.924"/>
	<circle fill="#EF58A0" cx="91.507" cy="210.492" r="59.493"/>
	<circle fill="#D1223F" cx="93.651" cy="208.348" r="57.349"/>
	<circle fill="#F7941E" cx="102.591" cy="199.408" r="48.409"/>
	<circle fill="#D7DF23" cx="108.521" cy="193.479" r="42.479"/>
	<circle fill="#39B54A" cx="117.096" cy="184.902" r="33.904"/>
	<circle fill="#006838" cx="119.508" cy="182.49" r="31.492"/>
	<circle fill="#2E3192" cx="225.5" cy="225.5" r="74.5"/>
	<circle fill="#92278F" cx="216.924" cy="216.924" r="65.924"/>
	<circle fill="#EF58A0" cx="210.493" cy="210.492" r="59.493"/>
	<circle fill="#D1223F" cx="208.349" cy="208.348" r="57.349"/>
	<circle fill="#F7941E" cx="199.409" cy="199.408" r="48.409"/>
	<circle fill="#D7DF23" cx="193.479" cy="193.479" r="42.479"/>
	<circle fill="#39B54A" cx="184.903" cy="184.902" r="33.903"/>
	<circle fill="#006838" cx="182.491" cy="182.49" r="31.491"/>
	<circle fill="#1C75BC" cx="125.883" cy="125.883" r="25.117"/>
	<circle fill="#1C75BC" cx="176.116" cy="125.883" r="25.116"/>
	<circle fill="#1C75BC" cx="125.883" cy="176.115" r="25.117"/>
	<circle fill="#1C75BC" cx="176.116" cy="176.115" r="25.116"/>
	<circle fill="#00AEEF" cx="150" cy="150" r="29.984"/>
</g>
</svg>
