<?xml version="1.0" encoding="utf-8"?>
<!-- Generator: Adobe Illustrator 16.0.0, SVG Export Plug-In . SVG Version: 6.00 Build 0)  -->
<!DOCTYPE svg PUBLIC "-//W3C//DTD SVG 1.1//EN" "http://www.w3.org/Graphics/SVG/1.1/DTD/svg11.dtd">
<svg version="1.1" id="Calque_1" xmlns="http://www.w3.org/2000/svg" xmlns:xlink="http://www.w3.org/1999/xlink" x="0px" y="0px"
	 width="300px" height="300px" viewBox="0 0 300 300" enable-background="new 0 0 300 300" xml:space="preserve">
<rect fill="#FFFFFF" width="300" height="300"/>
<g>
	<polygon fill="#00833B" points="200.002,200.689 150,167.93 150,99.31 200.002,132.069 	"/>
	<polygon fill="#00833B" points="300,200.689 250,167.93 250,99.31 300,132.069 	"/>
	<polygon fill="#BFD730" points="200.002,200.689 250,167.93 250,99.31 200.002,132.069 	"/>
	<polygon fill="#00833B" points="100,200.689 50,167.93 50,99.31 100,132.069 	"/>
	<polygon fill="#BFD730" points="100,200.689 150,167.93 150,99.31 100,132.069 	"/>
	<polygon fill="#BFD730" points="0,200.689 49.999,167.93 49.999,99.31 0,132.069 	"/>
	<polygon fill="#BFD730" points="250,233.447 250,300 253.158,300 300,269.311 300,200.689 	"/>
	<polygon fill="#00833B" points="150,300 150,233.447 100,200.689 100,269.311 146.842,300 	"/>
	<polygon fill="#BFD730" points="150,233.447 150,300 153.158,300 200.002,269.311 200.002,200.689 	"/>
	<polygon fill="#BFD730" points="49.998,233.447 49.998,300 53.156,300 99.999,269.311 99.999,200.689 	"/>
	<polygon fill="#00833B" points="103.159,0 100,0 100,66.552 150,99.31 150,30.689 	"/>
	<polygon fill="#00833B" points="203.16,0 200.002,0 200.002,66.552 250,99.31 250,30.689 	"/>
	<polygon fill="#BFD730" points="196.844,0 150,30.689 150,99.31 200.002,66.552 200.002,0 	"/>
	<polygon fill="#00833B" points="3.159,0 0,0 0,66.552 49.999,99.31 49.999,30.689 	"/>
	<polygon fill="#BFD730" points="96.841,0 49.999,30.689 49.999,99.31 100,66.552 100,0 	"/>
	<polygon fill="#BFD730" points="296.842,0 250,30.689 250,99.31 300,66.552 300,0 	"/>
	<polygon fill="#00833B" points="49.998,300 49.998,233.447 0,200.689 0,269.311 46.839,300 	"/>
	<polygon fill="#00833B" points="250,300 250,233.447 200.002,200.689 200.002,269.311 246.842,300 	"/>
</g>
</svg>
