<?xml version="1.0" encoding="utf-8"?>
<!-- Generator: Adobe Illustrator 16.0.0, SVG Export Plug-In . SVG Version: 6.00 Build 0)  -->
<!DOCTYPE svg PUBLIC "-//W3C//DTD SVG 1.1//EN" "http://www.w3.org/Graphics/SVG/1.1/DTD/svg11.dtd">
<svg version="1.1" id="Calque_1" xmlns="http://www.w3.org/2000/svg" xmlns:xlink="http://www.w3.org/1999/xlink" x="0px" y="0px"
	 width="300px" height="300px" viewBox="0 0 300 300" enable-background="new 0 0 300 300" xml:space="preserve">
<g>
	<polygon fill="#8DC63F" points="50.536,146.431 96.179,67.372 141.823,146.431 	"/>
	<polygon fill="#EC008C" points="195.644,67.372 150.001,146.431 104.356,67.372 	"/>
	<polygon fill="#F7941E" points="157.868,146.431 203.513,67.372 249.155,146.431 	"/>
	<polygon fill="#EC008C" points="141.977,153.572 96.334,232.63 50.689,153.572 	"/>
	<polygon fill="#F7941E" points="104.201,232.629 149.846,153.573 195.488,232.629 	"/>
	<polygon fill="#00AEEF" points="249.311,153.572 203.666,232.63 158.023,153.572 	"/>
	<polygon fill="#F7941E" points="61.559,-0.001 96.334,60.229 131.107,-0.001 	"/>
	<polygon fill="#662D91" points="138.977,-0.001 104.201,60.229 195.488,60.229 160.715,-0.001 	"/>
	<polygon fill="#8DC63F" points="168.893,-0.001 203.666,60.229 238.441,-0.001 	"/>
	<polygon fill="#8DC63F" points="238.284,300.001 203.513,239.771 168.739,300.001 	"/>
	<polygon fill="#00AEEF" points="160.872,300.001 195.644,239.771 104.356,239.771 139.13,300.001 	"/>
	<polygon fill="#662D91" points="130.952,300.001 96.179,239.771 61.407,300.001 	"/>
	<polygon fill="#EC008C" points="0,-0.001 0,41.178 23.775,-0.001 	"/>
	<polygon fill="#F7941E" points="0,86.425 0,146.431 34.645,146.431 	"/>
	<polygon fill="#662D91" points="0,153.572 0,213.577 34.645,153.572 	"/>
	<polygon fill="#EC008C" points="0,258.824 0,300.001 23.773,300.001 	"/>
	<polygon fill="#662D91" points="0,60.229 88.156,60.229 53.381,-0.001 31.643,-0.001 0,54.807 	"/>
	<polygon fill="#00AEEF" points="0,67.372 0,72.526 42.667,146.431 88.312,67.372 	"/>
	<polygon fill="#8DC63F" points="0,232.629 88.156,232.629 42.512,153.573 0,227.206 	"/>
	<polygon fill="#F7941E" points="0,239.771 0,244.926 31.796,300.001 53.538,300.001 88.312,239.771 	"/>
	<polygon fill="#F7941E" points="300,-0.001 276.225,-0.001 300,41.178 	"/>
	<polygon fill="#00AEEF" points="300,55.341 268.048,0.001 246.308,0.001 211.535,60.229 300,60.229 	"/>
	<polygon fill="#8DC63F" points="300,67.372 211.69,67.372 257.333,146.431 300,72.529 	"/>
	<polygon fill="#662D91" points="300,86.156 265.202,146.431 300,146.431 	"/>
	<polygon fill="#662D91" points="300,153.572 265.355,153.572 300,213.577 	"/>
	<polygon fill="#EC008C" points="300,227.741 257.178,153.573 211.535,232.629 300,232.629 	"/>
	<polygon fill="#EC008C" points="300,239.771 211.69,239.771 246.462,300.001 268.204,300.001 300,244.929 	"/>
	<polygon fill="#00AEEF" points="300,258.557 276.073,300.001 300,300.001 	"/>
</g>
</svg>
