<?xml version="1.0" encoding="utf-8"?>
<!-- Generator: Adobe Illustrator 16.0.0, SVG Export Plug-In . SVG Version: 6.00 Build 0)  -->
<!DOCTYPE svg PUBLIC "-//W3C//DTD SVG 1.1//EN" "http://www.w3.org/Graphics/SVG/1.1/DTD/svg11.dtd">
<svg version="1.1" id="Calque_1" xmlns="http://www.w3.org/2000/svg" xmlns:xlink="http://www.w3.org/1999/xlink" x="0px" y="0px"
	 width="300px" height="300px" viewBox="0 0 300 300" enable-background="new 0 0 300 300" xml:space="preserve">
<g>
	<polygon fill="#ED1C24" points="150,150 88.576,88.576 88.576,-0.203 150,60.475 	"/>
	<polygon fill="#F37053" points="150,150 211.424,88.576 211.424,-0.203 150,60.475 	"/>
	<polygon fill="#ED1C24" points="150,150 211.424,211.424 211.424,300.203 150,239.525 	"/>
	<polygon fill="#F37053" points="150,150 88.576,211.424 88.576,300.203 150,239.525 	"/>
	<polygon fill="#ED1C24" points="150,150 211.424,88.576 300.203,88.576 239.525,150 	"/>
	<polygon fill="#F37053" points="150,150 211.424,211.424 300.203,211.424 239.525,150 	"/>
	<polygon fill="#ED1C24" points="150,150 88.576,211.424 -0.203,211.424 60.475,150 	"/>
	<polygon fill="#F37053" points="150,150 88.576,88.576 -0.203,88.576 60.475,150 	"/>
</g>
</svg>
