<?xml version="1.0" encoding="utf-8"?>
<!-- Generator: Adobe Illustrator 16.0.0, SVG Export Plug-In . SVG Version: 6.00 Build 0)  -->
<!DOCTYPE svg PUBLIC "-//W3C//DTD SVG 1.1//EN" "http://www.w3.org/Graphics/SVG/1.1/DTD/svg11.dtd">
<svg version="1.1" id="Calque_1" xmlns="http://www.w3.org/2000/svg" xmlns:xlink="http://www.w3.org/1999/xlink" x="0px" y="0px"
	 width="300px" height="300px" viewBox="0 0 300 300" enable-background="new 0 0 300 300" xml:space="preserve">
<g>
	<path fill="#92278F" d="M150,150c-41.421,0-75,33.583-75,75C116.421,225,150,191.426,150,150z"/>
	<path fill="#92278F" d="M150,150c0,41.426,33.579,75,75,75C225,183.583,191.422,150,150,150z"/>
	<path fill="#92278F" d="M225,225L225,225c-41.422,0-75,33.578-75,75l0,0C191.422,300,225,266.426,225,225z"/>
	<path fill="#92278F" d="M150,300c0-41.422-33.578-75-75-75l0,0C75,266.426,108.579,300,150,300L150,300z"/>
	<path fill="#92278F" d="M300,150c-41.422,0-75,33.583-75,75C266.422,225,300,191.426,300,150z"/>
	<path fill="#92278F" d="M300,300c0-41.422-33.578-75-75-75l0,0C225,266.426,258.578,300,300,300L300,300z"/>
	<path fill="#92278F" d="M150,0c-41.421,0-75,33.583-75,75C116.421,75,150,41.426,150,0z"/>
	<path fill="#92278F" d="M150,0c0,41.426,33.579,75,75,75C225,33.583,191.422,0,150,0z"/>
	<path fill="#92278F" d="M225,75L225,75c-41.422,0-75,33.578-75,75l0,0C191.422,150,225,116.426,225,75z"/>
	<path fill="#92278F" d="M0,150c0,41.426,33.579,75,75,75C75,183.583,41.42,150,0,150z"/>
	<path fill="#92278F" d="M75,225L75,225c-41.421,0-75,33.578-75,75l0,0C41.42,300,75,266.426,75,225z"/>
	<path fill="#92278F" d="M0,0c0,41.426,33.579,75,75,75C75,33.583,41.42,0,0,0z"/>
	<path fill="#92278F" d="M75,75L75,75c-41.421,0-75,33.578-75,75l0,0C41.42,150,75,116.426,75,75z"/>
	<path fill="#92278F" d="M150,150c0-41.422-33.578-75-75-75l0,0C75,116.426,108.579,150,150,150L150,150z"/>
	<path fill="#92278F" d="M300,0c-41.422,0-75,33.583-75,75C266.422,75,300,41.426,300,0z"/>
	<path fill="#92278F" d="M300,150c0-41.422-33.578-75-75-75l0,0C225,116.426,258.578,150,300,150L300,150z"/>
</g>
</svg>
