<?xml version="1.0" encoding="utf-8"?>
<!-- Generator: Adobe Illustrator 16.0.0, SVG Export Plug-In . SVG Version: 6.00 Build 0)  -->
<!DOCTYPE svg PUBLIC "-//W3C//DTD SVG 1.1//EN" "http://www.w3.org/Graphics/SVG/1.1/DTD/svg11.dtd">
<svg version="1.1" id="Calque_1" xmlns="http://www.w3.org/2000/svg" xmlns:xlink="http://www.w3.org/1999/xlink" x="0px" y="0px"
	 width="300px" height="300px" viewBox="0 0 300 300" enable-background="new 0 0 300 300" xml:space="preserve">
<g>
	<defs>
		<rect id="SVGID_1_" width="300" height="300"/>
	</defs>
	<clipPath id="SVGID_2_">
		<use xlink:href="#SVGID_1_"  overflow="visible"/>
	</clipPath>
	<path clip-path="url(#SVGID_2_)" d="M365.669,145.512c0-116.63-94.552-211.183-211.183-211.183
		c-116.629,0-211.18,94.553-211.18,211.183c0,116.632,94.551,211.181,211.18,211.181
		C271.117,356.692,365.669,262.144,365.669,145.512z"/>
	<path clip-path="url(#SVGID_2_)" fill="#FFFFFF" d="M354.33,151.18c0-113.498-92.014-205.512-205.514-205.512
		c-113.498,0-205.51,92.014-205.51,205.512c0,113.503,92.012,205.513,205.51,205.513C262.316,356.692,354.33,264.683,354.33,151.18z
		"/>
	<path clip-path="url(#SVGID_2_)" d="M340.157,151.18c0-109.585-88.841-198.426-198.427-198.426
		c-109.584,0-198.424,88.841-198.424,198.426c0,109.589,88.839,198.427,198.424,198.427
		C251.316,349.606,340.157,260.769,340.157,151.18z"/>
	<circle clip-path="url(#SVGID_2_)" fill="#FFFFFF" cx="134.645" cy="144.093" r="191.338"/>
	<circle clip-path="url(#SVGID_2_)" cx="134.646" cy="137.007" r="184.252"/>
	<path clip-path="url(#SVGID_2_)" fill="#FFFFFF" d="M318.897,129.922c0-97.848-79.321-177.168-177.167-177.168
		c-97.844,0-177.164,79.32-177.164,177.168c0,97.844,79.32,177.163,177.164,177.163
		C239.576,307.085,318.897,227.766,318.897,129.922z"/>
	<path clip-path="url(#SVGID_2_)" d="M318.897,129.922c0-93.934-76.147-170.081-170.079-170.081
		c-93.931,0-170.078,76.147-170.078,170.081C-21.26,223.85,54.887,300,148.818,300C242.75,300,318.897,223.85,318.897,129.922z"/>
	<path clip-path="url(#SVGID_2_)" fill="#FFFFFF" d="M318.897,137.008c0-90.019-72.974-162.993-162.992-162.993
		c-90.017,0-162.992,72.975-162.992,162.993C-7.086,227.023,65.888,300,155.905,300C245.924,300,318.897,227.023,318.897,137.008z"
		/>
	<circle clip-path="url(#SVGID_2_)" cx="155.905" cy="144.095" r="155.905"/>
	<circle clip-path="url(#SVGID_2_)" fill="#FFFFFF" cx="150" cy="150" r="150"/>
	<path clip-path="url(#SVGID_2_)" d="M283.465,141.734C283.465,63.455,220.009,0,141.731,0C63.455,0,0,63.455,0,141.734
		c0,78.273,63.455,141.729,141.731,141.729C220.009,283.463,283.465,220.008,283.465,141.734z"/>
	<path clip-path="url(#SVGID_2_)" fill="#FFFFFF" d="M276.378,134.648C276.378,60.283,216.096,0,141.731,0
		C67.369,0,7.086,60.283,7.086,134.648c0,74.359,60.282,134.643,134.645,134.643C216.096,269.291,276.378,209.008,276.378,134.648z"
		/>
	<path clip-path="url(#SVGID_2_)" d="M276.378,127.563C276.378,57.109,219.269,0,148.818,0C78.37,0,21.26,57.109,21.26,127.563
		c0,70.443,57.11,127.553,127.559,127.553C219.269,255.116,276.378,198.007,276.378,127.563z"/>
	<path clip-path="url(#SVGID_2_)" fill="#FFFFFF" d="M276.378,127.563c0-66.54-53.936-120.477-120.472-120.477
		S35.433,61.023,35.433,127.563c0,66.528,53.937,120.467,120.473,120.467S276.378,194.092,276.378,127.563z"/>
	<path clip-path="url(#SVGID_2_)" d="M276.378,134.648c0-62.625-50.763-113.389-113.385-113.389S49.606,72.023,49.606,134.648
		c0,62.617,50.765,113.382,113.387,113.382S276.378,197.266,276.378,134.648z"/>
	<path clip-path="url(#SVGID_2_)" fill="#FFFFFF" d="M269.291,141.734c0-58.71-47.59-106.301-106.298-106.301
		s-106.3,47.591-106.3,106.301c0,58.705,47.592,106.296,106.3,106.296S269.291,200.439,269.291,141.734z"/>
	<circle clip-path="url(#SVGID_2_)" cx="155.906" cy="148.819" r="99.213"/>
	<circle clip-path="url(#SVGID_2_)" fill="#FFFFFF" cx="148.819" cy="148.819" r="92.126"/>
	<path clip-path="url(#SVGID_2_)" d="M226.771,141.734c0-46.969-38.072-85.042-85.039-85.042c-46.967,0-85.039,38.073-85.039,85.042
		c0,46.962,38.072,85.037,85.039,85.037C188.699,226.771,226.771,188.696,226.771,141.734z"/>
	<path clip-path="url(#SVGID_2_)" fill="#FFFFFF" d="M219.686,134.647c0-43.055-34.9-77.955-77.953-77.955
		c-43.054,0-77.953,34.9-77.953,77.955c0,43.049,34.899,77.951,77.953,77.951C184.785,212.599,219.686,177.696,219.686,134.647z"/>
	<path clip-path="url(#SVGID_2_)" d="M219.686,127.563c0-39.143-31.727-70.87-70.866-70.87s-70.866,31.728-70.866,70.87
		c0,39.133,31.727,70.862,70.866,70.862S219.686,166.695,219.686,127.563z"/>
	<path clip-path="url(#SVGID_2_)" fill="#FFFFFF" d="M219.686,127.563c0-35.229-28.555-63.782-63.779-63.782
		c-35.226,0-63.78,28.553-63.78,63.782c0,35.22,28.554,63.777,63.78,63.777C191.131,191.34,219.686,162.782,219.686,127.563z"/>
	<circle clip-path="url(#SVGID_2_)" cx="162.993" cy="134.647" r="56.693"/>
	<circle clip-path="url(#SVGID_2_)" fill="#FFFFFF" cx="162.993" cy="141.732" r="49.606"/>
	<path clip-path="url(#SVGID_2_)" d="M198.426,148.818c0-23.482-19.035-42.518-42.52-42.518s-42.52,19.035-42.52,42.518
		c0,23.485,19.035,42.521,42.52,42.521S198.426,172.304,198.426,148.818z"/>
	<circle clip-path="url(#SVGID_2_)" fill="#FFFFFF" cx="148.819" cy="148.818" r="35.433"/>
	<circle clip-path="url(#SVGID_2_)" cx="141.733" cy="141.733" r="28.346"/>
	<path clip-path="url(#SVGID_2_)" fill="#FFFFFF" d="M162.992,134.647c0-11.743-9.518-21.262-21.26-21.262
		s-21.26,9.519-21.26,21.262c0,11.739,9.518,21.26,21.26,21.26S162.992,146.387,162.992,134.647z"/>
	<path clip-path="url(#SVGID_2_)" d="M162.992,127.561c0-7.83-6.345-14.175-14.173-14.175s-14.173,6.345-14.173,14.175
		c0,7.825,6.345,14.172,14.173,14.172S162.992,135.386,162.992,127.561z"/>
	<path clip-path="url(#SVGID_2_)" fill="#FFFFFF" d="M162.992,127.561c0-3.915-3.172-7.088-7.086-7.088s-7.086,3.173-7.086,7.088
		c0,3.911,3.172,7.085,7.086,7.085S162.992,131.472,162.992,127.561z"/>
</g>
</svg>
