<?xml version="1.0" encoding="utf-8"?>
<!-- Generator: Adobe Illustrator 16.0.0, SVG Export Plug-In . SVG Version: 6.00 Build 0)  -->
<!DOCTYPE svg PUBLIC "-//W3C//DTD SVG 1.1//EN" "http://www.w3.org/Graphics/SVG/1.1/DTD/svg11.dtd">
<svg version="1.1" id="Calque_1" xmlns="http://www.w3.org/2000/svg" xmlns:xlink="http://www.w3.org/1999/xlink" x="0px" y="0px"
	 width="300px" height="300px" viewBox="0 0 300 300" enable-background="new 0 0 300 300" xml:space="preserve">
<g>
	<path fill="#FEEBDF" d="M122.05,188.976c3.828,8.423,11.101,33.688-19.523,45.556c-30.626,11.867,22.716,44.503,45.301,44.503
		s80.962-31.823,48.797-43.28c-27.946-9.953-24.501-39.174-19.523-44.152C189.558,179.151,101.646,190.396,122.05,188.976z"/>
	<path fill="#FEE6D6" d="M122.05,188.976c2.012,4.426,5.303,15.24,2.492,24.397c2.855,0.884,41.27,6.294,60.627,16.032
		c-15.488-13.014-12.031-33.841-8.068-37.804C180.73,187.973,122.05,188.976,122.05,188.976z"/>
	<path fill="#FEEBDF" d="M149.741,214.721c-9.555,0-53.493-15.642-67-61.774c-11.794-1.808-22.449-33.007-0.571-31.865
		c0-63.038,46.51-62.209,67.536-62.209c21.025,0,69.057-0.64,69.057,62.399c19.404-1.332,11.795,28.155-1.522,31.771
		C204.686,198.128,159.845,214.721,149.741,214.721z"/>
	<path fill="#FEE2D1" d="M149.741,214.721c-2.984,0-2.08-155.849,5.291-155.849c21.025,0,63.73-0.64,63.73,62.399
		c19.404-1.332,11.795,28.155-1.522,31.771C204.686,198.128,159.845,214.721,149.741,214.721z"/>
	<circle fill="#3C2415" cx="120.154" cy="132.306" r="6.342"/>
	<circle fill="#3C2415" cx="178.827" cy="132.306" r="6.342"/>
	<path fill="#FFFFFF" d="M130.556,179.017c1.768-1.05,9.703-0.233,17.946-0.189c9.196,0.047,18.756-0.592,20.228-0.19
		c2.789,0.76-2.79,13.378-19.657,13.378C132.203,192.015,128.285,180.362,130.556,179.017z"/>
	<path fill="#2E3192" d="M114.574,232.036c7.819,7.396,32.243,25.827,37.224,25.827c4.376,0,25.716-14.028,36.083-26.125
		c3.425-3.994,6.438-0.64,10.171,1.213c8.027,3.986,30.792,9.74,44.235,8.472c13.445-1.27,8.582,2.248,3.805,7.862
		c-59.354,69.754-132.153,65.695-193.029-0.761c-6.207-6.775-5.073-7.863,1.521-7.354c6.596,0.505,42.509-3.733,51.746-9.788
		C111.875,227.746,112.233,229.825,114.574,232.036z"/>
	<path fill="#FCC614" d="M79.959,122.007c-6.85-20.736-23.779-95.12,68.106-95.12c91.885,0,83.705,73.433,71.72,95.12
		c-5.137-9.512-10.844-14.648-11.795-26.253s-14.839-32.912-57.262-32.912c-42.424,0-58.404,20.546-58.404,28.536
		C92.324,99.369,86.808,116.11,79.959,122.007z"/>
	<path fill="#414042" d="M221.52,117.481c-0.095-3.044-5.795-0.328-11.225-3.043c-12.175-6.087-35.32-6.594-50.983,1.806
		c-8.776,4.708-7.42,8.466-21.497-0.475c-14.078-8.942-43.306-6.165-48.511-2.853c-6.278,3.994-10.963,0.157-11.066,3.965
		c-0.095,3.52,0.032,4.404,2.791,4.499c2.758,0.096,8.465,0.048,8.18,5.803c-0.563,11.331,7.324,27.68,27.109,27.68
		c19.784,0,24.16-14.934,26.063-22.312c1.902-7.377,13.381-8.729,15.314,0c0.952,4.302,5.485,22.312,25.873,22.312
		c24.73,0,26.823-23.019,26.918-27.68c0.096-4.661,3.71-5.897,7.515-5.897C221.806,121.286,221.614,120.525,221.52,117.481z
		 M116.793,153.151c-16.741,0-26.253-13.126-25.207-26.538s11.351-12.081,19.499-11.604c7.596,0.442,29.678,1.854,29.678,11.604
		C140.763,136.362,133.534,153.151,116.793,153.151z M183.187,153.151c-16.741,0-23.971-16.789-23.971-26.538
		c0-9.751,22.081-11.162,29.678-11.604c8.149-0.477,18.453-1.808,19.5,11.604C209.439,140.025,199.928,153.151,183.187,153.151z"/>
</g>
</svg>
