<?xml version="1.0" encoding="utf-8"?>
<!-- Generator: Adobe Illustrator 16.0.0, SVG Export Plug-In . SVG Version: 6.00 Build 0)  -->
<!DOCTYPE svg PUBLIC "-//W3C//DTD SVG 1.1//EN" "http://www.w3.org/Graphics/SVG/1.1/DTD/svg11.dtd">
<svg version="1.1" id="Calque_1" xmlns="http://www.w3.org/2000/svg" xmlns:xlink="http://www.w3.org/1999/xlink" x="0px" y="0px"
	 width="300px" height="300px" viewBox="0 0 300 300" enable-background="new 0 0 300 300" xml:space="preserve">
<g>
	<path fill="#F1D6BF" d="M122.19,189.534c3.81,8.381,11.045,33.518-19.426,45.326c-30.472,11.808,22.603,44.279,45.074,44.279
		c22.47,0,80.554-31.662,48.55-43.063c-27.806-9.903-24.378-38.979-19.425-43.93C189.358,179.759,101.889,190.946,122.19,189.534z"
		/>
	<path fill="#EECFB4" d="M122.19,189.534c2.003,4.403,5.276,15.164,2.48,24.273c2.841,0.881,41.06,6.264,60.322,15.953
		c-15.41-12.948-11.971-33.671-8.028-37.613C180.577,188.536,122.19,189.534,122.19,189.534z"/>
	<path fill="#F1D6BF" d="M149.743,215.149c-9.508,0-53.225-15.563-66.664-61.464c-11.733-1.799-22.335-32.842-0.567-31.707
		c0-62.721,46.276-61.896,67.196-61.896c20.919,0,68.709-0.637,68.709,62.086c19.308-1.325,11.736,28.014-1.515,31.611
		C204.41,198.641,159.795,215.149,149.743,215.149z"/>
	<path fill="#ECC9AA" d="M149.743,215.149c-2.97,0-2.068-155.067,5.264-155.067c20.92,0,63.41-0.637,63.41,62.086
		c19.308-1.325,11.736,28.014-1.515,31.611C204.41,198.641,159.795,215.149,149.743,215.149z"/>
	<circle fill="#3C2415" cx="120.305" cy="133.147" r="6.31"/>
	<circle fill="#3C2415" cx="178.683" cy="133.147" r="6.31"/>
	<path fill="#FFFFFF" d="M130.654,179.624c1.758-1.043,9.654-0.231,17.855-0.188c9.151,0.048,18.663-0.589,20.126-0.189
		c2.775,0.757-2.776,13.312-19.558,13.312C132.293,192.558,128.395,180.965,130.654,179.624z"/>
	<path fill="#234A5A" d="M114.752,232.38c7.78,7.356,21.458,23.111,36.594,23.499c11.858,0.303,26.028-11.762,36.345-23.798
		c3.407-3.975,6.405-0.637,10.119,1.207c7.987,3.966,30.638,9.692,44.014,8.43c13.377-1.263,8.538,2.237,3.785,7.822
		c-59.057,69.404-131.489,65.366-192.06-0.757c-6.176-6.741-5.047-7.822,1.512-7.317c6.563,0.503,42.297-3.715,51.487-9.739
		C112.067,228.109,112.422,230.179,114.752,232.38z"/>
	<path fill="#603913" d="M80.816,123.554c6.117-27.086-18.091-60.367,9.653-71.171c5.842-2.274-10.221,1.515-13.061,4.922
		c4.732-9.654,14.218-20.544,47.511-17.983c17.226,1.326-5.679-6.436-10.032-5.11c16.469-5.489,56.974-15.332,86.125,15.521
		c11.167,5.111,26.499,8.518,20.631,40.508c-5.867,31.989,2.271,38.425-2.271,34.07c-4.544-4.354-25.423-21.74-22.147-48.835
		c0.755-6.236-14.007,8.14-12.87,13.628c-2.272-6.625-2.083-13.817,2.082-17.225c4.163-3.407-14.008-5.679-47.51,27.067
		c0.567-10.41,1.703-15.899,4.731-19.685c3.028-3.786-21.956,25.175-41.075,24.606c3.597-5.679,5.776-10.426,8.14-15.711
		C113.941,80.965,89.145,105.951,80.816,123.554z"/>
	<path fill="#603913" d="M126.046,177.734c8.081,12.206-0.984,23.458,16.763,26.217c4.428,0.687,5.156-6.36,6.963-6.36
		c1.803,0,2.363,7.822,7.908,6.373c17.948-4.689,7.734-18.602,15.902-25.885c-2.995,4.801,1.287,16.503,1.375,21.146
		c0.087,4.642-1.032,14.267-23.467,14.354c-22.436,0.086-27.419-6.104-27.076-15.301
		C124.757,189.081,128.472,184.735,126.046,177.734z"/>
	<path fill="#FFFFFF" d="M151.347,255.879c0,0-26.247-0.505-42.967,6.183c2.272-10.789,4.001-32.06,4.001-32.06L151.347,255.879z"/>
	<path fill="#FFFFFF" d="M151.347,255.879c0,0,26.247-0.505,42.968,6.183c-2.271-10.789-4.001-32.06-4.001-32.06L151.347,255.879z"
		/>
	<path fill="#603913" d="M97.154,117.878c5.808-6.307,21.2-17.951,38.866-7.067c5.299,3.266,2.054,13.44-4.511,8.329
		C128.111,116.496,114.663,109.675,97.154,117.878z"/>
	<path fill="#603913" d="M202.207,117.878c-5.809-6.307-21.2-17.951-38.867-7.067c-5.3,3.266-2.054,13.44,4.512,8.329
		C171.246,116.496,184.698,109.675,202.207,117.878z"/>
</g>
</svg>
