<?xml version="1.0" encoding="utf-8"?>
<!-- Generator: Adobe Illustrator 16.0.0, SVG Export Plug-In . SVG Version: 6.00 Build 0)  -->
<!DOCTYPE svg PUBLIC "-//W3C//DTD SVG 1.1//EN" "http://www.w3.org/Graphics/SVG/1.1/DTD/svg11.dtd">
<svg version="1.1" id="Calque_1" xmlns="http://www.w3.org/2000/svg" xmlns:xlink="http://www.w3.org/1999/xlink" x="0px" y="0px"
	 width="300px" height="300px" viewBox="0 0 300 300" enable-background="new 0 0 300 300" xml:space="preserve">
<g>
	<path fill="#FEEBDF" d="M122.842,189.258c3.719,8.185,10.786,32.733-18.971,44.265c-29.758,11.531,22.072,43.242,44.018,43.242
		c21.946,0,78.668-30.92,47.414-42.054c-27.154-9.671-23.807-38.064-18.971-42.901C188.438,179.712,103.016,190.638,122.842,189.258
		z"/>
	<path fill="#FEE6D6" d="M122.842,189.258c1.955,4.301,5.152,14.809,2.422,23.706c2.773,0.859,40.1,6.116,58.91,15.578
		c-15.051-12.646-11.691-32.882-7.842-36.732C179.861,188.283,122.842,189.258,122.842,189.258z"/>
	<path fill="#FEEBDF" d="M149.75,214.273c-9.285,0-51.979-15.198-65.103-60.024c-11.459-1.756-21.813-32.072-0.555-30.963
		c0-61.252,45.192-60.445,65.623-60.445c20.43,0,67.1-0.623,67.1,60.631c18.855-1.294,11.461,27.357-1.479,30.871
		C203.137,198.151,159.566,214.273,149.75,214.273z"/>
	<path fill="#FEE2D1" d="M149.75,214.273c-2.9,0-2.021-151.433,5.141-151.433c20.43,0,61.924-0.623,61.924,60.631
		c18.855-1.294,11.461,27.357-1.479,30.871C203.137,198.151,159.566,214.273,149.75,214.273z"/>
	<path fill="#594A42" d="M78.362,76.519c0-13.31,4.991-28.282,25.509-25.51c0.186-12.569,14.402-23.737,35.307-22.736
		c38.634,1.849,38.264,27.912,56.052,28.05c17.376,0.134,11.788-14.74,10.31-16.404c10.721,5.176,24.586,12.385,24.031,32.349
		s-12.385,22.737-12.201,27.913c0.186,5.176,0.369,19.224-0.555,23.291c-3.143-5.176-5.359-14.973-5.176-17.561
		c0.186-2.589-3.516,4.595-16.268,4.26c-28.098-0.739-30.989-32.866-76.712-41.576c-7.764-1.479-19.778,14.024-20.519,21.234
		c-0.739,7.209-1.076,23.822-14.032,31.598c-2.235-4.425,0.353-15.331-0.941-20.138C81.874,96.483,78.362,89.829,78.362,76.519z"/>
	<path fill="#00AEEF" d="M219.588,120.329c-0.197-2.889-3.475-0.8-7.148-1.909s-7.547-3.544-10.967-4.376
		c-6.84-1.664-28.832-3.505-42.516,6.101c-8.957,6.286-13.614,3.571-17.376,1.108c-21.068-13.788-43.625-7.209-48.801-5.176
		c-2.167,0.853-3.676,1.776-5.915,2.343c-3.109,0.787-6.655-0.862-6.655,2.833c0,5.238,2.588,3.76,7.024,4.621
		c2.004,0.391,3.512,2.034,3.512,5.546c0,3.513,1.849,25.14,24.771,26.083c22.921,0.943,27.357-21.462,28.651-25.159
		c1.294-3.697,10.476-3.326,11.337-0.246c0.509,1.815,4.561,24.647,26.742,25.386s26.434-20.334,26.619-25.695
		c0.184-5.361,3.326-6.84,6.654-7.395C218.848,123.84,219.896,124.827,219.588,120.329z M139.116,138.556
		c-6.778,12.52-10.599,15.747-22.945,15.747c-8.726,0-18.114-4.056-22.405-17.858c-4.839-15.564,6.779-17.902,17.992-17.902
		C119.152,118.542,148.816,120.639,139.116,138.556z M205.416,136.445c-4.291,13.802-13.68,17.858-22.405,17.858
		c-12.347,0-16.167-3.227-22.945-15.747c-9.7-17.917,19.964-20.014,27.358-20.014C198.637,118.542,210.256,120.88,205.416,136.445z"
		/>
	<circle fill="#594A42" cx="121.001" cy="134.192" r="6.162"/>
	<circle fill="#594A42" cx="178.011" cy="134.192" r="6.163"/>
	<path fill="#FFFFFF" d="M131.106,180.837c1.718-1.02,9.43-0.227,17.438-0.185c8.937,0.046,18.226-0.574,19.655-0.185
		c2.711,0.739-2.711,13-19.102,13C132.708,193.468,128.901,182.146,131.106,180.837z"/>
	<path fill="#00A79D" d="M115.576,233.963c13.557,12.815,46.583,25.755,70.367-0.247c3.188-3.485,7.541-1.452,10.748,1.136
		c3.203,2.588,29.92,9.465,42.982,8.231s8.338,2.185,3.695,7.64c-57.672,67.778-128.408,63.834-187.561-0.739
		c-6.031-6.584-4.929-7.64,1.478-7.146c6.409,0.49,41.305-3.628,50.28-9.512C112.954,229.794,113.303,231.814,115.576,233.963z"/>
</g>
</svg>
