<?xml version="1.0" encoding="utf-8"?>
<!-- Generator: Adobe Illustrator 16.0.0, SVG Export Plug-In . SVG Version: 6.00 Build 0)  -->
<!DOCTYPE svg PUBLIC "-//W3C//DTD SVG 1.1//EN" "http://www.w3.org/Graphics/SVG/1.1/DTD/svg11.dtd">
<svg version="1.1" id="Calque_1" xmlns="http://www.w3.org/2000/svg" xmlns:xlink="http://www.w3.org/1999/xlink" x="0px" y="0px"
	 width="300px" height="300px" viewBox="0 0 300 300" enable-background="new 0 0 300 300" xml:space="preserve">
<g>
	<path fill="#F179AF" d="M18.592,197.044c7.721-17.821,39.844-69.552,41.142-76.495c1.307-6.937-0.778-7.699-3.811-12.257
		C52.882,103.739,2.316,16.938,0.801,4.57C-0.721-7.8,12.524,7.606,18.811,13.466c6.29,5.854,47.958,54.254,53.167,60.332
		c5.207,6.071,5.857,2.166,8.685-0.876c2.818-3.036,20.396-19.092,27.557-22.348c7.163-3.25,13.886-10.854,41.229,5.209
		c25.227,14.815,31.886,7.405,47.523-0.439c6.074-3.044,4.069,4.004,2.175,9.339c-3.476,9.76-12.809,13.443-5.43,19.093
		c9.035,6.917,23.875,26.911,27.563,42.97c3.688,16.051,8.632,23.273,40.235,19.112c13.367-1.759-3.997,12.35-8.554,18.209
		s-1.302,6.509,3.256,7.813c4.556,1.301,16.433,4.987,19.722,6.727c3.288,1.73,3.003,4.554-1.093,8.021
		c-4.094,3.48-18.192,13.684-22.1,14.762c-3.905,1.087-4.77,5.212-2.821,8.469c1.952,3.26,28.054,33.767,45.575,37.54
		c8.048,1.729,1.516,4.766-2.604,7.165c-4.13,2.385-15.868,9.603-24.525,10.198c-3.215,0.215-2.176,3.474-1.738,6.723
		c0.431,3.252,2.171,19.323,2.171,21.268c0,1.956,0.434,5.213-4.776,1.956c-5.207-3.254-31.463-10.858-57.504-6.947
		c-26.039,3.905-50.188,19.643-82.028,8.326c-3.609-1.277-1.307-3.112,0.651-7.89c1.954-4.77,15.854-49.908-3.907-74.002
		c-8.898-10.848-20.313,7.96-33.552,13.825c-5.01,8.122-13.32,40.637-56.289,22.414C7.423,240.261,10.129,216.576,18.592,197.044z"
		/>
	
		<path fill="none" stroke="#FFFFFF" stroke-width="7.8123" stroke-linecap="round" stroke-linejoin="round" stroke-miterlimit="10" d="
		M239.979,292.206c0,0-6.739,11.393-8.361-25.06c-1.633-36.453-40.923-22.119-39.412-49.418c2.604-46.873-34.458-22.474-34.6-59.892
		c-0.123-31.315-24.217-19.165-28.36-56.126c-7.051,6.855-34.048,12.659-13.215,58.663c-11.759,3.097-52.793-48.989-37.79-90.488"/>
</g>
</svg>
