<?xml version="1.0" encoding="utf-8"?>
<!-- Generator: Adobe Illustrator 16.0.0, SVG Export Plug-In . SVG Version: 6.00 Build 0)  -->
<!DOCTYPE svg PUBLIC "-//W3C//DTD SVG 1.1//EN" "http://www.w3.org/Graphics/SVG/1.1/DTD/svg11.dtd">
<svg version="1.1" id="Calque_1" xmlns="http://www.w3.org/2000/svg" xmlns:xlink="http://www.w3.org/1999/xlink" x="0px" y="0px"
	 width="300px" height="300px" viewBox="0 0 300 300" enable-background="new 0 0 300 300" xml:space="preserve">
<g>
	<path fill="#BE1E2D" d="M174.771,101.768c5.95-15.044,24.999-17.081,24.999-30.456c0-13.374-1.557-14.583-2.54-16.678
		c3.278,0.967,7.377,7.977,8.032,10.313c2.734-28.764-9.289-56.802-41.886-64.859c19.182,2.659,35.902,3.625,53.937,35.612
		c0.246-9.104,1.967-16.114,9.344-20.062c-7.076,15.067,8.28,35.773,6.229,45.845c4.755-5.721,7.952-8.138,12.542-9.588
		c-8.907,11.252-13.715,43.267-18.852,53.58c6.447-4.082,16.612-4.297,21.313-1.825c-10.056,0.106-22.188,23.312-34.646,35.343
		c-12.46,12.033-32.134,18.798-40.767,26.21c-12.782,10.975-20.439,23.098-17.16,41.469c-5.9-5.586-9.508-12.998-9.07-19.551
		c-2.732,12.031,2.842,19.014,2.295,28.467s-2.95,16.65-8.525,21.162c10.82-28.682-13.554-30.83-8.523-55.324
		c14.408-3.197,38.53-19.525,46.214-41.981C184.317,120.123,180.675,109.88,174.771,101.768z"/>
	<linearGradient id="SVGID_1_" gradientUnits="userSpaceOnUse" x1="51.7075" y1="96.7324" x2="168.7122" y2="96.7324">
		<stop  offset="0" style="stop-color:#F15A29"/>
		<stop  offset="0.1397" style="stop-color:#E4502B"/>
		<stop  offset="0.668" style="stop-color:#C82D2D"/>
		<stop  offset="0.9653" style="stop-color:#BE1E2D"/>
	</linearGradient>
	<path fill="url(#SVGID_1_)" d="M160.426,84.285c4.918-4.19,6.543-11.199,7.28-17.726c-3.83,1.168-6.574,3.953-7.788,5.64
		c-15.9-4.432-11.705,20.707-24.329,18.128c4.017,5.317,8.442,5.559,11.805,4.995c-0.246,0.887-1.039,1.624-3.252,1.854
		c1.585,1.397,3.58,0.563,4.646,0.16c-0.164,0.888-1.394,1.318-3.171,1.531c1.394,1.398,3.99,0.483,5.138,0.241
		c-0.164,0.727-2.295,1.183-4.126,1.344c1.913,1.425,3.962,0.752,5.191,0.51c-0.41,0.484-1.449,1.021-2.679,1.183
		c1.368,1.021,2.351,0.429,5.138,0.913c1.312,4.188,0.328,12.245-5.082,16.597c-2.459-37.546-50.493-18.208-55.575-55.754
		c-1.476,1.934-2.623,3.062-3.278,9.991c-17.215-19.66-14.756-39.319-2.623-58.656C57.227,42.469,66.734,65.351,74.768,80.82
		C60.014,69.701,60.505,61.645,60.833,39.084c-16.721,42.058,9.18,57.527,18.361,64.456c-8.361-5.316-20.164-10.474-27.05-24.17
		c-1.312,30.939,36.066,40.928,45.083,50.437c-16.702-5.463-21.627-8.797-39.018-22.883c3.443,22.561,19.344,30.94,35.247,37.708
		c15.903,6.768,27.87,17.563,35.493,33.596c35.492-9.99,47.379-41.653,48.69-56.721C178.952,106.441,160.345,93.711,160.426,84.285z
		 M153.186,78.994c-1.913,1.289-5.312,3.324-4.153,2.041c1.648-1.826,3.771-3.707,4.863-5.962c-0.601,1.559-0.874,2.149-0.601,2.417
		C153.567,77.758,155.1,77.705,153.186,78.994z"/>
	<path fill="#EF4136" d="M150.754,207.252c17.915,19.232-5.746,28.416,8.373,50.824
		C132.931,239.623,157.263,225.791,150.754,207.252z"/>
	<path fill="#F7941E" d="M151.505,259.873c-3.742-6.969-10.29-11.738-7.494-24.811c-13.014,21.221,5.424,41.135-2.184,64.85
		c5.9-13.111,9.251-21.432,7.028-34.203c4.24,10.148,5.119,11.293,4.882,19.75C156.838,268.512,154.688,265.805,151.505,259.873z"/>
	<path fill="#F15A29" d="M132.035,202.635c21.658,30.086-5.737,26.506,4.646,77.826C111.639,233.434,144.473,230.02,132.035,202.635
		z"/>
</g>
</svg>
