<?xml version="1.0" encoding="utf-8"?>
<!-- Generator: Adobe Illustrator 16.0.0, SVG Export Plug-In . SVG Version: 6.00 Build 0)  -->
<!DOCTYPE svg PUBLIC "-//W3C//DTD SVG 1.1//EN" "http://www.w3.org/Graphics/SVG/1.1/DTD/svg11.dtd">
<svg version="1.1" id="Calque_1" xmlns="http://www.w3.org/2000/svg" xmlns:xlink="http://www.w3.org/1999/xlink" x="0px" y="0px"
	 width="300px" height="300px" viewBox="0 0 300 300" enable-background="new 0 0 300 300" xml:space="preserve">
<g>
	<path fill="#F57F29" d="M150,291.982c0-72.012-57.768-147.345-150-158.012C0,93.835,7.566,16.638,55.101,0.832
		c17.716,31.831,19.132,45.139,31.333,70.766c27.632-13.751,102.382-15.251,127.133,0c12-24.96,20-43.96,31.333-70.766
		C300,39.502,300,93.835,300,133.971C207.768,144.638,150,219.971,150,291.982z"/>
	<path d="M161.339,288.662c0-6.262-22.678-6.262-22.678,0S143.869,298.322,150,300C156.786,298.031,161.339,294.924,161.339,288.662
		z"/>
	<circle cx="235.566" cy="222.768" r="11.798"/>
	<circle cx="64.434" cy="222.768" r="11.798"/>
</g>
</svg>
