<?xml version="1.0" encoding="utf-8"?>
<!-- Generator: Adobe Illustrator 16.0.0, SVG Export Plug-In . SVG Version: 6.00 Build 0)  -->
<!DOCTYPE svg PUBLIC "-//W3C//DTD SVG 1.1//EN" "http://www.w3.org/Graphics/SVG/1.1/DTD/svg11.dtd">
<svg version="1.1" id="Calque_1" xmlns="http://www.w3.org/2000/svg" xmlns:xlink="http://www.w3.org/1999/xlink" x="0px" y="0px"
	 width="300px" height="300px" viewBox="0 0 300 300" enable-background="new 0 0 300 300" xml:space="preserve">
<g>
	<g>
		<path fill="#00AEEF" d="M215.326,287.178c-4.434,4.863-8.966,9.199-13.587,12.821h21.748
			C223.487,294.324,220.144,289.441,215.326,287.178z"/>
		<path fill="#005BA3" d="M208.016,294.607c0.429,0.038,0.86,0.064,1.299,0.064c7.827,0,14.173-6.346,14.173-14.173
			c0-0.909-0.094-1.796-0.258-2.657C218.295,284.084,213.217,289.759,208.016,294.607z"/>
		<path fill="#1C75BC" d="M241.042,299.999c-1.081-6.756-6.918-11.923-13.978-11.923s-12.898,5.167-13.979,11.923H241.042z"/>
		<path fill="#00AEEF" d="M230.064,294.672c7.827,0,14.173-6.346,14.173-14.173c0-7.278-5.489-13.269-12.552-14.074
			c-4.804,6.883-9.764,13.335-14.863,19.094C218.852,290.865,224.008,294.672,230.064,294.672z"/>
		<path fill="#005BA3" d="M263.487,296.499c0-7.827-6.346-14.173-14.173-14.173s-14.174,6.346-14.174,14.173
			c0,1.21,0.168,2.378,0.453,3.5h27.44C263.319,298.877,263.487,297.709,263.487,296.499z"/>
		<path fill="#005BA3" d="M228.391,273.922c7.827,0,14.173-6.346,14.173-14.173c0-2.548-0.682-4.933-1.858-6.999
			c-4.609,7.361-9.393,14.452-14.329,21.013C227.036,273.857,227.705,273.922,228.391,273.922z"/>
		<circle fill="#1C75BC" cx="246.992" cy="277.172" r="14.173"/>
		<path fill="#00AEEF" d="M282.665,294.672c0-7.827-6.346-14.173-14.173-14.173s-14.174,6.346-14.174,14.173
			c0,1.886,0.376,3.682,1.045,5.327h26.258C282.289,298.354,282.665,296.558,282.665,294.672z"/>
		<path fill="#704A9E" d="M249.314,270.346c7.827,0,14.173-6.346,14.173-14.174c0-7.827-6.346-14.173-14.173-14.173
			c-0.752,0-1.485,0.075-2.207,0.188c-3.653,6.219-7.434,12.335-11.325,18.211C237.58,266.162,242.959,270.346,249.314,270.346z"/>
		<circle fill="#005BA3" cx="268.492" cy="276.172" r="14.173"/>
		<path fill="#1C75BC" d="M300,291.525c-2.017-5.371-7.184-9.199-13.258-9.199c-7.827,0-14.174,6.346-14.174,14.173
			c0,1.21,0.168,2.378,0.453,3.5H300V291.525z"/>
		<path fill="#005BA3" d="M249.314,251.326c7.827,0,14.173-6.346,14.173-14.174c0-5.098-2.699-9.553-6.737-12.05
			c-4.482,8.233-9.198,16.522-14.122,24.546C244.62,250.717,246.896,251.326,249.314,251.326z"/>
		<circle fill="#1C75BC" cx="270.318" cy="255.152" r="14.173"/>
		<path fill="#00AEEF" d="M300,269.955c-2.47-4.16-6.994-6.956-12.182-6.956c-7.827,0-14.174,6.346-14.174,14.173
			c0,7.828,6.347,14.174,14.174,14.174c5.188,0,9.712-2.797,12.182-6.955V269.955z"/>
		<path fill="#005BA3" d="M300,280.457c-3.119,2.6-5.105,6.512-5.105,10.889c0,3.262,1.113,6.258,2.966,8.653H300V280.457z"/>
		<path fill="#1C75BC" d="M250.891,237.172c7.827,0,14.173-6.346,14.173-14.173c0-3.12-1.021-5.995-2.729-8.336
			c-3.899,7.406-8.005,14.978-12.294,22.466C250.323,237.146,250.604,237.172,250.891,237.172z"/>
		<circle fill="#00AEEF" cx="269.492" cy="240.422" r="14.173"/>
		<path fill="#005BA3" d="M300,246.98c-2.449-2.02-5.587-3.231-9.008-3.231c-7.827,0-14.174,6.346-14.174,14.173
			c0,7.828,6.347,14.174,14.174,14.174c3.421,0,6.559-1.213,9.008-3.23V246.98z"/>
		<path fill="#005BA3" d="M271.814,233.596c7.827,0,14.173-6.346,14.173-14.174c0-7.827-6.346-14.173-14.173-14.173
			c-1.789,0-3.493,0.345-5.069,0.95c-2.786,5.396-5.688,10.936-8.703,16.521C259.53,228.954,265.125,233.596,271.814,233.596z"/>
		<path fill="#1C75BC" d="M300,228.48c-2.449-2.02-5.587-3.231-9.008-3.231c-7.827,0-14.174,6.346-14.174,14.173
			c0,7.828,6.347,14.174,14.174,14.174c3.421,0,6.559-1.213,9.008-3.23V228.48z"/>
		<path fill="#704A9E" d="M300,249.018c-3.016,2.6-4.932,6.438-4.932,10.731s1.916,8.132,4.932,10.731V249.018z"/>
		<path fill="#1C75BC" d="M271.814,214.576c7.827,0,14.173-6.346,14.173-14.174c0-6.176-3.957-11.414-9.468-13.356
			c-3.95,7.771-8.229,16.235-12.802,24.98C266.015,213.629,268.803,214.576,271.814,214.576z"/>
		<path fill="#00AEEF" d="M300,206.199c-2.107-1.244-4.557-1.971-7.182-1.971c-7.827,0-14.174,6.346-14.174,14.174
			s6.347,14.174,14.174,14.174c2.625,0,5.074-0.727,7.182-1.971V206.199z"/>
		<path fill="#00AEEF" d="M300,250.119v-19.393c-2.385,2.535-3.855,5.94-3.855,9.695C296.145,244.178,297.615,247.582,300,250.119z"
			/>
		<path fill="#704A9E" d="M286.45,179.152c0-2.699-0.768-5.212-2.077-7.359c-3.353,6.361-7.034,13.643-11.016,21.479
			C280.678,192.718,286.45,186.615,286.45,179.152z"/>
		<path fill="#005BA3" d="M300,185.735c-2.466-2.077-5.646-3.333-9.121-3.333c-7.827,0-14.174,6.346-14.174,14.174
			c0,7.827,6.347,14.173,14.174,14.173c3.476,0,6.655-1.256,9.121-3.333V185.735z"/>
		<path fill="#704A9E" d="M300,220.97v-13.788c-1.14,2.041-1.795,4.391-1.795,6.895S298.86,218.928,300,220.97z"/>
		<path fill="#00AEEF" d="M300,201.547v-13.789c-1.14,2.042-1.795,4.391-1.795,6.895S298.86,199.505,300,201.547z"/>
		<path fill="#1C75BC" d="M300,163.139c-2.019-1.105-4.335-1.736-6.799-1.736c-1.169,0-2.299,0.157-3.386,0.424
			c-2.968,5.181-6.282,11.5-9.919,18.598c1.982,5.436,7.184,9.325,13.305,9.325c2.464,0,4.78-0.631,6.799-1.737V163.139z"/>
		<path fill="#00AEEF" d="M285.993,168.744c2.114,1.252,4.573,1.984,7.208,1.984c2.464,0,4.78-0.631,6.799-1.736v-21.047
			C296.532,150.254,291.801,157.914,285.993,168.744z"/>
	</g>
	<g>
		<radialGradient id="SVGID_1_" cx="120.625" cy="233.334" r="248.1005" gradientUnits="userSpaceOnUse">
			<stop  offset="0" style="stop-color:#00AEEF"/>
			<stop  offset="1" style="stop-color:#1C75BC"/>
		</radialGradient>
		<path fill="url(#SVGID_1_)" d="M1.979,108.061c0-62.727,18.06-84.463,22.687-91.928s8.699-2.834,12.265,6.012
			C72.072,109.333,109.292,64,122.688,152.737c13.27-87.403,43.512-38.55,92.391-147.31c4.213-8.76,13.175-7.418,18.015,10.914
			s12.931,44.149,13.897,78.571s-5.699,74.588-42.649,116.144c-34.537,38.842-54.946,72.942-36.998,88.943H93.073
			C49.292,286.732,1.979,185.334,1.979,108.061z"/>
		<g opacity="0.75">
			<path opacity="0.6" fill="none" stroke="#FFFFFF" stroke-width="2" stroke-linecap="round" stroke-miterlimit="10" d="
				M148.278,299.998C155.447,177.57,267.267,181.25,223.125,27"/>
			<path opacity="0.6" fill="none" stroke="#FFFFFF" stroke-width="2" stroke-linecap="round" stroke-miterlimit="10" d="M28.625,39
				c-18.774,76.086,6.604,177.558,92.73,261"/>
			<path opacity="0.6" fill="none" stroke="#FFFFFF" stroke-width="2" stroke-linecap="round" stroke-miterlimit="10" d="M42.125,87
				c0,66,35.36,132.896,86.5,190.948c7.5-67.448,99-150.948,85-187.948"/>
			<path opacity="0.6" fill="none" stroke="#FFFFFF" stroke-width="2" stroke-linecap="round" stroke-miterlimit="10" d="
				M71.625,123c4,32,39,99,50.5,108.5c4-24.5,50.5-97,60.5-108.5"/>
			<path opacity="0.6" fill="none" stroke="#FFFFFF" stroke-width="2" stroke-linecap="round" stroke-miterlimit="10" d="M64.625,95
				c27.5,10.5,54,64.5,56.5,109c13.25-56,49.5-133.04,93.954-133.04"/>
		</g>
	</g>
</g>
</svg>
