<?xml version="1.0" encoding="utf-8"?>
<!-- Generator: Adobe Illustrator 16.0.0, SVG Export Plug-In . SVG Version: 6.00 Build 0)  -->
<!DOCTYPE svg PUBLIC "-//W3C//DTD SVG 1.1//EN" "http://www.w3.org/Graphics/SVG/1.1/DTD/svg11.dtd">
<svg version="1.1" id="Calque_1" xmlns="http://www.w3.org/2000/svg" xmlns:xlink="http://www.w3.org/1999/xlink" x="0px" y="0px"
	 width="300px" height="52.5px" viewBox="0 81.75 300 52.5" enable-background="new 0 81.75 300 52.5" xml:space="preserve">
<polygon fill="#37B34A" stroke="#D70A8B" stroke-width="3" stroke-linecap="round" stroke-linejoin="round" stroke-miterlimit="10" points="
	26.521,84.039 34.347,99.896 51.847,102.438 39.184,114.784 42.173,132.211 26.521,123.982 10.87,132.211 13.859,114.784 
	1.197,102.438 18.696,99.896 "/>
<polygon fill="none" stroke="#D70A8B" stroke-width="3" stroke-linecap="round" stroke-linejoin="round" stroke-miterlimit="10" points="
	88.269,84.039 96.094,99.896 113.594,102.438 100.931,114.784 103.92,132.211 88.269,123.982 72.617,132.211 75.606,114.784 
	62.945,102.438 80.443,99.896 "/>
<polygon fill="none" stroke="#D70A8B" stroke-width="3" stroke-linecap="round" stroke-linejoin="round" stroke-miterlimit="10" points="
	150.015,84.039 157.842,99.896 175.342,102.438 162.678,114.784 165.668,132.211 150.015,123.982 134.364,132.211 137.353,114.784 
	124.691,102.438 142.189,99.896 "/>
<polygon fill="none" stroke="#D70A8B" stroke-width="3" stroke-linecap="round" stroke-linejoin="round" stroke-miterlimit="10" points="
	211.764,84.039 219.588,99.896 237.088,102.438 224.426,114.784 227.414,132.211 211.764,123.982 196.112,132.211 199.1,114.784 
	186.438,102.438 203.936,99.896 "/>
<polygon fill="none" stroke="#D70A8B" stroke-width="3" stroke-linecap="round" stroke-linejoin="round" stroke-miterlimit="10" points="
	273.51,84.039 281.334,99.896 298.834,102.438 286.174,114.784 289.162,132.211 273.51,123.982 257.86,132.211 260.848,114.784 
	248.186,102.438 265.684,99.896 "/>
</svg>
