<?xml version="1.0" encoding="utf-8"?>
<!-- Generator: Adobe Illustrator 16.0.0, SVG Export Plug-In . SVG Version: 6.00 Build 0)  -->
<!DOCTYPE svg PUBLIC "-//W3C//DTD SVG 1.1//EN" "http://www.w3.org/Graphics/SVG/1.1/DTD/svg11.dtd">
<svg version="1.1" id="Calque_1" xmlns="http://www.w3.org/2000/svg" xmlns:xlink="http://www.w3.org/1999/xlink" x="0px" y="0px"
	 width="300px" height="52.5px" viewBox="0 0 300 52.5" enable-background="new 0 0 300 52.5" xml:space="preserve">
<polygon fill="#231F20" stroke="#BBBDBF" stroke-width="3" stroke-linecap="round" stroke-linejoin="round" stroke-miterlimit="10" points="
	26.519,2.159 34.345,18.017 51.845,20.559 39.182,32.903 42.171,50.33 26.519,42.102 10.868,50.33 13.857,32.903 1.195,20.559 
	18.694,18.017 "/>
<polygon fill="none" stroke="#BBBDBF" stroke-width="3" stroke-linecap="round" stroke-linejoin="round" stroke-miterlimit="10" points="
	88.267,2.159 96.092,18.017 113.592,20.559 100.929,32.903 103.918,50.33 88.267,42.102 72.615,50.33 75.604,32.903 62.943,20.559 
	80.441,18.017 "/>
<polygon fill="none" stroke="#BBBDBF" stroke-width="3" stroke-linecap="round" stroke-linejoin="round" stroke-miterlimit="10" points="
	150.014,2.159 157.84,18.017 175.34,20.559 162.676,32.903 165.666,50.33 150.014,42.102 134.362,50.33 137.351,32.903 
	124.689,20.559 142.187,18.017 "/>
<polygon fill="none" stroke="#BBBDBF" stroke-width="3" stroke-linecap="round" stroke-linejoin="round" stroke-miterlimit="10" points="
	211.762,2.159 219.586,18.017 237.086,20.559 224.424,32.903 227.412,50.33 211.762,42.102 196.11,50.33 199.098,32.903 
	186.436,20.559 203.934,18.017 "/>
<polygon fill="none" stroke="#BBBDBF" stroke-width="3" stroke-linecap="round" stroke-linejoin="round" stroke-miterlimit="10" points="
	273.508,2.159 281.332,18.017 298.832,20.559 286.172,32.903 289.16,50.33 273.508,42.102 257.858,50.33 260.846,32.903 
	248.184,20.559 265.682,18.017 "/>
</svg>
