<?xml version="1.0" encoding="utf-8"?>
<!-- Generator: Adobe Illustrator 16.0.0, SVG Export Plug-In . SVG Version: 6.00 Build 0)  -->
<!DOCTYPE svg PUBLIC "-//W3C//DTD SVG 1.1//EN" "http://www.w3.org/Graphics/SVG/1.1/DTD/svg11.dtd">
<svg version="1.1" id="Calque_1" xmlns="http://www.w3.org/2000/svg" xmlns:xlink="http://www.w3.org/1999/xlink" x="0px" y="0px"
	 width="300px" height="52.5px" viewBox="0 0 300 52.5" enable-background="new 0 0 300 52.5" xml:space="preserve">
<polygon fill="none" stroke="#8BC53F" stroke-width="3" stroke-linecap="round" stroke-linejoin="round" stroke-miterlimit="10" points="
	26.53,2.156 34.356,18.014 51.856,20.556 39.193,32.9 42.182,50.327 26.53,42.099 10.879,50.327 13.868,32.9 1.205,20.556 
	18.704,18.014 "/>
<polygon fill="none" stroke="#8BC53F" stroke-width="3" stroke-linecap="round" stroke-linejoin="round" stroke-miterlimit="10" points="
	88.278,2.156 96.103,18.014 113.603,20.556 100.94,32.9 103.929,50.327 88.278,42.099 72.626,50.327 75.615,32.9 62.953,20.556 
	80.451,18.014 "/>
<polygon fill="none" stroke="#8BC53F" stroke-width="3" stroke-linecap="round" stroke-linejoin="round" stroke-miterlimit="10" points="
	150.024,2.156 157.85,18.014 175.35,20.556 162.686,32.9 165.676,50.327 150.024,42.099 134.373,50.327 137.362,32.9 
	124.699,20.556 142.198,18.014 "/>
<polygon fill="none" stroke="#8BC53F" stroke-width="3" stroke-linecap="round" stroke-linejoin="round" stroke-miterlimit="10" points="
	211.772,2.156 219.596,18.014 237.096,20.556 224.434,32.9 227.422,50.327 211.772,42.099 196.119,50.327 199.108,32.9 
	186.446,20.556 203.944,18.014 "/>
<polygon fill="none" stroke="#8BC53F" stroke-width="3" stroke-linecap="round" stroke-linejoin="round" stroke-miterlimit="10" points="
	273.518,2.156 281.342,18.014 298.842,20.556 286.182,32.9 289.17,50.327 273.518,42.099 257.867,50.327 260.856,32.9 
	248.194,20.556 265.692,18.014 "/>
</svg>
