<?xml version="1.0" encoding="utf-8"?>
<!-- Generator: Adobe Illustrator 16.0.0, SVG Export Plug-In . SVG Version: 6.00 Build 0)  -->
<!DOCTYPE svg PUBLIC "-//W3C//DTD SVG 1.1//EN" "http://www.w3.org/Graphics/SVG/1.1/DTD/svg11.dtd">
<svg version="1.1" id="Calque_1" xmlns="http://www.w3.org/2000/svg" xmlns:xlink="http://www.w3.org/1999/xlink" x="0px" y="0px"
	 width="300px" height="52.5px" viewBox="0 0 300 52.5" enable-background="new 0 0 300 52.5" xml:space="preserve">
<polygon fill="none" stroke="#6DCEF5" stroke-width="3" stroke-linecap="round" stroke-linejoin="round" stroke-miterlimit="10" points="
	26.521,2.165 34.347,18.022 51.847,20.564 39.184,32.908 42.173,50.336 26.521,42.107 10.87,50.336 13.859,32.908 1.197,20.564 
	18.696,18.022 "/>
<polygon fill="none" stroke="#6DCEF5" stroke-width="3" stroke-linecap="round" stroke-linejoin="round" stroke-miterlimit="10" points="
	88.269,2.165 96.094,18.022 113.594,20.564 100.931,32.908 103.92,50.336 88.269,42.107 72.617,50.336 75.606,32.908 62.945,20.564 
	80.443,18.022 "/>
<polygon fill="none" stroke="#6DCEF5" stroke-width="3" stroke-linecap="round" stroke-linejoin="round" stroke-miterlimit="10" points="
	150.015,2.165 157.842,18.022 175.342,20.564 162.678,32.908 165.668,50.336 150.015,42.107 134.364,50.336 137.353,32.908 
	124.691,20.564 142.189,18.022 "/>
<polygon fill="none" stroke="#6DCEF5" stroke-width="3" stroke-linecap="round" stroke-linejoin="round" stroke-miterlimit="10" points="
	211.764,2.165 219.588,18.022 237.088,20.564 224.426,32.908 227.414,50.336 211.764,42.107 196.112,50.336 199.1,32.908 
	186.438,20.564 203.936,18.022 "/>
<polygon fill="none" stroke="#6DCEF5" stroke-width="3" stroke-linecap="round" stroke-linejoin="round" stroke-miterlimit="10" points="
	273.51,2.165 281.334,18.022 298.834,20.564 286.174,32.908 289.162,50.336 273.51,42.107 257.86,50.336 260.848,32.908 
	248.186,20.564 265.684,18.022 "/>
</svg>
