<?xml version="1.0" encoding="utf-8"?>
<!-- Generator: Adobe Illustrator 16.0.0, SVG Export Plug-In . SVG Version: 6.00 Build 0)  -->
<!DOCTYPE svg PUBLIC "-//W3C//DTD SVG 1.1//EN" "http://www.w3.org/Graphics/SVG/1.1/DTD/svg11.dtd">
<svg version="1.1" id="Calque_1" xmlns="http://www.w3.org/2000/svg" xmlns:xlink="http://www.w3.org/1999/xlink" x="0px" y="0px"
	 width="300px" height="52.5px" viewBox="0 0 300 52.5" enable-background="new 0 0 300 52.5" xml:space="preserve">
<polygon fill="#37B34A" stroke="#D70A8B" stroke-width="3" stroke-linecap="round" stroke-linejoin="round" stroke-miterlimit="10" points="
	26.521,2.164 34.347,18.021 51.847,20.563 39.184,32.909 42.173,50.336 26.521,42.107 10.87,50.336 13.859,32.909 1.197,20.563 
	18.696,18.021 "/>
<polygon fill="#37B34A" stroke="#D70A8B" stroke-width="3" stroke-linecap="round" stroke-linejoin="round" stroke-miterlimit="10" points="
	88.269,2.164 96.094,18.021 113.594,20.563 100.931,32.909 103.92,50.336 88.269,42.107 72.617,50.336 75.606,32.909 62.945,20.563 
	80.443,18.021 "/>
<polygon fill="#37B34A" stroke="#D70A8B" stroke-width="3" stroke-linecap="round" stroke-linejoin="round" stroke-miterlimit="10" points="
	150.015,2.164 157.842,18.021 175.342,20.563 162.678,32.909 165.668,50.336 150.015,42.107 134.364,50.336 137.353,32.909 
	124.691,20.563 142.189,18.021 "/>
<polygon fill="#37B34A" stroke="#D70A8B" stroke-width="3" stroke-linecap="round" stroke-linejoin="round" stroke-miterlimit="10" points="
	211.764,2.164 219.588,18.021 237.088,20.563 224.426,32.909 227.414,50.336 211.764,42.107 196.112,50.336 199.1,32.909 
	186.438,20.563 203.936,18.021 "/>
<polygon fill="#37B34A" stroke="#D70A8B" stroke-width="3" stroke-linecap="round" stroke-linejoin="round" stroke-miterlimit="10" points="
	273.51,2.164 281.334,18.021 298.834,20.563 286.174,32.909 289.162,50.336 273.51,42.107 257.86,50.336 260.848,32.909 
	248.186,20.563 265.684,18.021 "/>
</svg>
