<?xml version="1.0" encoding="utf-8"?>
<!-- Generator: Adobe Illustrator 16.0.0, SVG Export Plug-In . SVG Version: 6.00 Build 0)  -->
<!DOCTYPE svg PUBLIC "-//W3C//DTD SVG 1.1//EN" "http://www.w3.org/Graphics/SVG/1.1/DTD/svg11.dtd">
<svg version="1.1" id="Calque_1" xmlns="http://www.w3.org/2000/svg" xmlns:xlink="http://www.w3.org/1999/xlink" x="0px" y="0px"
	 width="300px" height="52.5px" viewBox="0 81.75 300 52.5" enable-background="new 0 81.75 300 52.5" xml:space="preserve">
<polygon fill="#FFCA05" stroke="#007DB9" stroke-width="3" stroke-linecap="round" stroke-linejoin="round" stroke-miterlimit="10" points="
	26.516,84.039 34.342,99.896 51.842,102.438 39.179,114.783 42.168,132.209 26.516,123.98 10.865,132.209 13.854,114.783 
	1.191,102.438 18.69,99.896 "/>
<polygon fill="#FFCA05" stroke="#007DB9" stroke-width="3" stroke-linecap="round" stroke-linejoin="round" stroke-miterlimit="10" points="
	88.263,84.039 96.089,99.896 113.589,102.438 100.926,114.783 103.915,132.209 88.263,123.98 72.612,132.209 75.601,114.783 
	62.939,102.438 80.437,99.896 "/>
<polygon fill="#FFCA05" stroke="#007DB9" stroke-width="3" stroke-linecap="round" stroke-linejoin="round" stroke-miterlimit="10" points="
	150.01,84.039 157.836,99.896 175.336,102.438 162.672,114.783 165.662,132.209 150.01,123.98 134.359,132.209 137.348,114.783 
	124.685,102.438 142.184,99.896 "/>
<polygon fill="none" stroke="#007DB9" stroke-width="3" stroke-linecap="round" stroke-linejoin="round" stroke-miterlimit="10" points="
	211.758,84.039 219.582,99.896 237.082,102.438 224.42,114.783 227.408,132.209 211.758,123.98 196.106,132.209 199.094,114.783 
	186.432,102.438 203.93,99.896 "/>
<polygon fill="none" stroke="#007DB9" stroke-width="3" stroke-linecap="round" stroke-linejoin="round" stroke-miterlimit="10" points="
	273.504,84.039 281.328,99.896 298.828,102.438 286.168,114.783 289.156,132.209 273.504,123.98 257.854,132.209 260.842,114.783 
	248.18,102.438 265.678,99.896 "/>
</svg>
