<?xml version="1.0" encoding="utf-8"?>
<!-- Generator: Adobe Illustrator 16.0.0, SVG Export Plug-In . SVG Version: 6.00 Build 0)  -->
<!DOCTYPE svg PUBLIC "-//W3C//DTD SVG 1.1//EN" "http://www.w3.org/Graphics/SVG/1.1/DTD/svg11.dtd">
<svg version="1.1" id="Calque_1" xmlns="http://www.w3.org/2000/svg" xmlns:xlink="http://www.w3.org/1999/xlink" x="0px" y="0px"
	 width="300px" height="52.5px" viewBox="0 81.75 300 52.5" enable-background="new 0 81.75 300 52.5" xml:space="preserve">
<polygon fill="none" stroke="#652D90" stroke-width="3" stroke-linecap="round" stroke-linejoin="round" stroke-miterlimit="10" points="
	26.506,84.033 34.332,99.891 51.832,102.433 39.169,114.777 42.158,132.204 26.506,123.976 10.855,132.204 13.844,114.777 
	1.181,102.433 18.68,99.891 "/>
<polygon fill="none" stroke="#652D90" stroke-width="3" stroke-linecap="round" stroke-linejoin="round" stroke-miterlimit="10" points="
	88.254,84.033 96.079,99.891 113.579,102.433 100.916,114.777 103.905,132.204 88.254,123.976 72.602,132.204 75.591,114.777 
	62.929,102.433 80.427,99.891 "/>
<polygon fill="none" stroke="#652D90" stroke-width="3" stroke-linecap="round" stroke-linejoin="round" stroke-miterlimit="10" points="
	150,84.033 157.826,99.891 175.326,102.433 162.662,114.777 165.653,132.204 150,123.976 134.349,132.204 137.338,114.777 
	124.676,102.433 142.174,99.891 "/>
<polygon fill="none" stroke="#652D90" stroke-width="3" stroke-linecap="round" stroke-linejoin="round" stroke-miterlimit="10" points="
	211.748,84.033 219.573,99.891 237.073,102.433 224.41,114.777 227.399,132.204 211.748,123.976 196.096,132.204 199.084,114.777 
	186.422,102.433 203.92,99.891 "/>
<polygon fill="none" stroke="#652D90" stroke-width="3" stroke-linecap="round" stroke-linejoin="round" stroke-miterlimit="10" points="
	273.494,84.033 281.319,99.891 298.819,102.433 286.158,114.777 289.147,132.204 273.494,123.976 257.844,132.204 260.832,114.777 
	248.17,102.433 265.668,99.891 "/>
</svg>
