<?xml version="1.0" encoding="utf-8"?>
<!-- Generator: Adobe Illustrator 16.0.0, SVG Export Plug-In . SVG Version: 6.00 Build 0)  -->
<!DOCTYPE svg PUBLIC "-//W3C//DTD SVG 1.1//EN" "http://www.w3.org/Graphics/SVG/1.1/DTD/svg11.dtd">
<svg version="1.1" id="Calque_1" xmlns="http://www.w3.org/2000/svg" xmlns:xlink="http://www.w3.org/1999/xlink" x="0px" y="0px"
	 width="277.5px" height="299.99px" viewBox="13.495 0 277.5 299.99" enable-background="new 13.495 0 277.5 299.99"
	 xml:space="preserve">
<g>
	<g>
		<polygon fill="#0A4E9B" points="23.457,87.375 87.288,54.919 213.596,96.075 274.93,216.694 127.368,291.727 		"/>
		<polygon fill="#FFFFFF" points="87.288,54.919 213.596,96.075 129.865,138.652 		"/>
		<polygon fill="#F9A61B" points="117.858,64.88 139.824,108.081 183.026,86.114 		"/>
	</g>
	<g>
		<polygon fill="#6DCEF5" points="72.48,42.501 142.604,27.995 253.62,100.952 281.032,233.447 118.922,266.985 		"/>
		<polygon fill="#FFFFFF" points="142.604,27.995 253.62,100.952 161.634,119.983 		"/>
		<polygon fill="#D01A6F" points="169.473,45.653 179.292,93.113 226.753,83.295 		"/>
	</g>
	<g>
		<polygon fill="#0A4E9B" points="115.101,8.262 186.71,8.262 280.645,102.198 280.645,237.505 115.101,237.505 		"/>
		<polygon fill="#FFFFFF" points="186.71,8.262 280.645,102.198 186.71,102.198 		"/>
		<polygon fill="#0A4E9B" points="209.444,30.998 209.444,79.463 257.911,79.463 		"/>
	</g>
	<g>
		<g>
			<path fill="#6DCEF5" d="M206.114,228.451c-14.35,0-26.927-5.531-35.416-15.575c-6.309-6.976-10.407-16.249-12.152-27.537h-10.559
				v-13.161h9.415v-0.039c0-1.638,0.071-3.286,0.16-4.813h-9.575v-13.16h11.313c2.237-10.976,6.999-20.35,13.84-27.208
				c9.03-9.559,20.584-14.429,34.294-14.429c10.631,0,18.537,3.033,23.298,5.577l1.774,0.948l-4.796,15.792l-2.676-1.551
				c-4.642-2.691-11.101-4.298-17.278-4.298c-8.137,0-14.936,2.75-20.207,8.176c-3.837,3.963-6.743,9.799-8.479,16.993h45.521v13.16
				h-47.827c-0.091,1.412-0.091,2.923-0.091,4.492v0.359h47.918v13.161h-46.33c1.404,7.439,4.091,13.325,8.003,17.521
				c5.327,5.76,12.758,8.801,21.494,8.801c7.756,0,14.843-2.63,18.889-5.092l2.799-1.702l4.106,15.425l-1.448,0.976
				C225.429,225.765,215.714,228.451,206.114,228.451z"/>
			<path fill="#FFFFFF" d="M207.434,114.979c9.914,0,17.512,2.813,22.143,5.287l-3.313,10.909
				c-4.289-2.487-11.07-4.628-18.508-4.628c-8.914,0-16.342,3.132-21.965,8.918c-4.791,4.949-8.098,12.393-9.754,21.151h46.104v8.26
				h-47.578c-0.34,2.15-0.34,4.468-0.34,6.942c0,0.992,0,1.813,0,2.81h47.918v8.261h-46.764c1.338,9.578,4.469,16.681,9.094,21.643
				c6.111,6.607,14.371,9.58,23.287,9.58c8.76,0,16.359-3.135,20.162-5.448l2.814,10.572c-5.127,3.455-13.885,6.766-24.621,6.766
				c-13.383,0-25.445-5.124-33.545-14.707c-6.271-6.937-10.398-16.516-11.893-28.405h-10.239v-8.261h9.415c0-0.831,0-1.654,0-2.489
				c0-2.474,0.166-4.948,0.326-7.263h-9.741v-8.26h10.895c1.996-11.571,6.783-21.151,13.543-27.928
				C183.141,119.94,194.046,114.979,207.434,114.979 M207.434,110.078c-14.186,0-26.658,5.254-36.075,15.196
				c-6.743,6.78-11.55,15.86-14.03,26.441h-6.891h-4.901v4.901v8.26v4.901v4.851v8.261v4.901h4.901h6.037
				c1.983,10.806,6.146,19.783,12.404,26.73c8.962,10.564,22.182,16.382,37.235,16.382c14.512,0,23.968-5.317,27.36-7.603
				l2.895-1.951l-0.897-3.374l-2.814-10.572l-1.686-6.332l-5.598,3.406c-3.59,2.184-10.357,4.733-17.615,4.733
				c-5.604,0-13.568-1.389-19.689-8.007c-3.086-3.312-5.35-7.807-6.763-13.413h40.835h4.901v-4.901v-8.261v-4.851v-4.901v-8.26
				v-4.901h-4.901h-39.862c1.652-5.372,4.041-9.75,7.034-12.841c4.786-4.925,10.994-7.426,18.443-7.426
				c6.788,0,12.741,2.049,16.05,3.967l5.351,3.103l1.797-5.918l3.313-10.909l1.169-3.85l-3.549-1.896
				C226.88,113.267,218.572,110.078,207.434,110.078L207.434,110.078z"/>
		</g>
	</g>
</g>
</svg>
