<?xml version="1.0" encoding="utf-8"?>
<!-- Generator: Adobe Illustrator 16.0.0, SVG Export Plug-In . SVG Version: 6.00 Build 0)  -->
<!DOCTYPE svg PUBLIC "-//W3C//DTD SVG 1.1//EN" "http://www.w3.org/Graphics/SVG/1.1/DTD/svg11.dtd">
<svg version="1.1" xmlns="http://www.w3.org/2000/svg" xmlns:xlink="http://www.w3.org/1999/xlink" x="0px" y="0px"
	 width="299.991px" height="231px" viewBox="0 0 299.991 231" enable-background="new 0 0 299.991 231" xml:space="preserve">
<g id="Calque_2">
	<rect x="18.618" y="20" fill="#FFFFFF" width="266.5" height="186"/>
</g>
<g id="Calque_1">
	<path fill="#39B54A" d="M281.877,8.452H18.116c-5.444,0-9.853,4.413-9.853,9.854v194.389c0,5.441,4.408,9.854,9.853,9.854h263.762
		c5.436,0,9.85-4.412,9.85-9.854V18.306C291.727,12.865,287.313,8.452,281.877,8.452z M24.373,27.44h251.249v36.945H24.373V27.44z
		 M102.427,198.628H24.433v-8.621h77.994V198.628z M102.427,183.032H24.433v-8.625h77.994V183.032z M102.427,167.429H24.433v-8.621
		h77.994V167.429z M102.427,151.833H24.433v-8.625h77.994V151.833z M102.427,136.229H24.433v-8.621h77.994V136.229z
		 M102.427,120.634H24.433V80.81h77.994V120.634z M188.993,198.628H111v-8.621h77.992V198.628z M188.993,183.032H111v-8.625h77.992
		V183.032z M188.993,167.429H111v-8.621h77.992V167.429z M188.993,151.833H111v-8.625h77.992V151.833z M188.993,136.229H111v-8.621
		h77.992V136.229z M188.993,120.634H111v-8.625h77.992V120.634z M188.993,105.03H111v-8.621h77.992V105.03z M188.993,89.435H111
		V80.81h77.992V89.435z M275.665,183.032H197.67v-8.625h77.994V183.032z M275.665,167.429H197.67v-8.621h77.994V167.429z
		 M275.665,151.833H197.67v-8.625h77.994V151.833z M275.665,136.229H197.67v-8.621h77.994V136.229z M275.665,120.634H197.67v-8.625
		h77.994V120.634z M275.665,105.03H197.67v-8.621h77.994V105.03z M275.665,89.435H197.67V80.81h77.994V89.435z"/>
</g>
</svg>
