<?xml version="1.0" encoding="utf-8"?>
<!-- Generator: Adobe Illustrator 16.0.0, SVG Export Plug-In . SVG Version: 6.00 Build 0)  -->
<!DOCTYPE svg PUBLIC "-//W3C//DTD SVG 1.1//EN" "http://www.w3.org/Graphics/SVG/1.1/DTD/svg11.dtd">
<svg version="1.1" id="Calque_1" xmlns="http://www.w3.org/2000/svg" xmlns:xlink="http://www.w3.org/1999/xlink" x="0px" y="0px"
	 width="224.5px" height="299.99px" viewBox="37.995 0 224.5 299.99" enable-background="new 37.995 0 224.5 299.99"
	 xml:space="preserve">
<g>
	<g>
		<polygon fill="#EC1C24" points="47.902,8.262 136.442,8.262 252.588,124.409 252.588,291.727 47.902,291.727 		"/>
		<polygon fill="#FFFFFF" points="136.442,8.262 252.588,124.409 136.442,124.409 		"/>
		<polygon fill="#EC1C24" points="164.552,36.374 164.552,96.298 224.478,96.298 		"/>
	</g>
	<g>
		<g>
			<path fill="#652D90" d="M155.928,278.525c-17.722,0-33.26-6.826-43.76-19.223c-7.841-8.69-12.9-20.147-15.058-34.084H84.058
				v-16.274h11.642v-0.048c0-1.99,0.08-3.935,0.198-5.951h-11.84v-16.271h13.987c2.764-13.568,8.652-25.16,17.114-33.643
				c11.164-11.817,25.45-17.839,42.403-17.839c13.145,0,22.919,3.749,28.804,6.893l2.194,1.172l-5.927,19.528l-3.309-1.918
				c-5.739-3.327-13.727-5.313-21.366-5.313c-10.062,0-18.468,3.4-24.985,10.108c-4.744,4.901-8.336,12.117-10.484,21.012h56.285
				v16.271h-59.135c-0.111,1.745-0.111,3.614-0.111,5.555v0.444h59.247v16.274H121.49c1.737,9.197,5.059,16.474,9.896,21.663
				c6.586,7.122,15.773,10.881,26.575,10.881c9.586,0,18.35-3.251,23.355-6.294l3.46-2.104l5.078,19.07l-1.79,1.207
				C179.813,275.204,167.8,278.525,155.928,278.525z"/>
			<path fill="#FFFFFF" d="M157.562,138.221c12.256,0,21.651,3.477,27.376,6.536l-4.094,13.489
				c-5.304-3.075-13.689-5.723-22.886-5.723c-11.021,0-20.207,3.873-27.158,11.027c-5.923,6.119-10.012,15.323-12.06,26.153h57.003
				v10.211h-58.828c-0.418,2.658-0.418,5.525-0.418,8.585c0,1.228,0,2.244,0,3.475h59.246v10.214h-57.819
				c1.653,11.842,5.526,20.625,11.245,26.76c7.556,8.169,17.768,11.845,28.791,11.845c10.831,0,20.228-3.877,24.93-6.735
				l3.48,13.072c-6.338,4.272-17.168,8.365-30.442,8.365c-16.547,0-31.461-6.337-41.479-18.187
				c-7.753-8.576-12.854-20.419-14.704-35.12H87.088v-10.214h11.642c0-1.028,0-2.045,0-3.078c0-3.061,0.204-6.119,0.402-8.981
				H87.088v-10.211h13.471c2.466-14.309,8.387-26.153,16.746-34.533C127.522,144.356,141.007,138.221,157.562,138.221
				 M157.562,132.162c-17.541,0-32.963,6.496-44.606,18.788c-8.341,8.386-14.284,19.611-17.349,32.694h-8.52h-6.06v6.06v10.211v6.06
				v6v10.214v6.06h6.06h7.463c2.453,13.362,7.6,24.46,15.336,33.049c11.084,13.064,27.431,20.258,46.042,20.258
				c17.947,0,29.637-6.573,33.83-9.4l3.578-2.412l-1.11-4.172l-3.48-13.072l-2.083-7.825l-6.92,4.207
				c-4.442,2.7-12.813,5.854-21.782,5.854c-6.928,0-16.774-1.718-24.342-9.899c-3.818-4.096-6.617-9.654-8.364-16.586h50.489h6.06
				v-6.06v-10.214v-6v-6.06v-10.211v-6.06h-6.06h-49.287c2.043-6.644,4.997-12.057,8.697-15.879
				c5.917-6.091,13.592-9.183,22.804-9.183c8.396,0,15.757,2.534,19.846,4.905l6.617,3.837l2.222-7.319l4.094-13.489l1.444-4.76
				l-4.387-2.345C181.604,136.105,171.335,132.162,157.562,132.162L157.562,132.162z"/>
		</g>
	</g>
</g>
</svg>
