<?xml version="1.0" encoding="utf-8"?>
<!-- Generator: Adobe Illustrator 16.0.0, SVG Export Plug-In . SVG Version: 6.00 Build 0)  -->
<!DOCTYPE svg PUBLIC "-//W3C//DTD SVG 1.1//EN" "http://www.w3.org/Graphics/SVG/1.1/DTD/svg11.dtd">
<svg version="1.1" id="Calque_1" xmlns="http://www.w3.org/2000/svg" xmlns:xlink="http://www.w3.org/1999/xlink" x="0px" y="0px"
	 width="224.5px" height="299.99px" viewBox="37.995 0 224.5 299.99" enable-background="new 37.995 0 224.5 299.99"
	 xml:space="preserve">
<g>
	<g>
		<polygon fill="#F9A61B" points="47.901,8.262 136.442,8.262 252.589,124.409 252.589,291.727 47.901,291.727 		"/>
		<polygon fill="#FFFFFF" points="136.442,8.262 252.589,124.409 136.442,124.409 		"/>
		<polygon fill="#F9A61B" points="164.552,36.374 164.552,96.298 224.477,96.298 		"/>
	</g>
	<g>
		<g>
			<path fill="#D01A6F" d="M155.927,278.526c-17.722,0-33.261-6.827-43.759-19.223c-7.842-8.691-12.901-20.148-15.057-34.085H84.057
				v-16.274h11.642v-0.047c0-2.022,0.088-4.062,0.198-5.951h-11.84v-16.272h13.988c2.764-13.566,8.652-25.158,17.113-33.643
				c11.166-11.818,25.451-17.839,42.403-17.839c13.148,0,22.922,3.749,28.806,6.894l2.193,1.172l-5.929,19.528l-3.308-1.919
				c-5.738-3.327-13.726-5.313-21.366-5.313c-10.061,0-18.466,3.401-24.984,10.109c-4.744,4.899-8.336,12.116-10.485,21.011h56.287
				v16.272h-59.138c-0.111,1.745-0.111,3.614-0.111,5.554v0.444h59.25v16.274h-57.287c1.737,9.198,5.058,16.476,9.896,21.664
				c6.587,7.121,15.774,10.88,26.576,10.88c9.588,0,18.353-3.251,23.357-6.294l3.461-2.104l5.076,19.07l-1.79,1.207
				C179.812,275.205,167.799,278.526,155.927,278.526z"/>
			<path fill="#FFFFFF" d="M157.561,138.221c12.258,0,21.653,3.477,27.377,6.536l-4.095,13.488
				c-5.303-3.075-13.688-5.723-22.886-5.723c-11.021,0-20.206,3.874-27.157,11.028c-5.924,6.118-10.013,15.323-12.061,26.152h57.005
				v10.212h-58.83c-0.419,2.658-0.419,5.524-0.419,8.584c0,1.227,0,2.244,0,3.475h59.249v10.214h-57.821
				c1.653,11.843,5.525,20.626,11.244,26.761c7.557,8.169,17.769,11.844,28.792,11.844c10.831,0,20.229-3.876,24.932-6.735
				l3.479,13.072c-6.338,4.272-17.168,8.366-30.443,8.366c-16.548,0-31.461-6.337-41.478-18.187
				c-7.754-8.577-12.855-20.419-14.704-35.121H87.087v-10.214h11.642c0-1.027,0-2.046,0-3.077c0-3.061,0.205-6.12,0.402-8.981
				H87.087v-10.212h13.472c2.466-14.309,8.387-26.152,16.745-34.533C127.522,144.356,141.007,138.221,157.561,138.221
				 M157.561,132.162c-17.54,0-32.962,6.496-44.607,18.788c-8.34,8.388-14.283,19.612-17.347,32.694h-8.521h-6.06v6.06v10.212v6.06
				v5.999v10.214v6.06h6.06h7.464c2.453,13.361,7.6,24.461,15.337,33.051c11.083,13.063,27.429,20.257,46.04,20.257
				c17.947,0,29.638-6.574,33.831-9.401l3.578-2.412l-1.11-4.171l-3.479-13.072l-2.083-7.827l-6.921,4.208
				c-4.441,2.7-12.811,5.854-21.783,5.854c-6.928,0-16.775-1.718-24.344-9.899c-3.817-4.095-6.616-9.653-8.362-16.586h50.491h6.06
				v-6.06v-10.214v-5.999v-6.06v-10.212v-6.06h-6.06h-49.289c2.044-6.644,4.998-12.056,8.698-15.878
				c5.918-6.091,13.593-9.184,22.804-9.184c8.396,0,15.757,2.534,19.846,4.905l6.616,3.837l2.223-7.318l4.095-13.489l1.444-4.759
				l-4.387-2.345C181.606,136.105,171.338,132.162,157.561,132.162L157.561,132.162z"/>
		</g>
	</g>
</g>
</svg>
