<?xml version="1.0" encoding="utf-8"?>
<!-- Generator: Adobe Illustrator 16.0.0, SVG Export Plug-In . SVG Version: 6.00 Build 0)  -->
<!DOCTYPE svg PUBLIC "-//W3C//DTD SVG 1.1//EN" "http://www.w3.org/Graphics/SVG/1.1/DTD/svg11.dtd">
<svg version="1.1" id="Calque_1" xmlns="http://www.w3.org/2000/svg" xmlns:xlink="http://www.w3.org/1999/xlink" x="0px" y="0px"
	 width="277.5px" height="299.99px" viewBox="13.495 0 277.5 299.99" enable-background="new 13.495 0 277.5 299.99"
	 xml:space="preserve">
<g>
	<g>
		<polygon fill="#231F20" points="22.802,86.335 86.957,53.714 213.909,95.079 275.555,216.312 127.242,291.727 		"/>
		<polygon fill="#FFFFFF" points="86.957,53.714 213.909,95.079 129.75,137.873 		"/>
		<polygon fill="#F9A61B" points="117.683,63.725 139.761,107.146 183.184,85.067 		"/>
	</g>
	<g>
		<polygon fill="#BBBDBF" points="72.074,41.232 142.555,26.653 254.135,99.981 281.688,233.15 118.752,266.859 		"/>
		<polygon fill="#FFFFFF" points="142.555,26.653 254.135,99.981 161.682,119.108 		"/>
		<polygon fill="#D01A6F" points="169.561,44.401 179.428,92.101 227.132,82.234 		"/>
	</g>
	<g>
		<polygon fill="#231F20" points="114.912,8.262 186.885,8.262 281.3,102.676 281.3,238.672 114.912,238.672 		"/>
		<polygon fill="#FFFFFF" points="186.885,8.262 281.3,102.676 186.885,102.676 		"/>
		<polygon fill="#231F20" points="209.735,31.114 209.735,79.825 258.448,79.825 		"/>
	</g>
	<g>
		<g>
			<path fill="#BBBDBF" d="M206.389,228.129c-14.423,0-27.065-5.56-35.598-15.654c-6.341-7.01-10.46-16.331-12.214-27.677h-10.612
				v-13.229h9.462v-0.038c0-1.637,0.07-3.275,0.162-4.837h-9.625v-13.228h11.371c2.248-11.03,7.034-20.452,13.91-27.347
				c9.075-9.607,20.688-14.502,34.469-14.502c10.687,0,18.632,3.048,23.415,5.605l1.783,0.953l-4.818,15.874l-2.689-1.559
				c-4.665-2.705-11.157-4.32-17.368-4.32c-8.178,0-15.011,2.765-20.308,8.217c-3.857,3.984-6.778,9.85-8.524,17.08h45.754v13.228
				h-48.071c-0.091,1.419-0.091,2.938-0.091,4.515v0.36h48.162v13.229h-46.566c1.413,7.478,4.113,13.393,8.044,17.609
				c5.354,5.789,12.822,8.846,21.603,8.846c7.797,0,14.919-2.644,18.985-5.117l2.813-1.711l4.126,15.503l-1.454,0.98
				C225.802,225.429,216.037,228.129,206.389,228.129z"/>
			<path fill="#FFFFFF" d="M207.716,114.079c9.963,0,17.602,2.827,22.254,5.314l-3.328,10.964c-4.311-2.5-11.127-4.652-18.604-4.652
				c-8.959,0-16.424,3.148-22.074,8.964c-4.816,4.974-8.141,12.456-9.805,21.259h46.338v8.302h-47.82
				c-0.342,2.161-0.342,4.49-0.342,6.978c0,0.997,0,1.822,0,2.823h48.162v8.304h-47.002c1.346,9.626,4.492,16.765,9.141,21.752
				c6.143,6.642,14.443,9.629,23.404,9.629c8.805,0,16.443-3.15,20.266-5.476l2.828,10.626c-5.152,3.473-13.955,6.8-24.744,6.8
				c-13.453,0-25.576-5.15-33.717-14.781c-6.305-6.973-10.451-16.6-11.953-28.55h-10.291v-8.304h9.462c0-0.835,0-1.662,0-2.501
				c0-2.486,0.168-4.974,0.326-7.3h-9.789v-8.302h10.951c2.006-11.63,6.818-21.259,13.611-28.071
				C183.298,119.065,194.259,114.079,207.716,114.079 M207.716,109.153c-14.259,0-26.796,5.282-36.261,15.274
				c-6.777,6.816-11.607,15.94-14.1,26.575h-6.926h-4.926v4.926v8.302v4.926v4.875v8.304v4.926h4.926h6.067
				c1.993,10.862,6.177,19.884,12.468,26.866c9.008,10.618,22.295,16.465,37.426,16.465c14.586,0,24.089-5.344,27.497-7.641
				l2.909-1.961l-0.902-3.391l-2.828-10.626l-1.693-6.364l-5.627,3.423c-3.607,2.194-10.41,4.758-17.705,4.758
				c-5.632,0-13.637-1.396-19.788-8.048c-3.102-3.328-5.377-7.847-6.798-13.481h41.043h4.926v-4.926v-8.304v-4.875v-4.926v-8.302
				v-4.926h-4.926h-40.065c1.661-5.4,4.063-9.799,7.071-12.907c4.81-4.951,11.048-7.465,18.535-7.465
				c6.824,0,12.809,2.06,16.133,3.987l5.378,3.119l1.807-5.95l3.328-10.964l1.174-3.869l-3.565-1.906
				C227.26,112.359,218.912,109.153,207.716,109.153L207.716,109.153z"/>
		</g>
	</g>
</g>
</svg>
