<?xml version="1.0" encoding="utf-8"?>
<!-- Generator: Adobe Illustrator 16.0.0, SVG Export Plug-In . SVG Version: 6.00 Build 0)  -->
<!DOCTYPE svg PUBLIC "-//W3C//DTD SVG 1.1//EN" "http://www.w3.org/Graphics/SVG/1.1/DTD/svg11.dtd">
<svg version="1.1" id="Calque_1" xmlns="http://www.w3.org/2000/svg" xmlns:xlink="http://www.w3.org/1999/xlink" x="0px" y="0px"
	 width="224.5px" height="299.99px" viewBox="37.995 0 224.5 299.99" enable-background="new 37.995 0 224.5 299.99"
	 xml:space="preserve">
<g>
	<g>
		<polygon fill="#231F20" points="47.902,8.262 136.442,8.262 252.588,124.409 252.588,291.727 47.902,291.727 		"/>
		<polygon fill="#FFFFFF" points="136.442,8.262 252.588,124.409 136.442,124.409 		"/>
		<polygon fill="#231F20" points="164.552,36.374 164.552,96.298 224.478,96.298 		"/>
	</g>
	<g>
		<g>
			<path fill="#BBBDBF" d="M155.928,275.626c-17.722,0-33.26-6.826-43.76-19.223c-7.841-8.69-12.9-20.147-15.058-34.084H84.058
				v-16.274h11.642v-0.048c0-1.99,0.08-3.935,0.198-5.951h-11.84v-16.271h13.987c2.764-13.568,8.652-25.16,17.114-33.643
				c11.164-11.817,25.449-17.839,42.402-17.839c13.146,0,22.92,3.749,28.805,6.893l2.194,1.172l-5.929,19.529l-3.308-1.919
				c-5.738-3.327-13.725-5.313-21.365-5.313c-10.062,0-18.468,3.4-24.985,10.108c-4.744,4.9-8.336,12.116-10.484,21.012h56.285
				v16.271h-59.135c-0.111,1.745-0.111,3.614-0.111,5.555v0.444h59.247v16.274H121.49c1.737,9.197,5.059,16.474,9.896,21.663
				c6.586,7.121,15.772,10.88,26.575,10.88c9.588,0,18.352-3.251,23.355-6.294l3.46-2.104l5.078,19.072l-1.79,1.207
				C179.813,272.304,167.8,275.626,155.928,275.626z"/>
			<path fill="#FFFFFF" d="M157.561,135.322c12.257,0,21.652,3.477,27.377,6.536l-4.095,13.489
				c-5.303-3.075-13.688-5.723-22.885-5.723c-11.021,0-20.207,3.873-27.158,11.027c-5.923,6.118-10.012,15.322-12.06,26.153h57.003
				v10.211h-58.828c-0.418,2.658-0.418,5.525-0.418,8.585c0,1.227,0,2.244,0,3.475h59.246v10.214h-57.819
				c1.653,11.842,5.526,20.625,11.245,26.76c7.556,8.169,17.768,11.844,28.791,11.844c10.831,0,20.228-3.876,24.93-6.735
				l3.48,13.073c-6.338,4.272-17.168,8.365-30.442,8.365c-16.548,0-31.461-6.337-41.479-18.187
				c-7.753-8.576-12.854-20.419-14.704-35.12H87.088v-10.214h11.642c0-1.028,0-2.046,0-3.078c0-3.061,0.204-6.119,0.402-8.981
				H87.088v-10.211h13.471c2.466-14.309,8.387-26.153,16.746-34.533C127.522,141.457,141.007,135.322,157.561,135.322
				 M157.561,129.262c-17.54,0-32.962,6.496-44.605,18.788c-8.341,8.386-14.284,19.612-17.349,32.695h-8.52h-6.06v6.06v10.211v6.06
				v6v10.214v6.06h6.06h7.463c2.453,13.362,7.6,24.46,15.336,33.049c11.084,13.064,27.431,20.258,46.042,20.258
				c17.947,0,29.637-6.574,33.83-9.4l3.578-2.412l-1.11-4.171l-3.48-13.073l-2.083-7.827l-6.921,4.208
				c-4.44,2.7-12.809,5.854-21.781,5.854c-6.928,0-16.775-1.718-24.342-9.898c-3.818-4.096-6.617-9.654-8.364-16.586h50.489h6.06
				v-6.06v-10.214v-6v-6.06v-10.211v-6.06h-6.06h-49.287c2.043-6.645,4.997-12.057,8.697-15.879
				c5.917-6.091,13.592-9.183,22.804-9.183c8.396,0,15.756,2.534,19.845,4.905l6.617,3.837l2.222-7.319l4.095-13.488l1.444-4.76
				l-4.387-2.345C181.604,133.205,171.335,129.262,157.561,129.262L157.561,129.262z"/>
		</g>
	</g>
</g>
</svg>
