<?xml version="1.0" encoding="utf-8"?>
<!-- Generator: Adobe Illustrator 16.0.0, SVG Export Plug-In . SVG Version: 6.00 Build 0)  -->
<!DOCTYPE svg PUBLIC "-//W3C//DTD SVG 1.1//EN" "http://www.w3.org/Graphics/SVG/1.1/DTD/svg11.dtd">
<svg version="1.1" xmlns="http://www.w3.org/2000/svg" xmlns:xlink="http://www.w3.org/1999/xlink" x="0px" y="0px"
	 width="299.991px" height="231px" viewBox="0 0 299.991 231" enable-background="new 0 0 299.991 231" xml:space="preserve">
<g id="Calque_2">
	<rect x="18.618" y="20" fill="#FFFFFF" width="266.5" height="186"/>
</g>
<g id="Calque_1">
	<path d="M281.876,8.455H18.115c-5.44,0-9.852,4.407-9.852,9.854v194.383c0,5.447,4.411,9.854,9.852,9.854h263.762
		c5.438,0,9.852-4.406,9.852-9.854V18.309C291.728,12.862,287.314,8.455,281.876,8.455z M24.37,27.439h251.249v36.949H24.37V27.439z
		 M102.424,198.629H24.427v-8.625h77.997V198.629z M102.424,183.027H24.427v-8.621h77.997V183.027z M102.424,167.43H24.427v-8.621
		h77.997V167.43z M102.424,151.833H24.427v-8.626h77.997V151.833z M102.424,136.23H24.427v-8.626h77.997V136.23z M102.424,120.629
		H24.427v-8.621h77.997V120.629z M102.424,105.031H24.427V96.41h77.997V105.031z M102.424,89.434H24.427v-8.625h77.997V89.434z
		 M188.994,198.629h-77.996v-8.625h77.996V198.629z M188.994,183.027h-77.996v-8.621h77.996V183.027z M188.994,167.43h-77.996
		v-8.621h77.996V167.43z M188.994,151.833h-77.996v-8.626h77.996V151.833z M188.994,136.23h-77.996v-8.626h77.996V136.23z
		 M188.994,120.629h-77.996v-8.621h77.996V120.629z M188.994,105.031h-77.996V96.41h77.996V105.031z M188.994,89.434h-77.996v-8.625
		h77.996V89.434z M275.669,183.027h-77.996v-8.621h77.996V183.027z M275.669,167.43h-77.996v-8.621h77.996V167.43z M275.669,151.833
		h-77.996v-8.626h77.996V151.833z M275.669,136.23h-77.996v-8.626h77.996V136.23z M275.669,120.629h-77.996v-8.621h77.996V120.629z
		 M275.669,105.031h-77.996V96.41h77.996V105.031z M275.669,89.434h-77.996v-8.625h77.996V89.434z"/>
</g>
</svg>
