<?xml version="1.0" encoding="utf-8"?>
<!-- Generator: Adobe Illustrator 16.0.0, SVG Export Plug-In . SVG Version: 6.00 Build 0)  -->
<!DOCTYPE svg PUBLIC "-//W3C//DTD SVG 1.1//EN" "http://www.w3.org/Graphics/SVG/1.1/DTD/svg11.dtd">
<svg version="1.1" xmlns="http://www.w3.org/2000/svg" xmlns:xlink="http://www.w3.org/1999/xlink" x="0px" y="0px"
	 width="299.991px" height="227.5px" viewBox="0 0 299.991 227.5" enable-background="new 0 0 299.991 227.5" xml:space="preserve">
<g id="Calque_2">
	<path fill="#FFFFFF" d="M8.263,156.53c15.104-10.03,28.378-21.948,34.759-31.14c6.381-9.191,59.096-48.141,59.096-48.141l7.75,10.5
		l16.25,17.75l28.5,1l7,11.75l8.25,19.25v17.25l-5,11.5l-9.75,14.25l-14.25,9.75l-20.75,6.25l-48.25-11.25L8.263,156.53z"/>
</g>
<g id="Calque_1">
	<path fill="#ED1C24" d="M278.225,128.97c-7.264,0.566-69.563,8.35-76.314,6.795c-6.748-1.559-7.787-6.75-1.559-9.342
		c6.229-2.601,70.201-23.083,79.432-26.998c17.137-7.27,7.266-25.959-10.383-20.767c-25.072,7.37-66.977,22.843-75.277,25.438
		c-8.309,2.597-16.094,0.52-10.383-9.342c5.705-9.864,21.805-24.402,30.109-30.635c8.305-6.229,26.998-18.688,30.631-23.881
		c3.631-5.191,8.305-19.206-7.789-16.615c-16.096,2.601-54.51,34.268-61.783,38.941c-7.266,4.668-33.223,28.03-50.869,25.957
		c-17.657-2.077-11.423-10.9-9.347-16.615c2.073-5.705,10.896-25.953,14.016-35.299c3.119-9.352,6.75-28.943-5.715-29.79
		c-12.456-0.841-12.976,16.806-18.684,25.634c-5.715,8.828-21.806,35.822-28.554,43.61c-6.752,7.787-16.614,22.325-20.765,30.631
		c-1.693,3.38-5.963,10.626-11.97,18.697c8.018-2.901,15.484-8.351,17.668-10.255c3-2.609,9.264-6.755,13.202-8.739
		c3.938-1.979,14.694-10.038,18.387-12.606c3.694-2.561,6.776-9.462,11.566-7.097c4.788,2.36,0.164,9.524-2.589,12.708
		c-2.75,3.194-9.535,9.764-11.29,11.69c-1.745,1.923-5.652,4.398,0.998,8.089c6.648,3.693,20.717-1.324,24.35-1.989
		c3.637-0.669,23.981-6.946,30.776-5.355c6.787,1.591,2.656,6.378,0.371,7.841c-2.281,1.461-11.703,3.348-15.999,4.465
		c-4.298,1.111-13.032,4.243-16.896,7.216c-3.863,2.977-1.124,5.063,2.588,5.386c3.708,0.324,22.803,1.02,33.912,2.184
		c7.832,0.82,8.691,9.816,0.736,9.9c-4.289,0.049-32.929-2.254-35.817-2.236c-2.88,0.009-3.322,2.232-0.905,3.951
		c2.422,1.71,28.332,8.766,31.301,9.728c2.967,0.952,4.654,3.854,3.809,5.909c-0.842,2.051-5.227,3.371-8.807,2.139
		c-3.573-1.23-30.848-7.885-34.39-8.619c-3.535-0.73-3.465,4.336-1.418,6.379c2.037,2.041,16.442,17.807,17.87,19.596
		c1.425,1.781,1.886,5.338-0.019,6.473c-1.909,1.133-6.096-1.542-7.805-3.207c-1.72-1.666-11.561-11-13.729-13.33
		c-2.166-2.329-8.64-6.436-12.951-8.207c-4.313-1.776-16.005-3.703-20.403-5.268c-4.397-1.572-9.741-3.277-15.102-3.57
		c-12.694-1.643-40.343-4.5-44.175-2.033c11.94,14.016,38.418,42.055,67.493,51.397c11.845-4.128,24.921-5.191,35.819-5.71
		c10.903-0.518,37.897-6.746,48.804-6.746c10.896,0,28.553,3.113,35.299,6.229c6.746,3.113,36.346,14.533,41.537,16.615
		c5.188,2.072,16.611,4.15,19.725,0c3.115-4.155-1.041-11.424-5.709-14.02c-4.674-2.596-49.842-23.885-56.068-26.48
		c-6.23-2.596-10.902-13.498-2.598-15.057c8.301-1.555,73.203-11.42,82.027-11.938c8.826-0.519,17.135-7.27,17.135-12.461
		S285.499,128.407,278.225,128.97z"/>
</g>
</svg>
