<?xml version="1.0" encoding="utf-8"?>
<!-- Generator: Adobe Illustrator 16.0.0, SVG Export Plug-In . SVG Version: 6.00 Build 0)  -->
<!DOCTYPE svg PUBLIC "-//W3C//DTD SVG 1.1//EN" "http://www.w3.org/Graphics/SVG/1.1/DTD/svg11.dtd">
<svg version="1.1" id="Calque_1" xmlns="http://www.w3.org/2000/svg" xmlns:xlink="http://www.w3.org/1999/xlink" x="0px" y="0px"
	 width="226px" height="299.991px" viewBox="0 0 226 299.991" enable-background="new 0 0 226 299.991" xml:space="preserve">
<path fill="#92278F" d="M206.186,69.792l-51.227-0.1c-0.113-6.129-1.457-35.688-16.828-51.171
	c-6.768-6.808-15.223-10.259-25.128-10.259c-9.911,0-18.363,3.451-25.121,10.259C72.052,34.448,71.081,64.725,71.033,69.537
	l-52.641-0.101L8.081,291.728H217.92L206.186,69.792z M95.952,26.54c4.612-4.64,10.188-6.896,17.051-6.896
	c6.843,0,12.425,2.251,17.031,6.881c12.086,12.147,13.395,37.645,13.531,43.146L82.423,69.56
	C82.479,65.652,83.346,39.228,95.952,26.54z"/>
</svg>
