<?xml version="1.0" standalone="no"?><!-- Generator: Gravit.io --><svg xmlns="http://www.w3.org/2000/svg" xmlns:xlink="http://www.w3.org/1999/xlink" style="isolation:isolate" viewBox="0 0 300 300" width="300" height="300"><defs><clipPath id="_clipPath_WN1ix9ydS2HKbZCp5MTiPKffEWluH3Oe"><rect width="300" height="300"/></clipPath></defs><g clip-path="url(#_clipPath_WN1ix9ydS2HKbZCp5MTiPKffEWluH3Oe)"><path d=" M 0 150 C 0 67.213 67.213 0 150 0 C 232.787 0 300 67.213 300 150 C 300 232.787 232.787 300 150 300 C 67.213 300 0 232.787 0 150 Z " fill="rgb(230,126,34)"/><path d=" M 150 0 C 150.01 0 150.021 0 150.031 0 C 232.819 0 300.031 67.213 300.031 150 C 300.031 232.787 232.819 300 150.031 300 L 150.031 150 L 150 0 Z " fill="rgb(235,152,78)"/><g id="Group"><defs><filter id="HsppytGPJPrSUi6DH8fmn00HHwiijCV7" x="-200%" y="-200%" width="400%" height="400%"><feOffset xmlns="http://www.w3.org/2000/svg" in="SourceAlpha" result="offOut" dx="10" dy="0"/><feGaussianBlur xmlns="http://www.w3.org/2000/svg" in="offOut" result="blurOut" stdDeviation="2.5"/><feComponentTransfer xmlns="http://www.w3.org/2000/svg" in="blurOut" result="opacOut"><feFuncA xmlns="http://www.w3.org/2000/svg" type="table" tableValues="0 0.5"/></feComponentTransfer><feBlend xmlns="http://www.w3.org/2000/svg" in="SourceGraphic" in2="opacOut" mode="normal"/></filter></defs><g filter="url(#HsppytGPJPrSUi6DH8fmn00HHwiijCV7)"><path d=" M 73.333 95.349 Q 97.425 33.529 147.108 67.965 Q 128.693 59.712 110.129 111.034 L 73.333 95.349 Z " fill="rgb(255,255,255)"/></g><defs><filter id="qXsgoNeuLpCew0hY1CQffkBqCuhdku7D" x="-200%" y="-200%" width="400%" height="400%"><feOffset xmlns="http://www.w3.org/2000/svg" in="SourceAlpha" result="offOut" dx="10" dy="0"/><feGaussianBlur xmlns="http://www.w3.org/2000/svg" in="offOut" result="blurOut" stdDeviation="2.5"/><feComponentTransfer xmlns="http://www.w3.org/2000/svg" in="blurOut" result="opacOut"><feFuncA xmlns="http://www.w3.org/2000/svg" type="table" tableValues="0 0.5"/></feComponentTransfer><feBlend xmlns="http://www.w3.org/2000/svg" in="SourceGraphic" in2="opacOut" mode="normal"/></filter></defs><g filter="url(#qXsgoNeuLpCew0hY1CQffkBqCuhdku7D)"><path d=" M 199.315 60.063 Q 145.807 12.44 98.11 55.307 Q 130.752 40.323 171.484 88.794 L 199.315 60.063 Z " fill="rgb(255,255,255)"/></g><defs><filter id="eCw0QjmyZU5IMSjoPPy73z6VN3iV6uBN" x="-200%" y="-200%" width="400%" height="400%"><feOffset xmlns="http://www.w3.org/2000/svg" in="SourceAlpha" result="offOut" dx="10" dy="5"/><feGaussianBlur xmlns="http://www.w3.org/2000/svg" in="offOut" result="blurOut" stdDeviation="2.5"/><feComponentTransfer xmlns="http://www.w3.org/2000/svg" in="blurOut" result="opacOut"><feFuncA xmlns="http://www.w3.org/2000/svg" type="table" tableValues="0 0.5"/></feComponentTransfer><feBlend xmlns="http://www.w3.org/2000/svg" in="SourceGraphic" in2="opacOut" mode="normal"/></filter></defs><g filter="url(#eCw0QjmyZU5IMSjoPPy73z6VN3iV6uBN)"><path d=" M 214.062 98.018 C 214.299 99.518 213.853 101.108 212.716 102.282 C 211.578 103.456 210.004 103.952 208.497 103.763 L 208.496 103.764 L 167.485 104.416 C 167.02 104.489 166.546 104.496 166.079 104.438 L 166.075 104.438 L 166.075 104.437 C 165.037 104.307 164.032 103.852 163.224 103.069 C 161.242 101.149 161.192 97.981 163.112 95.999 L 204.859 52.903 C 206.779 50.921 209.947 50.871 211.929 52.791 C 212.737 53.574 213.224 54.564 213.387 55.596 L 213.388 55.596 L 213.388 55.601 C 213.461 56.066 213.469 56.539 213.41 57.006 L 214.062 98.018 L 214.062 98.018 Z " fill="rgb(255,255,255)"/></g></g><g id="Group"><defs><filter id="GtgrPewVYiQesVQkYgrIkiNWTbXXSIOa" x="-200%" y="-200%" width="400%" height="400%"><feOffset xmlns="http://www.w3.org/2000/svg" in="SourceAlpha" result="offOut" dx="10" dy="0"/><feGaussianBlur xmlns="http://www.w3.org/2000/svg" in="offOut" result="blurOut" stdDeviation="2.5"/><feComponentTransfer xmlns="http://www.w3.org/2000/svg" in="blurOut" result="opacOut"><feFuncA xmlns="http://www.w3.org/2000/svg" type="table" tableValues="0 0.5"/></feComponentTransfer><feBlend xmlns="http://www.w3.org/2000/svg" in="SourceGraphic" in2="opacOut" mode="normal"/></filter></defs><g filter="url(#GtgrPewVYiQesVQkYgrIkiNWTbXXSIOa)"><path d=" M 50.854 143.744 Q 22.699 209.61 78.499 241.215 Q 53.92 215.026 86.939 161.005 L 50.854 143.744 Z " fill="rgb(255,255,255)"/></g><defs><filter id="nf2jJOgMzkA5aGSza7rF1U9SK8TY9AWw" x="-200%" y="-200%" width="400%" height="400%"><feOffset xmlns="http://www.w3.org/2000/svg" in="SourceAlpha" result="offOut" dx="10" dy="0"/><feGaussianBlur xmlns="http://www.w3.org/2000/svg" in="offOut" result="blurOut" stdDeviation="2.5"/><feComponentTransfer xmlns="http://www.w3.org/2000/svg" in="blurOut" result="opacOut"><feFuncA xmlns="http://www.w3.org/2000/svg" type="table" tableValues="0 0.5"/></feComponentTransfer><feBlend xmlns="http://www.w3.org/2000/svg" in="SourceGraphic" in2="opacOut" mode="normal"/></filter></defs><g filter="url(#nf2jJOgMzkA5aGSza7rF1U9SK8TY9AWw)"><path d=" M 124.339 251.987 Q 58.067 248.784 74.934 190.735 Q 72.959 210.818 127.52 212.114 L 124.339 251.987 Z " fill="rgb(255,255,255)"/></g><defs><filter id="OWZeLWNxHeQ84xFm9LIY855E8rL2rajf" x="-200%" y="-200%" width="400%" height="400%"><feOffset xmlns="http://www.w3.org/2000/svg" in="SourceAlpha" result="offOut" dx="10" dy="0"/><feGaussianBlur xmlns="http://www.w3.org/2000/svg" in="offOut" result="blurOut" stdDeviation="2.5"/><feComponentTransfer xmlns="http://www.w3.org/2000/svg" in="blurOut" result="opacOut"><feFuncA xmlns="http://www.w3.org/2000/svg" type="table" tableValues="0 0.5"/></feComponentTransfer><feBlend xmlns="http://www.w3.org/2000/svg" in="SourceGraphic" in2="opacOut" mode="normal"/></filter></defs><g filter="url(#OWZeLWNxHeQ84xFm9LIY855E8rL2rajf)"><path d=" M 82.157 117.702 C 83.504 117.001 85.154 116.918 86.628 117.624 C 88.102 118.329 89.073 119.665 89.373 121.154 L 89.373 121.154 L 103.022 159.833 C 103.239 160.251 103.396 160.697 103.489 161.159 L 103.491 161.163 L 103.49 161.163 C 103.696 162.188 103.584 163.286 103.098 164.301 C 101.907 166.79 98.92 167.844 96.43 166.654 L 42.304 140.762 C 39.815 139.571 38.76 136.583 39.951 134.094 C 40.437 133.079 41.221 132.303 42.148 131.82 L 42.148 131.819 L 42.152 131.818 C 42.57 131.601 43.016 131.443 43.477 131.35 L 82.157 117.702 L 82.157 117.702 Z " fill="rgb(255,255,255)"/></g></g><g id="Group"><defs><filter id="utsi4NBaHmqdZOeN6kEp01qGvU2eYqx7" x="-200%" y="-200%" width="400%" height="400%"><feOffset xmlns="http://www.w3.org/2000/svg" in="SourceAlpha" result="offOut" dx="10" dy="0"/><feGaussianBlur xmlns="http://www.w3.org/2000/svg" in="offOut" result="blurOut" stdDeviation="2.5"/><feComponentTransfer xmlns="http://www.w3.org/2000/svg" in="blurOut" result="opacOut"><feFuncA xmlns="http://www.w3.org/2000/svg" type="table" tableValues="0 0.5"/></feComponentTransfer><feBlend xmlns="http://www.w3.org/2000/svg" in="SourceGraphic" in2="opacOut" mode="normal"/></filter></defs><g filter="url(#utsi4NBaHmqdZOeN6kEp01qGvU2eYqx7)"><path d=" M 241.031 115.928 Q 277.993 171.028 221.342 192.119 Q 238.639 181.724 207.132 137.161 L 241.031 115.928 Z " fill="rgb(255,255,255)"/></g><defs><filter id="9fMHlkX5JDDjKOxNtiH560q7ewnB644a" x="-200%" y="-200%" width="400%" height="400%"><feOffset xmlns="http://www.w3.org/2000/svg" in="SourceAlpha" result="offOut" dx="10" dy="5"/><feGaussianBlur xmlns="http://www.w3.org/2000/svg" in="offOut" result="blurOut" stdDeviation="2.5"/><feComponentTransfer xmlns="http://www.w3.org/2000/svg" in="blurOut" result="opacOut"><feFuncA xmlns="http://www.w3.org/2000/svg" type="table" tableValues="0 0.5"/></feComponentTransfer><feBlend xmlns="http://www.w3.org/2000/svg" in="SourceGraphic" in2="opacOut" mode="normal"/></filter></defs><g filter="url(#9fMHlkX5JDDjKOxNtiH560q7ewnB644a)"><path d=" M 158.417 229.888 C 157.051 229.225 156.001 227.95 155.687 226.346 C 155.374 224.742 155.867 223.166 156.883 222.038 L 156.883 222.037 L 179.785 188.01 C 179.991 187.587 180.255 187.194 180.57 186.844 L 180.573 186.84 L 180.573 186.84 C 181.273 186.064 182.221 185.499 183.325 185.283 C 186.033 184.754 188.662 186.523 189.191 189.232 L 200.699 248.118 C 201.228 250.826 199.459 253.455 196.75 253.984 C 195.646 254.2 194.556 254.033 193.615 253.577 L 193.614 253.578 L 193.611 253.575 C 193.187 253.37 192.795 253.105 192.445 252.791 L 158.417 229.888 L 158.417 229.888 Z " fill="rgb(255,255,255)"/></g><defs><filter id="ZA0HIF63Kc4Y6kC20ziRUuQvJmOkGA9S" x="-200%" y="-200%" width="400%" height="400%"><feOffset xmlns="http://www.w3.org/2000/svg" in="SourceAlpha" result="offOut" dx="10" dy="0"/><feGaussianBlur xmlns="http://www.w3.org/2000/svg" in="offOut" result="blurOut" stdDeviation="2.5"/><feComponentTransfer xmlns="http://www.w3.org/2000/svg" in="blurOut" result="opacOut"><feFuncA xmlns="http://www.w3.org/2000/svg" type="table" tableValues="0 0.5"/></feComponentTransfer><feBlend xmlns="http://www.w3.org/2000/svg" in="SourceGraphic" in2="opacOut" mode="normal"/></filter></defs><g filter="url(#ZA0HIF63Kc4Y6kC20ziRUuQvJmOkGA9S)"><path d=" M 197.991 239.477 Q 267.651 222.783 259.73 159.144 Q 253.372 194.494 190.319 200.219 L 197.991 239.477 Z " fill="rgb(255,255,255)"/></g></g></g></svg>