<?xml version="1.0" encoding="utf-8"?>
<!-- Generator: Adobe Illustrator 16.0.0, SVG Export Plug-In . SVG Version: 6.00 Build 0)  -->
<!DOCTYPE svg PUBLIC "-//W3C//DTD SVG 1.1//EN" "http://www.w3.org/Graphics/SVG/1.1/DTD/svg11.dtd">
<svg version="1.1" id="Calque_1" xmlns="http://www.w3.org/2000/svg" xmlns:xlink="http://www.w3.org/1999/xlink" x="0px" y="0px"
	 width="300px" height="256px" viewBox="0 0 300 256" enable-background="new 0 0 300 256" xml:space="preserve">
<g>
	<g>
		<circle fill="#FFC905" cx="150.858" cy="65.533" r="41.001"/>
		<path fill="#FFC905" d="M168.532,115.019h-35.347c-34.358,0-62.21,27.853-62.21,62.211v36.246
			c8.01,7.373,17.047,13.646,26.862,18.603v-46.246c0-2.213,1.79-4.009,4.009-4.009s4.009,1.796,4.009,4.009v49.901
			c13.871,5.73,29.06,8.924,45.003,8.924c15.672,0,30.619-3.069,44.297-8.622v-50.203c0-2.213,1.791-4.009,4.008-4.009
			s4.008,1.796,4.008,4.009v46.582c10.092-5.005,19.373-11.39,27.57-18.938V177.23C230.741,142.871,202.891,115.019,168.532,115.019
			z"/>
	</g>
</g>
</svg>
