<?xml version="1.0" encoding="utf-8"?>
<!-- Generator: Adobe Illustrator 16.0.0, SVG Export Plug-In . SVG Version: 6.00 Build 0)  -->
<!DOCTYPE svg PUBLIC "-//W3C//DTD SVG 1.1//EN" "http://www.w3.org/Graphics/SVG/1.1/DTD/svg11.dtd">
<svg version="1.1" xmlns="http://www.w3.org/2000/svg" xmlns:xlink="http://www.w3.org/1999/xlink" x="0px" y="0px"
	 width="299.99px" height="299.99px" viewBox="0 0 299.99 299.99" enable-background="new 0 0 299.99 299.99" xml:space="preserve">
<g id="Calque_2">
	<polygon fill="#D11B70" points="146.244,111.832 141.581,132.813 100.004,136.959 86.275,135.663 86.275,110.536 113.733,107.946 
		142.358,109.629 	"/>
	<polyline fill="#D11B70" points="162.563,111.702 168.004,131.778 199.866,136.311 222.272,135.534 224.344,123.229 
		222.791,111.054 190.281,107.946 	"/>
	<path fill="#F8A519" d="M75.01,152.243c0,0,3.375,45.203,32.377,59.19c29.002,13.987,39.271,17.097,46.886,16.837
		c7.615-0.257,47.406-11.915,54.918-27.716c7.512-15.803,17.914-25.905,17.376-63.077c0.102-0.394,0.187-0.828,0.259-1.302v0.037
		c0,0,1.364,1.253,2.011-19.152c0.188-5.894,0.015-14.883-0.762-25.042l-0.001,0c0-0.003,0-0.006,0-0.011
		c-0.021-0.276-0.042-0.549-0.063-0.827c0.02-0.007,0.037-0.015,0.056-0.022c-0.008-15.711-1.958-28.085-4.627-37.683
		c-0.001-0.006-0.001-0.013-0.003-0.019c-4.582-33.631-30.195-36.378-30.195-36.378l-0.014-0.002
		c-6.773-1.878-14.401-2.703-21.71-2.954c-0.042-0.003-0.081-0.007-0.125-0.011c-55.505-4.201-60.017,21.566-60.017,21.566
		s-0.01,0-0.028,0c-1.207-0.068-2.442,0.016-3.697,0.269c-8.955,1.131-31.106,6.979-33.161,37.159
		c-0.936,13.749-1.193,22.429-1.141,27.912c-0.607,3.436-1.092,6.792-1.441,10.005l-0.005,0.001c0,0-3.185,11.266,3.091,41.136
		C74.998,152.186,75.004,152.214,75.01,152.243z M225.985,117.06v0.016c0-0.011-0.002-0.021-0.003-0.032L225.985,117.06z
		 M165.663,206.784c0.524,3.401-1.556,8.228-4.054,12.578c-7.13,10.44-14.798,0.016-14.81-0.002
		c-2.742-4.349-5.026-9.175-4.45-12.576c0.855-5.068-9.366-8.572-20.905-12.498c0.236-0.55,0.514-1.169,0.821-1.814
		c1.444-2.639,5.068-7.382,12.934-8.824c0.001,0,0.002,0,0.003,0c5.305-0.962,12.213-2.238,16.169-2.972
		c2.77-0.22,5.568-0.098,8.92,0.579c0.014,0.002,0.024,0.004,0.039,0.006c4.825,0.979,11.519,2.332,15.389,3.088
		c0.001,0,0.001,0,0.001,0c1.867,1.051,6.67,4.952,7.912,10.335C173.57,198.452,164.911,201.887,165.663,206.784z M201.067,187.409
		c-2.886,1.529-6.106,2.915-9.4,4.22c-2.91-8.98-10.619-11.97-10.619-11.97c-2.047-1.726-8.771-5.786-26.518-5.383
		c-13.261,0.304-24.032,3.668-28.631,5.353c-0.148,0.009-0.297,0.021-0.445,0.03c0,0-8.467,2.989-11.663,11.97
		c-3.617-1.305-7.154-2.69-10.323-4.22c-13.191-6.371-20.806-38.125-22.845-47.789v-0.002c0,0-1.678-9.545-2.464-19.322l5.225-2.646
		c-0.659,8.603-0.314,19.508-0.314,19.508c6.606,3.524,49.77-1.322,57.99-2.202c8.221-0.881,7.206-21.853,8.32-21.68
		c1.114,0.174,5.185,1.273,5.185,1.273v-0.001c0,0,4.073-1.099,5.188-1.272c1.116-0.173,0.099,20.798,8.32,21.679
		c7.222,0.773,41.397,4.604,54.081,3.137C220.856,145.23,213.829,180.641,201.067,187.409z M88.943,112.364
		c18.652-3.587,42.597-1.399,53.935,0.007c-0.48,4.276-1.619,13.521-2.846,16.86c-1.614,4.405-51.97,4.991-51.97,4.991
		C87.274,131.973,88.382,118.534,88.943,112.364z M166.26,112.37c11.335-1.406,35.28-3.594,53.932-0.006
		c0.563,6.169,1.668,19.609,0.881,21.858c0,0-50.356-0.586-51.971-4.991C167.877,125.89,166.737,116.646,166.26,112.37z
		 M77.777,110.075c0.376-2.543,0.993-5.276,1.998-7.743l3.647-5.572c0.242-0.221,0.492-0.432,0.753-0.627
		c7.75-5.813,41.978-27.771,46.499-35.521c0.308-0.528,0.486-1.17,0.597-1.864c1.912,1.1,5.525,2.104,12.104,2.618
		c4.804,0.376,9.93,0.979,14.916,1.672c3.138,1.042,6.397,2.228,9.698,3.513l0.002-0.002c0,0,22.419,5.257,32.86,6.55
		c8.923,1.102,11.471,9.12,12.698,16.266c0.002,0.151,0.088,4.746,5.17,12.58c1.607,2.479,2.638,4.771,3.295,6.751
		c-7.494-1.392-32.294-5.067-62.261,0.472c0,0-3.57,0.27-5.188,0.575l0,0c-1.612-0.305-5.185-0.575-5.185-0.575
		c-36.018-6.656-64.598,0-64.598,0c-0.321,0.853-0.586,1.986-0.806,3.3l-6.142,2.559C77.767,113.311,77.741,111.643,77.777,110.075z
		"/>
	<path fill="#D11B70" d="M381.495,153.495"/>
	<path fill="#D11B70" d="M202.948,235.039c0,0-0.316,1.423-21.341,3.636c-15.331,1.613-20.398,9.44-22.024,13.564
		c-3.122-1.481-6.506-1.887-9.588-1.804c-3.081-0.083-6.466,0.322-9.588,1.804c-1.625-4.124-6.692-11.951-22.024-13.564
		c-21.024-2.213-21.34-3.636-21.34-3.636s-6.323,44.578,3.478,52.956c0,0,33.452-5.082,40.112-21.048
		c2.383,0.636,5.778,1.294,9.363,1.242c3.586,0.052,6.982-0.606,9.363-1.242c6.661,15.966,40.112,21.048,40.112,21.048
		C209.271,279.617,202.948,235.039,202.948,235.039z"/>
</g>
<g id="Calque_4">
</g>
<g id="Calque_3" display="none">
</g>
</svg>
