<?xml version="1.0" encoding="utf-8"?>
<!-- Generator: Adobe Illustrator 16.0.0, SVG Export Plug-In . SVG Version: 6.00 Build 0)  -->
<!DOCTYPE svg PUBLIC "-//W3C//DTD SVG 1.1//EN" "http://www.w3.org/Graphics/SVG/1.1/DTD/svg11.dtd">
<svg version="1.1" xmlns="http://www.w3.org/2000/svg" xmlns:xlink="http://www.w3.org/1999/xlink" x="0px" y="0px"
	 width="299.99px" height="299.99px" viewBox="0 0 299.99 299.99" enable-background="new 0 0 299.99 299.99" xml:space="preserve">
<g id="Calque_2">
	<polygon fill="#027FB9" points="145.162,137.328 139.162,164.328 85.662,169.662 67.995,167.995 67.995,135.661 103.328,132.328 
		140.162,134.495 	"/>
	<polyline fill="#027FB9" points="166.162,137.161 173.162,162.995 214.162,168.828 242.995,167.828 245.662,151.995 
		243.662,136.328 201.829,132.328 	"/>
	<path fill="#FFC905" d="M53.5,189.329c0,0,4.343,58.166,41.662,76.166s50.534,21.999,60.333,21.667s61-15.334,70.667-35.667
		s23.052-33.332,22.359-81.166c0.13-0.506,0.239-1.065,0.332-1.675l0.001,0.048c0,0,1.756,1.612,2.587-24.646
		c0.241-7.583,0.02-19.15-0.979-32.224l-0.002,0c0-0.004,0-0.008,0-0.014c-0.027-0.355-0.054-0.707-0.082-1.064
		c0.025-0.009,0.048-0.02,0.072-0.029c-0.01-20.216-2.52-36.139-5.954-48.49c-0.001-0.009-0.001-0.017-0.003-0.024
		C238.596,18.935,205.637,15.4,205.637,15.4l-0.018-0.003c-8.716-2.417-18.531-3.478-27.937-3.802
		c-0.054-0.004-0.104-0.009-0.159-0.013c-71.425-5.407-77.23,27.75-77.23,27.75s-0.013,0-0.036,0
		c-1.554-0.087-3.143,0.021-4.758,0.347c-11.523,1.455-40.027,8.98-42.671,47.815c-1.205,17.692-1.535,28.862-1.468,35.917
		c-0.781,4.42-1.406,8.74-1.854,12.874l-0.007,0.001c0,0-4.099,14.497,3.977,52.933C53.484,189.257,53.491,189.291,53.5,189.329z
		 M247.772,144.056v0.02c0-0.013-0.002-0.027-0.004-0.041L247.772,144.056z M170.151,259.51c0.673,4.377-2.003,10.589-5.216,16.186
		c-9.176,13.436-19.043,0.021-19.059-0.001c-3.528-5.596-6.466-11.808-5.727-16.185c1.102-6.521-12.051-11.029-26.9-16.081
		c0.304-0.708,0.662-1.504,1.056-2.334c1.858-3.396,6.521-9.5,16.643-11.354c0.002,0,0.003-0.001,0.005-0.001
		c6.827-1.237,15.714-2.88,20.807-3.824c3.563-0.282,7.164-0.127,11.477,0.744c0.018,0.003,0.033,0.007,0.051,0.01
		c6.208,1.261,14.822,3.001,19.802,3.971c0.001,0.001,0.001,0.001,0.002,0.001c2.403,1.354,8.583,6.373,10.181,13.301
		C180.325,248.79,169.181,253.212,170.151,259.51z M215.708,234.581c-3.713,1.969-7.857,3.75-12.096,5.431
		c-3.744-11.558-13.666-15.403-13.666-15.403c-2.633-2.22-11.284-7.446-34.12-6.926c-17.066,0.389-30.925,4.72-36.843,6.886
		c-0.191,0.013-0.383,0.028-0.573,0.04c0,0-10.896,3.846-15.008,15.403c-4.654-1.681-9.206-3.462-13.283-5.431
		c-16.975-8.197-26.772-49.059-29.396-61.494v-0.003c0,0-2.16-12.282-3.171-24.863l6.724-3.404
		c-0.848,11.07-0.404,25.104-0.404,25.104c8.5,4.535,64.042-1.701,74.621-2.834c10.579-1.134,9.272-28.12,10.706-27.896
		c1.435,0.224,6.673,1.638,6.673,1.638v-0.001c0,0,5.241-1.415,6.676-1.638c1.437-0.223,0.126,26.763,10.707,27.896
		c9.292,0.995,53.269,5.925,69.589,4.036C241.173,180.305,232.13,225.872,215.708,234.581z M71.429,138.014
		c24.001-4.616,54.813-1.801,69.401,0.008c-0.617,5.503-2.083,17.398-3.661,21.695c-2.077,5.669-66.874,6.423-66.874,6.423
		C69.281,163.246,70.706,145.953,71.429,138.014z M170.919,138.021c14.586-1.81,45.398-4.624,69.399-0.008
		c0.725,7.939,2.146,25.233,1.134,28.126c0,0-64.798-0.754-66.877-6.422C172.999,155.42,171.532,143.524,170.919,138.021z
		 M57.059,135.069c0.484-3.272,1.278-6.79,2.57-9.964l4.693-7.169c0.312-0.285,0.633-0.556,0.969-0.808
		c9.972-7.479,54.017-35.735,59.834-45.707c0.396-0.68,0.626-1.506,0.769-2.398c2.46,1.415,7.109,2.707,15.575,3.368
		c6.182,0.483,12.777,1.26,19.194,2.152c4.037,1.34,8.232,2.866,12.48,4.52l0.002-0.003c0,0,28.848,6.765,42.284,8.428
		c11.48,1.419,14.761,11.736,16.34,20.932c0.003,0.193,0.113,6.106,6.652,16.188c2.069,3.19,3.395,6.138,4.24,8.688
		c-9.644-1.792-41.556-6.521-80.116,0.606c0,0-4.594,0.347-6.676,0.74v0.001c-2.076-0.393-6.673-0.74-6.673-0.74
		c-46.346-8.565-83.123,0-83.123,0c-0.414,1.097-0.754,2.556-1.037,4.246l-7.903,3.292
		C57.048,139.233,57.014,137.086,57.059,135.069z"/>
</g>
<g id="Calque_4">
</g>
<g id="Calque_3" display="none">
</g>
</svg>
