<?xml version="1.0" encoding="utf-8"?>
<!-- Generator: Adobe Illustrator 16.0.0, SVG Export Plug-In . SVG Version: 6.00 Build 0)  -->
<!DOCTYPE svg PUBLIC "-//W3C//DTD SVG 1.1//EN" "http://www.w3.org/Graphics/SVG/1.1/DTD/svg11.dtd">
<svg version="1.1" xmlns="http://www.w3.org/2000/svg" xmlns:xlink="http://www.w3.org/1999/xlink" x="0px" y="0px"
	 width="299.99px" height="299.99px" viewBox="0 0 299.99 299.99" enable-background="new 0 0 299.99 299.99" xml:space="preserve">
<g id="Calque_2" display="none">
	<ellipse display="inline" fill="#F4BAE1" cx="160.828" cy="171.162" rx="332.333" ry="250"/>
</g>
<g id="Calque_4">
	<g id="Calque_2_1_">
		<polygon fill="#8DC44C" points="144.115,72.691 141.004,86.689 113.265,89.454 104.106,88.59 104.106,71.826 122.425,70.098 
			141.522,71.221 		"/>
		<polyline fill="#8DC44C" points="155.003,72.604 158.632,85.999 179.888,89.022 194.837,88.504 196.219,80.295 195.183,72.173 
			173.494,70.098 		"/>
		<path fill="#922990" d="M96.591,99.652c0,0,2.251,30.157,21.601,39.488c19.348,9.332,26.199,11.406,31.28,11.234
			c5.08-0.172,31.627-7.95,36.639-18.492c5.012-10.543,11.951-17.283,11.593-42.082c0.067-0.263,0.124-0.553,0.172-0.868v0.023
			c0,0,0.91,0.837,1.342-12.777c0.126-3.932,0.011-9.928-0.509-16.706l0,0c0-0.002,0-0.004,0-0.007
			c-0.014-0.185-0.028-0.367-0.042-0.552c0.013-0.004,0.024-0.01,0.037-0.015c-0.006-10.481-1.307-18.737-3.087-25.14
			c-0.001-0.003-0.001-0.009-0.001-0.013c-3.058-22.437-20.146-24.27-20.146-24.27l-0.009-0.001
			c-4.52-1.253-9.607-1.803-14.484-1.971c-0.027-0.002-0.054-0.005-0.083-0.007c-37.031-2.804-40.041,14.388-40.041,14.388
			s-0.007,0-0.018,0c-0.806-0.046-1.629,0.01-2.467,0.18c-5.974,0.754-20.752,4.656-22.123,24.79
			c-0.624,9.173-0.796,14.963-0.761,18.622c-0.405,2.292-0.729,4.532-0.962,6.675h-0.003c0,0-2.125,7.516,2.062,27.444
			C96.583,99.614,96.586,99.632,96.591,99.652z M197.314,76.178v0.011c0-0.007-0.002-0.013-0.002-0.021L197.314,76.178z
			 M157.07,136.039c0.351,2.268-1.038,5.489-2.704,8.392c-4.757,6.964-9.873,0.01-9.881-0.001c-1.829-2.901-3.353-6.123-2.968-8.391
			c0.57-3.382-6.249-5.719-13.947-8.339c0.158-0.367,0.343-0.78,0.549-1.209c0.962-1.761,3.38-4.924,8.628-5.887
			c0,0,0.001,0,0.001,0c3.539-0.641,8.148-1.493,10.788-1.982c1.848-0.147,3.715-0.067,5.95,0.385
			c0.011,0.001,0.018,0.003,0.026,0.005c3.22,0.652,7.687,1.555,10.268,2.06c0.001,0,0.001,0,0.001,0
			c1.245,0.7,4.449,3.305,5.277,6.896C162.344,130.48,156.569,132.772,157.07,136.039z M180.689,123.113
			c-1.925,1.021-4.072,1.943-6.271,2.814c-1.941-5.99-7.084-7.985-7.084-7.985c-1.366-1.151-5.853-3.861-17.692-3.591
			c-8.847,0.202-16.033,2.447-19.101,3.57c-0.099,0.007-0.198,0.015-0.297,0.021c0,0-5.649,1.994-7.781,7.985
			c-2.413-0.871-4.772-1.793-6.887-2.814c-8.801-4.25-13.881-25.436-15.241-31.883v-0.002c0,0-1.12-6.368-1.645-12.891l3.486-1.765
			c-0.439,5.739-0.209,13.014-0.209,13.014c4.408,2.353,33.204-0.882,38.688-1.469c5.483-0.587,4.808-14.579,5.55-14.464
			c0.744,0.116,3.46,0.85,3.46,0.85v0c0,0,2.717-0.733,3.461-0.85c0.744-0.115,0.065,13.876,5.55,14.463
			c4.817,0.516,27.619,3.072,36.081,2.093C193.892,94.972,189.204,118.597,180.689,123.113z M105.886,73.046
			c12.444-2.393,28.418-0.933,35.983,0.005c-0.32,2.853-1.08,9.021-1.898,11.249c-1.077,2.939-34.672,3.33-34.672,3.33
			C104.773,86.129,105.511,77.162,105.886,73.046z M157.469,73.05c7.562-0.938,23.536-2.398,35.979-0.004
			c0.375,4.116,1.112,13.083,0.588,14.583c0,0-33.596-0.391-34.672-3.33C158.547,82.07,157.787,75.903,157.469,73.05z
			 M98.437,71.519c0.251-1.696,0.663-3.519,1.333-5.166l2.432-3.717c0.162-0.148,0.329-0.289,0.502-0.418
			c5.171-3.878,28.006-18.527,31.022-23.698c0.206-0.352,0.325-0.781,0.398-1.244c1.276,0.734,3.686,1.404,8.075,1.747
			c3.206,0.251,6.625,0.653,9.951,1.115c2.095,0.695,4.268,1.487,6.471,2.344l0.001-0.001c0,0,14.958,3.507,21.923,4.371
			c5.954,0.734,7.653,6.084,8.472,10.851c0.002,0.101,0.06,3.167,3.449,8.393c1.071,1.655,1.761,3.183,2.199,4.504
			c-5.001-0.929-21.546-3.381-41.538,0.314c0,0-2.381,0.181-3.461,0.384l0,0c-1.075-0.203-3.46-0.384-3.46-0.384
			c-24.029-4.44-43.096,0-43.096,0c-0.214,0.569-0.391,1.325-0.537,2.202l-4.099,1.707C98.43,73.678,98.413,72.565,98.437,71.519z"
			/>
		<path fill="#D11B70" d="M342.397,136.531"/>
	</g>
	<g id="Calque_3_1_" display="none">
	</g>
	<path fill="#922990" d="M153.884,187.031l10.383-16.662c0.15-0.091,0.222-0.181,0.168-0.27c-0.395-0.646-2.105-5.188-14.439-5.521
		s-14.43,5.521-14.43,5.521l10.551,16.932c0,0-14.784,38.095-14.014,81.194l17.898,26.937l-0.004-123.667h0.01L150,295.162
		l17.898-26.937C168.669,225.126,153.884,187.031,153.884,187.031z"/>
</g>
<g id="Calque_3" display="none">
</g>
</svg>
