<?xml version="1.0" standalone="no"?><!-- Generator: Gravit.io --><svg xmlns="http://www.w3.org/2000/svg" xmlns:xlink="http://www.w3.org/1999/xlink" style="isolation:isolate" viewBox="0 0 300 300" width="300" height="300"><defs><clipPath id="_clipPath_NTizh4p2qUlQhFpkFSTjGVgX97KD44YC"><rect width="300" height="300"/></clipPath></defs><g clip-path="url(#_clipPath_NTizh4p2qUlQhFpkFSTjGVgX97KD44YC)"><path d=" M 44.35 196.647 C 44.35 139.605 94.25 163.836 154.226 163.836 C 214.203 163.836 261.69 139.605 261.69 196.647 C 261.69 253.689 212.997 300 153.02 300 C 93.043 300 44.35 253.689 44.35 196.647 Z " fill="rgb(36,36,36)"/><path d=" M 107.409 87.254 L 126.587 76.185 L 141.929 85.043 L 126.587 93.901 L 107.409 87.254 Z " fill="rgb(140,140,140)"/><path d=" M 44.35 188.78 C 44.35 155.541 93.043 128.555 153.02 128.555 C 212.997 128.555 261.69 155.541 261.69 188.78 C 261.69 222.019 212.997 249.005 153.02 249.005 C 93.043 249.005 44.35 222.019 44.35 188.78 Z " fill="rgb(64,64,64)"/><path d=" M 118.916 88.237 L 116.422 86.798 C 109.331 82.704 103.929 86.018 104.367 94.195 L 108.127 164.398 L 118.916 88.237 Z " fill="rgb(64,64,64)"/><path d=" M 167.205 204.695 L 164.942 203.389 L 141.929 101.524 L 157.271 101.524 Q 178.22 104.735 180.284 105.953 C 182.348 107.171 181.43 110.869 181.051 111.064 Q 180.867 111.159 180.371 197.144 C 180.323 205.479 174.423 208.863 167.205 204.695 Z " fill="rgb(64,64,64)"/><path d=" M 140.722 97.026 L 118.916 89.472 Q 101.383 131.32 111.596 193.978 C 111.714 194.701 114.58 203.959 149.6 213.481 Q 153.766 214.614 164.942 204.623 L 164.942 158.265 C 164.942 139.852 161.505 114.98 157.271 102.759 L 157.271 102.759 L 140.722 97.026 Z " fill="rgb(36,36,36)"/><path d=" M 176.449 206.652 Q 260.958 197.167 260.991 197.015 C 265.034 178.014 253.821 153.322 203.287 136.274 Q 202.679 136.069 176.449 206.652 Z " fill="rgb(64,64,64)"/><path d=" M 118.916 98.833 L 118.916 107.924 L 118.916 142.619 L 141.929 102.759 L 124.535 92.716 L 118.916 89.472 L 118.916 98.833 Z " fill="rgb(255,255,255)"/><path d=" M 154.695 102.867 L 168 110.702 C 174.002 114.237 178.692 122.759 178.467 129.722 L 175.954 207.138 L 190.325 199.025 C 192.473 197.811 194.56 194.852 194.981 192.421 L 207.06 122.682 C 208.44 114.716 203.876 104.967 196.874 100.924 L 178.876 90.533 L 154.695 102.867 Z " fill="rgb(36,36,36)"/><path d=" M 154.203 104.627 L 182.789 88.33 C 185.834 86.594 188.307 82.338 188.307 78.833 L 188.307 49.753 L 157.623 67.469 L 153.02 98.242 L 154.203 104.627 Z " fill="rgb(198,157,111)"/><g id="Group"><path d=" M 127.459 109.612 L 134 105.835 L 134 98.282 L 127.459 94.506 L 120.918 98.282 L 120.918 105.835 L 127.459 109.612 Z " fill="rgb(36,36,36)"/><path d=" M 121.796 100.045 L 125.592 97.667 L 125.592 96 L 121.796 90.533 L 118 92.911 L 118 97.667 L 121.796 100.045 Z " fill="rgb(36,36,36)"/><path d=" M 126.798 101.334 L 133.741 97.598 L 133.741 116.533 L 126.798 108.848 L 126.798 101.334 Z " fill="rgb(64,64,64)"/><path d=" M 138.278 96.018 L 133.741 97.598 Q 133.553 111.681 133.741 116.533 Q 133.742 116.566 139.264 109.796 L 139.264 94.533 L 133.741 97.598 L 133.741 116.533" fill="rgb(36,36,36)"/><path d=" M 124.188 107.723 L 127.459 109.612 L 127.459 101.608 L 120.918 98.282 L 120.918 105.835 L 124.188 107.723 Z " fill="rgb(64,64,64)"/><path d=" M 120.918 105.835 L 121.796 103.608 L 121.796 98.568 L 118 92.911 L 118 106.533 L 120.918 105.835 Z " fill="rgb(64,64,64)"/></g><path d=" M 111.596 46.791 L 111.596 74.639 C 111.596 80.459 115.688 87.547 120.729 90.457 L 144.294 104.063 C 151.65 108.31 157.623 104.862 157.623 96.367 L 157.623 66.937 C 157.623 62.342 154.392 56.746 150.412 54.448 L 124.373 39.415 C 117.321 35.343 111.596 38.649 111.596 46.791 Z " fill="rgb(247,195,135)"/><path d=" M 149.582 1.85 Q 94.975 12.892 103.556 28.423 Q 95.92 40.273 103.556 46.139 C 111.192 52.005 113.567 37.637 118.898 54.997 C 124.23 72.357 136.301 62.984 134.24 63.854 Q 135.504 68.934 149.582 72.712 C 163.661 76.491 173.659 65.62 180.267 54.997 Q 172.226 84.105 195.609 81.57 C 218.992 79.035 204.19 -9.192 149.582 1.85 Z " fill="rgb(36,36,36)"/></g></svg>