<?xml version="1.0" standalone="no"?><!-- Generator: Gravit.io --><svg xmlns="http://www.w3.org/2000/svg" xmlns:xlink="http://www.w3.org/1999/xlink" style="isolation:isolate" viewBox="0 0 300 300" width="300" height="300"><defs><clipPath id="_clipPath_iks0mLboAAnmfXdijkUfecmOuyjGc7Jm"><rect width="300" height="300"/></clipPath></defs><g clip-path="url(#_clipPath_iks0mLboAAnmfXdijkUfecmOuyjGc7Jm)"><path d=" M 44.35 196.647 C 44.35 139.605 94.25 163.836 154.226 163.836 C 214.203 163.836 261.69 139.605 261.69 196.647 C 261.69 253.689 212.997 300 153.02 300 C 93.043 300 44.35 253.689 44.35 196.647 Z " fill="rgb(29,32,40)"/><path d=" M 107.409 86.984 L 126.587 76.185 L 141.929 85.043 L 126.587 93.901 L 107.409 86.984 Z " fill="rgb(25,27,34)"/><path d=" M 44.35 190.015 C 44.35 156.776 93.043 129.79 153.02 129.79 C 212.997 129.79 261.69 156.776 261.69 190.015 C 261.69 223.254 212.997 250.24 153.02 250.24 C 93.043 250.24 44.35 223.254 44.35 190.015 Z " fill="rgb(86,93,121)"/><path d=" M 118.916 89.472 L 116.422 88.032 C 109.331 83.938 103.929 87.253 104.367 95.429 L 108.127 165.632 L 118.916 89.472 Z " fill="rgb(86,93,121)"/><path d=" M 167.205 205.929 L 164.942 204.623 L 141.929 102.759 L 157.271 102.759 Q 178.22 105.97 180.284 107.188 C 182.348 108.405 181.43 112.104 181.051 112.298 Q 180.867 112.393 180.371 198.378 C 180.323 206.714 174.423 210.097 167.205 205.929 Z " fill="rgb(86,93,121)"/><path d=" M 140.722 97.026 L 118.916 89.472 Q 101.383 131.32 111.596 193.978 C 111.714 194.701 114.58 203.959 149.6 213.481 Q 153.766 214.614 164.942 204.623 L 164.942 158.265 C 164.942 139.852 161.505 114.98 157.271 102.759 L 157.271 102.759 L 140.722 97.026 Z " fill="rgb(25,27,34)"/><path d=" M 176.449 206.652 Q 260.958 197.167 260.991 197.015 C 265.034 178.014 253.821 153.322 203.287 136.274 Q 202.679 136.069 176.449 206.652 Z " fill="rgb(64,64,64)"/><path d=" M 118.916 98.833 L 118.916 107.924 L 118.916 142.619 L 141.929 102.759 L 124.535 92.716 L 118.916 89.472 L 118.916 98.833 Z " fill="rgb(255,255,255)"/><path d=" M 130.399 110.966 L 126.35 108.941 L 118.561 118.219 L 117.571 146.949 L 129.459 124.405 L 130.399 110.966 Z " fill="rgb(37,46,81)"/><path d=" M 154.695 102.867 L 168 110.702 C 174.002 114.237 178.692 122.759 178.467 129.722 L 175.954 207.138 L 190.325 199.025 C 192.473 197.811 194.56 194.852 194.981 192.421 L 207.06 122.682 C 208.44 114.716 203.876 104.967 196.874 100.924 L 178.876 90.533 L 154.695 102.867 Z " fill="rgb(25,27,34)"/><path d=" M 129.459 112.965 L 139.366 107.245 L 139.366 95.806 L 129.459 90.086 L 119.552 95.806 L 119.552 107.245 L 129.459 112.965 Z " fill="rgb(37,46,81)"/><path d=" M 154.203 104.627 L 182.789 88.33 C 185.834 86.594 188.307 82.338 188.307 78.833 L 188.307 49.753 L 157.623 67.469 L 153.02 98.242 L 154.203 104.627 Z " fill="rgb(198,157,111)"/><path d=" M 111.596 46.791 L 111.596 74.639 C 111.596 80.459 115.688 87.547 120.729 90.457 L 144.294 104.063 C 151.65 108.31 157.623 104.862 157.623 96.367 L 157.623 66.937 C 157.623 62.342 154.392 56.746 150.412 54.448 L 124.373 39.415 C 117.321 35.343 111.596 38.649 111.596 46.791 Z " fill="rgb(247,195,135)"/><path d=" M 149.582 1.85 Q 94.975 12.892 103.556 28.423 Q 95.92 40.273 103.556 46.139 C 111.192 52.005 113.567 37.637 118.898 54.997 C 124.23 72.357 136.301 62.984 134.24 63.854 Q 135.504 68.934 149.582 72.712 C 163.661 76.491 173.659 65.62 180.267 54.997 Q 172.226 84.105 195.609 81.57 C 218.992 79.035 204.19 -9.192 149.582 1.85 Z " fill="rgb(242,208,69)"/><path d=" M 124.505 110.105 L 129.459 112.965 L 129.459 100.842 L 119.552 95.806 L 119.552 107.245 L 124.505 110.105 Z " fill="rgb(114,132,206)"/><path d=" M 117.571 146.949 L 128.374 110.966 L 125.337 110.105 L 118.561 118.219 L 117.571 146.949 Z " fill="rgb(114,132,206)"/></g></svg>