<?xml version="1.0" standalone="no"?><!-- Generator: Gravit.io --><svg xmlns="http://www.w3.org/2000/svg" xmlns:xlink="http://www.w3.org/1999/xlink" style="isolation:isolate" viewBox="0 0 300 300" width="300" height="300"><defs><clipPath id="_clipPath_oWr0AYCe138pu94waXrIaE28wRCoIzQ8"><rect width="300" height="300"/></clipPath></defs><g clip-path="url(#_clipPath_oWr0AYCe138pu94waXrIaE28wRCoIzQ8)"><path d=" M 45 196.062 C 45 139.19 94.75 163.349 154.548 163.349 C 214.345 163.349 261.69 139.19 261.69 196.062 C 261.69 252.933 213.142 299.106 153.345 299.106 C 93.548 299.106 45 252.933 45 196.062 Z " fill="rgb(36,36,36)"/><path d=" M 107.871 87 L 126.991 75.96 L 142.287 84.792 L 126.991 93.623 L 107.871 87 Z " fill="rgb(36,36,36)"/><path d=" M 45 189.449 C 45 156.31 93.548 129.405 153.345 129.405 C 213.142 129.405 261.69 156.31 261.69 189.449 C 261.69 222.589 213.142 249.494 153.345 249.494 C 93.548 249.494 45 222.589 45 189.449 Z " fill="rgb(64,64,64)"/><path d=" M 119.343 89.207 L 116.857 87.772 C 109.787 83.69 104.401 86.995 104.838 95.147 L 108.587 165.14 L 119.343 89.207 Z " fill="rgb(64,64,64)"/><path d=" M 167.487 205.316 L 165.231 204.014 L 142.287 102.454 L 157.583 102.454 Q 178.47 105.656 180.528 106.87 C 182.585 108.084 181.67 111.771 181.293 111.965 Q 181.108 112.06 180.614 197.788 C 180.567 206.098 174.685 209.472 167.487 205.316 Z " fill="rgb(64,64,64)"/><path d=" M 141.084 96.738 L 119.343 89.207 Q 101.863 130.93 112.045 193.4 C 112.163 194.121 115.02 203.352 149.935 212.845 Q 154.089 213.975 165.231 204.014 L 165.231 157.794 C 165.231 139.436 161.804 114.639 157.583 102.454 L 157.583 102.454 L 141.084 96.738 Z " fill="rgb(36,36,36)"/><path d=" M 176.704 206.037 Q 260.961 196.58 260.993 196.428 C 265.024 177.484 253.844 152.867 203.462 135.87 Q 202.856 135.665 176.704 206.037 Z " fill="rgb(64,64,64)"/><path d=" M 119.343 98.54 L 119.343 107.604 L 119.343 142.195 L 142.287 102.454 L 124.946 92.442 L 119.343 89.207 L 119.343 98.54 Z " fill="rgb(255,255,255)"/><path d=" M 130.792 110.637 L 126.754 108.618 L 118.989 117.868 L 118.002 146.513 L 129.854 124.035 L 130.792 110.637 Z " fill="rgb(36,36,36)"/><path d=" M 155.015 102.562 L 168.28 110.373 C 174.265 113.898 178.941 122.395 178.715 129.337 L 176.211 206.522 L 190.538 198.432 C 192.681 197.223 194.761 194.273 195.181 191.848 L 207.224 122.318 C 208.599 114.376 204.049 104.656 197.068 100.625 L 179.124 90.265 L 155.015 102.562 Z " fill="rgb(36,36,36)"/><path d=" M 125.879 110.335 L 129.854 112.63 L 139.732 106.927 L 139.732 95.522 L 129.854 89.819 L 119.977 95.522 L 119.977 106.927 L 125.879 110.335 Z " fill="rgb(36,36,36)"/><path d=" M 154.524 104.317 L 183.025 88.069 C 186.061 86.338 188.526 82.095 188.526 78.6 L 188.526 49.607 L 157.934 67.27 L 153.345 97.951 L 154.524 104.317 Z " fill="rgb(159,133,27)"/><path d=" M 112.045 46.654 L 112.045 74.419 C 112.045 80.222 116.125 87.288 121.15 90.19 L 144.645 103.754 C 151.979 107.989 157.934 104.551 157.934 96.082 L 157.934 66.74 C 157.934 62.158 154.713 56.579 150.745 54.288 L 124.784 39.3 C 117.753 35.24 112.045 38.536 112.045 46.654 Z " fill="rgb(244,208,63)"/><path d=" M 149.918 1.847 Q 95.473 12.856 104.029 28.341 Q 96.416 40.155 104.029 46.004 C 111.642 51.852 114.009 37.527 119.325 54.835 C 124.641 72.143 136.676 62.798 134.622 63.666 Q 135.881 68.73 149.918 72.497 C 163.954 76.265 173.922 65.426 180.51 54.835 Q 172.493 83.857 195.807 81.329 C 219.12 78.801 204.362 -9.162 149.918 1.847 Z " fill="rgb(232,232,232)"/><path d=" M 124.916 109.779 L 129.854 112.63 L 129.854 100.544 L 119.977 95.522 L 119.977 106.927 L 124.916 109.779 Z " fill="rgb(64,64,64)"/><path d=" M 118.002 146.513 L 128.773 110.637 L 125.745 109.779 L 118.989 117.868 L 118.002 146.513 Z " fill="rgb(64,64,64)"/></g></svg>