<?xml version="1.0" encoding="utf-8"?>
<!-- Generator: Adobe Illustrator 16.0.0, SVG Export Plug-In . SVG Version: 6.00 Build 0)  -->
<!DOCTYPE svg PUBLIC "-//W3C//DTD SVG 1.1//EN" "http://www.w3.org/Graphics/SVG/1.1/DTD/svg11.dtd">
<svg version="1.1" id="Calque_1" xmlns="http://www.w3.org/2000/svg" xmlns:xlink="http://www.w3.org/1999/xlink" x="0px" y="0px"
	 width="265.879px" height="300px" viewBox="0 0 265.879 300" enable-background="new 0 0 265.879 300" xml:space="preserve">
<g>
	<g>
		<polygon fill="#6DCFF6" points="147.674,27.786 194.445,27.786 255.803,89.143 255.803,177.53 147.674,177.53 		"/>
		<polygon fill="#FFFFFF" points="194.445,27.786 255.803,89.143 194.445,89.143 		"/>
		<polygon fill="#6DCFF6" points="209.297,42.636 209.297,74.293 240.953,74.293 		"/>
	</g>
	<g>
		<path fill="#FFFFFF" d="M170.764,106.921h-5.588v4.355h6.248v2.223h-8.955v-14.83h8.625v2.223h-5.918v3.828h5.588V106.921z"/>
		<path fill="#FFFFFF" d="M175.494,102.784l1.275,2.023c0.352,0.572,0.66,1.102,0.969,1.65h0.043
			c0.309-0.594,0.617-1.145,0.947-1.693l1.188-1.98h2.949l-3.588,5.148l3.652,5.566h-3.08l-1.299-2.135
			c-0.352-0.57-0.658-1.143-0.967-1.736h-0.045c-0.307,0.615-0.637,1.143-0.967,1.736l-1.232,2.135h-2.992l3.717-5.457l-3.586-5.258
			H175.494z"/>
		<path fill="#FFFFFF" d="M186.053,108.901c0.066,1.936,1.563,2.771,3.301,2.771c1.254,0,2.135-0.197,2.971-0.484l0.396,1.85
			c-0.924,0.395-2.201,0.682-3.74,0.682c-3.477,0-5.523-2.135-5.523-5.412c0-2.971,1.805-5.766,5.236-5.766
			c3.477,0,4.621,2.861,4.621,5.215c0,0.506-0.043,0.902-0.088,1.145H186.053z M190.762,107.009c0.023-0.99-0.418-2.619-2.223-2.619
			c-1.672,0-2.375,1.52-2.486,2.619H190.762z"/>
		<path fill="#FFFFFF" d="M195.49,105.974c0-1.23-0.043-2.266-0.088-3.189h2.311l0.133,1.584h0.066
			c0.506-0.836,1.473-1.826,3.299-1.826c1.408,0,2.51,0.793,2.971,1.98h0.045c0.373-0.594,0.814-1.035,1.297-1.342
			c0.617-0.418,1.299-0.639,2.201-0.639c1.76,0,3.564,1.211,3.564,4.643v6.314h-2.641v-5.918c0-1.783-0.615-2.838-1.914-2.838
			c-0.924,0-1.605,0.66-1.893,1.43c-0.088,0.242-0.131,0.594-0.131,0.902v6.424h-2.641v-6.205c0-1.496-0.594-2.551-1.85-2.551
			c-1.012,0-1.693,0.791-1.957,1.518c-0.088,0.285-0.133,0.594-0.133,0.902v6.336h-2.641V105.974z"/>
		<path fill="#FFFFFF" d="M214.146,106.349c0-1.408-0.045-2.553-0.088-3.564h2.375l0.133,1.65h0.045
			c0.791-1.211,2.045-1.893,3.674-1.893c2.465,0,4.51,2.111,4.51,5.457c0,3.873-2.441,5.742-4.885,5.742
			c-1.342,0-2.463-0.572-3.014-1.43h-0.045v5.545h-2.705V106.349z M216.852,109.011c0,0.264,0.023,0.506,0.066,0.748
			c0.287,1.1,1.232,1.893,2.398,1.893c1.717,0,2.729-1.43,2.729-3.543c0-1.893-0.924-3.432-2.662-3.432
			c-1.123,0-2.156,0.814-2.441,2.002c-0.045,0.221-0.09,0.461-0.09,0.682V109.011z"/>
		<path fill="#FFFFFF" d="M227.016,97.878h2.707v15.621h-2.707V97.878z"/>
		<path fill="#FFFFFF" d="M234.584,108.901c0.066,1.936,1.563,2.771,3.301,2.771c1.254,0,2.135-0.197,2.971-0.484l0.395,1.85
			c-0.924,0.395-2.199,0.682-3.74,0.682c-3.477,0-5.521-2.135-5.521-5.412c0-2.971,1.803-5.766,5.236-5.766
			c3.477,0,4.621,2.861,4.621,5.215c0,0.506-0.045,0.902-0.09,1.145H234.584z M239.293,107.009c0.021-0.99-0.418-2.619-2.223-2.619
			c-1.672,0-2.377,1.52-2.486,2.619H239.293z"/>
	</g>
	<g>
		<circle fill="#0A4E9B" cx="112.946" cy="61.067" r="52.799"/>
		<path fill="#0A4E9B" d="M135.705,124.79H90.188c-44.246,0-80.111,35.866-80.111,80.111v46.677
			c10.314,9.495,21.953,17.573,34.594,23.954V215.98c0-2.851,2.305-5.164,5.16-5.164c2.857,0,5.162,2.313,5.162,5.164v64.261
			c17.861,7.381,37.422,11.491,57.953,11.491c20.184,0,39.428-3.954,57.043-11.102v-64.65c0-2.851,2.307-5.164,5.158-5.164
			c2.857,0,5.164,2.313,5.164,5.164v59.984c12.992-6.445,24.947-14.665,35.504-24.387v-46.677
			C215.814,160.656,179.949,124.79,135.705,124.79z"/>
	</g>
	<g>
		<path fill="#0A4E9B" d="M232.301,137.929l-12.619,67.244c-0.475,2.508,1.176,4.92,3.682,5.39l7.283,1.374
			c2.504,0.475,4.914-1.174,5.391-3.682l12.621-67.246L232.301,137.929z"/>
		<polygon fill="#0A4E9B" points="232.471,135.06 243.814,120.376 249.041,138.117 		"/>
		<polygon fill="#FFFFFF" points="238.979,126.637 243.814,120.376 246.027,127.888 		"/>
	</g>
</g>
</svg>
