<?xml version="1.0" encoding="utf-8"?>
<!-- Generator: Adobe Illustrator 16.0.0, SVG Export Plug-In . SVG Version: 6.00 Build 0)  -->
<!DOCTYPE svg PUBLIC "-//W3C//DTD SVG 1.1//EN" "http://www.w3.org/Graphics/SVG/1.1/DTD/svg11.dtd">
<svg version="1.1" id="Calque_1" xmlns="http://www.w3.org/2000/svg" xmlns:xlink="http://www.w3.org/1999/xlink" x="0px" y="0px"
	 width="165.541px" height="299.99px" viewBox="0 0 165.541 299.99" enable-background="new 0 0 165.541 299.99"
	 xml:space="preserve">
<g>
	<g>
		<path fill="#92278F" d="M107.065,70.01c17.053,0,30.875-13.825,30.875-30.876c0-17.049-13.822-30.87-30.875-30.87
			c-17.051,0-30.872,13.821-30.872,30.87C76.194,56.185,90.015,70.01,107.065,70.01z"/>
		<path fill="#92278F" d="M36.959,218.447c15.33,4.186,31.15-4.848,35.338-20.184l24.94-91.375
			c4.184-15.333-4.852-31.15-20.184-35.334l-7.063-1.928c-15.326-4.185-31.15,4.849-35.334,20.182L9.715,181.184
			c-4.185,15.336,4.854,31.152,20.182,35.337L36.959,218.447z"/>
		<path fill="#92278F" d="M76.5,99.152c-3.338-5.33-1.72-12.356,3.622-15.695l0,0c5.329-3.334,12.356-1.713,15.691,3.618
			l42.089,67.47c3.337,5.334,1.72,12.359-3.614,15.695l0,0c-5.336,3.335-12.363,1.711-15.697-3.622L76.5,99.152z"/>
		<path fill="#92278F" d="M124.278,80.361c0.568-6.264,6.108-10.878,12.381-10.305l0,0c6.26,0.572,10.872,6.115,10.303,12.377
			l-7.325,79.183c-0.571,6.267-6.11,10.882-12.376,10.309l0,0c-6.266-0.575-10.879-6.12-10.305-12.384L124.278,80.361z"/>
		<path fill="#92278F" d="M140.23,175.096c7.9-0.844,14.989,4.877,15.834,12.778l0.572,5.366
			c0.845,7.901-4.876,14.991-12.776,15.835l-97.277,10.392c-7.899,0.844-14.989-4.877-15.833-12.777l-0.574-5.367
			c-0.843-7.9,4.877-14.99,12.778-15.834L140.23,175.096z"/>
		<path fill="#92278F" d="M156.849,277.285c0.025,7.941-6.395,14.402-14.344,14.426l-5.396,0.016
			c-7.945,0.023-14.406-6.396-14.431-14.342l-0.249-86.633c-0.021-7.947,6.398-14.411,14.346-14.435l5.4-0.014
			c7.943-0.026,14.405,6.397,14.426,14.344L156.849,277.285z"/>
	</g>
	<g>
		<g>
			<path fill="#FFFFFF" d="M125.588,24.354c-0.677-1.109-1.911-1.802-3.219-1.802l0,0c-0.694,0-1.374,0.191-1.965,0.553
				l-2.749,1.683l1.34-2.142c1.102-1.768,0.562-4.1-1.2-5.202c-0.601-0.375-1.292-0.573-1.998-0.573l0,0
				c-1.311,0-2.506,0.661-3.201,1.769l-1.378,2.206v-2.25c0-2.082-1.695-3.774-3.775-3.774c-2.082,0-3.774,1.692-3.774,3.774v2.209
				l-1.314-2.138c-0.698-1.128-1.898-1.798-3.219-1.798c-0.697,0-1.381,0.193-1.974,0.558c-1.772,1.092-2.327,3.421-1.24,5.193
				l1.353,2.199l-2.746-1.682c-0.598-0.364-1.277-0.556-1.971-0.556c-1.307,0-2.542,0.692-3.221,1.805
				c-0.525,0.858-0.688,1.875-0.45,2.857c0.237,0.98,0.84,1.81,1.702,2.334l4.596,2.814c0.203,0.124,0.418,0.229,0.64,0.312
				c-0.522,1.373-0.811,2.86-0.811,4.413c0,3.782,1.923,6.134,3.328,7.85c0.929,1.135,1.499,1.866,1.499,2.546
				c0,1.153,0.238,2.101,0.634,2.858c-0.456,0.6-0.7,1.364-0.619,2.172c0.032,0.317,0.112,0.619,0.231,0.898
				c-0.198,0.462-0.285,0.978-0.231,1.511c0.114,1.117,0.806,2.036,1.761,2.481c0.236,1.491,1.509,2.594,3.035,2.594
				c0.104,0,0.211-0.005,0.314-0.017l5.577-0.563c1.541-0.156,2.697-1.427,2.763-2.927c1.172-0.533,1.932-1.768,1.794-3.113
				c-0.031-0.315-0.111-0.614-0.229-0.894c0.201-0.473,0.283-0.99,0.229-1.516c-0.049-0.481-0.207-0.927-0.445-1.313
				c0.263-0.715,0.417-1.56,0.417-2.543c0.038-0.343,0.821-1.306,1.343-1.943c1.489-1.828,3.529-4.33,3.529-8.081
				c0-1.566-0.294-3.065-0.825-4.448c0.217-0.083,0.427-0.185,0.624-0.306l4.603-2.817c0.858-0.524,1.461-1.354,1.696-2.334
				C126.277,26.23,126.115,25.216,125.588,24.354z"/>
		</g>
		<g>
			<path fill="#8DC63F" d="M108.777,23.99c0,0.734-0.599,1.333-1.335,1.333l0,0c-0.738,0-1.334-0.599-1.334-1.333v-5.395
				c0-0.737,0.596-1.334,1.334-1.334l0,0c0.736,0,1.335,0.597,1.335,1.334V23.99z"/>
		</g>
		<g>
			<path fill="#8DC63F" d="M114.066,25.927c-0.392,0.624-1.213,0.815-1.839,0.424l0,0c-0.624-0.39-0.813-1.213-0.425-1.837
				l2.859-4.576c0.391-0.622,1.215-0.813,1.84-0.424l0,0c0.622,0.392,0.813,1.215,0.423,1.84L114.066,25.927z"/>
		</g>
		<g>
			<path fill="#8DC63F" d="M118.468,30.281c-0.631,0.386-1.449,0.188-1.833-0.443l0,0c-0.384-0.624-0.189-1.446,0.44-1.832
				l4.598-2.817c0.63-0.383,1.451-0.186,1.835,0.441l0,0c0.384,0.63,0.188,1.451-0.438,1.835L118.468,30.281z"/>
		</g>
		<g>
			<path fill="#8DC63F" d="M100.825,25.937c0.387,0.628,1.207,0.824,1.837,0.438l0,0c0.625-0.386,0.822-1.207,0.436-1.835
				l-2.823-4.596c-0.388-0.627-1.208-0.823-1.837-0.438l0,0c-0.628,0.387-0.82,1.208-0.436,1.835L100.825,25.937z"/>
		</g>
		<g>
			<path fill="#8DC63F" d="M96.458,30.311c0.63,0.386,1.447,0.188,1.834-0.443l0,0c0.385-0.624,0.188-1.446-0.44-1.832l-4.6-2.816
				c-0.629-0.384-1.451-0.187-1.833,0.44l0,0c-0.386,0.63-0.19,1.451,0.438,1.835L96.458,30.311z"/>
		</g>
		<g>
			<path fill="#8DC63F" d="M112.671,53.654c0.036,0.352-0.218,0.663-0.569,0.699l-9.118,0.926c-0.353,0.036-0.665-0.221-0.7-0.57
				l0,0c-0.035-0.351,0.22-0.664,0.57-0.699l9.119-0.925C112.323,53.049,112.636,53.304,112.671,53.654L112.671,53.654z"/>
		</g>
		<g>
			<path fill="#8DC63F" d="M110.868,56.319c0.036,0.352-0.22,0.665-0.569,0.7l-5.582,0.563c-0.352,0.036-0.664-0.22-0.701-0.57l0,0
				c-0.035-0.351,0.221-0.664,0.572-0.7l5.58-0.563C110.52,55.715,110.832,55.969,110.868,56.319L110.868,56.319z"/>
		</g>
		<g>
			<path fill="#8DC63F" d="M112.671,51.245c0.036,0.352-0.218,0.664-0.569,0.7l-9.118,0.926c-0.353,0.035-0.665-0.22-0.7-0.571l0,0
				c-0.035-0.351,0.22-0.663,0.57-0.699l9.119-0.925C112.323,50.64,112.636,50.895,112.671,51.245L112.671,51.245z"/>
		</g>
		<g>
			<path fill="#8DC63F" d="M97.455,37.117c0-5.535,4.487-10.023,10.021-10.023c5.536,0,10.024,4.488,10.024,10.023
				c0,5.012-4.872,7.287-4.872,10.024c0,2.505-1.254,3.156-2.043,3.156c-0.975,0-4.408,0-6.125,0c-1.161,0-2.182-0.743-2.182-2.785
				C102.279,43.986,97.455,42.405,97.455,37.117z"/>
		</g>
		<g>
			<path fill="#FFFFFF" d="M106.92,29.646c-3.639,0-6.59,2.95-6.59,6.59c0,1.281,1.624,1.397,1.624,0
				c0-2.743,2.225-4.966,4.966-4.966C108.288,31.271,108.353,29.646,106.92,29.646z"/>
		</g>
	</g>
</g>
</svg>
