<?xml version="1.0" encoding="utf-8"?>
<!-- Generator: Adobe Illustrator 16.0.0, SVG Export Plug-In . SVG Version: 6.00 Build 0)  -->
<!DOCTYPE svg PUBLIC "-//W3C//DTD SVG 1.1//EN" "http://www.w3.org/Graphics/SVG/1.1/DTD/svg11.dtd">
<svg version="1.1" id="Calque_1" xmlns="http://www.w3.org/2000/svg" xmlns:xlink="http://www.w3.org/1999/xlink" x="0px" y="0px"
	 width="224px" height="299.991px" viewBox="0 0 224 299.991" enable-background="new 0 0 224 299.991" xml:space="preserve">
<g>
	<g>
		<circle cx="112.001" cy="61.063" r="52.799"/>
		<path d="M134.759,124.786H89.244c-44.248,0-80.113,35.865-80.113,80.111v46.676c10.314,9.496,21.953,17.574,34.594,23.955v-59.553
			c0-2.85,2.305-5.164,5.16-5.164c2.859,0,5.162,2.314,5.162,5.164v64.262c17.863,7.381,37.422,11.49,57.953,11.49
			c20.184,0,39.428-3.953,57.043-11.102v-64.65c0-2.85,2.307-5.164,5.16-5.164c2.855,0,5.162,2.314,5.162,5.164v59.984
			c12.992-6.445,24.947-14.664,35.506-24.387v-46.676C214.871,160.651,179.003,124.786,134.759,124.786z"/>
	</g>
	<g>
		<path fill="#BCBEC0" d="M111.977,83.794c-1.009-0.009-1.914-0.624-2.293-1.559c-1.371-3.372-5.311-7.218-9.482-11.29
			C93.193,64.105,85.25,56.352,85.25,46.829c0-8.771,7.136-15.907,15.906-15.907c4.044,0,7.923,1.561,10.844,4.278
			c2.921-2.717,6.801-4.278,10.846-4.278c8.771,0,15.906,7.136,15.906,15.907c0,8.031-7.983,16.437-15.027,23.854
			c-4.179,4.399-8.126,8.556-9.426,11.595c-0.394,0.921-1.299,1.517-2.299,1.517C111.992,83.794,111.984,83.794,111.977,83.794z"/>
		<path fill="#FFFFFF" d="M122.845,33.421c7.404,0,13.406,6.003,13.406,13.407c0,11.577-20.49,25.671-24.252,34.466
			c-3.979-9.787-24.25-20.491-24.25-34.466c0-7.404,6.002-13.407,13.406-13.407c4.459,0,8.406,2.179,10.844,5.529
			C114.437,35.6,118.386,33.421,122.845,33.421 M122.845,28.421c-3.932,0-7.729,1.274-10.846,3.545
			c-3.117-2.271-6.913-3.545-10.844-3.545c-10.149,0-18.406,8.257-18.406,18.407c0,10.576,8.344,18.721,15.706,25.907
			c3.804,3.713,7.738,7.553,8.912,10.442c0.76,1.87,2.569,3.099,4.587,3.117c0.015,0,0.03,0,0.045,0c2,0,3.809-1.192,4.596-3.034
			c1.124-2.626,5.098-6.811,8.94-10.857c7.366-7.756,15.715-16.546,15.715-25.575C141.251,36.679,132.995,28.421,122.845,28.421
			L122.845,28.421z"/>
	</g>
</g>
</svg>
