<?xml version="1.0" encoding="utf-8"?>
<!-- Generator: Adobe Illustrator 16.0.0, SVG Export Plug-In . SVG Version: 6.00 Build 0)  -->
<!DOCTYPE svg PUBLIC "-//W3C//DTD SVG 1.1//EN" "http://www.w3.org/Graphics/SVG/1.1/DTD/svg11.dtd">
<svg version="1.1" id="Calque_1" xmlns="http://www.w3.org/2000/svg" xmlns:xlink="http://www.w3.org/1999/xlink" x="0px" y="0px"
	 width="299.99px" height="299.99px" viewBox="-1 -2.75 299.99 299.99" enable-background="new -1 -2.75 299.99 299.99"
	 xml:space="preserve">
<g>
	<g>
		<polyline fill="none" stroke="#8BC53F" stroke-width="3" stroke-linecap="round" stroke-miterlimit="10" points="213.411,154.506 
			263.498,142.983 271.5,117.899 		"/>
		<polyline fill="none" stroke="#8BC53F" stroke-width="3" stroke-linecap="round" stroke-miterlimit="10" points="286.166,131.688 
			263.498,142.983 280.499,153.223 		"/>
	</g>
	<g>
		<polyline fill="none" stroke="#8BC53F" stroke-width="3" stroke-linecap="round" stroke-miterlimit="10" points="78.281,160.12 
			31.664,138.481 29.028,112.286 		"/>
		<polyline fill="none" stroke="#8BC53F" stroke-width="3" stroke-linecap="round" stroke-miterlimit="10" points="11.824,122.74 
			31.664,138.481 12.912,144.982 		"/>
	</g>
	<circle fill="#90278E" cx="141.963" cy="198.166" r="90.814"/>
	<path fill="#90278E" d="M163.705,52.012c-21.622,2.928-51.889,7.025-66.337,8.98c-2.756,6.122-4.306,12.907-4.306,20.057
		c0,27.008,21.894,48.9,48.901,48.9c27.006,0,48.899-21.893,48.899-48.9c0-11.856-4.223-22.727-11.243-31.192L163.705,52.012z"/>
	<path fill="#90278E" d="M112.476,10.802c8.664-1.134,16.94-0.546,24.082-1.509c7.142-0.966,9.36-2.425,18.326-3.634
		c8.964-1.21,14.879,4.757,18.092,29.697c1.797,2.733,10.951,0.916,16.341,6.458c3.34,3.43,0.545,3.176-1.623,3.467
		c-2.163,0.293-94.243,12.76-98.917,13.393c-4.673,0.629-4.601-1.489-1.63-4.354c6.57-6.34,14.268-6.915,13.991-8.966
		C99.894,36.124,102.827,12.061,112.476,10.802z"/>
	<g>
		<circle fill="#8BC53F" cx="141.963" cy="163.281" r="7.085"/>
		<circle fill="#8BC53F" cx="141.963" cy="189.478" r="7.085"/>
		<circle fill="#8BC53F" cx="141.963" cy="216.673" r="7.085"/>
	</g>
	<path fill="#8BC53F" d="M97.501,100.072c5.346,3.481,17.401,9.578,42.418,10.079c25.001,0.5,41.166-6.167,45.166-8.334
		c4-2.166,5.056,16.154-1.166,20.166c-6.834,4.409-26.667,10.647-45.954,10.334c-18.3-0.299-30.424-5.952-39.88-12.165
		C93.062,116.85,95.327,98.656,97.501,100.072z"/>
	<path fill="#8BC53F" d="M186.428,118.967c-7.667,19.667-8.376,32.15-5.511,51.404c3.167,21.279-15.001,15.278-16.167,8.445
		s-4.19-33.665,5.835-54.333C180.609,103.817,186.428,118.967,186.428,118.967z"/>
	<circle fill="#FFFFFF" cx="125.919" cy="70.399" r="7.086"/>
	<path fill="#FFFFFF" d="M163.401,70.399c0,3.913-3.171,7.087-7.088,7.087c-3.913,0-7.085-3.174-7.085-7.087
		c0-3.916,3.172-7.09,7.085-7.09C160.23,63.309,163.401,66.483,163.401,70.399z"/>
	<path fill="#FFFFFF" d="M171.827,89.3c-4.562-1.203-18.057-6.106-28.081-7.443c-0.32-0.078-0.654-0.132-0.999-0.132
		c-2.333,0-4.222,1.89-4.222,4.222c0,2.33,1.889,4.22,4.222,4.22c3.913,0.369,6.698-0.33,11.591-0.74
		c4.632-0.391,11.322,0.674,14.884,1.362C173.065,91.533,176.542,90.542,171.827,89.3z"/>
</g>
</svg>
