<?xml version="1.0" encoding="utf-8"?>
<!-- Generator: Adobe Illustrator 16.0.0, SVG Export Plug-In . SVG Version: 6.00 Build 0)  -->
<!DOCTYPE svg PUBLIC "-//W3C//DTD SVG 1.1//EN" "http://www.w3.org/Graphics/SVG/1.1/DTD/svg11.dtd">
<svg version="1.1" id="Calque_1" xmlns="http://www.w3.org/2000/svg" xmlns:xlink="http://www.w3.org/1999/xlink" x="0px" y="0px"
	 width="234.121px" height="299.99px" viewBox="0 0 234.121 299.99" enable-background="new 0 0 234.121 299.99"
	 xml:space="preserve">
<g>
	<g>
		<circle fill="#ED1C24" cx="78.114" cy="132.218" r="36.511"/>
		<path fill="#ED1C24" d="M93.853,176.283H62.375c-30.598,0-55.398,24.802-55.398,55.398v32.277
			c7.133,6.567,15.181,12.153,23.922,16.565v-41.182c0-1.971,1.596-3.57,3.569-3.57s3.569,1.6,3.569,3.57v44.438
			c12.352,5.104,25.877,7.946,40.075,7.946c13.958,0,27.266-2.734,39.447-7.678v-44.707c0-1.971,1.596-3.57,3.568-3.57
			c1.975,0,3.57,1.6,3.57,3.57v41.48c8.984-4.457,17.25-10.142,24.551-16.864v-32.277
			C149.249,201.085,124.448,176.283,93.853,176.283z"/>
	</g>
	<circle fill="#662D91" cx="124.139" cy="119.53" r="7.044"/>
	<circle fill="#662D91" cx="138.225" cy="101.288" r="11.024"/>
	<path fill="#662D91" d="M227.144,47.733c0-8.006-4.793-14.976-11.873-18.604c-3.201-8.192-11.695-14.051-21.674-14.051
		c-2.475,0-4.859,0.365-7.094,1.034c-4.225-4.79-10.66-7.851-17.871-7.851c-5.801,0-11.1,1.984-15.15,5.254
		c-4.051-3.27-9.348-5.254-15.148-5.254c-9.486,0-17.629,5.294-21.16,12.855c-10.12,2.24-17.644,10.644-17.644,20.674
		c0,6.592,3.248,12.483,8.35,16.383c-0.068,0.663-0.106,1.334-0.106,2.014c0,11.744,10.313,21.265,23.035,21.265
		c1.148,0,2.273-0.08,3.375-0.229c4.209,4.211,10.234,6.851,16.93,6.851c3.381,0,6.586-0.679,9.479-1.886
		c3.805,2.561,8.488,4.075,13.555,4.075c6.227,0,11.873-2.285,16.02-5.99c0.498,0.029,0.996,0.05,1.502,0.05
		c11.342,0,20.764-7.571,22.672-17.537C221.927,63.308,227.144,56.085,227.144,47.733z M153.651,45.674
		c-0.102-0.01-0.201-0.021-0.301-0.03c0.043-0.034,0.088-0.069,0.131-0.104C153.54,45.584,153.593,45.629,153.651,45.674z"/>
</g>
</svg>
