<?xml version="1.0" encoding="utf-8"?>
<!-- Generator: Adobe Illustrator 16.0.0, SVG Export Plug-In . SVG Version: 6.00 Build 0)  -->
<!DOCTYPE svg PUBLIC "-//W3C//DTD SVG 1.1//EN" "http://www.w3.org/Graphics/SVG/1.1/DTD/svg11.dtd">
<svg version="1.1" id="Calque_1" xmlns="http://www.w3.org/2000/svg" xmlns:xlink="http://www.w3.org/1999/xlink" x="0px" y="0px"
	 width="299.99px" height="174.324px" viewBox="0 0 299.99 174.324" enable-background="new 0 0 299.99 174.324"
	 xml:space="preserve">
<g>
	<path fill="#D11A6F" d="M124.808,20.402C110.981,10.967,92.852,6.067,73.528,7.941C34.385,11.739,5.267,41.845,8.509,75.186
		c2.006,20.667,15.967,37.719,35.605,46.798c0,0,19.094,13.648,29.539,35.331c-12.427-29.137-5.689-28.745-5.689-28.745
		c5.594,0.624,11.383,0.678,17.284,0.104c8.304-0.802,16.117-2.859,23.306-5.813C75.325,86.236,92.777,40.207,124.808,20.402z"/>
	<path fill="#FAA61A" d="M196.274,9.534c-52.723,0-95.453,31.296-95.453,69.897c0,21.787,13.61,41.24,34.939,54.058
		c5.094,3.059,7.234,18.38-2.646,32.758c-3.101,4.508,29.669-21.207,35.271-19.953c8.822,1.969,18.187,3.03,27.889,3.03
		c52.721,0,95.453-31.292,95.453-69.893C291.728,40.83,248.995,9.534,196.274,9.534z"/>
	<path fill="#FFFFFF" d="M59.474,75.914l-0.091-2.322c-0.446-4.739,1.164-9.656,5.363-14.661c3.396-4.111,5.723-7.241,5.723-10.726
		c0-3.754-2.415-6.257-7.42-6.349c-3.13,0-6.705,0.985-8.938,2.684l-2.683-7.867c3.219-2.055,8.313-3.664,14.037-3.664
		c11.082,0,16.178,6.438,16.178,13.588c0,6.524-3.844,10.904-7.688,15.285c-3.574,4.111-4.915,7.775-4.74,12.066v1.966H59.474z
		 M57.328,88.339c0-4.111,2.859-6.973,6.793-6.973c4.021,0,6.702,2.861,6.796,6.973c0,3.932-2.683,6.973-6.886,6.973
		C60.1,95.313,57.328,92.271,57.328,88.339z"/>
	<path fill="#FFFFFF" d="M186.323,117.047c0.288-5.033,3.991-8.482,8.891-8.204c4.89,0.276,7.903,4.106,7.617,9.142
		c-0.28,4.9-3.712,8.488-8.888,8.195C189.182,125.909,186.047,121.947,186.323,117.047z M190.949,97.376l1.858-67.419l13.434,0.763
		l-5.777,67.197L190.949,97.376z"/>
</g>
</svg>
