<?xml version="1.0" encoding="utf-8"?>
<!-- Generator: Adobe Illustrator 16.0.0, SVG Export Plug-In . SVG Version: 6.00 Build 0)  -->
<!DOCTYPE svg PUBLIC "-//W3C//DTD SVG 1.1//EN" "http://www.w3.org/Graphics/SVG/1.1/DTD/svg11.dtd">
<svg version="1.1" id="Calque_1" xmlns="http://www.w3.org/2000/svg" xmlns:xlink="http://www.w3.org/1999/xlink" x="0px" y="0px"
	 width="242.667px" height="299.991px" viewBox="0 0 242.667 299.991" enable-background="new 0 0 242.667 299.991"
	 xml:space="preserve">
<g>
	<path fill-rule="evenodd" clip-rule="evenodd" fill="#ED1C24" d="M130.121,8.263c44.16,0,107.496,44.825,104.473,100.527
		c-4.66,86.17-50.178,75.397-49.995,112.016c0.271,52.236,19.655,52.777,5.118,59.596c-12.068,5.668-76.015,15.969-89.752,8.977
		c-9.881-5.027-7.726-4.662-8.617-22.975c-0.459-9.387-1.086-30.52-23.34-29.803c-22.255,0.723-45.592-2.873-35.898-19.383
		c9.689-16.518-8.613-16.16-8.973-23.697c-0.359-7.539,7.176-4.313,6.816-8.262c-0.352-3.945-8.977-4.662-9.33-9.33
		c-0.361-4.668,8.615-11.129,8.615-18.313c0-9.639-22.805,1.254-21.188-8.979c2.416-15.271,9.871-11.33,19.033-29.277
		c7.058-13.84,4.672-21.697,4.672-39.647C31.756,61.761,54.01,8.263,130.121,8.263z"/>
	<g>
		<path fill="#FFFFFF" d="M181.881,46.478c-2.219-3.638-6.266-5.906-10.553-5.906l0,0c-2.273,0-4.501,0.626-6.443,1.812
			l-9.004,5.516l4.388-7.021c3.61-5.792,1.843-13.438-3.935-17.051c-1.969-1.23-4.234-1.88-6.551-1.88h-0.001
			c-4.29,0-8.212,2.167-10.492,5.798l-4.517,7.229v-7.376c0-6.821-5.553-12.371-12.377-12.371c-6.821,0-12.371,5.55-12.371,12.371
			v7.243l-4.307-7.009c-2.282-3.695-6.223-5.893-10.551-5.893c-2.285,0-4.521,0.633-6.471,1.83
			c-5.811,3.578-7.631,11.211-4.063,17.02l4.434,7.214l-9.007-5.518c-1.953-1.192-4.183-1.819-6.456-1.819
			c-4.285,0-8.332,2.268-10.559,5.919c-1.726,2.812-2.254,6.143-1.477,9.364c0.775,3.214,2.758,5.931,5.582,7.65l15.063,9.225
			c0.667,0.409,1.37,0.747,2.096,1.021c-1.71,4.5-2.654,9.375-2.654,14.468c0,12.395,6.307,20.104,10.91,25.731
			c3.045,3.721,4.91,6.115,4.91,8.344c0,3.779,0.781,6.885,2.084,9.371c-1.502,1.965-2.299,4.475-2.033,7.119
			c0.105,1.041,0.369,2.027,0.758,2.945c-0.646,1.512-0.934,3.203-0.758,4.951c0.372,3.662,2.639,6.674,5.768,8.133
			c0.779,4.889,4.951,8.502,9.949,8.502c0.344,0,0.692-0.018,1.035-0.053l18.283-1.844c5.049-0.516,8.842-4.68,9.057-9.598
			c3.84-1.748,6.328-5.793,5.879-10.205c-0.104-1.035-0.366-2.016-0.752-2.928c0.66-1.549,0.928-3.248,0.752-4.969
			c-0.158-1.58-0.676-3.039-1.461-4.307c0.859-2.344,1.363-5.113,1.363-8.336c0.127-1.121,2.7-4.281,4.404-6.371
			c4.881-5.99,11.566-14.195,11.566-26.487c0-5.137-0.963-10.051-2.7-14.583c0.708-0.271,1.397-0.603,2.051-1.003l15.079-9.234
			c2.813-1.719,4.79-4.436,5.563-7.648C184.139,52.629,183.613,49.302,181.881,46.478z"/>
	</g>
	<g>
		<g>
			<path fill="#662D91" d="M126.773,45.282c0,2.412-1.959,4.372-4.377,4.372l0,0c-2.412,0-4.371-1.96-4.371-4.372V27.599
				c0-2.413,1.959-4.371,4.371-4.371l0,0c2.418,0,4.377,1.958,4.377,4.371V45.282z"/>
		</g>
		<g>
			<path fill="#662D91" d="M144.113,51.632c-1.281,2.047-3.975,2.672-6.027,1.389l0,0c-2.043-1.277-2.666-3.975-1.391-6.023
				L146.064,32c1.283-2.043,3.982-2.668,6.027-1.39l0,0c2.049,1.281,2.668,3.981,1.393,6.027L144.113,51.632z"/>
		</g>
		<g>
			<path fill="#662D91" d="M158.543,65.907c-2.064,1.265-4.752,0.616-6.012-1.452l0,0c-1.26-2.05-0.619-4.743,1.445-6.007
				l15.074-9.235c2.059-1.256,4.756-0.61,6.01,1.445l0,0c1.266,2.065,0.619,4.758-1.438,6.015L158.543,65.907z"/>
		</g>
		<g>
			<path fill="#662D91" d="M100.709,51.666c1.268,2.058,3.957,2.701,6.02,1.434l0,0c2.051-1.262,2.695-3.955,1.432-6.013
				l-9.258-15.064c-1.268-2.053-3.961-2.698-6.018-1.435l0,0c-2.059,1.268-2.697,3.959-1.434,6.017L100.709,51.666z"/>
		</g>
		<g>
			<path fill="#662D91" d="M86.393,66.003c2.063,1.265,4.748,0.615,6.01-1.452l0,0c1.262-2.05,0.619-4.742-1.443-6.008
				l-15.076-9.234c-2.059-1.257-4.754-0.61-6.008,1.444l0,0c-1.268,2.066-0.623,4.76,1.438,6.015L86.393,66.003z"/>
		</g>
		<g>
			<path fill="#662D91" d="M139.539,142.522c0.117,1.15-0.719,2.174-1.869,2.293l-29.891,3.033c-1.15,0.117-2.176-0.721-2.293-1.871
				l0,0c-0.115-1.148,0.721-2.174,1.869-2.291l29.891-3.031C138.396,140.536,139.424,141.374,139.539,142.522L139.539,142.522z"/>
		</g>
		<g>
			<path fill="#662D91" d="M133.629,151.261c0.117,1.148-0.721,2.176-1.869,2.293l-18.299,1.848
				c-1.148,0.117-2.176-0.719-2.293-1.871l0,0c-0.115-1.149,0.723-2.174,1.873-2.293l18.295-1.846
				C132.486,149.276,133.512,150.11,133.629,151.261L133.629,151.261z"/>
		</g>
		<g>
			<path fill="#662D91" d="M139.539,134.626c0.117,1.15-0.719,2.176-1.869,2.293l-29.891,3.033c-1.15,0.117-2.176-0.719-2.293-1.871
				l0,0c-0.115-1.148,0.721-2.172,1.869-2.291l29.891-3.033C138.396,132.64,139.424,133.476,139.539,134.626L139.539,134.626z"/>
		</g>
		<g>
			<path fill="#662D91" d="M89.656,88.315c0-18.146,14.709-32.857,32.855-32.857c18.148,0,32.859,14.712,32.859,32.857
				c0,16.426-15.971,23.885-15.971,32.858c0,8.213-4.107,10.346-6.695,10.346c-3.193,0-14.451,0-20.078,0
				c-3.805,0-7.15-2.434-7.15-9.129C105.477,110.827,89.656,105.646,89.656,88.315z"/>
		</g>
		<g>
			<path fill="#FFFFFF" d="M120.688,63.823c-11.93,0-21.602,9.672-21.602,21.603c0,4.201,5.324,4.582,5.324,0
				c0-8.99,7.289-16.276,16.277-16.276C125.176,69.149,125.383,63.823,120.688,63.823z"/>
		</g>
	</g>
</g>
</svg>
