<?xml version="1.0" encoding="utf-8"?>
<!-- Generator: Adobe Illustrator 16.0.0, SVG Export Plug-In . SVG Version: 6.00 Build 0)  -->
<!DOCTYPE svg PUBLIC "-//W3C//DTD SVG 1.1//EN" "http://www.w3.org/Graphics/SVG/1.1/DTD/svg11.dtd">
<svg version="1.1" id="Calque_1" xmlns="http://www.w3.org/2000/svg" xmlns:xlink="http://www.w3.org/1999/xlink" x="0px" y="0px"
	 width="224px" height="299.991px" viewBox="0 0 224 299.991" enable-background="new 0 0 224 299.991" xml:space="preserve">
<g>
	<g>
		<circle cx="112" cy="61.063" r="52.8"/>
		<path d="M134.759,124.786H89.242c-44.244,0-80.111,35.865-80.111,80.111v46.676c10.314,9.496,21.953,17.574,34.594,23.955v-59.553
			c0-2.85,2.305-5.164,5.16-5.164c2.857,0,5.162,2.314,5.162,5.164v64.262c17.863,7.381,37.422,11.49,57.953,11.49
			c20.184,0,39.428-3.953,57.043-11.102v-64.65c0-2.85,2.307-5.164,5.158-5.164c2.857,0,5.164,2.314,5.164,5.164v59.984
			c12.992-6.445,24.947-14.664,35.506-24.387v-46.676C214.871,160.651,179.003,124.786,134.759,124.786z"/>
	</g>
	<g>
		<path fill="#BCBEC0" d="M117.735,78.348c-2.028,0-3.659-1.778-4.848-5.284c-0.875-2.583-1.646-3.111-2.391-3.621
			c-1.257-0.86-2.023-1.741-2.353-3.663c-1.379,0.279-2.86,0.432-4.282,0.432c-6.58,0-10.992-3.125-12.092-8.445
			c-3.742-0.507-6.288-2.767-6.997-4.771c-1.234-0.938-2.842-2.661-3.243-4.858c-0.221-1.211-0.029-2.382,0.555-3.432
			c-0.703-3.406-0.396-7.21,5.088-10.512c1.971-3.342,5.709-5.133,8.619-5.235c2.115-1.873,5.25-2.971,8.569-2.971
			c1.211,0,2.449,0.144,3.688,0.428c1.23-0.449,2.691-0.702,4.109-0.702c2.153,0,4.015,0.584,5.387,1.668
			c0.691-0.22,1.477-0.334,2.331-0.334c3.226,0,7.223,1.604,9.098,4.682c5.004,1.575,8.106,5.252,8.249,9.708
			c2.646,1.493,3.716,4.294,3.718,6.409c1.865,2.564,2.146,6.119,0.729,9.534c-0.23,3.962-2.288,7.877-5.941,8.707
			c-0.614,4.468-3.762,8.739-9.875,8.739c-0.771,0-1.58-0.07-2.415-0.207c-0.73,0.458-1.518,0.778-2.271,0.925
			c-0.225,0.654-0.574,1.253-1.022,1.722C119.479,77.964,118.624,78.348,117.735,78.348z"/>
		<path fill="#FFFFFF" d="M112.159,27.513c1.884,0,3.832,0.528,5.019,2.026c0.652-0.466,1.612-0.691,2.699-0.691
			c2.849,0,6.567,1.552,7.871,4.401c4.721,1.236,8.094,4.609,7.643,9.332c3.262,1.124,3.938,4.385,3.711,5.846
			c1.799,2.024,2.248,5.285,0.787,8.545c-0.111,3.635-2.055,7.478-5.621,7.478c-0.074,0-0.149-0.001-0.225-0.005
			c0,3.973-2.309,8.583-8.188,8.583c-0.865,0-1.807-0.1-2.831-0.316c-0.87,0.698-1.944,1.125-2.75,1.125
			c-0.234,0-0.446-0.036-0.623-0.112c0.062,1.346-0.776,2.825-1.915,2.825c-0.953,0-2.119-1.039-3.144-4.063
			c-2.248-6.633-4.721-2.698-4.834-8.994c-1.516,0.516-3.658,0.92-5.896,0.92c-4.772,0-9.984-1.836-10.52-8.341
			c-4.609,0-6.971-2.923-6.971-4.159c-1.686-1.013-4.496-4.16-2.361-6.859c-0.674-2.697-1.236-6.296,4.498-9.557
			c1.68-3.254,5.335-4.744,7.545-4.744c0.157,0,0.306,0.008,0.447,0.022c1.435-1.526,4.217-2.988,7.861-2.988
			c1.188,0,2.468,0.155,3.822,0.515C109.183,27.851,110.65,27.513,112.159,27.513 M112.159,23.915c-1.43,0-2.907,0.228-4.215,0.638
			c-1.202-0.242-2.403-0.364-3.583-0.364c-3.508,0-6.859,1.107-9.276,3.018c-3.189,0.333-7.009,2.266-9.218,5.68
			c-6.188,3.924-6.179,8.752-5.669,11.594c-0.531,1.246-0.687,2.611-0.438,3.98c0.412,2.258,1.903,4.286,3.496,5.627
			c1.016,2.31,3.57,4.435,7.044,5.24c1.635,5.492,6.514,8.682,13.561,8.682c0.984,0,1.995-0.067,2.989-0.196
			c0.564,1.424,1.458,2.31,2.63,3.113c0.548,0.375,1.021,0.699,1.705,2.714c1.822,5.376,4.568,6.505,6.551,6.505
			c1.385,0,2.702-0.582,3.711-1.638c0.409-0.428,0.756-0.922,1.033-1.459c0.442-0.147,0.883-0.336,1.312-0.561
			c0.706,0.091,1.396,0.137,2.063,0.137c6.43,0,10.312-4.23,11.44-9.134c3.704-1.449,5.821-5.525,6.151-9.703
			c1.453-3.72,1.169-7.588-0.732-10.537c-0.163-2.25-1.211-5.045-3.76-6.856c-0.525-4.612-3.766-8.385-8.828-10.177
			c-2.351-3.269-6.708-4.969-10.249-4.969c-0.691,0-1.351,0.063-1.971,0.187C116.327,24.443,114.361,23.915,112.159,23.915
			L112.159,23.915z"/>
	</g>
</g>
</svg>
