<?xml version="1.0" encoding="utf-8"?>
<!-- Generator: Adobe Illustrator 16.0.0, SVG Export Plug-In . SVG Version: 6.00 Build 0)  -->
<!DOCTYPE svg PUBLIC "-//W3C//DTD SVG 1.1//EN" "http://www.w3.org/Graphics/SVG/1.1/DTD/svg11.dtd">
<svg version="1.1" id="Calque_1" xmlns="http://www.w3.org/2000/svg" xmlns:xlink="http://www.w3.org/1999/xlink" x="0px" y="0px"
	 width="299.99px" height="299.99px" viewBox="0 0 299.99 299.99" enable-background="new 0 0 299.99 299.99" xml:space="preserve">
<g>
	<path fill="#ED1C24" d="M210.118,59.85c0-28.485-23.089-51.587-51.587-51.587c-28.5,0-51.594,23.102-51.594,51.587
		c0,28.498,23.095,51.613,51.594,51.613C187.029,111.463,210.118,88.348,210.118,59.85z"/>
	<g>
		<g>
			<path fill="#FFFFFF" d="M185.327,32.116c-1-1.64-2.826-2.663-4.761-2.663l0,0c-1.023,0-2.029,0.282-2.906,0.816l-4.062,2.488
				l1.98-3.167c1.628-2.611,0.831-6.062-1.775-7.69c-0.888-0.555-1.909-0.848-2.954-0.848l0,0c-1.935,0-3.705,0.977-4.734,2.615
				l-2.035,3.261v-3.327c0-3.077-2.506-5.58-5.584-5.58c-3.076,0-5.58,2.503-5.58,5.58v3.268l-1.942-3.162
				c-1.031-1.667-2.807-2.657-4.76-2.657c-1.029,0-2.039,0.285-2.92,0.824c-2.618,1.614-3.439,5.058-1.83,7.678l1.998,3.253
				l-4.063-2.488c-0.879-0.538-1.885-0.82-2.91-0.82c-1.933,0-3.758,1.023-4.764,2.669c-0.777,1.269-1.016,2.771-0.664,4.225
				c0.349,1.449,1.243,2.674,2.517,3.449L140.373,44c0.3,0.186,0.618,0.338,0.945,0.462c-0.771,2.03-1.198,4.229-1.198,6.524
				c0,5.592,2.846,9.068,4.923,11.606c1.371,1.679,2.214,2.759,2.214,3.764c0,1.704,0.353,3.105,0.94,4.226
				c-0.678,0.887-1.039,2.019-0.918,3.212c0.047,0.47,0.165,0.915,0.342,1.329c-0.291,0.682-0.422,1.445-0.342,2.232
				c0.167,1.652,1.189,3.01,2.602,3.669c0.352,2.205,2.232,3.835,4.489,3.835c0.154,0,0.312-0.008,0.466-0.024l8.247-0.832
				c2.277-0.232,3.987-2.11,4.084-4.329c1.733-0.788,2.855-2.611,2.652-4.603c-0.047-0.467-0.166-0.909-0.339-1.32
				c0.298-0.698,0.418-1.465,0.339-2.241c-0.07-0.713-0.306-1.371-0.658-1.942c0.387-1.058,0.615-2.306,0.615-3.76
				c0.057-0.506,1.219-1.931,1.986-2.874c2.199-2.702,5.217-6.402,5.217-11.947c0-2.315-0.435-4.532-1.218-6.577
				c0.319-0.122,0.63-0.271,0.925-0.452l6.801-4.165c1.269-0.775,2.16-2.002,2.511-3.449
				C186.346,34.892,186.107,33.391,185.327,32.116z"/>
		</g>
		<g>
			<path fill="#662D91" d="M160.471,31.577c0,1.088-0.885,1.972-1.975,1.972l0,0c-1.087,0-1.971-0.884-1.971-1.972v-7.976
				c0-1.089,0.884-1.972,1.971-1.972l0,0c1.09,0,1.975,0.883,1.975,1.972V31.577z"/>
		</g>
		<g>
			<path fill="#662D91" d="M168.291,34.441c-0.576,0.924-1.793,1.205-2.718,0.627l0,0c-0.921-0.576-1.202-1.794-0.628-2.718
				l4.227-6.765c0.58-0.92,1.796-1.203,2.721-0.626l0,0c0.923,0.578,1.201,1.796,0.627,2.719L168.291,34.441z"/>
		</g>
		<g>
			<path fill="#662D91" d="M174.801,40.88c-0.932,0.57-2.143,0.278-2.711-0.655l0,0c-0.57-0.924-0.279-2.14,0.65-2.709l6.801-4.166
				c0.928-0.566,2.145-0.274,2.709,0.652l0,0c0.57,0.932,0.281,2.146-0.647,2.713L174.801,40.88z"/>
		</g>
		<g>
			<path fill="#662D91" d="M148.714,34.457c0.572,0.928,1.783,1.218,2.716,0.646l0,0c0.925-0.569,1.216-1.784,0.646-2.712
				l-4.177-6.796c-0.571-0.926-1.786-1.217-2.714-0.646l0,0c-0.928,0.572-1.217,1.786-0.646,2.714L148.714,34.457z"/>
		</g>
		<g>
			<path fill="#662D91" d="M142.257,40.924c0.93,0.569,2.142,0.276,2.711-0.655l0,0c0.568-0.925,0.277-2.14-0.652-2.71l-6.799-4.165
				c-0.929-0.567-2.145-0.274-2.711,0.651l0,0c-0.57,0.933-0.28,2.146,0.648,2.714L142.257,40.924z"/>
		</g>
		<g>
			<path fill="#662D91" d="M166.229,75.438c0.053,0.519-0.324,0.979-0.843,1.033l-13.482,1.369c-0.52,0.052-0.982-0.326-1.035-0.844
				l0,0c-0.053-0.52,0.326-0.981,0.844-1.034l13.482-1.367C165.713,74.542,166.177,74.92,166.229,75.438L166.229,75.438z"/>
		</g>
		<g>
			<path fill="#662D91" d="M163.563,79.378c0.052,0.519-0.325,0.981-0.843,1.035l-8.255,0.832c-0.517,0.054-0.98-0.323-1.034-0.842
				l0,0c-0.051-0.519,0.326-0.981,0.845-1.035l8.253-0.833C163.049,78.483,163.51,78.859,163.563,79.378L163.563,79.378z"/>
		</g>
		<g>
			<path fill="#662D91" d="M166.229,71.875c0.053,0.52-0.324,0.982-0.843,1.035l-13.482,1.367c-0.52,0.054-0.982-0.323-1.035-0.844
				l0,0c-0.053-0.518,0.326-0.98,0.844-1.033l13.482-1.367C165.713,70.979,166.177,71.356,166.229,71.875L166.229,71.875z"/>
		</g>
		<g>
			<path fill="#662D91" d="M143.73,50.986c0-8.184,6.634-14.82,14.818-14.82c8.185,0,14.821,6.637,14.821,14.82
				c0,7.409-7.204,10.774-7.204,14.821c0,3.704-1.851,4.666-3.018,4.666c-1.441,0-6.52,0-9.057,0c-1.716,0-3.226-1.098-3.226-4.117
				C150.865,61.143,143.73,58.805,143.73,50.986z"/>
		</g>
		<g>
			<path fill="#FFFFFF" d="M157.725,39.939c-5.379,0-9.743,4.363-9.743,9.744c0,1.895,2.401,2.066,2.401,0
				c0-4.055,3.29-7.341,7.341-7.341C159.75,42.343,159.843,39.939,157.725,39.939z"/>
		</g>
	</g>
	<path fill="#ED1C24" d="M190.238,173.533c-7.408-5.582-8.885-16.111-3.303-23.519l1.553-2.062
		c5.584-7.406,16.113-8.889,23.521-3.303l66.002,47.28c7.408,5.582,8.887,16.112,3.303,23.521l-1.551,2.062
		c-5.583,7.406-16.113,8.885-23.522,3.303L190.238,173.533z"/>
	<path fill="#ED1C24" d="M252.432,193.679c5.582-7.406,16.112-8.885,23.521-3.303l2.062,1.555c7.404,5.581,8.887,16.112,3.303,23.52
		l-55.996,69.59c-5.58,7.409-16.109,8.885-23.518,3.303l-2.063-1.552c-7.406-5.582-8.885-16.112-3.303-23.521L252.432,193.679z"/>
	<path fill="#ED1C24" d="M191.595,259.62l0.058-0.077l0.061-0.074l33.994-42.247v-48.518c0-30.87-40.863-34.769-67.18-34.769
		c-26.317,0-67.182,2.097-67.182,34.769v101.941c20.257,10.01,43.061,15.645,67.182,15.645c10.516,0,20.779-1.072,30.69-3.11
		C185.698,275.738,186.307,266.638,191.595,259.62z"/>
	<path fill="#ED1C24" d="M125.683,158.921c7.409,5.582,8.887,16.112,3.304,23.521l-1.552,2.062
		c-5.583,7.406-16.114,8.887-23.521,3.302l-81.936-58.807c-7.408-5.582-8.887-16.112-3.303-23.52l1.551-2.063
		c5.584-7.404,16.115-8.885,23.524-3.301L125.683,158.921z"/>
	<path fill="#ED1C24" d="M47.56,127.25c-5.583,7.406-16.109,8.885-23.52,3.303l-2.063-1.555c-7.406-5.582-8.887-16.113-3.303-23.52
		L74.67,35.888c5.583-7.408,16.112-8.885,23.521-3.302l2.062,1.551c7.407,5.582,8.887,16.113,3.302,23.522L47.56,127.25z"/>
</g>
</svg>
