<?xml version="1.0" encoding="utf-8"?>
<!-- Generator: Adobe Illustrator 16.0.0, SVG Export Plug-In . SVG Version: 6.00 Build 0)  -->
<!DOCTYPE svg PUBLIC "-//W3C//DTD SVG 1.1//EN" "http://www.w3.org/Graphics/SVG/1.1/DTD/svg11.dtd">
<svg version="1.1" id="Calque_1" xmlns="http://www.w3.org/2000/svg" xmlns:xlink="http://www.w3.org/1999/xlink" x="0px" y="0px"
	 width="299.99px" height="299.99px" viewBox="0 0 299.99 299.99" enable-background="new 0 0 299.99 299.99" xml:space="preserve">
<g>
	<path fill="#0A4E9B" d="M201.042,63.487c0-28.187-22.846-51.045-51.045-51.045s-51.05,22.858-51.05,51.045
		c0,28.198,22.851,51.07,51.05,51.07S201.042,91.686,201.042,63.487z"/>
	<path fill="#0A4E9B" d="M182.495,161.517c-7.33,5.524-8.792,15.943-3.268,23.274l1.535,2.039
		c5.525,7.328,15.945,8.793,23.275,3.268l81.073-58.188c7.331-5.523,8.792-15.942,3.267-23.272l-1.535-2.039
		c-5.522-7.329-15.943-8.793-23.275-3.269L182.495,161.517z"/>
	<path fill="#0A4E9B" d="M259.798,130.179c5.523,7.328,15.942,8.792,23.272,3.269l2.041-1.538
		c7.327-5.523,8.794-15.942,3.267-23.272l-55.405-68.858c-5.524-7.332-15.942-8.793-23.272-3.269l-2.041,1.535
		c-7.328,5.524-8.791,15.943-3.268,23.273L259.798,130.179z"/>
	<path fill="#0A4E9B" d="M117.496,161.517c7.33,5.524,8.79,15.943,3.267,23.274l-1.535,2.039
		c-5.524,7.328-15.943,8.793-23.273,3.268L14.88,131.909c-7.33-5.523-8.793-15.942-3.268-23.272l1.536-2.039
		c5.522-7.329,15.942-8.793,23.274-3.269L117.496,161.517z"/>
	<path fill="#0A4E9B" d="M40.192,130.179c-5.523,7.328-15.94,8.792-23.272,3.269l-2.04-1.538
		c-7.328-5.523-8.793-15.942-3.268-23.272l55.406-68.858c5.524-7.332,15.943-8.793,23.271-3.269l2.041,1.535
		c7.328,5.524,8.793,15.943,3.267,23.273L40.192,130.179z"/>
	<path fill="#0A4E9B" d="M149.993,136.795c-26.039,0-66.477,2.075-66.477,34.402v100.87c20.045,9.906,42.609,15.48,66.477,15.48
		c23.869,0,46.434-5.576,66.475-15.483V171.197C216.468,140.652,176.032,136.795,149.993,136.795z"/>
	<g>
		<g>
			<path fill="#6DCFF6" d="M142.612,65.718c-0.545,0-1.046-0.325-1.262-0.837l-1.063-2.513c-1.088-0.008-2.162-0.129-3.206-0.362
				l-1.598,2.194c-0.264,0.362-0.68,0.564-1.109,0.564c-0.159,0-0.321-0.028-0.477-0.085c-3.256-1.208-6.106-3.285-8.243-6.005
				c-0.379-0.483-0.392-1.159-0.03-1.655l1.6-2.193c-0.344-0.583-0.647-1.184-0.907-1.796c-0.252-0.6-0.469-1.227-0.648-1.875
				l-2.691-0.375c-0.608-0.084-1.085-0.563-1.169-1.171c-0.471-3.433,0.017-6.925,1.409-10.101c0.221-0.503,0.717-0.82,1.255-0.82
				c0.063,0,0.126,0.004,0.19,0.013l2.689,0.375c0.564-0.922,1.23-1.784,1.99-2.577l-1.064-2.514
				c-0.24-0.566-0.073-1.223,0.408-1.606c1.376-1.098,2.861-1.988,4.415-2.645c1.556-0.658,3.229-1.104,4.974-1.327
				c0.058-0.007,0.116-0.011,0.173-0.011c0.545,0,1.046,0.325,1.262,0.837l1.063,2.514c1.086,0.008,2.16,0.129,3.208,0.362
				l1.601-2.196c0.264-0.362,0.679-0.563,1.108-0.563c0.16,0,0.321,0.028,0.477,0.086c3.257,1.21,6.106,3.288,8.24,6.007
				c0.378,0.482,0.391,1.158,0.029,1.654l-1.601,2.196c0.344,0.583,0.646,1.184,0.905,1.793c0.254,0.601,0.472,1.229,0.651,1.876
				l2.692,0.377c0.607,0.085,1.085,0.564,1.168,1.172c0.469,3.431-0.02,6.923-1.413,10.101c-0.221,0.503-0.718,0.82-1.255,0.82
				c-0.063,0-0.127-0.004-0.191-0.013l-2.689-0.377c-0.563,0.92-1.228,1.78-1.986,2.573l1.064,2.513
				c0.239,0.565,0.074,1.221-0.405,1.604c-1.366,1.096-2.853,1.986-4.418,2.648c-1.562,0.661-3.237,1.107-4.976,1.325
				C142.725,65.714,142.668,65.718,142.612,65.718z M140.425,42.002c-0.676,0-1.337,0.135-1.967,0.4
				c-2.564,1.086-3.769,4.058-2.684,6.625c0.793,1.875,2.623,3.086,4.659,3.086c0.676,0,1.338-0.135,1.967-0.401
				c2.564-1.085,3.768-4.057,2.682-6.624C144.29,43.214,142.462,42.002,140.425,42.002z"/>
			<path fill="#FFFFFF" d="M138.247,29.768l1.427,3.373c0.265-0.015,0.529-0.022,0.792-0.022c1.32,0,2.625,0.185,3.875,0.55
				l2.148-2.947c2.967,1.103,5.627,3.004,7.639,5.568l-2.148,2.947c0.498,0.738,0.938,1.532,1.299,2.385
				c0.357,0.844,0.619,1.705,0.803,2.57l3.613,0.506c0.441,3.229-0.037,6.461-1.311,9.364l-3.611-0.506
				c-0.73,1.39-1.706,2.65-2.881,3.736l1.428,3.371c-1.221,0.979-2.584,1.816-4.095,2.455c-1.511,0.64-3.06,1.033-4.612,1.228
				l-1.426-3.37c-0.26,0.014-0.52,0.021-0.779,0.021c-1.324,0-2.634-0.184-3.888-0.55l-2.146,2.946
				c-2.971-1.103-5.629-3.004-7.642-5.566l2.148-2.946c-0.501-0.74-0.94-1.535-1.302-2.387c-0.355-0.845-0.615-1.703-0.801-2.568
				l-3.611-0.504c-0.443-3.231,0.035-6.465,1.307-9.363l3.609,0.504c0.732-1.392,1.709-2.653,2.885-3.739l-1.428-3.373
				c1.223-0.976,2.585-1.815,4.094-2.453C135.146,30.357,136.696,29.965,138.247,29.768 M140.433,53.485
				c0.835,0,1.685-0.164,2.502-0.51c3.268-1.383,4.792-5.153,3.41-8.421c-1.036-2.451-3.415-3.923-5.919-3.923
				c-0.834,0-1.683,0.163-2.5,0.508c-3.268,1.384-4.795,5.154-3.414,8.422C135.548,52.013,137.929,53.485,140.433,53.485
				 M138.249,27.025c-0.115,0-0.231,0.007-0.348,0.022c-1.869,0.237-3.664,0.717-5.336,1.424c-1.667,0.705-3.261,1.659-4.735,2.835
				c-0.961,0.767-1.294,2.08-0.815,3.212l0.723,1.708c-0.378,0.439-0.731,0.896-1.059,1.37l-1.826-0.255
				c-0.127-0.018-0.255-0.027-0.381-0.027c-1.076,0-2.068,0.634-2.51,1.641c-1.495,3.407-2.018,7.155-1.512,10.837
				c0.167,1.217,1.122,2.174,2.338,2.343l1.825,0.255c0.133,0.397,0.279,0.787,0.438,1.165c0.167,0.395,0.351,0.784,0.55,1.167
				l-1.084,1.487c-0.724,0.992-0.699,2.344,0.059,3.31c2.292,2.919,5.351,5.147,8.844,6.443c0.312,0.116,0.635,0.172,0.954,0.172
				c0.858,0,1.69-0.404,2.217-1.128l1.085-1.49c0.557,0.092,1.121,0.155,1.688,0.19l0.723,1.707
				c0.433,1.024,1.435,1.674,2.524,1.674c0.113,0,0.228-0.007,0.342-0.021c1.864-0.233,3.661-0.712,5.341-1.423
				c1.68-0.71,3.275-1.666,4.74-2.841c0.958-0.768,1.289-2.079,0.811-3.209l-0.723-1.707c0.376-0.438,0.728-0.894,1.054-1.365
				l1.827,0.256c0.128,0.018,0.256,0.027,0.382,0.027c1.076,0,2.068-0.634,2.511-1.641c1.495-3.409,2.02-7.156,1.516-10.837
				c-0.166-1.216-1.12-2.174-2.337-2.344l-1.826-0.256c-0.135-0.4-0.283-0.792-0.444-1.174c-0.166-0.39-0.348-0.776-0.545-1.158
				l1.085-1.489c0.723-0.991,0.699-2.342-0.059-3.308c-2.289-2.919-5.346-5.148-8.841-6.447c-0.312-0.116-0.635-0.172-0.955-0.172
				c-0.858,0-1.689,0.404-2.217,1.127l-1.087,1.492c-0.558-0.092-1.123-0.156-1.69-0.19l-0.723-1.708
				C140.34,27.675,139.338,27.025,138.249,27.025L138.249,27.025z M140.433,50.743c-1.484,0-2.817-0.883-3.396-2.251
				c-0.79-1.869,0.088-4.035,1.958-4.827c0.457-0.193,0.939-0.292,1.431-0.292c1.484,0,2.816,0.883,3.394,2.249
				c0.792,1.872-0.085,4.038-1.953,4.828C141.406,50.645,140.924,50.743,140.433,50.743L140.433,50.743z"/>
		</g>
		<g>
			<path fill="#6DCFF6" d="M163.866,79.85c-1.502,0-2.988-0.226-4.417-0.673c-0.632-0.197-1.033-0.819-0.952-1.477l0.253-2.047
				c-1.354-0.657-2.566-1.566-3.578-2.682l-1.925,0.801c-0.172,0.071-0.35,0.105-0.527,0.105c-0.448,0-0.881-0.22-1.142-0.612
				c-1.051-1.58-1.779-3.314-2.163-5.156c-0.134-0.644,0.208-1.292,0.815-1.545l1.92-0.8c-0.013-0.225-0.019-0.45-0.019-0.675
				c0-1.342,0.224-2.649,0.667-3.899l-1.619-1.245c-0.529-0.407-0.688-1.135-0.377-1.726c0.786-1.491,1.812-2.826,3.048-3.967
				c0.262-0.241,0.596-0.363,0.93-0.363c0.294,0,0.589,0.094,0.836,0.284l1.61,1.239c1.282-0.882,2.721-1.497,4.243-1.813
				l0.254-2.044c0.081-0.658,0.621-1.163,1.282-1.2c0.284-0.016,0.572-0.025,0.859-0.025c1.439,0,2.869,0.21,4.249,0.624
				c0.641,0.192,1.049,0.818,0.968,1.481l-0.249,2.015c1.431,0.667,2.708,1.612,3.766,2.79l1.908-0.796
				c0.172-0.072,0.351-0.106,0.527-0.106c0.449,0,0.884,0.221,1.145,0.614c1.048,1.584,1.771,3.322,2.148,5.167
				c0.131,0.643-0.211,1.288-0.816,1.54l-1.918,0.799c0.011,0.209,0.017,0.42,0.017,0.631c0,1.353-0.228,2.671-0.678,3.932
				l1.607,1.237c0.529,0.408,0.688,1.138,0.376,1.728c-0.783,1.482-1.811,2.814-3.054,3.961c-0.261,0.241-0.595,0.363-0.93,0.363
				c-0.294,0-0.589-0.094-0.836-0.285l-1.61-1.239c-1.325,0.906-2.813,1.526-4.388,1.828l-0.248,2.015
				c-0.083,0.667-0.638,1.177-1.31,1.202C164.316,79.842,164.093,79.85,163.866,79.85z M163.872,62.002
				c-1.704,0-3.09,1.385-3.09,3.088c0,1.705,1.386,3.093,3.09,3.093s3.09-1.388,3.09-3.093
				C166.962,63.387,165.576,62.002,163.872,62.002z"/>
			<path fill="#FFFFFF" d="M163.866,51.702c1.34,0,2.635,0.2,3.855,0.566l-0.377,3.054c1.949,0.692,3.629,1.95,4.842,3.577
				l2.85-1.189c0.928,1.401,1.601,2.983,1.948,4.685l-2.856,1.189c0.074,0.492,0.111,0.996,0.111,1.506
				c0,1.567-0.352,3.051-0.972,4.381l2.437,1.875c-0.714,1.35-1.656,2.565-2.771,3.595l-2.438-1.876
				c-1.557,1.294-3.496,2.141-5.629,2.344l-0.377,3.055c-0.207,0.008-0.414,0.016-0.623,0.016c-1.396,0-2.742-0.215-4.008-0.61
				l0.379-3.067c-1.866-0.7-3.479-1.92-4.656-3.485l-2.861,1.191c-0.93-1.397-1.607-2.977-1.962-4.677l2.86-1.191
				c-0.076-0.505-0.115-1.021-0.115-1.549c0-1.553,0.346-3.026,0.96-4.35l-2.446-1.881c0.713-1.354,1.65-2.57,2.765-3.598
				l2.44,1.877c1.519-1.271,3.408-2.115,5.482-2.348l0.381-3.065C163.343,51.711,163.605,51.702,163.866,51.702 M163.872,69.554
				c2.462,0,4.461-1.999,4.461-4.464c0-2.464-1.999-4.459-4.461-4.459c-2.467,0-4.461,1.995-4.461,4.459
				C159.411,67.555,161.405,69.554,163.872,69.554 M163.866,48.96c-0.313,0-0.628,0.01-0.937,0.028
				c-1.323,0.075-2.402,1.085-2.566,2.4l-0.138,1.109c-1.021,0.294-2.001,0.713-2.921,1.246l-0.852-0.655
				c-0.495-0.38-1.084-0.568-1.672-0.568c-0.669,0-1.336,0.244-1.859,0.726c-1.353,1.247-2.474,2.706-3.332,4.336
				c-0.622,1.181-0.304,2.638,0.755,3.452l0.861,0.663c-0.277,1.027-0.425,2.083-0.444,3.162l-1.06,0.441
				c-1.214,0.506-1.898,1.803-1.63,3.091c0.42,2.014,1.215,3.91,2.363,5.636c0.521,0.784,1.389,1.224,2.284,1.224
				c0.354,0,0.711-0.068,1.053-0.211l1.068-0.445c0.737,0.701,1.554,1.313,2.433,1.826l-0.138,1.112
				c-0.162,1.315,0.639,2.559,1.903,2.954c1.562,0.488,3.185,0.735,4.826,0.735c0.243,0,0.485-0.008,0.727-0.018
				c1.345-0.05,2.453-1.069,2.618-2.404l0.132-1.065c1.071-0.293,2.1-0.721,3.063-1.277l0.854,0.657
				c0.495,0.381,1.085,0.569,1.672,0.569c0.67,0,1.338-0.244,1.861-0.727c1.356-1.252,2.479-2.708,3.335-4.328
				c0.625-1.181,0.308-2.641-0.751-3.456l-0.85-0.654c0.278-1.023,0.43-2.077,0.451-3.151l1.061-0.441
				c1.211-0.504,1.895-1.795,1.632-3.081c-0.412-2.018-1.202-3.918-2.348-5.649c-0.521-0.787-1.391-1.229-2.288-1.229
				c-0.354,0-0.712,0.069-1.056,0.212l-1.047,0.437c-0.789-0.757-1.669-1.41-2.621-1.946l0.132-1.066
				c0.164-1.327-0.653-2.579-1.934-2.963C167.001,49.189,165.438,48.96,163.866,48.96L163.866,48.96z M163.872,66.812
				c-0.947,0-1.719-0.772-1.719-1.722c0-0.947,0.771-1.717,1.719-1.717s1.719,0.77,1.719,1.717
				C165.591,66.039,164.819,66.812,163.872,66.812L163.872,66.812z"/>
		</g>
	</g>
</g>
</svg>
