<?xml version="1.0" encoding="utf-8"?>
<!-- Generator: Adobe Illustrator 16.0.0, SVG Export Plug-In . SVG Version: 6.00 Build 0)  -->
<!DOCTYPE svg PUBLIC "-//W3C//DTD SVG 1.1//EN" "http://www.w3.org/Graphics/SVG/1.1/DTD/svg11.dtd">
<svg version="1.1" id="Calque_1" xmlns="http://www.w3.org/2000/svg" xmlns:xlink="http://www.w3.org/1999/xlink" x="0px" y="0px"
	 width="165.541px" height="299.99px" viewBox="0 0 165.541 299.99" enable-background="new 0 0 165.541 299.99"
	 xml:space="preserve">
<g>
	<g>
		<path fill="#FFCB05" d="M107.065,70.01c17.053,0,30.875-13.825,30.875-30.876c0-17.049-13.822-30.87-30.875-30.87
			c-17.051,0-30.872,13.821-30.872,30.87C76.194,56.185,90.015,70.01,107.065,70.01z"/>
		<path fill="#FFCB05" d="M36.959,218.447c15.33,4.186,31.15-4.848,35.338-20.184l24.94-91.375
			c4.184-15.333-4.852-31.15-20.184-35.334l-7.063-1.928c-15.326-4.185-31.148,4.849-35.334,20.182L9.715,181.184
			c-4.186,15.336,4.854,31.152,20.182,35.337L36.959,218.447z"/>
		<path fill="#FFCB05" d="M76.5,99.152c-3.338-5.33-1.72-12.356,3.622-15.695l0,0c5.328-3.334,12.356-1.713,15.691,3.618
			l42.088,67.47c3.339,5.334,1.721,12.359-3.613,15.695l0,0c-5.336,3.335-12.363,1.711-15.697-3.622L76.5,99.152z"/>
		<path fill="#FFCB05" d="M124.278,80.361c0.568-6.264,6.108-10.878,12.381-10.305l0,0c6.26,0.572,10.871,6.115,10.303,12.377
			l-7.325,79.183c-0.571,6.267-6.11,10.882-12.376,10.309l0,0c-6.266-0.575-10.879-6.12-10.305-12.384L124.278,80.361z"/>
		<path fill="#FFCB05" d="M140.23,175.096c7.9-0.844,14.989,4.877,15.834,12.778l0.572,5.366
			c0.845,7.901-4.876,14.991-12.776,15.835l-97.278,10.392c-7.898,0.844-14.988-4.877-15.832-12.777l-0.574-5.367
			c-0.843-7.9,4.878-14.99,12.778-15.834L140.23,175.096z"/>
		<path fill="#FFCB05" d="M156.849,277.285c0.025,7.941-6.395,14.402-14.344,14.426l-5.397,0.016
			c-7.944,0.023-14.405-6.396-14.43-14.342l-0.249-86.633c-0.021-7.947,6.398-14.411,14.346-14.435l5.4-0.014
			c7.943-0.026,14.405,6.397,14.426,14.344L156.849,277.285z"/>
	</g>
	<g>
		<g>
			<path fill="#007DBA" d="M100.628,44.512c-1.722,0-3.399-0.333-4.986-0.99c-0.396-0.164-0.633-0.569-0.583-0.993l0.22-1.876
				c-0.406-0.236-0.796-0.498-1.164-0.782c-0.354-0.273-0.7-0.579-1.032-0.913l-1.759,0.691c-0.113,0.044-0.231,0.066-0.349,0.066
				c-0.291,0-0.575-0.134-0.76-0.377c-1.457-1.917-2.354-4.201-2.594-6.606c-0.043-0.425,0.203-0.827,0.601-0.983l1.759-0.689
				c0.028-0.75,0.138-1.5,0.327-2.241l-1.502-1.161c-0.338-0.261-0.462-0.714-0.303-1.111c0.456-1.133,1.053-2.181,1.775-3.115
				c0.718-0.929,1.58-1.77,2.563-2.5c0.17-0.125,0.369-0.188,0.569-0.188c0.206,0,0.411,0.066,0.583,0.199l1.504,1.161
				c0.661-0.366,1.354-0.659,2.068-0.875l0.221-1.877c0.05-0.424,0.376-0.764,0.798-0.831c0.679-0.107,1.371-0.162,2.057-0.162
				c1.724,0,3.402,0.333,4.989,0.992c0.395,0.164,0.632,0.569,0.582,0.993l-0.221,1.877c0.409,0.236,0.799,0.498,1.164,0.781
				c0.354,0.273,0.7,0.579,1.033,0.914l1.762-0.69c0.113-0.044,0.23-0.066,0.348-0.066c0.292,0,0.576,0.134,0.761,0.378
				c1.454,1.919,2.351,4.203,2.592,6.605c0.043,0.426-0.203,0.828-0.601,0.984l-1.762,0.691c-0.028,0.75-0.138,1.499-0.327,2.237
				l1.504,1.16c0.338,0.261,0.462,0.715,0.302,1.112c-0.457,1.135-1.055,2.183-1.777,3.115c-0.716,0.928-1.578,1.77-2.561,2.5
				c-0.17,0.125-0.369,0.188-0.569,0.188c-0.206,0-0.411-0.066-0.583-0.199l-1.503-1.161c-0.664,0.368-1.356,0.66-2.07,0.875
				l-0.219,1.875c-0.049,0.424-0.375,0.764-0.798,0.832C102.008,44.458,101.315,44.512,100.628,44.512z M100.638,27.919
				c-1.1,0-2.115,0.498-2.787,1.367c-1.183,1.533-0.898,3.746,0.635,4.932c0.621,0.48,1.364,0.735,2.148,0.735
				c1.099,0,2.114-0.498,2.785-1.366c0.573-0.743,0.823-1.666,0.704-2.598c-0.12-0.932-0.596-1.761-1.34-2.335
				C102.162,28.173,101.42,27.919,100.638,27.919z"/>
			<path fill="#FFFFFF" d="M100.641,19.312c1.565,0,3.137,0.302,4.624,0.919l-0.297,2.521c0.556,0.276,1.094,0.607,1.603,1.002
				c0.505,0.389,0.957,0.823,1.364,1.284l2.363-0.926c1.369,1.807,2.183,3.931,2.403,6.125l-2.363,0.927
				c0.03,1.091-0.131,2.189-0.474,3.248l2.018,1.557c-0.407,1.011-0.947,1.984-1.646,2.887c-0.696,0.902-1.503,1.67-2.376,2.318
				l-2.016-1.557c-0.934,0.594-1.95,1.026-3.013,1.271l-0.294,2.519c-0.631,0.1-1.27,0.151-1.909,0.151
				c-1.564,0-3.136-0.303-4.622-0.917l0.296-2.521c-0.556-0.276-1.094-0.609-1.604-1.004c-0.504-0.389-0.955-0.821-1.363-1.282
				l-2.36,0.927c-1.374-1.808-2.186-3.932-2.404-6.124l2.361-0.926c-0.031-1.094,0.131-2.191,0.473-3.252l-2.016-1.557
				c0.406-1.011,0.946-1.984,1.645-2.887c0.698-0.904,1.504-1.67,2.377-2.318l2.017,1.557c0.935-0.596,1.95-1.025,3.011-1.271
				l0.296-2.521C99.364,19.362,100.002,19.312,100.641,19.312 M100.634,35.907c1.337,0,2.659-0.597,3.54-1.737
				c1.509-1.955,1.147-4.763-0.808-6.271c-0.813-0.629-1.774-0.934-2.729-0.934c-1.337,0-2.66,0.597-3.542,1.737
				c-1.508,1.955-1.146,4.761,0.806,6.271C98.716,35.602,99.679,35.907,100.634,35.907 M100.641,17.403
				c-0.735,0-1.478,0.059-2.206,0.174c-0.845,0.134-1.497,0.813-1.597,1.662l-0.149,1.275c-0.37,0.134-0.733,0.288-1.09,0.461
				l-1.022-0.789c-0.343-0.265-0.755-0.397-1.166-0.397c-0.399,0-0.8,0.125-1.138,0.376c-1.054,0.782-1.979,1.685-2.75,2.684
				c-0.774,1.001-1.416,2.126-1.904,3.341c-0.318,0.792-0.071,1.7,0.604,2.222l1.02,0.788c-0.078,0.396-0.137,0.793-0.174,1.191
				l-1.194,0.469c-0.796,0.312-1.287,1.115-1.202,1.966c0.257,2.581,1.22,5.032,2.783,7.089c0.369,0.485,0.937,0.753,1.521,0.753
				c0.233,0,0.47-0.043,0.696-0.132l1.193-0.469c0.218,0.197,0.44,0.384,0.668,0.559c0.233,0.182,0.477,0.354,0.727,0.519
				l-0.149,1.272c-0.1,0.848,0.377,1.66,1.166,1.986c1.704,0.705,3.505,1.063,5.352,1.063c0.737,0,1.48-0.059,2.209-0.174
				c0.844-0.134,1.496-0.814,1.596-1.664l0.148-1.271c0.37-0.134,0.733-0.289,1.091-0.461l1.021,0.789
				c0.343,0.265,0.755,0.398,1.166,0.398c0.399,0,0.8-0.125,1.138-0.376c1.053-0.782,1.978-1.685,2.749-2.685
				c0.773-0.998,1.416-2.123,1.905-3.339c0.32-0.793,0.073-1.702-0.604-2.224l-1.021-0.788c0.079-0.394,0.137-0.79,0.174-1.187
				l1.197-0.47c0.797-0.312,1.288-1.116,1.202-1.967c-0.259-2.577-1.221-5.028-2.781-7.086c-0.368-0.487-0.937-0.756-1.521-0.756
				c-0.232,0-0.469,0.042-0.695,0.131l-1.195,0.468c-0.22-0.199-0.443-0.386-0.672-0.562c-0.232-0.18-0.474-0.352-0.725-0.516
				l0.15-1.272c0.1-0.848-0.376-1.659-1.165-1.986C104.292,17.762,102.49,17.403,100.641,17.403L100.641,17.403z M100.634,33.999
				c-0.57,0-1.112-0.186-1.565-0.536c-1.117-0.864-1.324-2.477-0.462-3.595c0.488-0.631,1.229-0.995,2.031-0.995
				c0.569,0,1.108,0.185,1.561,0.535c0.544,0.419,0.891,1.024,0.979,1.703c0.087,0.679-0.095,1.352-0.514,1.894
				C102.175,33.636,101.435,33.999,100.634,33.999L100.634,33.999z"/>
		</g>
		<g>
			<path fill="#007DBA" d="M122.932,44.441c-0.381,0-0.733-0.228-0.883-0.591l-0.546-1.329c-0.163,0.01-0.328,0.015-0.491,0.015
				c-0.891,0-1.76-0.141-2.594-0.419l-0.893,1.143c-0.186,0.238-0.466,0.367-0.752,0.367c-0.146,0-0.295-0.034-0.433-0.104
				c-1.173-0.597-2.207-1.4-3.071-2.388c-0.302-0.345-0.316-0.855-0.034-1.216l0.893-1.142c-0.084-0.131-0.164-0.266-0.241-0.403
				c-0.459-0.815-0.77-1.683-0.929-2.59l-1.406-0.202c-0.46-0.066-0.806-0.454-0.818-0.919c-0.031-1.172,0.136-2.331,0.495-3.445
				c0.129-0.398,0.499-0.661,0.907-0.661c0.045,0,0.091,0.003,0.137,0.01l1.4,0.201c0.477-0.974,1.139-1.837,1.954-2.547
				l-0.544-1.326c-0.175-0.427-0.02-0.917,0.369-1.166c0.167-0.106,0.337-0.209,0.513-0.308c0.87-0.491,1.809-0.851,2.788-1.071
				c0.069-0.016,0.14-0.023,0.209-0.023c0.38,0,0.732,0.228,0.882,0.591l0.539,1.308c0.205-0.016,0.41-0.023,0.615-0.023
				c0.897,0,1.776,0.145,2.619,0.43l0.886-1.134c0.187-0.238,0.466-0.367,0.752-0.367c0.147,0,0.296,0.034,0.434,0.104
				c1.173,0.599,2.205,1.406,3.066,2.398c0.299,0.344,0.313,0.853,0.031,1.212l-0.891,1.142c0.079,0.124,0.153,0.248,0.225,0.372
				c0.463,0.825,0.775,1.702,0.932,2.619l1.396,0.201c0.46,0.066,0.805,0.453,0.818,0.917c0.032,1.159-0.135,2.318-0.499,3.446
				c-0.129,0.398-0.499,0.661-0.907,0.661c-0.046,0-0.091-0.003-0.137-0.01l-1.399-0.201c-0.494,1.002-1.185,1.887-2.036,2.606
				l0.537,1.306c0.176,0.429,0.019,0.922-0.373,1.169c-0.135,0.085-0.27,0.165-0.41,0.244c-0.919,0.517-1.896,0.887-2.911,1.103
				C123.063,44.435,122.997,44.441,122.932,44.441z M121,32.218c-0.366,0-0.729,0.096-1.052,0.277
				c-1.033,0.582-1.4,1.896-0.819,2.929c0.381,0.676,1.1,1.097,1.876,1.097c0.366,0,0.73-0.096,1.054-0.278
				c1.032-0.581,1.399-1.895,0.818-2.929C122.496,32.638,121.776,32.218,121,32.218z"/>
			<path fill="#FFFFFF" d="M118.962,25.28l0.815,1.979c0.406-0.07,0.813-0.104,1.221-0.104c1.013,0,2.014,0.214,2.935,0.622
				l1.322-1.692c1.04,0.531,1.987,1.262,2.779,2.174l-1.323,1.696c0.208,0.274,0.403,0.565,0.579,0.875
				c0.534,0.95,0.828,1.969,0.905,2.988l2.117,0.305c0.03,1.063-0.129,2.121-0.453,3.125l-2.118-0.305
				c-0.502,1.316-1.39,2.493-2.613,3.343l0.814,1.98c-0.122,0.077-0.245,0.149-0.372,0.222c-0.848,0.477-1.735,0.807-2.639,0.999
				l-0.817-1.989c-0.367,0.057-0.735,0.084-1.103,0.084c-1.004,0-1.997-0.208-2.911-0.609l-1.327,1.699
				c-1.041-0.529-1.991-1.258-2.786-2.166l1.328-1.7c-0.22-0.28-0.418-0.581-0.598-0.9c-0.53-0.942-0.825-1.952-0.905-2.964
				l-2.125-0.305c-0.028-1.064,0.125-2.122,0.449-3.126l2.121,0.305c0.487-1.29,1.343-2.445,2.523-3.294l-0.815-1.989
				c0.151-0.097,0.306-0.19,0.466-0.28C117.244,25.795,118.098,25.475,118.962,25.28 M121.005,37.475c0.516,0,1.039-0.129,1.521-0.4
				c1.494-0.841,2.022-2.733,1.183-4.228c-0.571-1.014-1.624-1.583-2.709-1.583c-0.516,0-1.038,0.128-1.52,0.399
				c-1.495,0.842-2.023,2.734-1.183,4.229C118.867,36.905,119.92,37.475,121.005,37.475 M118.963,23.372
				c-0.139,0-0.279,0.015-0.42,0.046c-1.07,0.241-2.096,0.635-3.049,1.172c-0.188,0.106-0.374,0.218-0.556,0.334
				c-0.777,0.497-1.088,1.479-0.738,2.332l0.295,0.72c-0.519,0.527-0.97,1.115-1.346,1.753l-0.741-0.106
				c-0.092-0.013-0.183-0.02-0.272-0.02c-0.817,0-1.558,0.525-1.814,1.322c-0.394,1.217-0.575,2.483-0.541,3.763
				c0.024,0.93,0.716,1.706,1.637,1.838l0.749,0.107c0.183,0.716,0.454,1.407,0.811,2.067l-0.493,0.631
				c-0.563,0.722-0.535,1.742,0.068,2.432c0.945,1.08,2.074,1.958,3.356,2.61c0.275,0.14,0.571,0.207,0.864,0.207
				c0.572,0,1.133-0.257,1.505-0.734l0.494-0.633c0.684,0.172,1.385,0.264,2.098,0.275l0.298,0.723
				c0.298,0.727,1.004,1.183,1.764,1.183c0.132,0,0.266-0.014,0.398-0.042c1.109-0.236,2.178-0.641,3.177-1.202
				c0.161-0.092,0.31-0.179,0.456-0.272c0.783-0.496,1.098-1.482,0.745-2.339l-0.283-0.69c0.55-0.543,1.027-1.155,1.422-1.821
				l0.742,0.106c0.092,0.013,0.183,0.02,0.272,0.02c0.817,0,1.558-0.525,1.814-1.322c0.398-1.231,0.581-2.498,0.545-3.766
				c-0.026-0.928-0.717-1.702-1.636-1.834l-0.736-0.106c-0.181-0.715-0.448-1.405-0.802-2.064l0.493-0.631
				c0.561-0.72,0.534-1.736-0.064-2.425c-0.941-1.085-2.069-1.967-3.352-2.622c-0.276-0.141-0.573-0.209-0.867-0.209
				c-0.572,0-1.133,0.257-1.505,0.733l-0.485,0.622c-0.733-0.188-1.486-0.283-2.254-0.284l-0.285-0.694
				C120.427,23.827,119.722,23.372,118.963,23.372L118.963,23.372z M121.005,35.566c-0.433,0-0.832-0.234-1.044-0.61
				c-0.323-0.575-0.119-1.307,0.456-1.63c0.182-0.102,0.378-0.154,0.583-0.154c0.433,0,0.834,0.234,1.047,0.612
				c0.322,0.573,0.118,1.304-0.456,1.627C121.408,35.514,121.211,35.566,121.005,35.566L121.005,35.566z"/>
		</g>
	</g>
</g>
</svg>
