<?xml version="1.0" encoding="utf-8"?>
<!-- Generator: Adobe Illustrator 16.0.0, SVG Export Plug-In . SVG Version: 6.00 Build 0)  -->
<!DOCTYPE svg PUBLIC "-//W3C//DTD SVG 1.1//EN" "http://www.w3.org/Graphics/SVG/1.1/DTD/svg11.dtd">
<svg version="1.1" id="Calque_1" xmlns="http://www.w3.org/2000/svg" xmlns:xlink="http://www.w3.org/1999/xlink" x="0px" y="0px"
	 width="165.541px" height="299.99px" viewBox="0 0 165.541 299.99" enable-background="new 0 0 165.541 299.99"
	 xml:space="preserve">
<g>
	<path fill="#39B54A" d="M107.064,70.01c17.053,0,30.875-13.825,30.875-30.876c0-17.049-13.822-30.87-30.875-30.87
		c-17.051,0-30.871,13.821-30.871,30.87C76.194,56.185,90.014,70.01,107.064,70.01z"/>
	<path fill="#39B54A" d="M36.959,218.447c15.33,4.186,31.15-4.848,35.338-20.184l24.939-91.375
		c4.184-15.333-4.852-31.15-20.183-35.334l-7.063-1.928c-15.326-4.185-31.149,4.849-35.334,20.182L9.715,181.184
		c-4.185,15.336,4.854,31.152,20.182,35.337L36.959,218.447z"/>
	<path fill="#39B54A" d="M76.5,99.152c-3.338-5.33-1.721-12.356,3.622-15.695l0,0c5.328-3.334,12.355-1.713,15.69,3.618
		l42.089,67.47c3.338,5.334,1.72,12.359-3.614,15.695l0,0c-5.336,3.335-12.363,1.711-15.697-3.622L76.5,99.152z"/>
	<path fill="#39B54A" d="M124.277,80.361c0.568-6.264,6.108-10.878,12.381-10.305l0,0c6.26,0.572,10.871,6.115,10.303,12.377
		l-7.325,79.183c-0.571,6.267-6.11,10.882-12.376,10.309l0,0c-6.266-0.575-10.879-6.12-10.305-12.384L124.277,80.361z"/>
	<path fill="#39B54A" d="M140.229,175.096c7.9-0.844,14.99,4.877,15.834,12.778l0.573,5.366c0.845,7.901-4.876,14.991-12.776,15.835
		l-97.276,10.392c-7.899,0.844-14.989-4.877-15.833-12.777l-0.574-5.367c-0.843-7.9,4.878-14.99,12.778-15.834L140.229,175.096z"/>
	<path fill="#39B54A" d="M156.848,277.285c0.025,7.941-6.395,14.402-14.344,14.426l-5.397,0.016
		c-7.944,0.023-14.405-6.396-14.431-14.342l-0.248-86.633c-0.021-7.947,6.398-14.411,14.346-14.435l5.4-0.014
		c7.943-0.026,14.404,6.397,14.426,14.344L156.848,277.285z"/>
</g>
</svg>
