<?xml version="1.0" encoding="utf-8"?>
<!-- Generator: Adobe Illustrator 16.0.0, SVG Export Plug-In . SVG Version: 6.00 Build 0)  -->
<!DOCTYPE svg PUBLIC "-//W3C//DTD SVG 1.1//EN" "http://www.w3.org/Graphics/SVG/1.1/DTD/svg11.dtd">
<svg version="1.1" id="Calque_1" xmlns="http://www.w3.org/2000/svg" xmlns:xlink="http://www.w3.org/1999/xlink" x="0px" y="0px"
	 width="300px" height="300px" viewBox="0 0 300 300" enable-background="new 0 0 300 300" xml:space="preserve">
<g>
	<path fill="#92278F" d="M213.382,10.11c-26.064,0-49.14,12.735-63.385,32.311C135.753,22.845,112.678,10.11,86.62,10.11
		c-43.274,0-78.353,35.08-78.353,78.353c0,81.672,118.479,144.229,141.729,201.428c21.979-51.396,141.735-133.77,141.735-201.428
		C291.732,45.19,256.651,10.11,213.382,10.11z"/>
	<g>
		<path fill="#8DC63F" d="M134.625,203.169c-2.118,0-4.165-0.923-5.765-2.597c-1.18-1.234-2.081-2.84-2.623-4.585
			c-2.056-0.336-4.24-1.212-6.246-2.509c-2.217,0.378-4.363,0.569-6.4,0.569c-15.634,0-23.583-11.08-24.984-22.53
			c-9.461-1.863-14.78-11.96-15.337-22.156c-3.665-8.741-2.931-17.84,1.898-24.334c-0.071-5.391,2.674-12.687,9.621-16.422
			c0.208-11.492,8.2-20.995,21.162-24.99c4.667-7.903,14.89-12.025,23.132-12.025c2.285,0,4.368,0.322,6.171,0.944
			c3.458-2.859,8.245-4.402,13.815-4.402c3.611,0,7.466,0.68,10.604,1.848c3.229-0.755,6.453-1.137,9.604-1.137
			c8.533,0,16.579,2.846,21.938,7.688c7.256,0.173,17.119,4.844,22.101,13.389c15.627,9.361,14.448,20.453,12.981,26.885
			c1.521,2.638,2.031,5.59,1.474,8.645c-0.913,5.008-4.688,9.608-8.298,12.291c-1.658,5.114-8.297,11.009-18.127,12.174
			c-2.594,13.918-13.624,21.813-30.774,21.813c-3.877,0-7.922-0.441-11.642-1.247c-0.827,5.776-2.972,7.714-5.922,9.733
			c-2.021,1.384-4.11,2.814-6.449,9.716c-2.979,8.784-6.993,13.238-11.933,13.238C134.626,203.169,134.626,203.169,134.625,203.169z
			"/>
		<path fill="#FFFFFF" d="M149.069,72.133c3.909,0,7.713,0.878,10.304,2.044c3.51-0.931,6.825-1.334,9.904-1.334
			c9.44,0,16.648,3.788,20.365,7.741c0.365-0.039,0.751-0.058,1.157-0.058c5.723,0,15.194,3.86,19.546,12.292
			c14.854,8.447,13.398,17.768,11.65,24.758c5.535,6.991-1.747,15.146-6.116,17.768c0,3.204-6.116,10.777-18.06,10.777
			c-1.388,16.852-14.888,21.608-27.248,21.608c-5.799,0-11.35-1.048-15.277-2.385c-0.291,16.313-6.699,6.117-12.523,23.303
			c-2.656,7.834-5.674,10.522-8.146,10.522c-2.95,0-5.12-3.832-4.962-7.319c-0.459,0.197-1.007,0.291-1.614,0.291
			c-2.086,0-4.868-1.107-7.124-2.912c-2.653,0.561-5.093,0.819-7.335,0.819c-15.232,0-21.21-11.945-21.21-22.237
			c-0.195,0.009-0.388,0.013-0.58,0.013c-9.242,0-14.279-9.956-14.566-19.373c-3.786-8.446-2.621-16.894,2.039-22.137
			c-0.582-3.786,1.166-12.233,9.612-15.146c-1.165-12.233,7.573-20.972,19.807-24.176c3.374-7.381,13.008-11.403,20.39-11.402
			c2.813,0,5.302,0.584,6.99,1.79C139.144,73.5,144.19,72.132,149.069,72.133 M149.07,64.133L149.07,64.133
			c-5.658,0-10.672,1.401-14.625,4.025c-1.668-0.375-3.465-0.567-5.362-0.567c-8.944-0.001-19.968,4.333-25.722,12.661
			c-13.05,4.491-21.337,14.176-22.451,25.999c-6.727,4.511-9.384,11.767-9.703,17.458c-4.891,7.365-5.623,17.151-1.888,26.561
			c0.43,5.871,2.248,11.447,5.189,15.846c2.768,4.142,6.393,7.053,10.546,8.549c0.982,4.896,3.015,9.405,5.958,13.105
			c3.73,4.689,10.675,10.279,22.578,10.279c1.803,0,3.675-0.134,5.596-0.398c1.328,0.729,2.707,1.313,4.083,1.732
			c0.697,1.467,1.606,2.812,2.699,3.954c2.362,2.472,5.436,3.833,8.657,3.833c6.843,0,12.133-5.367,15.722-15.954
			c1.911-5.639,3.305-6.594,4.92-7.699c3.129-2.143,5.385-4.451,6.695-8.426c2.846,0.417,5.771,0.639,8.608,0.639
			c17.898,0,30.193-8.199,34.063-22.281c5.215-1.071,9.022-3.238,11.531-5.142c3.097-2.351,5.395-5.187,6.644-8.093
			c4.031-3.291,7.863-8.376,8.897-14.045c0.635-3.483,0.218-6.86-1.206-9.947c1.32-7.035,1.551-19.285-14.267-29.202
			c-5.552-8.787-15.378-13.696-23.445-14.403c-6.05-4.915-14.569-7.772-23.512-7.772c-3.079,0-6.216,0.331-9.357,0.986
			C156.581,64.738,152.766,64.133,149.07,64.133L149.07,64.133L149.07,64.133z"/>
	</g>
</g>
</svg>
