<?xml version="1.0" encoding="utf-8"?>
<!-- Generator: Adobe Illustrator 16.0.0, SVG Export Plug-In . SVG Version: 6.00 Build 0)  -->
<!DOCTYPE svg PUBLIC "-//W3C//DTD SVG 1.1//EN" "http://www.w3.org/Graphics/SVG/1.1/DTD/svg11.dtd">
<svg version="1.1" id="Calque_1" xmlns="http://www.w3.org/2000/svg" xmlns:xlink="http://www.w3.org/1999/xlink" x="0px" y="0px"
	 width="299.99px" height="299.991px" viewBox="0 0 299.99 299.991" enable-background="new 0 0 299.99 299.991"
	 xml:space="preserve">
<g>
	<g>
		<path fill="#FFCB05" d="M58.941,15.811c10.711,10.706,10.711,28.068,0,38.775c-10.699,10.705-28.063,10.705-38.774,0
			c-10.71-10.707-10.71-28.069,0-38.775C30.879,5.1,48.242,5.1,58.941,15.811z"/>
		<path fill="#FFCB05" d="M32.738,75.767c6.508-1.247,26.012-5.479,33.234-12.698c7.184-7.176,10.43-25.524,11.344-31.796
			c0.199-1.345,1.055-2.319,2.319-2.587c3.278-0.707,9.923-1.971,15.177-1.971c10.091,0,18.426,0.729,27.148,4.605
			c6.027,2.678,20.957,13.164,23.387,15.146c2.668,2.185-2.055,11.026-8.039,6.828c-6.164-4.338-23.547-11.027-29.16-11.312
			c-3.63-0.182-12.199,0.166-12.199,0.166l18.746,45.394c0,0-7.035,9.137-11.641,13.738c-4.605,4.605-15.508,12.279-15.508,12.279
			L45.531,90.297c0,0-1.414,11.857-0.32,18.578c1.008,6.18,6.887,24.539,9.715,29.262c2.262,3.777-0.645,11.479-7.595,4.525
			c-6.944-6.951-14.866-24.292-16.624-29.545c-2.055-6.182-3.031-13.695-2.872-19.189c0.126-4.001,1.297-12.929,2.36-16.035
			C30.551,76.854,31.383,76.023,32.738,75.767z"/>
	</g>
	<g>
		<path fill="#FFCB05" d="M278.852,245.405c-10.711-10.705-28.066-10.705-38.773,0c-10.712,10.711-10.712,28.074,0,38.775
			c10.707,10.711,28.063,10.711,38.773,0C289.566,273.479,289.566,256.116,278.852,245.405z"/>
		<path fill="#FFCB05" d="M218.891,271.616c1.241-6.508,5.48-26.018,12.703-33.236c7.18-7.178,25.527-10.422,31.792-11.344
			c1.349-0.199,2.325-1.055,2.591-2.314c0.707-3.287,1.973-9.928,1.973-15.188c0-10.08-0.727-18.412-4.605-27.143
			c-2.68-6.025-13.164-20.957-15.146-23.383c-2.187-2.666-11.034,2.057-6.827,8.033c4.331,6.17,11.027,23.555,11.309,29.168
			c0.176,3.625-0.164,12.193-0.164,12.193l-45.402-18.738c0,0-9.129,7.025-13.734,11.633c-4.605,4.605-12.278,15.51-12.278,15.51
			l23.266,42.008c0,0-11.854,1.426-18.581,0.322c-6.18-1.008-24.539-6.883-29.267-9.711c-3.769-2.26-11.468,0.645-4.52,7.596
			c6.946,6.945,24.282,14.867,29.544,16.617c6.18,2.063,13.695,3.031,19.188,2.871c4-0.117,12.93-1.297,16.038-2.352
			C217.809,273.801,218.636,272.971,218.891,271.616z"/>
	</g>
	<g>
		<path fill="#007DBA" d="M283.698,61.039c-10.702,10.705-28.066,10.705-38.776,0c-10.707-10.706-10.707-28.068,0-38.775
			c10.71-10.705,28.074-10.705,38.776,0C294.406,32.971,294.406,50.333,283.698,61.039z"/>
		<path fill="#007DBA" d="M223.738,34.834c1.25,6.507,5.48,26.012,12.699,33.236c7.18,7.177,25.523,10.422,31.801,11.344
			c1.34,0.192,2.313,1.049,2.582,2.313c0.707,3.282,1.969,9.929,1.969,15.183c0,10.085-0.723,18.418-4.598,27.148
			c-2.68,6.02-13.16,20.956-15.152,23.381c-2.18,2.668-11.021-2.057-6.824-8.033c4.34-6.169,11.027-23.553,11.313-29.167
			c0.184-3.631-0.172-12.199-0.172-12.199l-45.395,18.744c0,0-9.13-7.026-13.742-11.633c-4.598-4.605-12.273-15.51-12.273-15.51
			l23.266-42.009c0,0-11.859-1.425-18.586-0.327c-6.168,1.013-24.535,6.888-29.25,9.715c-3.781,2.261-11.484-0.643-4.531-7.594
			c6.949-6.946,24.292-14.867,29.551-16.618c6.18-2.067,13.688-3.031,19.184-2.87c4.008,0.117,12.93,1.29,16.035,2.351
			C222.653,32.648,223.48,33.479,223.738,34.834z"/>
	</g>
	<g>
		<path fill="#007DBA" d="M55.066,282.877c10.711-10.705,10.711-28.068,0-38.773c-10.703-10.707-28.067-10.707-38.777,0
			c-10.703,10.705-10.703,28.068,0,38.773C26.999,293.584,44.363,293.584,55.066,282.877z"/>
		<path fill="#007DBA" d="M28.863,222.922c6.503,1.242,26.016,5.473,33.237,12.697c7.177,7.184,10.423,25.525,11.345,31.797
			c0.19,1.344,1.051,2.314,2.313,2.582c3.285,0.711,9.926,1.977,15.18,1.977c10.09,0,18.422-0.729,27.145-4.602
			c6.027-2.678,20.957-13.164,23.391-15.15c2.668-2.18-2.059-11.027-8.035-6.828c-6.169,4.338-23.555,11.031-29.164,11.311
			c-3.633,0.182-12.203-0.16-12.203-0.16l18.746-45.406c0,0-7.027-9.125-11.633-13.73s-15.508-12.285-15.508-12.285l-42.016,23.27
			c0,0-1.418-11.863-0.329-18.578c1.013-6.182,6.888-24.541,9.716-29.264c2.262-3.77-0.641-11.473-7.595-4.525
			c-6.948,6.945-14.866,24.287-16.617,29.547c-2.062,6.18-3.026,13.689-2.87,19.184c0.113,4.006,1.289,12.928,2.352,16.035
			C26.676,221.834,27.504,222.665,28.863,222.922z"/>
	</g>
</g>
</svg>
