<?xml version="1.0" encoding="utf-8"?>
<!-- Generator: Adobe Illustrator 16.0.0, SVG Export Plug-In . SVG Version: 6.00 Build 0)  -->
<!DOCTYPE svg PUBLIC "-//W3C//DTD SVG 1.1//EN" "http://www.w3.org/Graphics/SVG/1.1/DTD/svg11.dtd">
<svg version="1.1" id="Calque_1" xmlns="http://www.w3.org/2000/svg" xmlns:xlink="http://www.w3.org/1999/xlink" x="0px" y="0px"
	 width="300px" height="300px" viewBox="0 0 300 300" enable-background="new 0 0 300 300" xml:space="preserve">
<g>
	<path fill="#FFFFFF" d="M258.271,145.997C256.061,86.2,205.795,39.518,145.997,41.729C86.201,43.939,39.517,94.207,41.729,154.004
		c2.209,59.796,52.479,106.478,112.273,104.268C213.801,256.06,260.482,205.794,258.271,145.997z"/>
	<g>
		<circle fill="#662D91" cx="149.993" cy="117.46" r="35.421"/>
		<path fill="#662D91" d="M165.26,160.21h-30.535c-29.681,0-53.742,24.061-53.742,53.742v31.313
			c6.918,6.37,14.727,11.79,23.207,16.071v-39.951c0-1.912,1.547-3.464,3.463-3.464s3.462,1.552,3.462,3.464v43.11
			c11.984,4.951,25.104,7.708,38.877,7.708c13.542,0,26.452-2.653,38.268-7.448v-43.37c0-1.912,1.549-3.464,3.461-3.464
			c1.914,0,3.463,1.552,3.463,3.464v40.241c8.717-4.324,16.738-9.839,23.818-16.361v-31.313
			C219.002,184.271,194.941,160.21,165.26,160.21z"/>
	</g>
	<path fill="#ED1C24" stroke="#FFFFFF" stroke-width="5.1626" stroke-miterlimit="10" d="M150,8.268
		C71.724,8.268,8.268,71.723,8.268,149.999S71.724,291.732,150,291.732c78.278,0,141.733-63.457,141.733-141.733
		S228.277,8.268,150,8.268z M153.529,245.888c-52.068,1.925-95.803-38.758-97.729-90.845c-1.925-52.05,38.689-95.782,90.758-97.706
		c52.084-1.927,95.834,38.684,97.756,90.735C246.242,200.159,205.613,243.964,153.529,245.888z"/>
	<g>
		<g>
			<path fill="#662D91" d="M141.555,274.069c-2.154-1.5-4.843-3.197-8.605-3.201c-3.766-0.004-9.168,1.521-16.528,8.357
				c4.077,1.297,6.91,2.027,11.112,2.105C131.737,281.409,136.921,281.071,141.555,274.069z"/>
			<path fill="#662D91" d="M121.771,269.806c-2.018-1.686-4.547-3.607-8.298-3.936c-3.748-0.329-9.263,0.722-17.188,6.896
				c3.949,1.645,6.713,2.618,10.89,3.058C111.354,276.265,116.55,276.379,121.771,269.806z"/>
			<path fill="#662D91" d="M104.159,263.108c-1.87-1.844-4.235-3.967-7.948-4.598c-3.709-0.634-9.292-0.037-17.693,5.471
				c3.802,1.961,6.476,3.156,10.604,3.936C93.25,268.698,98.418,269.232,104.159,263.108z"/>
			<path fill="#662D91" d="M87.488,255.813c-1.246-2.313-2.878-5.041-6.238-6.742c-3.354-1.701-8.864-2.782-18.518-0.004
				c3.051,2.996,5.253,4.931,8.965,6.895C75.412,257.93,80.188,259.97,87.488,255.813z"/>
			<path fill="#662D91" d="M72.838,243.945c-1.042-2.411-2.438-5.268-5.64-7.248c-3.201-1.979-8.598-3.521-18.451-1.571
				c2.786,3.245,4.816,5.356,8.348,7.63C60.63,245.029,65.218,247.466,72.838,243.945z"/>
			<path fill="#662D91" d="M61,231.595c-0.742-2.521-1.774-5.525-4.711-7.884c-2.931-2.356-8.101-4.55-18.119-3.823
				c2.367,3.561,4.122,5.906,7.352,8.595C48.748,231.173,53.002,234.155,61,231.595z"/>
			<path fill="#662D91" d="M51.562,216.757c-0.521-2.466-1.291-5.42-3.925-7.894c-2.636-2.472-7.421-4.952-17.068-4.994
				c2.005,3.583,3.513,5.958,6.407,8.769C39.865,215.45,43.719,218.62,51.562,216.757z"/>
			<path fill="#662D91" d="M42.998,201.63c-0.236-2.508-0.657-5.525-2.986-8.285c-2.33-2.756-6.793-5.77-16.354-6.923
				c1.574,3.786,2.792,6.314,5.34,9.439C31.541,198.985,35,202.572,42.998,201.63z"/>
			<path fill="#662D91" d="M36.823,186.209c0.446-2.345,0.862-5.207-0.529-8.333c-1.39-3.129-4.658-7.052-13.063-10.635
				c0.432,3.864,0.875,6.49,2.363,10.009C27.086,180.77,29.289,184.952,36.823,186.209z"/>
			<path fill="#662D91" d="M38.967,177.101c1.675-1.564,3.612-3.545,4.304-6.752c0.693-3.205,0.384-8.09-4.098-15.613
				c-1.85,3.236-2.992,5.518-3.828,9.085C34.511,167.388,33.851,171.867,38.967,177.101z"/>
			<path fill="#662D91" d="M44.095,195.028c1.888-1.451,4.087-3.31,5.117-6.559c1.029-3.25,1.188-8.334-2.708-16.559
				c-2.232,3.167-3.638,5.414-4.85,9.023C40.438,184.542,39.314,189.114,44.095,195.028z"/>
			<path fill="#662D91" d="M52.312,212.187c1.834-1.576,3.961-3.586,4.82-6.94s0.736-8.519-3.682-16.638
				c-2.086,3.336-3.383,5.697-4.408,9.425C48.015,201.761,47.131,206.458,52.312,212.187z"/>
			<path fill="#662D91" d="M65.031,228.46c1.61-2.075,3.44-4.67,3.64-8.43c0.195-3.759-1.046-9.234-7.495-16.937
				c-1.503,4.005-2.382,6.8-2.674,10.991C58.208,218.276,58.275,223.472,65.031,228.46z"/>
			<path fill="#662D91" d="M79.344,242.245c1.338-2.262,2.836-5.066,2.557-8.819c-0.271-3.754-2.187-9.03-9.545-15.867
				c-0.995,4.16-1.515,7.041-1.284,11.237C71.305,232.991,72.023,238.138,79.344,242.245z"/>
			<path fill="#662D91" d="M93.701,253.247c1.148-2.363,2.407-5.281,1.824-9.002c-0.583-3.717-2.932-8.816-10.83-15.021
				c-0.644,4.227-0.928,7.143-0.347,11.304C84.926,244.69,86.064,249.759,93.701,253.247z"/>
			<path fill="#662D91" d="M113.908,262.149c0.377-2.599,0.693-5.762-0.989-9.129c-1.682-3.367-5.462-7.519-14.868-11.043
				c0.662,4.226,1.276,7.09,3.09,10.881C102.949,256.65,105.572,261.137,113.908,262.149z"/>
			<path fill="#662D91" d="M137.386,267.142c-0.561-2.568-1.377-5.639-4.136-8.201c-2.754-2.563-7.753-5.121-17.797-5.113
				c2.106,3.723,3.688,6.188,6.715,9.102C125.197,265.842,129.225,269.122,137.386,267.142z"/>
		</g>
		<g>
			<path fill="#662D91" d="M158.439,274.069c2.154-1.5,4.844-3.197,8.605-3.201c3.768-0.004,9.168,1.521,16.529,8.357
				c-4.078,1.297-6.91,2.027-11.113,2.105S163.074,281.071,158.439,274.069z"/>
			<path fill="#662D91" d="M178.225,269.806c2.018-1.686,4.547-3.607,8.297-3.936c3.748-0.329,9.264,0.722,17.189,6.896
				c-3.949,1.645-6.713,2.618-10.891,3.058C188.641,276.265,183.445,276.379,178.225,269.806z"/>
			<path fill="#662D91" d="M195.836,263.108c1.871-1.844,4.236-3.967,7.949-4.598c3.709-0.634,9.291-0.037,17.693,5.471
				c-3.803,1.961-6.477,3.156-10.604,3.936C206.746,268.698,201.576,269.232,195.836,263.108z"/>
			<path fill="#662D91" d="M212.508,255.813c1.246-2.313,2.877-5.041,6.238-6.742c3.354-1.701,8.863-2.782,18.518-0.004
				c-3.051,2.996-5.254,4.931-8.965,6.895C224.584,257.93,219.805,259.97,212.508,255.813z"/>
			<path fill="#662D91" d="M227.154,243.945c1.045-2.411,2.439-5.268,5.643-7.248c3.201-1.979,8.598-3.521,18.451-1.571
				c-2.787,3.245-4.816,5.356-8.348,7.63C239.365,245.029,234.777,247.466,227.154,243.945z"/>
			<path fill="#662D91" d="M238.996,231.595c0.74-2.521,1.773-5.525,4.711-7.884c2.93-2.356,8.098-4.55,18.119-3.823
				c-2.367,3.561-4.123,5.906-7.352,8.595C251.248,231.173,246.992,234.155,238.996,231.595z"/>
			<path fill="#662D91" d="M248.434,216.757c0.52-2.466,1.291-5.42,3.924-7.894c2.637-2.472,7.422-4.952,17.068-4.994
				c-2.004,3.583-3.512,5.958-6.406,8.769C260.131,215.45,256.275,218.62,248.434,216.757z"/>
			<path fill="#662D91" d="M256.998,201.63c0.236-2.508,0.656-5.525,2.986-8.285c2.33-2.756,6.793-5.77,16.354-6.923
				c-1.574,3.786-2.793,6.314-5.34,9.439C268.453,198.985,264.996,202.572,256.998,201.63z"/>
			<path fill="#662D91" d="M263.172,186.209c-0.445-2.345-0.861-5.207,0.529-8.333c1.391-3.129,4.658-7.052,13.063-10.635
				c-0.432,3.864-0.873,6.49-2.363,10.009C272.908,180.77,270.707,184.952,263.172,186.209z"/>
			<path fill="#662D91" d="M261.027,177.101c-1.674-1.564-3.611-3.545-4.303-6.752c-0.693-3.205-0.387-8.09,4.096-15.613
				c1.85,3.236,2.994,5.518,3.83,9.085C265.484,167.388,266.145,171.867,261.027,177.101z"/>
			<path fill="#662D91" d="M255.9,195.028c-1.889-1.451-4.086-3.31-5.117-6.559c-1.029-3.25-1.189-8.334,2.707-16.559
				c2.232,3.167,3.639,5.414,4.852,9.023C259.555,184.542,260.682,189.114,255.9,195.028z"/>
			<path fill="#662D91" d="M247.684,212.187c-1.834-1.576-3.963-3.586-4.82-6.94c-0.861-3.354-0.736-8.519,3.682-16.638
				c2.086,3.336,3.383,5.697,4.408,9.425C251.98,201.761,252.863,206.458,247.684,212.187z"/>
			<path fill="#662D91" d="M234.965,228.46c-1.611-2.075-3.443-4.67-3.641-8.43c-0.195-3.759,1.045-9.234,7.496-16.937
				c1.504,4.005,2.381,6.8,2.674,10.991C241.785,218.276,241.719,223.472,234.965,228.46z"/>
			<path fill="#662D91" d="M220.652,242.245c-1.34-2.262-2.836-5.066-2.559-8.819c0.271-3.754,2.188-9.03,9.547-15.867
				c0.994,4.16,1.512,7.041,1.283,11.237C228.688,232.991,227.971,238.138,220.652,242.245z"/>
			<path fill="#662D91" d="M206.295,253.247c-1.148-2.363-2.408-5.281-1.824-9.002c0.582-3.717,2.93-8.816,10.83-15.021
				c0.643,4.227,0.928,7.143,0.346,11.304C215.068,244.69,213.932,249.759,206.295,253.247z"/>
			<path fill="#662D91" d="M186.086,262.149c-0.375-2.599-0.691-5.762,0.992-9.129c1.68-3.367,5.459-7.519,14.867-11.043
				c-0.662,4.226-1.277,7.09-3.09,10.881C197.047,256.65,194.424,261.137,186.086,262.149z"/>
			<path fill="#662D91" d="M162.609,267.142c0.561-2.568,1.375-5.639,4.137-8.201c2.752-2.563,7.752-5.121,17.795-5.113
				c-2.105,3.723-3.688,6.188-6.715,9.102S170.77,269.122,162.609,267.142z"/>
		</g>
		<polygon fill="#662D91" points="149.666,276.004 145.316,278.657 146.417,273.679 142.549,270.36 147.622,269.87 149.585,265.166 
			151.62,269.841 156.699,270.253 152.885,273.63 154.061,278.591 		"/>
	</g>
</g>
</svg>
