<?xml version="1.0" encoding="utf-8"?>
<!-- Generator: Adobe Illustrator 16.0.0, SVG Export Plug-In . SVG Version: 6.00 Build 0)  -->
<!DOCTYPE svg PUBLIC "-//W3C//DTD SVG 1.1//EN" "http://www.w3.org/Graphics/SVG/1.1/DTD/svg11.dtd">
<svg version="1.1" id="Calque_1" xmlns="http://www.w3.org/2000/svg" xmlns:xlink="http://www.w3.org/1999/xlink" x="0px" y="0px"
	 width="299.991px" height="248.967px" viewBox="0 0 299.991 248.967" enable-background="new 0 0 299.991 248.967"
	 xml:space="preserve">
<g>
	<g>
		<path fill="#39B54A" d="M107.705,32.421c0-14.122-11.444-25.568-25.566-25.568c-14.123,0-25.567,11.446-25.567,25.568
			c0,14.127,11.444,25.572,25.567,25.572C96.261,57.993,107.705,46.548,107.705,32.421z"/>
		<path fill="#39B54A" d="M152.385,110.003L105.606,69.86c-1.374-1.178-2.809-2.516-6.99-2.516c-1.832,0-29.412,0.021-29.412,0.021
			c-6.167-0.021-7.727-0.021-10.53,2.494l-46.777,40.143c-4.373,3.752-4.868,10.33-1.121,14.697
			c3.748,4.368,10.327,4.869,14.699,1.125l27.978-24.018v65.471v1.307v61.685c0,6.542,5.306,11.845,11.854,11.845
			c6.538,0,11.845-5.303,11.845-11.845v-54.929c0-3.101,2.515-5.607,5.606-5.607c3.102,0,5.618,2.507,5.618,5.607v54.929
			c0,6.542,5.307,11.845,11.854,11.845c6.538,0,11.846-5.303,11.846-11.845v-61.685v-1.307V102.88l26.736,22.945
			c4.371,3.744,10.951,3.243,14.699-1.125C157.256,120.333,156.752,113.755,152.385,110.003z"/>
	</g>
	<g>
		<path fill="#D80B8C" d="M243.415,32.421c0-14.122-11.451-25.568-25.566-25.568c-14.123,0-25.57,11.446-25.57,25.568
			c0,14.127,11.447,25.572,25.57,25.572C231.963,57.993,243.415,46.548,243.415,32.421z"/>
		<path fill="#D80B8C" d="M288.092,110.003L241.315,69.86c-1.373-1.178-2.809-2.516-6.994-2.516c-1.83,0-29.414,0.021-29.414,0.021
			c-6.17-0.021-7.725-0.021-10.529,2.494L147.6,110.003c-4.367,3.752-4.867,10.33-1.115,14.697
			c3.746,4.368,10.322,4.869,14.693,1.125l27.982-24.018v65.471v1.307v61.685c0,6.542,5.301,11.845,11.844,11.845
			c6.547,0,11.854-5.303,11.854-11.845v-54.929c0-3.101,2.512-5.607,5.609-5.607c3.1,0,5.617,2.507,5.617,5.607v54.929
			c0,6.542,5.307,11.845,11.854,11.845c6.537,0,11.844-5.303,11.844-11.845v-61.685v-1.307V102.88l26.738,22.945
			c4.369,3.744,10.945,3.243,14.693-1.125C292.965,120.333,292.461,113.755,288.092,110.003z"/>
	</g>
	<polygon fill="#D80B8C" points="265.573,188.21 171.079,188.21 190.727,94.464 245.922,94.464 	"/>
</g>
</svg>
