<?xml version="1.0" encoding="utf-8"?>
<!-- Generator: Adobe Illustrator 16.0.0, SVG Export Plug-In . SVG Version: 6.00 Build 0)  -->
<!DOCTYPE svg PUBLIC "-//W3C//DTD SVG 1.1//EN" "http://www.w3.org/Graphics/SVG/1.1/DTD/svg11.dtd">
<svg version="1.1" id="Calque_1" xmlns="http://www.w3.org/2000/svg" xmlns:xlink="http://www.w3.org/1999/xlink" x="0px" y="0px"
	 width="300px" height="257.333px" viewBox="0 0 300 257.333" enable-background="new 0 0 300 257.333" xml:space="preserve">
<g>
	<g>
		<path fill="#FBB040" d="M138.943,185.149c-23.394,7.964-77.016,10.527-80.893-36.567c-22.719,0-34.354-14.406-34.354-20.501
			c-8.312-4.986-22.162-20.499-11.635-33.798C8.737,80.986,5.968,63.257,34.225,47.188c8.864-17.176,28.897-24.378,39.382-23.271
			c9.375-9.972,30.43-19.393,57.579-12.188c11.081-4.987,33.798-7.204,44.322,6.094c11.637-8.31,43.219-1.107,52.084,18.284
			c23.27,6.095,39.893,22.717,37.677,45.987c16.066,5.54,19.392,21.608,18.284,28.811c8.865,9.974,11.081,26.042,3.879,42.108
			c-0.557,18.285-10.529,37.639-28.812,36.826c0,22.459-14.96,49.055-54.299,40.744c-5.54,4.432-12.743,6.648-16.622,4.986
			c0.554,12.189-13.851,26.596-24.934-6.096C151.687,196.785,139.497,216.178,138.943,185.149z"/>
	</g>
	<g>
		<path fill="#00AEEF" d="M160.175,174.317c-1.614-0.015-3.062-0.998-3.67-2.494c-3.19-7.85-12.119-16.564-21.571-25.791
			c-15.452-15.082-32.966-32.176-32.966-52.806c0-18.741,15.247-33.988,33.988-33.988c9.151,0,17.908,3.742,24.255,10.196
			c6.348-6.455,15.107-10.196,24.261-10.196c18.74,0,33.986,15.247,33.986,33.988c0,17.326-17.626,35.884-33.177,52.258
			c-9.448,9.948-18.373,19.345-21.393,26.406c-0.63,1.473-2.078,2.427-3.678,2.427C160.199,174.317,160.188,174.317,160.175,174.317
			z"/>
		<path fill="#FFFFFF" d="M184.472,63.238c16.561,0,29.986,13.427,29.986,29.988c0,25.895-45.835,57.42-54.247,77.091
			c-8.897-21.891-54.243-45.833-54.243-77.091c0-16.562,13.425-29.988,29.988-29.988c9.972,0,18.804,4.874,24.255,12.366
			C165.663,68.112,174.494,63.238,184.472,63.238 M184.472,55.238c-8.921,0-17.505,3.178-24.26,8.774
			c-6.754-5.595-15.337-8.774-24.256-8.774c-20.947,0-37.988,17.042-37.988,37.988c0,22.315,18.154,40.034,34.171,55.668
			c9.146,8.927,17.784,17.358,20.661,24.436c1.216,2.991,4.11,4.958,7.339,4.987c0.024,0,0.049,0,0.073,0
			c3.199,0,6.095-1.908,7.354-4.854c2.737-6.4,11.826-15.97,20.615-25.225c16.066-16.916,34.276-36.088,34.276-55.012
			C222.458,72.28,205.417,55.238,184.472,55.238L184.472,55.238z"/>
	</g>
</g>
</svg>
