<?xml version="1.0" encoding="utf-8"?>
<!-- Generator: Adobe Illustrator 16.0.0, SVG Export Plug-In . SVG Version: 6.00 Build 0)  -->
<!DOCTYPE svg PUBLIC "-//W3C//DTD SVG 1.1//EN" "http://www.w3.org/Graphics/SVG/1.1/DTD/svg11.dtd">
<svg version="1.1" id="Calque_1" xmlns="http://www.w3.org/2000/svg" xmlns:xlink="http://www.w3.org/1999/xlink" x="0px" y="0px"
	 width="299.99px" height="299.99px" viewBox="0 0 299.99 299.99" enable-background="new 0 0 299.99 299.99" xml:space="preserve">
<g>
	<path fill="#0A4E9B" d="M177.843,89.332c0-24.795-20.096-44.902-44.902-44.902c-24.805,0-44.906,20.107-44.906,44.902
		c0,24.805,20.102,44.924,44.906,44.924C157.747,134.256,177.843,114.137,177.843,89.332z"/>
	<path fill="#0A4E9B" d="M160.54,188.284c-6.449-4.858-7.734-14.024-2.875-20.472l1.352-1.795
		c4.859-6.446,14.025-7.735,20.473-2.874l57.449,41.153c6.449,4.859,7.735,14.024,2.875,20.473l-1.351,1.794
		c-4.858,6.446-14.024,7.734-20.474,2.875L160.54,188.284z"/>
	<path fill="#0A4E9B" d="M214.674,205.818c4.858-6.447,14.024-7.733,20.472-2.875l1.795,1.354
		c6.445,4.858,7.735,14.024,2.875,20.472l-48.74,60.573c-4.858,6.448-14.023,7.733-20.471,2.874l-1.795-1.351
		c-6.446-4.859-7.734-14.025-2.875-20.474L214.674,205.818z"/>
	<path fill="#0A4E9B" d="M161.144,262.78l0.057-0.076l0.06-0.074l30.151-37.472v-41.077c0-26.87-35.568-30.264-58.473-30.264
		c-22.906,0-58.477,1.825-58.477,30.264v88.73c17.631,8.713,37.479,13.617,58.477,13.617c8.893,0,17.575-0.889,25.975-2.565
		C155.827,277.183,156.413,269.057,161.144,262.78z"/>
	<path fill="#0A4E9B" d="M104.351,175.564c6.447,4.859,7.733,14.024,2.875,20.473l-1.352,1.794
		c-4.859,6.446-14.027,7.736-20.475,2.875L14.083,149.52c-6.449-4.858-7.734-14.023-2.873-20.472l1.35-1.794
		c4.857-6.447,14.025-7.734,20.475-2.875L104.351,175.564z"/>
	<path fill="#0A4E9B" d="M36.351,147.998c-4.859,6.446-14.023,7.733-20.473,2.875l-1.795-1.354
		c-6.445-4.858-7.734-14.024-2.873-20.472l48.738-60.573c4.858-6.448,14.023-7.733,20.471-2.874l1.795,1.351
		c6.447,4.858,7.736,14.024,2.874,20.474L36.351,147.998z"/>
	<circle fill="#6DCFF6" cx="201.118" cy="106.707" r="6.196"/>
	<circle fill="#6DCFF6" cx="213.509" cy="90.66" r="9.697"/>
	<path fill="#6DCFF6" d="M291.728,43.55c0-7.042-4.217-13.173-10.445-16.364c-2.816-7.207-10.287-12.36-19.066-12.36
		c-2.176,0-4.273,0.321-6.239,0.91c-3.716-4.214-9.376-6.906-15.721-6.906c-5.103,0-9.764,1.745-13.327,4.622
		c-3.563-2.877-8.222-4.622-13.326-4.622c-8.344,0-15.508,4.657-18.611,11.309c-8.903,1.971-15.521,9.362-15.521,18.186
		c0,5.799,2.857,10.981,7.346,14.411c-0.061,0.584-0.094,1.174-0.094,1.771c0,10.331,9.071,18.706,20.262,18.706
		c1.01,0,2-0.07,2.969-0.202c3.703,3.704,9.004,6.026,14.894,6.026c2.974,0,5.792-0.597,8.337-1.659
		c3.347,2.253,7.467,3.585,11.924,3.585c5.478,0,10.443-2.01,14.092-5.27c0.438,0.026,0.877,0.044,1.322,0.044
		c9.977,0,18.264-6.66,19.943-15.427C287.138,57.25,291.728,50.896,291.728,43.55z M227.079,41.738
		c-0.09-0.009-0.178-0.018-0.265-0.026c0.036-0.03,0.077-0.062,0.114-0.093C226.979,41.659,227.027,41.699,227.079,41.738z"/>
</g>
</svg>
