<?xml version="1.0" encoding="utf-8"?>
<!-- Generator: Adobe Illustrator 16.0.0, SVG Export Plug-In . SVG Version: 6.00 Build 0)  -->
<!DOCTYPE svg PUBLIC "-//W3C//DTD SVG 1.1//EN" "http://www.w3.org/Graphics/SVG/1.1/DTD/svg11.dtd">
<svg version="1.1" id="Calque_1" xmlns="http://www.w3.org/2000/svg" xmlns:xlink="http://www.w3.org/1999/xlink" x="0px" y="0px"
	 width="299.99px" height="250.338px" viewBox="0 0 299.99 250.338" enable-background="new 0 0 299.99 250.338"
	 xml:space="preserve">
<g>
	<path fill="#007DBA" d="M208.194,91.325h-22.442c-11.363,0-19.3-7.063-19.3-17.176c0-10.643,8.658-19.301,19.285-19.301
		l31.428-0.075V23.341c0-2.545-2.063-4.608-4.607-4.608H12.871c-2.545,0-4.608,2.063-4.608,4.608v117.968
		c0,2.545,2.063,4.608,4.608,4.608h199.687c2.545,0,4.607-2.063,4.607-4.608V91.325H208.194z"/>
	<g>
		<path fill="#FFCB05" d="M273.025,29.485c0-12.737-10.328-23.065-23.063-23.065c-12.74,0-23.068,10.328-23.068,23.065
			s10.328,23.065,23.068,23.065C262.697,52.551,273.025,42.223,273.025,29.485z"/>
		<path fill="#FFCB05" d="M271.778,60.642l-86.026,0.207c-7.346,0-13.3,5.954-13.3,13.301c0,7.346,5.954,11.176,13.3,11.176h22.442
			c0,0,20.645,0,21.506,0c1.973,0,1.561,0.576,1.561,3.681l0.027,145.872c0,4.992,4.049,9.04,9.039,9.04
			c4.991,0,9.322-4.048,9.322-9.04c0,0,0-78.701,0-79.481c0-1.17,1.559-1.206,1.559,0c0,1.093,0,79.481,0,79.481
			c0,4.992,4.33,9.04,9.32,9.04c4.993,0,9.041-4.048,9.041-9.04l0.027-145.872c0-0.859,0.697-1.557,1.559-1.557
			c0.862,0,1.56,0.697,1.56,1.557v51.221c0,17.663,19.013,18.495,19.013-1.037V80.591C291.728,69.575,282.796,60.642,271.778,60.642
			z"/>
	</g>
	<g>
		<path fill="#FFFFFF" d="M46.355,68.133h-7.942v7.394h8.886v2.223H35.736v-20.51h11.106v2.222h-8.43v6.481h7.942V68.133z"/>
		<path fill="#FFFFFF" d="M51.902,63.021l2.099,3.164c0.58,0.822,1.035,1.551,1.523,2.374h0.06c0.487-0.853,0.974-1.613,1.491-2.404
			l2.039-3.134h2.922l-5.023,7.121l5.145,7.606h-3.013l-2.19-3.318c-0.579-0.852-1.065-1.672-1.583-2.554h-0.06
			c-0.488,0.882-0.975,1.672-1.555,2.554l-2.127,3.318h-2.953l5.234-7.515l-4.992-7.213H51.902z"/>
		<path fill="#FFFFFF" d="M65.785,70.871c0.062,3.622,2.343,5.113,5.052,5.113c1.916,0,3.104-0.334,4.078-0.761l0.484,1.916
			c-0.943,0.426-2.586,0.943-4.927,0.943c-4.534,0-7.243-3.013-7.243-7.455s2.617-7.911,6.908-7.911c4.836,0,6.084,4.2,6.084,6.907
			c0,0.548-0.028,0.944-0.091,1.247H65.785z M73.637,68.956c0.029-1.676-0.701-4.321-3.712-4.321c-2.74,0-3.895,2.465-4.107,4.321
			H73.637z"/>
		<path fill="#FFFFFF" d="M79.548,67.008c0-1.554-0.062-2.77-0.124-3.986h2.344l0.122,2.403h0.092
			c0.822-1.399,2.189-2.708,4.655-2.708c1.977,0,3.499,1.217,4.138,2.951h0.062c0.456-0.853,1.065-1.46,1.673-1.915
			c0.885-0.672,1.826-1.036,3.226-1.036c1.978,0,4.868,1.278,4.868,6.39v8.643h-2.616v-8.308c0-2.859-1.065-4.534-3.196-4.534
			c-1.551,0-2.708,1.127-3.193,2.406c-0.121,0.394-0.213,0.85-0.213,1.338v9.098h-2.616v-8.826c0-2.341-1.036-4.016-3.075-4.016
			c-1.643,0-2.889,1.34-3.314,2.678c-0.154,0.365-0.215,0.853-0.215,1.309v8.855h-2.615V67.008z"/>
		<path fill="#FFFFFF" d="M104.938,67.828c0-1.886-0.063-3.406-0.123-4.807h2.373l0.154,2.524h0.059
			c1.065-1.793,2.83-2.829,5.235-2.829c3.589,0,6.269,3.013,6.269,7.455c0,5.295-3.256,7.911-6.727,7.911
			c-1.947,0-3.649-0.852-4.533-2.312h-0.061v8.003h-2.646V67.828z M107.585,71.755c0,0.395,0.029,0.761,0.121,1.096
			c0.488,1.855,2.102,3.134,4.016,3.134c2.83,0,4.476-2.313,4.476-5.69c0-2.922-1.554-5.446-4.384-5.446
			c-1.826,0-3.561,1.278-4.045,3.285c-0.092,0.335-0.184,0.731-0.184,1.065V71.755z"/>
		<path fill="#FFFFFF" d="M122.263,56.144h2.676v21.605h-2.676V56.144z"/>
		<path fill="#FFFFFF" d="M130.935,70.871c0.061,3.622,2.344,5.113,5.052,5.113c1.917,0,3.104-0.334,4.078-0.761l0.485,1.916
			c-0.943,0.426-2.587,0.943-4.928,0.943c-4.534,0-7.242-3.013-7.242-7.455s2.615-7.911,6.907-7.911c4.837,0,6.085,4.2,6.085,6.907
			c0,0.548-0.031,0.944-0.091,1.247H130.935z M138.786,68.956c0.029-1.676-0.701-4.321-3.712-4.321c-2.74,0-3.895,2.465-4.107,4.321
			H138.786z"/>
	</g>
</g>
</svg>
