<?xml version="1.0" encoding="utf-8"?>
<!-- Generator: Adobe Illustrator 16.0.0, SVG Export Plug-In . SVG Version: 6.00 Build 0)  -->
<!DOCTYPE svg PUBLIC "-//W3C//DTD SVG 1.1//EN" "http://www.w3.org/Graphics/SVG/1.1/DTD/svg11.dtd">
<svg version="1.1" id="Calque_1" xmlns="http://www.w3.org/2000/svg" xmlns:xlink="http://www.w3.org/1999/xlink" x="0px" y="0px"
	 width="299.99px" height="299.99px" viewBox="0 0 299.99 299.99" enable-background="new 0 0 299.99 299.99" xml:space="preserve">
<g>
	<path fill="#D11A6F" d="M76.149,72.408c0-13.761,4.858-26.405,12.943-36.321c-7.441-2.663-15.8-4.162-24.64-4.162
		c-31.032,0-56.19,18.424-56.19,41.146c0,12.824,8.014,24.277,20.568,31.82c4.479,3.136,1.531,7.974,13.904,18.231
		c-4.641-10.258-2.371-12.822,5.305-10.695c5.191,1.157,10.703,1.783,16.413,1.783c9.179,0,17.835-1.621,25.487-4.479
		C81.351,99.674,76.149,86.641,76.149,72.408z"/>
	<path fill="#FFFFFF" d="M50.779,84.308l-0.091-2.322c-0.445-4.739,1.164-9.656,5.363-14.661c3.396-4.111,5.723-7.241,5.723-10.726
		c0-3.754-2.415-6.257-7.42-6.349c-3.129,0-6.705,0.985-8.939,2.684l-2.682-7.867c3.219-2.055,8.314-3.664,14.037-3.664
		c11.082,0,16.178,6.438,16.178,13.588c0,6.524-3.844,10.904-7.688,15.285c-3.574,4.111-4.916,7.775-4.74,12.066v1.966H50.779z
		 M48.634,96.733c0-4.111,2.859-6.973,6.793-6.973c4.021,0,6.703,2.861,6.796,6.973c0,3.933-2.683,6.974-6.886,6.974
		C51.405,103.707,48.634,100.666,48.634,96.733z"/>
	<path fill="#FAA61A" d="M161.905,53.913c0-6.69,1.623-13.154,4.691-19.16c-8.789-7.68-20.283-12.343-32.873-12.343
		c-27.612,0-49.998,22.385-49.998,49.998s22.386,49.999,49.998,49.999c21.467,0,39.768-13.531,46.854-32.528
		C168.62,80.246,161.905,67.477,161.905,53.913z"/>
	<path fill="#FAA61A" d="M155.275,132.751h-43.103c-41.899,0-75.862,33.964-75.862,75.861v44.201
		c9.767,8.991,20.788,16.641,32.759,22.684v-56.393c0-2.7,2.183-4.891,4.887-4.891c2.705,0,4.889,2.19,4.889,4.891v60.852
		c16.914,6.989,35.436,10.882,54.879,10.882c19.112,0,37.336-3.744,54.017-10.513v-61.221c0-2.7,2.185-4.891,4.884-4.891
		c2.707,0,4.891,2.19,4.891,4.891v56.802c12.303-6.104,23.624-13.887,33.621-23.093v-44.201
		C231.136,166.715,197.173,132.751,155.275,132.751z"/>
	<path fill="#D11A6F" d="M169.481,53.913c0,13.754,8.475,26.06,21.808,34.269c2.997,1.845,11.411,6.453-0.308,18.527
		c13.377,0,13.818-11.955,19.387-10.554c6.341,1.597,13.143,2.51,20.236,2.51c37.286,0,61.123-23.206,61.123-44.752
		c0-24.719-27.365-44.761-61.123-44.761S169.481,29.194,169.481,53.913z"/>
	<g>
		<path fill="#FFFFFF" d="M223.392,81.075c0.207-3.649,2.893-6.15,6.445-5.948c3.545,0.2,5.73,2.978,5.522,6.628
			c-0.202,3.554-2.69,6.155-6.444,5.942C225.462,87.501,223.19,84.629,223.392,81.075z M226.745,66.813l1.348-48.885l9.74,0.553
			l-4.189,48.724L226.745,66.813z"/>
	</g>
</g>
</svg>
