<?xml version="1.0" encoding="utf-8"?>
<!-- Generator: Adobe Illustrator 16.0.0, SVG Export Plug-In . SVG Version: 6.00 Build 0)  -->
<!DOCTYPE svg PUBLIC "-//W3C//DTD SVG 1.1//EN" "http://www.w3.org/Graphics/SVG/1.1/DTD/svg11.dtd">
<svg version="1.1" id="Calque_1" xmlns="http://www.w3.org/2000/svg" xmlns:xlink="http://www.w3.org/1999/xlink" x="0px" y="0px"
	 width="242.667px" height="299.991px" viewBox="0 0 242.667 299.991" enable-background="new 0 0 242.667 299.991"
	 xml:space="preserve">
<g>
	<path fill-rule="evenodd" clip-rule="evenodd" fill="#00AEEF" d="M130.118,8.263c44.16,0,107.492,44.825,104.477,100.529
		c-4.665,86.167-50.182,75.395-49.995,112.016c0.265,52.232,19.651,52.771,5.114,59.596c-12.074,5.666-76.009,15.967-89.752,8.975
		c-9.88-5.027-7.724-4.666-8.618-22.977c-0.456-9.387-1.08-30.52-23.337-29.801c-22.256,0.721-45.593-2.873-35.899-19.387
		s-8.613-16.156-8.977-23.695c-0.359-7.539,7.18-4.313,6.822-8.26c-0.357-3.945-8.979-4.666-9.336-9.33
		c-0.357-4.668,8.617-11.129,8.617-18.311c0-9.645-22.8,1.252-21.184-8.979c2.41-15.273,9.868-11.33,19.027-29.283
		c7.062-13.836,4.672-21.693,4.672-39.646C31.75,61.759,54.004,8.263,130.118,8.263z"/>
	<g>
		<path fill="#FBB040" d="M136.295,152.649c-1.614-0.015-3.062-0.998-3.67-2.494c-2.72-6.692-10.41-14.199-18.552-22.146
			c-13.452-13.13-28.699-28.012-28.699-46.096c0-16.521,13.439-29.961,29.959-29.961c7.885,0,15.437,3.15,20.998,8.605
			c5.561-5.455,13.113-8.605,21-8.605c16.52,0,29.96,13.44,29.96,29.961c0,15.213-15.336,31.361-28.867,45.608
			c-8.146,8.576-15.839,16.677-18.415,22.701c-0.63,1.473-2.078,2.427-3.678,2.427C136.319,152.649,136.307,152.649,136.295,152.649
			z"/>
		<path fill="#FFFFFF" d="M157.331,55.953c14.337,0,25.96,11.624,25.96,25.961c0,22.416-39.677,49.707-46.96,66.736
			c-7.703-18.951-46.957-39.678-46.957-66.736c0-14.337,11.621-25.961,25.959-25.961c8.632,0,16.279,4.219,20.998,10.706
			C141.05,60.171,148.696,55.953,157.331,55.953 M157.331,47.953c-7.676,0-15.072,2.632-21,7.29
			c-5.927-4.658-13.322-7.29-20.998-7.29c-18.725,0-33.959,15.235-33.959,33.961c0,19.77,15.887,35.277,29.905,48.958
			c7.834,7.647,15.234,14.871,17.641,20.79c1.216,2.991,4.11,4.958,7.339,4.987c0.024,0,0.049,0,0.072,0
			c3.2,0,6.096-1.907,7.355-4.854c2.294-5.364,10.094-13.577,17.638-21.52c14.046-14.79,29.967-31.552,29.967-48.362
			C191.291,63.188,176.057,47.953,157.331,47.953L157.331,47.953z"/>
	</g>
</g>
</svg>
