<?xml version="1.0" encoding="utf-8"?>
<!-- Generator: Adobe Illustrator 16.0.0, SVG Export Plug-In . SVG Version: 6.00 Build 0)  -->
<!DOCTYPE svg PUBLIC "-//W3C//DTD SVG 1.1//EN" "http://www.w3.org/Graphics/SVG/1.1/DTD/svg11.dtd">
<svg version="1.1" id="Calque_1" xmlns="http://www.w3.org/2000/svg" xmlns:xlink="http://www.w3.org/1999/xlink" x="0px" y="0px"
	 width="224px" height="299.991px" viewBox="0 0 224 299.991" enable-background="new 0 0 224 299.991" xml:space="preserve">
<g>
	<g>
		<circle fill="#FAA61A" cx="112.001" cy="61.063" r="52.798"/>
		<path fill="#FAA61A" d="M134.76,124.786H89.244c-44.248,0-80.113,35.865-80.113,80.111v46.676
			c10.315,9.496,21.953,17.574,34.595,23.955v-59.553c0-2.85,2.304-5.164,5.16-5.164c2.858,0,5.161,2.314,5.161,5.164v64.262
			c17.863,7.381,37.423,11.49,57.954,11.49c20.184,0,39.428-3.953,57.043-11.102v-64.65c0-2.85,2.307-5.164,5.158-5.164
			c2.855,0,5.162,2.314,5.162,5.164v59.984c12.994-6.445,24.949-14.664,35.506-24.387v-46.676
			C214.87,160.651,179.004,124.786,134.76,124.786z"/>
	</g>
	<g>
		<path fill="#D11A6F" d="M111.978,83.794c-1.009-0.009-1.914-0.624-2.293-1.559c-1.371-3.372-5.311-7.218-9.482-11.29
			C93.193,64.105,85.25,56.352,85.25,46.829c0-8.771,7.136-15.907,15.906-15.907c4.043,0,7.923,1.561,10.844,4.278
			c2.92-2.717,6.799-4.278,10.845-4.278c8.771,0,15.908,7.136,15.908,15.907c0,8.03-7.983,16.436-15.026,23.852
			c-4.18,4.4-8.127,8.557-9.427,11.597c-0.394,0.921-1.299,1.517-2.299,1.517C111.993,83.794,111.986,83.794,111.978,83.794z"/>
		<path fill="#FFFFFF" d="M122.844,33.421c7.404,0,13.408,6.003,13.408,13.407c0,11.577-20.492,25.671-24.252,34.466
			c-3.979-9.787-24.251-20.491-24.251-34.466c0-7.404,6.002-13.407,13.406-13.407c4.459,0,8.406,2.179,10.845,5.529
			C114.436,35.6,118.385,33.421,122.844,33.421 M122.844,28.421c-3.933,0-7.729,1.274-10.845,3.544
			c-3.117-2.271-6.913-3.544-10.844-3.544c-10.149,0-18.406,8.257-18.406,18.407c0,10.576,8.344,18.721,15.707,25.907
			c3.804,3.713,7.738,7.553,8.913,10.442c0.76,1.87,2.569,3.099,4.587,3.117c0.015,0,0.03,0,0.045,0c2,0,3.81-1.193,4.597-3.035
			c1.123-2.626,5.097-6.811,8.94-10.857c7.365-7.755,15.714-16.545,15.714-25.574C141.252,36.679,132.995,28.421,122.844,28.421
			L122.844,28.421z"/>
	</g>
</g>
</svg>
