<?xml version="1.0" encoding="utf-8"?>
<!-- Generator: Adobe Illustrator 16.0.0, SVG Export Plug-In . SVG Version: 6.00 Build 0)  -->
<!DOCTYPE svg PUBLIC "-//W3C//DTD SVG 1.1//EN" "http://www.w3.org/Graphics/SVG/1.1/DTD/svg11.dtd">
<svg version="1.1" id="Calque_1" xmlns="http://www.w3.org/2000/svg" xmlns:xlink="http://www.w3.org/1999/xlink" x="0px" y="0px"
	 width="300px" height="261.825px" viewBox="0 0 300 261.825" enable-background="new 0 0 300 261.825" xml:space="preserve">
<g>
	<path d="M170.387,60.743c0,30.297-24.562,81.322-54.859,81.322c-30.305,0-54.863-51.025-54.863-81.322
		c0-30.298,24.559-54.861,54.863-54.861C145.825,5.881,170.387,30.445,170.387,60.743z"/>
	<path d="M29.266,248.26c-7.52,0-18.082-12.613-19.668-22.846c-1.832-11.785-1.711-37.662,0-43.041
		c2.469-7.762,19.668-30.43,32.016-32.9c9.688-1.939,25.051-1.41,29.637-1.41s22.227,20.109,44.805,20.109
		c22.582,0,34.574-22.227,40.925-22.227c6.352,0,10.586,0,13.762,0c3.172,0,3.879,0.705,3.879,4.234c0,3.527,0,13.053,0,15.17
		s-1.586,5.115-5.293,5.645v77.617C169.328,248.612,31.032,248.26,29.266,248.26z"/>
	<path fill="#BCBEC0" d="M286.934,175.934h-7.293c0-8.467,0.121-15.645-0.941-24.928c-1.41-12.348-10.539-39.284-42.215-39.284
		c-25.402,0-40.109,19.874-42.457,37.399c-1.246,9.283-1.176,19.287-1.176,26.813h-7.426c-2.656,0-4.805,2.15-4.805,4.807v70.402
		c0,2.65,2.148,4.801,4.805,4.801h101.508c2.648,0,4.797-2.15,4.797-4.801v-70.402C291.73,178.084,289.582,175.934,286.934,175.934z
		 M242.715,208.336v29.928h-11.996v-30.258c-2.695-1.939-4.465-5.094-4.465-8.672c0-5.908,4.785-10.699,10.699-10.699
		s10.699,4.791,10.699,10.699C247.652,203.122,245.68,206.43,242.715,208.336z M266.941,171.823
		c-0.117,1.389-0.094,2.756-0.188,4.111h-61.453c-0.094-1.361-0.133-2.717-0.215-4.111c-1.656-27.166,7.762-46.924,32.215-46.924
		C259.648,124.898,269.051,147.004,266.941,171.823z"/>
</g>
</svg>
