<?xml version="1.0" encoding="utf-8"?>
<!-- Generator: Adobe Illustrator 16.0.0, SVG Export Plug-In . SVG Version: 6.00 Build 0)  -->
<!DOCTYPE svg PUBLIC "-//W3C//DTD SVG 1.1//EN" "http://www.w3.org/Graphics/SVG/1.1/DTD/svg11.dtd">
<svg version="1.1" id="Calque_1" xmlns="http://www.w3.org/2000/svg" xmlns:xlink="http://www.w3.org/1999/xlink" x="0px" y="0px"
	 width="224px" height="299.991px" viewBox="0 0 224 299.991" enable-background="new 0 0 224 299.991" xml:space="preserve">
<g>
	<g>
		<circle fill="#FAA61A" cx="112" cy="61.063" r="52.799"/>
		<path fill="#FAA61A" d="M134.76,124.786H89.243c-44.246,0-80.111,35.865-80.111,80.111v46.676
			c10.314,9.496,21.951,17.574,34.594,23.955v-59.553c0-2.85,2.305-5.164,5.16-5.164c2.857,0,5.162,2.314,5.162,5.164v64.262
			c17.861,7.381,37.422,11.49,57.953,11.49c20.184,0,39.428-3.953,57.043-11.102v-64.65c0-2.85,2.307-5.164,5.158-5.164
			c2.857,0,5.164,2.314,5.164,5.164v59.984c12.992-6.445,24.947-14.664,35.504-24.387v-46.676
			C214.87,160.651,179.004,124.786,134.76,124.786z"/>
	</g>
	<g>
		<g>
			<path fill="#D11A6F" d="M105.25,68.992c-0.659,0-1.265-0.393-1.527-1.012l-1.288-3.041c-1.317-0.01-2.617-0.157-3.879-0.439
				l-1.935,2.656c-0.319,0.438-0.822,0.683-1.342,0.683c-0.193,0-0.388-0.034-0.577-0.104c-3.939-1.462-7.388-3.975-9.973-7.266
				c-0.459-0.584-0.474-1.402-0.036-2.002l1.936-2.656c-0.416-0.705-0.783-1.432-1.098-2.174c-0.306-0.725-0.569-1.483-0.785-2.267
				l-3.256-0.454c-0.735-0.103-1.313-0.681-1.415-1.417c-0.572-4.147,0.018-8.374,1.704-12.224c0.267-0.609,0.868-0.993,1.519-0.993
				c0.076,0,0.153,0.005,0.23,0.016l3.255,0.454c0.682-1.113,1.488-2.156,2.408-3.118l-1.287-3.042
				c-0.29-0.684-0.089-1.478,0.491-1.942c1.655-1.325,3.453-2.403,5.343-3.203c1.89-0.799,3.915-1.338,6.021-1.604
				c0.07-0.009,0.14-0.013,0.209-0.013c0.659,0,1.265,0.393,1.527,1.013l1.287,3.042c1.315,0.01,2.616,0.157,3.881,0.439
				l1.935-2.657c0.319-0.438,0.822-0.683,1.342-0.683c0.193,0,0.388,0.034,0.577,0.104c3.943,1.464,7.391,3.979,9.972,7.27
				c0.458,0.584,0.473,1.401,0.036,2l-1.936,2.658c0.416,0.706,0.782,1.433,1.095,2.172c0.308,0.723,0.571,1.483,0.788,2.27
				l3.257,0.455c0.735,0.103,1.313,0.682,1.414,1.417c0.57,4.146-0.021,8.373-1.708,12.224c-0.267,0.609-0.867,0.993-1.519,0.993
				c-0.076,0-0.153-0.005-0.23-0.016l-3.256-0.456c-0.683,1.113-1.486,2.155-2.404,3.114l1.287,3.041
				c0.289,0.684,0.089,1.477-0.49,1.941c-1.656,1.327-3.455,2.405-5.347,3.205c-1.891,0.8-3.916,1.339-6.02,1.603
				C105.387,68.988,105.318,68.992,105.25,68.992z M102.606,40.293c-0.818,0-1.619,0.164-2.381,0.486
				c-3.104,1.314-4.563,4.91-3.249,8.016c0.96,2.269,3.173,3.735,5.637,3.735c0.818,0,1.619-0.164,2.38-0.486
				c1.504-0.637,2.67-1.821,3.284-3.335s0.601-3.177-0.037-4.682C107.281,41.759,105.069,40.293,102.606,40.293z"/>
			<path fill="#FFFFFF" d="M99.967,25.489l1.727,4.08c0.317-0.018,0.634-0.026,0.95-0.026c1.601,0,3.182,0.223,4.699,0.667
				l2.598-3.567c3.592,1.334,6.811,3.635,9.244,6.738l-2.598,3.567c0.604,0.893,1.135,1.854,1.57,2.885
				c0.434,1.021,0.75,2.064,0.973,3.111l4.371,0.611c0.537,3.908-0.045,7.819-1.584,11.332l-4.371-0.611
				c-0.883,1.681-2.064,3.208-3.486,4.521l1.727,4.08c-1.477,1.184-3.125,2.198-4.955,2.972c-1.826,0.772-3.701,1.249-5.58,1.484
				l-1.727-4.078c-0.315,0.017-0.63,0.026-0.945,0.026c-1.602,0-3.185-0.223-4.702-0.667l-2.598,3.566
				c-3.594-1.334-6.811-3.635-9.246-6.735l2.6-3.566c-0.605-0.895-1.137-1.856-1.574-2.889c-0.432-1.021-0.746-2.061-0.969-3.107
				l-4.371-0.609c-0.539-3.911,0.043-7.822,1.58-11.331l4.369,0.609c0.885-1.684,2.068-3.21,3.49-4.524l-1.727-4.08
				c1.479-1.184,3.127-2.197,4.953-2.971C96.215,26.202,98.09,25.726,99.967,25.489 M102.613,54.189c1.01,0,2.038-0.198,3.026-0.617
				c3.955-1.674,5.803-6.236,4.129-10.191c-1.254-2.965-4.132-4.748-7.162-4.748c-1.011,0-2.038,0.198-3.027,0.617
				c-3.955,1.674-5.803,6.236-4.131,10.19C96.703,52.407,99.583,54.189,102.613,54.189 M99.969,22.17
				c-0.138,0-0.278,0.009-0.417,0.026c-2.257,0.285-4.43,0.865-6.458,1.722c-2.033,0.861-3.961,2.017-5.735,3.437
				c-1.16,0.929-1.562,2.516-0.982,3.884l0.874,2.065c-0.458,0.533-0.885,1.085-1.281,1.658l-2.211-0.308
				c-0.154-0.021-0.308-0.032-0.46-0.032c-1.303,0-2.504,0.768-3.038,1.987c-1.81,4.13-2.441,8.665-1.828,13.116
				c0.203,1.471,1.358,2.628,2.83,2.833l2.208,0.308c0.161,0.482,0.339,0.954,0.533,1.414c0.202,0.476,0.423,0.946,0.663,1.408
				l-1.313,1.801c-0.875,1.2-0.846,2.836,0.072,4.004c2.774,3.532,6.475,6.228,10.701,7.797c0.377,0.14,0.768,0.208,1.154,0.208
				c1.039,0,2.045-0.489,2.684-1.365l1.313-1.803c0.674,0.111,1.356,0.188,2.044,0.23l0.875,2.066
				c0.524,1.238,1.736,2.025,3.055,2.025c0.137,0,0.275-0.009,0.414-0.026c2.255-0.283,4.429-0.861,6.46-1.721
				c2.032-0.859,3.963-2.016,5.737-3.439c1.159-0.929,1.56-2.515,0.981-3.883l-0.874-2.065c0.455-0.531,0.882-1.083,1.276-1.654
				l2.212,0.31c0.154,0.021,0.309,0.032,0.462,0.032c1.302,0,2.504-0.768,3.038-1.987c1.81-4.131,2.443-8.667,1.832-13.116
				c-0.202-1.472-1.357-2.629-2.828-2.835l-2.21-0.309c-0.163-0.486-0.343-0.961-0.539-1.424c-0.199-0.471-0.418-0.938-0.657-1.399
				l1.313-1.803c0.874-1.2,0.845-2.833-0.071-4.001c-2.771-3.533-6.47-6.23-10.7-7.801c-0.378-0.141-0.769-0.208-1.154-0.208
				c-1.039,0-2.045,0.489-2.684,1.365l-1.314,1.805c-0.675-0.112-1.357-0.188-2.044-0.231l-0.875-2.067
				C102.5,22.957,101.288,22.17,99.969,22.17L99.969,22.17z M102.613,50.871c-1.796,0-3.409-1.069-4.109-2.724
				c-0.957-2.263,0.105-4.883,2.368-5.841c0.556-0.235,1.139-0.354,1.734-0.354c1.795,0,3.406,1.068,4.105,2.722
				c0.465,1.098,0.474,2.31,0.027,3.413s-1.297,1.966-2.393,2.43C103.79,50.751,103.207,50.871,102.613,50.871L102.613,50.871z"/>
		</g>
		<g>
			<path fill="#D11A6F" d="M130.969,86.093c-1.817,0-3.614-0.273-5.343-0.813c-0.765-0.239-1.25-0.991-1.151-1.787l0.305-2.477
				c-1.638-0.794-3.106-1.895-4.331-3.247l-2.329,0.971c-0.208,0.086-0.424,0.128-0.638,0.128c-0.542,0-1.066-0.266-1.383-0.74
				c-1.269-1.907-2.148-4.007-2.615-6.24c-0.163-0.779,0.251-1.564,0.985-1.871l2.324-0.969c-0.015-0.271-0.022-0.543-0.022-0.815
				c0-1.623,0.271-3.205,0.806-4.719l-1.959-1.506c-0.641-0.493-0.833-1.376-0.455-2.091c0.954-1.805,2.194-3.419,3.687-4.798
				c0.316-0.292,0.721-0.44,1.126-0.44c0.355,0,0.712,0.114,1.012,0.344l1.95,1.5c1.552-1.067,3.293-1.812,5.134-2.194l0.307-2.471
				c0.098-0.794,0.749-1.405,1.548-1.453c0.346-0.021,0.694-0.033,1.044-0.033c1.743,0,3.474,0.254,5.144,0.755
				c0.774,0.233,1.269,0.99,1.169,1.792l-0.3,2.44c1.731,0.806,3.277,1.951,4.557,3.375l2.31-0.963
				c0.207-0.087,0.424-0.128,0.638-0.128c0.543,0,1.068,0.267,1.384,0.743c1.268,1.911,2.142,4.014,2.601,6.25
				c0.159,0.777-0.255,1.559-0.987,1.865l-2.322,0.968c0.014,0.256,0.021,0.511,0.021,0.763c0,1.639-0.275,3.233-0.819,4.757
				l1.945,1.496c0.641,0.493,0.833,1.376,0.455,2.091c-0.95,1.796-2.193,3.409-3.695,4.794c-0.316,0.292-0.721,0.439-1.125,0.439
				c-0.355,0-0.712-0.114-1.012-0.344l-1.949-1.499c-1.603,1.097-3.403,1.847-5.309,2.213l-0.301,2.437
				c-0.099,0.803-0.762,1.417-1.569,1.455C131.525,86.085,131.25,86.093,130.969,86.093z M130.975,64.494
				c-2.062,0-3.739,1.678-3.739,3.739c0,2.063,1.678,3.74,3.739,3.74c2.063,0,3.741-1.678,3.741-3.74
				C134.716,66.171,133.038,64.494,130.975,64.494z"/>
			<path fill="#FFFFFF" d="M130.969,52.031c1.623,0,3.189,0.242,4.666,0.686l-0.455,3.696c2.357,0.838,4.391,2.359,5.859,4.328
				l3.447-1.438c1.123,1.694,1.936,3.608,2.357,5.667l-3.455,1.44c0.086,0.595,0.133,1.204,0.133,1.822
				c0,1.896-0.424,3.69-1.176,5.301l2.949,2.268c-0.865,1.636-2.004,3.105-3.354,4.35l-2.951-2.269
				c-1.883,1.566-4.232,2.591-6.811,2.837l-0.455,3.695c-0.252,0.012-0.502,0.02-0.756,0.02c-1.689,0-3.316-0.26-4.848-0.738
				l0.457-3.712c-2.26-0.847-4.209-2.323-5.635-4.219l-3.463,1.443c-1.125-1.69-1.943-3.604-2.373-5.66l3.461-1.442
				c-0.092-0.611-0.139-1.236-0.139-1.873c0-1.881,0.418-3.663,1.158-5.265l-2.959-2.275c0.865-1.637,1.998-3.109,3.346-4.354
				l2.955,2.271c1.838-1.538,4.125-2.56,6.635-2.841l0.459-3.708C130.336,52.042,130.653,52.031,130.969,52.031 M130.975,73.632
				c2.982,0,5.4-2.419,5.4-5.399c0-2.981-2.418-5.398-5.4-5.398s-5.398,2.417-5.398,5.398
				C125.577,71.213,127.993,73.632,130.975,73.632 M130.969,48.712c-0.359,0-0.732,0.012-1.142,0.036
				c-1.599,0.095-2.9,1.317-3.098,2.905l-0.165,1.34c-1.235,0.356-2.421,0.862-3.534,1.508l-1.033-0.794
				c-0.599-0.46-1.312-0.687-2.021-0.688c-0.812,0-1.62,0.296-2.253,0.881c-1.631,1.506-2.985,3.27-4.027,5.241
				c-0.756,1.43-0.371,3.196,0.91,4.182l1.044,0.802c-0.334,1.243-0.514,2.521-0.536,3.825l-1.282,0.534
				c-1.47,0.613-2.298,2.183-1.972,3.742c0.51,2.441,1.472,4.736,2.859,6.82c0.631,0.948,1.681,1.48,2.764,1.48
				c0.428,0,0.861-0.083,1.275-0.256l1.292-0.538c0.893,0.849,1.881,1.59,2.944,2.21l-0.166,1.347
				c-0.195,1.591,0.773,3.095,2.304,3.573c1.889,0.59,3.853,0.89,5.838,0.89c0.306,0,0.606-0.009,0.91-0.023
				c1.615-0.075,2.941-1.304,3.14-2.909l0.158-1.288c1.298-0.355,2.542-0.874,3.708-1.546l1.034,0.795
				c0.599,0.46,1.312,0.688,2.021,0.688c0.811,0,1.618-0.295,2.25-0.879c1.642-1.513,3-3.275,4.038-5.238
				c0.756-1.43,0.371-3.197-0.911-4.183l-1.026-0.79c0.336-1.238,0.519-2.512,0.546-3.812l1.284-0.536
				c1.465-0.611,2.292-2.174,1.974-3.729c-0.501-2.446-1.457-4.745-2.842-6.834c-0.631-0.951-1.682-1.485-2.768-1.485
				c-0.428,0-0.861,0.083-1.276,0.256l-1.267,0.528c-0.956-0.916-2.021-1.706-3.173-2.355l0.159-1.292
				c0.197-1.605-0.791-3.119-2.34-3.583C134.765,48.99,132.874,48.712,130.969,48.712L130.969,48.712z M130.975,70.313
				c-1.146,0-2.08-0.933-2.08-2.081c0-1.147,0.934-2.08,2.08-2.08c1.147,0,2.082,0.933,2.082,2.08
				C133.057,69.38,132.123,70.313,130.975,70.313L130.975,70.313z"/>
		</g>
	</g>
</g>
</svg>
