<?xml version="1.0" encoding="utf-8"?>
<!-- Generator: Adobe Illustrator 16.0.0, SVG Export Plug-In . SVG Version: 6.00 Build 0)  -->
<!DOCTYPE svg PUBLIC "-//W3C//DTD SVG 1.1//EN" "http://www.w3.org/Graphics/SVG/1.1/DTD/svg11.dtd">
<svg version="1.1" id="Calque_1" xmlns="http://www.w3.org/2000/svg" xmlns:xlink="http://www.w3.org/1999/xlink" x="0px" y="0px"
	 width="224px" height="299.991px" viewBox="0 0 224 299.991" enable-background="new 0 0 224 299.991" xml:space="preserve">
<g>
	<g>
		<circle fill="#92278F" cx="112" cy="61.063" r="52.799"/>
		<path fill="#92278F" d="M134.76,124.786H89.243c-44.246,0-80.111,35.865-80.111,80.111v46.676
			c10.314,9.496,21.951,17.574,34.594,23.955v-59.553c0-2.85,2.305-5.164,5.16-5.164c2.857,0,5.162,2.314,5.162,5.164v64.262
			c17.861,7.381,37.422,11.49,57.953,11.49c20.184,0,39.428-3.953,57.043-11.102v-64.65c0-2.85,2.307-5.164,5.158-5.164
			c2.857,0,5.164,2.314,5.164,5.164v59.984c12.992-6.445,24.947-14.664,35.504-24.387v-46.676
			C214.87,160.651,179.004,124.786,134.76,124.786z"/>
	</g>
	<g>
		<path fill-rule="evenodd" clip-rule="evenodd" fill="#8DC63F" d="M92.395,77.635c-1.104,0-2-0.896-2-2v-8.192c0-1.104,0.896-2,2-2
			h13.959L95.389,40.086c-0.267-0.618-0.205-1.33,0.165-1.892c0.37-0.563,0.998-0.902,1.671-0.902h7.154
			c0.798,0,1.519,0.474,1.836,1.206l0.711,1.645V15.932c0-1.104,0.896-2,2-2h6.092c1.104,0,2,0.896,2,2V40.14l0.709-1.641
			c0.316-0.732,1.038-1.207,1.836-1.207h7.156c0.674,0,1.302,0.339,1.672,0.902c0.369,0.563,0.431,1.274,0.164,1.892l-10.964,25.356
			h14.015c1.104,0,2,0.896,2,2v8.192c0,1.104-0.896,2-2,2H92.395z"/>
		<path fill="#FFFFFF" d="M115.018,15.932v33.877l4.545-10.517h7.156l-11.16,25.812c-0.457,0.95-1.025,1.805-1.785,2.339h17.832
			v8.192H92.395v-8.192h17.723c-0.775-0.526-1.352-1.368-1.732-2.339l-11.16-25.812h7.154l4.547,10.517V15.932H115.018
			 M115.018,11.932h-6.092c-2.209,0-4,1.791-4,4V35.33c-0.18-0.025-0.362-0.038-0.547-0.038h-7.154
			c-1.347,0-2.604,0.678-3.343,1.803c-0.74,1.126-0.863,2.548-0.329,3.784l9.755,22.563H92.395c-2.209,0-4,1.791-4,4v8.192
			c0,2.209,1.791,4,4,4h39.211c2.209,0,4-1.791,4-4v-8.192c0-2.209-1.791-4-4-4h-10.971l9.756-22.563
			c0.534-1.236,0.41-2.658-0.329-3.784c-0.739-1.125-1.996-1.803-3.343-1.803h-7.156c-0.184,0-0.366,0.013-0.545,0.037V15.932
			C119.018,13.723,117.227,11.932,115.018,11.932L115.018,11.932z"/>
	</g>
</g>
</svg>
