<?xml version="1.0" encoding="utf-8"?>
<!-- Generator: Adobe Illustrator 16.0.0, SVG Export Plug-In . SVG Version: 6.00 Build 0)  -->
<!DOCTYPE svg PUBLIC "-//W3C//DTD SVG 1.1//EN" "http://www.w3.org/Graphics/SVG/1.1/DTD/svg11.dtd">
<svg version="1.1" id="Calque_1" xmlns="http://www.w3.org/2000/svg" xmlns:xlink="http://www.w3.org/1999/xlink" x="0px" y="0px"
	 width="165.541px" height="299.99px" viewBox="0 0 165.541 299.99" enable-background="new 0 0 165.541 299.99"
	 xml:space="preserve">
<g>
	<g>
		<path fill="#ED1C24" d="M107.065,70.01c17.053,0,30.875-13.825,30.875-30.876c0-17.049-13.822-30.87-30.875-30.87
			c-17.051,0-30.872,13.821-30.872,30.87C76.194,56.185,90.015,70.01,107.065,70.01z"/>
		<path fill="#ED1C24" d="M36.959,218.447c15.33,4.186,31.15-4.848,35.338-20.184l24.94-91.375
			c4.184-15.333-4.852-31.15-20.184-35.334l-7.063-1.928c-15.326-4.185-31.149,4.849-35.334,20.182L9.715,181.184
			c-4.185,15.336,4.854,31.152,20.182,35.337L36.959,218.447z"/>
		<path fill="#ED1C24" d="M76.5,99.152c-3.338-5.33-1.721-12.356,3.622-15.695l0,0c5.329-3.334,12.356-1.713,15.691,3.618
			l42.088,67.47c3.339,5.334,1.721,12.359-3.613,15.695l0,0c-5.336,3.335-12.363,1.711-15.697-3.622L76.5,99.152z"/>
		<path fill="#ED1C24" d="M124.278,80.361c0.568-6.264,6.108-10.878,12.381-10.305l0,0c6.26,0.572,10.872,6.115,10.303,12.377
			l-7.325,79.183c-0.571,6.267-6.11,10.882-12.376,10.309l0,0c-6.266-0.575-10.879-6.12-10.305-12.384L124.278,80.361z"/>
		<path fill="#ED1C24" d="M140.23,175.096c7.9-0.844,14.989,4.877,15.834,12.778l0.572,5.366
			c0.845,7.901-4.876,14.991-12.776,15.835l-97.277,10.392c-7.899,0.844-14.989-4.877-15.833-12.777l-0.574-5.367
			c-0.844-7.9,4.878-14.99,12.778-15.834L140.23,175.096z"/>
		<path fill="#ED1C24" d="M156.849,277.285c0.025,7.941-6.395,14.402-14.344,14.426l-5.397,0.016
			c-7.944,0.023-14.405-6.396-14.43-14.342l-0.249-86.633c-0.021-7.947,6.398-14.411,14.346-14.435l5.4-0.014
			c7.943-0.026,14.405,6.397,14.426,14.344L156.849,277.285z"/>
	</g>
	<g>
		<path fill="#662D91" d="M98.004,48.933c-0.726,0-1.378-0.352-1.791-0.966c-0.319-0.476-0.479-1.078-0.473-1.698
			c-0.463-0.275-0.884-0.666-1.219-1.086c-2.933-0.525-4.388-1.979-5.098-3.139c-0.86-1.405-1.121-3.213-0.751-4.996
			c-0.625-0.399-1.133-0.958-1.497-1.654c-0.732-1.398-0.844-3.313-0.308-5.163c-0.129-2.474,0.845-4.654,2.593-5.854
			c0.475-1.331,1.776-2.861,3.778-3.211c1.043-2.667,3.648-4.287,7.002-4.287c0.124,0,0.248,0.002,0.373,0.006
			c1.069-0.872,2.539-1.346,4.205-1.346c1.566,0,3.015,0.436,3.974,1.157c0.487-0.168,1.013-0.252,1.571-0.252
			c1.763,0,3.528,0.846,4.642,1.766c3.756,0.432,6.129,2.491,7.166,4.348c1.623,0.655,3.744,2.52,4.268,5.228
			c2.723,3.311,2.065,5.779,0.86,7.771c0.134,0.793-0.008,1.574-0.418,2.289c-0.744,1.297-2.145,2.025-3.133,2.34
			c-0.692,0.859-2.129,1.608-3.988,1.608c-0.491,0-0.989-0.053-1.489-0.159c-1.294,2.162-3.313,3.297-5.894,3.297
			c-2.29,0-4.572-0.902-6.232-1.903c-0.638,1.138-1.318,1.521-2.303,1.783c-0.584,0.155-1.188,0.316-2.318,1.75
			C100.267,48.157,99.115,48.933,98.004,48.933L98.004,48.933z"/>
		<path fill="#FFFFFF" d="M104.819,16.744c1.603,0,3.134,0.542,3.729,1.395c0.555-0.348,1.179-0.491,1.815-0.491
			c1.602,0,3.281,0.905,4.136,1.722c3.804,0.31,6.07,2.471,6.819,4.173c1.394,0.334,3.632,2.165,3.986,4.766
			c2.89,3.34,1.731,5.484,0.702,7.037c0.743,2.179-1.734,3.537-3.025,3.799c-0.205,0.576-1.426,1.445-3.222,1.445
			c-0.636,0-1.344-0.109-2.104-0.378c-1.18,2.623-3.186,3.516-5.278,3.516c-2.577,0-5.285-1.356-6.739-2.504
			c-1.479,3.947-2.159,0.91-5.061,4.594c-1.11,1.409-1.97,1.914-2.573,1.914c-0.975,0-1.282-1.315-0.896-2.264
			c-0.017,0.001-0.032,0.001-0.049,0.001c-0.569,0-1.361-0.598-1.853-1.394c-5.413-0.72-6.123-4.804-5.104-7.68
			c-2.379-0.727-2.775-3.655-2.02-6.021c-0.19-2.385,0.82-4.342,2.408-5.217c0.183-0.966,1.325-2.859,3.611-2.858
			c0.013,0,0.024,0,0.037,0c0.707-2.824,3.187-4.213,6.101-4.213c0.266,0,0.536,0.012,0.808,0.035
			C101.985,17.151,103.429,16.743,104.819,16.744 M104.819,14.335L104.819,14.335c-1.767,0-3.359,0.469-4.6,1.339
			c-3.615,0.006-6.484,1.672-7.839,4.447c-2.013,0.574-3.298,2.104-3.904,3.483c-1.858,1.435-2.902,3.813-2.819,6.487
			c-0.557,2.083-0.396,4.245,0.451,5.862c0.33,0.628,0.752,1.17,1.254,1.614c-0.227,1.83,0.125,3.62,1.034,5.106
			c0.805,1.316,2.398,2.947,5.487,3.613c0.211,0.227,0.445,0.446,0.699,0.645c0.084,0.622,0.297,1.212,0.631,1.709
			c0.64,0.952,1.657,1.498,2.791,1.498c1.503,0,2.964-0.926,4.465-2.831c0.882-1.12,1.253-1.218,1.682-1.332
			c0.919-0.244,1.681-0.603,2.355-1.375c1.688,0.856,3.772,1.535,5.871,1.535c2.706,0,4.944-1.118,6.465-3.189
			c0.307,0.035,0.613,0.052,0.918,0.052c1.888,0,3.641-0.699,4.681-1.776c1.311-0.488,2.716-1.437,3.485-2.777
			c0.464-0.808,0.671-1.704,0.614-2.608c0.957-1.679,2.043-4.723-0.985-8.584c-0.624-2.63-2.578-4.724-4.556-5.652
			c-1.25-1.963-3.748-4.008-7.515-4.542c-1.3-0.974-3.209-1.817-5.121-1.817c-0.472,0-0.925,0.049-1.359,0.146
			C107.731,14.631,106.141,14.335,104.819,14.335L104.819,14.335L104.819,14.335z"/>
	</g>
</g>
</svg>
