<?xml version="1.0" encoding="utf-8"?>
<!-- Generator: Adobe Illustrator 16.0.0, SVG Export Plug-In . SVG Version: 6.00 Build 0)  -->
<!DOCTYPE svg PUBLIC "-//W3C//DTD SVG 1.1//EN" "http://www.w3.org/Graphics/SVG/1.1/DTD/svg11.dtd">
<svg version="1.1" id="Calque_1" xmlns="http://www.w3.org/2000/svg" xmlns:xlink="http://www.w3.org/1999/xlink" x="0px" y="0px"
	 width="224px" height="299.991px" viewBox="0 0 224 299.991" enable-background="new 0 0 224 299.991" xml:space="preserve">
<g>
	<g>
		<circle fill="#FFCB05" cx="112" cy="61.063" r="52.799"/>
		<path fill="#FFCB05" d="M134.76,124.786H89.243c-44.246,0-80.111,35.865-80.111,80.111v46.676
			c10.314,9.496,21.951,17.574,34.594,23.955v-59.553c0-2.85,2.305-5.164,5.16-5.164c2.857,0,5.162,2.314,5.162,5.164v64.262
			c17.861,7.381,37.422,11.49,57.953,11.49c20.184,0,39.428-3.953,57.043-11.102v-64.65c0-2.85,2.307-5.164,5.158-5.164
			c2.857,0,5.164,2.314,5.164,5.164v59.984c12.992-6.445,24.947-14.664,35.504-24.387v-46.676
			C214.87,160.651,179.004,124.786,134.76,124.786z"/>
	</g>
	<g>
		<path fill="#FFFFFF" d="M138.516,38.238c-0.99-1.624-2.795-2.636-4.709-2.636l0,0c-1.016,0-2.01,0.279-2.875,0.809l-4.02,2.461
			l1.959-3.133c1.611-2.585,0.822-5.998-1.756-7.61c-0.879-0.549-1.891-0.839-2.924-0.839l0,0c-1.916,0-3.666,0.967-4.684,2.588
			l-2.016,3.227v-3.292c0-3.045-2.479-5.521-5.523-5.521s-5.521,2.477-5.521,5.521v3.232l-1.922-3.128
			c-1.02-1.649-2.777-2.63-4.709-2.63c-1.021,0-2.02,0.282-2.889,0.816c-2.594,1.597-3.404,5.004-1.813,7.597l1.979,3.219
			l-4.02-2.462c-0.873-0.532-1.867-0.813-2.883-0.813c-1.912,0-3.719,1.013-4.711,2.642c-0.771,1.255-1.006,2.742-0.66,4.18
			c0.348,1.435,1.23,2.646,2.492,3.414l6.723,4.117c0.297,0.183,0.611,0.334,0.936,0.456c-0.764,2.009-1.186,4.185-1.186,6.457
			c0,5.532,2.814,8.973,4.869,11.484c1.359,1.66,2.191,2.729,2.191,3.724c0,1.687,0.35,3.072,0.93,4.182
			c-0.668,0.877-1.025,1.997-0.906,3.178c0.047,0.465,0.164,0.905,0.338,1.314c-0.289,0.675-0.416,1.43-0.338,2.21
			c0.166,1.634,1.178,2.979,2.574,3.63c0.348,2.182,2.209,3.795,4.439,3.795c0.154,0,0.309-0.008,0.463-0.024l8.16-0.823
			c2.252-0.229,3.945-2.088,4.041-4.283c1.715-0.78,2.824-2.585,2.623-4.555c-0.045-0.461-0.162-0.899-0.334-1.307
			c0.295-0.691,0.414-1.449,0.334-2.218c-0.07-0.704-0.301-1.356-0.65-1.922c0.383-1.046,0.607-2.281,0.607-3.72
			c0.057-0.501,1.205-1.911,1.967-2.844c2.178-2.674,5.162-6.335,5.162-11.821c0-2.292-0.43-4.485-1.205-6.509
			c0.316-0.121,0.623-0.269,0.914-0.447l6.73-4.121c1.256-0.768,2.139-1.98,2.482-3.414
			C139.526,40.983,139.29,39.499,138.516,38.238z"/>
	</g>
	<g>
		<path fill="#007DBA" d="M113.922,37.704c0,1.076-0.875,1.951-1.953,1.951l0,0c-1.078,0-1.951-0.875-1.951-1.951v-7.892
			c0-1.077,0.873-1.951,1.951-1.951l0,0c1.078,0,1.953,0.874,1.953,1.951V37.704z"/>
	</g>
	<g>
		<path fill="#007DBA" d="M121.661,40.538c-0.572,0.914-1.773,1.193-2.689,0.62l0,0c-0.912-0.57-1.189-1.774-0.621-2.688
			l4.182-6.693c0.572-0.911,1.777-1.19,2.689-0.62l0,0c0.914,0.572,1.191,1.777,0.621,2.69L121.661,40.538z"/>
	</g>
	<g>
		<path fill="#007DBA" d="M128.1,46.909c-0.92,0.564-2.121,0.275-2.682-0.648l0,0c-0.563-0.914-0.277-2.116,0.645-2.681l6.727-4.122
			c0.92-0.561,2.123-0.271,2.684,0.646l0,0c0.564,0.922,0.275,2.123-0.643,2.685L128.1,46.909z"/>
	</g>
	<g>
		<path fill="#007DBA" d="M102.29,40.553c0.564,0.918,1.766,1.205,2.686,0.64l0,0c0.916-0.563,1.203-1.766,0.639-2.684l-4.131-6.724
			c-0.566-0.916-1.768-1.204-2.686-0.641l0,0c-0.92,0.566-1.203,1.768-0.641,2.686L102.29,40.553z"/>
	</g>
	<g>
		<path fill="#007DBA" d="M95.901,46.952c0.92,0.564,2.117,0.274,2.682-0.648l0,0c0.563-0.914,0.275-2.116-0.645-2.681l-6.729-4.121
			c-0.92-0.562-2.123-0.272-2.682,0.645l0,0c-0.566,0.922-0.277,2.124,0.641,2.685L95.901,46.952z"/>
	</g>
	<g>
		<path fill="#007DBA" d="M119.62,81.103c0.053,0.514-0.32,0.97-0.834,1.023l-13.342,1.354c-0.512,0.052-0.971-0.322-1.023-0.835
			l0,0c-0.051-0.513,0.322-0.971,0.836-1.022l13.34-1.354C119.11,80.216,119.567,80.59,119.62,81.103L119.62,81.103z"/>
	</g>
	<g>
		<path fill="#007DBA" d="M116.983,85.002c0.051,0.513-0.322,0.972-0.834,1.023l-8.168,0.824c-0.514,0.053-0.971-0.32-1.023-0.834
			l0,0c-0.053-0.513,0.322-0.971,0.836-1.023l8.164-0.824C116.471,84.117,116.928,84.489,116.983,85.002L116.983,85.002z"/>
	</g>
	<g>
		<path fill="#007DBA" d="M119.62,77.579c0.053,0.514-0.32,0.971-0.834,1.023l-13.342,1.354c-0.512,0.053-0.971-0.32-1.023-0.835
			l0,0c-0.051-0.513,0.322-0.97,0.836-1.022l13.34-1.354C119.11,76.692,119.567,77.065,119.62,77.579L119.62,77.579z"/>
	</g>
	<g>
		<path fill="#007DBA" d="M97.358,56.91c0-8.099,6.563-14.665,14.662-14.665s14.666,6.566,14.666,14.665
			c0,7.331-7.129,10.66-7.129,14.665c0,3.665-1.832,4.617-2.988,4.617c-1.426,0-6.449,0-8.961,0c-1.697,0-3.191-1.087-3.191-4.074
			C104.417,66.958,97.358,64.645,97.358,56.91z"/>
	</g>
	<g>
		<path fill="#FFFFFF" d="M111.206,45.979c-5.324,0-9.641,4.316-9.641,9.641c0,1.875,2.377,2.045,2.377,0
			c0-4.012,3.252-7.264,7.264-7.264C113.209,48.356,113.301,45.979,111.206,45.979z"/>
	</g>
</g>
</svg>
