<?xml version="1.0" encoding="utf-8"?>
<!-- Generator: Adobe Illustrator 16.0.0, SVG Export Plug-In . SVG Version: 6.00 Build 0)  -->
<!DOCTYPE svg PUBLIC "-//W3C//DTD SVG 1.1//EN" "http://www.w3.org/Graphics/SVG/1.1/DTD/svg11.dtd">
<svg version="1.1" xmlns="http://www.w3.org/2000/svg" xmlns:xlink="http://www.w3.org/1999/xlink" x="0px" y="0px" width="80px"
	 height="60px" viewBox="-7.151 -6.178 80 60" enable-background="new -7.151 -6.178 80 60" xml:space="preserve">
<g id="Calque_2" display="none">
	<rect x="-45.651" y="-46.928" display="inline" fill="#71AA21" width="181.5" height="150.75"/>
</g>
<g id="cafet" display="none">
	<g display="inline">
		<g>
			<path fill="#FFFFFF" d="M34.052-5.057c-15.948,0-28.877,12.929-28.877,28.88c0,15.948,12.929,28.877,28.877,28.877
				s28.88-12.93,28.88-28.877C62.932,7.871,50-5.057,34.052-5.057z M34.255,45.25c-11.704,0-21.224-9.521-21.224-21.224
				c0-11.706,9.521-21.226,21.224-21.226c11.705,0,21.227,9.52,21.227,21.226C55.482,35.729,45.96,45.25,34.255,45.25z"/>
			<path fill="#FFFFFF" d="M34.255,5.25c-10.353,0-18.775,8.422-18.775,18.777c0,10.352,8.422,18.774,18.775,18.774
				c10.354,0,18.777-8.423,18.777-18.774C53.032,13.672,44.61,5.25,34.255,5.25z"/>
		</g>
		<path fill="#FFFFFF" d="M4.715,6.259C4.637,2.011,4.141-0.323,2.342-3.059C2.059-3.49,1.882-3.39,1.629-3.384v9.466
			c0,0.578-0.045,1.044-0.101,1.044H-0.39c-0.055,0-0.101-0.466-0.101-1.044V-5.09c-0.152-0.112-0.357-0.259-0.764-0.259
			c-0.489,0-0.684,0.131-0.869,0.32V6.083c0,0.578-0.045,1.044-0.101,1.044h-1.998c-0.055,0-0.101-0.466-0.101-1.044v-9.467
			c-0.503-0.029-0.701-0.045-1.013,0.533c-1.2,2.221-2.042,5.429-2.042,8.917c0,4.618,1.256,8.515,3.78,9.988v35.895
			c0,0.576,0.466,1.043,1.042,1.043h2.143c0.577,0,1.043-0.467,1.043-1.043V16.177C3.453,14.556,4.771,9.424,4.715,6.259z"/>
		<path fill="#FFFFFF" d="M68.134,1.434c0,0.804-0.038,21.124-0.038,21.89c0,0.507,0.56,0.76,0.939,0.873v27.397
			c0,0.579,0.467,1.045,1.043,1.045h1.951c0.577,0,1.046-0.466,1.046-1.045V23.4V18.27V-4.893
			C72.092-5.866,68.134,0.63,68.134,1.434z"/>
	</g>
</g>
<g id="ecole" display="none">
	<rect x="-7.151" y="50.697" display="inline" fill="#FFFFFF" width="80" height="3.125"/>
	<path display="inline" fill="#FFFFFF" d="M1.349,10.697v37.375H25.12V31.163c-0.008-0.142-0.021-0.281-0.021-0.425
		c0-4.281,3.47-7.751,7.75-7.751s7.75,3.47,7.75,7.751c0,0.144-0.014,0.283-0.021,0.425v16.908h24.021V10.697H1.349z M12.494,45.281
		H5.536v-6.958h6.958V45.281z M12.494,37.281H5.536v-6.958h6.958V37.281z M20.869,45.281h-6.958v-6.958h6.958V45.281z
		 M20.869,37.281h-6.958v-6.958h6.958V37.281z M52.182,45.281h-6.958v-6.958h6.958V45.281z M52.182,37.281h-6.958v-6.958h6.958
		V37.281z M52.443,21.509H13.255v-9.188h39.188V21.509z M60.557,45.281h-6.958v-6.958h6.958V45.281z M60.557,37.281h-6.958v-6.958
		h6.958V37.281z"/>
	<path display="inline" fill="#FFFFFF" d="M32.849,0.603l-10.75,6.594v2.708h21.375V7.197L32.849,0.603z M32.88,8.947
		c-1.691,0-3.063-1.371-3.063-3.063s1.371-3.063,3.063-3.063s3.063,1.371,3.063,3.063S34.572,8.947,32.88,8.947z"/>
	<g display="inline">
		<path fill="#FFFFFF" d="M22.579,17.218h-2.871v2.673h3.212v0.803H18.74v-7.415h4.016v0.803h-3.047v2.343h2.871V17.218z"/>
		<path fill="#FFFFFF" d="M29.334,20.463c-0.341,0.176-1.057,0.352-1.959,0.352c-2.09,0-3.652-1.32-3.652-3.763
			c0-2.332,1.573-3.895,3.873-3.895c0.913,0,1.507,0.198,1.76,0.33l-0.242,0.781c-0.352-0.176-0.869-0.308-1.485-0.308
			c-1.738,0-2.894,1.111-2.894,3.059c0,1.826,1.045,2.981,2.838,2.981c0.594,0,1.188-0.121,1.573-0.308L29.334,20.463z"/>
		<path fill="#FFFFFF" d="M36.649,16.909c0,2.542-1.551,3.906-3.443,3.906c-1.97,0-3.333-1.529-3.333-3.773
			c0-2.354,1.452-3.895,3.432-3.895C35.34,13.147,36.649,14.698,36.649,16.909z M30.884,17.02c0,1.595,0.858,3.014,2.376,3.014
			c1.519,0,2.377-1.397,2.377-3.081c0-1.485-0.771-3.025-2.365-3.025C31.676,13.928,30.884,15.402,30.884,17.02z"/>
		<path fill="#FFFFFF" d="M37.879,13.279h0.968v6.612h3.169v0.803h-4.137V13.279z"/>
		<path fill="#FFFFFF" d="M46.91,17.218h-2.872v2.673h3.213v0.803h-4.181v-7.415h4.016v0.803h-3.048v2.343h2.872V17.218z"/>
	</g>
	<path display="inline" fill="#FFFFFF" d="M32.974,3.603c0-0.052-0.042-0.094-0.094-0.094l0,0c-0.052,0-0.094,0.042-0.094,0.094
		v2.922c0,0.052,0.042,0.094,0.094,0.094l0,0c0.052,0,0.094-0.042,0.094-0.094V3.603z"/>
	<path display="inline" fill="#FFFFFF" d="M34.134,5.397c0.021-0.021,0.01-0.068-0.027-0.105l0,0
		c-0.037-0.037-0.084-0.049-0.105-0.028L32.797,6.47c-0.021,0.021-0.009,0.068,0.027,0.105l0,0c0.037,0.037,0.084,0.049,0.105,0.027
		L34.134,5.397z"/>
	<path display="inline" fill="#FFFFFF" d="M33.108-4.423c0-0.417-0.116-0.756-0.259-0.756l0,0c-0.143,0-0.259,0.339-0.259,0.756
		v5.104c0,0.418,0.116,0.757,0.259,0.757l0,0c0.143,0,0.259-0.339,0.259-0.757V-4.423z"/>
	<rect x="32.786" y="-4.553" display="inline" fill="#FFFFFF" width="5.729" height="3.292"/>
</g>
<g id="Calque_5">
	<rect x="-7.214" y="50.697" fill="#90278E" width="80" height="3.125"/>
	<rect x="-2.776" y="45.759" fill="#90278E" width="71.125" height="3.125"/>
	<path fill="#90278E" d="M44.182,40.592V14.759h8.874v25.832h6.875V14.759h4.865L32.849-6.178L0.902,14.759h4.885v25.833H0.902
		v3.125h63.896v-3.125H44.182z M12.662,40.592V14.759h8.875v25.833H12.662z M28.412,40.592V14.759h4.437v0h4.458v25.833H28.412z"/>
</g>
<g id="Calque_6" display="none">
	<rect x="-7.151" y="50.697" display="inline" fill="#FFFFFF" width="80" height="3.125"/>
	<path display="inline" fill="#FFFFFF" d="M-2.401,19.322v27.875h43.5V19.322H-2.401z M3.599,43.072h-4.167v-7.666h4.167V43.072z
		 M3.599,32.28h-4.167v-7.666h4.167V32.28z M9.599,43.072H5.432v-7.666h4.167V43.072z M9.599,32.28H5.432v-7.666h4.167V32.28z
		 M15.599,43.072h-4.167v-7.666h4.167V43.072z M15.599,32.28h-4.167v-7.666h4.167V32.28z M21.474,43.072h-4.167v-7.666h4.167V43.072
		z M21.474,32.28h-4.167v-7.666h4.167V32.28z M27.724,43.072h-4.167v-7.666h4.167V43.072z M27.724,32.28h-4.167v-7.666h4.167V32.28z
		 M33.932,43.072h-4.167v-7.666h4.167V43.072z M33.932,32.28h-4.167v-7.666h4.167V32.28z M40.099,43.072h-4.166v-7.666h4.166V43.072
		z M40.099,32.28h-4.166v-7.666h4.166V32.28z"/>
	<path display="inline" fill="#FFFFFF" d="M44.849-5.678v52.875h23.75V-5.678H44.849z M46.724-3.095h8.875v4h-8.875V-3.095z
		 M46.724,2.905h8.875v4h-8.875V2.905z M46.724,8.905h8.875v4h-8.875V8.905z M46.724,14.905h8.875v4h-8.875V14.905z M46.724,20.905
		h8.875v4h-8.875V20.905z M46.724,26.905h8.875v4h-8.875V26.905z M46.724,32.905h8.875v4h-8.875V32.905z M46.724,38.905h8.875v2.688
		v1.104v0.208h-8.875V38.905z M66.724,42.905h-8.875v-0.208v-1.104v-2.688h8.875V42.905z M66.724,36.905h-8.875v-4h8.875V36.905z
		 M66.724,30.905h-8.875v-4h8.875V30.905z M66.724,24.905h-8.875v-4h8.875V24.905z M66.724,18.905h-8.875v-4h8.875V18.905z
		 M66.724,12.905h-8.875v-4h8.875V12.905z M66.724,6.905h-8.875v-4h8.875V6.905z M66.724,0.905h-8.875v-4h8.875V0.905z"/>
</g>
<g id="Calque_7" display="none">
	<rect x="12.495" y="51.072" display="inline" fill="#FFFFFF" width="40.707" height="2.75"/>
	<rect x="20.676" y="46.822" display="inline" fill="#FFFFFF" width="24.345" height="2.75"/>
	<path display="inline" fill="#FFFFFF" d="M32.849-4.803c-1.404,0-2.542,0.683-2.542,1.525v49.225h5.084V-3.278
		C35.391-4.12,34.253-4.803,32.849-4.803z"/>
	<polygon display="inline" fill="#FFFFFF" points="8.524,12.729 7.64,9.896 6.757,12.729 0.969,31.28 2.58,31.783 7.64,15.562 
		12.701,31.783 14.312,31.28 	"/>
	<polygon display="inline" fill="#FFFFFF" points="58.942,3.405 58.057,0.572 57.174,3.405 51.385,21.955 52.996,22.459 
		58.057,6.238 63.117,22.459 64.729,21.955 	"/>
	<path display="inline" fill="#FFFFFF" d="M-1.76,30.772c1.066,2.824,4.864,4.916,9.4,4.916c4.536,0,8.334-2.092,9.399-4.916H-1.76z
		"/>
	<path display="inline" fill="#FFFFFF" d="M48.657,21.447c1.065,2.824,4.864,4.916,9.4,4.916s8.334-2.091,9.399-4.916H48.657z"/>
	<path display="inline" fill="#FFFFFF" d="M58.507-1.678L6.361,7.897C5.338,8.085,4.695,9.246,4.924,10.49
		c0.229,1.245,1.242,2.102,2.265,1.914l52.146-9.575C60.357,2.641,61,1.48,60.772,0.236C60.543-1.01,59.529-1.866,58.507-1.678z"/>
	<path display="inline" fill="#FFFFFF" d="M7.64,7.662"/>
</g>
<g id="Calque_4" display="none">
</g>
</svg>
