<?xml version="1.0" encoding="utf-8"?>
<!-- Generator: Adobe Illustrator 16.0.0, SVG Export Plug-In . SVG Version: 6.00 Build 0)  -->
<!DOCTYPE svg PUBLIC "-//W3C//DTD SVG 1.1//EN" "http://www.w3.org/Graphics/SVG/1.1/DTD/svg11.dtd">
<svg version="1.1" id="Calque_1" xmlns="http://www.w3.org/2000/svg" xmlns:xlink="http://www.w3.org/1999/xlink" x="0px" y="0px"
	 width="300px" height="81.418px" viewBox="0 0 300 81.418" enable-background="new 0 0 300 81.418" xml:space="preserve">
<path d="M291.732,6.954c-37.061,49.182-91.811,101.575-203.498,38.583c-4.354,7.491-21.354,14.469-39.043,9.154
	c17.563-0.913,25.188-7.913,26.818-16.389c-0.254-0.143-0.5-0.301-0.736-0.443c-7.894,8.169-27.019,10.794-47.643,8.226
	c19.374-0.682,30.124-9.057,33.967-17.095c-1.104-0.761-2.246-1.538-3.371-2.308C48.755,36.653,37.38,38.778,8.268,38.231
	c29.362-4.828,35.737-8.619,38.377-19.759c-2.412-1.777-4.807-3.459-7.266-5.323c32.016,13.16,66.727,28.985,102.598,36.647
	c28.028,4.856,49.028,5.106,80.434-0.92C245.629,42.3,268.871,29.299,291.732,6.954z"/>
</svg>
