<?xml version="1.0" encoding="utf-8"?>
<!-- Generator: Adobe Illustrator 16.0.0, SVG Export Plug-In . SVG Version: 6.00 Build 0)  -->
<!DOCTYPE svg PUBLIC "-//W3C//DTD SVG 1.1//EN" "http://www.w3.org/Graphics/SVG/1.1/DTD/svg11.dtd">
<svg version="1.1" id="Calque_2" xmlns="http://www.w3.org/2000/svg" xmlns:xlink="http://www.w3.org/1999/xlink" x="0px" y="0px"
	 width="217.567px" height="300px" viewBox="0 0 217.567 300" enable-background="new 0 0 217.567 300" xml:space="preserve">
<g>
	<path fill-rule="evenodd" clip-rule="evenodd" fill="#ED1C24" d="M115.825,40.288c39.744,0,96.743,40.343,94.029,90.476
		c-4.199,77.549-45.164,67.856-44.996,100.814c0.238,47.009,17.687,47.495,4.604,53.636c-10.867,5.101-68.41,14.371-80.778,8.078
		c-8.892-4.525-6.952-4.199-7.756-20.68c-0.411-8.447-0.972-27.467-21.004-26.82c-20.03,0.648-41.034-2.586-32.31-17.447
		c8.724-14.863-7.751-14.541-8.078-21.326c-0.324-6.786,6.461-3.881,6.139-7.434c-0.321-3.552-8.08-4.199-8.402-8.398
		c-0.321-4.2,7.756-10.016,7.756-16.479c0-8.679-20.52,1.128-19.065-8.08c2.169-13.745,8.882-10.197,17.126-26.354
		c6.354-12.453,4.203-19.523,4.203-35.682C27.292,88.434,47.323,40.288,115.825,40.288z"/>
	<g>
		<path fill-rule="evenodd" clip-rule="evenodd" fill="#662D91" d="M78.294,130.856c-2.316,0-4.194-1.877-4.194-4.194v-15.512
			c0-2.316,1.877-4.194,4.194-4.194h25.813L83.59,59.508c-0.561-1.296-0.431-2.787,0.344-3.968c0.775-1.18,2.093-1.891,3.505-1.891
			h13.549c1.673,0,3.186,0.994,3.85,2.529l0.567,1.313V13.608c0-2.316,1.877-4.194,4.194-4.194h11.535
			c2.316,0,4.193,1.877,4.193,4.194v43.876l0.564-1.305c0.664-1.536,2.177-2.53,3.85-2.53h13.551c1.412,0,2.729,0.71,3.505,1.891
			s0.905,2.671,0.345,3.968l-20.517,47.449h25.919c2.316,0,4.194,1.877,4.194,4.194v15.512c0,2.316-1.878,4.194-4.194,4.194H78.294z
			"/>
		<path fill="#FFFFFF" d="M121.134,13.608v64.148l8.607-19.913h13.551l-21.135,48.879c-0.864,1.799-1.939,3.415-3.379,4.429h33.766
			v15.512h-74.25v-15.512h33.558c-1.467-0.998-2.561-2.593-3.277-4.429L87.439,57.843h13.549l8.611,19.913V13.608H121.134
			 M121.134,5.22h-11.535c-4.632,0-8.388,3.755-8.388,8.388v35.851c-0.074-0.002-0.148-0.003-0.223-0.003H87.439
			c-2.824,0-5.459,1.421-7.01,3.782c-1.551,2.36-1.81,5.343-0.689,7.935l17.985,41.591H78.294c-4.632,0-8.388,3.755-8.388,8.388
			v15.512c0,4.632,3.755,8.388,8.388,8.388h74.25c4.633,0,8.388-3.755,8.388-8.388v-15.512c0-4.632-3.755-8.388-8.388-8.388h-19.537
			l17.984-41.591c1.12-2.592,0.861-5.575-0.689-7.935s-4.186-3.782-7.01-3.782h-13.551c-0.073,0-0.146,0.001-0.22,0.003V13.608
			C129.521,8.976,125.767,5.22,121.134,5.22L121.134,5.22z"/>
	</g>
</g>
</svg>
