<?xml version="1.0" encoding="utf-8"?>
<!-- Generator: Adobe Illustrator 16.0.0, SVG Export Plug-In . SVG Version: 6.00 Build 0)  -->
<!DOCTYPE svg PUBLIC "-//W3C//DTD SVG 1.1//EN" "http://www.w3.org/Graphics/SVG/1.1/DTD/svg11.dtd">
<svg version="1.1" id="Calque_3" xmlns="http://www.w3.org/2000/svg" xmlns:xlink="http://www.w3.org/1999/xlink" x="0px" y="0px"
	 width="239.333px" height="300px" viewBox="0 0 239.333 300" enable-background="new 0 0 239.333 300" xml:space="preserve">
<g>
	<path fill-rule="evenodd" clip-rule="evenodd" fill="#FAA61A" d="M128.452,8.268c44.16,0,107.492,44.825,104.477,100.528
		c-4.666,86.166-50.183,75.396-49.995,112.016c0.265,52.232,19.651,52.772,5.114,59.596c-12.074,5.667-76.011,15.968-89.753,8.976
		c-9.879-5.028-7.725-4.666-8.618-22.978c-0.457-9.386-1.08-30.519-23.338-29.801c-22.256,0.721-45.593-2.873-35.899-19.386
		c9.693-16.515-8.612-16.156-8.976-23.695c-0.36-7.54,7.179-4.313,6.821-8.26c-0.357-3.946-8.978-4.666-9.336-9.332
		c-0.357-4.666,8.618-11.128,8.618-18.311c0-9.642-22.8,1.254-21.184-8.977c2.41-15.272,9.869-11.33,19.029-29.283
		c7.061-13.837,4.67-21.693,4.67-39.646C30.082,61.764,52.337,8.268,128.452,8.268z"/>
	<g>
		<g>
			<path fill="#D11A6F" d="M117.682,120.188c-1.325,0-2.542-0.791-3.068-2.035l-2.584-6.11c-2.646-0.02-5.258-0.314-7.794-0.879
				l-3.887,5.335c-0.641,0.88-1.652,1.371-2.695,1.371c-0.388,0-0.78-0.068-1.159-0.208c-7.912-2.938-14.84-7.984-20.035-14.596
				c-0.922-1.174-0.952-2.817-0.072-4.023l3.889-5.334c-0.836-1.418-1.574-2.88-2.204-4.367c-0.615-1.455-1.144-2.979-1.578-4.554
				l-6.543-0.915c-1.478-0.207-2.638-1.37-2.841-2.847c-1.146-8.335,0.039-16.825,3.426-24.552c0.536-1.225,1.743-1.996,3.051-1.996
				c0.153,0,0.307,0.011,0.462,0.032l6.538,0.912c1.371-2.238,2.988-4.333,4.835-6.263l-2.584-6.109
				c-0.582-1.375-0.178-2.969,0.987-3.901c3.329-2.665,6.94-4.829,10.732-6.434c3.794-1.605,7.864-2.69,12.097-3.225
				c0.141-0.018,0.28-0.026,0.419-0.026c1.325,0,2.542,0.79,3.068,2.035l2.585,6.111c2.643,0.019,5.255,0.314,7.795,0.88
				l3.889-5.338c0.641-0.88,1.652-1.371,2.695-1.371c0.388,0,0.78,0.068,1.16,0.209c7.917,2.941,14.844,7.991,20.032,14.604
				c0.921,1.173,0.95,2.815,0.072,4.021l-3.889,5.337c0.833,1.414,1.569,2.874,2.199,4.359c0.621,1.468,1.151,2.996,1.584,4.564
				l6.54,0.914c1.478,0.207,2.639,1.37,2.842,2.848c1.144,8.333-0.043,16.825-3.434,24.557c-0.537,1.224-1.743,1.995-3.051,1.995
				c-0.153,0-0.309-0.011-0.463-0.032l-6.541-0.914c-1.37,2.236-2.985,4.328-4.828,6.254l2.586,6.11
				c0.581,1.375,0.179,2.968-0.986,3.9c-3.326,2.664-6.938,4.831-10.736,6.438c-3.8,1.604-7.868,2.688-12.095,3.22
				C117.96,120.179,117.82,120.188,117.682,120.188z M112.37,62.533c-1.643,0-3.252,0.328-4.782,0.976
				c-6.238,2.64-9.166,9.863-6.527,16.103c1.929,4.559,6.375,7.504,11.326,7.504c1.642,0,3.25-0.328,4.778-0.975
				c6.239-2.639,9.167-9.864,6.527-16.105C121.763,65.479,117.319,62.533,112.37,62.533z"/>
			<path fill="#FFFFFF" d="M107.073,32.793l3.468,8.197c0.638-0.035,1.275-0.052,1.911-0.052c3.216,0,6.391,0.447,9.436,1.338
				l5.22-7.166c7.215,2.68,13.68,7.303,18.571,13.538l-5.221,7.166c1.212,1.792,2.279,3.724,3.156,5.794
				c0.868,2.053,1.508,4.148,1.952,6.252l8.78,1.227c1.078,7.852-0.09,15.709-3.184,22.765l-8.779-1.227
				c-1.775,3.375-4.148,6.443-7.003,9.081l3.468,8.197c-2.967,2.376-6.278,4.415-9.952,5.97c-3.671,1.55-7.438,2.507-11.212,2.983
				l-3.467-8.196c-0.637,0.035-1.273,0.052-1.908,0.052c-3.214,0-6.39-0.445-9.436-1.339l-5.219,7.164
				c-7.217-2.679-13.68-7.302-18.574-13.531l5.222-7.163c-1.216-1.8-2.283-3.73-3.161-5.803c-0.868-2.052-1.5-4.142-1.947-6.242
				l-8.782-1.228c-1.08-7.854,0.088-15.713,3.177-22.76l8.776,1.224c1.777-3.382,4.152-6.449,7.009-9.09l-3.467-8.195
				c2.97-2.376,6.28-4.414,9.949-5.967C99.532,34.226,103.3,33.27,107.073,32.793 M112.386,90.449c2.029,0,4.092-0.398,6.078-1.238
				c7.948-3.362,11.658-12.527,8.298-20.473c-2.521-5.957-8.304-9.538-14.392-9.537c-2.029,0-4.094,0.398-6.081,1.239
				C98.347,63.8,94.631,72.967,97.991,80.91C100.512,86.868,106.299,90.449,112.386,90.449 M107.076,26.126
				c-0.278,0-0.557,0.018-0.838,0.053c-4.537,0.572-8.903,1.737-12.979,3.462c-4.074,1.724-7.949,4.046-11.517,6.901
				c-2.331,1.865-3.138,5.053-1.975,7.802l1.756,4.15c-0.918,1.069-1.777,2.181-2.572,3.331l-4.441-0.619
				c-0.31-0.043-0.618-0.064-0.924-0.064c-2.616,0-5.03,1.542-6.103,3.991c-3.634,8.291-4.905,17.4-3.675,26.344
				c0.406,2.956,2.727,5.282,5.682,5.695l4.438,0.62c0.325,0.971,0.684,1.92,1.075,2.845c0.403,0.952,0.847,1.895,1.329,2.823
				l-2.637,3.617c-1.759,2.412-1.7,5.7,0.145,8.047c5.575,7.095,13.008,12.51,21.496,15.662c0.759,0.282,1.543,0.417,2.319,0.417
				c2.086,0,4.107-0.981,5.39-2.741l2.64-3.624c1.354,0.223,2.724,0.378,4.105,0.462l1.756,4.151c1.053,2.489,3.488,4.07,6.137,4.07
				c0.277,0,0.556-0.017,0.836-0.053c4.529-0.571,8.894-1.733,12.972-3.456c4.085-1.729,7.961-4.053,11.526-6.909
				c2.329-1.866,3.135-5.052,1.972-7.801l-1.756-4.151c0.915-1.066,1.771-2.174,2.563-3.32l4.444,0.621
				c0.311,0.043,0.619,0.064,0.926,0.064c2.616,0,5.029-1.542,6.103-3.99c3.638-8.295,4.911-17.406,3.683-26.349
				c-0.405-2.957-2.727-5.283-5.683-5.696l-4.436-0.62c-0.325-0.97-0.685-1.922-1.079-2.853c-0.402-0.951-0.845-1.892-1.325-2.817
				l2.639-3.621c1.756-2.411,1.697-5.694-0.144-8.041c-5.568-7.097-13.001-12.517-21.495-15.672
				c-0.759-0.282-1.544-0.417-2.319-0.417c-2.087,0-4.108,0.981-5.391,2.742l-2.642,3.626c-1.355-0.224-2.726-0.378-4.107-0.463
				l-1.757-4.152C112.16,27.707,109.725,26.126,107.076,26.126L107.076,26.126z M112.386,83.782c-3.609,0-6.85-2.147-8.256-5.47
				c-1.922-4.546,0.211-9.81,4.757-11.733c1.116-0.472,2.288-0.712,3.483-0.712c3.607,0,6.846,2.146,8.251,5.469
				c1.923,4.547-0.21,9.812-4.755,11.735C114.75,83.543,113.58,83.782,112.386,83.782L112.386,83.782z"/>
		</g>
		<g>
			<path fill="#D11A6F" d="M169.353,154.54c-3.654,0-7.268-0.55-10.738-1.636c-1.537-0.481-2.511-1.992-2.313-3.59l0.614-4.974
				c-3.29-1.595-6.238-3.806-8.698-6.522l-4.678,1.951c-0.417,0.174-0.853,0.257-1.282,0.257c-1.088,0-2.142-0.534-2.775-1.486
				c-2.554-3.835-4.322-8.054-5.257-12.539c-0.325-1.565,0.506-3.142,1.981-3.756l4.669-1.946c-0.031-0.546-0.047-1.092-0.047-1.637
				c0-3.266,0.543-6.443,1.618-9.48l-3.933-3.024c-1.287-0.989-1.675-2.761-0.917-4.197c1.91-3.625,4.401-6.869,7.404-9.643
				c0.636-0.587,1.447-0.885,2.263-0.885c0.713,0,1.429,0.229,2.03,0.69l3.921,3.013c3.118-2.145,6.614-3.638,10.313-4.406
				l0.612-4.964c0.197-1.596,1.505-2.824,3.11-2.919c0.696-0.042,1.396-0.066,2.102-0.066c3.505,0,6.98,0.511,10.332,1.518
				c1.555,0.468,2.547,1.988,2.349,3.601l-0.604,4.9c3.478,1.621,6.582,3.921,9.153,6.782l4.643-1.935
				c0.417-0.174,0.852-0.257,1.281-0.257c1.091,0,2.147,0.537,2.78,1.494c2.546,3.847,4.302,8.072,5.219,12.557
				c0.319,1.562-0.512,3.131-1.983,3.744l-4.664,1.944c0.028,0.513,0.042,1.024,0.042,1.533c0,3.294-0.552,6.498-1.646,9.557
				l3.907,3.002c1.288,0.99,1.675,2.766,0.915,4.202c-1.912,3.614-4.41,6.854-7.424,9.631c-0.636,0.585-1.446,0.882-2.26,0.882
				c-0.714,0-1.43-0.229-2.031-0.691l-3.916-3.011c-3.221,2.203-6.838,3.71-10.664,4.444l-0.604,4.899
				c-0.2,1.614-1.535,2.85-3.16,2.922C170.465,154.523,169.91,154.54,169.353,154.54z M169.363,111.15
				c-4.143,0-7.514,3.37-7.514,7.512s3.371,7.512,7.514,7.512c4.144,0,7.515-3.37,7.515-7.512S173.507,111.15,169.363,111.15z"/>
			<path fill="#FFFFFF" d="M169.353,86.114c3.26,0,6.404,0.485,9.372,1.377l-0.916,7.424c4.736,1.684,8.82,4.742,11.771,8.696
				l6.928-2.887c2.252,3.403,3.887,7.248,4.732,11.385L194.298,115c0.175,1.196,0.269,2.418,0.269,3.661
				c0,3.806-0.85,7.413-2.362,10.649l5.926,4.554c-1.739,3.287-4.024,6.24-6.736,8.738l-5.927-4.557
				c-3.785,3.146-8.505,5.205-13.682,5.698l-0.917,7.426c-0.503,0.022-1.008,0.038-1.516,0.038c-3.396,0-6.667-0.522-9.743-1.484
				l0.92-7.456c-4.537-1.7-8.454-4.667-11.319-8.474l-6.954,2.899c-2.262-3.396-3.907-7.24-4.768-11.371l6.954-2.898
				c-0.185-1.226-0.281-2.482-0.281-3.762c0-3.779,0.838-7.36,2.329-10.576l-5.945-4.57c1.734-3.29,4.011-6.248,6.718-8.749
				l5.938,4.563c3.694-3.09,8.286-5.141,13.33-5.705l0.919-7.449C168.08,86.137,168.713,86.114,169.353,86.114 M169.363,129.507
				c5.992,0,10.848-4.858,10.848-10.845c0-5.99-4.855-10.845-10.848-10.845c-5.99,0-10.847,4.855-10.847,10.845
				C158.517,124.649,163.373,129.507,169.363,129.507 M169.353,79.447c-0.73,0-1.483,0.023-2.3,0.072
				c-3.21,0.191-5.826,2.647-6.22,5.838l-0.332,2.69c-2.481,0.716-4.862,1.731-7.099,3.028l-2.077-1.596
				c-1.202-0.924-2.634-1.38-4.062-1.38c-1.63,0-3.253,0.595-4.525,1.77c-3.281,3.031-6.003,6.576-8.091,10.537
				c-1.514,2.872-0.739,6.416,1.834,8.395l2.095,1.609c-0.671,2.495-1.031,5.063-1.077,7.685l-2.575,1.073
				c-2.952,1.23-4.614,4.383-3.962,7.513c1.021,4.904,2.954,9.515,5.745,13.707c1.268,1.903,3.375,2.972,5.552,2.972
				c0.859,0,1.729-0.167,2.563-0.514l2.593-1.081c1.793,1.706,3.776,3.194,5.912,4.438l-0.333,2.704
				c-0.395,3.196,1.552,6.218,4.626,7.179c3.793,1.187,7.741,1.789,11.733,1.789c0.554,0,1.13-0.015,1.813-0.045
				c3.25-0.146,5.921-2.614,6.319-5.843l0.32-2.59c2.606-0.712,5.105-1.754,7.448-3.105l2.077,1.597
				c1.202,0.924,2.635,1.381,4.063,1.381c1.626,0,3.247-0.593,4.518-1.763c3.293-3.033,6.022-6.574,8.112-10.524
				c1.521-2.873,0.747-6.423-1.83-8.404l-2.063-1.584c0.676-2.485,1.043-5.045,1.097-7.658l2.577-1.074
				c2.943-1.227,4.605-4.365,3.967-7.489c-1.003-4.905-2.922-9.524-5.704-13.729c-1.267-1.913-3.379-2.988-5.563-2.988
				c-0.858,0-1.729,0.167-2.562,0.514l-2.548,1.062c-1.921-1.84-4.06-3.428-6.373-4.731l0.319-2.593
				c0.398-3.224-1.586-6.266-4.697-7.201C176.981,80.005,173.183,79.447,169.353,79.447L169.353,79.447z M169.363,122.84
				c-2.305,0-4.18-1.875-4.18-4.179s1.875-4.179,4.18-4.179c2.306,0,4.181,1.875,4.181,4.179S171.669,122.84,169.363,122.84
				L169.363,122.84z"/>
		</g>
	</g>
</g>
</svg>
