<?xml version="1.0" encoding="utf-8"?>
<!-- Generator: Adobe Illustrator 16.0.0, SVG Export Plug-In . SVG Version: 6.00 Build 0)  -->
<!DOCTYPE svg PUBLIC "-//W3C//DTD SVG 1.1//EN" "http://www.w3.org/Graphics/SVG/1.1/DTD/svg11.dtd">
<svg version="1.1" id="Calque_2" xmlns="http://www.w3.org/2000/svg" xmlns:xlink="http://www.w3.org/1999/xlink" x="0px" y="0px"
	 width="239.333px" height="300px" viewBox="0 0 239.333 300" enable-background="new 0 0 239.333 300" xml:space="preserve">
<g>
	<path fill-rule="evenodd" clip-rule="evenodd" fill="#ED1C24" d="M128.451,8.268c44.161,0,107.493,44.825,104.478,100.528
		c-4.666,86.166-50.183,75.396-49.996,112.016c0.266,52.232,19.652,52.772,5.115,59.596c-12.074,5.667-76.012,15.968-89.754,8.976
		c-9.879-5.028-7.725-4.666-8.618-22.978c-0.457-9.386-1.08-30.519-23.337-29.801c-22.256,0.721-45.594-2.873-35.899-19.386
		c9.693-16.515-8.612-16.156-8.976-23.695c-0.36-7.54,7.179-4.313,6.821-8.26c-0.357-3.946-8.978-4.666-9.336-9.332
		c-0.357-4.666,8.618-11.128,8.618-18.31c0-9.644-22.799,1.253-21.184-8.979c2.41-15.272,9.869-11.33,19.029-29.283
		c7.061-13.836,4.67-21.692,4.67-39.646C30.081,61.763,52.337,8.268,128.451,8.268z"/>
	<g>
		<g>
			<path fill="#662D91" d="M117.682,120.187c-1.325,0-2.542-0.791-3.068-2.035l-2.584-6.11c-2.646-0.02-5.258-0.314-7.794-0.879
				l-3.887,5.335c-0.641,0.88-1.652,1.371-2.695,1.371c-0.388,0-0.78-0.068-1.159-0.208c-7.913-2.938-14.84-7.985-20.035-14.596
				c-0.922-1.174-0.952-2.817-0.072-4.023l3.889-5.334c-0.835-1.418-1.573-2.88-2.204-4.368c-0.616-1.455-1.144-2.979-1.578-4.554
				l-6.543-0.914c-1.477-0.207-2.638-1.37-2.841-2.847c-1.146-8.335,0.039-16.826,3.427-24.553c0.537-1.224,1.743-1.995,3.051-1.995
				c0.153,0,0.307,0.011,0.462,0.032l6.537,0.912c1.371-2.238,2.988-4.333,4.835-6.263l-2.584-6.109
				c-0.582-1.375-0.178-2.969,0.987-3.902c3.33-2.664,6.941-4.829,10.732-6.434c3.795-1.605,7.865-2.69,12.097-3.225
				c0.14-0.018,0.28-0.026,0.419-0.026c1.325,0,2.542,0.79,3.068,2.035l2.585,6.111c2.644,0.02,5.255,0.315,7.796,0.88l3.889-5.338
				c0.642-0.88,1.652-1.371,2.695-1.371c0.388,0,0.78,0.068,1.16,0.209c7.917,2.941,14.844,7.991,20.031,14.604
				c0.921,1.173,0.95,2.815,0.072,4.02l-3.888,5.338c0.833,1.415,1.57,2.874,2.199,4.359c0.62,1.466,1.15,2.994,1.584,4.564
				l6.54,0.913c1.478,0.207,2.639,1.37,2.842,2.848c1.144,8.335-0.044,16.827-3.434,24.557c-0.537,1.224-1.743,1.995-3.051,1.995
				c-0.153,0-0.309-0.011-0.463-0.032l-6.541-0.914c-1.37,2.236-2.985,4.328-4.828,6.254l2.586,6.11
				c0.581,1.374,0.179,2.967-0.986,3.9c-3.326,2.664-6.938,4.831-10.736,6.438c-3.801,1.604-7.869,2.688-12.096,3.22
				C117.959,120.178,117.82,120.187,117.682,120.187z M112.37,62.533c-1.643,0-3.252,0.328-4.782,0.976
				c-6.238,2.64-9.166,9.864-6.527,16.103c1.929,4.559,6.374,7.504,11.325,7.504c1.643,0,3.25-0.328,4.779-0.975
				c6.238-2.639,9.166-9.863,6.526-16.104C121.763,65.478,117.319,62.533,112.37,62.533z"/>
			<path fill="#FFFFFF" d="M107.072,32.793l3.468,8.197c0.637-0.035,1.273-0.052,1.908-0.052c3.217,0,6.393,0.447,9.439,1.338
				l5.22-7.166c7.214,2.68,13.679,7.302,18.57,13.537l-5.22,7.166c1.212,1.792,2.279,3.724,3.156,5.794
				c0.868,2.053,1.507,4.148,1.952,6.252l8.78,1.226c1.077,7.852-0.09,15.709-3.184,22.765l-8.779-1.227
				c-1.775,3.375-4.148,6.443-7.003,9.081l3.468,8.196c-2.967,2.376-6.278,4.415-9.952,5.97c-3.671,1.55-7.438,2.507-11.212,2.983
				l-3.467-8.196c-0.637,0.035-1.273,0.052-1.908,0.052c-3.214,0-6.39-0.445-9.436-1.339l-5.219,7.164
				c-7.217-2.679-13.68-7.301-18.574-13.531l5.223-7.163c-1.217-1.8-2.283-3.73-3.161-5.803c-0.868-2.052-1.5-4.142-1.946-6.242
				l-8.783-1.227c-1.08-7.855,0.088-15.713,3.177-22.761l8.776,1.224c1.777-3.382,4.152-6.449,7.009-9.089l-3.467-8.196
				c2.97-2.376,6.281-4.414,9.949-5.967C99.532,34.226,103.299,33.27,107.072,32.793 M112.385,90.449
				c2.029,0,4.092-0.398,6.078-1.239c7.948-3.362,11.658-12.527,8.297-20.473c-2.521-5.957-8.303-9.538-14.391-9.538
				c-2.029,0-4.094,0.398-6.081,1.239C98.346,63.8,94.631,72.967,97.99,80.909C100.511,86.868,106.298,90.449,112.385,90.449
				 M107.075,26.126c-0.277,0-0.557,0.018-0.838,0.053c-4.536,0.573-8.901,1.738-12.977,3.461
				c-4.074,1.725-7.949,4.046-11.517,6.901c-2.331,1.865-3.138,5.053-1.975,7.803l1.756,4.15c-0.918,1.069-1.777,2.181-2.572,3.331
				l-4.441-0.619c-0.31-0.043-0.618-0.064-0.924-0.064c-2.616,0-5.03,1.542-6.103,3.991c-3.634,8.291-4.905,17.4-3.676,26.345
				c0.406,2.956,2.727,5.282,5.682,5.695l4.437,0.62c0.325,0.97,0.684,1.92,1.075,2.844c0.404,0.953,0.847,1.896,1.329,2.823
				l-2.637,3.617c-1.759,2.412-1.7,5.699,0.145,8.046c5.574,7.095,13.008,12.511,21.496,15.662c0.759,0.281,1.543,0.417,2.319,0.417
				c2.086,0,4.107-0.981,5.39-2.741l2.64-3.624c1.354,0.223,2.724,0.378,4.105,0.462l1.756,4.151c1.053,2.489,3.488,4.07,6.137,4.07
				c0.277,0,0.556-0.017,0.837-0.053c4.529-0.57,8.894-1.733,12.973-3.456c4.085-1.729,7.961-4.053,11.526-6.909
				c2.329-1.866,3.135-5.052,1.972-7.801l-1.756-4.151c0.915-1.066,1.771-2.174,2.563-3.32l4.444,0.621
				c0.311,0.043,0.619,0.064,0.926,0.064c2.615,0,5.029-1.542,6.103-3.99c3.637-8.293,4.91-17.404,3.683-26.348
				c-0.405-2.957-2.727-5.284-5.683-5.696l-4.436-0.62c-0.325-0.97-0.686-1.923-1.078-2.853c-0.403-0.951-0.846-1.892-1.326-2.817
				l2.638-3.621c1.756-2.411,1.697-5.694-0.144-8.041c-5.567-7.097-13-12.516-21.493-15.671c-0.76-0.282-1.545-0.417-2.32-0.417
				c-2.087,0-4.108,0.981-5.391,2.742l-2.642,3.626c-1.355-0.224-2.727-0.378-4.107-0.463l-1.757-4.153
				C112.159,27.707,109.724,26.126,107.075,26.126L107.075,26.126z M112.385,83.782c-3.609,0-6.85-2.147-8.255-5.47
				c-1.922-4.545,0.211-9.81,4.757-11.734c1.116-0.472,2.288-0.711,3.483-0.711c3.607,0,6.845,2.146,8.251,5.469
				c1.923,4.547-0.21,9.813-4.755,11.735C114.75,83.542,113.579,83.782,112.385,83.782L112.385,83.782z"/>
		</g>
		<g>
			<path fill="#662D91" d="M169.353,154.54c-3.653,0-7.267-0.551-10.738-1.637c-1.537-0.48-2.511-1.991-2.313-3.589l0.614-4.974
				c-3.29-1.595-6.238-3.806-8.698-6.522l-4.678,1.951c-0.417,0.174-0.853,0.257-1.282,0.257c-1.088,0-2.142-0.534-2.775-1.485
				c-2.554-3.833-4.322-8.052-5.257-12.539c-0.325-1.565,0.506-3.142,1.981-3.756l4.669-1.946c-0.031-0.546-0.047-1.092-0.047-1.637
				c0-3.265,0.543-6.443,1.618-9.48l-3.933-3.024c-1.287-0.989-1.674-2.761-0.918-4.196c1.909-3.623,4.4-6.868,7.405-9.644
				c0.636-0.587,1.447-0.885,2.263-0.885c0.713,0,1.429,0.229,2.03,0.69l3.921,3.013c3.118-2.145,6.614-3.638,10.313-4.406
				l0.612-4.963c0.197-1.595,1.504-2.822,3.107-2.919c0.696-0.042,1.397-0.067,2.104-0.067c3.503,0,6.979,0.511,10.33,1.518
				c1.556,0.468,2.548,1.988,2.35,3.6l-0.604,4.901c3.479,1.621,6.583,3.92,9.154,6.782l4.642-1.935
				c0.416-0.174,0.852-0.257,1.281-0.257c1.091,0,2.147,0.537,2.78,1.493c2.545,3.844,4.301,8.068,5.22,12.557
				c0.319,1.562-0.512,3.132-1.983,3.745l-4.664,1.944c0.028,0.513,0.042,1.024,0.042,1.533c0,3.294-0.552,6.498-1.646,9.557
				l3.907,3.002c1.289,0.99,1.675,2.766,0.915,4.203c-1.914,3.614-4.411,6.854-7.424,9.63c-0.636,0.585-1.446,0.882-2.26,0.882
				c-0.714,0-1.43-0.229-2.031-0.691l-3.916-3.011c-3.221,2.203-6.838,3.71-10.664,4.444l-0.604,4.899
				c-0.2,1.614-1.535,2.85-3.16,2.922C170.463,154.523,169.91,154.54,169.353,154.54z M169.363,111.149
				c-4.143,0-7.514,3.37-7.514,7.512s3.371,7.512,7.514,7.512c4.144,0,7.515-3.37,7.515-7.512S173.507,111.149,169.363,111.149z"/>
			<path fill="#FFFFFF" d="M169.353,86.113c3.26,0,6.404,0.485,9.371,1.377l-0.915,7.424c4.736,1.684,8.82,4.742,11.771,8.696
				l6.927-2.888c2.253,3.403,3.887,7.249,4.733,11.385L194.298,115c0.175,1.196,0.269,2.419,0.269,3.661
				c0,3.806-0.85,7.413-2.362,10.649l5.926,4.554c-1.74,3.287-4.025,6.24-6.736,8.738l-5.927-4.557
				c-3.785,3.146-8.505,5.205-13.682,5.698l-0.917,7.426c-0.504,0.022-1.008,0.038-1.516,0.038c-3.396,0-6.667-0.522-9.743-1.485
				l0.92-7.456c-4.537-1.7-8.454-4.667-11.319-8.474l-6.954,2.899c-2.263-3.396-3.907-7.24-4.768-11.371l6.954-2.898
				c-0.185-1.226-0.281-2.482-0.281-3.762c0-3.779,0.838-7.36,2.329-10.576l-5.945-4.57c1.733-3.29,4.011-6.248,6.718-8.749
				l5.938,4.563c3.694-3.09,8.286-5.141,13.33-5.706l0.919-7.449C168.079,86.136,168.713,86.113,169.353,86.113 M169.363,129.506
				c5.991,0,10.848-4.858,10.848-10.845c0-5.99-4.856-10.845-10.848-10.845s-10.847,4.855-10.847,10.845
				C158.517,124.648,163.372,129.506,169.363,129.506 M169.353,79.447c-0.737,0-1.491,0.024-2.306,0.073
				c-3.208,0.194-5.82,2.648-6.214,5.838l-0.332,2.69c-2.481,0.716-4.862,1.731-7.099,3.028l-2.077-1.597
				c-1.202-0.924-2.634-1.38-4.062-1.38c-1.629,0-3.254,0.595-4.525,1.77c-3.283,3.033-6.006,6.579-8.092,10.538
				c-1.513,2.871-0.737,6.415,1.835,8.393l2.095,1.609c-0.671,2.495-1.031,5.063-1.077,7.685l-2.575,1.073
				c-2.952,1.23-4.614,4.383-3.962,7.513c1.021,4.906,2.955,9.518,5.746,13.708c1.268,1.903,3.374,2.971,5.551,2.971
				c0.859,0,1.729-0.167,2.563-0.514l2.593-1.081c1.793,1.706,3.776,3.194,5.912,4.438l-0.333,2.704
				c-0.395,3.196,1.552,6.217,4.626,7.179c3.794,1.187,7.741,1.789,11.733,1.789c0.553,0,1.128-0.015,1.813-0.045
				c3.25-0.145,5.921-2.614,6.319-5.843l0.32-2.591c2.606-0.712,5.105-1.754,7.448-3.105l2.077,1.597
				c1.202,0.924,2.635,1.381,4.063,1.381c1.627,0,3.248-0.593,4.519-1.764c3.291-3.033,6.021-6.573,8.11-10.522
				c1.521-2.873,0.748-6.424-1.829-8.405l-2.063-1.584c0.676-2.485,1.042-5.045,1.097-7.658l2.577-1.074
				c2.943-1.227,4.606-4.366,3.967-7.491c-1.005-4.908-2.925-9.527-5.706-13.728c-1.266-1.913-3.379-2.987-5.562-2.987
				c-0.859,0-1.729,0.167-2.563,0.514l-2.546,1.062c-1.922-1.84-4.061-3.428-6.374-4.731l0.319-2.594
				c0.397-3.224-1.587-6.265-4.697-7.2C176.979,80.005,173.181,79.447,169.353,79.447L169.353,79.447z M169.363,122.84
				c-2.305,0-4.18-1.875-4.18-4.179s1.875-4.179,4.18-4.179c2.306,0,4.181,1.875,4.181,4.179S171.669,122.84,169.363,122.84
				L169.363,122.84z"/>
		</g>
	</g>
</g>
</svg>
