<?xml version="1.0" encoding="utf-8"?>
<!-- Generator: Adobe Illustrator 16.0.0, SVG Export Plug-In . SVG Version: 6.00 Build 0)  -->
<!DOCTYPE svg PUBLIC "-//W3C//DTD SVG 1.1//EN" "http://www.w3.org/Graphics/SVG/1.1/DTD/svg11.dtd">
<svg version="1.1" id="Calque_2" xmlns="http://www.w3.org/2000/svg" xmlns:xlink="http://www.w3.org/1999/xlink" x="0px" y="0px"
	 width="239.333px" height="300px" viewBox="0 0 239.333 300" enable-background="new 0 0 239.333 300" xml:space="preserve">
<g>
	<path fill-rule="evenodd" clip-rule="evenodd" fill="#00AEEF" d="M128.451,8.268c44.161,0,107.493,44.825,104.478,100.528
		c-4.666,86.166-50.183,75.396-49.996,112.016c0.266,52.232,19.652,52.772,5.115,59.596c-12.074,5.667-76.011,15.968-89.753,8.976
		c-9.879-5.028-7.725-4.666-8.618-22.978c-0.457-9.386-1.08-30.519-23.337-29.801c-22.256,0.721-45.594-2.873-35.899-19.386
		c9.693-16.515-8.612-16.156-8.976-23.695c-0.36-7.54,7.179-4.313,6.821-8.26c-0.357-3.946-8.978-4.666-9.336-9.332
		c-0.357-4.666,8.618-11.128,8.618-18.31c0-9.644-22.799,1.253-21.184-8.979c2.41-15.272,9.869-11.33,19.029-29.283
		c7.061-13.836,4.67-21.692,4.67-39.646C30.082,61.763,52.337,8.268,128.451,8.268z"/>
	<g>
		<path fill="#FBB040" d="M147.837,167.027c-5.012,0-9.042-4.392-11.978-13.053c-2.164-6.382-4.068-7.687-5.911-8.948
			c-3.105-2.126-5-4.301-5.813-9.05c-3.408,0.69-7.066,1.066-10.58,1.067c-16.255,0-27.156-7.72-29.873-20.866
			c-9.245-1.253-15.535-6.835-17.286-11.786c-3.05-2.315-7.021-6.571-8.012-12c-0.545-2.992-0.071-5.886,1.372-8.481
			c-1.738-8.414-0.979-17.812,12.57-25.971c4.867-8.257,14.104-12.683,21.292-12.936c5.225-4.625,12.971-7.339,21.17-7.339
			c2.992,0,6.051,0.355,9.115,1.058c3.04-1.111,6.651-1.735,10.155-1.735c5.319,0,9.919,1.443,13.306,4.122
			c1.708-0.544,3.647-0.825,5.758-0.825c7.971,0,17.845,3.965,22.476,11.568c12.364,3.893,20.03,12.977,20.386,23.986
			c6.529,3.687,9.174,10.607,9.184,15.832c4.609,6.334,5.307,15.118,1.803,23.556c-0.566,9.792-5.651,19.464-14.682,21.512
			c-1.518,11.037-9.293,21.59-24.394,21.591c-1.904,0-3.905-0.172-5.97-0.512c-1.805,1.132-3.748,1.922-5.609,2.284
			c-0.555,1.616-1.42,3.097-2.526,4.255C152.145,166.079,150.03,167.027,147.837,167.027z"/>
		<path fill="#FFFFFF" d="M134.061,41.432c4.653,0,9.467,1.304,12.396,5.005c1.61-1.15,3.982-1.708,6.667-1.708
			c7.04,0,16.227,3.835,19.444,10.874c11.667,3.056,20,11.389,18.889,23.056c8.056,2.777,9.723,10.833,9.167,14.444
			c4.444,5,5.556,13.056,1.944,21.111c-0.271,8.98-5.076,18.475-13.89,18.475c-0.184,0-0.368-0.004-0.555-0.012
			c0,9.815-5.701,21.208-20.228,21.208c-2.138,0-4.465-0.247-6.995-0.781c-2.151,1.722-4.805,2.776-6.795,2.776
			c-0.578,0-1.101-0.089-1.538-0.276c0.151,3.325-1.918,6.979-4.731,6.979c-2.357,0-5.236-2.564-7.769-10.035
			c-5.556-16.389-11.667-6.667-11.944-22.222c-3.745,1.275-9.038,2.274-14.568,2.274c-11.788,0-24.664-4.536-25.988-20.607
			c-11.389,0-17.222-7.222-17.222-10.278c-4.167-2.5-11.111-10.278-5.833-16.944c-1.667-6.667-3.056-15.556,11.111-23.611
			c4.15-8.041,13.183-11.722,18.641-11.722c0.387,0,0.755,0.019,1.104,0.055c3.544-3.771,10.419-7.383,19.422-7.383
			c2.936,0,6.098,0.384,9.445,1.272C126.706,42.27,130.332,41.432,134.061,41.432 M134.061,32.543
			c-3.533,0-7.183,0.562-10.416,1.578c-2.971-0.598-5.938-0.9-8.854-0.9c-8.667,0-16.945,2.737-22.917,7.456
			c-7.878,0.823-17.316,5.6-22.772,14.035c-15.289,9.696-15.267,21.623-14.005,28.642c-1.313,3.078-1.699,6.453-1.082,9.836
			c1.022,5.608,4.739,10.639,8.696,13.951c1.304,2.872,3.579,5.645,6.603,7.94c2.383,1.809,5.94,3.856,10.754,4.97
			c2.457,8.156,7.49,12.985,11.743,15.736c5.767,3.731,13.287,5.703,21.747,5.703c2.431,0,4.929-0.167,7.383-0.484
			c1.394,3.518,3.603,5.708,6.498,7.69c1.354,0.927,2.524,1.728,4.213,6.707c4.502,13.282,11.287,16.07,16.187,16.07
			c3.419,0,6.675-1.437,9.167-4.045c1.01-1.057,1.868-2.277,2.554-3.606c1.092-0.364,2.179-0.83,3.236-1.385
			c1.747,0.225,3.454,0.338,5.103,0.338c11.854,0,18.788-5.59,22.518-10.279c2.792-3.51,4.761-7.747,5.785-12.344
			c3.935-1.576,7.367-4.426,10.018-8.391c2.892-4.326,4.69-9.784,5.142-15.527c3.591-9.192,2.89-18.749-1.813-26.036
			c-0.406-5.557-2.995-12.461-9.287-16.934c-1.299-11.397-9.305-20.715-21.813-25.146c-5.807-8.075-16.571-12.276-25.321-12.276
			c-1.706,0-3.335,0.156-4.866,0.461C144.356,33.849,139.502,32.543,134.061,32.543L134.061,32.543z"/>
	</g>
</g>
</svg>
