<?xml version="1.0" encoding="UTF-8" standalone="no"?>
<!-- Generator: Adobe Illustrator 22.1.0, SVG Export Plug-In . SVG Version: 6.00 Build 0)  -->

<svg
   xmlns:dc="http://purl.org/dc/elements/1.1/"
   xmlns:cc="http://creativecommons.org/ns#"
   xmlns:rdf="http://www.w3.org/1999/02/22-rdf-syntax-ns#"
   xmlns:svg="http://www.w3.org/2000/svg"
   xmlns="http://www.w3.org/2000/svg"
   xmlns:sodipodi="http://sodipodi.sourceforge.net/DTD/sodipodi-0.dtd"
   xmlns:inkscape="http://www.inkscape.org/namespaces/inkscape"
   version="1.1"
   id="Capa_1"
   inkscape:version="0.92.4 (5da689c313, 2019-01-14)"
   sodipodi:docname="pickaxe(2).svg"
   x="0px"
   y="0px"
   viewBox="0 0 20 20"
   xml:space="preserve"
   width="20"
   height="20"><metadata
   id="metadata18"><rdf:RDF><cc:Work
       rdf:about=""><dc:format>image/svg+xml</dc:format><dc:type
         rdf:resource="http://purl.org/dc/dcmitype/StillImage" /></cc:Work></rdf:RDF></metadata><defs
   id="defs16" />
<style
   type="text/css"
   id="style2">
	.st0{fill:#FFFFFF;}
</style>
<sodipodi:namedview
   bordercolor="#666666"
   borderopacity="1"
   gridtolerance="10"
   guidetolerance="10"
   id="namedview22"
   inkscape:current-layer="Capa_1"
   inkscape:cx="-222.99633"
   inkscape:cy="80.947912"
   inkscape:pageopacity="0"
   inkscape:pageshadow="2"
   inkscape:window-height="1016"
   inkscape:window-maximized="1"
   inkscape:window-width="1920"
   inkscape:window-x="0"
   inkscape:window-y="27"
   inkscape:zoom="2.6074563"
   objecttolerance="10"
   pagecolor="#ffffff"
   showgrid="false">
	</sodipodi:namedview>
<g
   id="XMLID_1_"
   transform="matrix(0.66665963,0,0,0.68581256,0.0252193,-0.5743768)">
	<g
   id="g14">
		<g
   id="XMLID_2_">
			<g
   id="g7">
				<path
   class="st0"
   d="m 25.8,8.4 c 3.9,4.9 5.2,10.3 3.3,13.6 v 0 c 0,0 0,0 0,0 v 0 c 0,0 0,0 0,0 0,0 0,0 0,0 0,0 0,0 0,0 0,0 0,0 0,0 0,0 0,0 0,0 0,0 0,0 0,0 0,0 0,0 0,0 0,0 0,0 0,0 0,0 0,0 0,0 v 0 c 0,0 0,0 -0.1,0 0,0 0,0 0,0 0,0 0,0 0,0 0,0 0,0 0,0 0,0 0,0 0,0 0,0 0,0 0,0 0,0 0,0 -0.1,0 v 0 c 0,0 0,0 -0.1,0 0,0 0,0 -0.1,0 v 0 c 0,0 0,0 0,0 v 0 c 0,0 -0.1,0 -0.1,-0.1 v 0 c 0,0 0,-0.1 -0.1,-0.1 0,0 0,-0.1 0,-0.1 0,0 0,0 0,-0.1 0,0 0,0 0,0 v 0 c -0.3,-3.1 -2.2,-7 -5.2,-10.6 -0.3,0.2 -0.6,0.4 -1,0.4 -0.2,0 -0.4,-0.1 -0.7,-0.1 L 3.4,29.4 C 3.1,29.8 2.5,30 2,30 1.2,30 0.4,29.5 0.1,28.8 -0.2,28 0,27.1 0.6,26.6 L 18.6,8.7 C 18.5,8.5 18.4,8.3 18.4,8 18.4,7.6 18.5,7.3 18.8,7 15.2,4 11.3,2.1 8.2,1.8 v 0 c 0,0 0,0 0,0 0,0 0,0 0,0 0,0 0,0 0,0 0,0 -0.1,0 -0.1,-0.1 v 0 c 0,0 0,0 0,0 0,0 0,0 0,0 0,0 0,0 0,0 0,0 0,0 0,0 0,0 0,0 0,0 0,0 0,0 0,0 0,0 0,0 0,0 0,0 0,0 0,0 0,0 0,0 0,0 0,0 0,0 0,0 0,0 0,0 0,0 0,0 0,0 0,0 0,0 0,0 0,0 0,0 0,0 0,0 0,0 0,0 0,0 0,0 0,0 0,0 0,0 0,0 0,0 0,0 0,0 0,0 0,0 0,0 0,0 v 0 c 0,0 0,0 0,0 0,0 0,0 0,0 0,0 0,0 0,0 0,0 0,0 0,0 0,0 0,0 0,0 0,0 0,0 0,0 0,0 0,0 0,0 0,0 0,0 0,0 0,0 0,0 0,0 0,0 0,0 0,0 0,0 0,0 0,0 0,0 0,0 0,0 0,0 0,0 0,0 0,0 0,0 0,0 0,0 0,0 0,0 3.3,-1.9 8.7,-0.6 13.6,3.3 V 4 c 0.6,-0.6 1.5,-0.6 2.1,0 L 26,6.2 c 0.6,0.6 0.6,1.5 0,2.1 z"
   id="path5"
   inkscape:connector-curvature="0"
   style="fill:#ffffff" />
			</g>
			<g
   id="g9">
			</g>
		</g>
	</g>
	<g
   id="g16">
	</g>
</g>
</svg>