<?xml version="1.0" encoding="utf-8"?>
<!-- Generator: Adobe Illustrator 16.0.0, SVG Export Plug-In . SVG Version: 6.00 Build 0)  -->
<!DOCTYPE svg PUBLIC "-//W3C//DTD SVG 1.1//EN" "http://www.w3.org/Graphics/SVG/1.1/DTD/svg11.dtd">
<svg version="1.1" xmlns="http://www.w3.org/2000/svg" xmlns:xlink="http://www.w3.org/1999/xlink" x="0px" y="0px" width="300px"
	 height="300px" viewBox="0 0 300 300" enable-background="new 0 0 300 300" xml:space="preserve">
<g id="Calque_1">
	<g id="Calque_2" display="none">
		<rect x="-137.5" y="-130.5" display="inline" fill="#FFDB5F" width="740" height="673"/>
	</g>
	<g id="Calque_4">
		<path fill="#FFFFFF" d="M114.111,217.166"/>
	</g>
	<g id="Calque_3">
		<path fill="#F8A519" d="M246.324,232.01c-44.002-5.302-60.436-14.844-60.436-14.844S193,221.5,190.25,231s-21,58.25-40.25,58.25
			V300h9.703h138.044H300C300,300,290.325,237.313,246.324,232.01z"/>
		<path fill="#F8A519" d="M53.676,232.01c44.002-5.302,60.436-14.844,60.436-14.844S107,221.5,109.75,231s21,58.25,40.25,58.25V300
			h-9.703H2.253H0C0,300,9.675,237.313,53.676,232.01z"/>
		<path fill="none" stroke="#F8A519" stroke-width="10" stroke-miterlimit="10" d="M214.561,90.907c0,0,4.938-65.058-63.545-65.058
			c-68.484,0-65.058,65.058-65.058,65.058s-23.531-15.084,0,46.46c22.441,58.69,60.792,59.217,64.302,59.14
			c3.51,0.077,41.861-0.45,64.303-59.14C238.093,75.823,214.561,90.907,214.561,90.907z"/>
		<path fill="#F8A519" d="M88,94c0,0,6,19.75,8,22.25c0,0-9.25-33.5,0-43.25s18.75-14.5,22.5-13.25s19.5,18.5,87,18.5
			c0,0,5.5,20.25-4.75,38c0,0,13.034-17.885,12.25-32.5s-10.75-57.894-63-57.894S84.75,77.75,88,94z"/>
		<path fill="none" stroke="#F8A519" stroke-width="10" stroke-miterlimit="10" d="M228.5,78.833c0,0-2-69.333-78.5-69.333"/>
		<path fill="none" stroke="#F8A519" stroke-width="10" stroke-miterlimit="10" d="M71.5,78.833c0,0,2-69.333,78.5-69.333"/>
		<path fill="#F8A519" d="M77.167,87.5h3c0,0,0.655-14.138-8.172-13.736C63.168,74.166,54.5,78.5,56.833,95.167
			s6.333,32.667,14.667,33s8.678-4.667,8.678-4.667L76.5,97.833L77.167,87.5z"/>
		<path fill="none" stroke="#F8A519" stroke-width="5" stroke-miterlimit="10" d="M71.5,123.167c0,0,24.666,45.333,65,45.333"/>
		<path fill="#F8A519" stroke="#F8A519" stroke-width="5" stroke-miterlimit="10" d="M161,169.5c0,3.313-2.688,6-6,6h-14.167
			c-3.313,0-6-2.688-6-6l0,0c0-3.313,2.687-6,6-6H155C158.313,163.5,161,166.188,161,169.5L161,169.5z"/>
	</g>
</g>
<g id="Calque_2_1_">
	<polygon fill="#D11B70" points="157.667,227.999 163,223.499 157.833,217.166 150,217.166 142.167,217.166 137,223.499 
		142.333,227.999 134.833,257.499 150,277.833 165.167,257.499 	"/>
</g>
<g id="Calque_3_1_">
</g>
</svg>
