<?xml version="1.0" encoding="utf-8"?>
<!-- Generator: Adobe Illustrator 16.0.0, SVG Export Plug-In . SVG Version: 6.00 Build 0)  -->
<!DOCTYPE svg PUBLIC "-//W3C//DTD SVG 1.1//EN" "http://www.w3.org/Graphics/SVG/1.1/DTD/svg11.dtd">
<svg version="1.1" xmlns="http://www.w3.org/2000/svg" xmlns:xlink="http://www.w3.org/1999/xlink" x="0px" y="0px"
	 width="299.99px" height="299.99px" viewBox="0 0 299.99 299.99" enable-background="new 0 0 299.99 299.99" xml:space="preserve">
<g id="Calque_2" display="none">
	<ellipse display="inline" fill="#F4BAE1" cx="160.828" cy="171.162" rx="332.333" ry="250"/>
</g>
<g id="Calque_4">
	<path fill="#BABABA" d="M123.1,144.329"/>
	<g>
		<path fill="#38B349" d="M88.573,132.478c7.396,7.964,11.947,2.276,13.084,5.973c1.138,3.698,7.396,11.378,7.396,11.378
			l10.809,2.275c0,0-12.8,14.791-12.231,22.756c0.569,7.965,9.956-3.982,12.8-1.422c2.844,2.56,0.853,9.955,8.249,20.764
			c6.182,9.035,12.94,13.685,15,14.972c-0.91-4.716-4.584-15.029-8.6-22.367c-4.125-7.538-3.698-16.213-3.698-16.213
			c0.426,3.129,2.844,10.098,7.253,16.925c4.409,6.826,5.689,22.044,5.689,22.044s-0.284,6.258,1.422,7.68
			c1.357,1.132,3.429,1.72,4.223,1.916v0.075c0,0,0.063-0.014,0.164-0.037c0.103,0.023,0.165,0.037,0.165,0.037v-0.075
			c0.794-0.196,2.865-0.784,4.222-1.916c1.707-1.422,1.423-7.68,1.423-7.68s1.279-15.218,5.688-22.044
			c4.409-6.827,6.827-13.796,7.253-16.925c0,0,0.427,8.675-3.697,16.213c-4.016,7.338-7.688,17.651-8.6,22.367
			c2.06-1.287,8.817-5.937,15-14.972c7.396-10.809,5.404-18.204,8.248-20.764c2.845-2.561,12.231,9.387,12.801,1.422
			c0.568-7.965-12.231-22.756-12.231-22.756l10.809-2.275c0,0,6.258-7.68,7.396-11.378c1.138-3.697,5.689,1.991,13.085-5.973
			s10.809-44.088,15.075-51.2s-1.422-7.111-8.817-3.982c-7.396,3.129-16.782-10.24-20.196-15.929
			c-3.413-5.689,8.249-24.462,11.663-31.857c3.413-7.396,3.697-17.636-2.276-9.671c-5.973,7.964-20.575,25.884-26.453,24.557
			s-20.859-7.585-23.704-9.86c-2.372-1.898-5.658-2.606-6.687-2.791V31.69c0,0-0.062,0.008-0.165,0.026
			c-0.103-0.018-0.164-0.026-0.164-0.026v0.054c-1.029,0.185-4.315,0.893-6.688,2.791c-2.844,2.275-17.825,8.533-23.704,9.86
			s-20.48-16.593-26.453-24.557s-5.689,2.276-2.275,9.671c3.413,7.396,15.075,26.168,11.662,31.857
			c-3.414,5.689-12.8,19.058-20.196,15.929s-13.084-3.129-8.817,3.982S81.177,124.513,88.573,132.478z M186.758,98.819
			c1.517-5.878,13.084-6.448,13.084-6.448c-7.017,4.741-7.587,11.947-7.587,11.947c-1.326,20.669-5.688,23.514-9.479,25.411
			c-3.793,1.896-5.312,10.998-5.312,10.998C176.895,120.247,185.24,104.698,186.758,98.819z M113.509,98.819
			c1.518,5.878,9.861,21.428,9.292,41.908c0,0-1.518-9.101-5.31-10.998c-3.792-1.897-8.153-4.742-9.481-25.411
			c0,0-0.57-7.206-7.586-11.947C100.425,92.371,111.992,92.941,113.509,98.819z"/>
		<path fill="#38B349" d="M241.14,274.303c0,0-36.802-15.381-74.669-31.535c34.146-14.342,66.119-27.785,67.506-28.355
			c2.87-1.182,6.566-6.857,10.577-4.693c0.001,0.001,0.004,0.001,0.005,0.003c3.668,2.255,7.729,5.565,10.45-4.54
			c3.151-11.709-16.211-8.555-16.211-8.555c9.455-1.352,6.754-12.609-2.25-13.286c-9.006-0.675-13.96,17.338-21.615,23.191
			c-3.289,2.516-32.526,15.385-64.8,29.243c-32.273-13.858-61.511-26.728-64.8-29.243c-7.655-5.854-12.609-23.866-21.615-23.191
			c-9.005,0.677-11.707,11.935-2.25,13.286c0,0-19.363-3.154-16.212,8.555c2.721,10.105,6.783,6.795,10.451,4.54
			c0.001-0.002,0.002-0.002,0.005-0.003c4.01-2.164,7.706,3.512,10.576,4.693c1.387,0.57,33.361,14.015,67.506,28.356
			c-37.867,16.154-74.668,31.534-74.668,31.534c-4.504-5.403-14.86,1.352-14.185,5.403c0.675,4.053,7.656,1.126,5.629,7.431
			c-2.027,6.303,8.33,7.881,13.958,6.529c2.747-0.657,2.915-3.194,2.373-5.615h0c0,0,4.458-5.586,17.292-10.82
			c5.652-2.306,34.819-14.535,65.938-27.601c31.118,13.065,60.285,25.295,65.937,27.601c12.836,5.234,17.293,10.82,17.293,10.82
			h0.003c-0.544,2.421-0.375,4.958,2.371,5.615c5.627,1.352,15.986-0.227,13.958-6.529c-2.026-6.305,4.956-3.378,5.63-7.431
			C256,275.655,245.642,268.9,241.14,274.303z"/>
	</g>
	<path fill="#D7088A" d="M171.226,137.218c0,0-12.889-14.222-21.094-14.222c-8.204,0-17.306,9.955-20.151,16.498
		c0,0,0.854-12.231,6.827-16.498c0,0-0.284-22.471,2.276-27.876c0,0,3.698,3.414,4.551,9.671c0,0,1.333-19.911,6.497-20.764
		c0,0,5.733,13.938,6.587,21.617c0,0,1.707-9.955,3.982-10.524c0,0,3.697,21.902,2.845,26.738
		C163.547,121.858,171.795,132.098,171.226,137.218z"/>
</g>
<g id="Calque_3" display="none">
</g>
</svg>
