<?xml version="1.0" encoding="utf-8"?>
<!-- Generator: Adobe Illustrator 16.0.0, SVG Export Plug-In . SVG Version: 6.00 Build 0)  -->
<!DOCTYPE svg PUBLIC "-//W3C//DTD SVG 1.1//EN" "http://www.w3.org/Graphics/SVG/1.1/DTD/svg11.dtd">
<svg version="1.1" xmlns="http://www.w3.org/2000/svg" xmlns:xlink="http://www.w3.org/1999/xlink" x="0px" y="0px"
	 width="299.99px" height="299.99px" viewBox="0 0 299.99 299.99" enable-background="new 0 0 299.99 299.99" xml:space="preserve">
<g id="Calque_2" display="none">
	<ellipse display="inline" fill="#F4BAE1" cx="160.828" cy="171.162" rx="332.333" ry="250"/>
</g>
<g id="Calque_4">
	<path fill="#BABABA" d="M123.1,144.329"/>
	<path d="M217.951,77.296c-7.396,3.129-16.782-10.24-20.196-15.929c-3.413-5.689,8.249-24.462,11.663-31.857
		c3.413-7.396,3.697-17.636-2.276-9.671c-5.973,7.964-20.575,25.884-26.453,24.557s-20.859-7.585-23.704-9.86
		c-2.372-1.898-5.658-2.606-6.687-2.791V31.69c0,0-0.062,0.008-0.165,0.026c-0.103-0.018-0.164-0.026-0.164-0.026v0.054
		c-1.029,0.185-4.315,0.893-6.688,2.791c-2.844,2.275-17.825,8.533-23.704,9.86s-20.48-16.593-26.453-24.557
		s-5.689,2.276-2.275,9.671c3.413,7.396,15.075,26.168,11.662,31.857c-3.414,5.689-12.8,19.058-20.196,15.929
		s-13.084-3.129-8.817,3.982s7.68,43.235,15.075,51.2s11.947,2.276,13.084,5.973c1.138,3.698,7.396,11.378,7.396,11.378
		l10.809,2.275c0,0-12.8,14.791-12.231,22.756c0.569,7.965,9.956-3.982,12.8-1.422c2.844,2.56,0.853,9.955,8.249,20.764
		c6.182,9.035,12.94,13.685,15,14.972c-0.91-4.716-4.584-15.029-8.6-22.367c-4.125-7.538-3.698-16.213-3.698-16.213
		c0.426,3.129,2.844,10.098,7.253,16.925c4.409,6.826,5.689,22.044,5.689,22.044s-0.284,6.258,1.422,7.68
		c1.357,1.132,3.429,1.72,4.223,1.916v0.075c0,0,0.063-0.014,0.164-0.037c0.103,0.023,0.165,0.037,0.165,0.037v-0.075
		c0.794-0.196,2.865-0.784,4.222-1.916c1.707-1.422,1.423-7.68,1.423-7.68s1.279-15.218,5.688-22.044
		c4.409-6.827,6.827-13.796,7.253-16.925c0,0,0.427,8.675-3.697,16.213c-4.016,7.338-7.688,17.651-8.6,22.367
		c2.06-1.287,8.817-5.937,15-14.972c7.396-10.809,5.404-18.204,8.248-20.764c2.845-2.561,12.231,9.387,12.801,1.422
		c0.568-7.965-12.231-22.756-12.231-22.756l10.809-2.275c0,0,6.258-7.68,7.396-11.378c1.138-3.697,5.689,1.991,13.085-5.973
		s10.809-44.088,15.075-51.2S225.346,74.167,217.951,77.296z M122.802,140.727c0,0-1.518-9.101-5.31-10.998
		c-3.792-1.897-8.153-4.742-9.481-25.411c0,0-0.57-7.206-7.586-11.947c0,0,11.567,0.569,13.084,6.448
		C115.027,104.698,123.37,120.247,122.802,140.727z M192.255,104.318c-1.326,20.669-5.688,23.514-9.479,25.411
		c-3.793,1.896-5.312,10.998-5.312,10.998c-0.568-20.48,7.776-36.029,9.294-41.908c1.517-5.878,13.084-6.448,13.084-6.448
		C192.825,97.112,192.255,104.318,192.255,104.318z"/>
	<path d="M238.799,196.628c9.455-1.352,6.754-12.609-2.25-13.286c-9.006-0.675-13.96,17.338-21.615,23.191
		c-7.654,5.854-155.808,67.771-155.808,67.771c-4.504-5.403-14.86,1.352-14.185,5.403c0.675,4.053,7.656,1.126,5.629,7.431
		c-2.027,6.303,8.33,7.881,13.958,6.529c2.747-0.657,2.915-3.194,2.373-5.615h0c0,0,4.458-5.586,17.292-10.82
		c12.833-5.235,146.912-61.637,149.783-62.818c2.87-1.182,6.566-6.857,10.577-4.693c0.001,0.001,0.004,0.001,0.005,0.003
		c3.668,2.255,7.729,5.565,10.45-4.54C258.161,193.473,238.799,196.628,238.799,196.628z"/>
	<path d="M61.468,196.628c-9.457-1.352-6.755-12.609,2.25-13.286c9.006-0.675,13.96,17.338,21.615,23.191
		c7.654,5.854,155.808,67.771,155.808,67.771c4.502-5.403,14.859,1.352,14.184,5.403c-0.674,4.053-7.656,1.126-5.63,7.431
		c2.028,6.303-8.331,7.881-13.958,6.529c-2.746-0.657-2.915-3.194-2.371-5.615h-0.003c0,0-4.457-5.586-17.293-10.82
		c-12.833-5.235-146.91-61.637-149.781-62.818c-2.87-1.182-6.566-6.857-10.576-4.693c-0.003,0.001-0.004,0.001-0.005,0.003
		c-3.668,2.255-7.73,5.565-10.451-4.54C42.104,193.473,61.468,196.628,61.468,196.628z"/>
	<path fill="#BABABA" d="M171.226,137.218c0,0-12.889-14.222-21.094-14.222c-8.204,0-17.306,9.955-20.151,16.498
		c0,0,0.854-12.231,6.827-16.498c0,0-0.284-22.471,2.276-27.876c0,0,3.698,3.414,4.551,9.671c0,0,1.333-19.911,6.497-20.764
		c0,0,5.733,13.938,6.587,21.617c0,0,1.707-9.955,3.982-10.524c0,0,3.697,21.902,2.845,26.738
		C163.547,121.858,171.795,132.098,171.226,137.218z"/>
</g>
<g id="Calque_3" display="none">
</g>
</svg>
