<?xml version="1.0" encoding="utf-8"?>
<!-- Generator: Adobe Illustrator 16.0.0, SVG Export Plug-In . SVG Version: 6.00 Build 0)  -->
<!DOCTYPE svg PUBLIC "-//W3C//DTD SVG 1.1//EN" "http://www.w3.org/Graphics/SVG/1.1/DTD/svg11.dtd">
<svg version="1.1" id="Calque_1" xmlns="http://www.w3.org/2000/svg" xmlns:xlink="http://www.w3.org/1999/xlink" x="0px" y="0px"
	 width="299.99px" height="299.99px" viewBox="0 0 299.99 299.99" enable-background="new 0 0 299.99 299.99" xml:space="preserve">
<g>
	<g>
		<g>
			<path fill="#0A4E9B" d="M69.804,266.902c-12.43,0-22.543-10.111-22.543-22.539v-99.784l99.541-82.619l99.557,81.845v100.559
				c0,12.428-10.111,22.539-22.539,22.539H69.804z"/>
			<path fill="#FFFFFF" d="M146.816,67.806l95.035,78.128v98.429c0,9.96-8.078,18.031-18.031,18.031H69.804
				c-9.953,0-18.035-8.071-18.035-18.031v-97.667L146.816,67.806 M146.789,56.113l-5.73,4.756l-95.047,78.889l-3.258,2.704v4.233
				v97.667c0,14.914,12.135,27.047,27.051,27.047H223.82c14.914,0,27.047-12.133,27.047-27.047v-98.429v-4.259l-3.29-2.705
				l-95.035-78.128L146.789,56.113L146.789,56.113z"/>
		</g>
		<rect x="109.804" y="157.771" fill="#FFFFFF" width="28.168" height="28.176"/>
		<rect x="109.804" y="199.47" fill="#FFFFFF" width="28.168" height="28.172"/>
		<rect x="154.633" y="157.771" fill="#FFFFFF" width="28.176" height="28.176"/>
		<rect x="154.633" y="199.47" fill="#FFFFFF" width="28.176" height="28.172"/>
		<g>
			<path fill="#0A4E9B" d="M28.958,151.182c-6.503,0-12.661-2.827-16.894-7.757c-3.876-4.509-5.762-10.26-5.309-16.191
				c0.452-5.926,3.185-11.323,7.694-15.196L131.587,11.474c2.414-2.07,5.228-3.572,8.365-4.466c0.203-0.06,0.44-0.112,0.679-0.156
				c1.279-0.327,2.316-0.519,3.346-0.619c0.365-0.038,0.768-0.052,1.171-0.052l0.654,0.001l0.495-0.008
				c0.229-0.005,0.458-0.01,0.687-0.01c0.363,0,0.726,0.012,1.088,0.044c1.116,0.1,2.142,0.317,3.017,0.512l0.111,0.026l0.049,0.005
				c0.286,0.049,0.568,0.105,0.833,0.178c1.184,0.324,2.349,0.761,3.552,1.335c0.096,0.037,0.188,0.076,0.28,0.118l0.133,0.063
				c1.75,0.873,3.198,1.798,4.425,2.83l118.621,98.799c9.424,7.866,10.699,21.927,2.848,31.349
				c-4.241,5.093-10.475,8.015-17.1,8.015c-0.001,0-0.002,0-0.002,0c-5.192,0-10.249-1.838-14.237-5.173L146.368,57.464
				L43.448,145.816C39.412,149.277,34.266,151.182,28.958,151.182z"/>
			<path fill="#FFFFFF" d="M146.983,10.673c0.23,0,0.46,0.006,0.689,0.027c0.816,0.073,1.633,0.243,2.434,0.421
				c0.258,0.064,0.539,0.091,0.785,0.158c1.02,0.278,1.992,0.662,2.938,1.121c0.059,0.032,0.137,0.05,0.207,0.082
				c1.223,0.609,2.441,1.326,3.535,2.246l118.637,98.812c7.523,6.28,8.547,17.467,2.27,24.999
				c-3.513,4.217-8.558,6.393-13.639,6.393c-4.005,0-8.033-1.353-11.346-4.123L146.324,51.561L40.511,142.395
				c-3.35,2.873-7.461,4.279-11.554,4.279c-4.997,0-9.964-2.099-13.474-6.186c-6.395-7.439-5.531-18.646,1.902-25.031
				L134.523,14.895c2.004-1.718,4.281-2.872,6.664-3.551c0.16-0.047,0.328-0.064,0.488-0.105c0.91-0.234,1.813-0.428,2.738-0.518
				c0.24-0.025,0.486-0.03,0.733-0.03c0.173,0,0.346,0.002,0.517,0.002c0.073,0,0.146,0,0.219-0.002
				C146.25,10.689,146.616,10.673,146.983,10.673 M146.983,1.657c-0.264,0-0.528,0.005-0.792,0.012
				c-0.118,0.002-0.235,0.006-0.353,0.006l-0.061,0l-0.06,0.001l-0.053,0l-0.192-0.001l-0.325-0.001
				c-0.415,0-0.972,0.008-1.622,0.074c-1.541,0.151-2.914,0.46-3.872,0.701c-0.23,0.045-0.561,0.116-0.95,0.228
				c-3.762,1.074-7.143,2.882-10.048,5.374L11.514,108.617c-5.424,4.659-8.71,11.148-9.254,18.275
				c-0.544,7.133,1.724,14.049,6.387,19.474c5.087,5.925,12.491,9.324,20.311,9.324c6.384,0,12.571-2.291,17.422-6.451
				l100.032-85.872l101.31,84.369c4.784,4.001,10.868,6.211,17.115,6.211c7.969,0,15.465-3.513,20.566-9.639
				c9.44-11.327,7.906-28.236-3.42-37.69L163.34,7.801c-1.472-1.238-3.21-2.354-5.283-3.388l-0.132-0.065l-0.135-0.062
				c-0.126-0.058-0.245-0.109-0.355-0.154c-1.399-0.659-2.767-1.167-4.17-1.55c-0.522-0.143-0.969-0.222-1.222-0.266
				c-1.081-0.241-2.261-0.479-3.566-0.596C147.998,1.677,147.512,1.657,146.983,1.657L146.983,1.657z"/>
		</g>
		<g>
			<path fill="#0A4E9B" d="M200.519,42.684V19.69c0-7.458,6.068-13.525,13.527-13.525h17.613c7.455,0,13.52,6.067,13.52,13.525
				v60.061L200.519,42.684z"/>
			<path fill="#FFFFFF" d="M231.66,10.673c4.98,0,9.012,4.037,9.012,9.017v50.461l-35.645-29.584V19.69
				c0-4.98,4.035-9.017,9.02-9.017H231.66 M231.66,1.657h-17.613c-9.944,0-18.035,8.089-18.035,18.033v20.877v4.234l3.258,2.704
				l35.645,29.584l14.773,12.262V70.152V19.69C249.687,9.747,241.6,1.657,231.66,1.657L231.66,1.657z"/>
		</g>
	</g>
	<g>
		<path fill="#6DCEF5" d="M248.172,104.806c-19.148,0-34.672,15.522-34.672,34.67c0,19.146,15.523,34.669,34.672,34.669
			c19.145,0,34.668-15.522,34.668-34.669C282.84,120.329,267.316,104.806,248.172,104.806z M248.172,167.582
			c-15.523,0-28.105-12.583-28.105-28.105s12.582-28.106,28.105-28.106s28.105,12.583,28.105,28.106
			S263.695,167.582,248.172,167.582z"/>
		<g>
			<path fill="#6DCEF5" d="M283.034,297.135c-2.247,0-4.122-1.242-5.491-2.148c-0.212-0.14-0.417-0.276-0.612-0.398
				c-1.1-0.693-2.583-1.375-4.154-2.097c-3.428-1.573-7.313-3.357-9.494-6.343c-2.07-2.835-1.705-5.548-1.438-7.529
				c0.106-0.795,0.201-1.494,0.128-2.068c-0.165-0.15-0.465-0.376-0.678-0.535c-1.031-0.773-2.588-1.94-3.139-4.063
				c-0.56-2.156,0.196-4.002,0.921-5.437c-1.169-0.58-2.354-1.439-3.208-2.71c-1.031-1.533-1.341-3.332-0.895-5.202
				c0.21-0.854,0.608-1.598,0.959-2.254c0.075-0.14,0.17-0.317,0.26-0.494c-0.129-0.057-0.259-0.112-0.369-0.159
				c-1.232-0.522-3.096-1.313-4.023-3.472c-0.897-2.083-0.1-3.794,0.329-4.713c0.001-0.001,0.001-0.002,0.002-0.003
				c-0.765-1.149-2.368-3.249-3.081-4.1c-0.096-0.01-0.203-0.02-0.294-0.028c-1.069-0.096-3.295-0.296-4.544-2.644
				c-1.031-1.945-0.783-3.883-0.602-5.297c0.079-0.621,0.188-1.471,0.05-1.66c-0.484-0.675-1.364-1.153-2.947-1.61
				c-13.68-2.588-24.996-12.328-29.558-25.451c-3.423-9.816-2.816-20.382,1.71-29.746c4.525-9.363,12.426-16.404,22.245-19.826
				c4.147-1.446,8.459-2.179,12.813-2.179c16.542,0,31.318,10.502,36.77,26.133c4.896,14.052,1.757,27.945-9.079,40.179
				c-0.729,0.821-0.045,2.288-0.038,2.303l0.097,0.202l0.086,0.257l3.04,10.021l-2.673,0.969c-0.29,0.105-0.462,0.217-0.512,0.332
				c-0.53,1.236,1.102,4.963,1.978,6.966c0.461,1.053,0.896,2.047,1.211,2.95c1.796,5.146,3.401,10.421,4.955,15.521
				c1.521,4.998,3.095,10.166,4.834,15.165c0.203,0.58,0.524,1.333,0.865,2.131c1.526,3.574,3.427,8.022,1.568,11.693
				c-1.612,3.193-3.674,6.549-6.733,7.21C283.9,297.088,283.469,297.135,283.034,297.135L283.034,297.135z M241.07,170.351
				c-0.434,0-0.865,0.074-1.283,0.22c-0.982,0.343-1.772,1.046-2.225,1.979c-0.451,0.933-0.512,1.984-0.17,2.962
				c0.546,1.564,2.025,2.614,3.68,2.614c0.434,0,0.865-0.073,1.282-0.218c2.01-0.707,3.083-2.927,2.378-4.943
				C244.186,171.402,242.715,170.351,241.07,170.351z"/>
			<path fill="#FFFFFF" d="M247.925,157.967c14.863,0,28.769,9.296,33.938,24.122c4.68,13.429,1.313,26.135-8.492,37.204
				c-2.129,2.398-0.48,5.619-0.48,5.619l2.215,7.301c-5.574,2.021-0.566,9.937,0.867,14.053c3.535,10.13,6.254,20.526,9.789,30.686
				c1.066,3.054,4.168,8.367,2.59,11.485c-0.855,1.694-2.684,5.199-4.691,5.633c-0.208,0.047-0.417,0.068-0.626,0.068
				c-1.617,0-3.234-1.288-4.511-2.089c-3.699-2.333-10.211-4.096-12.82-7.668c-2.219-3.038-0.188-5.778-0.844-8.712
				c-0.422-1.821-3.246-2.328-3.801-4.468c-0.59-2.271,1.703-4.313,2.027-6.541v-0.002c-2.664-0.407-5.973-2.1-5.195-5.358
				c0.352-1.429,2.254-3.393,1.293-4.88c-1.051-1.64-3.785-1.417-4.629-3.379c-0.641-1.487,0.844-2.523,0.75-3.932
				c-0.059-0.712-3.609-5.27-4.277-5.993c-1.184-1.279-3.266-0.091-4.168-1.786c-1.23-2.321,0.824-5.123-0.777-7.316
				c-1.102-1.537-2.859-2.251-4.68-2.764c-12.285-2.277-23.023-10.882-27.414-23.515c-6.535-18.74,3.371-39.228,22.109-45.757
				C240.012,158.614,244.001,157.967,247.925,157.967 M241.072,181.125c0.751,0,1.515-0.123,2.264-0.383
				c3.582-1.26,5.48-5.177,4.227-8.766c-0.992-2.842-3.646-4.622-6.492-4.622c-0.752,0-1.518,0.124-2.27,0.386
				c-3.594,1.253-5.492,5.173-4.238,8.762C235.555,179.344,238.219,181.125,241.072,181.125 M247.925,151.97
				c-4.691,0-9.335,0.789-13.801,2.346c-10.575,3.686-19.083,11.269-23.957,21.353c-4.875,10.086-5.528,21.465-1.84,32.041
				c4.894,14.081,17.018,24.55,31.683,27.379c0.24,0.071,0.438,0.137,0.599,0.195c-0.204,1.626-0.455,4.198,0.953,6.854
				c1.609,3.022,4.288,3.845,5.922,4.109c0.396,0.509,0.857,1.115,1.271,1.678c-0.409,1.381-0.639,3.323,0.293,5.487
				c0.788,1.832,2.029,3.016,3.208,3.803c-0.068,0.209-0.132,0.426-0.188,0.651c-0.646,2.711-0.176,5.4,1.314,7.615
				c0.583,0.865,1.265,1.587,1.992,2.189c-0.423,1.434-0.613,3.135-0.12,5.036c0.693,2.675,2.417,4.284,3.652,5.257
				c-0.012,0.088-0.023,0.175-0.034,0.255c-0.297,2.203-0.793,5.89,1.988,9.697c2.642,3.616,6.903,5.573,10.664,7.3
				c1.479,0.679,2.875,1.32,3.8,1.903c0.188,0.118,0.372,0.241,0.563,0.367c1.592,1.054,3.997,2.646,7.146,2.646
				c0.646,0,1.289-0.07,1.912-0.208c4.279-0.936,6.828-4.966,8.758-8.787c2.486-4.912,0.188-10.292-1.489-14.22
				c-0.32-0.749-0.622-1.457-0.793-1.944c-1.718-4.937-3.282-10.076-4.795-15.047c-1.563-5.129-3.177-10.434-4.993-15.638
				c-0.352-1.01-0.81-2.056-1.295-3.164c-0.445-1.017-1.157-2.645-1.542-3.873l3.696-1.341l-1.65-5.439l-2.215-7.301l-0.176-0.582
				c11.119-12.934,14.257-27.6,9.073-42.474C281.654,163.28,265.74,151.97,247.925,151.97L247.925,151.97z M241.072,175.13
				c-0.317,0-0.703-0.188-0.85-0.605c-0.099-0.282-0.033-0.52,0.038-0.668c0.073-0.151,0.222-0.353,0.514-0.455
				c0.1-0.034,0.197-0.052,0.296-0.052c0.31,0,0.686,0.187,0.831,0.603c0.161,0.462-0.088,0.97-0.555,1.134
				C241.27,175.112,241.173,175.13,241.072,175.13L241.072,175.13z"/>
		</g>
		<g>
			<path fill="#0A4E9B" d="M201.993,296.932c-0.993,0-1.89-0.193-2.665-0.573c-2.566-1.232-3.462-3.963-4.054-5.769
				c-0.079-0.241-0.155-0.474-0.232-0.691c-0.432-1.222-1.174-2.676-1.959-4.215c-1.714-3.36-3.657-7.169-3.521-10.865
				c0.136-3.513,2.105-5.416,3.543-6.805c0.575-0.556,1.081-1.044,1.383-1.539c-0.036-0.221-0.132-0.582-0.199-0.839
				c-0.329-1.244-0.826-3.124,0.057-5.131c0.901-2.042,2.636-3.021,4.092-3.697c-0.56-1.18-0.957-2.587-0.842-4.114
				c0.14-1.842,1.01-3.445,2.518-4.638c0.707-0.544,1.478-0.879,2.157-1.174c0.146-0.063,0.333-0.145,0.514-0.228
				c-0.065-0.125-0.134-0.249-0.191-0.354c-0.643-1.176-1.613-2.951-1.004-5.222c0.58-2.185,2.266-3.034,3.172-3.49
				c0.001,0,0.002-0.001,0.004-0.002c0.113-1.377,0.159-4.048,0.127-5.128c-0.068-0.067-0.147-0.142-0.214-0.204
				c-0.777-0.737-2.396-2.271-1.925-4.882c0.396-2.173,1.794-3.54,2.815-4.539c0.447-0.438,1.06-1.037,1.068-1.273
				c0.036-0.823-0.36-1.747-1.322-3.085c-9.125-10.513-11.965-25.173-7.408-38.296c5.421-15.671,20.204-26.201,36.786-26.201
				c4.327,0,8.613,0.724,12.737,2.151c9.831,3.402,17.746,10.43,22.29,19.787c4.542,9.356,5.17,19.922,1.766,29.752
				c-4.864,14.058-15.94,23.013-32.03,25.897c-1.059,0.187-1.444,1.726-1.448,1.741l-0.052,0.264l-3.921,9.994l-2.696-0.895
				c-0.23-0.076-0.377-0.093-0.459-0.093c-1.164,0-2.49,5.075-2.927,6.742c-0.289,1.106-0.562,2.151-0.872,3.051
				c-1.777,5.139-3.78,10.259-5.718,15.21c-1.908,4.879-3.883,9.924-5.619,14.939c-0.203,0.584-0.418,1.376-0.646,2.215
				c-1.021,3.749-2.289,8.414-6.024,10.138C207.042,295.827,204.384,296.932,201.993,296.932z M241.5,169.348
				c-1.653,0-3.123,1.046-3.656,2.603c-0.346,0.992-0.285,2.041,0.165,2.972c0.453,0.938,1.246,1.643,2.231,1.985
				c0.408,0.14,0.837,0.213,1.268,0.213c1.652,0,3.126-1.051,3.667-2.614c0.342-0.986,0.281-2.042-0.17-2.973
				c-0.45-0.93-1.239-1.629-2.222-1.968C242.365,169.422,241.933,169.348,241.5,169.348z"/>
			<path fill="#FFFFFF" d="M234.692,156.976c3.898,0,7.866,0.64,11.757,1.986c18.762,6.494,28.699,26.967,22.203,45.725
				c-4.648,13.435-15.176,21.319-29.727,23.928c-3.156,0.559-3.859,4.11-3.859,4.11l-2.785,7.1c-0.504-0.167-0.97-0.244-1.402-0.244
				c-4.408,0-5.338,8.061-6.633,11.812c-3.508,10.142-7.816,19.984-11.336,30.146c-1.059,3.053-1.922,9.148-5.094,10.612
				c-1.358,0.638-3.908,1.783-5.823,1.783c-0.503,0-0.962-0.079-1.345-0.267c-1.688-0.811-2.211-3.165-2.781-4.771
				c-1.457-4.123-5.473-9.542-5.309-13.966c0.145-3.759,3.43-4.649,4.742-7.356c0.797-1.692-1.102-3.836-0.211-5.861
				c0.949-2.149,4.004-2.328,5.645-3.877v-0.003c-1.84-1.973-3.387-5.349-0.762-7.425c1.172-0.901,3.883-1.264,4.051-3.026
				c0.188-1.941-2.094-3.461-1.539-5.524c0.414-1.561,2.219-1.455,3.016-2.617c0.398-0.595,0.445-6.374,0.363-7.352
				c-0.129-1.739-2.5-2.097-2.16-3.984c0.473-2.589,3.824-3.511,3.93-6.228c0.082-1.889-0.855-3.54-1.969-5.068
				c-8.223-9.403-11.313-22.812-6.926-35.445C205.88,166.299,219.802,156.976,234.692,156.976 M241.508,180.119
				c2.854,0,5.516-1.784,6.5-4.633c1.246-3.598-0.645-7.51-4.246-8.754c-0.749-0.259-1.512-0.382-2.262-0.382
				c-2.854,0.001-5.518,1.783-6.492,4.63c-1.254,3.59,0.656,7.513,4.25,8.76C240.003,179.997,240.761,180.119,241.508,180.119
				 M234.692,150.98c-17.859,0-33.781,11.342-39.62,28.223c-4.891,14.082-1.869,29.814,7.883,41.127
				c0.145,0.204,0.259,0.378,0.35,0.524c-1.17,1.15-2.96,3.014-3.5,5.973c-0.606,3.367,0.983,5.67,2.099,6.888
				c-0.004,0.642-0.019,1.404-0.043,2.104c-1.179,0.831-2.565,2.216-3.171,4.5c-0.516,1.917-0.274,3.61,0.161,4.957
				c-0.178,0.117-0.356,0.243-0.533,0.379l-0.032,0.025l-0.032,0.024c-2.15,1.701-3.445,4.103-3.646,6.763
				c-0.078,1.041,0.01,2.03,0.208,2.954c-1.217,0.862-2.418,2.076-3.209,3.869c-1.114,2.533-0.764,4.862-0.399,6.39
				c-0.063,0.062-0.125,0.121-0.183,0.178c-1.599,1.544-4.275,4.129-4.456,8.842c-0.166,4.483,1.965,8.661,3.846,12.347
				c0.738,1.448,1.437,2.816,1.801,3.848c0.072,0.204,0.141,0.413,0.212,0.63c0.659,2.01,1.886,5.751,5.627,7.548
				c1.145,0.563,2.485,0.858,3.94,0.858c2.983,0,6.042-1.258,8.373-2.353c4.967-2.292,6.502-7.936,7.623-12.056
				c0.215-0.788,0.417-1.532,0.586-2.019c1.718-4.962,3.681-9.979,5.579-14.831c1.948-4.979,3.962-10.126,5.759-15.32
				c0.349-1.012,0.636-2.11,0.94-3.274c0.263-1.008,0.727-2.779,1.197-4.013l3.737,1.239l2.075-5.29l2.785-7.1l0.221-0.563
				c16.75-3.26,28.301-12.823,33.449-27.703c3.666-10.585,2.99-21.964-1.902-32.041s-13.418-17.646-24.006-21.311
				C243.969,151.76,239.354,150.98,234.692,150.98L234.692,150.98z M241.508,174.123c-0.1,0-0.197-0.018-0.299-0.053
				c-0.278-0.096-0.428-0.3-0.501-0.452c-0.104-0.216-0.117-0.438-0.04-0.66c0.148-0.434,0.522-0.611,0.833-0.611
				c0.101,0,0.2,0.018,0.303,0.053c0.23,0.08,0.399,0.229,0.503,0.441c0.072,0.149,0.138,0.39,0.035,0.684
				C242.199,173.938,241.82,174.123,241.508,174.123L241.508,174.123z"/>
		</g>
		<g>
			<path fill="#6DCEF5" d="M248.172,111.37v-6.564c-19.148,0-34.672,15.522-34.672,34.67c0,14.641,9.09,27.131,21.93,32.216
				c1.5,0.597,3.063,1.074,4.66,1.461c0.199,0.047,0.375,0.132,0.57,0.176c0.027,0.006,0.059-0.015,0.086-0.012
				c2.395,0.526,4.871,0.828,7.426,0.828V172c-0.383-2.041-1.652-3.789-3.578-4.778c-1.328-0.17-2.617-0.419-3.883-0.767
				c-0.016,0.003-0.035,0.012-0.059,0.015c-11.852-3.3-20.586-14.089-20.586-26.993C220.066,123.954,232.648,111.37,248.172,111.37z
				"/>
		</g>
	</g>
</g>
</svg>
