<?xml version="1.0" encoding="utf-8"?>
<!-- Generator: Adobe Illustrator 16.0.0, SVG Export Plug-In . SVG Version: 6.00 Build 0)  -->
<!DOCTYPE svg PUBLIC "-//W3C//DTD SVG 1.1//EN" "http://www.w3.org/Graphics/SVG/1.1/DTD/svg11.dtd">
<svg version="1.1" id="Calque_1" xmlns="http://www.w3.org/2000/svg" xmlns:xlink="http://www.w3.org/1999/xlink" x="0px" y="0px"
	 width="299.99px" height="299.99px" viewBox="0 0 299.99 299.99" enable-background="new 0 0 299.99 299.99" xml:space="preserve">
<g>
	<g>
		<g>
			<path fill="#231F20" d="M54.51,179.591c-8.094,0-14.679-6.587-14.679-14.683V99.912l64.834-53.817l64.848,53.314v65.5
				c0,8.096-6.585,14.683-14.679,14.683H54.51z"/>
			<path fill="#FFFFFF" d="M104.674,49.903l61.903,50.893v64.112c0,6.486-5.258,11.746-11.742,11.746H54.51
				c-6.484,0-11.742-5.26-11.742-11.746v-63.617L104.674,49.903 M104.656,42.286l-3.733,3.099L39.017,96.772l-2.122,1.761v2.757
				v63.617c0,9.715,7.902,17.619,17.615,17.619h100.325c9.713,0,17.615-7.904,17.615-17.619v-64.112v-2.774l-2.144-1.762
				l-61.903-50.893L104.656,42.286L104.656,42.286z"/>
		</g>
		<rect x="80.565" y="108.506" fill="#FFFFFF" width="18.352" height="18.352"/>
		<rect x="80.565" y="135.667" fill="#FFFFFF" width="18.352" height="18.351"/>
		<rect x="109.768" y="108.506" fill="#FFFFFF" width="18.352" height="18.352"/>
		<rect x="109.768" y="135.667" fill="#FFFFFF" width="18.352" height="18.351"/>
		<g>
			<path fill="#231F20" d="M27.903,104.214c-4.237,0-8.248-1.842-11.004-5.054c-2.523-2.937-3.751-6.682-3.457-10.545
				c0.294-3.86,2.074-7.375,5.01-9.898l76.305-65.505c1.563-1.343,3.395-2.322,5.444-2.909c0.171-0.046,0.295-0.073,0.419-0.096
				c0.567-0.144,1.35-0.326,2.208-0.408c0.224-0.024,0.486-0.034,0.749-0.034l0.469,0.001c0,0,0.576-0.012,0.729-0.012
				c0.239,0,0.479,0.008,0.716,0.029c0.712,0.062,1.364,0.199,1.97,0.335c0.273,0.048,0.46,0.085,0.644,0.135
				c0.779,0.213,1.544,0.501,2.338,0.879c0.037,0.015,0.241,0.107,0.241,0.107c1.133,0.563,2.077,1.165,2.884,1.841l77.268,64.358
				c6.141,5.125,6.973,14.285,1.857,20.421c-2.763,3.317-6.823,5.22-11.141,5.22c0,0,0,0-0.001,0c-3.382,0-6.675-1.196-9.274-3.367
				l-67.894-56.544l-67.038,57.551C34.713,102.973,31.36,104.214,27.903,104.214z"/>
			<path fill="#FFFFFF" d="M104.775,12.689c0.153,0,0.306,0.004,0.458,0.018c0.531,0.046,1.059,0.157,1.586,0.275
				c0.168,0.04,0.344,0.057,0.512,0.103c0.66,0.181,1.297,0.431,1.914,0.729c0.043,0.023,0.086,0.034,0.133,0.055
				c0.797,0.396,1.59,0.863,2.305,1.462l77.274,64.363c4.902,4.092,5.57,11.379,1.48,16.285c-2.287,2.747-5.574,4.164-8.885,4.164
				c-2.609,0-5.233-0.881-7.393-2.684l-69.805-58.136L35.432,98.49c-2.184,1.872-4.864,2.788-7.529,2.788
				c-3.255,0-6.49-1.367-8.775-4.03c-4.164-4.846-3.602-12.146,1.238-16.304L96.67,15.439c1.301-1.118,2.785-1.869,4.34-2.314
				c0.105-0.028,0.211-0.04,0.316-0.068c0.598-0.152,1.18-0.278,1.781-0.336c0.156-0.017,0.312-0.021,0.47-0.021
				c0.117,0,0.234,0.002,0.353,0.002c0.046,0,0.092,0,0.139-0.001C104.303,12.699,104.539,12.689,104.775,12.689 M104.775,6.817
				c-0.175,0-0.351,0.003-0.525,0.007l-0.225,0.004l-0.031,0l-0.032,0l-0.158,0l-0.226-0.001c-0.25,0-0.629,0.005-1.065,0.051
				c-0.988,0.097-1.86,0.292-2.528,0.46c-0.171,0.034-0.334,0.071-0.497,0.115L99.44,7.466l-0.047,0.014
				c-2.459,0.705-4.664,1.884-6.551,3.507L16.54,76.488c-3.532,3.034-5.672,7.261-6.026,11.903
				c-0.354,4.646,1.123,9.151,4.159,12.685c3.312,3.859,8.135,6.075,13.229,6.075c4.158,0,8.189-1.492,11.351-4.201l65.158-55.937
				l65.99,54.958c3.119,2.605,7.081,4.044,11.15,4.044c5.191,0,10.075-2.289,13.397-6.278c6.149-7.377,5.15-18.392-2.23-24.551
				L115.44,10.818c-0.975-0.817-2.108-1.543-3.452-2.21l-0.127-0.063l-0.131-0.057c-0.035-0.015-0.07-0.03-0.104-0.044
				c-0.915-0.43-1.838-0.774-2.745-1.022c-0.359-0.099-0.659-0.151-0.825-0.179c-0.663-0.148-1.44-0.31-2.318-0.385
				C105.442,6.83,105.123,6.817,104.775,6.817L104.775,6.817z"/>
		</g>
		<g>
			<path fill="#231F20" d="M139.659,33.541V18.562c0-4.857,3.951-8.81,8.808-8.81h11.469c4.858,0,8.812,3.952,8.812,8.81v39.123
				L139.659,33.541z"/>
			<path fill="#FFFFFF" d="M159.936,12.689c3.246,0,5.875,2.63,5.875,5.873v32.869l-23.215-19.27v-13.6
				c0-3.243,2.625-5.873,5.871-5.873H159.936 M159.936,6.817h-11.469c-6.476,0-11.744,5.269-11.744,11.746v13.6v2.757l2.122,1.761
				l23.215,19.27l9.624,7.988V51.431V18.562C171.684,12.086,166.414,6.817,159.936,6.817L159.936,6.817z"/>
		</g>
	</g>
	<g>
		<g>
			<path fill="#BBBDBF" d="M153.124,229.762c-8.096,0-14.683-6.587-14.683-14.683v-64.995l64.838-53.818l64.848,53.314v65.5
				c0,8.096-6.587,14.683-14.683,14.683H153.124z"/>
			<path fill="#FFFFFF" d="M203.288,100.075l61.902,50.893v64.112c0,6.486-5.258,11.746-11.746,11.746h-100.32
				c-6.485,0-11.747-5.26-11.747-11.746v-63.616L203.288,100.075 M203.27,92.458l-3.733,3.099l-61.911,51.389l-2.122,1.761v2.757
				v63.616c0,9.715,7.904,17.619,17.619,17.619h100.32c9.715,0,17.619-7.904,17.619-17.619v-64.112v-2.774l-2.144-1.762
				l-61.902-50.893L203.27,92.458L203.27,92.458z"/>
		</g>
		<rect x="179.178" y="158.677" fill="#FFFFFF" width="18.352" height="18.352"/>
		<rect x="179.178" y="185.838" fill="#FFFFFF" width="18.352" height="18.352"/>
		<rect x="208.382" y="158.677" fill="#FFFFFF" width="18.352" height="18.352"/>
		<rect x="208.382" y="185.838" fill="#FFFFFF" width="18.352" height="18.352"/>
		<g>
			<path fill="#BBBDBF" d="M126.516,154.386c-4.237,0-8.247-1.842-11.003-5.054c-2.524-2.937-3.752-6.683-3.457-10.546
				c0.294-3.86,2.074-7.375,5.01-9.898l76.301-65.505c1.571-1.346,3.403-2.324,5.45-2.909c0.133-0.039,0.277-0.07,0.424-0.098
				l-0.087,0.022c0.648-0.166,1.433-0.348,2.292-0.429c0.217-0.024,0.484-0.034,0.753-0.034l0.457,0.001c0,0,0.58-0.012,0.731-0.012
				c0.24,0,0.479,0.008,0.716,0.029c0.712,0.061,1.364,0.199,1.971,0.335c0.278,0.05,0.463,0.087,0.645,0.136
				c0.771,0.211,1.558,0.507,2.341,0.879c0.021,0.008,0.15,0.062,0.15,0.062l0.087,0.043c1.135,0.563,2.079,1.167,2.886,1.844
				l77.266,64.356c6.138,5.123,6.97,14.282,1.857,20.419c-2.762,3.318-6.823,5.221-11.141,5.221l0,0
				c-3.382,0-6.676-1.195-9.275-3.367L202.996,93.34l-67.038,57.549C133.326,153.145,129.974,154.386,126.516,154.386z"/>
			<path fill="#FFFFFF" d="M203.387,62.861c0.152,0,0.305,0.004,0.455,0.018c0.535,0.046,1.063,0.157,1.59,0.275
				c0.168,0.04,0.344,0.058,0.512,0.104c0.66,0.181,1.297,0.43,1.914,0.728c0.039,0.023,0.086,0.035,0.133,0.055
				c0.797,0.396,1.59,0.863,2.305,1.463l77.273,64.363c4.902,4.092,5.566,11.378,1.48,16.284c-2.287,2.747-5.574,4.164-8.885,4.164
				c-2.609,0-5.233-0.88-7.393-2.684l-69.805-58.135l-68.922,59.167c-2.184,1.872-4.864,2.788-7.529,2.788
				c-3.255,0-6.49-1.367-8.775-4.029c-4.164-4.847-3.602-12.147,1.238-16.305l76.301-65.505c1.305-1.118,2.789-1.869,4.344-2.313
				c0.102-0.029,0.211-0.04,0.316-0.069c0.594-0.151,1.18-0.278,1.781-0.335c0.158-0.018,0.317-0.021,0.477-0.021
				c0.114,0,0.229,0.002,0.344,0.002c0.045,0,0.091,0,0.137-0.001C202.916,62.871,203.152,62.861,203.387,62.861 M203.387,56.989
				c-0.174,0-0.349,0.003-0.524,0.007L202.635,57l-0.032,0l-0.032,0l-0.153,0L202.198,57c-0.251,0-0.631,0.005-1.067,0.051
				c-0.99,0.096-1.862,0.292-2.532,0.459c-0.146,0.029-0.355,0.074-0.603,0.145c-2.441,0.698-4.646,1.876-6.537,3.497
				l-76.305,65.508c-3.532,3.034-5.672,7.261-6.026,11.903c-0.354,4.646,1.123,9.15,4.159,12.685
				c3.313,3.859,8.135,6.075,13.229,6.075c4.158,0,8.189-1.492,11.351-4.202l65.158-55.936l65.989,54.957
				c3.119,2.605,7.082,4.044,11.15,4.044c5.192,0,10.075-2.288,13.397-6.278c6.146-7.38,5.146-18.394-2.23-24.55L214.054,60.99
				c-0.973-0.815-2.106-1.543-3.453-2.211l-0.172-0.085l-0.178-0.074c-0.004-0.001-0.008-0.003-0.012-0.005
				c-0.912-0.429-1.835-0.772-2.746-1.021c-0.355-0.098-0.653-0.15-0.815-0.179c-0.666-0.148-1.447-0.311-2.334-0.387
				C204.056,57.002,203.737,56.989,203.387,56.989L203.387,56.989z"/>
		</g>
		<g>
			<path fill="#BBBDBF" d="M238.269,83.714V68.734c0-4.857,3.953-8.81,8.812-8.81h11.469c4.856,0,8.808,3.952,8.808,8.81v39.124
				L238.269,83.714z"/>
			<path fill="#FFFFFF" d="M258.55,62.861c3.246,0,5.871,2.63,5.871,5.873v32.87l-23.215-19.27V68.734
				c0-3.243,2.629-5.873,5.875-5.873H258.55 M258.55,56.989h-11.469c-6.478,0-11.748,5.269-11.748,11.746v13.601v2.757l2.122,1.761
				l23.215,19.27l9.624,7.988v-12.507v-32.87C270.294,62.258,265.025,56.989,258.55,56.989L258.55,56.989z"/>
		</g>
	</g>
	<g>
		<g>
			<path fill="#231F20" d="M46.436,290.237c-8.094,0-14.679-6.586-14.679-14.682v-64.997l64.834-53.816l64.848,53.312v65.502
				c0,8.096-6.587,14.682-14.683,14.682H46.436z"/>
			<path fill="#FFFFFF" d="M96.6,160.551l61.903,50.891v64.114c0,6.486-5.258,11.745-11.747,11.745H46.436
				c-6.484,0-11.742-5.259-11.742-11.745v-63.618L96.6,160.551 M96.582,152.933l-3.733,3.099l-61.906,51.387l-2.122,1.761v2.758
				v63.618c0,9.715,7.902,17.617,17.615,17.617h100.32c9.715,0,17.62-7.902,17.62-17.617v-64.114v-2.774l-2.144-1.762
				l-61.903-50.891L96.582,152.933L96.582,152.933z"/>
		</g>
		<rect x="72.49" y="219.152" fill="#FFFFFF" width="18.352" height="18.352"/>
		<rect x="72.49" y="246.312" fill="#FFFFFF" width="18.352" height="18.353"/>
		<rect x="101.694" y="219.152" fill="#FFFFFF" width="18.352" height="18.352"/>
		<rect x="101.694" y="246.312" fill="#FFFFFF" width="18.352" height="18.353"/>
		<g>
			<path fill="#231F20" d="M19.829,214.861c-4.237,0-8.248-1.843-11.004-5.055c-2.523-2.937-3.751-6.683-3.457-10.546
				c0.294-3.86,2.074-7.375,5.01-9.898l76.306-65.503c1.562-1.344,3.395-2.324,5.446-2.91c0.146-0.041,0.279-0.07,0.413-0.095
				l-0.076,0.02c0.644-0.165,1.424-0.346,2.288-0.429c0.23-0.025,0.497-0.034,0.765-0.034l0.45,0c0,0,0.58-0.012,0.732-0.012
				c0.24,0,0.479,0.008,0.717,0.029c0.697,0.06,1.327,0.192,1.964,0.334c0.282,0.051,0.467,0.088,0.648,0.137
				c0.77,0.211,1.553,0.505,2.331,0.875c0.024,0.009,0.162,0.066,0.162,0.066l0.088,0.044c1.137,0.566,2.081,1.168,2.884,1.842
				l77.266,64.356c6.141,5.125,6.973,14.285,1.857,20.421c-2.762,3.316-6.822,5.22-11.14,5.22l0,0c-3.382,0-6.677-1.196-9.276-3.367
				l-67.894-56.543l-67.038,57.55C26.639,213.62,23.286,214.861,19.829,214.861z"/>
			<path fill="#FFFFFF" d="M96.7,123.336c0.153,0,0.306,0.004,0.458,0.018c0.531,0.046,1.059,0.158,1.586,0.275
				c0.168,0.04,0.344,0.058,0.512,0.104c0.66,0.181,1.297,0.43,1.914,0.729c0.039,0.022,0.086,0.034,0.133,0.054
				c0.797,0.396,1.59,0.863,2.305,1.463l77.274,64.362c4.902,4.092,5.57,11.379,1.48,16.285c-2.287,2.746-5.573,4.163-8.884,4.163
				c-2.609,0-5.234-0.881-7.394-2.685L96.28,149.969l-68.922,59.167c-2.184,1.872-4.863,2.788-7.529,2.788
				c-3.256,0-6.491-1.367-8.776-4.03c-4.164-4.846-3.602-12.146,1.238-16.305l76.305-65.503c1.301-1.119,2.785-1.87,4.34-2.314
				c0.102-0.028,0.211-0.04,0.316-0.069c0.594-0.151,1.18-0.277,1.781-0.335c0.161-0.018,0.323-0.021,0.485-0.021
				c0.109,0,0.218,0.001,0.327,0.001c0.048,0,0.096,0,0.145-0.001C96.227,123.345,96.465,123.336,96.7,123.336 M96.7,117.463
				c-0.175,0-0.35,0.003-0.525,0.007l-0.229,0.004l-0.032,0l-0.032,0l-0.158,0l-0.206-0.001c-0.275,0-0.645,0.006-1.079,0.051
				c-1,0.099-1.875,0.295-2.542,0.463c-0.189,0.038-0.367,0.079-0.541,0.128c-2.497,0.713-4.703,1.894-6.591,3.519l-76.3,65.499
				c-3.532,3.035-5.672,7.262-6.026,11.904c-0.354,4.646,1.123,9.15,4.159,12.684c3.312,3.86,8.135,6.076,13.23,6.076
				c4.158,0,8.189-1.492,11.351-4.202l65.158-55.936l65.99,54.956c3.12,2.606,7.082,4.045,11.151,4.045
				c5.192,0,10.075-2.289,13.396-6.278c6.149-7.377,5.15-18.392-2.23-24.552l-77.278-64.366c-0.967-0.812-2.1-1.538-3.447-2.208
				l-0.176-0.087l-0.181-0.076c-0.008-0.003-0.016-0.006-0.023-0.01c-0.906-0.426-1.825-0.768-2.732-1.016
				c-0.356-0.098-0.655-0.15-0.817-0.179c-0.7-0.155-1.456-0.312-2.326-0.387C97.368,117.476,97.049,117.463,96.7,117.463
				L96.7,117.463z"/>
		</g>
		<g>
			<path fill="#231F20" d="M131.581,144.188v-14.979c0-4.857,3.953-8.809,8.812-8.809h11.469c4.858,0,8.812,3.952,8.812,8.809
				v39.121L131.581,144.188z"/>
			<path fill="#FFFFFF" d="M151.862,123.337c3.246,0,5.875,2.629,5.875,5.872v32.869l-23.219-19.269v-13.601
				c0-3.243,2.629-5.872,5.875-5.872H151.862 M151.862,117.464h-11.469c-6.478,0-11.748,5.269-11.748,11.745v13.601v2.758
				l2.122,1.761l23.22,19.269l9.623,7.985v-12.505v-32.869C163.61,122.733,158.34,117.464,151.862,117.464L151.862,117.464z"/>
		</g>
	</g>
</g>
</svg>
