<?xml version="1.0" encoding="utf-8"?>
<!-- Generator: Adobe Illustrator 16.0.0, SVG Export Plug-In . SVG Version: 6.00 Build 0)  -->
<!DOCTYPE svg PUBLIC "-//W3C//DTD SVG 1.1//EN" "http://www.w3.org/Graphics/SVG/1.1/DTD/svg11.dtd">
<svg version="1.1" id="Calque_1" xmlns="http://www.w3.org/2000/svg" xmlns:xlink="http://www.w3.org/1999/xlink" x="0px" y="0px"
	 width="299.99px" height="299.99px" viewBox="0 0 299.99 299.99" enable-background="new 0 0 299.99 299.99" xml:space="preserve">
<g>
	<g>
		<g>
			<path fill="#F9A51A" d="M93.533,242.989c-9.057,0-16.426-7.368-16.426-16.426v-72.725l72.537-60.215l72.557,59.652v73.288
				c0,9.058-7.368,16.426-16.426,16.426H93.533z"/>
			<path fill="#FFFFFF" d="M149.654,97.885l69.262,56.942v71.736c0,7.255-5.883,13.141-13.141,13.141H93.533
				c-7.262,0-13.141-5.886-13.141-13.141v-71.182L149.654,97.885 M149.634,89.362l-4.176,3.467l-69.262,57.497l-2.374,1.971v3.085
				v71.182c0,10.869,8.843,19.711,19.711,19.711h112.242c10.869,0,19.711-8.842,19.711-19.711v-71.736v-3.104l-2.397-1.971
				l-69.262-56.942L149.634,89.362L149.634,89.362z"/>
		</g>
		<rect x="122.681" y="163.454" fill="#FFFFFF" width="20.527" height="20.533"/>
		<rect x="122.681" y="193.843" fill="#FFFFFF" width="20.527" height="20.535"/>
		<rect x="155.353" y="163.454" fill="#FFFFFF" width="20.531" height="20.533"/>
		<rect x="155.353" y="193.843" fill="#FFFFFF" width="20.531" height="20.535"/>
		<g>
			<path fill="#F9A51A" d="M63.758,158.652c-4.739,0-9.226-2.061-12.311-5.654c-5.824-6.789-5.043-17.049,1.739-22.874
				l85.375-73.291c1.752-1.504,3.803-2.6,6.095-3.256c0.167-0.046,0.313-0.079,0.463-0.107c0.937-0.24,1.708-0.383,2.473-0.456
				c0.259-0.029,0.566-0.039,0.874-0.039l0.45,0c0,0,0.681-0.013,0.849-0.013c0.267,0,0.534,0.009,0.797,0.032
				c0.808,0.07,1.535,0.223,2.212,0.375l0.117,0.022c0.203,0.036,0.402,0.077,0.594,0.128c0.874,0.239,1.733,0.563,2.628,0.988
				l0.172,0.07l0.086,0.042c1.256,0.62,2.313,1.292,3.229,2.056l86.458,72.015c6.873,5.736,7.804,15.985,2.076,22.85
				c-3.09,3.711-7.632,5.841-12.46,5.841c-0.001,0,0,0-0.001,0c-3.782,0-7.467-1.338-10.375-3.768l-75.967-63.265l-75.009,64.393
				C71.375,157.264,67.625,158.652,63.758,158.652z"/>
			<path fill="#FFFFFF" d="M149.764,56.247c0.172,0,0.345,0.005,0.515,0.02c0.598,0.052,1.188,0.176,1.777,0.308
				c0.191,0.045,0.387,0.066,0.566,0.115c0.746,0.204,1.449,0.481,2.145,0.816c0.051,0.024,0.098,0.039,0.148,0.061
				c0.895,0.441,1.777,0.965,2.582,1.635l86.457,72.015c5.488,4.58,6.234,12.733,1.656,18.221c-2.561,3.074-6.236,4.66-9.938,4.66
				c-2.918,0-5.853-0.986-8.269-3.004l-78.105-65.046l-77.117,66.202c-2.444,2.093-5.441,3.118-8.424,3.118
				c-3.642,0-7.26-1.529-9.818-4.509c-4.652-5.423-4.031-13.589,1.387-18.241l85.375-73.291c1.457-1.251,3.117-2.092,4.859-2.591
				c0.109-0.03,0.23-0.046,0.352-0.076c0.664-0.171,1.316-0.311,1.992-0.375c0.187-0.021,0.374-0.024,0.562-0.024
				c0.112,0,0.225,0.001,0.338,0.001c0.058,0,0.116,0,0.174-0.001C149.238,56.258,149.502,56.247,149.764,56.247 M149.764,49.677
				c-0.192,0-0.385,0.003-0.577,0.008l-0.254,0.005h-0.041l-0.042,0.001l-0.176,0l-0.209-0.001c-0.314,0-0.735,0.007-1.225,0.058
				c-1.127,0.11-2.129,0.337-2.825,0.513c-0.218,0.044-0.417,0.09-0.607,0.143l-0.029,0.008l-0.029,0.008
				c-2.75,0.788-5.216,2.107-7.33,3.922l-85.375,73.291c-8.157,7.004-9.096,19.343-2.094,27.505
				c3.711,4.323,9.107,6.801,14.805,6.801c4.65,0,9.16-1.668,12.697-4.697l72.908-62.589l73.836,61.49
				c3.491,2.916,7.924,4.525,12.474,4.525c5.807,0,11.27-2.561,14.988-7.026c6.883-8.25,5.766-20.575-2.496-27.47l-86.462-72.019
				c-1.119-0.932-2.388-1.742-3.88-2.479l-0.171-0.084l-0.175-0.074c-0.019-0.008-0.037-0.016-0.056-0.023
				c-1.033-0.486-2.039-0.86-3.065-1.141c-0.391-0.106-0.715-0.164-0.889-0.195c0,0,0.02,0.005,0.047,0.011l-0.024-0.006
				c-0.751-0.167-1.637-0.354-2.645-0.441C150.504,49.691,150.151,49.677,149.764,49.677L149.764,49.677z"/>
		</g>
		<g>
			<path fill="#F9A51A" d="M188.799,79.579V62.818c0-5.435,4.421-9.855,9.855-9.855h12.832c5.438,0,9.863,4.421,9.863,9.855v43.774
				L188.799,79.579z"/>
			<path fill="#FFFFFF" d="M211.486,56.248c3.637,0,6.578,2.941,6.578,6.57v36.778l-25.98-21.561V62.818
				c0-3.629,2.938-6.57,6.57-6.57H211.486 M211.486,49.677h-12.832c-7.246,0-13.141,5.895-13.141,13.141v15.218v3.086l2.374,1.97
				l25.98,21.561l10.767,8.935V99.596V62.818C224.635,55.572,218.736,49.677,211.486,49.677L211.486,49.677z"/>
		</g>
	</g>
	<g>
		<g>
			<path fill="#D01A6F" d="M244.65,230.023c18.855-32.806,23.363-49.091,22.969-82.981c-0.185-15.818-9.628-43.998-29.925-68.49
				c-16.702-20.154-46.163-44.178-91.669-44.178c-46.119,0-75.741,23.268-92.47,42.787c-22.099,25.785-31.184,55.521-32.25,73.151
				L20,171.91l-4.845-21.088c-1.713-7.454-1.735-23.009,2.077-40.96C20.489,94.52,27.757,71.981,43.882,51.73
				C68.497,20.818,105.092,5.145,152.65,5.145c30.233,0,55.994,6.468,76.568,19.224c16.768,10.396,30.158,24.978,39.798,43.34
				c15.271,29.089,16.92,59.422,16.92,71.114c0,12.588-6.503,69.079-36.541,95.111l-13.933,12.073L244.65,230.023z"/>
			<path fill="#FFFFFF" d="M152.65,8.262c129.391,0,130.168,118.867,130.168,130.56c0,11.69-6.234,67.423-35.465,92.755
				c19.488-33.906,23.773-51.055,23.383-84.571S230.986,31.257,146.025,31.257c-84.965,0-125.324,77.379-127.832,118.867
				C13.006,127.547,23.26,8.262,152.65,8.262 M152.65,2.027c-25.756,0-48.702,4.648-68.199,13.816
				c-16.948,7.969-31.418,19.39-43.008,33.944c-16.504,20.727-23.935,43.757-27.262,59.427c-3.91,18.416-3.855,34.518-2.065,42.306
				l9.69,42.176l2.611-43.196c1.037-17.147,9.91-46.112,31.505-71.31c16.303-19.022,45.168-41.698,90.103-41.698
				c44.295,0,72.993,23.41,89.269,43.049c19.813,23.909,29.029,51.25,29.207,66.537c0.387,33.206-4.039,49.179-22.554,81.391
				l-18.374,31.968l27.864-24.148c13.42-11.63,23.72-29.974,30.613-54.519c5.138-18.297,7.003-35.709,7.003-42.948
				c0-11.922-1.684-42.86-17.276-72.563c-9.902-18.861-23.668-33.847-40.916-44.541C209.787,8.652,183.472,2.027,152.65,2.027
				L152.65,2.027z"/>
		</g>
		<g>
			<path fill="#D01A6F" d="M181.885,294.845c-32.824,0-51.555-29.002-53.478-40.541l-0.604-3.631h3.68
				c6.493,0,16.98-6.575,27.121-12.934c12.676-7.947,25.783-16.166,36.793-16.166c13.836,0,31.819,7.838,34.27,17.941
				c0.689,2.846,0.647,8.236-7.381,12.371c-5.994,3.088-12.979,6.215-19.966,8.93c11.094-2.62,20.727-6.253,22.838-7.582
				c0.692-0.437,1.424-0.658,2.175-0.658c0.401,0,3.919,0.14,3.919,4.953c0,4.204-2.895,13.53-10.87,21.99
				C213.79,286.511,201.76,294.845,181.885,294.845z"/>
			<path fill="#FFFFFF" d="M195.396,224.692c19.227,0,42.609,15.59,25.461,24.423s-39.496,16.628-49.367,16.628
				c2.761,0.776,5.996,1.108,9.491,1.108c17.553,0,41.709-8.38,45.837-10.979c0.19-0.12,0.362-0.178,0.514-0.178
				c3.789,0-4.976,36.033-45.447,36.033c-31.891,0-48.844-28.582-50.402-37.936C147.076,253.792,176.174,224.692,195.396,224.692
				 M195.396,218.457c-11.907,0-25.4,8.46-38.449,16.642c-9.313,5.839-19.869,12.458-25.465,12.458h-7.361l1.21,7.261
				c1.007,6.044,6.317,16.724,15.596,25.887c7.973,7.874,21.55,17.259,40.958,17.259c20.988,0,33.753-8.866,40.765-16.304
				c8.052-8.542,11.72-18.496,11.72-24.13c0-4.127-2.021-6.581-4.451-7.566c3.762-4.389,3.309-8.993,2.777-11.182
				C229.876,227.148,210.677,218.457,195.396,218.457L195.396,218.457z"/>
		</g>
		<g>
			<path fill="#D01A6F" d="M259.69,285.982c-5.998,0-11.455-1.766-16.221-5.248c-11.503-8.408-12.791-19.95-10.397-27.279
				c0.872-2.671,1.992-4.025,3.33-4.025c0.79,0,1.477,0.489,1.789,1.277c0.523,1.314,3.42,5.696,7.154,10.047
				c-2.073-3.233-4.022-6.644-5.571-9.735c-1.517-3.03-0.999-5.02-0.298-6.154c1.13-1.829,3.465-2.796,6.752-2.796
				c4.491,0,9.85,1.796,13.652,4.574c4.51,3.3,7.419,10.592,10.231,17.645c2.253,5.647,4.582,11.487,7.246,13.434l1.508,1.103
				l-1.335,1.307C275.051,282.56,267.875,285.982,259.69,285.982C259.69,285.982,259.69,285.982,259.69,285.982z"/>
			<path fill="#FFFFFF" d="M246.228,243.651c3.922,0,9.022,1.569,12.719,4.27c7.875,5.762,11.082,26.404,17.477,31.078
				c-2.122,2.079-8.834,5.4-16.733,5.4c-4.909,0-10.277-1.283-15.286-4.943c-16.076-11.75-9.821-28.443-8.003-28.443
				c0.134,0,0.244,0.09,0.319,0.279c1.098,2.756,11.508,17.559,19.719,20.623c-4.039-2.957-10.863-12.85-15.25-21.605
				C238.862,245.66,241.79,243.651,246.228,243.651 M246.228,240.485c-4.883,0-7.1,1.929-8.099,3.547
				c-0.559,0.903-1.037,2.201-0.904,3.915c-0.266-0.066-0.542-0.101-0.824-0.101c-2.099,0-3.726,1.722-4.834,5.116
				c-2.558,7.833-1.22,20.141,10.969,29.05c5.042,3.685,10.813,5.553,17.154,5.553c9.115,0,16.461-3.867,18.949-6.305l2.668-2.613
				l-3.016-2.205c-2.296-1.678-4.641-7.556-6.709-12.742c-2.896-7.26-5.89-14.767-10.767-18.335
				C256.759,242.4,251.033,240.485,246.228,240.485L246.228,240.485z"/>
		</g>
	</g>
</g>
</svg>
