<?xml version="1.0" encoding="utf-8"?>
<!-- Generator: Adobe Illustrator 16.0.0, SVG Export Plug-In . SVG Version: 6.00 Build 0)  -->
<!DOCTYPE svg PUBLIC "-//W3C//DTD SVG 1.1//EN" "http://www.w3.org/Graphics/SVG/1.1/DTD/svg11.dtd">
<svg version="1.1" xmlns="http://www.w3.org/2000/svg" xmlns:xlink="http://www.w3.org/1999/xlink" x="0px" y="0px"
	 width="299.991px" height="227.5px" viewBox="0 0 299.991 227.5" enable-background="new 0 0 299.991 227.5" xml:space="preserve">
<g id="Calque_2">
	<polygon fill="#FFFFFF" points="69.661,41.461 69.661,60.711 30.225,103.529 54.895,102.203 114.725,175.711 190.975,175.711 
		247.512,100.98 271.543,100.98 269.225,88.961 153.975,21.211 108.571,40.208 108.55,18.711 	"/>
</g>
<g id="Calque_1">
	<g>
		<path fill="#D80B8C" d="M271.766,217.166c0,1.527-1.242,2.768-2.773,2.768H31.728c-1.531,0-2.774-1.24-2.774-2.768v-6.682
			c0-1.527,1.243-2.768,2.774-2.768h237.265c1.531,0,2.773,1.24,2.773,2.768V217.166z"/>
		<path fill="#39B54A" d="M145.602,31.365c3.57-2.386,7.813-2.605,11.488,0.038l114.473,69.617h20.164l-0.109-6.409L164.961,15.784
			c-7.977-5.799-19.48-5.842-27.873-0.225L8.33,93.799l-0.066,9.77l24.051-0.076L145.602,31.365z"/>
		<polygon fill="#39B54A" points="69.681,7.667 69.681,44.216 74.474,44.216 108.571,20.188 108.571,7.566 		"/>
		<path fill="#39B54A" d="M157.946,48.487c-4.758-3.731-10.625-3.092-15.48,0c-4.477,2.854-87.55,53.755-87.55,53.755
			s0,79.819,0,83.895c0,4.066,4.066,7.73,8.14,7.73c4.079,0,171.449-0.811,175.926-0.811s8.551-4.887,8.551-8.553
			c0-3.664,0-83.484,0-83.484S163.645,52.973,157.946,48.487z M147.278,164.857c0,2.477-2.004,4.48-4.48,4.48h-13.445
			c-2.477,0-4.48-2.004-4.48-4.48v-13.443c0-2.473,2.004-4.48,4.48-4.48h13.445c2.477,0,4.48,2.008,4.48,4.48V164.857z
			 M147.278,131.566c0,2.477-2.004,4.48-4.48,4.48h-13.445c-2.477,0-4.48-2.004-4.48-4.48v-13.443c0-2.473,2.004-4.48,4.48-4.48
			h13.445c2.477,0,4.48,2.007,4.48,4.48V131.566z M178.434,164.857c0,2.477-2.008,4.48-4.484,4.48h-13.438
			c-2.488,0-4.488-2.004-4.488-4.48v-13.443c0-2.473,2-4.48,4.488-4.48h13.438c2.477,0,4.484,2.008,4.484,4.48V164.857z
			 M178.434,131.566c0,2.477-2.008,4.48-4.484,4.48h-13.438c-2.488,0-4.488-2.004-4.488-4.48v-13.443c0-2.473,2-4.48,4.488-4.48
			h13.438c2.477,0,4.484,2.007,4.484,4.48V131.566z"/>
	</g>
</g>
</svg>
