<?xml version="1.0" encoding="utf-8"?>
<!-- Generator: Adobe Illustrator 16.0.0, SVG Export Plug-In . SVG Version: 6.00 Build 0)  -->
<!DOCTYPE svg PUBLIC "-//W3C//DTD SVG 1.1//EN" "http://www.w3.org/Graphics/SVG/1.1/DTD/svg11.dtd">
<svg version="1.1" xmlns="http://www.w3.org/2000/svg" xmlns:xlink="http://www.w3.org/1999/xlink" x="0px" y="0px"
	 width="299.991px" height="227.5px" viewBox="0 0 299.991 227.5" enable-background="new 0 0 299.991 227.5" xml:space="preserve">
<g id="Calque_2">
	<path fill="#FFFFFF" d="M237.618,206c0,4.971-4.029,9-9,9h-157c-4.971,0-9-4.029-9-9v-67.5c0-4.971,4.029-9,9-9h157
		c4.971,0,9,4.029,9,9V206z"/>
</g>
<g id="Calque_1">
	<g>
		<path fill="#FFCB05" d="M145.602,31.379c3.57-2.386,7.813-2.605,11.488,0.038l114.473,69.617h20.164l-0.107-6.409L164.961,15.798
			c-7.977-5.799-19.48-5.842-27.875-0.225L8.331,93.813l-0.067,9.77l24.05-0.076L145.602,31.379z"/>
		<polygon fill="#FFCB05" points="69.68,7.681 69.68,44.23 74.474,44.23 108.572,20.202 108.572,7.58 		"/>
		<path fill="#FFCB05" d="M157.946,48.502c-4.758-3.731-10.625-3.093-15.48,0c-4.477,2.854-87.55,53.754-87.55,53.754
			s0,105.857,0,109.934c0,4.065,4.065,7.73,8.141,7.73c4.078,0,171.448-0.812,175.925-0.812s8.551-4.887,8.551-8.552
			s0-109.522,0-109.522S163.645,52.987,157.946,48.502z M95.705,143.248c6.078,0,11.281,3.723,13.472,9.01h114.727
			c3.164,0,5.723,2.563,5.723,5.727c0,3.162-2.559,5.721-5.723,5.721H86.923c-3,0-5.391-2.329-5.636-5.268
			c-0.057-0.199-0.165-0.391-0.165-0.605C81.123,149.777,87.645,143.248,95.705,143.248z M232.77,199.59v7.32v0.917
			c0,2.195-1.773,3.97-3.965,3.97c-0.168,0-0.305-0.07-0.461-0.09c-0.16,0.014-0.297,0.09-0.461,0.09l-0.008-0.186
			c-1.734-0.425-3.051-1.918-3.051-3.784v-12.208c0-2.701-2.18-4.887-4.887-4.887H82.505c-2.703,0-4.886,2.186-4.886,4.887v12.208
			c0,1.87-1.313,3.364-3.06,3.784v0.186c-0.164,0-0.297-0.076-0.453-0.09c-0.161,0.02-0.301,0.09-0.453,0.09
			c-2.208,0-3.98-1.774-3.98-3.97V137.33c0-2.195,1.772-3.965,3.98-3.965c0.152,0,0.292,0.072,0.453,0.09
			c0.156-0.014,0.289-0.09,0.453-0.09l-0.02,0.182c1.754,0.41,3.079,1.904,3.079,3.783v25.852c0,2.696,2.183,4.878,4.886,4.878
			h145.378c2.703,0,4.887,2.182,4.887,4.878V199.59z"/>
	</g>
</g>
</svg>
