<?xml version="1.0" encoding="utf-8"?>
<!-- Generator: Adobe Illustrator 16.0.0, SVG Export Plug-In . SVG Version: 6.00 Build 0)  -->
<!DOCTYPE svg PUBLIC "-//W3C//DTD SVG 1.1//EN" "http://www.w3.org/Graphics/SVG/1.1/DTD/svg11.dtd">
<svg version="1.1" id="Calque_1" xmlns="http://www.w3.org/2000/svg" xmlns:xlink="http://www.w3.org/1999/xlink" x="0px" y="0px"
	 width="167.229px" height="300px" viewBox="0 0 167.229 300" enable-background="new 0 0 167.229 300" xml:space="preserve">
<g>
	<path fill="#007DBA" d="M48.948,35.493c1.272-7.835,3.809-27.225,34.65-27.225c30.841,0,33.887,21.132,34.649,27.225
		c0.761,6.093,4.188,27.604,0.951,18.467c-3.235-9.138-8.186-20.562-35.41-20.562c-27.225,0-35.982,7.807-33.698,21.323
		C52.375,68.238,48.948,35.493,48.948,35.493z"/>
	<path fill="#FDB913" d="M156.316,242.692c-18.841-22.91-73.29-113.721-96.127-183.972c-4.974-15.301-9-24.786-8.009-32.656
		c0.97-7.705-9.536,19.685-12.166,27.516c-10.293,30.65,0.563,54.442,7.792,75.771c15.231,44.929,60.377,119.003,81.741,154.703
		c3.248,5.426,2.598,13.975,12.893,0.361c8.409-11.121,11.608-17.925,15.896-27.51C161.572,249.671,161.228,248.663,156.316,242.692
		z"/>
	<path fill="#FFCB05" d="M10.492,242.627c6.157-10.356,79.769-132.696,96.337-183.907c4.953-15.309,9-24.786,8.009-32.656
		c-0.97-7.705,9.993,19.545,12.166,27.516c3.428,12.564,8.858,36.004-9.138,76.17c-17.991,40.152-76.057,144.1-80.395,154.304
		c-3.497,8.228-4.896,11.785-12.892,0.361c-7.996-11.422-11.608-17.925-15.897-27.51C5.446,249.671,6.541,249.272,10.492,242.627z"
		/>
</g>
</svg>
