<?xml version="1.0" encoding="utf-8"?>
<!-- Generator: Adobe Illustrator 16.0.0, SVG Export Plug-In . SVG Version: 6.00 Build 0)  -->
<!DOCTYPE svg PUBLIC "-//W3C//DTD SVG 1.1//EN" "http://www.w3.org/Graphics/SVG/1.1/DTD/svg11.dtd">
<svg version="1.1" xmlns="http://www.w3.org/2000/svg" xmlns:xlink="http://www.w3.org/1999/xlink" x="0px" y="0px"
	 width="299.99px" height="299.99px" viewBox="0 0 299.99 299.99" enable-background="new 0 0 299.99 299.99" xml:space="preserve">
<g id="Calque_2">
	<path fill="#FFC905" d="M221.806,61.997c-10.955-25.315-36.147-43.033-65.486-43.033c-39.396,0-71.333,31.937-71.333,71.333
		c0,4.988,0.516,9.855,1.491,14.555l-20.985,6.646l36,173.33H216.16l37.333-232.864L221.806,61.997z"/>
</g>
<g id="Calque_3">
	<g>
		<path fill="#017FB2" d="M74.22,279.924c-0.027-0.806-0.225-1.429-0.225-1.429C73.995,279.03,74.08,279.502,74.22,279.924z"/>
		<path fill="#017FB2" d="M225.769,279.924c0.141-0.423,0.225-0.894,0.225-1.429C225.994,278.495,225.797,279.118,225.769,279.924z"
			/>
		<path fill="#017FB2" d="M229.162,283.495c-2.965-0.212-3.439-2.17-3.393-3.571c-0.902,2.733-4.275,3.238-4.275,3.238
			s-12.166-0.5-14-0.667c-1.832-0.167-2.666-4.667-2.666-4.667c-0.334,3.333-2,4.351-2,4.351c-7.373-0.132-13.164-2.1-14.404-2.552
			c-0.182-1.858-0.729-3.865-1.68-5.844c-1.025-2.137-2.369-3.935-3.834-5.275c2.992-1.146,5.066-3.589,5.066-6.429
			c0-3.936-3.973-7.125-8.875-7.125c-0.34,0-0.676,0.019-1.006,0.049c-2.531-13.141,1.006-41.674,1.006-41.674
			c-2.5,7-5.75,3.75-5.75,3.75c3.5-15.75,8.25-10.75,8.5-15.25s-1.75-5.25,3.25-10.75c1.92-2.111,2.789-4.186,3.131-5.94
			c0.328-1.677,0.174-3.05-0.004-3.896l0.271-0.414c6.148-2.25,14.602-17,15.854-18.75s0.998-6.25,7.248-11.85s0-7.4-4-7.4
			s-10,5.505-9.4,8.75s-3.1,5.75-10.6,11.5s-5.135-10.228-5.135-10.228c2.111-10.656,8.607-46.295,2.885-54.772c-6.75-10-8.5-4-9,0
			s3,18.75,1.5,29.25c-0.586,4.101-0.803,7.957-0.908,11.24c-0.002,0.004-0.002,0.006-0.002,0.009
			c-0.537,3.062-1.652,2.063-2.027,1.876s-1.875-0.5-4.563-0.813c-2.674-0.311-3.33-2.132-3.336-2.15
			c-0.844-3.715-1.729-9.19-1.496-11.496c0.334-3.333-2-12-3.231-13.667c-1.232-1.667-1.102-7.833,1.563-16.167
			c2.666-8.33-3.771-9.295-3.776-9.296c-1.756-0.797-4.148,0.559-5.721,8.713c-2.75,14.25-4.25,11.75-2.25,21.25
			s5.5,16.178,4,23.464c-2.998,4.212-5.385,0.586-5.389,0.582c-1.412-4.199-4.029-12.692-4.029-18.046c0-7.333,1-15.833,1-20.333
			s5.834-12.166-1-11.833c-6.833,0.333-9.5,4-9.5,12.167s-4.333,16.833,0,26c2.36,4.991,4.81,11.251,6.56,15.932
			c-0.002,0.011-0.396,3.128-2.205,1.443c-1.813-1.688-8.875-13.063-9.5-20.25s-2.938-11.542-3.688-12.958
			c-0.75-1.417,0.75-5.583-2.167-7.583c-2.917-2-6.333-5-6.667,6.75s3.583,14.083,5,16.333s12.897,13.5,12.667,19.417
			c-0.079,2.019-0.138,3.522-0.181,4.642c-0.014,0.093-0.027,0.185-0.027,0.275c-0.002,0.283-0.011,0.609-0.021,0.955
			c-0.039,1-0.057,1.459-0.063,1.587c-0.359,7.926-1.535,24.607,3.792,25.792c6.002,1.334,5,17,3.168,19.666
			c-1.834,2.666-11.5-8.333-1.834,12.334c5.447,11.646,2.744,26.253-0.117,35.643l-1.863,2.454
			c1.072-9.698-0.036-24.088-1.353-12.774c-1.24,10.652-6.488,24.451-9.097,30.826c-0.484-0.065-0.979-0.107-1.487-0.107
			c-4.901,0-8.875,3.189-8.875,7.125c-3.095,0-5.817,1.273-7.406,3.202c0,0-6.327,2.498-14.661,2.647c0,0-1.667-1.018-2-4.351
			c0,0-0.833,4.5-2.667,4.667s-14,0.667-14,0.667s-3.372-0.505-4.275-3.238c0.047,1.402-0.428,3.36-3.392,3.571
			c-4.667,0.333-24.667,1.332-24.667,1.332h64.36h4.14h70.666h2.428h66.072C253.828,284.827,233.828,283.828,229.162,283.495z
			 M156.696,229.329l-0.25,0.329l0.25-0.381V229.329z M165.488,175.141c-0.668-5.666,4.334-3.5,4.334-3.5
			c2.459,1.709,1.5,8.666-1,9.833S166.154,180.807,165.488,175.141z M169.412,193.245c0.844-2.128,4.5-1.75,7,0
			s-0.25,4.25-5.16,4.75C166.344,198.495,169.412,193.245,169.412,193.245z"/>
		<path fill="#017FB2" d="M202.662,244.828c0,0-0.668,3.667,14.666,0s13.666-11.666,4.334-17.666
			C212.328,221.162,202.662,244.828,202.662,244.828z"/>
		<path fill="#017FB2" d="M73.995,257.495c4.333,0.334,7.667-6.334,4.333-7C71.527,249.135,69.662,257.161,73.995,257.495z"/>
		<path fill="#017FB2" d="M106.329,246.458c3.109,2.904,2.667,0.037,7.333-1.963s-4.667-9.666-11.333-8.172
			S106.329,246.458,106.329,246.458z"/>
		<path fill="#017FB2" d="M100.137,269.829c2.525-2.667,0.189-8.793-2.808-8.966c-5.337-0.308-9-0.701-6.667,4.299
			S97.612,272.496,100.137,269.829z"/>
		<path fill="#017FB2" d="M234.968,265.823c4.473,1.328,8.861,3.339,6.194-5.121s-12.389,0-12.389,0
			S230.495,264.495,234.968,265.823z"/>
	</g>
</g>
<g id="Calque_4">
</g>
</svg>
