<?xml version="1.0" encoding="utf-8"?>
<!-- Generator: Adobe Illustrator 16.0.0, SVG Export Plug-In . SVG Version: 6.00 Build 0)  -->
<!DOCTYPE svg PUBLIC "-//W3C//DTD SVG 1.1//EN" "http://www.w3.org/Graphics/SVG/1.1/DTD/svg11.dtd">
<svg version="1.1" xmlns="http://www.w3.org/2000/svg" xmlns:xlink="http://www.w3.org/1999/xlink" x="0px" y="0px"
	 width="299.99px" height="299.99px" viewBox="0 0 299.99 299.99" enable-background="new 0 0 299.99 299.99" xml:space="preserve">
<g id="Calque_2" display="none">
	<ellipse display="inline" fill="#F4BAE1" cx="160.828" cy="171.162" rx="332.333" ry="250"/>
</g>
<g id="Calque_4">
	<path fill="#0A4D9B" d="M216.368,82.135c-4.405-0.457-13.543-0.798-15.251,3.946c0,0-14.858-9.822-33.746,0
		c0,0-1.487-2.303-7.302-3.657c0.342-9.293,0.043-36.806-15.279-39.591c-18.468-3.358-23.168,10.745-21.154,14.103
		c2.015,3.357,9.402,8.394,14.774,4.701c5.372-3.693-0.671-13.431-5.372-9.738c0,0,6.919,2.439,3.609,6.716
		c-3.31,4.276-14.858-2.015-8.31-7.681c6.443-5.575,27.251-5.271,17.836,30.613c-11.083,0.675-13.555,4.518-13.555,4.518
		c-18.887-9.822-33.746,0-33.746,0c-1.708-4.744-10.846-4.403-15.25-3.945c-40.105,5.064-71.127,39.274-71.127,80.754
		c0,44.493,35.692,80.628,80.004,81.391c4.621-0.138,19.088-0.74,22.743-2.987c0,0,20.482,7.051,34.753-1.343v0.018
		c14.271,8.394,34.753,1.343,34.753,1.343c3.653,2.247,18.122,2.85,22.743,2.987c44.312-0.762,80.004-36.897,80.004-81.391
		C287.495,121.41,256.472,87.2,216.368,82.135z M149.995,171.182v0.018c0,0,6.547,10.576,7.807,18.887c0,0-5.541-5.288-7.807,0
		v-0.018c-2.266-5.288-7.807,0-7.807,0C143.448,181.759,149.995,171.182,149.995,171.182z M62.946,132.904l27.286,13.363
		c-1.708,4.164-0.313,11.403-0.214,9.931c0.107-1.611,5.611-5.414,7.227-6.498l26.896,13.173
		c-5.514-1.705-10.697-3.543-15.551-5.436c-4.043,5.175-13.658,6.162-22.828,1.984c-9.823-4.474-15.503-13.222-13.1-19.878
		C66.334,135.582,62.946,132.904,62.946,132.904z M218.83,207.212l-27.03,11.585l1.51-6.045l-14.857,8.311l1.008-6.296
		l-19.141,10.073v-5.288l-10.324,2.77v-0.017l-10.325-2.771v5.288l-19.139-10.073l1.007,6.296l-14.858-8.311l1.511,6.044
		l-27.03-11.584c0,0-13.011-13.851,2.351-15.109c0,0-5.289,4.28,0,8.059c5.288,3.776,16.117,7.554,16.117,7.554l-2.015-5.792
		l18.384,7.556l1.259-3.273l17.125,6.547v-4.281l15.613,5.541v0.018l15.614-5.541v4.281l17.124-6.547l1.259,3.272l18.384-7.554
		l-2.015,5.792c0,0,10.829-3.778,16.118-7.556c5.288-3.776,0-8.058,0-8.058C231.84,193.361,218.83,207.212,218.83,207.212z
		 M214.227,159.44c-9.17,4.178-18.785,3.189-22.828-1.985c-4.854,1.893-10.036,3.729-15.551,5.435l26.897-13.171
		c1.615,1.083,7.12,4.886,7.226,6.498c0.099,1.473,1.496-5.767-0.214-9.931l27.287-13.363c0,0-3.389,2.678-9.716,6.639
		C229.731,146.218,224.051,154.966,214.227,159.44z"/>
	<g>
		<path fill="#6ECEF6" d="M89.45,90.101c5.542-2.881,9.422-4.038,9.422-4.038C95.777,86.754,92.601,88.191,89.45,90.101z"/>
		<path fill="#6ECEF6" d="M57.495,122.828c0,0,15.627-22.825,31.956-32.727C79.994,95.018,65.691,104.965,57.495,122.828z"/>
		<path fill="#6ECEF6" d="M242.277,122.829c-8.195-17.863-22.498-27.81-31.953-32.727
			C226.651,100.005,242.277,122.829,242.277,122.829z"/>
		<path fill="#6ECEF6" d="M210.324,90.102c-3.151-1.911-6.328-3.348-9.424-4.039C200.9,86.063,204.781,87.22,210.324,90.102z"/>
		<path fill="#6ECEF6" d="M105.423,134.708c0,0,0.122-25.738,22.374-41.182C127.796,93.526,104.147,105.26,105.423,134.708z"/>
		<path fill="#6ECEF6" d="M169.925,93.526c22.252,15.443,22.374,41.182,22.374,41.182C193.575,105.26,169.925,93.526,169.925,93.526
			z"/>
		<path fill="#6ECEF6" d="M131.578,92.662c20.217-4.002,30.436-0.916,33.537,0.37C150.641,86.453,131.578,92.662,131.578,92.662z"/>
		<path fill="#6ECEF6" d="M165.115,93.032c0.351,0.16,0.702,0.319,1.047,0.494C166.162,93.526,165.823,93.326,165.115,93.032z"/>
	</g>
</g>
<g id="Calque_3" display="none">
</g>
</svg>
