<?xml version="1.0" encoding="utf-8"?>
<!-- Generator: Adobe Illustrator 16.0.0, SVG Export Plug-In . SVG Version: 6.00 Build 0)  -->
<!DOCTYPE svg PUBLIC "-//W3C//DTD SVG 1.1//EN" "http://www.w3.org/Graphics/SVG/1.1/DTD/svg11.dtd">
<svg version="1.1" xmlns="http://www.w3.org/2000/svg" xmlns:xlink="http://www.w3.org/1999/xlink" x="0px" y="0px"
	 width="299.99px" height="299.99px" viewBox="0 0 299.99 299.99" enable-background="new 0 0 299.99 299.99" xml:space="preserve">
<g id="Calque_5" display="none">
	<rect x="-94.839" y="-64.839" display="inline" fill="#D66565" width="524" height="490.667"/>
</g>
<g id="Calque_1">
	<circle fill="#8DC44C" cx="149.995" cy="149.995" r="149.995"/>
</g>
<g id="Calque_6" display="none">
	<circle display="inline" fill="#FFFFFF" cx="150.094" cy="150.091" r="95.497"/>
</g>
<g id="Calque_8">
	<g>
		<polygon fill="#90278E" points="112.174,119.373 124.479,116.631 124.479,114.975 111.578,119.506 		"/>
		<path fill="#90278E" d="M296.603,181.782L178.909,64.089l-7.186,7.185l2.768,2.768l-2.137,34.675l-44.253-44.252l-7.184,7.186
			l5.015,5.015l-1.453,26.341v1.433l-5.229,5.229l5.229,5.229v0.078l0.058-0.02l3.134,3.134l-0.343,0.417l-14.965,8.195
			l-3.094-3.094l-7.186,7.185l9.495,9.495v27.594l20.75,40.75l0.231,0.313l-3.434,3.434l11.471,11.471l1.505,8.845l-4.518,4.519
			l56.262,56.26C245.373,277.742,285.114,235.02,296.603,181.782z"/>
	</g>
</g>
<g id="Calque_7">
	<g>
		<path fill="#FFFFFF" d="M180.823,68.152c0-2.888-2.342-5.229-5.229-5.229s-5.229,2.341-5.229,5.229v41.667h10.459V68.152z"/>
		<polygon fill="#FFFFFF" points="149.994,111.318 149.989,111.318 101.994,111.318 101.994,130.818 149.989,130.818 
			149.994,130.818 197.989,130.818 197.989,111.318 		"/>
		<path fill="#FFFFFF" d="M129.619,68.152c0-2.888-2.342-5.229-5.229-5.229s-5.229,2.341-5.229,5.229v41.667h10.459V68.152z"/>
		<polygon fill="#FFFFFF" points="149.989,215.318 137.494,215.318 137.494,237.068 149.989,237.068 149.994,237.068 
			162.489,237.068 162.489,215.318 149.994,215.318 		"/>
		<circle fill="#FFFFFF" cx="149.989" cy="169.317" r="10.369"/>
		<path fill="#FFFFFF" d="M149.989,132.818h-41.995v36.5l21,43h20.995h0.005h20.995l21-43v-36.5h-41.995H149.989z M163.428,169.317
			c0,7.422-6.018,13.439-13.44,13.439c-7.422,0-13.438-6.018-13.438-13.439s6.017-13.438,13.438-13.438
			C157.411,155.88,163.428,161.895,163.428,169.317z"/>
	</g>
</g>
<g id="repères">
</g>
</svg>
