<?xml version="1.0" encoding="utf-8"?>
<!-- Generator: Adobe Illustrator 16.0.0, SVG Export Plug-In . SVG Version: 6.00 Build 0)  -->
<!DOCTYPE svg PUBLIC "-//W3C//DTD SVG 1.1//EN" "http://www.w3.org/Graphics/SVG/1.1/DTD/svg11.dtd">
<svg version="1.1" xmlns="http://www.w3.org/2000/svg" xmlns:xlink="http://www.w3.org/1999/xlink" x="0px" y="0px"
	 width="299.99px" height="299.99px" viewBox="0 0 299.99 299.99" enable-background="new 0 0 299.99 299.99" xml:space="preserve">
<g id="Calque_5" display="none">
	<rect x="-94.839" y="-64.839" display="inline" fill="#D66565" width="524" height="490.667"/>
</g>
<g id="Calque_1" display="none">
	<circle display="inline" fill="#BABABA" cx="149.995" cy="149.995" r="149.995"/>
</g>
<g id="Calque_6" display="none">
	<circle display="inline" fill="#FFFFFF" cx="150.094" cy="150.091" r="95.497"/>
</g>
<g id="Calque_7">
</g>
<g id="Calque_8">
	<g id="Calque_1_1_">
		<circle fill="#D8098B" cx="149.999" cy="149.995" r="149.995"/>
	</g>
	<path opacity="0.2" d="M299.869,144.264l-95.713-95.713l-10.961,10.961l6.703,6.704l-8.963,8.963l1.774,1.774l-6.559,6.559
		l1.98,1.98l-6.687,6.686l48.204,48.205l-87.476,87.476l-3.934-3.934l-3.297,3.297l-10.337-10.338l-10.961,10.961l8.083,8.083
		l-1.625,1.625l4.399,4.399l-5.387,5.388l4.246,4.246l-5.842,5.842l7.042,7.042L122,267.033l5.859,5.859l-1.109,1.109l25.989,25.988
		c63.523-1.14,117.409-41.761,138.145-98.373c1.211-3.309,2.306-6.674,3.286-10.087c0.643-2.237,1.232-4.497,1.772-6.776
		c0.87-3.674,1.607-7.398,2.202-11.171c1.21-7.674,1.846-15.539,1.846-23.553C299.99,148.098,299.941,146.178,299.869,144.264z"/>
	<g id="Calque_3_1_">
		<polygon fill="#FFFFFF" points="76.499,136.995 89.499,169.995 103.249,183.995 116.249,211.245 117.749,223.245 181.749,224.995 
			186.249,209.495 196.999,188.745 214.499,166.212 227.749,131.245 224.999,85.745 206.999,56.745 177.249,36.245 142.499,31.245 
			119.821,39.245 97.499,55.245 83.249,74.495 74.999,102.995 		"/>
	</g>
	<g id="Calque_2">
		<g>
			<path fill="#38B349" d="M120.674,237.876h29.149h1.148h29.148c1.023,0,1.854-1.268,1.854-2.828c0-1.56-0.828-2.825-1.854-2.825
				h-29.148h-1.148h-29.149c-1.023,0-1.854,1.266-1.854,2.825C118.821,236.608,119.651,237.876,120.674,237.876z"/>
			<path fill="#38B349" d="M182.663,250.114h-31.689h-1.15h-31.69c-1.098,0-1.987,1.717-1.987,3.834c0,2.113,0.891,3.83,1.987,3.83
				h31.69h1.15h31.689c1.098,0,1.986-1.717,1.986-3.83C184.649,251.831,183.76,250.114,182.663,250.114z"/>
			<path fill="#38B349" d="M178.198,260.255h-27.227h-1.148h-27.228c-0.97,0-1.754,1.632-1.754,3.646
				c0,2.008,0.784,3.643,1.754,3.643h27.228h1.148h27.227c0.969,0,1.756-1.635,1.756-3.643
				C179.954,261.885,179.167,260.255,178.198,260.255z"/>
			<path fill="#38B349" d="M119.874,248.014h29.949h1.148h29.947c1.064,0,1.922-1.634,1.922-3.644c0-2.014-0.857-3.643-1.922-3.643
				h-29.947h-1.148h-29.949c-1.062,0-1.921,1.629-1.921,3.643C117.952,246.382,118.813,248.014,119.874,248.014z"/>
			<path fill="#38B349" d="M173.466,270.393h-22.486h-1.164h-22.486c-0.822,0-1.488,0.899-1.488,2.01s0.666,2.012,1.488,2.012
				h22.486h1.164h22.486c0.824,0,1.49-0.901,1.49-2.012S174.29,270.393,173.466,270.393z"/>
			<path fill="#38B349" d="M113.657,229.747h3.685c0.041,0-3.829-0.02-3.789-0.021C113.587,229.727,113.621,229.747,113.657,229.747
				z"/>
			<path fill="#38B349" d="M185.854,229.725c0.039,0.002-3.828,0.021-3.787,0.021h3.684
				C185.788,229.747,185.821,229.727,185.854,229.725z"/>
			<path fill="#38B349" d="M231.575,116.853c0-50.186-36.469-90.902-81.576-91.259v-0.009c-0.1,0-0.195,0.004-0.295,0.004
				c-0.098,0-0.195-0.004-0.293-0.004v0.009c-45.108,0.356-81.577,41.073-81.577,91.259c0,24.683,8.847,47.048,23.184,63.474H90.99
				c0,0,6.424,7.303,8.004,11.174c2.715,6.439,10.759,17.361,10.863,24.332c0.155,10.394,4.364,13.914,7.483,13.914h31.677h1.372
				h31.678c3.119,0,7.326-3.521,7.482-13.914c0.105-6.971,8.148-17.893,10.863-24.332c1.58-3.871,8.004-11.174,8.004-11.174h-0.025
				C222.727,163.901,231.575,141.535,231.575,116.853z M196.905,179.776c-7.723,6.258-16.033,27.225-16.555,34.211
				c-0.434,5.828-1.406,6.469-1.719,6.521h-26.219c-0.018-9.797-0.102-58.1-0.102-60.2c0-1.851,1.803-3.562,2.561-4.201
				c29.109,1.951,32.047-23.898,30.658-32.093c-1.396-8.243,2.793-13.832,2.793-13.832c-2.738,0.358-12.766,2.812-20.678,8.662
				c-7.42,5.484-12.717,9.082-14.531,19.422c-1.348,7.672-0.936,12.575-0.168,16.052c-2.637,2.672-2.549,5.467-2.549,5.467v60.725
				h-0.008h-1.373h-2.708v-75.68c0,0,0.109-3.464-3.16-6.773c0.949-4.31,1.464-10.388-0.206-19.896
				c-2.251-12.815-8.815-17.275-18.011-24.073c-9.809-7.251-22.235-10.291-25.632-10.736c0,0,5.195,6.927,3.464,17.145
				c-1.721,10.156,1.921,42.194,37.996,39.777c0.942,0.794,3.179,2.917,3.179,5.208c0,2.636-0.107,63.899-0.127,75.029h-23.037
				c-0.313-0.053-1.285-0.692-1.719-6.521c-0.521-6.986-8.833-27.953-16.557-34.211c-16.161-15.064-26.442-37.656-26.442-62.923
				c0-45.246,32.946-81.938,73.645-82.115c40.699,0.177,73.646,36.869,73.646,82.115C223.35,142.12,213.069,164.712,196.905,179.776
				z"/>
		</g>
	</g>
	<g>
		<path fill="#652B91" d="M100.301,83.348c0,0,31.368,21.771,42.198,55.021c0,0-4.917-18.625-16.917-32.792
			S101.02,83.702,100.301,83.348z"/>
		<path fill="#652B91" d="M154.874,153.87c12-36.125,34.451-43.688,34.451-43.688C160.524,118.867,154.874,153.87,154.874,153.87z"
			/>
	</g>
</g>
<g id="repères">
</g>
</svg>
