<?xml version="1.0" encoding="utf-8"?>
<!-- Generator: Adobe Illustrator 16.0.0, SVG Export Plug-In . SVG Version: 6.00 Build 0)  -->
<!DOCTYPE svg PUBLIC "-//W3C//DTD SVG 1.1//EN" "http://www.w3.org/Graphics/SVG/1.1/DTD/svg11.dtd">
<svg version="1.1" xmlns="http://www.w3.org/2000/svg" xmlns:xlink="http://www.w3.org/1999/xlink" x="0px" y="0px"
	 width="297.638px" height="262.747px" viewBox="0 0 297.638 262.747" enable-background="new 0 0 297.638 262.747"
	 xml:space="preserve">
<g id="Calque_2">
	<g>
		<path fill-rule="evenodd" clip-rule="evenodd" fill="#FFFFFF" d="M229.35,261.75c-74.747,0-200.161-0.393-209.676-0.656
			c-7.826-0.217-13.775-3.242-16.752-8.517c-2.957-5.24-2.484-12.074,1.298-18.748C5.304,231.916,133.518,12.002,136.397,7.792
			c2.912-4.255,7.579-6.796,12.484-6.796c5.202,0,9.91,2.764,13.255,7.783c7.396,11.095,118.837,203.354,129.79,222.654
			c5.078,8.948,6.11,17.006,2.908,22.69c-2.592,4.601-7.922,7.245-15.007,7.447C275.747,261.688,258.292,261.75,229.35,261.75z"/>
		<path d="M148.881,1.994c4.858,0,9.271,2.606,12.426,7.339c7.39,11.085,118.801,203.296,129.752,222.593
			c4.827,8.507,5.886,16.42,2.906,21.709c-2.414,4.284-7.445,6.749-14.167,6.94c-4.07,0.116-21.513,0.178-50.444,0.178
			c-73.003,0-200.362-0.398-209.652-0.656c-7.462-0.207-13.113-3.052-15.911-8.011c-2.781-4.928-2.308-11.403,1.297-17.766
			C6.167,232.414,134.299,12.638,137.22,8.355C139.945,4.372,144.305,1.994,148.881,1.994 M148.881,0
			c-5.164,0-10.161,2.632-13.307,7.229C132.91,11.125,7.579,225.879,3.353,233.337c-8.146,14.376-0.959,28.274,16.293,28.753
			c9.5,0.263,136.357,0.657,209.708,0.657c26.523,0,46.047-0.052,50.501-0.179c16.77-0.478,23-13.895,12.938-31.626
			C282.73,213.211,170.633,19.728,162.966,8.227C159.17,2.532,153.945,0,148.881,0L148.881,0z"/>
	</g>
</g>
<g id="Calque_3">
	<path fill-rule="evenodd" clip-rule="evenodd" fill="#FF0000" d="M139.544,12.846c-2.459,3.703-121.146,207.829-125.049,214.919
		c-7.52,13.666-16.715,27.213,12.051,28.328l242.201-0.542c31.528-0.132,22.229-13.209,12.94-30.063
		c-9.288-16.855-114.762-200.762-121.84-211.694C152.77,2.862,145.296,4.192,139.544,12.846z"/>
</g>
<g id="Calque_4">
	<polygon fill-rule="evenodd" clip-rule="evenodd" fill="#FFFFFF" stroke="#FFFFFF" stroke-width="0.9968" points="149.591,36.383 
		35.304,234.584 265.584,235.158 	"/>
</g>
<g id="Calque_5">
	<path d="M116.761,219.34c0,0-11.631,0-14.123-3.987c-2.491-3.986-0.665-5.151,0.997-5.814c1.662-0.665,3.655-0.829,3.323-2.159
		c-0.333-1.33,2.16-16.614,2.658-18.11c0.498-1.495,9.138-16.781,9.138-18.109c0-1.329-0.167-20.602-0.167-20.602
		s-7.809,10.135-8.805,10.633c-0.997,0.498-16.116,5.982-17.777,5.982s-4.485-2.329-3.987-3.988c0.499-1.661,1.163-3.487,6.479-5.15
		c5.316-1.661,8.806-2.658,10.633-4.652c1.828-1.992,11.796-15.451,13.457-16.446c1.662-0.998,5.981-1.496,6.147-2.493
		s-0.332-2.16-0.332-2.16s-5.44-4.498-6.313-7.476c-1.662-5.67,0.829-13.956,6.978-14.787c6.147-0.832,14.16-0.307,15.783,7.31
		c2.056,9.657-4.818,13.29-5.815,14.288c-0.996,0.998,0,3.158,0,3.158s2.824,0.831,4.32,1.827
		c1.495,0.996,18.608,12.958,18.939,14.619c0.332,1.662-0.166,13.623,0.498,14.123c0.666,0.499,7.644,3.489,8.474,3.156
		c0.832-0.333,12.295-10.635,13.624-10.8c1.329-0.164,3.986-0.831,4.152-1.993c0.167-1.163,0.001-1.33-2.159-2.824
		c-2.158-1.494-3.157-6.272-1.495-9.801c1.101-2.341,4.381-6.066,10.135-4.488c5.303,1.458,6.979,5.982,6.314,9.472
		c-0.666,3.488-4.319,5.314-5.483,6.146c-1.163,0.831,0,2.657,0.83,2.491s3.324,1.162,5.15,2.492
		c1.827,1.33,11.963,8.307,12.294,10.302c0.333,1.995,2.327,13.956,1.663,15.284c-0.666,1.329-2.328,2.659-4.154,1.165
		c-1.827-1.497-1.497-1.995-2.161-4.985c-0.662-2.992-1.161-6.481-2.657-8.308c-1.495-1.827-7.146-6.979-6.812-5.316
		c0.331,1.662,8.972,24.588,8.308,25.42c-0.665,0.83-1.83,1.66-0.831,2.325c0.996,0.665,17.775,8.64,17.61,10.136
		c-0.166,1.494-1.996,6.978-3.156,7.477c-1.163,0.497-3.821,0.83-4.817-0.998c-0.999-1.828,0.165-2.159-1.995-3.158
		c-2.161-0.996-11.963-6.146-14.619-8.971c-2.658-2.824-4.155-3.656-5.649-3.488c-1.496,0.166-4.818-0.498-6.147,0.664
		c-1.328,1.164-5.483,5.316-5.483,6.646c0,1.329-1.493,16.946-1.826,17.943c-0.334,0.997-8.291,0.356-9.139,0.331
		c-1.433-0.04-3.321-3.654-1.328-4.65c1.994-0.999,3.322-1.164,3.322-2.493s0.165-14.12,1.329-15.285
		c1.162-1.164,3.988-4.32,3.322-4.652c-0.664-0.33-2.99-0.165-2.326-1.161c0.666-0.998,8.474-26.749,8.474-26.749
		s-10.466,8.638-11.464,9.137c-0.997,0.5-11.464-4.818-12.461-4.317c-0.996,0.498-1.992,1.328-3.655,1.328
		c-1.66,0-2.989-0.666-3.487-2.16c-0.498-1.496,0.332-15.453-0.167-15.783c-0.498-0.333-8.474-6.313-8.972-5.317
		c-0.498,0.997-1.162,19.772,0.333,22.928c1.495,3.156,5.647,14.953,7.143,16.447c1.496,1.496,16.782,13.292,15.617,14.787
		c-1.161,1.496-7.641,8.973-8.472,9.47c-0.831,0.499-3.987-0.001-4.984-1.163c-0.996-1.161-0.996-3.654-0.498-4.817
		s-1.829-3.656-3.49-4.651c-1.661-0.999-7.476-6.147-8.639-7.977c-1.163-1.826-4.819-12.46-5.483-14.286
		c-0.664-1.828-2.657-2.99-3.986-1.329c-1.33,1.659-7.81,13.125-8.142,14.784C120.414,195.416,116.761,219.34,116.761,219.34z"/>
</g>
</svg>
