<?xml version="1.0" encoding="utf-8"?>
<!-- Generator: Adobe Illustrator 16.0.0, SVG Export Plug-In . SVG Version: 6.00 Build 0)  -->
<!DOCTYPE svg PUBLIC "-//W3C//DTD SVG 1.1//EN" "http://www.w3.org/Graphics/SVG/1.1/DTD/svg11.dtd">
<svg version="1.1" xmlns="http://www.w3.org/2000/svg" xmlns:xlink="http://www.w3.org/1999/xlink" x="0px" y="0px"
	 width="297.639px" height="262.748px" viewBox="0 0 297.639 262.748" enable-background="new 0 0 297.639 262.748"
	 xml:space="preserve">
<g id="Calque_5">
	<g>
		<path fill-rule="evenodd" clip-rule="evenodd" fill="#FFFFFF" d="M229.552,261.55c-73.063,0-200.557-0.398-209.873-0.655
			c-7.752-0.216-13.642-3.204-16.583-8.416c-2.921-5.177-2.448-11.938,1.298-18.549C5.477,232.02,133.665,12.144,136.563,7.906
			c2.874-4.2,7.479-6.708,12.318-6.708c5.132,0,9.78,2.732,13.087,7.693c7.472,11.209,118.852,203.38,129.779,222.642
			c5.043,8.885,6.077,16.872,2.911,22.493c-2.556,4.537-7.825,7.146-14.839,7.347C275.753,261.488,258.37,261.55,229.552,261.55z"/>
		<path d="M148.882,2.396c4.719,0,9.013,2.542,12.09,7.159c7.465,11.199,118.809,203.312,129.734,222.569
			c4.758,8.381,5.817,16.149,2.909,21.313c-2.342,4.156-7.253,6.549-13.829,6.736c-4.057,0.116-21.428,0.177-50.234,0.177
			c-73.058,0-200.53-0.397-209.839-0.655c-7.316-0.203-12.846-2.976-15.573-7.807c-2.709-4.802-2.237-11.133,1.297-17.369
			C6.504,232.637,134.475,13.137,137.552,8.583C140.203,4.709,144.438,2.396,148.882,2.396 M148.882,0
			c-5.165,0-10.161,2.632-13.308,7.23C132.91,11.125,7.579,225.879,3.352,233.339c-8.146,14.376-0.958,28.274,16.294,28.753
			c9.508,0.263,136.586,0.656,209.906,0.656c26.421,0,45.859-0.051,50.303-0.178c16.771-0.479,23.001-13.897,12.936-31.628
			C282.73,213.211,170.632,19.728,162.966,8.227C159.17,2.533,153.945,0,148.882,0L148.882,0z"/>
	</g>
	<path fill-rule="evenodd" clip-rule="evenodd" fill="#FF0000" d="M139.546,12.846c-2.461,3.702-121.149,207.83-125.05,214.919
		c-7.521,13.666-16.715,27.214,12.05,28.328l242.2-0.543c31.528-0.131,22.231-13.21,12.941-30.063
		c-9.288-16.854-114.762-200.763-121.838-211.694C152.77,2.862,145.298,4.192,139.546,12.846z"/>
	<polygon fill-rule="evenodd" clip-rule="evenodd" fill="#FFFFFF" stroke="#FFFFFF" stroke-width="1.1981" points="149.591,36.384 
		35.304,234.585 265.584,235.158 	"/>
</g>
<g id="Calque_4">
	<path d="M252.408,229.499H46.328v-6.889h28.456l0.599-2.995c0.898-0.824,3.819-2.396,4.867-1.872
		c1.048,0.523,2.846,3.444,3.07,4.043c0.225,0.6,0,1.124,0.375,1.124s6.889-0.075,6.889-0.075s-1.722-1.872-1.498-2.995
		c0.225-1.124,0.674-4.868,2.696-5.242s6.29-1.273,6.889-0.374c0.599,0.898,0.449,7.938,0.749,8.462
		c0.299,0.523,12.131,0.149,12.131,0.149s-1.123-3.52-1.722-4.643c-0.599-1.124-1.647-3.819-0.599-4.418
		c1.048-0.6,11.308-1.723,13.104-1.873c1.797-0.149,5.691-0.898,6.065,0.075c0.375,0.974,0.974,2.247-0.074,3.819
		c-1.049,1.572-3.445,7.188-2.996,7.188s19.02-0.149,19.02-0.149s0.45-2.247-0.149-2.846c-0.599-0.599-5.841-5.916-6.215-7.788
		c-0.375-1.872,2.246-30.253,3.444-32.05c1.198-1.798,9.51-9.81,10.184-11.981c0.675-2.172,3.146-32.05,4.044-33.248
		s7.039-3.595,7.339-5.542c0.3-1.946,2.771-27.856,1.647-28.905s-2.995-3.744-2.921-5.317c0.075-1.572,2.247-19.095,3.445-17.672
		S252.408,229.499,252.408,229.499z"/>
	<path d="M139.034,95.757c-1.264,0.632-6.439,9.81-6.814,11.757c-0.374,1.947-0.3,6.665,0.524,7.713
		c0.823,1.048,2.246,0.674,2.771-0.524s1.872-3.22,2.921-3.22c1.048,0,3.444,1.497,3.145,0.149c-0.299-1.348,0.15-16.1-0.749-16.025
		C139.933,95.683,139.634,95.458,139.034,95.757z"/>
	<path d="M126.304,121.742c-0.646,0.587-4.867,10.259-5.766,12.131c-0.899,1.872-2.546,3.295-2.022,4.942
		c0.524,1.647,2.396,7.788,3.819,8.462c1.423,0.674,5.691,0.823,6.515-0.149c0.824-0.974,5.317-7.714,5.691-8.911
		c0.375-1.198,0.449-14.753-0.749-15.801C132.595,121.367,127.128,120.993,126.304,121.742z"/>
	<path d="M111.327,150.946c-0.772,1.16-4.867,6.665-3.52,6.89c1.348,0.225,4.792,1.273,5.616,0.3s3.819-4.718,2.846-5.542
		c-0.974-0.823-3.145-3.818-3.894-4.118c-0.749-0.3-0.674,0.599-0.599,1.497C111.852,150.872,111.627,150.497,111.327,150.946z"/>
	<path d="M115.67,170.641c-1.25,0.894-7.338,11.607-8.162,12.806s-0.075,1.423,1.273,0.974c1.348-0.449,7.039,0.674,7.563-0.674
		c0.524-1.349,2.097-5.242,1.872-7.339S117.243,169.518,115.67,170.641z"/>
</g>
</svg>
