<?xml version="1.0" encoding="utf-8"?>
<!-- Generator: Adobe Illustrator 16.0.0, SVG Export Plug-In . SVG Version: 6.00 Build 0)  -->
<!DOCTYPE svg PUBLIC "-//W3C//DTD SVG 1.1//EN" "http://www.w3.org/Graphics/SVG/1.1/DTD/svg11.dtd">
<svg version="1.1" xmlns="http://www.w3.org/2000/svg" xmlns:xlink="http://www.w3.org/1999/xlink" x="0px" y="0px"
	 width="297.639px" height="262.748px" viewBox="0 0 297.639 262.748" enable-background="new 0 0 297.639 262.748"
	 xml:space="preserve">
<g id="Calque_5">
	<g>
		<path fill-rule="evenodd" clip-rule="evenodd" fill="#FFFFFF" d="M229.552,261.55c-73.063,0-200.557-0.398-209.873-0.655
			c-7.752-0.216-13.642-3.204-16.583-8.416c-2.921-5.177-2.448-11.938,1.298-18.549C5.477,232.02,133.665,12.144,136.563,7.906
			c2.875-4.2,7.48-6.708,12.318-6.708c5.133,0,9.78,2.732,13.087,7.693c7.472,11.209,118.852,203.38,129.779,222.642
			c5.043,8.885,6.077,16.872,2.911,22.493c-2.556,4.537-7.825,7.146-14.839,7.347C275.753,261.488,258.37,261.55,229.552,261.55z"/>
		<path d="M148.882,2.396c4.719,0,9.013,2.542,12.09,7.159c7.465,11.199,118.809,203.312,129.734,222.569
			c4.758,8.381,5.817,16.149,2.909,21.313c-2.342,4.156-7.253,6.549-13.829,6.736c-4.057,0.116-21.428,0.177-50.234,0.177
			c-73.058,0-200.53-0.397-209.839-0.655c-7.316-0.203-12.846-2.976-15.573-7.807c-2.709-4.802-2.237-11.133,1.297-17.369
			C6.504,232.637,134.475,13.137,137.552,8.583C140.203,4.709,144.439,2.396,148.882,2.396 M148.882,0
			c-5.164,0-10.16,2.632-13.308,7.23C132.91,11.125,7.579,225.879,3.352,233.339c-8.146,14.376-0.958,28.274,16.294,28.753
			c9.508,0.263,136.586,0.656,209.906,0.656c26.421,0,45.859-0.051,50.303-0.178c16.771-0.479,23.001-13.897,12.936-31.628
			C282.73,213.211,170.632,19.728,162.966,8.227C159.17,2.533,153.945,0,148.882,0L148.882,0z"/>
	</g>
	<path fill-rule="evenodd" clip-rule="evenodd" fill="#FF0000" d="M139.546,12.846c-2.461,3.702-121.149,207.83-125.05,214.919
		c-7.521,13.666-16.715,27.214,12.05,28.328l242.199-0.543c31.528-0.131,22.231-13.21,12.941-30.063
		c-9.288-16.854-114.762-200.763-121.838-211.694C152.77,2.862,145.298,4.192,139.546,12.846z"/>
	<polygon fill-rule="evenodd" clip-rule="evenodd" fill="#FFFFFF" stroke="#FFFFFF" stroke-width="1.1981" points="149.591,36.384 
		35.304,234.585 265.584,235.158 	"/>
</g>
<g id="cycliste">
	<path d="M126.154,148.476c0.888,0.762,4.344,2.995,7.339,1.647s17.672-10.483,18.271-12.131c0.599-1.647,2.246-7.489,2.546-8.388
		s1.498-0.749,1.647,0.3s5.691,15.426,4.193,16.025c-1.498,0.599-15.875,5.241-15.875,5.241c-4.193,2.097-6.29,4.493-5.691,6.59
		s6.29,21.717,6.59,23.214c0.3,1.498-1.797,1.349-2.097,2.097c-0.3,0.749,0.149,4.493,1.198,5.093c1.048,0.599,3.145,0,4.493,0
		c1.497,0,0.898,16.324,0.898,17.672c0,1.349-2.846,1.049-3.445,1.798c-0.599,0.749-1.197,5.241,1.349,5.392
		c2.546,0.149,12.58,0.599,12.58,0.599s-0.749-32.499,0.3-33.997c1.048-1.498,20.068-26.809,21.267-29.504
		c1.198-2.696,0.6-8.237-0.898-14.527s-9.136-28.905-11.232-29.804c-2.097-0.899-3.895-0.749-4.793-2.097
		c-0.898-1.348-2.097-3.744-1.497-4.942c0.599-1.198,3.295-3.744,2.995-9.436c-0.3-5.691-4.742-10.184-11.532-10.184
		c-4.652,0-11.881,2.097-11.682,11.232c0.122,5.612,4.643,11.832,9.585,11.682c0.898,0.149,1.198,3.145,0.449,4.193
		s-7.039,20.817-7.788,25.161c-0.749,4.343-7.938,7.638-11.082,9.136c-3.146,1.497-7.938,4.343-8.237,5.541
		C125.705,147.277,125.105,147.577,126.154,148.476z"/>
</g>
<g id="cycliste_entrejambe">
	<path fill="#FFFFFF" d="M162.173,156.938c-1.645,0.531-10.559,2.097-11.756,3.444c-1.198,1.348-1.552,5.091-0.749,7.563
		c1.797,5.541,1.647,7.039,2.995,4.418c0.722-1.405,7.788-10.634,8.911-12.057C162.697,158.885,164.495,156.188,162.173,156.938z"/>
</g>
<g id="velo">
	<circle fill="none" stroke="#000000" stroke-width="2.3963" stroke-linejoin="round" cx="105.744" cy="198.685" r="23.725"/>
	<circle fill="none" stroke="#000000" stroke-width="2.3963" cx="191.242" cy="198.685" r="23.726"/>
	<circle cx="105.745" cy="198.044" r="4.061"/>
	<circle cx="190.814" cy="198.044" r="4.061"/>
	<path fill="none" stroke="#000000" stroke-width="2.3963" d="M131.82,145.997c0,0-7.956,1.629-9.773,2.806
		c-2.248,1.453-1.816,4.274,0.962,5.663c2.779,1.391,1.865,0.723,1.865,1.47c0,4.17-6.84,20.946-7.908,22.443"/>
	<line fill="none" stroke="#000000" stroke-width="2.3963" x1="168.797" y1="161.814" x2="123.592" y2="161.922"/>
	<path fill="none" stroke="#000000" stroke-width="2.3963" d="M105.852,197.402c2.564-1.069,5.77-3.634,6.625-5.558
		c0.855-1.924,3.955-11.328,4.703-14.213"/>
	<polyline fill="none" stroke="#000000" stroke-width="2.3963" points="121.241,168.44 151.913,202.104 191.774,198.793 
		168.797,163.098 	"/>
</g>
</svg>
