<?xml version="1.0" encoding="utf-8"?>
<!-- Generator: Adobe Illustrator 16.0.0, SVG Export Plug-In . SVG Version: 6.00 Build 0)  -->
<!DOCTYPE svg PUBLIC "-//W3C//DTD SVG 1.1//EN" "http://www.w3.org/Graphics/SVG/1.1/DTD/svg11.dtd">
<svg version="1.1" xmlns="http://www.w3.org/2000/svg" xmlns:xlink="http://www.w3.org/1999/xlink" x="0px" y="0px"
	 width="297.639px" height="262.748px" viewBox="0 0 297.639 262.748" enable-background="new 0 0 297.639 262.748"
	 xml:space="preserve">
<g id="Calque_5">
	<g>
		<path fill-rule="evenodd" clip-rule="evenodd" fill="#FFFFFF" d="M229.552,261.55c-73.063,0-200.557-0.398-209.873-0.655
			c-7.752-0.216-13.642-3.204-16.583-8.416c-2.921-5.177-2.448-11.938,1.298-18.549C5.477,232.02,133.665,12.144,136.563,7.906
			c2.875-4.2,7.48-6.708,12.318-6.708c5.133,0,9.78,2.732,13.087,7.693c7.472,11.209,118.852,203.38,129.779,222.642
			c5.043,8.885,6.077,16.872,2.911,22.493c-2.556,4.537-7.825,7.146-14.839,7.347C275.753,261.488,258.37,261.55,229.552,261.55z"/>
		<path d="M148.882,2.396c4.719,0,9.013,2.542,12.09,7.159c7.465,11.199,118.809,203.312,129.734,222.569
			c4.758,8.381,5.817,16.149,2.909,21.313c-2.342,4.156-7.253,6.549-13.829,6.736c-4.057,0.116-21.428,0.177-50.234,0.177
			c-73.058,0-200.53-0.397-209.839-0.655c-7.316-0.203-12.846-2.976-15.573-7.807c-2.709-4.802-2.237-11.133,1.297-17.369
			C6.504,232.637,134.475,13.137,137.552,8.583C140.203,4.709,144.439,2.396,148.882,2.396 M148.882,0
			c-5.164,0-10.16,2.632-13.308,7.23C132.91,11.125,7.579,225.879,3.352,233.339c-8.146,14.376-0.958,28.274,16.294,28.753
			c9.508,0.263,136.586,0.656,209.906,0.656c26.421,0,45.859-0.051,50.303-0.178c16.771-0.479,23.001-13.897,12.936-31.628
			C282.73,213.211,170.632,19.728,162.966,8.227C159.17,2.533,153.945,0,148.882,0L148.882,0z"/>
	</g>
	<path fill-rule="evenodd" clip-rule="evenodd" fill="#FF0000" d="M139.546,12.846c-2.461,3.702-121.149,207.83-125.05,214.919
		c-7.521,13.666-16.715,27.214,12.05,28.328l242.199-0.543c31.528-0.131,22.231-13.21,12.941-30.063
		c-9.288-16.854-114.762-200.763-121.838-211.694C152.77,2.862,145.298,4.192,139.546,12.846z"/>
	<path display="none" fill-rule="evenodd" clip-rule="evenodd" fill="#EF7D00" d="M118.052,11.425
		c-2.054,3.09-101.114,173.461-104.37,179.378c-6.277,11.406-13.951,22.714,10.057,23.644l202.147-0.453
		c26.314-0.109,18.555-11.025,10.801-25.091c-7.752-14.067-95.783-167.563-101.689-176.687
		C129.089,3.092,122.853,4.202,118.052,11.425z"/>
	<path display="none" fill-rule="evenodd" clip-rule="evenodd" fill="#FFED00" d="M118.052,11.425
		c-2.054,3.09-101.114,173.461-104.37,179.378c-6.277,11.406-13.951,22.714,10.057,23.644l202.147-0.453
		c26.314-0.109,18.555-11.025,10.801-25.091c-7.752-14.067-95.783-167.563-101.689-176.687
		C129.089,3.092,122.853,4.202,118.052,11.425z"/>
	<polygon fill-rule="evenodd" clip-rule="evenodd" fill="#FFFFFF" stroke="#FFFFFF" stroke-width="1.1981" points="149.591,36.384 
		35.304,234.585 265.584,235.158 	"/>
</g>
<g id="Manche_à_air">
	<path fill="#FF0000" d="M186.511,227.402h6.889v-91.957l-36.543-12.28c0,0-60.776,28.216-64.999,30.253
		c-8.486,4.094-6.29,17.474,4.493,17.672c7.487,0.139,71.889-12.58,71.889-12.58l18.172-18.371L186.511,227.402z"/>
</g>
<g id="bande_blanche">
	<circle fill="#FFFFFF" cx="96.551" cy="162.306" r="6.39"/>
	<path fill="#FFFFFF" d="M111.527,149.723c3.395-1.597,6.19-2.995,10.583-5.191c4.993-1.198,11.184,12.38,6.79,16.773
		c-1.298,1.298-7.788,1.998-12.381,3.196C118.317,160.107,117.318,151.72,111.527,149.723z"/>
	<path fill="#FFFFFF" d="M137.087,137.541c3.395-1.597,6.191-2.995,10.584-5.191c9.586,3.196,11.782,14.579,8.388,24.164
		c-1.298,1.298-7.59,1.397-12.182,2.596C147.072,152.718,145.075,140.339,137.087,137.541z"/>
	<path fill="#FFFFFF" d="M172.433,132.551c6.391,2.396,8.787,2.995,11.782,4.193c-1.797,2.196-6.19,6.39-8.587,8.786
		C176.227,141.337,175.229,135.745,172.433,132.551z"/>
</g>
</svg>
