<?xml version="1.0" encoding="utf-8"?>
<!-- Generator: Adobe Illustrator 16.0.0, SVG Export Plug-In . SVG Version: 6.00 Build 0)  -->
<!DOCTYPE svg PUBLIC "-//W3C//DTD SVG 1.1//EN" "http://www.w3.org/Graphics/SVG/1.1/DTD/svg11.dtd">
<svg version="1.1" xmlns="http://www.w3.org/2000/svg" xmlns:xlink="http://www.w3.org/1999/xlink" x="0px" y="0px"
	 width="297.634px" height="262.747px" viewBox="0 0 297.634 262.747" enable-background="new 0 0 297.634 262.747"
	 xml:space="preserve">
<g id="Calque_2">
	<g>
		<path fill-rule="evenodd" clip-rule="evenodd" fill="#FFFFFF" d="M229.447,261.75c-74.802,0-200.275-0.393-209.774-0.657
			c-7.826-0.217-13.775-3.242-16.752-8.518c-2.957-5.24-2.483-12.073,1.298-18.747C5.303,231.916,133.52,11.997,136.396,7.792
			c2.912-4.255,7.579-6.796,12.484-6.796c5.202,0,9.91,2.764,13.255,7.783c7.425,11.138,118.843,203.368,129.786,222.654
			c5.078,8.948,6.111,17.006,2.909,22.69c-2.592,4.601-7.922,7.246-15.008,7.448C275.748,261.688,258.329,261.75,229.447,261.75z"/>
		<path d="M148.88,1.994c4.858,0,9.271,2.606,12.426,7.339c7.418,11.128,118.807,203.31,129.748,222.592
			c4.827,8.507,5.887,16.42,2.907,21.709c-2.414,4.284-7.445,6.749-14.168,6.941c-4.065,0.116-21.475,0.177-50.346,0.177
			c-74.795,0-200.251-0.393-209.748-0.656c-7.462-0.208-13.113-3.053-15.911-8.012c-2.781-4.928-2.308-11.403,1.297-17.765
			c1.08-1.906,129.215-221.686,132.133-225.964C139.945,4.372,144.304,1.994,148.88,1.994 M148.88,0
			c-5.164,0-10.161,2.633-13.307,7.229C132.909,11.125,7.579,225.879,3.352,233.337c-8.146,14.376-0.958,28.273,16.293,28.752
			c9.503,0.264,136.468,0.657,209.803,0.657c26.476,0,45.955-0.051,50.403-0.178c16.771-0.479,23-13.896,12.938-31.627
			C282.728,213.21,170.633,19.728,162.965,8.227C159.169,2.532,153.944,0,148.88,0L148.88,0z"/>
	</g>
</g>
<g id="Calque_3">
	<path fill-rule="evenodd" clip-rule="evenodd" fill="#FF0000" d="M139.544,12.846c-2.459,3.702-121.147,207.829-125.049,214.918
		c-7.52,13.666-16.715,27.213,12.05,28.327l242.201-0.542c31.524-0.13,22.229-13.209,12.939-30.062
		c-9.287-16.855-114.76-200.762-121.838-211.694C152.769,2.862,145.296,4.192,139.544,12.846z"/>
</g>
<g id="Calque_4">
	<polygon fill-rule="evenodd" clip-rule="evenodd" fill="#FFFFFF" stroke="#FFFFFF" stroke-width="0.9968" points="149.591,36.383 
		35.304,234.584 265.583,235.157 	"/>
</g>
<g id="Calque_7">
	<polygon fill="#231F20" points="119.262,224.805 99.174,224.805 99.174,181.64 119.474,146.81 119.474,103.432 139.134,103.432 
		139.134,146.81 119.261,181.64 	"/>
	<polygon fill="#231F20" points="200.577,224.729 180.488,224.729 180.488,181.564 159.918,146.734 159.918,103.356 
		179.579,103.356 179.579,146.734 200.576,181.564 	"/>
</g>
</svg>
