<?xml version="1.0" encoding="utf-8"?>
<!-- Generator: Adobe Illustrator 16.0.0, SVG Export Plug-In . SVG Version: 6.00 Build 0)  -->
<!DOCTYPE svg PUBLIC "-//W3C//DTD SVG 1.1//EN" "http://www.w3.org/Graphics/SVG/1.1/DTD/svg11.dtd">
<svg version="1.1" xmlns="http://www.w3.org/2000/svg" xmlns:xlink="http://www.w3.org/1999/xlink" x="0px" y="0px"
	 width="297.638px" height="262.746px" viewBox="0 0 297.638 262.746" enable-background="new 0 0 297.638 262.746"
	 xml:space="preserve">
<g id="Calque_2">
	<g>
		<path fill-rule="evenodd" clip-rule="evenodd" fill="#FFFFFF" d="M229.49,261.75c-74.805,0-200.303-0.393-209.816-0.656
			c-7.826-0.217-13.775-3.243-16.752-8.518c-2.957-5.24-2.483-12.073,1.299-18.747C5.304,231.915,133.523,11.993,136.397,7.792
			c2.912-4.255,7.579-6.796,12.484-6.796c5.202,0,9.91,2.764,13.255,7.783c7.407,11.11,118.839,203.359,129.789,222.654
			c5.078,8.947,6.111,17.005,2.909,22.69c-2.592,4.601-7.922,7.246-15.008,7.448c-4.072,0.116-21.471,0.178-50.309,0.178
			C229.506,261.75,229.5,261.75,229.49,261.75z"/>
		<path d="M148.881,1.994c4.858,0,9.271,2.606,12.426,7.339c7.4,11.101,118.803,203.302,129.751,222.593
			c4.828,8.506,5.887,16.419,2.907,21.709c-2.414,4.284-7.445,6.75-14.168,6.941c-4.063,0.116-21.459,0.177-50.307,0.177
			c-73.059,0-200.501-0.398-209.79-0.656c-7.462-0.207-13.113-3.052-15.912-8.011c-2.78-4.928-2.307-11.403,1.298-17.766
			C6.167,232.414,134.303,12.632,137.22,8.355C139.945,4.372,144.305,1.994,148.881,1.994 M148.881,0
			c-5.164,0-10.161,2.633-13.307,7.229C132.909,11.125,7.579,225.879,3.353,233.337c-8.146,14.376-0.959,28.273,16.293,28.753
			c9.504,0.263,136.514,0.656,209.845,0.656c26.458,0,45.917-0.051,50.363-0.178c16.771-0.479,23.001-13.896,12.938-31.627
			C282.729,213.21,170.633,19.728,162.966,8.227C159.17,2.532,153.945,0,148.881,0L148.881,0z"/>
	</g>
</g>
<g id="Calque_3">
	<path fill-rule="evenodd" clip-rule="evenodd" fill="#FF0000" d="M139.987,12.887c-2.468,3.714-121.532,208.487-125.446,215.6
		c-7.544,13.709-16.768,27.3,12.089,28.417l242.969-0.544c31.627-0.131,22.301-13.251,12.981-30.157
		c-9.317-16.908-115.125-201.398-122.226-212.365C153.254,2.871,145.757,4.205,139.987,12.887z"/>
</g>
<g id="Calque_4">
	<polygon fill-rule="evenodd" clip-rule="evenodd" fill="#FFFFFF" stroke="#FFFFFF" points="150.065,36.499 35.416,235.327 
		266.426,235.902 	"/>
</g>
<g id="Calque_5">
	<path d="M101.13,228.534c0,0,23.167-16,24-19.666c1.56-6.856-1.333-7.334-5.333-7.334s-15.667,1.333-22-6
		c-6.334-7.333-2.333-14.334,1.333-17c3.667-2.666,16-6.334,17.333-8c1.334-1.666,6.667-12.999,5.334-13.666
		c-1.334-0.667-2-2.334-2-3.667s5.666-14.333,7-15c1.333-0.667,4.333-0.666,5-2.333c0.666-1.667,9.333-13.667,12-13.333
		c2.666,0.333,38.333,14.666,39,16s-0.167,15.167,0,17.334c0.172,2.229,2.083,4.832,1.75,6.499s-4.083,14.167-6.083,14.834
		s-3,0.333-3.667,2s-3.001,10.333-4.667,11s-28,7.667-26.667,9c1.334,1.333,54.565,9.292,56.667,9.667
		c2.334,0.416,8.334,0.333,7.667,9c-0.412,5.358-10,10-10,10l-10,0.333c0,0,14.424-11.728,9.333-13c-4-1-58.667-11.333-60.333-11
		c-1.667,0.333-2.333,2.333-2.667,5.333c-0.333,3-6,17.667-10,18.667S101.13,228.534,101.13,228.534z"/>
	<path fill="#FFFFFF" d="M129.672,199.326c0,0-17.25-4.125-18.125-4.375s-8.25-1.5-8.375-5.375s2.125-6.25,4.875-7.875
		s13.5-6.875,15.625-7.625s2.125-0.875,2.625-2s3.75-11.75,5.625-11.25s33.25,12,33.125,13.625s-4.25,11.375-3.75,12
		s0.25,1.625-1.25,1.625s-19.834,2.292-25.167,5.375C131.492,195.409,129.672,199.326,129.672,199.326z"/>
	<path fill="#FFFFFF" d="M136.047,139.701c1.375,0.375,39.25,15.75,40.125,15.625s1.25-2.75,1.5-4.375s1.875-9.25,0.25-10.125
		s-32.875-13.625-33.875-13.25s-7.125,8.5-7.625,9.75S136.047,139.701,136.047,139.701z"/>
</g>
</svg>
