<?xml version="1.0" encoding="utf-8"?>
<!-- Generator: Adobe Illustrator 16.0.0, SVG Export Plug-In . SVG Version: 6.00 Build 0)  -->
<!DOCTYPE svg PUBLIC "-//W3C//DTD SVG 1.1//EN" "http://www.w3.org/Graphics/SVG/1.1/DTD/svg11.dtd">
<svg version="1.1" id="Calque_1" xmlns="http://www.w3.org/2000/svg" xmlns:xlink="http://www.w3.org/1999/xlink" x="0px" y="0px"
	 width="297.639px" height="327.938px" viewBox="0 0 297.639 327.938" enable-background="new 0 0 297.639 327.938"
	 xml:space="preserve">
<g id="Calque_8">
	<g>
		<path fill="#FFFF00" d="M11.68,326.94c-5.892,0-10.684-4.919-10.684-10.967v-41.489c0-6.047,4.792-10.965,10.684-10.965h274.275
			c5.892,0,10.685,4.918,10.685,10.965v41.489c0,6.048-4.793,10.967-10.685,10.967H11.68z"/>
		<path fill="#1A171B" d="M285.957,264.516c5.342,0,9.688,4.473,9.688,9.969v41.489c0,5.498-4.347,9.971-9.688,9.971H11.68
			c-5.342,0-9.688-4.473-9.688-9.971v-41.489c0-5.498,4.345-9.969,9.688-9.969H285.957 M285.957,262.521H11.68
			C5.229,262.521,0,267.877,0,274.484v41.489c0,6.608,5.229,11.964,11.681,11.964h274.275c6.453,0,11.682-5.355,11.682-11.964
			v-41.489C297.638,267.877,292.409,262.521,285.957,262.521L285.957,262.521z"/>
	</g>
</g>
<g id="Calque_2">
	<g>
		<path fill="#FFFF00" d="M188.033,261.832c-69.75,0-160.401-0.178-168.359-0.398c-7.764-0.216-13.694-3.267-16.699-8.592
			c-3.022-5.354-2.568-12.283,1.245-19.014C5.304,231.913,133.539,11.969,136.397,7.789c2.911-4.253,7.578-6.792,12.482-6.792
			c5.204,0,9.912,2.765,13.259,7.784c7.477,11.214,118.858,203.393,129.785,222.654c5.079,8.946,6.113,17.004,2.912,22.688
			c-2.592,4.601-7.923,7.247-15.01,7.449C274.006,261.736,240.549,261.832,188.033,261.832z"/>
		<path d="M148.879,1.994c4.859,0,9.273,2.606,12.43,7.34c7.469,11.203,118.822,203.334,129.748,222.593
			c4.829,8.505,5.889,16.417,2.909,21.707c-2.413,4.285-7.445,6.75-14.17,6.942c-5.81,0.165-39.255,0.259-91.759,0.259
			c-69.744,0-160.383-0.178-168.335-0.397c-7.4-0.205-13.033-3.076-15.859-8.086c-2.846-5.041-2.392-11.613,1.244-18.031
			C6.168,232.411,134.324,12.599,137.219,8.353C139.944,4.371,144.303,1.994,148.879,1.994 M148.879,0
			c-5.165,0-10.161,2.632-13.306,7.227C132.909,11.124,7.579,225.879,3.352,233.336c-8.146,14.377-0.957,28.615,16.295,29.094
			c7.878,0.219,96.53,0.399,168.39,0.399c46.088,0,85.262-0.075,91.816-0.261c16.771-0.479,23.003-13.896,12.938-31.627
			C282.73,213.209,170.635,19.729,162.967,8.228C159.17,2.532,153.944,0,148.879,0L148.879,0z"/>
	</g>
</g>
<g id="Calque_3">
	<path fill="#FF0000" d="M139.546,12.847c-2.459,3.701-121.15,207.826-125.05,214.917c-7.521,13.668-16.716,27.215,12.047,28.328
		l242.205-0.541c31.527-0.131,22.229-13.208,12.941-30.063C272.4,208.633,166.926,24.725,159.849,13.794
		C152.769,2.861,145.295,4.192,139.546,12.847z"/>
</g>
<g id="Calque_4">
	<polygon fill="#FFFF00" stroke="#FFFF00" stroke-width="0.9968" points="149.591,36.384 35.303,234.584 265.585,235.154 	"/>
</g>
<g id="Calque_11">
	<circle cx="147.829" cy="205.512" r="11.677"/>
	<path d="M164.156,107.061c0-9.02-7.31-16.33-16.326-16.33c-9.018,0-16.329,7.31-16.329,16.33c0,1.583,0.236,3.108,0.657,4.558
		l9.81,67.99c0,3.236,2.627,5.865,5.862,5.865c3.236,0,5.862-2.629,5.862-5.865l9.808-67.99
		C163.921,110.167,164.156,108.643,164.156,107.061z"/>
</g>
<g>
	<path d="M24.114,279.467v31.572h-5.762v-31.572H24.114z"/>
	<path d="M30.673,311.039v-31.572h6.605l8.151,13.537c2.061,3.514,3.935,7.168,5.387,10.588h0.094
		c-0.422-4.217-0.516-8.291-0.516-13.117v-11.008h5.34v31.572h-5.996l-8.245-13.912c-2.014-3.467-4.075-7.309-5.621-10.867
		l-0.188,0.047c0.234,4.074,0.328,8.244,0.328,13.443v11.289H30.673z"/>
	<path d="M90.4,294.926c0,10.586-6.417,16.629-15.084,16.629c-8.947,0-14.568-6.84-14.568-16.068
		c0-9.742,6.137-16.582,15.037-16.582C84.966,278.904,90.4,285.885,90.4,294.926z M66.838,295.346c0,6.465,3.232,11.572,8.76,11.572
		c5.574,0,8.713-5.201,8.713-11.805c0-5.949-2.951-11.572-8.713-11.572C69.883,283.541,66.838,288.836,66.838,295.346z"/>
	<path d="M95.321,311.039v-31.572h6.605l8.151,13.537c2.061,3.514,3.935,7.168,5.387,10.588h0.094
		c-0.422-4.217-0.516-8.291-0.516-13.117v-11.008h5.34v31.572h-5.996l-8.245-13.912c-2.014-3.467-4.075-7.309-5.621-10.867
		l-0.188,0.047c0.234,4.074,0.328,8.244,0.328,13.443v11.289H95.321z"/>
	<path d="M127.036,279.889c2.576-0.375,5.762-0.656,9.181-0.656c5.902,0,9.931,1.217,12.835,3.654
		c3.092,2.482,4.966,6.277,4.966,11.617c0,5.668-1.921,9.836-4.919,12.555c-3.139,2.857-8.151,4.309-14.288,4.309
		c-3.326,0-5.855-0.188-7.776-0.422V279.889z M132.798,306.684c0.796,0.141,2.014,0.141,3.186,0.141
		c7.495,0.047,11.945-4.123,11.945-12.133c0.047-6.934-3.982-10.963-11.196-10.963c-1.827,0-3.092,0.141-3.935,0.328V306.684z"/>
	<path d="M164.653,302.092l-2.717,8.947h-5.949l10.118-31.572h7.354l10.259,31.572h-6.23l-2.857-8.947H164.653z M173.694,297.736
		l-2.482-7.777c-0.609-1.92-1.125-4.074-1.593-5.902h-0.094c-0.469,1.828-0.984,4.029-1.499,5.902l-2.437,7.777H173.694z"/>
	<path d="M190.372,284.291h-8.994v-4.824h23.844v4.824h-9.088v26.748h-5.762V284.291z"/>
	<path d="M214.685,279.467v31.572h-5.762v-31.572H214.685z"/>
	<path d="M249.303,294.926c0,10.586-6.418,16.629-15.084,16.629c-8.947,0-14.568-6.84-14.568-16.068
		c0-9.742,6.137-16.582,15.037-16.582C243.87,278.904,249.303,285.885,249.303,294.926z M225.741,295.346
		c0,6.465,3.232,11.572,8.76,11.572c5.574,0,8.713-5.201,8.713-11.805c0-5.949-2.951-11.572-8.713-11.572
		C228.786,283.541,225.741,288.836,225.741,295.346z"/>
	<path d="M254.223,311.039v-31.572h6.604l8.151,13.537c2.062,3.514,3.935,7.168,5.387,10.588h0.094
		c-0.421-4.217-0.515-8.291-0.515-13.117v-11.008h5.34v31.572h-5.996l-8.244-13.912c-2.015-3.467-4.076-7.309-5.622-10.867
		l-0.188,0.047c0.234,4.074,0.328,8.244,0.328,13.443v11.289H254.223z"/>
</g>
</svg>
