<?xml version="1.0" encoding="utf-8"?>
<!-- Generator: Adobe Illustrator 16.0.0, SVG Export Plug-In . SVG Version: 6.00 Build 0)  -->
<!DOCTYPE svg PUBLIC "-//W3C//DTD SVG 1.1//EN" "http://www.w3.org/Graphics/SVG/1.1/DTD/svg11.dtd">
<svg version="1.1" xmlns="http://www.w3.org/2000/svg" xmlns:xlink="http://www.w3.org/1999/xlink" x="0px" y="0px"
	 width="297.638px" height="327.938px" viewBox="0 0 297.638 327.938" enable-background="new 0 0 297.638 327.938"
	 xml:space="preserve">
<g id="Calque_8">
	<g>
		<path fill="#FFFF00" d="M11.68,326.94c-5.891,0-10.683-4.919-10.683-10.966v-41.49c0-6.046,4.792-10.965,10.683-10.965h274.276
			c5.891,0,10.684,4.918,10.684,10.965v41.49c0,6.047-4.793,10.966-10.684,10.966H11.68z"/>
		<path fill="#1A171B" d="M285.957,264.516c5.342,0,9.688,4.472,9.688,9.968v41.49c0,5.498-4.346,9.97-9.688,9.97H11.68
			c-5.341,0-9.687-4.472-9.687-9.97v-41.49c0-5.497,4.345-9.968,9.687-9.968H285.957 M285.957,262.522H11.68
			c-6.451,0-11.68,5.355-11.68,11.962v41.49c0,6.608,5.229,11.963,11.68,11.963h274.276c6.453,0,11.681-5.355,11.681-11.963v-41.49
			C297.638,267.877,292.409,262.522,285.957,262.522L285.957,262.522z"/>
	</g>
</g>
<g id="Calque_9">
	<g>
		<path d="M9.317,304.369c1.864,1.099,4.778,2.055,7.789,2.055c3.727,0,5.829-1.768,5.829-4.396c0-2.436-1.625-3.871-5.686-5.351
			c-5.352-1.911-8.744-4.73-8.744-9.365c0-5.303,4.396-9.269,11.419-9.269c3.489,0,6.021,0.764,7.693,1.625l-1.385,4.729
			c-1.195-0.62-3.44-1.529-6.45-1.529c-3.727,0-5.303,1.96-5.303,3.871c0,2.485,1.862,3.631,6.164,5.303
			c5.59,2.103,8.265,4.921,8.265,9.556c0,5.208-3.917,9.699-12.184,9.699c-3.44,0-6.976-0.956-8.744-2.055L9.317,304.369z"/>
		<path d="M40.365,283.49h-9.173v-4.921h24.32v4.921h-9.27v27.282h-5.877V283.49z"/>
		<path d="M86.514,294.336c0,10.797-6.546,16.961-15.385,16.961c-9.125,0-14.859-6.976-14.859-16.389
			c0-9.938,6.26-16.913,15.337-16.913C80.971,277.996,86.514,285.115,86.514,294.336z M62.48,294.766
			c0,6.593,3.297,11.802,8.935,11.802c5.686,0,8.887-5.305,8.887-12.041c0-6.068-3.01-11.802-8.887-11.802
			C65.586,282.726,62.48,288.125,62.48,294.766z"/>
		<path d="M114.644,309.864c-1.385,0.668-4.443,1.433-8.361,1.433c-10.225,0-16.437-6.403-16.437-16.245
			c0-10.607,7.406-17.01,17.249-17.01c3.87,0,6.593,0.812,7.787,1.434l-1.242,4.682c-1.529-0.668-3.679-1.242-6.307-1.242
			c-6.545,0-11.276,4.109-11.276,11.85c0,7.119,4.109,11.609,11.229,11.609c2.341,0,4.825-0.478,6.402-1.146L114.644,309.864z"/>
		<path d="M119.652,278.568h5.829v14.812h0.143c0.765-1.242,1.577-2.388,2.341-3.487l8.457-11.324h7.215l-11.085,13.713
			l11.802,18.49h-6.88l-9.079-14.764l-2.914,3.44v11.324h-5.829V278.568z"/>
		<path d="M154.473,301.646l-2.771,9.125h-6.067l10.321-32.203h7.5l10.463,32.203h-6.354l-2.915-9.125H154.473z M163.695,297.202
			l-2.532-7.931c-0.621-1.959-1.146-4.156-1.624-6.02h-0.096c-0.478,1.864-1.003,4.109-1.529,6.02l-2.484,7.931H163.695z"/>
		<path d="M203.197,309.291c-2.055,0.765-6.068,1.816-10.32,1.816c-5.447,0-9.603-1.386-12.661-4.3
			c-2.867-2.724-4.492-6.976-4.492-11.85c0.048-10.225,7.263-16.722,17.917-16.722c3.965,0,7.071,0.813,8.552,1.529l-1.29,4.729
			c-1.768-0.813-3.917-1.385-7.31-1.385c-6.88,0-11.706,4.061-11.706,11.562c0,7.311,4.491,11.658,11.18,11.658
			c2.15,0,3.68-0.286,4.444-0.621v-8.074h-5.686v-4.635h11.371V309.291z"/>
		<path d="M227.221,296.486h-12.135v9.46h13.568v4.826h-19.445v-32.203h18.729v4.826h-12.852v8.314h12.135V296.486z"/>
		<path d="M243.693,278.999c2.149-0.383,5.064-0.669,8.982-0.669c4.301,0,7.406,0.908,9.46,2.628
			c1.912,1.577,3.154,4.109,3.154,7.119c0,3.058-0.955,5.542-2.723,7.263c-2.39,2.34-6.021,3.487-10.177,3.487
			c-1.1,0-2.055-0.048-2.867-0.239v12.183h-5.829V278.999z M249.522,293.954c0.765,0.239,1.672,0.287,2.867,0.287
			c4.395,0,7.071-2.198,7.071-5.925c0-3.583-2.484-5.447-6.545-5.447c-1.625,0-2.772,0.144-3.393,0.287V293.954z"/>
		<path d="M270.394,278.568h5.877v27.282h13.234v4.921h-19.111V278.568z"/>
	</g>
</g>
<g id="Calque_2">
	<g>
		<path fill-rule="evenodd" clip-rule="evenodd" fill="#FFFF00" d="M188.033,261.832c-69.75,0-160.401-0.178-168.359-0.399
			c-7.764-0.215-13.695-3.266-16.7-8.591c-3.022-5.354-2.568-12.284,1.245-19.014c1.085-1.915,129.32-221.859,132.178-226.039
			c2.911-4.253,7.578-6.792,12.483-6.792c5.204,0,9.912,2.765,13.258,7.784c7.477,11.214,118.859,203.393,129.786,222.654
			c5.079,8.947,6.113,17.004,2.912,22.689c-2.592,4.601-7.923,7.247-15.01,7.449C274.006,261.737,240.549,261.832,188.033,261.832z"
			/>
		<path d="M148.879,1.994c4.859,0,9.273,2.606,12.429,7.34c7.469,11.203,118.823,203.334,129.748,222.593
			c4.829,8.505,5.889,16.417,2.91,21.707c-2.414,4.285-7.446,6.75-14.17,6.942c-5.81,0.165-39.255,0.259-91.759,0.259
			c-69.744,0-160.383-0.178-168.335-0.398c-7.4-0.205-13.033-3.076-15.859-8.085c-2.846-5.042-2.392-11.614,1.244-18.032
			C6.168,232.411,134.324,12.599,137.219,8.353C139.944,4.371,144.303,1.994,148.879,1.994 M148.879,0
			c-5.165,0-10.161,2.632-13.306,7.227C132.909,11.124,7.579,225.879,3.352,233.336c-8.146,14.377-0.957,28.615,16.295,29.093
			c7.878,0.219,96.53,0.4,168.39,0.4c46.088,0,85.262-0.075,91.816-0.261c16.772-0.479,23.003-13.896,12.938-31.626
			C282.73,213.209,170.635,19.729,162.967,8.228C159.17,2.532,153.944,0,148.879,0L148.879,0z"/>
	</g>
</g>
<g id="Calque_3">
	<path fill-rule="evenodd" clip-rule="evenodd" fill="#FF0000" d="M139.546,12.847c-2.459,3.701-121.151,207.826-125.05,214.917
		c-7.522,13.667-16.716,27.214,12.047,28.328l242.205-0.541c31.527-0.131,22.229-13.208,12.941-30.063
		C272.4,208.633,166.926,24.725,159.849,13.794C152.769,2.861,145.295,4.192,139.546,12.847z"/>
</g>
<g id="Calque_4">
	<polygon fill-rule="evenodd" clip-rule="evenodd" fill="#FFFF00" stroke="#FFFF00" stroke-width="0.9968" points="149.591,36.384 
		35.303,234.584 265.585,235.155 	"/>
</g>
<g id="Calque_11">
	<circle cx="147.829" cy="205.512" r="11.677"/>
	<path d="M164.156,107.061c0-9.02-7.31-16.33-16.326-16.33c-9.018,0-16.329,7.31-16.329,16.33c0,1.583,0.236,3.108,0.657,4.558
		l9.81,67.99c0,3.237,2.626,5.865,5.862,5.865s5.862-2.628,5.862-5.865l9.808-67.99
		C163.921,110.167,164.156,108.643,164.156,107.061z"/>
</g>
</svg>
