<?xml version="1.0" encoding="utf-8"?>
<!-- Generator: Adobe Illustrator 16.0.0, SVG Export Plug-In . SVG Version: 6.00 Build 0)  -->
<!DOCTYPE svg PUBLIC "-//W3C//DTD SVG 1.1//EN" "http://www.w3.org/Graphics/SVG/1.1/DTD/svg11.dtd">
<svg version="1.1" xmlns="http://www.w3.org/2000/svg" xmlns:xlink="http://www.w3.org/1999/xlink" x="0px" y="0px"
	 width="297.638px" height="262.746px" viewBox="0 0 297.638 262.746" enable-background="new 0 0 297.638 262.746"
	 xml:space="preserve">
<g id="Calque_2">
	<g>
		<path fill-rule="evenodd" clip-rule="evenodd" fill="#FFFF00" d="M229.49,261.75c-74.805,0-200.303-0.393-209.816-0.656
			c-7.826-0.217-13.775-3.243-16.752-8.518c-2.957-5.24-2.483-12.073,1.299-18.747C5.304,231.915,133.523,11.993,136.397,7.792
			c2.912-4.255,7.579-6.796,12.484-6.796c5.202,0,9.91,2.764,13.255,7.783c7.407,11.11,118.839,203.359,129.789,222.654
			c5.078,8.947,6.111,17.005,2.909,22.69c-2.592,4.601-7.922,7.246-15.008,7.448c-4.072,0.116-21.471,0.178-50.309,0.178
			C229.506,261.75,229.5,261.75,229.49,261.75z"/>
		<path d="M148.881,1.994c4.858,0,9.271,2.606,12.426,7.339c7.4,11.101,118.803,203.302,129.751,222.593
			c4.828,8.506,5.887,16.419,2.907,21.709c-2.414,4.284-7.445,6.75-14.168,6.941c-4.063,0.116-21.459,0.177-50.307,0.177
			c-73.059,0-200.501-0.398-209.79-0.656c-7.462-0.207-13.113-3.052-15.912-8.011c-2.78-4.928-2.307-11.403,1.298-17.766
			C6.167,232.414,134.303,12.632,137.22,8.355C139.945,4.372,144.305,1.994,148.881,1.994 M148.881,0
			c-5.164,0-10.161,2.633-13.307,7.229C132.909,11.125,7.579,225.879,3.353,233.337c-8.146,14.376-0.959,28.273,16.293,28.753
			c9.504,0.263,136.514,0.656,209.845,0.656c26.458,0,45.917-0.051,50.363-0.178c16.771-0.479,23.001-13.896,12.938-31.627
			C282.729,213.21,170.633,19.728,162.966,8.227C159.17,2.532,153.945,0,148.881,0L148.881,0z"/>
	</g>
</g>
<g id="Calque_3">
	<path fill-rule="evenodd" clip-rule="evenodd" fill="#FF0000" d="M139.545,12.846c-2.46,3.702-121.147,207.829-125.05,214.918
		c-7.52,13.666-16.715,27.214,12.051,28.327l242.201-0.542c31.527-0.131,22.23-13.209,12.94-30.063
		c-9.288-16.854-114.762-200.762-121.84-211.694C152.77,2.862,145.296,4.192,139.545,12.846z"/>
</g>
<g id="Calque_4">
	<polygon fill-rule="evenodd" clip-rule="evenodd" fill="#FFFF00" stroke="#FFFF00" stroke-width="0.9968" points="149.591,36.383 
		35.304,234.584 265.584,235.157 	"/>
</g>
<g id="Calque_5">
	<path id="voiture__x2B__route" d="M144.506,220.669c1.439-1.388,1.142-13.218,1.132-15.218c-0.012-2,1.161-2.074,2.946-3.603
		c1.785-1.527,0.413-16.003,0.058-17.863c-0.355-1.859-4.416-4.742-5.529-6.972c-1.081-2.166-6.021-16.796-7.27-17.892
		c-1.248-1.099-44.075-0.935-46.967-0.161c-2.893,0.774-6.807,16.796-6.795,18.797c0.011,2-4.083,3.257-5.18,4.505
		c-1.097,1.247-1.493,17.043-0.936,18.419c0.56,1.376,1.946,2.818,3.604,2.946c1.655,0.13,0.806,14.714,0.806,17.041H51.467
		l-0.997,6.645h196.544l0.997-6.812L144.506,220.669z"/>
	<path id="lunette_arriere" fill="#FFFF00" d="M86.544,180.892c1.631-0.185,49.703,0.089,50.586-0.419
		c0.883-0.507,0.163-3.475-0.264-5.318c-0.427-1.845-1.944-10.695-4.056-10.938c-2.111-0.241-40.98-0.537-41.89,0.29
		c-0.91,0.829-3.992,12.135-3.993,13.685C86.927,179.742,86.544,180.892,86.544,180.892z"/>
	<path id="entre_roues" fill="#FFFF00" d="M91.009,204.553h42.033l0.498,13.623c0,0,1.827,1.995,1.662,2.493
		c-0.166,0.498-45.855,0.166-45.855,0.166s1.495-2.326,1.495-3.323S91.009,204.553,91.009,204.553z"/>
</g>
<g id="Calque_7">
	<path d="M148.326,210.534v7.477c0,0,86.892-9.305,87.557-9.139c0.664,0.167-1.661-7.476-2.658-7.144s-70.277,12.461-70.443,11.796
		c-0.167-0.665,23.259-7.31,23.259-7.31l-1.328-2.327l-26.749,7.312l42.033-18.94c0,0-1.162-8.639-2.325-7.975
		c-1.164,0.664-42.034,23.924-41.369,22.928c0.665-0.997,54.327-41.204,54.327-41.204s-1.328-11.132-1.827-10.965
		C208.304,155.209,148.326,210.534,148.326,210.534z"/>
	<ellipse cx="196.424" cy="151.139" rx="5.399" ry="5.234"/>
	<ellipse cx="214.533" cy="173.899" rx="5.399" ry="5.234"/>
	<ellipse cx="200.329" cy="197.99" rx="3.987" ry="4.237"/>
	<ellipse cx="228.406" cy="195.415" rx="3.489" ry="5.98"/>
	<ellipse cx="237.461" cy="212.776" rx="3.904" ry="2.409"/>
	<ellipse transform="matrix(-0.8642 -0.5032 0.5032 -0.8642 292.7963 468.5419)" cx="209.63" cy="194.757" rx="2.824" ry="3.665"/>
	<path d="M182.71,168.014c-1.153,1.979-1.001,4.22,0.342,5.002c1.343,0.781,3.364-0.191,4.519-2.171
		c1.152-1.978,0.999-4.217-0.344-4.998C185.885,165.064,183.862,166.036,182.71,168.014z"/>
</g>
</svg>
