<?xml version="1.0" encoding="utf-8"?>
<!-- Generator: Adobe Illustrator 16.0.0, SVG Export Plug-In . SVG Version: 6.00 Build 0)  -->
<!DOCTYPE svg PUBLIC "-//W3C//DTD SVG 1.1//EN" "http://www.w3.org/Graphics/SVG/1.1/DTD/svg11.dtd">
<svg version="1.1" xmlns="http://www.w3.org/2000/svg" xmlns:xlink="http://www.w3.org/1999/xlink" x="0px" y="0px"
	 width="297.638px" height="262.746px" viewBox="0 0 297.638 262.746" enable-background="new 0 0 297.638 262.746"
	 xml:space="preserve">
<g id="Calque_2">
	<g>
		<path fill-rule="evenodd" clip-rule="evenodd" fill="#FFFF00" d="M229.49,261.75c-74.805,0-200.303-0.393-209.816-0.656
			c-7.826-0.217-13.775-3.243-16.752-8.518c-2.957-5.24-2.483-12.073,1.299-18.747C5.304,231.915,133.523,11.993,136.397,7.792
			c2.912-4.255,7.579-6.796,12.484-6.796c5.202,0,9.91,2.764,13.255,7.783c7.407,11.11,118.839,203.359,129.789,222.654
			c5.078,8.947,6.111,17.005,2.909,22.69c-2.592,4.601-7.922,7.246-15.008,7.448c-4.072,0.116-21.471,0.178-50.309,0.178
			C229.506,261.75,229.5,261.75,229.49,261.75z"/>
		<path d="M148.881,1.994c4.858,0,9.271,2.606,12.426,7.339c7.4,11.101,118.803,203.302,129.751,222.593
			c4.828,8.506,5.887,16.419,2.907,21.709c-2.414,4.284-7.445,6.75-14.168,6.941c-4.063,0.116-21.459,0.177-50.307,0.177
			c-73.059,0-200.501-0.398-209.79-0.656c-7.462-0.207-13.113-3.052-15.912-8.011c-2.78-4.928-2.307-11.403,1.298-17.766
			C6.167,232.414,134.303,12.632,137.22,8.355C139.945,4.372,144.305,1.994,148.881,1.994 M148.881,0
			c-5.164,0-10.161,2.633-13.307,7.229C132.909,11.125,7.579,225.879,3.353,233.337c-8.146,14.376-0.959,28.273,16.293,28.753
			c9.504,0.263,136.514,0.656,209.845,0.656c26.458,0,45.917-0.051,50.363-0.178c16.771-0.479,23.001-13.896,12.938-31.627
			C282.729,213.21,170.633,19.728,162.966,8.227C159.17,2.532,153.945,0,148.881,0L148.881,0z"/>
	</g>
</g>
<g id="Calque_3">
	<path fill-rule="evenodd" clip-rule="evenodd" fill="#FF0000" d="M139.545,12.846c-2.46,3.702-121.147,207.829-125.05,214.918
		c-7.52,13.666-16.715,27.214,12.051,28.327l242.201-0.542c31.527-0.131,22.23-13.209,12.94-30.063
		c-9.288-16.854-114.762-200.762-121.84-211.694C152.77,2.862,145.296,4.192,139.545,12.846z"/>
</g>
<g id="Calque_4">
	<polygon fill-rule="evenodd" clip-rule="evenodd" fill="#FFFF00" stroke="#FFFF00" stroke-width="0.9968" points="149.591,36.383 
		35.304,234.584 265.584,235.157 	"/>
</g>
<g id="Calque_5">
	<path d="M166.41,161.611c-5.753,0-9.137,1.692-11.168,4.399c-2.029,2.708-2.706,11.844-2.706,17.258
		c0,5.416-6.769,4.568-6.769,7.782c0,1.989,0,13.197,0,16.582s5.414,3.384,5.414,3.384s0.338,14.89,0,18.611
		c0,0,9.778,2.03,9.778-1.016c0-3.045-0.34-16.242,2.367-16.242c2.708,0,43.408-0.339,46.361-0.339
		c2.952,0,2.489,13.197,2.489,16.242c0,3.046,9.576,1.016,9.576,1.016c-0.367-3.722,0-18.611,0-18.611s5.904,0.001,5.904-3.384
		s0-13.453,0-16.582s-7.381-2.367-7.381-7.782s-0.92-14.55-3.135-17.258c-2.213-2.708-5.719-4.399-11.993-4.399L166.41,161.611z"/>
	<circle fill="#FF0000" cx="156.494" cy="199.385" r="4.505"/>
	<circle fill="#FF0000" cx="216.516" cy="199.385" r="4.505"/>
	<path fill="#FFFF00" d="M158.144,185.68h57.992c0,0,0.253-18.781-5.838-18.781c-6.092,0-40.987,0.128-47.205,0.128
		C156.747,167.026,158.144,185.68,158.144,185.68z"/>
</g>
<g id="Calque_7">
	<path d="M100.792,141.833c-4.216,0-6.695,1.24-8.183,3.224s-1.982,8.678-1.982,12.645c0,3.968-4.96,3.347-4.96,5.702
		c0,1.457,0,9.669,0,12.149c0,2.479,3.967,2.479,3.967,2.479s0.248,10.909,0,13.636c0,0,7.165,1.488,7.165-0.744
		c0-2.23-0.25-11.9,1.734-11.9s31.805-0.248,33.968-0.248c2.164,0,1.824,9.669,1.824,11.9c0,2.232,7.017,0.744,7.017,0.744
		c-0.27-2.727,0-13.636,0-13.636s4.326,0,4.326-2.479c0-2.48,0-9.857,0-12.149c0-2.293-5.408-1.735-5.408-5.702
		c0-3.968-0.674-10.661-2.296-12.645c-1.622-1.984-4.19-3.224-8.788-3.224L100.792,141.833z"/>
	<circle fill="#FF0000" cx="93.526" cy="169.51" r="3.301"/>
	<circle fill="#FF0000" cx="137.504" cy="169.51" r="3.301"/>
	<path fill="#FFFF00" d="M94.734,159.469h42.49c0,0,0.186-13.762-4.277-13.762s-30.03,0.094-34.586,0.094
		C93.712,145.801,94.734,159.469,94.734,159.469z"/>
</g>
<g id="Calque_8">
	<path d="M159.926,116.611c-3.342,0-5.309,0.984-6.487,2.557c-1.18,1.572-1.573,6.881-1.573,10.026c0,3.146-3.932,2.654-3.932,4.521
		c0,1.155,0,7.667,0,9.635c0,1.966,3.146,1.965,3.146,1.965s0.196,8.65,0,10.813c0,0,5.681,1.181,5.681-0.59
		c0-1.769-0.197-9.436,1.376-9.436s25.219-0.196,26.934-0.196c1.717,0,1.448,7.667,1.448,9.436c0,1.77,5.563,0.59,5.563,0.59
		c-0.215-2.162,0-10.813,0-10.813s3.431,0,3.431-1.966c0-1.967,0-7.816,0-9.634c0-1.819-4.289-1.377-4.289-4.521
		c0-3.146-0.535-8.454-1.821-10.026c-1.285-1.573-3.322-2.557-6.968-2.557L159.926,116.611z"/>
	<circle fill="#FF0000" cx="154.165" cy="138.557" r="2.617"/>
	<circle fill="#FF0000" cx="189.037" cy="138.557" r="2.618"/>
	<path fill="#FFFF00" d="M155.124,130.594h33.691c0,0,0.147-10.911-3.392-10.911s-23.813,0.073-27.425,0.073
		C154.313,119.757,155.124,130.594,155.124,130.594z"/>
</g>
<g id="Calque_9">
	<path d="M117.383,106.342c-2.47,0-3.923,0.727-4.794,1.888c-0.871,1.162-1.161,5.084-1.161,7.408c0,2.325-2.906,1.961-2.906,3.341
		c0,0.854,0,5.666,0,7.118c0,1.453,2.325,1.452,2.325,1.452s0.145,6.392,0,7.989c0,0,4.195,0.871,4.195-0.435
		c0-1.309-0.146-6.974,1.018-6.974c1.162,0,18.633-0.146,19.9-0.146s1.069,5.666,1.069,6.973c0,1.308,4.11,0.437,4.11,0.437
		c-0.157-1.599,0-7.99,0-7.99s2.535,0.001,2.535-1.452c0-1.453,0-5.775,0-7.118s-3.169-1.016-3.169-3.34
		c0-2.325-0.395-6.247-1.346-7.408c-0.95-1.163-2.454-1.889-5.147-1.889L117.383,106.342z"/>
	<circle fill="#FF0000" cx="113.125" cy="122.557" r="1.934"/>
	<circle fill="#FF0000" cx="138.891" cy="122.557" r="1.934"/>
	<path fill="#FFFF00" d="M113.834,116.674h24.894c0,0,0.109-8.063-2.506-8.063c-2.614,0-17.594,0.055-20.264,0.055
		C113.234,108.667,113.834,116.674,113.834,116.674z"/>
</g>
<g id="Calque_10">
	<path d="M148.729,84.125c-2.265,0-3.596,0.667-4.395,1.731c-0.799,1.065-1.064,4.661-1.064,6.792c0,2.131-2.664,1.798-2.664,3.063
		c0,0.783,0,5.193,0,6.524c0,1.333,2.131,1.332,2.131,1.332s0.133,5.86,0,7.324c0,0,3.848,0.798,3.848-0.4s-0.133-6.392,0.932-6.392
		c1.065,0,17.083-0.134,18.243-0.134c1.163,0,0.981,5.194,0.981,6.393c0,1.198,3.768,0.399,3.768,0.399
		c-0.146-1.464,0-7.323,0-7.323s2.323,0,2.323-1.332s0-5.294,0-6.525s-2.903-0.931-2.903-3.062s-0.362-5.726-1.233-6.791
		c-0.872-1.065-2.252-1.732-4.721-1.732L148.729,84.125z"/>
	<circle fill="#FF0000" cx="144.828" cy="98.99" r="1.772"/>
	<circle fill="#FF0000" cx="168.447" cy="98.99" r="1.773"/>
	<path fill="#FFFF00" d="M145.477,93.596h22.821c0,0,0.1-7.39-2.298-7.39c-2.396,0-16.128,0.05-18.576,0.05
		C144.928,86.256,145.477,93.596,145.477,93.596z"/>
</g>
</svg>
