<?xml version="1.0" encoding="utf-8"?>
<!-- Generator: Adobe Illustrator 16.0.0, SVG Export Plug-In . SVG Version: 6.00 Build 0)  -->
<!DOCTYPE svg PUBLIC "-//W3C//DTD SVG 1.1//EN" "http://www.w3.org/Graphics/SVG/1.1/DTD/svg11.dtd">
<svg version="1.1" xmlns="http://www.w3.org/2000/svg" xmlns:xlink="http://www.w3.org/1999/xlink" x="0px" y="0px"
	 width="297.638px" height="262.746px" viewBox="0 0 297.638 262.746" enable-background="new 0 0 297.638 262.746"
	 xml:space="preserve">
<g id="Calque_2">
	<g>
		<path fill-rule="evenodd" clip-rule="evenodd" fill="#FFFF00" d="M229.49,261.75c-74.805,0-200.303-0.393-209.816-0.656
			c-7.826-0.217-13.775-3.243-16.752-8.518c-2.957-5.24-2.483-12.073,1.299-18.747C5.304,231.915,133.523,11.993,136.397,7.792
			c2.912-4.255,7.579-6.796,12.484-6.796c5.202,0,9.91,2.764,13.255,7.783c7.407,11.11,118.839,203.359,129.789,222.654
			c5.078,8.947,6.111,17.005,2.909,22.69c-2.592,4.601-7.922,7.246-15.008,7.448c-4.072,0.116-21.471,0.178-50.309,0.178
			C229.506,261.75,229.5,261.75,229.49,261.75z"/>
		<path d="M148.881,1.994c4.858,0,9.271,2.606,12.426,7.339c7.4,11.101,118.803,203.302,129.751,222.593
			c4.828,8.506,5.887,16.419,2.907,21.709c-2.414,4.284-7.445,6.75-14.168,6.941c-4.063,0.116-21.459,0.177-50.307,0.177
			c-73.059,0-200.501-0.398-209.79-0.656c-7.462-0.207-13.113-3.052-15.912-8.011c-2.78-4.928-2.307-11.403,1.298-17.766
			C6.167,232.414,134.303,12.632,137.22,8.355C139.945,4.372,144.305,1.994,148.881,1.994 M148.881,0
			c-5.164,0-10.161,2.633-13.307,7.229C132.909,11.125,7.579,225.879,3.353,233.337c-8.146,14.376-0.959,28.273,16.293,28.753
			c9.504,0.263,136.514,0.656,209.845,0.656c26.458,0,45.917-0.051,50.363-0.178c16.771-0.479,23.001-13.896,12.938-31.627
			C282.729,213.21,170.633,19.728,162.966,8.227C159.17,2.532,153.945,0,148.881,0L148.881,0z"/>
	</g>
</g>
<g id="Calque_3">
	<path fill-rule="evenodd" clip-rule="evenodd" fill="#FF0000" d="M139.545,12.846c-2.46,3.702-121.147,207.829-125.05,214.918
		c-7.52,13.666-16.715,27.214,12.051,28.327l242.201-0.542c31.527-0.131,22.23-13.209,12.94-30.063
		c-9.288-16.854-114.762-200.762-121.84-211.694C152.77,2.862,145.296,4.192,139.545,12.846z"/>
</g>
<g id="Calque_4">
	<polygon fill-rule="evenodd" clip-rule="evenodd" fill="#FFFF00" stroke="#FFFF00" stroke-width="0.9968" points="149.591,36.383 
		35.304,234.584 265.584,235.157 	"/>
</g>
<g id="Calque_6">
	<circle cx="92.538" cy="211.816" r="11.334"/>
	<path d="M67.333,191.594l0.249,17.943h9.471c0,0,1.744-12.71,15.451-12.71c13.706,0,14.952,13.208,14.952,13.208h40.621v-20.435
		h-12.211v-18.691h12.212v-5.731h-47.102l-22.678,22.928C67.333,188.105,67.333,191.594,67.333,191.594z"/>
</g>
<g id="vitre">
	<polygon fill="#FFFF00" points="95.992,189.601 130.134,189.601 130.134,171.408 107.705,171.408 95.979,183.943 	"/>
</g>
<g id="brouillard">
	<rect x="122.741" y="105.201" width="52.002" height="2.492"/>
	<rect x="104.964" y="124.806" width="86.56" height="2.825"/>
	<rect x="139.022" y="144.077" width="62.636" height="1.662"/>
	<rect x="151.815" y="161.855" width="63.798" height="2.824"/>
	<rect x="155.803" y="189.767" width="73.435" height="1.661"/>
	<rect x="155.97" y="208.54" width="80.577" height="1.827"/>
</g>
</svg>
