<?xml version="1.0" encoding="utf-8"?>
<!-- Generator: Adobe Illustrator 16.0.0, SVG Export Plug-In . SVG Version: 6.00 Build 0)  -->
<!DOCTYPE svg PUBLIC "-//W3C//DTD SVG 1.1//EN" "http://www.w3.org/Graphics/SVG/1.1/DTD/svg11.dtd">
<svg version="1.1" xmlns="http://www.w3.org/2000/svg" xmlns:xlink="http://www.w3.org/1999/xlink" x="0px" y="0px"
	 width="297.638px" height="328.029px" viewBox="0 0 297.638 328.029" enable-background="new 0 0 297.638 328.029"
	 xml:space="preserve">
<g id="Calque_8">
	<g>
		<path fill="#FFFF00" d="M11.681,327.032c-5.891,0-10.684-4.918-10.684-10.965v-41.49c0-6.046,4.792-10.965,10.684-10.965h274.276
			c5.891,0,10.684,4.918,10.684,10.965v41.49c0,6.046-4.792,10.965-10.684,10.965H11.681z"/>
		<path fill="#1A171B" d="M285.957,264.609c5.341,0,9.687,4.472,9.687,9.968v41.49c0,5.497-4.346,9.968-9.687,9.968H11.681
			c-5.341,0-9.687-4.472-9.687-9.968v-41.49c0-5.497,4.346-9.968,9.687-9.968H285.957 M285.957,262.615H11.681
			C5.229,262.615,0,267.971,0,274.577v41.49c0,6.606,5.229,11.962,11.681,11.962h274.276c6.452,0,11.681-5.355,11.681-11.962v-41.49
			C297.638,267.971,292.409,262.615,285.957,262.615L285.957,262.615z"/>
	</g>
</g>
<g id="Calque_9">
	<g>
		<path d="M69.865,273.979c2.592-0.453,7.775-0.906,12.764-0.906c6.025,0,9.718,0.583,12.958,2.462
			c3.045,1.619,5.183,4.6,5.183,8.616c0,3.823-2.268,7.387-7.191,9.266v0.129c4.989,1.296,8.682,5.118,8.682,10.69
			c0,4.017-1.814,7.127-4.535,9.329c-3.175,2.527-8.487,3.952-17.169,3.952c-4.859,0-8.487-0.323-10.69-0.647V273.979z
			 M79.648,290.695h3.24c5.248,0,7.969-2.138,7.969-5.377c0-3.305-2.527-5.054-6.997-5.054c-2.203,0-3.434,0.129-4.211,0.259
			V290.695z M79.648,310.067c0.972,0.13,2.138,0.13,3.823,0.13c4.47,0,8.422-1.75,8.422-6.35c0-4.341-3.952-6.09-8.876-6.09h-3.369
			V310.067z"/>
		<path d="M148.976,294.777c0,14.383-8.617,23-21.445,23c-12.893,0-20.538-9.783-20.538-22.287c0-13.088,8.422-22.871,21.251-22.871
			C141.654,272.619,148.976,282.661,148.976,294.777z M117.423,295.295c0,8.617,4.017,14.643,10.625,14.643
			c6.673,0,10.496-6.35,10.496-14.837c0-7.903-3.693-14.642-10.496-14.642C121.311,280.459,117.423,286.808,117.423,295.295z"/>
		<path d="M165.306,273.396v25.073c0,7.581,2.915,11.403,7.904,11.403c5.183,0,8.034-3.628,8.034-11.403v-25.073h9.848v24.49
			c0,13.477-6.803,19.891-18.206,19.891c-11.014,0-17.428-6.155-17.428-20.02v-24.361H165.306z"/>
		<path d="M225.628,298.6H209.56v10.366h17.946v8.099h-27.794v-43.668H226.6v8.099h-17.04v9.07h16.068V298.6z"/>
	</g>
</g>
<g id="Calque_2">
	<g>
		<path fill-rule="evenodd" clip-rule="evenodd" fill="#FFFF00" d="M188.359,261.833c-69.867,0-160.69-0.179-168.686-0.401
			c-7.765-0.215-13.695-3.267-16.7-8.592c-3.021-5.353-2.566-12.282,1.247-19.011C5.304,231.915,133.523,11.993,136.397,7.792
			c2.912-4.255,7.579-6.796,12.484-6.796c5.202,0,9.91,2.764,13.255,7.783c7.407,11.11,118.839,203.359,129.789,222.654
			c5.078,8.947,6.111,17.005,2.909,22.69c-2.592,4.601-7.922,7.246-15.008,7.448C274.022,261.737,240.684,261.833,188.359,261.833z"
			/>
		<path d="M148.881,1.994c4.858,0,9.271,2.606,12.426,7.339c7.4,11.101,118.803,203.302,129.751,222.593
			c4.828,8.506,5.887,16.419,2.907,21.709c-2.414,4.284-7.445,6.75-14.168,6.941c-5.793,0.165-39.12,0.26-91.436,0.26
			c-69.861,0-160.672-0.179-168.661-0.401c-7.401-0.205-13.033-3.076-15.859-8.085c-2.845-5.041-2.391-11.613,1.246-18.03
			C6.167,232.414,134.303,12.632,137.22,8.355C139.945,4.372,144.305,1.994,148.881,1.994 M148.881,0
			c-5.164,0-10.161,2.633-13.307,7.229C132.909,11.125,7.579,225.879,3.353,233.337c-8.146,14.376-0.959,28.612,16.293,29.091
			c7.892,0.219,96.798,0.401,168.716,0.401c45.948,0,84.954-0.074,91.492-0.261c16.771-0.479,23.001-13.896,12.938-31.627
			C282.729,213.21,170.633,19.728,162.966,8.227C159.17,2.532,153.945,0,148.881,0L148.881,0z"/>
	</g>
</g>
<g id="Calque_3">
	<path fill-rule="evenodd" clip-rule="evenodd" fill="#FF0000" d="M139.545,12.846c-2.46,3.702-121.147,207.829-125.05,214.918
		c-7.52,13.665-16.715,27.214,12.051,28.327l242.201-0.542c31.527-0.131,22.23-13.209,12.94-30.063
		c-9.288-16.854-114.762-200.761-121.84-211.693S145.296,4.192,139.545,12.846z"/>
</g>
<g id="Calque_4">
	<polygon fill-rule="evenodd" clip-rule="evenodd" fill="#FFFF00" stroke="#FFFF00" stroke-width="0.9968" points="149.591,36.383 
		35.304,234.584 265.584,235.157 	"/>
</g>
<g id="Calque_5">
	<path d="M100.811,227.813c0,0,23.094-15.949,23.924-19.604c1.555-6.834-1.329-7.311-5.316-7.311s-15.617,1.329-21.931-5.981
		c-6.313-7.31-2.325-14.288,1.33-16.946c3.654-2.657,15.948-6.313,17.278-7.975c1.329-1.66,6.646-12.958,5.316-13.622
		c-1.329-0.665-1.994-2.327-1.994-3.656c0-1.328,5.648-14.287,6.979-14.952c1.329-0.665,4.319-0.664,4.983-2.325
		c0.665-1.662,9.305-13.624,11.963-13.292c2.657,0.332,38.212,14.619,38.877,15.949s-0.167,15.119,0,17.279
		c0.171,2.223,2.076,4.816,1.744,6.479c-0.332,1.661-4.07,14.122-6.063,14.787c-1.994,0.665-2.991,0.332-3.655,1.993
		c-0.665,1.662-2.992,10.301-4.652,10.966c-1.661,0.665-27.912,7.643-26.583,8.972c1.329,1.328,54.393,9.263,56.488,9.636
		c2.326,0.415,8.308,0.332,7.643,8.972c-0.411,5.342-9.969,9.969-9.969,9.969l-9.969,0.332c0,0,14.379-11.69,9.304-12.959
		c-3.987-0.997-58.481-11.297-60.143-10.966c-1.661,0.332-2.325,2.326-2.658,5.316c-0.332,2.991-5.98,17.611-9.968,18.608
		S100.811,227.813,100.811,227.813z"/>
	<path fill="#FFFF00" d="M129.262,198.696c0,0-17.195-4.111-18.067-4.361c-0.872-0.249-8.224-1.495-8.349-5.357
		c-0.125-3.863,2.118-6.23,4.859-7.851c2.741-1.619,13.458-6.854,15.576-7.601c2.118-0.748,2.118-0.872,2.616-1.994
		c0.499-1.121,3.738-11.713,5.607-11.214c1.869,0.498,33.146,11.962,33.021,13.582c-0.125,1.619-4.236,11.339-3.738,11.962
		c0.499,0.623,0.249,1.62-1.246,1.62s-19.771,2.284-25.087,5.357C131.077,194.792,129.262,198.696,129.262,198.696z"/>
	<path fill="#FFFF00" d="M135.617,139.26c1.37,0.374,39.126,15.7,39.998,15.576c0.872-0.125,1.246-2.742,1.495-4.361
		c0.249-1.62,1.869-9.221,0.249-10.094c-1.619-0.872-32.771-13.582-33.768-13.208c-0.997,0.374-7.103,8.473-7.602,9.719
		C135.492,138.139,135.617,139.26,135.617,139.26z"/>
</g>
</svg>
