<?xml version="1.0" encoding="utf-8"?>
<!-- Generator: Adobe Illustrator 16.0.0, SVG Export Plug-In . SVG Version: 6.00 Build 0)  -->
<!DOCTYPE svg PUBLIC "-//W3C//DTD SVG 1.1//EN" "http://www.w3.org/Graphics/SVG/1.1/DTD/svg11.dtd">
<svg version="1.1" xmlns="http://www.w3.org/2000/svg" xmlns:xlink="http://www.w3.org/1999/xlink" x="0px" y="0px"
	 width="297.638px" height="262.746px" viewBox="0 0 297.638 262.746" enable-background="new 0 0 297.638 262.746"
	 xml:space="preserve">
<g id="Calque_2">
	<g>
		<path fill-rule="evenodd" clip-rule="evenodd" fill="#FFFF00" d="M229.49,261.75c-74.805,0-200.303-0.393-209.816-0.656
			c-7.826-0.217-13.775-3.243-16.752-8.518c-2.957-5.24-2.483-12.073,1.299-18.747C5.304,231.915,133.523,11.993,136.397,7.792
			c2.912-4.255,7.579-6.796,12.484-6.796c5.202,0,9.91,2.764,13.255,7.783c7.407,11.11,118.839,203.359,129.789,222.654
			c5.078,8.947,6.111,17.005,2.909,22.69c-2.592,4.601-7.922,7.246-15.008,7.448c-4.072,0.116-21.471,0.178-50.309,0.178
			C229.506,261.75,229.5,261.75,229.49,261.75z"/>
		<path d="M148.881,1.994c4.858,0,9.271,2.606,12.426,7.339c7.4,11.101,118.803,203.302,129.751,222.593
			c4.828,8.506,5.887,16.419,2.907,21.709c-2.414,4.284-7.445,6.75-14.168,6.941c-4.063,0.116-21.459,0.177-50.307,0.177
			c-73.059,0-200.501-0.398-209.79-0.656c-7.462-0.207-13.113-3.052-15.912-8.011c-2.78-4.928-2.307-11.403,1.298-17.766
			C6.167,232.414,134.303,12.632,137.22,8.355C139.945,4.372,144.305,1.994,148.881,1.994 M148.881,0
			c-5.164,0-10.161,2.633-13.307,7.229C132.909,11.125,7.579,225.879,3.353,233.337c-8.146,14.376-0.959,28.273,16.293,28.753
			c9.504,0.263,136.514,0.656,209.845,0.656c26.458,0,45.917-0.051,50.363-0.178c16.771-0.479,23.001-13.896,12.938-31.627
			C282.729,213.21,170.633,19.728,162.966,8.227C159.17,2.532,153.945,0,148.881,0L148.881,0z"/>
	</g>
</g>
<g id="Calque_3">
	<path fill-rule="evenodd" clip-rule="evenodd" fill="#FF0000" d="M139.545,12.846c-2.46,3.702-121.147,207.829-125.05,214.918
		c-7.52,13.666-16.715,27.214,12.051,28.327l242.201-0.542c31.527-0.131,22.23-13.209,12.94-30.063
		c-9.288-16.854-114.762-200.762-121.84-211.694C152.77,2.862,145.296,4.192,139.545,12.846z"/>
</g>
<g id="Calque_4">
	<polygon fill-rule="evenodd" clip-rule="evenodd" fill="#FFFF00" stroke="#FFFF00" stroke-width="0.9968" points="149.591,36.383 
		35.304,234.584 265.584,235.157 	"/>
</g>
<g id="Calque_5">
	<path d="M100.811,227.813c0,0,23.094-15.949,23.924-19.604c1.555-6.834-1.329-7.311-5.316-7.311s-15.617,1.329-21.931-5.981
		c-6.313-7.31-2.325-14.288,1.33-16.946c3.654-2.657,15.948-6.313,17.278-7.975c1.329-1.66,6.646-12.958,5.316-13.622
		c-1.329-0.665-1.994-2.327-1.994-3.656c0-1.328,5.648-14.287,6.979-14.952c1.329-0.665,4.319-0.664,4.983-2.325
		c0.665-1.662,9.305-13.624,11.963-13.292c2.657,0.332,38.212,14.619,38.877,15.949s-0.167,15.119,0,17.279
		c0.171,2.223,2.076,4.816,1.744,6.479c-0.332,1.661-4.07,14.122-6.063,14.787c-1.994,0.665-2.991,0.332-3.655,1.993
		c-0.665,1.662-2.992,10.301-4.652,10.966c-1.661,0.665-27.912,7.643-26.583,8.972c1.329,1.328,54.393,9.263,56.488,9.636
		c2.326,0.415,8.308,0.332,7.643,8.972c-0.411,5.342-9.969,9.969-9.969,9.969l-9.969,0.332c0,0,14.379-11.69,9.304-12.959
		c-3.987-0.997-58.481-11.297-60.143-10.966c-1.661,0.332-2.325,2.326-2.658,5.316c-0.332,2.991-5.98,17.611-9.968,18.608
		S100.811,227.813,100.811,227.813z"/>
	<path fill="#FFFF00" d="M129.262,198.696c0,0-17.195-4.111-18.067-4.361c-0.872-0.249-8.224-1.495-8.349-5.357
		c-0.125-3.863,2.118-6.23,4.859-7.851c2.741-1.619,13.458-6.854,15.576-7.601c2.118-0.748,2.118-0.872,2.616-1.994
		c0.499-1.121,3.738-11.713,5.607-11.214c1.869,0.498,33.146,11.962,33.021,13.582c-0.125,1.619-4.236,11.339-3.738,11.962
		c0.499,0.623,0.249,1.62-1.246,1.62s-19.771,2.284-25.087,5.357C131.077,194.792,129.262,198.696,129.262,198.696z"/>
	<path fill="#FFFF00" d="M135.617,139.26c1.37,0.374,39.126,15.7,39.998,15.576c0.872-0.125,1.246-2.742,1.495-4.361
		c0.249-1.62,1.869-9.221,0.249-10.094c-1.619-0.872-32.771-13.582-33.768-13.208c-0.997,0.374-7.103,8.473-7.602,9.719
		C135.492,138.139,135.617,139.26,135.617,139.26z"/>
</g>
</svg>
