<?xml version="1.0" encoding="utf-8"?>
<!-- Generator: Adobe Illustrator 16.0.0, SVG Export Plug-In . SVG Version: 6.00 Build 0)  -->
<!DOCTYPE svg PUBLIC "-//W3C//DTD SVG 1.1//EN" "http://www.w3.org/Graphics/SVG/1.1/DTD/svg11.dtd">
<svg version="1.1" xmlns="http://www.w3.org/2000/svg" xmlns:xlink="http://www.w3.org/1999/xlink" x="0px" y="0px"
	 width="297.638px" height="262.746px" viewBox="0 0 297.638 262.746" enable-background="new 0 0 297.638 262.746"
	 xml:space="preserve">
<g id="Calque_2">
	<g>
		<path fill-rule="evenodd" clip-rule="evenodd" fill="#FFFF00" d="M229.49,261.75c-74.805,0-200.303-0.393-209.816-0.656
			c-7.826-0.217-13.775-3.243-16.752-8.518c-2.957-5.24-2.483-12.073,1.299-18.747C5.304,231.915,133.523,11.993,136.397,7.792
			c2.912-4.255,7.579-6.796,12.484-6.796c5.202,0,9.91,2.764,13.255,7.783c7.407,11.11,118.839,203.359,129.789,222.654
			c5.078,8.947,6.111,17.005,2.909,22.69c-2.592,4.601-7.922,7.246-15.008,7.448c-4.072,0.116-21.471,0.178-50.309,0.178
			C229.506,261.75,229.5,261.75,229.49,261.75z"/>
		<path d="M148.881,1.994c4.858,0,9.271,2.606,12.426,7.339c7.4,11.101,118.803,203.302,129.751,222.593
			c4.828,8.506,5.887,16.419,2.907,21.709c-2.414,4.284-7.445,6.75-14.168,6.941c-4.063,0.116-21.459,0.177-50.307,0.177
			c-73.059,0-200.501-0.398-209.79-0.656c-7.462-0.207-13.113-3.052-15.912-8.011c-2.78-4.928-2.307-11.403,1.298-17.766
			C6.167,232.414,134.303,12.632,137.22,8.355C139.945,4.372,144.305,1.994,148.881,1.994 M148.881,0
			c-5.164,0-10.161,2.633-13.307,7.229C132.909,11.125,7.579,225.879,3.353,233.337c-8.146,14.376-0.959,28.273,16.293,28.753
			c9.504,0.263,136.514,0.656,209.845,0.656c26.458,0,45.917-0.051,50.363-0.178c16.771-0.479,23.001-13.896,12.938-31.627
			C282.729,213.21,170.633,19.728,162.966,8.227C159.17,2.532,153.945,0,148.881,0L148.881,0z"/>
	</g>
</g>
<g id="Calque_3">
	<path fill-rule="evenodd" clip-rule="evenodd" fill="#FF0000" d="M139.545,12.846c-2.46,3.702-121.147,207.829-125.05,214.918
		c-7.52,13.666-16.715,27.214,12.051,28.327l242.201-0.542c31.527-0.131,22.23-13.209,12.94-30.063
		c-9.288-16.854-114.762-200.762-121.84-211.694C152.77,2.862,145.296,4.192,139.545,12.846z"/>
</g>
<g id="Calque_4">
	<polygon fill-rule="evenodd" clip-rule="evenodd" fill="#FFFF00" stroke="#FFFF00" stroke-width="0.9968" points="149.591,36.383 
		35.304,234.584 265.584,235.157 	"/>
</g>
<g id="Calque_5">
	<path fill-rule="evenodd" clip-rule="evenodd" d="M46.896,222.377l-0.229,7.005l209.211-0.345c0,0-30.314-50.868-29.28-49.49
		c1.033,1.379-6.763-5.293-12.057,0c-0.344,0.344,0.114,0.46-2.411,0c-2.526-0.459-4.938-0.919-6.201,1.492
		c-1.263,2.412-4.479,4.017-4.938,7.579c-0.378,2.928-3.675,4.25-4.938,4.594s-4.593-4.365-5.167-4.823
		c-0.575-0.459-9.301,7.005-9.301,7.005l-20.439-10.104c0,0-5.396-12.401-5.971-13.895c-0.574-1.493-2.525-5.282-2.525-5.282
		l-1.379-27.674c0,0-4.363-5.856-4.363-6.201s1.147-3.904,2.182-4.019s9.645-2.069,11.023-10.679
		c0.927-5.787-2.756-13.665-8.842-14.583s-13.436,0.917-15.846,7.12c-1.88,4.834,0.689,10.678,2.641,12.745
		c0,0-0.115,0.459-0.459,1.033c-0.345,0.574-1.375,1.492-1.378,2.526c-0.001,0.458-4.85,0.304-5.282,0.459
		c-4.135,1.491-20.094,7.12-22.046,8.382s-5.857,3.33-6.661,6.89c-0.803,3.559-2.87,18.026-3.1,19.061s-1.033,0.918,0.229,2.066
		c1.264,1.149,2.526,2.755,6.086,2.067c3.56-0.688,1.723-1.607,2.526-1.148c0.804,0.46,4.478,1.607,4.478,2.411
		c0,0.805-2.182,22.506-2.411,23.655c-0.229,1.148-16.19,22.276-16.649,23.194s8.841,8.727,8.841,8.727L46.896,222.377z"/>
	<path fill-rule="evenodd" clip-rule="evenodd" fill="#FFF800" d="M122.334,139.93c1.36,0.272-1.723,6.659-2.297,7.809
		c-0.573,1.148-6.2,14.813-7.349,14.697s-2.985-1.378-3.789-2.297s1.493-13.434,2.067-14.123
		C111.54,145.326,121.76,139.814,122.334,139.93z"/>
	<path fill-rule="evenodd" clip-rule="evenodd" fill="#FFF800" d="M141.97,152.562c-0.689,2.066-6.546,12.63-6.201,13.778
		s3.79,8.498,7.005,10.449c3.215,1.952,5.626,2.87,4.363,0.804c-1.264-2.067-4.363-8.383-4.708-9.416
		C142.084,167.145,141.97,152.562,141.97,152.562z"/>
	<path fill-rule="evenodd" clip-rule="evenodd" fill="#FFF800" d="M109.589,222.26h25.605l0.115-28.936
		c0,0-9.99-18.372-10.449-18.831c-0.459-0.46-1.608,11.368-1.493,12.516s0,6.773-0.804,7.692s-12.975,19.521-13.319,19.979
		c-0.345,0.46,1.607,1.838,1.492,4.364C110.622,221.571,109.589,222.26,109.589,222.26z"/>
	<path fill-rule="evenodd" clip-rule="evenodd" fill="#FFF800" d="M145.415,183.794c-0.616,0.771,2.986,4.708,2.871,5.512
		c-0.115,0.803,0.46,24.113,0.229,24.802c-0.229,0.688,3.445,2.642,3.445,4.363s-0.805,2.64-1.148,3.444
		c-0.344,0.804,11.482,0.459,11.482,0.459s10.679-10.563,11.367-10.793c0.689-0.229,3.217-0.114,3.905-2.525
		c0.688-2.412,0.458-2.987-1.034-3.905s-4.019-2.756-4.019-2.756l5.281-4.593l-19.635-9.415c0,0-2.642,0.574-4.019-0.115
		c-1.378-0.689-2.181-3.1-3.674-3.444C148.975,184.482,145.874,183.219,145.415,183.794z"/>
</g>
</svg>
