<?xml version="1.0" encoding="utf-8"?>
<!-- Generator: Adobe Illustrator 16.0.0, SVG Export Plug-In . SVG Version: 6.00 Build 0)  -->
<!DOCTYPE svg PUBLIC "-//W3C//DTD SVG 1.1//EN" "http://www.w3.org/Graphics/SVG/1.1/DTD/svg11.dtd">
<svg version="1.1" xmlns="http://www.w3.org/2000/svg" xmlns:xlink="http://www.w3.org/1999/xlink" x="0px" y="0px"
	 width="297.638px" height="324.973px" viewBox="0 0 297.638 324.973" enable-background="new 0 0 297.638 324.973"
	 xml:space="preserve">
<g id="AK5">
	<g id="Calque_2">
		<g>
			<path fill-rule="evenodd" clip-rule="evenodd" fill="#FFFF00" d="M172.341,261.861c-67.699,0-145.2-0.139-152.667-0.346
				C11.925,261.3,6,258.242,2.989,252.905c-3.036-5.381-2.586-12.333,1.234-19.075C5.307,231.917,133.525,11.995,136.399,7.794
				C139.311,3.54,143.977,1,148.881,1c5.201,0,9.908,2.763,13.253,7.781c7.406,11.11,118.839,203.359,129.789,222.654
				c5.077,8.946,6.11,17.003,2.909,22.687c-2.591,4.6-7.921,7.245-15.006,7.447C273.411,261.752,233.229,261.861,172.341,261.861z"
				/>
			<path d="M148.881,2c4.856,0,9.267,2.605,12.421,7.336c7.4,11.101,118.803,203.301,129.751,222.593
				c4.826,8.504,5.886,16.415,2.907,21.703c-2.412,4.282-7.442,6.746-14.163,6.938c-6.405,0.183-46.574,0.292-107.451,0.292
				c-66.299,0-145.294-0.142-152.644-0.345c-7.383-0.206-13.009-3.083-15.841-8.102c-2.86-5.068-2.411-11.662,1.232-18.091
				C6.173,232.417,134.306,12.639,137.225,8.359C139.95,4.377,144.307,2,148.881,2 M148.881,0c-5.164,0-10.161,2.633-13.307,7.229
				C132.909,11.125,7.579,225.879,3.353,233.337c-8.146,14.376-0.959,28.698,16.293,29.178c7.314,0.203,84.225,0.346,152.7,0.346
				c52.601,0,100.222-0.084,107.508-0.292c16.771-0.479,23.001-13.896,12.938-31.627C282.729,213.21,170.633,19.728,162.966,8.227
				C159.17,2.532,153.945,0,148.881,0L148.881,0z"/>
		</g>
	</g>
	<g id="Calque_3">
		<path fill-rule="evenodd" clip-rule="evenodd" fill="#FF0000" d="M139.545,12.846c-2.46,3.702-121.147,207.829-125.05,214.918
			c-7.52,13.666-16.715,27.214,12.051,28.327l242.201-0.542c31.527-0.131,22.23-13.209,12.94-30.063
			c-9.288-16.854-114.762-200.762-121.84-211.694C152.77,2.862,145.296,4.192,139.545,12.846z"/>
	</g>
	<g id="Calque_4">
		<polygon fill-rule="evenodd" clip-rule="evenodd" fill="#FFFF00" stroke="#FFFF00" stroke-width="0.9968" points="149.591,36.383 
			35.304,234.584 265.584,235.157 		"/>
	</g>
	<g id="Calque_5">
		<path fill-rule="evenodd" clip-rule="evenodd" d="M46.896,222.377l-0.229,7.005l209.211-0.345c0,0-30.314-50.868-29.28-49.49
			c1.033,1.379-6.763-5.293-12.057,0c-0.344,0.344,0.114,0.46-2.411,0c-2.526-0.459-4.938-0.919-6.201,1.492
			c-1.263,2.412-4.479,4.017-4.938,7.579c-0.378,2.928-3.675,4.25-4.938,4.594s-4.593-4.365-5.167-4.823
			c-0.575-0.459-9.301,7.005-9.301,7.005l-20.439-10.104c0,0-5.396-12.401-5.971-13.895c-0.574-1.493-2.525-5.282-2.525-5.282
			l-1.379-27.674c0,0-4.363-5.856-4.363-6.201s1.147-3.904,2.182-4.019s9.645-2.069,11.023-10.679
			c0.927-5.787-2.756-13.665-8.842-14.583s-13.436,0.917-15.846,7.12c-1.88,4.834,0.689,10.678,2.641,12.745
			c0,0-0.115,0.459-0.459,1.033c-0.345,0.574-1.375,1.492-1.378,2.526c-0.001,0.458-4.85,0.304-5.282,0.459
			c-4.135,1.491-20.094,7.12-22.046,8.382s-5.857,3.33-6.661,6.89c-0.803,3.559-2.87,18.026-3.1,19.061s-1.033,0.918,0.229,2.066
			c1.264,1.149,2.526,2.755,6.086,2.067c3.56-0.688,1.723-1.607,2.526-1.148c0.804,0.46,4.478,1.607,4.478,2.411
			c0,0.805-2.182,22.506-2.411,23.655c-0.229,1.148-16.19,22.276-16.649,23.194s8.841,8.727,8.841,8.727L46.896,222.377z"/>
		<path fill-rule="evenodd" clip-rule="evenodd" fill="#FFF800" d="M122.334,139.93c1.36,0.272-1.723,6.659-2.297,7.809
			c-0.573,1.148-6.2,14.813-7.349,14.697s-2.985-1.378-3.789-2.297s1.493-13.434,2.067-14.123
			C111.54,145.326,121.76,139.814,122.334,139.93z"/>
		<path fill-rule="evenodd" clip-rule="evenodd" fill="#FFF800" d="M141.97,152.562c-0.689,2.066-6.546,12.63-6.201,13.778
			s3.79,8.498,7.005,10.449c3.215,1.952,5.626,2.87,4.363,0.804c-1.264-2.067-4.363-8.383-4.708-9.416
			C142.084,167.145,141.97,152.562,141.97,152.562z"/>
		<path fill-rule="evenodd" clip-rule="evenodd" fill="#FFF800" d="M109.589,222.26h25.605l0.115-28.936
			c0,0-9.99-18.372-10.449-18.831c-0.459-0.46-1.608,11.368-1.493,12.516s0,6.773-0.804,7.692s-12.975,19.521-13.319,19.979
			c-0.345,0.46,1.607,1.838,1.492,4.364C110.622,221.571,109.589,222.26,109.589,222.26z"/>
		<path fill-rule="evenodd" clip-rule="evenodd" fill="#FFF800" d="M145.415,183.794c-0.616,0.771,2.986,4.708,2.871,5.512
			c-0.115,0.803,0.46,24.113,0.229,24.802c-0.229,0.688,3.445,2.642,3.445,4.363s-0.805,2.64-1.148,3.444
			c-0.344,0.804,11.482,0.459,11.482,0.459s10.679-10.563,11.367-10.793c0.689-0.229,3.217-0.114,3.905-2.525
			c0.688-2.412,0.458-2.987-1.034-3.905s-4.019-2.756-4.019-2.756l5.281-4.593l-19.635-9.415c0,0-2.642,0.574-4.019-0.115
			c-1.378-0.689-2.181-3.1-3.674-3.444C148.975,184.482,145.874,183.219,145.415,183.794z"/>
	</g>
</g>
<g id="Calque_9">
	<g>
		<path fill="#FFFFFF" d="M10.966,323.973c-5.495,0-9.966-4.47-9.966-9.965v-40.296c0-5.495,4.471-9.966,9.966-9.966h275.416
			c5.495,0,9.965,4.471,9.965,9.966v40.296c0,5.495-4.47,9.965-9.965,9.965H10.966z"/>
		<path d="M286.382,264.746c4.943,0,8.965,4.022,8.965,8.966v40.296c0,4.943-4.021,8.965-8.965,8.965H10.966
			c-4.944,0-8.966-4.021-8.966-8.965v-40.296c0-4.944,4.022-8.966,8.966-8.966H286.382 M286.382,262.746H10.966
			C4.909,262.746,0,267.655,0,273.712v40.296c0,6.056,4.909,10.965,10.966,10.965h275.416c6.056,0,10.965-4.909,10.965-10.965
			v-40.296C297.347,267.655,292.438,262.746,286.382,262.746L286.382,262.746z"/>
	</g>
	<g>
		<path d="M15.363,281.718c2.16-0.315,5.175-0.63,9.449-0.63c4.32,0,7.425,0.945,9.405,2.52c1.845,1.485,3.15,3.87,3.15,6.795
			c0,2.835-0.9,5.265-2.7,6.885c-2.385,2.25-5.985,3.33-10.395,3.33c-1.215,0-2.294-0.09-3.149-0.271v11.34h-5.76V281.718z
			 M21.123,295.848c0.81,0.225,1.89,0.314,3.24,0.314c4.455,0,7.245-2.024,7.245-5.625c0-3.51-2.745-5.085-6.75-5.085
			c-1.845,0-3.105,0.136-3.735,0.271V295.848z"/>
		<path d="M42.408,281.763c2.25-0.36,5.669-0.675,9.314-0.675c4.725,0,7.83,0.81,9.944,2.52c1.665,1.306,2.745,3.465,2.745,6.075
			c0,4.05-2.97,6.659-5.76,7.56v0.135c2.205,0.855,3.555,2.97,4.32,5.715c1.08,3.78,1.935,7.38,2.61,8.595h-5.94
			c-0.495-0.9-1.26-3.24-2.205-7.109c-0.99-3.915-2.52-5.22-5.94-5.311h-3.33v12.42h-5.76V281.763z M48.168,295.082h3.959
			c4.05,0,6.525-1.89,6.525-4.859c0-3.42-2.7-4.815-6.435-4.815c-2.16,0-3.42,0.181-4.05,0.315V295.082z"/>
		<path d="M76.922,302.867l-2.925,8.819h-6.075l10.709-30.329h7.56l11.024,30.329h-6.345l-3.15-8.819H76.922z M86.687,298.547
			l-2.745-7.649c-0.675-1.8-1.215-3.645-1.71-5.265h-0.09c-0.495,1.665-0.945,3.465-1.53,5.265l-2.7,7.649H86.687z"/>
		<path d="M101.807,305.387c1.98,1.125,4.95,2.16,8.189,2.16c3.735,0,5.805-1.62,5.805-4.14c0-2.205-1.53-3.556-5.805-4.86
			c-5.58-1.665-9.044-4.229-9.044-8.954c0-5.04,4.455-8.775,11.339-8.775c3.735,0,6.345,0.721,8.19,1.62l-1.485,4.59
			c-1.215-0.585-3.6-1.575-6.84-1.575c-3.78,0-5.31,1.891-5.31,3.646c0,2.34,1.935,3.42,6.299,4.814
			c5.715,1.89,8.595,4.41,8.595,9.18c0,4.68-3.6,9.135-12.239,9.135c-3.51,0-7.155-0.99-9.045-2.115L101.807,305.387z"/>
		<path d="M137.67,297.782v3.915h-12.194v-3.915H137.67z"/>
		<path d="M142.351,281.763c2.25-0.36,5.67-0.675,9.314-0.675c4.725,0,7.83,0.81,9.944,2.52c1.665,1.306,2.745,3.465,2.745,6.075
			c0,4.05-2.97,6.659-5.76,7.56v0.135c2.205,0.855,3.555,2.97,4.319,5.715c1.08,3.78,1.936,7.38,2.61,8.595h-5.939
			c-0.495-0.9-1.26-3.24-2.205-7.109c-0.99-3.915-2.521-5.22-5.939-5.311h-3.33v12.42h-5.76V281.763z M148.11,295.082h3.96
			c4.05,0,6.524-1.89,6.524-4.859c0-3.42-2.7-4.815-6.435-4.815c-2.16,0-3.42,0.181-4.05,0.315V295.082z"/>
		<path d="M188.429,298.367h-12.824v8.64h14.31v4.68H169.8v-30.329h19.394v4.68h-13.589v7.65h12.824V298.367z"/>
		<path d="M200.85,281.357v12.015h14.669v-12.015h5.805v30.329h-5.805v-13.364H200.85v13.364h-5.805v-30.329H200.85z"/>
		<path d="M234.688,302.867l-2.925,8.819h-6.074l10.709-30.329h7.561l11.024,30.329h-6.345l-3.15-8.819H234.688z M244.453,298.547
			l-2.744-7.649c-0.676-1.8-1.215-3.645-1.71-5.265h-0.091c-0.494,1.665-0.944,3.465-1.529,5.265l-2.7,7.649H244.453z"/>
		<path d="M259.439,281.763c1.845-0.36,5.399-0.675,8.819-0.675c4.5,0,7.02,0.54,9.135,1.845c2.024,1.125,3.465,3.06,3.465,5.805
			c0,2.79-1.8,5.354-5.22,6.524v0.136c3.104,0.72,6.345,3.149,6.345,7.47c0,2.79-1.305,4.904-3.15,6.39
			c-2.295,1.8-6.029,2.745-11.969,2.745c-3.375,0-5.896-0.226-7.425-0.405V281.763z M265.199,293.688h3.33
			c4.274,0,6.479-1.755,6.479-4.275c0-2.97-2.475-4.095-6.165-4.095c-1.935,0-2.97,0.135-3.645,0.271V293.688z M265.199,307.502
			c0.81,0.18,1.89,0.18,3.375,0.18c3.779,0,7.289-1.17,7.289-4.995c0-3.51-3.329-4.859-7.47-4.859h-3.194V307.502z"/>
	</g>
</g>
<g id="Repere">
</g>
</svg>
