<?xml version="1.0" encoding="utf-8"?>
<!-- Generator: Adobe Illustrator 16.0.0, SVG Export Plug-In . SVG Version: 6.00 Build 0)  -->
<!DOCTYPE svg PUBLIC "-//W3C//DTD SVG 1.1//EN" "http://www.w3.org/Graphics/SVG/1.1/DTD/svg11.dtd">
<svg version="1.1" xmlns="http://www.w3.org/2000/svg" xmlns:xlink="http://www.w3.org/1999/xlink" x="0px" y="0px"
	 width="297.638px" height="324.973px" viewBox="0 0 297.638 324.973" enable-background="new 0 0 297.638 324.973"
	 xml:space="preserve">
<g id="AK5">
	<g id="Calque_2">
		<g>
			<path fill-rule="evenodd" clip-rule="evenodd" fill="#FFFF00" d="M172.341,261.861c-67.699,0-145.2-0.139-152.667-0.346
				C11.925,261.3,6,258.242,2.989,252.905c-3.036-5.381-2.586-12.333,1.234-19.075C5.307,231.917,133.525,11.995,136.399,7.794
				C139.311,3.54,143.977,1,148.881,1c5.201,0,9.908,2.763,13.253,7.781c7.406,11.11,118.839,203.359,129.789,222.654
				c5.077,8.946,6.11,17.003,2.909,22.687c-2.591,4.6-7.921,7.245-15.006,7.447C273.411,261.752,233.229,261.861,172.341,261.861z"
				/>
			<path d="M148.881,2c4.856,0,9.267,2.605,12.421,7.336c7.4,11.101,118.803,203.301,129.751,222.593
				c4.826,8.504,5.886,16.415,2.907,21.703c-2.412,4.282-7.442,6.746-14.163,6.938c-6.405,0.183-46.574,0.292-107.451,0.292
				c-66.299,0-145.294-0.142-152.644-0.345c-7.383-0.206-13.009-3.083-15.841-8.102c-2.86-5.068-2.411-11.662,1.232-18.091
				C6.173,232.417,134.306,12.639,137.225,8.359C139.95,4.377,144.307,2,148.881,2 M148.881,0c-5.164,0-10.161,2.633-13.307,7.229
				C132.909,11.125,7.579,225.879,3.353,233.337c-8.146,14.376-0.959,28.698,16.293,29.178c7.314,0.203,84.225,0.346,152.7,0.346
				c52.601,0,100.222-0.084,107.508-0.292c16.771-0.479,23.001-13.896,12.938-31.627C282.729,213.21,170.633,19.728,162.966,8.227
				C159.17,2.532,153.945,0,148.881,0L148.881,0z"/>
		</g>
	</g>
	<g id="Calque_3">
		<path fill-rule="evenodd" clip-rule="evenodd" fill="#FF0000" d="M139.545,12.846c-2.46,3.702-121.147,207.829-125.05,214.918
			c-7.52,13.666-16.715,27.214,12.051,28.327l242.201-0.542c31.527-0.131,22.23-13.209,12.94-30.063
			c-9.288-16.854-114.762-200.762-121.84-211.694C152.77,2.862,145.296,4.192,139.545,12.846z"/>
	</g>
	<g id="Calque_4">
		<polygon fill-rule="evenodd" clip-rule="evenodd" fill="#FFFF00" stroke="#FFFF00" stroke-width="0.9968" points="149.591,36.383 
			35.304,234.584 265.584,235.157 		"/>
	</g>
	<g id="Calque_5">
		<path fill-rule="evenodd" clip-rule="evenodd" d="M46.896,222.377l-0.229,7.005l209.211-0.345c0,0-30.314-50.868-29.28-49.49
			c1.033,1.379-6.763-5.293-12.057,0c-0.344,0.344,0.114,0.46-2.411,0c-2.526-0.459-4.938-0.919-6.201,1.492
			c-1.263,2.412-4.479,4.017-4.938,7.579c-0.378,2.928-3.675,4.25-4.938,4.594s-4.593-4.365-5.167-4.823
			c-0.575-0.459-9.301,7.005-9.301,7.005l-20.439-10.104c0,0-5.396-12.401-5.971-13.895c-0.574-1.493-2.525-5.282-2.525-5.282
			l-1.379-27.674c0,0-4.363-5.856-4.363-6.201s1.147-3.904,2.182-4.019s9.645-2.069,11.023-10.679
			c0.927-5.787-2.756-13.665-8.842-14.583s-13.436,0.917-15.846,7.12c-1.88,4.834,0.689,10.678,2.641,12.745
			c0,0-0.115,0.459-0.459,1.033c-0.345,0.574-1.375,1.492-1.378,2.526c-0.001,0.458-4.85,0.304-5.282,0.459
			c-4.135,1.491-20.094,7.12-22.046,8.382s-5.857,3.33-6.661,6.89c-0.803,3.559-2.87,18.026-3.1,19.061s-1.033,0.918,0.229,2.066
			c1.264,1.149,2.526,2.755,6.086,2.067c3.56-0.688,1.723-1.607,2.526-1.148c0.804,0.46,4.478,1.607,4.478,2.411
			c0,0.805-2.182,22.506-2.411,23.655c-0.229,1.148-16.19,22.276-16.649,23.194s8.841,8.727,8.841,8.727L46.896,222.377z"/>
		<path fill-rule="evenodd" clip-rule="evenodd" fill="#FFF800" d="M122.334,139.93c1.36,0.272-1.723,6.659-2.297,7.809
			c-0.573,1.148-6.2,14.813-7.349,14.697s-2.985-1.378-3.789-2.297s1.493-13.434,2.067-14.123
			C111.54,145.326,121.76,139.814,122.334,139.93z"/>
		<path fill-rule="evenodd" clip-rule="evenodd" fill="#FFF800" d="M141.97,152.562c-0.689,2.066-6.546,12.63-6.201,13.778
			s3.79,8.498,7.005,10.449c3.215,1.952,5.626,2.87,4.363,0.804c-1.264-2.067-4.363-8.383-4.708-9.416
			C142.084,167.145,141.97,152.562,141.97,152.562z"/>
		<path fill-rule="evenodd" clip-rule="evenodd" fill="#FFF800" d="M109.589,222.26h25.605l0.115-28.936
			c0,0-9.99-18.372-10.449-18.831c-0.459-0.46-1.608,11.368-1.493,12.516s0,6.773-0.804,7.692s-12.975,19.521-13.319,19.979
			c-0.345,0.46,1.607,1.838,1.492,4.364C110.622,221.571,109.589,222.26,109.589,222.26z"/>
		<path fill-rule="evenodd" clip-rule="evenodd" fill="#FFF800" d="M145.415,183.794c-0.616,0.771,2.986,4.708,2.871,5.512
			c-0.115,0.803,0.46,24.113,0.229,24.802c-0.229,0.688,3.445,2.642,3.445,4.363s-0.805,2.64-1.148,3.444
			c-0.344,0.804,11.482,0.459,11.482,0.459s10.679-10.563,11.367-10.793c0.689-0.229,3.217-0.114,3.905-2.525
			c0.688-2.412,0.458-2.987-1.034-3.905s-4.019-2.756-4.019-2.756l5.281-4.593l-19.635-9.415c0,0-2.642,0.574-4.019-0.115
			c-1.378-0.689-2.181-3.1-3.674-3.444C148.975,184.482,145.874,183.219,145.415,183.794z"/>
	</g>
</g>
<g id="Calque_9">
	<g>
		<path fill="#FFFFFF" d="M10.966,323.973c-5.495,0-9.966-4.47-9.966-9.965v-40.296c0-5.495,4.471-9.966,9.966-9.966h275.416
			c5.495,0,9.965,4.471,9.965,9.966v40.296c0,5.495-4.47,9.965-9.965,9.965H10.966z"/>
		<path d="M286.382,264.746c4.943,0,8.965,4.022,8.965,8.966v40.296c0,4.943-4.021,8.965-8.965,8.965H10.966
			c-4.944,0-8.966-4.021-8.966-8.965v-40.296c0-4.944,4.022-8.966,8.966-8.966H286.382 M286.382,262.746H10.966
			C4.909,262.746,0,267.655,0,273.712v40.296c0,6.056,4.909,10.965,10.966,10.965h275.416c6.056,0,10.965-4.909,10.965-10.965
			v-40.296C297.347,267.655,292.438,262.746,286.382,262.746L286.382,262.746z"/>
	</g>
	<g>
		<path d="M84.9,275.722c2.592-0.378,6.21-0.756,11.34-0.756c5.184,0,8.91,1.134,11.286,3.024c2.214,1.782,3.78,4.644,3.78,8.154
			c0,3.401-1.08,6.317-3.24,8.262c-2.862,2.7-7.182,3.996-12.474,3.996c-1.458,0-2.754-0.108-3.78-0.324v13.608H84.9V275.722z
			 M91.813,292.678c0.972,0.271,2.268,0.379,3.888,0.379c5.346,0,8.694-2.431,8.694-6.751c0-4.212-3.294-6.102-8.1-6.102
			c-2.214,0-3.726,0.162-4.482,0.324V292.678z"/>
		<path d="M117.354,275.776c2.7-0.433,6.804-0.811,11.178-0.811c5.67,0,9.396,0.972,11.934,3.024
			c1.998,1.565,3.294,4.158,3.294,7.29c0,4.86-3.564,7.992-6.912,9.072v0.162c2.646,1.025,4.266,3.563,5.184,6.857
			c1.296,4.536,2.322,8.856,3.132,10.314h-7.128c-0.594-1.08-1.512-3.888-2.646-8.532c-1.188-4.698-3.024-6.264-7.128-6.372h-3.996
			v14.904h-6.912V275.776z M124.267,291.76h4.752c4.86,0,7.83-2.268,7.83-5.832c0-4.104-3.24-5.777-7.722-5.777
			c-2.592,0-4.104,0.216-4.86,0.378V291.76z"/>
		<path d="M172.65,295.702h-15.39v10.368h17.172v5.616h-24.138V275.29h23.274v5.616H157.26v9.18h15.39V295.702z"/>
		<path d="M190.415,311.687L177.4,275.29h7.56l5.616,16.632c1.674,4.752,2.97,8.856,4.05,13.23h0.108
			c1.134-4.212,2.592-8.586,4.266-13.068l6.102-16.794h7.344l-13.986,36.396H190.415z"/>
	</g>
</g>
<g id="Repere">
</g>
</svg>
