<?xml version="1.0" encoding="utf-8"?>
<!-- Generator: Adobe Illustrator 16.0.0, SVG Export Plug-In . SVG Version: 6.00 Build 0)  -->
<!DOCTYPE svg PUBLIC "-//W3C//DTD SVG 1.1//EN" "http://www.w3.org/Graphics/SVG/1.1/DTD/svg11.dtd">
<svg version="1.1" xmlns="http://www.w3.org/2000/svg" xmlns:xlink="http://www.w3.org/1999/xlink" x="0px" y="0px"
	 width="297.638px" height="324.973px" viewBox="0 0 297.638 324.973" enable-background="new 0 0 297.638 324.973"
	 xml:space="preserve">
<g id="AK5">
	<g id="Calque_2">
		<g>
			<path fill-rule="evenodd" clip-rule="evenodd" fill="#FFFF00" d="M172.341,261.861c-67.699,0-145.2-0.139-152.667-0.346
				C11.925,261.3,6,258.242,2.989,252.905c-3.036-5.381-2.586-12.333,1.234-19.075C5.307,231.917,133.525,11.995,136.399,7.794
				C139.311,3.54,143.977,1,148.881,1c5.201,0,9.908,2.763,13.253,7.781c7.406,11.11,118.839,203.359,129.789,222.654
				c5.077,8.946,6.11,17.003,2.909,22.687c-2.591,4.6-7.921,7.245-15.006,7.447C273.411,261.752,233.229,261.861,172.341,261.861z"
				/>
			<path d="M148.881,2c4.856,0,9.267,2.605,12.421,7.336c7.4,11.101,118.803,203.301,129.751,222.593
				c4.826,8.504,5.886,16.415,2.907,21.703c-2.412,4.282-7.442,6.746-14.163,6.938c-6.405,0.183-46.574,0.292-107.451,0.292
				c-66.299,0-145.294-0.142-152.644-0.345c-7.383-0.206-13.009-3.083-15.841-8.102c-2.86-5.068-2.411-11.662,1.232-18.091
				C6.173,232.417,134.306,12.639,137.225,8.359C139.95,4.377,144.307,2,148.881,2 M148.881,0c-5.164,0-10.161,2.633-13.307,7.229
				C132.909,11.125,7.579,225.879,3.353,233.337c-8.146,14.376-0.959,28.698,16.293,29.178c7.314,0.203,84.225,0.346,152.7,0.346
				c52.601,0,100.222-0.084,107.508-0.292c16.771-0.479,23.001-13.896,12.938-31.627C282.729,213.21,170.633,19.728,162.966,8.227
				C159.17,2.532,153.945,0,148.881,0L148.881,0z"/>
		</g>
	</g>
	<g id="Calque_3">
		<path fill-rule="evenodd" clip-rule="evenodd" fill="#FF0000" d="M139.545,12.846c-2.46,3.702-121.147,207.829-125.05,214.918
			c-7.52,13.666-16.715,27.214,12.051,28.327l242.201-0.542c31.527-0.131,22.23-13.209,12.94-30.063
			c-9.288-16.854-114.762-200.762-121.84-211.694C152.77,2.862,145.296,4.192,139.545,12.846z"/>
	</g>
	<g id="Calque_4">
		<polygon fill-rule="evenodd" clip-rule="evenodd" fill="#FFFF00" stroke="#FFFF00" stroke-width="0.9968" points="149.591,36.383 
			35.304,234.584 265.584,235.157 		"/>
	</g>
	<g id="Calque_5">
		<path fill-rule="evenodd" clip-rule="evenodd" d="M46.896,222.377l-0.229,7.005l209.211-0.345c0,0-30.314-50.868-29.28-49.49
			c1.033,1.379-6.763-5.293-12.057,0c-0.344,0.344,0.114,0.46-2.411,0c-2.526-0.459-4.938-0.919-6.201,1.492
			c-1.263,2.412-4.479,4.017-4.938,7.579c-0.378,2.928-3.675,4.25-4.938,4.594s-4.593-4.365-5.167-4.823
			c-0.575-0.459-9.301,7.005-9.301,7.005l-20.439-10.104c0,0-5.396-12.401-5.971-13.895c-0.574-1.493-2.525-5.282-2.525-5.282
			l-1.379-27.674c0,0-4.363-5.856-4.363-6.201s1.147-3.904,2.182-4.019s9.645-2.069,11.023-10.679
			c0.927-5.787-2.756-13.665-8.842-14.583s-13.436,0.917-15.846,7.12c-1.88,4.834,0.689,10.678,2.641,12.745
			c0,0-0.115,0.459-0.459,1.033c-0.345,0.574-1.375,1.492-1.378,2.526c-0.001,0.458-4.85,0.304-5.282,0.459
			c-4.135,1.491-20.094,7.12-22.046,8.382s-5.857,3.33-6.661,6.89c-0.803,3.559-2.87,18.026-3.1,19.061s-1.033,0.918,0.229,2.066
			c1.264,1.149,2.526,2.755,6.086,2.067c3.56-0.688,1.723-1.607,2.526-1.148c0.804,0.46,4.478,1.607,4.478,2.411
			c0,0.805-2.182,22.506-2.411,23.655c-0.229,1.148-16.19,22.276-16.649,23.194s8.841,8.727,8.841,8.727L46.896,222.377z"/>
		<path fill-rule="evenodd" clip-rule="evenodd" fill="#FFF800" d="M122.334,139.93c1.36,0.272-1.723,6.659-2.297,7.809
			c-0.573,1.148-6.2,14.813-7.349,14.697s-2.985-1.378-3.789-2.297s1.493-13.434,2.067-14.123
			C111.54,145.326,121.76,139.814,122.334,139.93z"/>
		<path fill-rule="evenodd" clip-rule="evenodd" fill="#FFF800" d="M141.97,152.562c-0.689,2.066-6.546,12.63-6.201,13.778
			s3.79,8.498,7.005,10.449c3.215,1.952,5.626,2.87,4.363,0.804c-1.264-2.067-4.363-8.383-4.708-9.416
			C142.084,167.145,141.97,152.562,141.97,152.562z"/>
		<path fill-rule="evenodd" clip-rule="evenodd" fill="#FFF800" d="M109.589,222.26h25.605l0.115-28.936
			c0,0-9.99-18.372-10.449-18.831c-0.459-0.46-1.608,11.368-1.493,12.516s0,6.773-0.804,7.692s-12.975,19.521-13.319,19.979
			c-0.345,0.46,1.607,1.838,1.492,4.364C110.622,221.571,109.589,222.26,109.589,222.26z"/>
		<path fill-rule="evenodd" clip-rule="evenodd" fill="#FFF800" d="M145.415,183.794c-0.616,0.771,2.986,4.708,2.871,5.512
			c-0.115,0.803,0.46,24.113,0.229,24.802c-0.229,0.688,3.445,2.642,3.445,4.363s-0.805,2.64-1.148,3.444
			c-0.344,0.804,11.482,0.459,11.482,0.459s10.679-10.563,11.367-10.793c0.689-0.229,3.217-0.114,3.905-2.525
			c0.688-2.412,0.458-2.987-1.034-3.905s-4.019-2.756-4.019-2.756l5.281-4.593l-19.635-9.415c0,0-2.642,0.574-4.019-0.115
			c-1.378-0.689-2.181-3.1-3.674-3.444C148.975,184.482,145.874,183.219,145.415,183.794z"/>
	</g>
</g>
<g id="Calque_9">
	<g>
		<path fill="#FFFFFF" d="M10.966,323.973c-5.495,0-9.966-4.47-9.966-9.965v-40.296c0-5.495,4.471-9.966,9.966-9.966h275.416
			c5.495,0,9.965,4.471,9.965,9.966v40.296c0,5.495-4.47,9.965-9.965,9.965H10.966z"/>
		<path d="M286.382,264.746c4.943,0,8.965,4.022,8.965,8.966v40.296c0,4.943-4.021,8.965-8.965,8.965H10.966
			c-4.944,0-8.966-4.021-8.966-8.965v-40.296c0-4.944,4.022-8.966,8.966-8.966H286.382 M286.382,262.746H10.966
			C4.909,262.746,0,267.655,0,273.712v40.296c0,6.056,4.909,10.965,10.966,10.965h275.416c6.056,0,10.965-4.909,10.965-10.965
			v-40.296C297.347,267.655,292.438,262.746,286.382,262.746L286.382,262.746z"/>
	</g>
	<g>
		<path d="M20.162,311.687v-35.679h26.454v6.036h-19.25v7.91h17.912v6.011H27.366v9.711h19.932v6.011H20.162z"/>
		<path d="M53.479,311.687v-35.679h7.009l14.603,23.827v-23.827h6.692v35.679h-7.228L60.172,288.42v23.267H53.479z"/>
		<path d="M126.077,298.569l6.984,2.214c-1.071,3.894-2.852,6.787-5.342,8.676c-2.491,1.891-5.65,2.837-9.479,2.837
			c-4.738,0-8.632-1.62-11.682-4.856c-3.051-3.237-4.575-7.661-4.575-13.276c0-5.938,1.533-10.55,4.6-13.835
			c3.066-3.286,7.098-4.928,12.096-4.928c4.363,0,7.909,1.289,10.635,3.869c1.622,1.526,2.839,3.717,3.65,6.57l-7.131,1.704
			c-0.422-1.85-1.302-3.31-2.641-4.381c-1.338-1.07-2.965-1.606-4.879-1.606c-2.646,0-4.791,0.95-6.438,2.849
			s-2.47,4.973-2.47,9.223c0,4.511,0.811,7.724,2.434,9.638c1.622,1.916,3.731,2.872,6.327,2.872c1.915,0,3.562-0.607,4.94-1.825
			C124.486,303.096,125.477,301.183,126.077,298.569z"/>
		<path d="M137.783,294.066c0-3.633,0.543-6.685,1.63-9.151c0.812-1.816,1.919-3.445,3.322-4.891
			c1.403-1.444,2.94-2.516,4.612-3.212c2.221-0.94,4.785-1.412,7.69-1.412c5.257,0,9.462,1.63,12.618,4.891
			c3.156,3.262,4.733,7.798,4.733,13.605c0,5.76-1.565,10.267-4.696,13.518c-3.133,3.254-7.318,4.882-12.558,4.882
			c-5.306,0-9.524-1.62-12.656-4.856C139.349,304.202,137.783,299.745,137.783,294.066z M145.206,293.822
			c0,4.04,0.933,7.104,2.798,9.188c1.867,2.085,4.234,3.127,7.106,3.127c2.871,0,5.229-1.034,7.071-3.104
			c1.84-2.068,2.761-5.172,2.761-9.309c0-4.089-0.896-7.138-2.689-9.15c-1.793-2.012-4.174-3.019-7.143-3.019
			c-2.97,0-5.362,1.019-7.179,3.055C146.114,286.648,145.206,289.719,145.206,293.822z"/>
		<path d="M177.963,276.008h7.204v19.324c0,3.066,0.088,5.054,0.267,5.963c0.308,1.461,1.044,2.633,2.202,3.517
			c1.16,0.884,2.747,1.326,4.759,1.326c2.044,0,3.586-0.417,4.624-1.254c1.037-0.836,1.662-1.861,1.875-3.078
			c0.21-1.217,0.315-3.236,0.315-6.06v-19.738h7.203v18.74c0,4.283-0.194,7.311-0.584,9.078s-1.107,3.262-2.153,4.479
			c-1.048,1.217-2.445,2.186-4.197,2.906c-1.753,0.723-4.04,1.085-6.863,1.085c-3.407,0-5.991-0.394-7.753-1.183
			c-1.76-0.786-3.15-1.809-4.172-3.066c-1.022-1.256-1.696-2.573-2.021-3.954c-0.471-2.044-0.705-5.062-0.705-9.053V276.008z"/>
		<path d="M214.03,311.687v-35.679h15.161c3.813,0,6.585,0.321,8.312,0.962c1.729,0.641,3.111,1.781,4.149,3.419
			c1.037,1.64,1.558,3.515,1.558,5.623c0,2.677-0.787,4.887-2.36,6.631c-1.574,1.745-3.927,2.845-7.058,3.299
			c1.558,0.909,2.843,1.905,3.857,2.992c1.015,1.088,2.381,3.018,4.101,5.792l4.356,6.961h-8.615l-5.208-7.763
			c-1.85-2.774-3.115-4.523-3.796-5.245c-0.682-0.723-1.404-1.217-2.167-1.485c-0.764-0.268-1.971-0.401-3.626-0.401h-1.46v14.895
			H214.03z M221.234,291.097h5.329c3.456,0,5.613-0.146,6.474-0.438s1.534-0.795,2.021-1.509c0.487-0.713,0.73-1.606,0.73-2.678
			c0-1.199-0.321-2.169-0.962-2.908c-0.641-0.738-1.546-1.203-2.714-1.398c-0.584-0.081-2.337-0.122-5.257-0.122h-5.621V291.097z"/>
		<path d="M248.175,300.078l7.009-0.682c0.423,2.353,1.277,4.081,2.568,5.184c1.288,1.104,3.029,1.654,5.22,1.654
			c2.32,0,4.068-0.49,5.245-1.472c1.176-0.981,1.764-2.13,1.764-3.444c0-0.843-0.247-1.562-0.742-2.153
			c-0.494-0.592-1.358-1.107-2.591-1.546c-0.846-0.292-2.767-0.81-5.77-1.558c-3.86-0.956-6.57-2.132-8.128-3.527
			c-2.19-1.963-3.285-4.357-3.285-7.181c0-1.816,0.515-3.517,1.544-5.099c1.032-1.581,2.516-2.786,4.455-3.614
			c1.939-0.827,4.279-1.24,7.021-1.24c4.479,0,7.849,0.981,10.112,2.944c2.263,1.964,3.452,4.585,3.565,7.861l-7.204,0.315
			c-0.308-1.832-0.97-3.152-1.983-3.954c-1.013-0.804-2.535-1.205-4.563-1.205c-2.093,0-3.731,0.431-4.916,1.291
			c-0.763,0.551-1.145,1.289-1.145,2.214c0,0.845,0.356,1.566,1.071,2.167c0.909,0.763,3.115,1.558,6.619,2.385
			c3.505,0.827,6.096,1.682,7.776,2.565c1.678,0.887,2.992,2.094,3.942,3.628c0.948,1.532,1.424,3.429,1.424,5.683
			c0,2.045-0.569,3.958-1.704,5.744c-1.135,1.785-2.741,3.111-4.818,3.978c-2.078,0.868-4.665,1.302-7.763,1.302
			c-4.511,0-7.975-1.041-10.393-3.126C250.088,307.106,248.646,304.069,248.175,300.078z"/>
	</g>
</g>
<g id="Repere">
</g>
</svg>
