<?xml version="1.0" encoding="utf-8"?>
<!-- Generator: Adobe Illustrator 16.0.0, SVG Export Plug-In . SVG Version: 6.00 Build 0)  -->
<!DOCTYPE svg PUBLIC "-//W3C//DTD SVG 1.1//EN" "http://www.w3.org/Graphics/SVG/1.1/DTD/svg11.dtd">
<svg version="1.1" xmlns="http://www.w3.org/2000/svg" xmlns:xlink="http://www.w3.org/1999/xlink" x="0px" y="0px"
	 width="297.638px" height="387.326px" viewBox="0 0 297.638 387.326" enable-background="new 0 0 297.638 387.326"
	 xml:space="preserve">
<g id="AK5">
	<g id="Calque_2">
		<g>
			<path fill-rule="evenodd" clip-rule="evenodd" fill="#FFFF00" d="M183.362,261.842c-69.329,0-155.935-0.167-163.689-0.383
				c-7.759-0.215-13.688-3.269-16.696-8.598c-3.026-5.363-2.573-12.3,1.242-19.034C5.304,231.915,133.523,11.993,136.397,7.792
				c2.912-4.255,7.579-6.796,12.484-6.796c5.202,0,9.91,2.764,13.255,7.783c7.407,11.11,118.839,203.359,129.789,222.654
				c5.078,8.947,6.111,17.005,2.909,22.69c-2.592,4.601-7.922,7.246-15.008,7.448c-6.02,0.172-41.172,0.271-96.431,0.271
				C183.381,261.842,183.376,261.842,183.362,261.842z"/>
			<path d="M148.881,1.994c4.858,0,9.271,2.606,12.426,7.339c7.4,11.101,118.803,203.302,129.751,222.593
				c4.828,8.506,5.887,16.419,2.907,21.709c-2.414,4.284-7.445,6.75-14.168,6.941c-6.013,0.171-41.162,0.27-96.436,0.27
				c-69.322,0-155.914-0.167-163.66-0.382c-7.396-0.205-13.026-3.079-15.855-8.091c-2.85-5.051-2.397-11.63,1.241-18.052
				C6.167,232.414,134.303,12.632,137.22,8.355C139.945,4.372,144.305,1.994,148.881,1.994 M148.881,0
				c-5.164,0-10.161,2.633-13.307,7.229C132.909,11.125,7.579,225.879,3.353,233.337c-8.146,14.376-0.959,28.641,16.293,29.119
				c7.71,0.214,92.739,0.383,163.715,0.383c48.085,0,89.719-0.077,96.493-0.271c16.771-0.479,23.001-13.896,12.938-31.627
				C282.729,213.21,170.633,19.728,162.966,8.227C159.17,2.532,153.945,0,148.881,0L148.881,0z"/>
		</g>
	</g>
	<g id="Calque_3">
		<path fill-rule="evenodd" clip-rule="evenodd" fill="#FF0000" d="M139.545,12.846c-2.46,3.702-121.147,207.829-125.05,214.918
			c-7.52,13.666-16.715,27.214,12.051,28.327l242.201-0.542c31.527-0.131,22.23-13.209,12.94-30.063
			c-9.288-16.854-114.762-200.762-121.84-211.694C152.77,2.862,145.296,4.192,139.545,12.846z"/>
	</g>
	<g id="Calque_4">
		<polygon fill-rule="evenodd" clip-rule="evenodd" fill="#FFFF00" stroke="#FFFF00" stroke-width="0.9968" points="149.591,36.383 
			35.304,234.584 265.584,235.157 		"/>
	</g>
	<g id="Calque_5">
		<path fill-rule="evenodd" clip-rule="evenodd" d="M46.896,222.377l-0.229,7.005l209.211-0.345c0,0-30.314-50.868-29.28-49.49
			c1.033,1.379-6.763-5.293-12.057,0c-0.344,0.344,0.114,0.46-2.411,0c-2.526-0.459-4.938-0.919-6.201,1.492
			c-1.263,2.412-4.479,4.017-4.938,7.579c-0.378,2.928-3.675,4.25-4.938,4.594s-4.593-4.365-5.167-4.823
			c-0.575-0.459-9.301,7.005-9.301,7.005l-20.439-10.104c0,0-5.396-12.401-5.971-13.895c-0.574-1.493-2.525-5.282-2.525-5.282
			l-1.379-27.674c0,0-4.363-5.856-4.363-6.201s1.147-3.904,2.182-4.019s9.645-2.069,11.023-10.679
			c0.927-5.787-2.756-13.665-8.842-14.583s-13.436,0.917-15.846,7.12c-1.88,4.834,0.689,10.678,2.641,12.745
			c0,0-0.115,0.459-0.459,1.033c-0.345,0.574-1.375,1.492-1.378,2.526c-0.001,0.458-4.85,0.304-5.282,0.459
			c-4.135,1.491-20.094,7.12-22.046,8.382s-5.857,3.33-6.661,6.89c-0.803,3.559-2.87,18.026-3.1,19.061s-1.033,0.918,0.229,2.066
			c1.264,1.149,2.526,2.755,6.086,2.067c3.56-0.688,1.723-1.607,2.526-1.148c0.804,0.46,4.478,1.607,4.478,2.411
			c0,0.805-2.182,22.506-2.411,23.655c-0.229,1.148-16.19,22.276-16.649,23.194s8.841,8.727,8.841,8.727L46.896,222.377z"/>
		<path fill-rule="evenodd" clip-rule="evenodd" fill="#FFF800" d="M122.334,139.93c1.36,0.272-1.723,6.659-2.297,7.809
			c-0.573,1.148-6.2,14.813-7.349,14.697s-2.985-1.378-3.789-2.297s1.493-13.434,2.067-14.123
			C111.54,145.326,121.76,139.814,122.334,139.93z"/>
		<path fill-rule="evenodd" clip-rule="evenodd" fill="#FFF800" d="M141.97,152.562c-0.689,2.066-6.546,12.63-6.201,13.778
			s3.79,8.498,7.005,10.449c3.215,1.952,5.626,2.87,4.363,0.804c-1.264-2.067-4.363-8.383-4.708-9.416
			C142.084,167.145,141.97,152.562,141.97,152.562z"/>
		<path fill-rule="evenodd" clip-rule="evenodd" fill="#FFF800" d="M109.589,222.26h25.605l0.115-28.936
			c0,0-9.99-18.372-10.449-18.831c-0.459-0.46-1.608,11.368-1.493,12.516s0,6.773-0.804,7.692s-12.975,19.521-13.319,19.979
			c-0.345,0.46,1.607,1.838,1.492,4.364C110.622,221.571,109.589,222.26,109.589,222.26z"/>
		<path fill-rule="evenodd" clip-rule="evenodd" fill="#FFF800" d="M145.415,183.794c-0.616,0.771,2.986,4.708,2.871,5.512
			c-0.115,0.803,0.46,24.113,0.229,24.802c-0.229,0.688,3.445,2.642,3.445,4.363s-0.805,2.64-1.148,3.444
			c-0.344,0.804,11.482,0.459,11.482,0.459s10.679-10.563,11.367-10.793c0.689-0.229,3.217-0.114,3.905-2.525
			c0.688-2.412,0.458-2.987-1.034-3.905s-4.019-2.756-4.019-2.756l5.281-4.593l-19.635-9.415c0,0-2.642,0.574-4.019-0.115
			c-1.378-0.689-2.181-3.1-3.674-3.444C148.975,184.482,145.874,183.219,145.415,183.794z"/>
	</g>
</g>
<g id="KC1">
	<g>
		<path fill="#EDFF00" d="M6.979,386.329c-3.298,0-5.981-2.683-5.981-5.98V269.598c0-3.298,2.683-5.98,5.981-5.98H290.66
			c3.298,0,5.98,2.683,5.98,5.98v110.751c0,3.298-2.683,5.98-5.98,5.98H6.979z"/>
		<path fill="#1A171B" d="M290.66,264.614c2.748,0,4.984,2.236,4.984,4.984v110.751c0,2.748-2.236,4.984-4.984,4.984H6.979
			c-2.749,0-4.985-2.236-4.985-4.984V269.598c0-2.748,2.236-4.984,4.985-4.984H290.66 M290.66,262.62H6.979
			c-3.854,0-6.979,3.124-6.979,6.978v110.751c0,3.854,3.124,6.978,6.979,6.978H290.66c3.854,0,6.978-3.124,6.978-6.978V269.598
			C297.638,265.744,294.514,262.62,290.66,262.62L290.66,262.62z"/>
	</g>
	<g>
		<path d="M86.169,313.028v-22.174h9.424c2.369,0,4.091,0.2,5.165,0.598c1.073,0.398,1.934,1.107,2.578,2.125
			c0.646,1.019,0.969,2.184,0.969,3.494c0,1.664-0.489,3.038-1.467,4.122c-0.979,1.084-2.441,1.767-4.387,2.049
			c0.968,0.564,1.768,1.186,2.396,1.86c0.631,0.676,1.48,1.876,2.55,3.6l2.707,4.326h-5.354l-3.237-4.824
			c-1.148-1.726-1.936-2.812-2.359-3.261c-0.423-0.448-0.872-0.756-1.346-0.923c-0.475-0.165-1.226-0.249-2.254-0.249h-0.907v9.257
			H86.169z M90.646,300.232h3.313c2.147,0,3.488-0.091,4.023-0.271c0.534-0.183,0.953-0.495,1.255-0.938
			c0.303-0.443,0.454-0.998,0.454-1.664c0-0.745-0.199-1.349-0.598-1.808s-0.96-0.749-1.687-0.869
			c-0.363-0.051-1.452-0.076-3.267-0.076h-3.494V300.232z"/>
		<path d="M108.524,313.028v-22.174h16.441v3.751h-11.964v4.916h11.132v3.736h-11.132v6.034h12.388v3.736H108.524z"/>
		<path d="M128.052,305.814l4.355-0.424c0.263,1.462,0.795,2.536,1.596,3.222c0.802,0.686,1.883,1.028,3.244,1.028
			c1.442,0,2.528-0.306,3.26-0.915c0.731-0.61,1.097-1.324,1.097-2.141c0-0.523-0.153-0.971-0.461-1.339
			c-0.308-0.367-0.845-0.688-1.611-0.96c-0.524-0.182-1.719-0.504-3.584-0.968c-2.4-0.595-4.085-1.326-5.052-2.193
			c-1.362-1.22-2.042-2.707-2.042-4.463c0-1.129,0.319-2.186,0.96-3.168c0.64-0.983,1.563-1.732,2.768-2.246
			s2.659-0.771,4.364-0.771c2.782,0,4.878,0.609,6.284,1.83s2.146,2.849,2.216,4.886l-4.477,0.196
			c-0.192-1.139-0.604-1.959-1.233-2.458c-0.63-0.498-1.575-0.749-2.836-0.749c-1.301,0-2.319,0.268-3.056,0.803
			c-0.474,0.343-0.71,0.801-0.71,1.376c0,0.524,0.222,0.973,0.665,1.347c0.564,0.474,1.937,0.968,4.114,1.481
			s3.789,1.047,4.833,1.596c1.043,0.55,1.86,1.302,2.45,2.254s0.885,2.131,0.885,3.531c0,1.271-0.354,2.461-1.059,3.57
			c-0.707,1.109-1.705,1.934-2.995,2.474c-1.291,0.539-2.899,0.809-4.825,0.809c-2.804,0-4.956-0.647-6.459-1.944
			C129.241,310.183,128.344,308.295,128.052,305.814z"/>
		<path d="M149.848,313.028v-22.174h16.44v3.751h-11.965v4.916h11.133v3.736h-11.133v6.034h12.389v3.736H149.848z"/>
		<path d="M190.504,313.028h-4.869l-1.938-5.036h-8.862l-1.83,5.036h-4.751l8.637-22.174h4.735L190.504,313.028z M182.261,304.256
			l-3.056-8.229l-2.994,8.229H182.261z"/>
		<path d="M192.848,290.854h4.479v12.01c0,1.906,0.055,3.142,0.165,3.705c0.192,0.908,0.648,1.637,1.369,2.187
			c0.722,0.549,1.707,0.823,2.957,0.823c1.271,0,2.229-0.259,2.874-0.778c0.646-0.519,1.033-1.156,1.164-1.913
			c0.133-0.756,0.196-2.012,0.196-3.767v-12.267h4.479v11.646c0,2.663-0.121,4.543-0.364,5.642c-0.241,1.1-0.688,2.027-1.338,2.783
			c-0.65,0.757-1.521,1.359-2.608,1.808c-1.091,0.449-2.512,0.673-4.266,0.673c-2.118,0-3.723-0.244-4.817-0.733
			c-1.094-0.488-1.958-1.124-2.595-1.905c-0.635-0.781-1.054-1.601-1.254-2.459c-0.294-1.27-0.44-3.145-0.44-5.626V290.854z"/>
	</g>
	<g>
		<path d="M15.788,334.242h8.183c1.845,0,3.252,0.142,4.22,0.424c1.301,0.384,2.415,1.064,3.343,2.042
			c0.928,0.979,1.634,2.176,2.118,3.593c0.483,1.416,0.726,3.163,0.726,5.241c0,1.824-0.228,3.397-0.681,4.718
			c-0.555,1.614-1.347,2.92-2.375,3.918c-0.776,0.756-1.825,1.346-3.146,1.77c-0.987,0.313-2.309,0.469-3.962,0.469h-8.425V334.242z
			 M20.265,337.993v14.687h3.343c1.25,0,2.153-0.069,2.707-0.211c0.727-0.182,1.329-0.489,1.808-0.923
			c0.479-0.433,0.87-1.146,1.173-2.141c0.303-0.993,0.453-2.346,0.453-4.061c0-1.714-0.15-3.03-0.453-3.948
			c-0.303-0.917-0.727-1.634-1.271-2.147c-0.545-0.514-1.235-0.862-2.072-1.044c-0.625-0.141-1.851-0.212-3.676-0.212H20.265z"/>
		<path d="M38.173,356.416v-22.174h16.442v3.751H42.65v4.916h11.133v3.736H42.65v6.034h12.388v3.736H38.173z"/>
		<path d="M58.834,356.416v-22.174h7.186c2.722,0,4.496,0.111,5.323,0.333c1.271,0.333,2.335,1.057,3.191,2.171
			c0.857,1.114,1.286,2.554,1.286,4.317c0,1.362-0.247,2.507-0.741,3.434c-0.494,0.929-1.122,1.657-1.883,2.187
			c-0.762,0.528-1.535,0.879-2.322,1.051c-1.068,0.212-2.616,0.318-4.644,0.318h-2.919v8.363H58.834z M63.312,337.993v6.293h2.45
			c1.765,0,2.944-0.116,3.539-0.348c0.595-0.232,1.062-0.595,1.399-1.09c0.338-0.494,0.507-1.068,0.507-1.724
			c0-0.807-0.237-1.473-0.711-1.996c-0.474-0.525-1.074-0.854-1.8-0.983c-0.534-0.102-1.608-0.152-3.222-0.152H63.312z"/>
		<path d="M97.192,356.416h-4.87l-1.937-5.036h-8.863l-1.83,5.036h-4.749l8.637-22.174h4.733L97.192,356.416z M88.949,347.644
			l-3.056-8.228l-2.995,8.228H88.949z"/>
		<path d="M99.582,356.416v-22.174h9.424c2.369,0,4.091,0.2,5.165,0.598c1.073,0.398,1.933,1.107,2.578,2.125
			c0.646,1.019,0.969,2.184,0.969,3.494c0,1.664-0.489,3.038-1.467,4.122c-0.979,1.084-2.441,1.767-4.387,2.049
			c0.968,0.564,1.768,1.186,2.396,1.86c0.631,0.676,1.48,1.876,2.55,3.6l2.707,4.326h-5.354l-3.237-4.824
			c-1.148-1.725-1.936-2.812-2.359-3.26c-0.423-0.449-0.872-0.757-1.346-0.923c-0.475-0.166-1.226-0.25-2.254-0.25h-0.907v9.257
			H99.582z M104.06,343.62h3.313c2.147,0,3.488-0.091,4.023-0.271c0.534-0.183,0.953-0.495,1.255-0.938
			c0.303-0.443,0.454-0.998,0.454-1.664c0-0.745-0.199-1.348-0.598-1.808c-0.398-0.458-0.96-0.748-1.687-0.869
			c-0.363-0.051-1.452-0.076-3.267-0.076h-3.494V343.62z"/>
		<path d="M126.929,356.416v-18.423h-6.579v-3.751h17.621v3.751h-6.564v18.423H126.929z"/>
		<path d="M140.859,356.416v-22.174h16.442v3.751h-11.965v4.916h11.132v3.736h-11.132v6.034h12.388v3.736H140.859z"/>
		<path d="M161.461,356.416v-22.174h6.699l4.024,15.126l3.978-15.126h6.716v22.174h-4.159v-17.454l-4.402,17.454h-4.311
			l-4.386-17.454v17.454H161.461z"/>
		<path d="M187.324,356.416v-22.174h16.442v3.751h-11.964v4.916h11.132v3.736h-11.132v6.034h12.386v3.736H187.324z"/>
		<path d="M208.032,356.416v-22.174h4.355l9.074,14.808v-14.808h4.161v22.174h-4.494l-8.938-14.46v14.46H208.032z"/>
		<path d="M235.348,356.416v-18.423h-6.578v-3.751h17.619v3.751h-6.563v18.423H235.348z"/>
		<path d="M266.977,356.416h-4.872l-1.935-5.036h-8.865l-1.83,5.036h-4.748l8.637-22.174h4.732L266.977,356.416z M258.732,347.644
			l-3.057-8.228l-2.994,8.228H258.732z"/>
		<path d="M269.471,356.416v-21.991h4.478v18.255h11.133v3.736H269.471z"/>
	</g>
</g>
</svg>
