<?xml version="1.0" encoding="utf-8"?>
<!-- Generator: Adobe Illustrator 16.0.0, SVG Export Plug-In . SVG Version: 6.00 Build 0)  -->
<!DOCTYPE svg PUBLIC "-//W3C//DTD SVG 1.1//EN" "http://www.w3.org/Graphics/SVG/1.1/DTD/svg11.dtd">
<svg version="1.1" xmlns="http://www.w3.org/2000/svg" xmlns:xlink="http://www.w3.org/1999/xlink" x="0px" y="0px"
	 width="297.638px" height="225.963px" viewBox="0 0 297.638 225.963" enable-background="new 0 0 297.638 225.963"
	 xml:space="preserve">
<g id="fond_blanc">
	<g>
		<path fill-rule="evenodd" clip-rule="evenodd" fill="#FFFFFF" d="M17.008,222.926c-7.704,0-13.971-6.268-13.971-13.971V17.008
			c0-7.704,6.267-13.971,13.971-13.971H280.63c7.703,0,13.971,6.267,13.971,13.971v191.947c0,7.703-6.268,13.971-13.971,13.971
			H17.008z"/>
		<path fill="#231F20" d="M280.63,6.074c6.028,0,10.934,4.905,10.934,10.934v191.947c0,6.028-4.905,10.934-10.934,10.934H17.008
			c-6.029,0-10.934-4.905-10.934-10.934V17.008c0-6.029,4.905-10.934,10.934-10.934H280.63 M280.63,0H17.008
			C7.615,0,0,7.615,0,17.008v191.947c0,9.393,7.615,17.008,17.008,17.008H280.63c9.394,0,17.008-7.615,17.008-17.008V17.008
			C297.638,7.615,290.023,0,280.63,0L280.63,0z"/>
	</g>
</g>
<g id="fond_rouge">
	<path fill-rule="evenodd" clip-rule="evenodd" fill="#FF0000" d="M287.871,207.006c0,5.367-4.352,9.719-9.719,9.719H19.485
		c-5.368,0-9.719-4.352-9.719-9.719V18.958c0-5.368,4.351-9.719,9.719-9.719h258.667c5.367,0,9.719,4.351,9.719,9.719V207.006z"/>
</g>
<g id="blanc">
	<path fill="none" stroke="#FFFFFF" stroke-width="3.6445" d="M8.909,74.106c1.215,0,281.846,0,281.846,0"/>
</g>
<g id="Calque_6">
	<g>
		<path fill="#FFFFFF" d="M39.317,51.735l-2.274,8.197h-7.439l9.713-31.935h9.477l9.95,31.935h-7.817l-2.464-8.197H39.317z
			 M47.419,46.333l-1.99-6.775c-0.568-1.896-1.137-4.265-1.611-6.16h-0.095c-0.473,1.895-0.947,4.312-1.469,6.16l-1.895,6.775
			H47.419z"/>
		<path fill="#FFFFFF" d="M65.233,34.062H56.61v-6.065h24.543v6.065h-8.718v25.87h-7.202V34.062z"/>
		<path fill="#FFFFFF" d="M92.238,34.062h-8.623v-6.065h24.543v6.065h-8.718v25.87h-7.202V34.062z"/>
		<path fill="#FFFFFF" d="M130.994,46.428h-11.75v7.581h13.125v5.922h-20.326V27.997h19.663v5.923h-12.461v6.633h11.75V46.428z"/>
		<path fill="#FFFFFF" d="M137.295,59.932V27.997h8.433l6.635,11.703c1.895,3.364,3.743,7.344,5.212,10.945h0.093
			c-0.425-4.216-0.567-8.528-0.567-13.361v-9.287h6.632v31.935h-7.581l-6.82-12.319c-1.896-3.411-4.028-7.534-5.544-11.276h-0.19
			c0.237,4.264,0.332,8.765,0.332,13.977v9.619H137.295z"/>
		<path fill="#FFFFFF" d="M176.193,34.062h-8.625v-6.065h24.544v6.065h-8.718v25.87h-7.201V34.062z"/>
		<path fill="#FFFFFF" d="M203.197,27.997v31.935h-7.201V27.997H203.197z"/>
		<path fill="#FFFFFF" d="M238.685,43.632c0,10.519-6.302,16.821-15.684,16.821c-9.43,0-15.02-7.155-15.02-16.299
			c0-9.571,6.159-16.726,15.541-16.726C233.329,27.428,238.685,34.772,238.685,43.632z M215.609,44.012
			c0,6.301,2.938,10.708,7.771,10.708c4.881,0,7.676-4.644,7.676-10.851c0-5.78-2.7-10.708-7.676-10.708
			C218.452,33.162,215.609,37.804,215.609,44.012z"/>
		<path fill="#FFFFFF" d="M243.421,59.932V27.997h8.435l6.632,11.703c1.896,3.364,3.744,7.344,5.213,10.945h0.095
			c-0.427-4.216-0.569-8.528-0.569-13.361v-9.287h6.635v31.935h-7.581l-6.824-12.319c-1.896-3.411-4.026-7.534-5.543-11.276h-0.189
			c0.237,4.264,0.332,8.765,0.332,13.977v9.619H243.421z"/>
	</g>
</g>
</svg>
