<?xml version="1.0" encoding="utf-8"?>
<!-- Generator: Adobe Illustrator 16.0.0, SVG Export Plug-In . SVG Version: 6.00 Build 0)  -->
<!DOCTYPE svg PUBLIC "-//W3C//DTD SVG 1.1//EN" "http://www.w3.org/Graphics/SVG/1.1/DTD/svg11.dtd">
<svg version="1.1" xmlns="http://www.w3.org/2000/svg" xmlns:xlink="http://www.w3.org/1999/xlink" x="0px" y="0px"
	 width="297.638px" height="297.638px" viewBox="0 0 297.638 297.638" enable-background="new 0 0 297.638 297.638"
	 xml:space="preserve">
<g id="rond_blanc">
	<g>
		<path fill="#FFFFFF" d="M148.819,296.44c-81.399,0-147.623-66.223-147.623-147.621C1.197,67.42,67.42,1.197,148.819,1.197
			c81.398,0,147.621,66.223,147.621,147.623C296.44,230.218,230.218,296.44,148.819,296.44z"/>
		<path fill="#1A171B" d="M148.819,2.394c39.111,0,75.882,15.231,103.538,42.887c27.655,27.656,42.887,64.427,42.887,103.539
			c0,39.111-15.231,75.882-42.887,103.538c-27.656,27.655-64.427,42.887-103.538,42.887c-39.112,0-75.882-15.231-103.539-42.887
			C17.625,224.701,2.394,187.931,2.394,148.819c0-39.112,15.231-75.883,42.887-103.539C72.937,17.625,109.708,2.394,148.819,2.394
			 M148.819,0C66.628,0,0,66.628,0,148.819c0,82.189,66.628,148.818,148.819,148.818c82.189,0,148.818-66.629,148.818-148.818
			C297.638,66.628,231.009,0,148.819,0L148.819,0z"/>
	</g>
</g>
<g id="rond_rouge">
	<path d="M148.037,49.33h15.55c0.685,0.043,1.367,0.088,2.05,0.136l-17.6,15.95l-17.601-15.95c0.684-0.048,1.368-0.092,2.05-0.136
		H148.037z M148.037,232.226l17.749,16.084h-17.749h-17.749L148.037,232.226z"/>
	<circle fill="none" stroke="#FF0000" stroke-width="43.0849" cx="148.819" cy="148.818" r="120.947"/>
</g>
<g id="_x33_.8m">
	<g>
		<path d="M112.746,166.855h11.495v8.223c0,3.326-0.287,5.951-0.859,7.875c-0.573,1.921-1.657,3.646-3.252,5.174
			c-1.595,1.527-3.62,2.727-6.074,3.6l-2.25-4.745c2.317-0.763,3.968-1.813,4.95-3.149c0.981-1.337,1.5-3.164,1.554-5.481h-5.563
			V166.855z"/>
		<path d="M143.712,145.993c-2.973-1.254-5.134-2.979-6.483-5.175c-1.35-2.194-2.025-4.602-2.025-7.22
			c0-4.472,1.562-8.167,4.685-11.085c3.122-2.918,7.561-4.377,13.314-4.377c5.7,0,10.125,1.459,13.273,4.377
			c3.151,2.918,4.726,6.614,4.726,11.085c0,2.782-0.724,5.257-2.168,7.425c-1.446,2.168-3.478,3.824-6.095,4.97
			c3.327,1.337,5.856,3.287,7.588,5.85c1.731,2.564,2.598,5.522,2.598,8.877c0,5.536-1.767,10.036-5.297,13.499
			c-3.532,3.463-8.23,5.195-14.093,5.195c-5.455,0-9.995-1.432-13.622-4.295c-4.281-3.382-6.422-8.018-6.422-13.908
			c0-3.246,0.804-6.224,2.413-8.938C137.712,149.56,140.248,147.466,143.712,145.993z M145.021,160.106
			c0,3.163,0.811,5.631,2.434,7.403c1.622,1.773,3.647,2.659,6.074,2.659c2.373,0,4.336-0.852,5.891-2.557
			c1.555-1.704,2.332-4.166,2.332-7.384c0-2.809-0.791-5.065-2.373-6.771c-1.582-1.704-3.586-2.556-6.013-2.556
			c-2.809,0-4.902,0.969-6.279,2.904C145.709,155.743,145.021,157.844,145.021,160.106z M146.085,134.417
			c0,2.291,0.647,4.077,1.942,5.358c1.296,1.282,3.021,1.923,5.175,1.923c2.183,0,3.927-0.647,5.236-1.943
			c1.309-1.295,1.963-3.088,1.963-5.379c0-2.154-0.648-3.879-1.943-5.175c-1.295-1.295-3.006-1.942-5.133-1.942
			c-2.209,0-3.968,0.654-5.277,1.963C146.739,130.531,146.085,132.263,146.085,134.417z"/>
	</g>
	<g>
		<path d="M185.723,146.465h8.022v4.49c2.869-3.489,6.287-5.234,10.251-5.234c2.106,0,3.933,0.434,5.482,1.301
			c1.548,0.868,2.818,2.179,3.81,3.934c1.445-1.755,3.005-3.065,4.676-3.934c1.674-0.867,3.46-1.301,5.358-1.301
			c2.416,0,4.46,0.491,6.133,1.472s2.922,2.421,3.747,4.321c0.599,1.403,0.898,3.675,0.898,6.813v21.029h-8.703v-18.799
			c0-3.264-0.3-5.369-0.897-6.318c-0.806-1.239-2.045-1.858-3.717-1.858c-1.218,0-2.364,0.371-3.438,1.115
			c-1.073,0.743-1.848,1.832-2.322,3.267c-0.476,1.436-0.712,3.701-0.712,6.798v15.796h-8.704v-18.025
			c0-3.2-0.155-5.266-0.464-6.194c-0.311-0.93-0.79-1.62-1.44-2.076c-0.65-0.453-1.532-0.68-2.647-0.68
			c-1.343,0-2.551,0.361-3.624,1.083c-1.074,0.724-1.844,1.767-2.308,3.129c-0.465,1.363-0.697,3.623-0.697,6.782v15.981h-8.703
			V146.465z"/>
	</g>
	<g>
		<path d="M68.879,162.502l11.126-1.35c0.354,2.836,1.309,5.005,2.863,6.504c1.555,1.499,3.436,2.25,5.645,2.25
			c2.373,0,4.37-0.9,5.993-2.7s2.434-4.226,2.434-7.281c0-2.891-0.777-5.181-2.332-6.872c-1.555-1.69-3.45-2.536-5.686-2.536
			c-1.473,0-3.231,0.286-5.277,0.859l1.268-9.368c3.109,0.082,5.481-0.593,7.118-2.024s2.454-3.334,2.454-5.707
			c0-2.018-0.6-3.626-1.8-4.826c-1.2-1.2-2.795-1.801-4.786-1.801c-1.964,0-3.641,0.683-5.032,2.046
			c-1.391,1.364-2.236,3.354-2.536,5.973l-10.595-1.801c0.736-3.626,1.847-6.524,3.334-8.692c1.486-2.168,3.559-3.872,6.218-5.113
			c2.659-1.24,5.638-1.861,8.938-1.861c5.645,0,10.171,1.8,13.581,5.399c2.809,2.946,4.213,6.273,4.213,9.981
			c0,5.264-2.877,9.464-8.631,12.6c3.436,0.736,6.183,2.387,8.242,4.949c2.059,2.563,3.089,5.659,3.089,9.286
			c0,5.264-1.923,9.75-5.768,13.458s-8.631,5.563-14.358,5.563c-5.427,0-9.927-1.561-13.499-4.684
			C71.524,171.631,69.452,167.548,68.879,162.502z"/>
	</g>
</g>
</svg>
