<?xml version="1.0" encoding="utf-8"?>
<!-- Generator: Adobe Illustrator 16.0.0, SVG Export Plug-In . SVG Version: 6.00 Build 0)  -->
<!DOCTYPE svg PUBLIC "-//W3C//DTD SVG 1.1//EN" "http://www.w3.org/Graphics/SVG/1.1/DTD/svg11.dtd">
<svg version="1.1" xmlns="http://www.w3.org/2000/svg" xmlns:xlink="http://www.w3.org/1999/xlink" x="0px" y="0px"
	 width="297.638px" height="297.638px" viewBox="0 0 297.638 297.638" enable-background="new 0 0 297.638 297.638"
	 xml:space="preserve">
<g id="rond_blanc">
	<g>
		<path fill="#FFFFFF" d="M148.819,296.44c-81.399,0-147.623-66.223-147.623-147.621C1.197,67.42,67.42,1.197,148.819,1.197
			c81.398,0,147.621,66.223,147.621,147.623C296.44,230.218,230.218,296.44,148.819,296.44z"/>
		<path fill="#1A171B" d="M148.819,2.394c39.111,0,75.882,15.231,103.538,42.887c27.655,27.656,42.887,64.427,42.887,103.539
			c0,39.111-15.231,75.882-42.887,103.538c-27.656,27.655-64.427,42.887-103.538,42.887c-39.112,0-75.882-15.231-103.539-42.887
			C17.625,224.701,2.394,187.931,2.394,148.819c0-39.112,15.231-75.883,42.887-103.539C72.937,17.625,109.708,2.394,148.819,2.394
			 M148.819,0C66.628,0,0,66.628,0,148.819c0,82.189,66.628,148.818,148.819,148.818c82.189,0,148.818-66.629,148.818-148.818
			C297.638,66.628,231.009,0,148.819,0L148.819,0z"/>
	</g>
</g>
<g id="rond_rouge">
	<circle fill="none" stroke="#FF0000" stroke-width="43.0849" cx="148.819" cy="148.818" r="120.947"/>
</g>
<g id="_x34_4t">
	<g>
		<path d="M100.172,184.121H86.452v-51.709c-5.013,4.688-10.921,8.154-17.725,10.4v-12.451c3.581-1.172,7.471-3.393,11.67-6.665
			c4.199-3.271,7.08-7.088,8.643-11.45h11.133V184.121z"/>
		<path d="M119.973,167.568l13.281-1.465c0.326,2.703,1.172,4.705,2.539,6.006c1.367,1.303,3.174,1.953,5.42,1.953
			c2.832,0,5.24-1.301,7.227-3.906c1.986-2.604,3.256-8.008,3.809-16.211c-3.451,4.004-7.764,6.006-12.939,6.006
			c-5.631,0-10.49-2.172-14.575-6.518c-4.086-4.346-6.128-10.002-6.128-16.969c0-7.258,2.156-13.11,6.47-17.553
			c4.313-4.443,9.805-6.665,16.479-6.665c7.26,0,13.217,2.808,17.871,8.423c4.654,5.616,6.982,14.852,6.982,27.709
			c0,13.086-2.426,22.527-7.275,28.32c-4.85,5.795-11.166,8.691-18.945,8.691c-5.6,0-10.123-1.488-13.574-4.467
			C123.163,177.945,120.95,173.494,119.973,167.568z M151.027,137.588c0-4.426-1.018-7.861-3.051-10.303
			c-2.035-2.441-4.387-3.662-7.057-3.662c-2.539,0-4.646,1.001-6.322,3.003c-1.678,2.002-2.516,5.281-2.516,9.838
			c0,4.623,0.912,8.018,2.734,10.182s4.102,3.246,6.836,3.246c2.637,0,4.859-1.041,6.666-3.125
			C150.125,144.686,151.027,141.625,151.027,137.588z"/>
		<path d="M227.787,132.266v10.938h-9.375v20.898c0,4.232,0.09,6.699,0.27,7.398c0.178,0.699,0.586,1.277,1.221,1.732
			c0.635,0.457,1.406,0.684,2.318,0.684c1.27,0,3.109-0.439,5.518-1.318l1.172,10.645c-3.189,1.367-6.803,2.051-10.84,2.051
			c-2.475,0-4.703-0.414-6.689-1.244s-3.441-1.904-4.369-3.223s-1.572-3.102-1.93-5.348c-0.293-1.594-0.439-4.816-0.439-9.668
			v-22.607h-6.299v-10.938h6.299v-10.302l13.77-8.008v18.31H227.787z"/>
	</g>
</g>
</svg>
