<?xml version="1.0" encoding="utf-8"?>
<!-- Generator: Adobe Illustrator 16.0.0, SVG Export Plug-In . SVG Version: 6.00 Build 0)  -->
<!DOCTYPE svg PUBLIC "-//W3C//DTD SVG 1.1//EN" "http://www.w3.org/Graphics/SVG/1.1/DTD/svg11.dtd">
<svg version="1.1" xmlns="http://www.w3.org/2000/svg" xmlns:xlink="http://www.w3.org/1999/xlink" x="0px" y="0px"
	 width="297.638px" height="297.638px" viewBox="0 0 297.638 297.638" enable-background="new 0 0 297.638 297.638"
	 xml:space="preserve">
<g id="rond_blanc">
	<g>
		<path fill="#FFFFFF" d="M148.819,296.44c-81.399,0-147.623-66.223-147.623-147.621C1.197,67.42,67.42,1.197,148.819,1.197
			c81.398,0,147.621,66.223,147.621,147.623C296.44,230.218,230.218,296.44,148.819,296.44z"/>
		<path fill="#1A171B" d="M148.819,2.394c39.111,0,75.882,15.231,103.538,42.887c27.655,27.656,42.887,64.427,42.887,103.539
			c0,39.111-15.231,75.882-42.887,103.538c-27.656,27.655-64.427,42.887-103.538,42.887c-39.112,0-75.882-15.231-103.539-42.887
			C17.625,224.701,2.394,187.931,2.394,148.819c0-39.112,15.231-75.883,42.887-103.539C72.937,17.625,109.708,2.394,148.819,2.394
			 M148.819,0C66.628,0,0,66.628,0,148.819c0,82.189,66.628,148.818,148.819,148.818c82.189,0,148.818-66.629,148.818-148.818
			C297.638,66.628,231.009,0,148.819,0L148.819,0z"/>
	</g>
</g>
<g id="rond_rouge">
	<circle fill="none" stroke="#FF0000" stroke-width="43.0849" cx="148.819" cy="148.818" r="120.947"/>
</g>
<g id="_x34_4t">
	<g>
		<path d="M100.172,184.17H86.452v-51.709c-5.013,4.688-10.921,8.154-17.725,10.4V130.41c3.581-1.172,7.471-3.393,11.67-6.665
			c4.199-3.271,7.08-7.088,8.643-11.45h11.133V184.17z"/>
		<path d="M166.018,171.426v12.744h-48.095c0.521-4.816,2.083-9.383,4.688-13.695c2.604-4.313,7.748-10.035,15.429-17.164
			c6.186-5.762,9.977-9.668,11.377-11.719c1.889-2.832,2.832-5.631,2.832-8.398c0-3.059-0.822-5.41-2.465-7.055
			c-1.645-1.644-3.916-2.466-6.813-2.466c-2.865,0-5.143,0.863-6.836,2.587c-1.693,1.727-2.67,4.59-2.93,8.594l-13.671-1.367
			c0.813-7.551,3.369-12.971,7.666-16.259c4.297-3.288,9.668-4.932,16.113-4.932c7.064,0,12.613,1.904,16.65,5.713
			s6.055,8.544,6.055,14.208c0,3.223-0.578,6.291-1.732,9.205c-1.156,2.914-2.988,5.965-5.494,9.154
			c-1.66,2.117-4.654,5.16-8.984,9.131c-4.33,3.973-7.072,6.609-8.227,7.91c-1.156,1.303-2.092,2.572-2.809,3.809H166.018z"/>
		<path d="M227.787,132.314v10.938h-9.375v20.898c0,4.232,0.09,6.699,0.27,7.398c0.178,0.699,0.586,1.277,1.221,1.732
			c0.635,0.457,1.406,0.684,2.318,0.684c1.27,0,3.109-0.439,5.518-1.318l1.172,10.645c-3.189,1.367-6.803,2.051-10.84,2.051
			c-2.475,0-4.703-0.414-6.689-1.244s-3.441-1.904-4.369-3.223s-1.572-3.102-1.93-5.348c-0.293-1.594-0.439-4.816-0.439-9.668
			v-22.607h-6.299v-10.938h6.299v-10.302l13.77-8.008v18.31H227.787z"/>
	</g>
</g>
</svg>
