<?xml version="1.0" encoding="utf-8"?>
<!-- Generator: Adobe Illustrator 16.0.0, SVG Export Plug-In . SVG Version: 6.00 Build 0)  -->
<!DOCTYPE svg PUBLIC "-//W3C//DTD SVG 1.1//EN" "http://www.w3.org/Graphics/SVG/1.1/DTD/svg11.dtd">
<svg version="1.1" xmlns="http://www.w3.org/2000/svg" xmlns:xlink="http://www.w3.org/1999/xlink" x="0px" y="0px"
	 width="297.638px" height="297.638px" viewBox="0 0 297.638 297.638" enable-background="new 0 0 297.638 297.638"
	 xml:space="preserve">
<g id="rond_blanc">
	<g>
		<path fill="#FFFFFF" d="M148.819,296.44c-81.399,0-147.623-66.223-147.623-147.621C1.197,67.42,67.42,1.197,148.819,1.197
			c81.398,0,147.621,66.223,147.621,147.623C296.44,230.218,230.218,296.44,148.819,296.44z"/>
		<path fill="#1A171B" d="M148.819,2.394c39.111,0,75.882,15.231,103.538,42.887c27.655,27.656,42.887,64.427,42.887,103.539
			c0,39.111-15.231,75.882-42.887,103.538c-27.656,27.655-64.427,42.887-103.538,42.887c-39.112,0-75.882-15.231-103.539-42.887
			C17.625,224.701,2.394,187.931,2.394,148.819c0-39.112,15.231-75.883,42.887-103.539C72.937,17.625,109.708,2.394,148.819,2.394
			 M148.819,0C66.628,0,0,66.628,0,148.819c0,82.189,66.628,148.818,148.819,148.818c82.189,0,148.818-66.629,148.818-148.818
			C297.638,66.628,231.009,0,148.819,0L148.819,0z"/>
	</g>
</g>
<g id="rond_rouge">
	<circle fill="none" stroke="#FF0000" stroke-width="43.0849" cx="148.819" cy="148.818" r="120.947"/>
</g>
<g id="_x34_4t">
	<g>
		<path d="M94.997,184.17v-14.404H65.7v-12.012l31.055-45.458h11.523v45.41h8.887v12.061h-8.887v14.404H94.997z M94.997,157.705
			v-24.463l-16.455,24.463H94.997z"/>
		<path d="M149.611,184.17v-14.404h-29.296v-12.012l31.054-45.458h11.523v45.41h8.887v12.061h-8.887v14.404H149.611z
			 M149.611,157.705v-24.463l-16.455,24.463H149.611z"/>
		<path d="M230.814,132.314v10.938h-9.375v20.898c0,4.232,0.09,6.699,0.27,7.398c0.178,0.699,0.586,1.277,1.221,1.732
			c0.635,0.457,1.406,0.684,2.318,0.684c1.27,0,3.109-0.439,5.518-1.318l1.172,10.645c-3.189,1.367-6.803,2.051-10.84,2.051
			c-2.475,0-4.703-0.414-6.689-1.244s-3.441-1.904-4.369-3.223s-1.572-3.102-1.93-5.348c-0.293-1.594-0.439-4.816-0.439-9.668
			v-22.607h-6.299v-10.938h6.299v-10.302l13.77-8.008v18.31H230.814z"/>
	</g>
</g>
</svg>
