<?xml version="1.0" encoding="utf-8"?>
<!-- Generator: Adobe Illustrator 16.0.0, SVG Export Plug-In . SVG Version: 6.00 Build 0)  -->
<!DOCTYPE svg PUBLIC "-//W3C//DTD SVG 1.1//EN" "http://www.w3.org/Graphics/SVG/1.1/DTD/svg11.dtd">
<svg version="1.1" xmlns="http://www.w3.org/2000/svg" xmlns:xlink="http://www.w3.org/1999/xlink" x="0px" y="0px"
	 width="297.638px" height="297.638px" viewBox="0 0 297.638 297.638" enable-background="new 0 0 297.638 297.638"
	 xml:space="preserve">
<g id="rond_blanc">
	<g>
		<path fill="#FFFFFF" d="M148.819,296.44c-81.399,0-147.623-66.223-147.623-147.621C1.197,67.42,67.42,1.197,148.819,1.197
			c81.398,0,147.621,66.223,147.621,147.623C296.44,230.218,230.218,296.44,148.819,296.44z"/>
		<path fill="#1A171B" d="M148.819,2.394c39.111,0,75.882,15.231,103.538,42.887c27.655,27.656,42.887,64.427,42.887,103.539
			c0,39.111-15.231,75.882-42.887,103.538c-27.656,27.655-64.427,42.887-103.538,42.887c-39.112,0-75.882-15.231-103.539-42.887
			C17.625,224.701,2.394,187.931,2.394,148.819c0-39.112,15.231-75.883,42.887-103.539C72.937,17.625,109.708,2.394,148.819,2.394
			 M148.819,0C66.628,0,0,66.628,0,148.819c0,82.189,66.628,148.818,148.819,148.818c82.189,0,148.818-66.629,148.818-148.818
			C297.638,66.628,231.009,0,148.819,0L148.819,0z"/>
	</g>
</g>
<g id="rond_rouge">
	<circle fill="none" stroke="#FF0000" stroke-width="43.0849" cx="148.819" cy="148.818" r="120.947"/>
</g>
<g id="_x34_4t">
	<g>
		<path d="M58.51,157.779l13.281-1.611c0.423,3.385,1.563,5.973,3.418,7.764s4.102,2.686,6.738,2.686
			c2.832,0,5.216-1.074,7.153-3.223c1.937-2.148,2.905-5.045,2.905-8.691c0-3.451-0.928-6.186-2.783-8.203s-4.118-3.027-6.787-3.027
			c-1.758,0-3.857,0.342-6.299,1.025l1.514-11.182c3.711,0.098,6.543-0.709,8.496-2.418s2.93-3.979,2.93-6.811
			c0-2.408-0.716-4.329-2.148-5.762c-1.433-1.432-3.337-2.148-5.713-2.148c-2.344,0-4.346,0.814-6.006,2.441
			c-1.66,1.628-2.669,4.004-3.027,7.129l-12.646-2.148c0.879-4.329,2.205-7.788,3.979-10.376c1.774-2.588,4.248-4.622,7.422-6.104
			c3.174-1.481,6.73-2.222,10.669-2.222c6.738,0,12.142,2.148,16.211,6.445c3.353,3.516,5.029,7.487,5.029,11.914
			c0,6.284-3.435,11.295-10.303,15.04c4.102,0.879,7.381,2.848,9.839,5.908c2.457,3.061,3.687,6.754,3.687,11.084
			c0,6.283-2.295,11.637-6.885,16.064s-10.303,6.641-17.139,6.641c-6.478,0-11.849-1.863-16.113-5.592
			C61.667,168.676,59.194,163.801,58.51,157.779z"/>
		<path d="M109.702,163.053h13.721v9.814c0,3.971-0.342,7.104-1.025,9.398s-1.978,4.354-3.882,6.178
			c-1.904,1.822-4.321,3.254-7.251,4.297l-2.686-5.664c2.767-0.912,4.736-2.166,5.908-3.76c1.172-1.596,1.79-3.777,1.855-6.543
			h-6.641V163.053z"/>
		<path d="M130.092,158.365l13.672-1.416c0.391,3.092,1.547,5.541,3.467,7.348s4.135,2.711,6.641,2.711
			c2.865,0,5.289-1.164,7.275-3.492c1.986-2.326,2.979-5.834,2.979-10.521c0-4.395-0.984-7.691-2.953-9.889
			c-1.971-2.197-4.533-3.295-7.691-3.295c-3.939,0-7.471,1.742-10.596,5.225l-11.133-1.611l7.031-37.256h36.279v12.842h-25.879
			l-2.148,12.159c3.061-1.529,6.186-2.295,9.375-2.295c6.088,0,11.246,2.213,15.479,6.641s6.348,10.172,6.348,17.236
			c0,5.893-1.709,11.148-5.127,15.771c-4.654,6.314-11.117,9.473-19.385,9.473c-6.607,0-11.996-1.773-16.162-5.322
			S130.906,164.355,130.092,158.365z"/>
		<path d="M238.004,124.917v10.938h-9.375v20.898c0,4.232,0.09,6.697,0.27,7.396c0.178,0.701,0.586,1.279,1.221,1.734
			s1.406,0.684,2.318,0.684c1.27,0,3.109-0.439,5.518-1.318l1.172,10.645c-3.189,1.367-6.803,2.051-10.84,2.051
			c-2.475,0-4.703-0.416-6.689-1.246s-3.441-1.904-4.369-3.223s-1.572-3.1-1.93-5.346c-0.293-1.596-0.439-4.818-0.439-9.668v-22.607
			h-6.299v-10.938h6.299v-10.303l13.77-8.008v18.311H238.004z"/>
	</g>
</g>
</svg>
