<?xml version="1.0" encoding="utf-8"?>
<!-- Generator: Adobe Illustrator 16.0.0, SVG Export Plug-In . SVG Version: 6.00 Build 0)  -->
<!DOCTYPE svg PUBLIC "-//W3C//DTD SVG 1.1//EN" "http://www.w3.org/Graphics/SVG/1.1/DTD/svg11.dtd">
<svg version="1.1" xmlns="http://www.w3.org/2000/svg" xmlns:xlink="http://www.w3.org/1999/xlink" x="0px" y="0px"
	 width="297.638px" height="297.638px" viewBox="0 0 297.638 297.638" enable-background="new 0 0 297.638 297.638"
	 xml:space="preserve">
<g id="rond_blanc">
	<g>
		<path fill="#FFFFFF" d="M148.819,296.44c-81.399,0-147.623-66.223-147.623-147.621C1.197,67.42,67.42,1.197,148.819,1.197
			c81.398,0,147.621,66.223,147.621,147.623C296.44,230.218,230.218,296.44,148.819,296.44z"/>
		<path fill="#1A171B" d="M148.819,2.394c39.111,0,75.882,15.231,103.538,42.887c27.655,27.656,42.887,64.427,42.887,103.539
			c0,39.111-15.231,75.882-42.887,103.538c-27.656,27.655-64.427,42.887-103.538,42.887c-39.112,0-75.882-15.231-103.539-42.887
			C17.625,224.701,2.394,187.931,2.394,148.819c0-39.112,15.231-75.883,42.887-103.539C72.937,17.625,109.708,2.394,148.819,2.394
			 M148.819,0C66.628,0,0,66.628,0,148.819c0,82.189,66.628,148.818,148.819,148.818c82.189,0,148.818-66.629,148.818-148.818
			C297.638,66.628,231.009,0,148.819,0L148.819,0z"/>
	</g>
</g>
<g id="rond_rouge">
	<circle fill="none" stroke="#FF0000" stroke-width="43.0849" cx="148.819" cy="148.818" r="120.947"/>
</g>
<g id="_x34_4t">
	<g>
		<path d="M60.004,118.277v-12.744h46.924v9.961c-3.874,3.809-7.813,9.277-11.816,16.407c-4.004,7.129-7.056,14.705-9.155,22.729
			c-2.1,8.025-3.133,15.195-3.101,21.51H69.624c0.228-9.896,2.271-19.986,6.128-30.273s9.009-19.482,15.454-27.588H60.004z"/>
		<path d="M108.208,162.418h13.721v9.814c0,3.971-0.342,7.104-1.025,9.398s-1.978,4.354-3.882,6.178
			c-1.904,1.822-4.321,3.254-7.251,4.297l-2.686-5.664c2.767-0.912,4.736-2.166,5.908-3.76c1.172-1.596,1.79-3.777,1.855-6.543
			h-6.641V162.418z"/>
		<path d="M128.598,157.73l13.672-1.416c0.391,3.092,1.547,5.541,3.467,7.348s4.135,2.711,6.641,2.711
			c2.865,0,5.289-1.164,7.275-3.492c1.986-2.326,2.979-5.834,2.979-10.521c0-4.395-0.984-7.691-2.953-9.889
			c-1.971-2.197-4.533-3.295-7.691-3.295c-3.939,0-7.471,1.742-10.596,5.225l-11.133-1.611l7.031-37.256h36.279v12.842h-25.879
			l-2.148,12.159c3.061-1.529,6.186-2.295,9.375-2.295c6.088,0,11.246,2.213,15.479,6.641s6.348,10.172,6.348,17.236
			c0,5.893-1.709,11.148-5.127,15.771c-4.654,6.314-11.117,9.473-19.385,9.473c-6.607,0-11.996-1.773-16.162-5.322
			S129.412,163.721,128.598,157.73z"/>
		<path d="M236.51,124.283v10.938h-9.375v20.898c0,4.232,0.09,6.697,0.27,7.396c0.178,0.701,0.586,1.279,1.221,1.734
			s1.406,0.684,2.318,0.684c1.27,0,3.109-0.439,5.518-1.318l1.172,10.645c-3.189,1.367-6.803,2.051-10.84,2.051
			c-2.475,0-4.703-0.416-6.689-1.246s-3.441-1.904-4.369-3.223s-1.572-3.1-1.93-5.346c-0.293-1.596-0.439-4.818-0.439-9.668v-22.607
			h-6.299v-10.938h6.299V113.98l13.77-8.008v18.311H236.51z"/>
	</g>
</g>
</svg>
