<?xml version="1.0" encoding="utf-8"?>
<!-- Generator: Adobe Illustrator 16.0.0, SVG Export Plug-In . SVG Version: 6.00 Build 0)  -->
<!DOCTYPE svg PUBLIC "-//W3C//DTD SVG 1.1//EN" "http://www.w3.org/Graphics/SVG/1.1/DTD/svg11.dtd">
<svg version="1.1" xmlns="http://www.w3.org/2000/svg" xmlns:xlink="http://www.w3.org/1999/xlink" x="0px" y="0px"
	 width="297.638px" height="297.638px" viewBox="0 0 297.638 297.638" enable-background="new 0 0 297.638 297.638"
	 xml:space="preserve">
<g id="rond_blanc">
	<g>
		<path fill="#FFFFFF" d="M148.819,296.44c-81.399,0-147.623-66.223-147.623-147.621C1.197,67.42,67.42,1.197,148.819,1.197
			c81.398,0,147.621,66.223,147.621,147.623C296.44,230.218,230.218,296.44,148.819,296.44z"/>
		<path fill="#1A171B" d="M148.819,2.394c39.111,0,75.882,15.231,103.538,42.887c27.655,27.656,42.887,64.427,42.887,103.539
			c0,39.111-15.231,75.882-42.887,103.538c-27.656,27.655-64.427,42.887-103.538,42.887c-39.112,0-75.882-15.231-103.539-42.887
			C17.625,224.701,2.394,187.931,2.394,148.819c0-39.112,15.231-75.883,42.887-103.539C72.937,17.625,109.708,2.394,148.819,2.394
			 M148.819,0C66.628,0,0,66.628,0,148.819c0,82.189,66.628,148.818,148.819,148.818c82.189,0,148.818-66.629,148.818-148.818
			C297.638,66.628,231.009,0,148.819,0L148.819,0z"/>
	</g>
</g>
<g id="rond_rouge">
	<circle fill="none" stroke="#FF0000" stroke-width="43.0849" cx="148.819" cy="148.818" r="120.947"/>
</g>
<g id="_x34_4t">
	<g>
		<path d="M114.113,171.402v12.744H66.017c0.521-4.818,2.083-9.383,4.688-13.697c2.604-4.313,7.747-10.033,15.43-17.162
			c6.185-5.762,9.977-9.668,11.377-11.719c1.888-2.832,2.832-5.631,2.832-8.398c0-3.061-0.822-5.412-2.466-7.057
			c-1.644-1.643-3.915-2.465-6.812-2.465c-2.865,0-5.144,0.863-6.836,2.588c-1.693,1.725-2.669,4.59-2.93,8.594l-13.672-1.367
			c0.813-7.552,3.369-12.972,7.666-16.26c4.297-3.288,9.668-4.932,16.113-4.932c7.063,0,12.614,1.904,16.65,5.713
			c4.036,3.809,6.055,8.545,6.055,14.209c0,3.223-0.578,6.291-1.733,9.203c-1.156,2.914-2.987,5.967-5.493,9.156
			c-1.66,2.115-4.655,5.16-8.984,9.131c-4.33,3.971-7.072,6.607-8.228,7.91c-1.156,1.303-2.092,2.572-2.808,3.809H114.113z"/>
		<path d="M168.875,130.094l-13.281,1.465c-0.326-2.734-1.172-4.752-2.539-6.055c-1.367-1.302-3.143-1.953-5.322-1.953
			c-2.898,0-5.348,1.302-7.35,3.907c-2.002,2.604-3.264,8.023-3.783,16.26c3.418-4.037,7.666-6.055,12.744-6.055
			c5.729,0,10.635,2.182,14.721,6.543s6.129,9.994,6.129,16.895c0,7.324-2.148,13.199-6.445,17.627s-9.814,6.641-16.553,6.641
			c-7.227,0-13.168-2.809-17.822-8.424c-4.656-5.615-6.983-14.818-6.983-27.611c0-13.119,2.425-22.574,7.276-28.37
			c4.85-5.794,11.148-8.691,18.896-8.691c5.436,0,9.936,1.522,13.5,4.565C165.627,119.88,167.898,124.299,168.875,130.094z
			 M137.771,160.025c0,4.459,1.025,7.902,3.076,10.326c2.051,2.426,4.395,3.639,7.031,3.639c2.539,0,4.654-0.992,6.348-2.979
			c1.691-1.986,2.539-5.24,2.539-9.766c0-4.654-0.912-8.064-2.734-10.23c-1.824-2.164-4.102-3.246-6.836-3.246
			c-2.637,0-4.867,1.033-6.689,3.1C138.682,152.938,137.771,155.988,137.771,160.025z"/>
		<path d="M230.498,132.291v10.938h-9.375v20.898c0,4.232,0.088,6.697,0.268,7.396c0.18,0.701,0.586,1.279,1.221,1.734
			s1.408,0.684,2.32,0.684c1.27,0,3.107-0.439,5.518-1.318l1.172,10.645c-3.191,1.367-6.805,2.051-10.84,2.051
			c-2.475,0-4.705-0.416-6.689-1.246c-1.986-0.83-3.443-1.904-4.371-3.223s-1.57-3.1-1.928-5.346
			c-0.293-1.596-0.439-4.818-0.439-9.668v-22.607h-6.299v-10.938h6.299v-10.303l13.77-8.008v18.311H230.498z"/>
	</g>
</g>
</svg>
