<?xml version="1.0" encoding="utf-8"?>
<!-- Generator: Adobe Illustrator 16.0.0, SVG Export Plug-In . SVG Version: 6.00 Build 0)  -->
<!DOCTYPE svg PUBLIC "-//W3C//DTD SVG 1.1//EN" "http://www.w3.org/Graphics/SVG/1.1/DTD/svg11.dtd">
<svg version="1.1" xmlns="http://www.w3.org/2000/svg" xmlns:xlink="http://www.w3.org/1999/xlink" x="0px" y="0px"
	 width="297.638px" height="297.638px" viewBox="0 0 297.638 297.638" enable-background="new 0 0 297.638 297.638"
	 xml:space="preserve">
<g id="rond_blanc">
	<g>
		<path fill="#FFFFFF" d="M148.819,296.44c-81.399,0-147.623-66.223-147.623-147.621C1.197,67.42,67.42,1.197,148.819,1.197
			c81.398,0,147.621,66.223,147.621,147.623C296.44,230.218,230.218,296.44,148.819,296.44z"/>
		<path fill="#1A171B" d="M148.819,2.394c39.111,0,75.882,15.231,103.538,42.887c27.655,27.656,42.887,64.427,42.887,103.539
			c0,39.111-15.231,75.882-42.887,103.538c-27.656,27.655-64.427,42.887-103.538,42.887c-39.112,0-75.882-15.231-103.539-42.887
			C17.625,224.701,2.394,187.931,2.394,148.819c0-39.112,15.231-75.883,42.887-103.539C72.937,17.625,109.708,2.394,148.819,2.394
			 M148.819,0C66.628,0,0,66.628,0,148.819c0,82.189,66.628,148.818,148.819,148.818c82.189,0,148.818-66.629,148.818-148.818
			C297.638,66.628,231.009,0,148.819,0L148.819,0z"/>
	</g>
</g>
<g id="rond_rouge">
	<circle fill="none" stroke="#FF0000" stroke-width="43.0849" cx="148.819" cy="148.818" r="120.947"/>
</g>
<g id="_x34_4t">
	<g>
		<path d="M100.172,184.146H86.452v-51.709c-5.013,4.688-10.921,8.154-17.725,10.4v-12.451c3.581-1.172,7.471-3.395,11.67-6.666
			c4.199-3.271,7.08-7.088,8.643-11.45h11.133V184.146z"/>
		<path d="M119.192,165.152l13.281-1.611c0.424,3.385,1.563,5.973,3.418,7.764s4.102,2.686,6.738,2.686
			c2.832,0,5.217-1.074,7.154-3.223c1.936-2.148,2.904-5.045,2.904-8.691c0-3.451-0.928-6.186-2.783-8.203s-4.117-3.027-6.787-3.027
			c-1.758,0-3.857,0.342-6.299,1.025l1.514-11.182c3.711,0.098,6.543-0.709,8.496-2.418s2.93-3.979,2.93-6.811
			c0-2.408-0.717-4.33-2.148-5.762s-3.336-2.148-5.713-2.148c-2.344,0-4.346,0.814-6.006,2.441s-2.67,4.004-3.027,7.129
			l-12.646-2.148c0.879-4.33,2.205-7.789,3.979-10.376c1.773-2.588,4.249-4.622,7.422-6.104c3.174-1.481,6.729-2.222,10.668-2.222
			c6.738,0,12.143,2.148,16.211,6.445c3.354,3.516,5.029,7.487,5.029,11.915c0,6.283-3.434,11.295-10.303,15.039
			c4.102,0.879,7.381,2.848,9.84,5.908c2.457,3.061,3.686,6.754,3.686,11.084c0,6.283-2.295,11.637-6.885,16.064
			s-10.303,6.641-17.139,6.641c-6.479,0-11.85-1.863-16.113-5.592C122.349,176.049,119.875,171.174,119.192,165.152z"/>
		<path d="M227.787,132.291v10.938h-9.375v20.898c0,4.232,0.09,6.697,0.27,7.396c0.178,0.701,0.586,1.279,1.221,1.734
			s1.406,0.684,2.318,0.684c1.27,0,3.109-0.439,5.518-1.318l1.172,10.645c-3.189,1.367-6.803,2.051-10.84,2.051
			c-2.475,0-4.703-0.416-6.689-1.246s-3.441-1.904-4.369-3.223s-1.572-3.1-1.93-5.346c-0.293-1.596-0.439-4.818-0.439-9.668v-22.607
			h-6.299v-10.938h6.299v-10.303l13.77-8.008v18.311H227.787z"/>
	</g>
</g>
</svg>
