<?xml version="1.0" encoding="utf-8"?>
<!-- Generator: Adobe Illustrator 16.0.0, SVG Export Plug-In . SVG Version: 6.00 Build 0)  -->
<!DOCTYPE svg PUBLIC "-//W3C//DTD SVG 1.1//EN" "http://www.w3.org/Graphics/SVG/1.1/DTD/svg11.dtd">
<svg version="1.1" xmlns="http://www.w3.org/2000/svg" xmlns:xlink="http://www.w3.org/1999/xlink" x="0px" y="0px"
	 width="297.638px" height="297.638px" viewBox="0 0 297.638 297.638" enable-background="new 0 0 297.638 297.638"
	 xml:space="preserve">
<g id="rond_blanc">
	<g>
		<path fill="#FFFFFF" d="M148.819,296.44c-81.399,0-147.623-66.223-147.623-147.621C1.197,67.42,67.42,1.197,148.819,1.197
			c81.398,0,147.621,66.223,147.621,147.623C296.44,230.218,230.218,296.44,148.819,296.44z"/>
		<path fill="#1A171B" d="M148.819,2.394c39.111,0,75.882,15.231,103.538,42.887c27.655,27.656,42.887,64.427,42.887,103.539
			c0,39.111-15.231,75.882-42.887,103.538c-27.656,27.655-64.427,42.887-103.538,42.887c-39.112,0-75.882-15.231-103.539-42.887
			C17.625,224.701,2.394,187.931,2.394,148.819c0-39.112,15.231-75.883,42.887-103.539C72.937,17.625,109.708,2.394,148.819,2.394
			 M148.819,0C66.628,0,0,66.628,0,148.819c0,82.189,66.628,148.818,148.819,148.818c82.189,0,148.818-66.629,148.818-148.818
			C297.638,66.628,231.009,0,148.819,0L148.819,0z"/>
	</g>
</g>
<g id="rond_rouge">
	<circle fill="none" stroke="#FF0000" stroke-width="43.0849" cx="148.819" cy="148.818" r="120.947"/>
</g>
<g id="Vitesse">
	<g>
		<path d="M75.679,173.117l19.635-2.033c0.562,4.442,2.22,7.959,4.979,10.554s5.937,3.892,9.537,3.892
			c4.113,0,7.597-1.671,10.449-5.014c2.851-3.342,4.277-8.38,4.277-15.112c0-6.311-1.414-11.044-4.242-14.2
			c-2.829-3.155-6.511-4.733-11.045-4.733c-5.657,0-10.729,2.502-15.217,7.504l-15.989-2.314l10.099-53.506h52.103v18.443h-37.166
			l-3.086,17.461c4.394-2.196,8.882-3.296,13.464-3.296c8.742,0,16.152,3.18,22.229,9.537c6.077,6.358,9.116,14.61,9.116,24.754
			c0,8.463-2.454,16.013-7.363,22.65c-6.686,9.07-15.965,13.604-27.839,13.604c-9.491,0-17.228-2.547-23.212-7.644
			C80.423,188.569,76.847,181.72,75.679,173.117z"/>
		<path d="M188.579,96.33c9.958,0,17.742,3.554,23.352,10.659c6.686,8.415,10.028,22.37,10.028,41.865
			c0,19.448-3.366,33.427-10.099,41.935c-5.563,7.013-13.323,10.519-23.281,10.519c-10.005,0-18.069-3.845-24.193-11.535
			c-6.125-7.689-9.187-21.399-9.187-41.129c0-19.354,3.366-33.285,10.099-41.795C170.86,99.837,178.621,96.33,188.579,96.33z
			 M188.579,112.67c-2.384,0-4.512,0.76-6.381,2.278c-1.871,1.52-3.32,4.243-4.348,8.17c-1.357,5.097-2.034,13.675-2.034,25.736
			s0.607,20.348,1.823,24.859c1.215,4.512,2.746,7.516,4.594,9.011c1.846,1.497,3.962,2.244,6.346,2.244
			c2.385,0,4.511-0.76,6.382-2.279c1.869-1.519,3.318-4.242,4.348-8.169c1.355-5.05,2.033-13.604,2.033-25.666
			s-0.607-20.348-1.823-24.859s-2.747-7.527-4.593-9.047C193.078,113.43,190.964,112.67,188.579,112.67z"/>
	</g>
</g>
</svg>
