<?xml version="1.0" encoding="utf-8"?>
<!-- Generator: Adobe Illustrator 16.0.0, SVG Export Plug-In . SVG Version: 6.00 Build 0)  -->
<!DOCTYPE svg PUBLIC "-//W3C//DTD SVG 1.1//EN" "http://www.w3.org/Graphics/SVG/1.1/DTD/svg11.dtd">
<svg version="1.1" xmlns="http://www.w3.org/2000/svg" xmlns:xlink="http://www.w3.org/1999/xlink" x="0px" y="0px"
	 width="297.638px" height="297.638px" viewBox="0 0 297.638 297.638" enable-background="new 0 0 297.638 297.638"
	 xml:space="preserve">
<g id="rond_blanc">
	<g>
		<path fill="#FFFFFF" d="M148.819,296.44c-81.399,0-147.623-66.223-147.623-147.621C1.197,67.42,67.42,1.197,148.819,1.197
			c81.398,0,147.621,66.223,147.621,147.623C296.44,230.218,230.218,296.44,148.819,296.44z"/>
		<path fill="#1A171B" d="M148.819,2.394c39.111,0,75.882,15.231,103.538,42.887c27.655,27.656,42.887,64.427,42.887,103.539
			c0,39.111-15.231,75.882-42.887,103.538c-27.656,27.655-64.427,42.887-103.538,42.887c-39.112,0-75.882-15.231-103.539-42.887
			C17.625,224.701,2.394,187.931,2.394,148.819c0-39.112,15.231-75.883,42.887-103.539C72.937,17.625,109.708,2.394,148.819,2.394
			 M148.819,0C66.628,0,0,66.628,0,148.819c0,82.189,66.628,148.818,148.819,148.818c82.189,0,148.818-66.629,148.818-148.818
			C297.638,66.628,231.009,0,148.819,0L148.819,0z"/>
	</g>
</g>
<g id="rond_rouge">
	<circle fill="none" stroke="#FF0000" stroke-width="43.0849" cx="148.819" cy="148.818" r="120.947"/>
</g>
<g id="Calque_4">
	<path d="M91.589,79.105h27.526v67.819c0,0,15.758,0,19.348,0c3.99,0,5.784,4.987,3.591,9.374
		c-2.194,4.391-31.918,55.119-33.062,56.949c-1.496,2.394-2.443,5.285-3.64,5.285s-2.395-3.19-3.99-5.783
		c-1.595-2.595-30.848-53.976-32.313-56.451c-2.244-3.789-0.449-9.474,3.59-9.375c2.592,0.064,18.949,0,18.949,0L91.589,79.105z"/>
	<path fill="#FF0000" d="M197.156,219.572l-18.514-0.01l0.038-95.196c0,0-10.598-0.004-13.013-0.007
		c-2.681-0.002-3.886-0.885-2.408-5.33c1.479-4.447,19.048-33.069,20.009-34.831c1.347-2.469,3.684-6.134,4.488-6.134
		c0.804,0,3.142,3.516,4.487,6.082c1.318,2.514,19.131,32.4,20.113,34.909c1.509,3.841,0.298,5.429-2.419,5.327
		c-1.742-0.065-12.743-0.007-12.743-0.007L197.156,219.572z"/>
</g>
</svg>
