<?xml version="1.0" encoding="utf-8"?>
<!-- Generator: Adobe Illustrator 16.0.0, SVG Export Plug-In . SVG Version: 6.00 Build 0)  -->
<!DOCTYPE svg PUBLIC "-//W3C//DTD SVG 1.1//EN" "http://www.w3.org/Graphics/SVG/1.1/DTD/svg11.dtd">
<svg version="1.1" xmlns="http://www.w3.org/2000/svg" xmlns:xlink="http://www.w3.org/1999/xlink" x="0px" y="0px"
	 width="297.638px" height="297.649px" viewBox="0 0 297.638 297.649" enable-background="new 0 0 297.638 297.649"
	 xml:space="preserve">
<g id="fond_blanc">
	<g>
		<path fill="#FFFFFF" d="M148.819,295.229c-80.725,0-146.399-65.68-146.399-146.41C2.42,68.095,68.095,2.42,148.819,2.42
			s146.398,65.675,146.398,146.399C295.218,229.55,229.544,295.229,148.819,295.229z"/>
		<path fill="#231F20" d="M148.819,4.84c38.457,0,74.613,14.978,101.808,42.173s42.171,63.351,42.171,101.807
			c0,38.459-14.977,74.617-42.171,101.814s-63.351,42.176-101.808,42.176c-38.455,0-74.61-14.979-101.807-42.176
			C19.817,223.436,4.84,187.277,4.84,148.819c0-38.455,14.978-74.611,42.173-101.807S110.364,4.84,148.819,4.84 M148.819,0
			C66.635,0,0,66.635,0,148.819c0,82.189,66.635,148.83,148.819,148.83c82.189,0,148.818-66.641,148.818-148.83
			C297.638,66.635,231.009,0,148.819,0L148.819,0z"/>
	</g>
</g>
<g id="fond_bleu">
	<circle fill="#0000FE" cx="148.063" cy="147.307" r="127.042"/>
</g>
<g id="pneu">
	<path fill="#FFFFFF" d="M67.657,182.092c10.078,49.413,44.864,75.124,89.74,71.083s75.112-57.471,75.112-101.833
		c0-44.368-19.153-104.356-86.716-104.858C76.224,45.963,55.705,123.51,67.657,182.092z"/>
</g>
<g id="centre_pneu">
	<path fill="none" stroke="#0000EF" stroke-width="2.4199" d="M168.988,45.473c-14.622,2.522-64.248,30.757-65.542,90.236
		c-1.512,69.577,26.976,110.412,61.253,114.949"/>
	<path fill="none" stroke="#0000EF" stroke-width="2.4199" d="M158.897,87.566c3.959-3.687,13.624-6.558,19.922-3.279
		c6.298,3.279,27.802,19.089,27.223,63.775c-0.508,39.323-15.324,68.566-32.021,68.566c-4.537,0-13.092-2.517-16.128-8.318"/>
	<path fill="#0000FE" d="M158.909,86.81c-4.041,0-21.682,25.215-21.682,64.03c0,38.814,18.657,59.491,21.682,59.491
		c3.025,0,20.666-29.255,20.666-66.05C179.575,107.481,158.909,86.81,158.909,86.81z"/>
</g>
<g id="fond_blanc_chaine">
	<path fill="none" stroke="#FFFFFF" stroke-width="3.6298" d="M100.924,64.88c-0.945,0.567-6.174-1.701-8.442,0.378
		c-2.269,2.08-6.05,6.428-6.806,7.563c-0.756,1.134,3.905,6.936-1.323,9.264"/>
	<path fill="none" stroke="#FFFFFF" stroke-width="3.6298" d="M74.711,105.904c-1.323,1.134-6.239,3.592-6.806,5.104
		c-0.567,1.513-1.135,7.94-1.135,9.83c0,1.561,0.756,5.104,1.701,7.185"/>
	<path fill="none" stroke="#FFFFFF" stroke-width="3.6298" d="M70.174,166.212c-0.945,0.756-4.727,5.86-4.727,7.751
		s0,6.995,0.567,8.129c0.566,1.135,4.726,5.294,7.184,6.617"/>
	<path fill="none" stroke="#FFFFFF" stroke-width="3.6298" d="M82.462,209.504c0.756,2.08,0.567,9.642,1.134,12.667
		c0.349,1.855,3.214,7.184,5.104,8.318c1.891,1.134,8.508,1.701,11.532,1.513"/>
	<path fill="none" stroke="#FFFFFF" stroke-width="4.8397" d="M119.894,52.97c1.324-0.945,6.274-3.929,8.13-4.348
		c4.159-0.945,39.322-1.135,40.457-0.945c1.134,0.188,7.503,1.01,8.826,2.333s0.626,8.384,1.761,10.085"/>
	<path fill="none" stroke="#FFFFFF" stroke-width="4.8397" d="M200.501,75.721c2.079,0.378,6.356-3.656,7.869-2.9
		s3.911,3.527,4.479,5.984c0.566,2.458-1.761,7.125-1.761,9.016"/>
	<path fill="none" stroke="#FFFFFF" stroke-width="3.6298" d="M219.654,111.263c1.512,0.189,8.637,1.513,10.339,3.781
		c1.701,2.269,2.327,5.984,1.76,8.82c-0.566,2.836-7.184,4.537-8.317,5.293"/>
	<path fill="none" stroke="#FFFFFF" stroke-width="4.8397" d="M226.46,172.77c1.265,3.532,4.537,1.761,4.029,4.785
		s-0.496,4.029-2.269,6.806c-1.772,2.777-4.029,0.508-6.05,1.513"/>
	<path fill="none" stroke="#FFFFFF" stroke-width="3.6298" d="M211.076,211.076c0.26,1.264,2.776,7.302,1.772,9.074
		c-1.005,1.772-4.041,5.045-5.802,5.802c-1.761,0.756-8.07-2.021-8.07-2.021"/>
	<path fill="none" stroke="#FFFFFF" stroke-width="3.6298" d="M178.311,244.101c0,0-1.748,6.558-3.521,7.314
		c-1.772,0.756-21.682,1.772-23.194,2.021s-26.468-0.757-28.233-1.513c-1.767-0.756-4.283-7.563-4.537-8.318"/>
</g>
<g id="chaine">
	<path fill="none" stroke="#0000FE" stroke-width="4.8397" d="M126.511,49.945c6.788-2.629,39.039-2.228,43.104-0.945"/>
	<path fill="none" stroke="#0000FE" stroke-width="4.8397" d="M169.992,251.415c-1.76-1.513-38.814,1.76-46.63-1.265"/>
	<path fill="none" stroke="#0000FE" stroke-width="4.8397" d="M166.648,70.422c0,0-19.59,9.83-22.615,13.865"/>
	<path fill="none" stroke="#0000FE" stroke-width="4.8397" d="M138.988,90.845c-1.761,3.025-10.085,20.158-11.343,25.96"/>
	<path fill="none" stroke="#0000FE" stroke-width="4.8397" d="M124.874,127.391c-0.756,5.548-1.258,36.541-0.756,39.825"/>
	<path fill="none" stroke="#0000FE" stroke-width="4.8397" d="M125.631,178.571c1.258,4.276,8.324,24.954,10.841,27.471"/>
	<path fill="none" stroke="#0000FE" stroke-width="4.8397" d="M143.023,215.365c3.278,4.041,18.651,12.347,22.432,12.855"/>
	<path fill="none" stroke="#0000FE" stroke-width="4.8397" d="M175.038,228.729c5.293-1.004,20.417-11.852,23.442-15.384"/>
	<path fill="none" stroke="#0000FE" stroke-width="4.8397" d="M203.266,208.051c2.528-4.785,8.318-22.166,9.831-29.479"/>
	<path fill="none" stroke="#0000FE" stroke-width="4.8397" d="M216.133,168.988c1.253-5.554,0.426-37.06-0.579-40.587"/>
	<path fill="none" stroke="#0000FE" stroke-width="4.8397" d="M214.798,120.083c-1.253-4.537-9.57-26.461-12.348-28.983"/>
	<path fill="none" stroke="#0000FE" stroke-width="4.8397" d="M198.669,84.287c-2.517-3.272-17.9-11.851-21.93-13.109"/>
	<path fill="none" stroke="#0000FE" stroke-width="3.6298" d="M68.851,111.009c-1.005,0.756-2.145,9.582-1.135,10.587
		c1.011,1.004,7.875-0.757,8.886-1.513c1.01-0.756,1.394-7.302,0.13-8.566C75.467,110.252,69.854,110.252,68.851,111.009z"/>
	<path fill="none" stroke="#0000FE" stroke-width="3.6298" d="M87.318,110.004c-0.893,1.761-1.767,6.801-1.011,7.811
		c0.757,1.011,9.577,0.567,10.333,0c1.855-1.395,3.527-6.298,1.513-7.811C96.139,108.492,87.826,109,87.318,110.004z"/>
	<path fill="none" stroke="#0000FE" stroke-width="3.6298" d="M107.983,111.009c1.956-1.117,5.796-0.254,6.807,1.513
		c1.01,1.766,0.508,8.063-1.005,9.074c-1.513,1.01-6.812,0-8.07-1.513C104.457,118.57,106.224,112.013,107.983,111.009z"/>
	<path fill="none" stroke="#0000FE" stroke-width="3.6298" d="M123.616,117.059c1.819-0.904,5.541,0.254,6.298,1.767
		c0.756,1.512,0.006,6.806-1.005,7.562c-1.01,0.756-5.795,1.767-6.806,0.254C121.094,125.128,122.605,117.561,123.616,117.059z"/>
	<path fill="none" stroke="#0000FE" stroke-width="3.6298" d="M92.859,65.825c-1.146,1.146-7.054,7.627-6.552,8.384
		c0.502,0.756,9.134,1.825,10.145,1.069c1.01-0.757,4.224-7.314,3.214-8.318C98.655,65.955,93.368,65.317,92.859,65.825z"/>
	<path fill="none" stroke="#0000FE" stroke-width="3.6298" d="M108.492,67.905c-1.424,1.134-2.777,6.304-2.021,7.06
		c0.756,0.756,7.308,0.756,8.318,0c1.01-0.756,4.283-5.802,3.78-7.06C118.068,66.646,109.756,66.895,108.492,67.905z"/>
	<path fill="none" stroke="#0000FE" stroke-width="3.6298" d="M128.779,71.686c-1.046,0.42-5.169,4.041-4.915,5.046
		c0.254,1.004,5.802,5.795,7.06,5.039c1.259-0.756,4.785-5.293,4.283-6.806S130.038,71.184,128.779,71.686z"/>
	<path fill="none" stroke="#0000FE" stroke-width="3.6298" d="M136.472,86.81c-0.16,0.78,5.293,5.04,6.05,4.538
		c0.756-0.503,3.78-4.786,3.78-5.796c0-1.011-2.776-4.791-4.035-4.537C141.009,81.269,136.726,85.546,136.472,86.81z"/>
	<path fill="none" stroke="#0000FE" stroke-width="3.6298" d="M66.393,173.773c-0.78,0.98-0.254,7.881,0.756,8.886
		c1.011,1.004,6.806,0.945,7.563,0.188c0.756-0.756,0.75-8.058-0.254-8.565C73.452,173.773,67.396,172.51,66.393,173.773z"/>
	<path fill="none" stroke="#0000FE" stroke-width="3.6298" d="M85.552,176.799c-1.294,0.969-0.508,7.313,0.248,8.069
		c0.756,0.757,10.587-0.248,10.587-0.248s-0.248-6.049-1.004-7.313C94.626,176.042,86.562,176.042,85.552,176.799z"/>
	<path fill="none" stroke="#0000FE" stroke-width="3.6298" d="M107.228,176.799c-0.939,1.56,0.254,7.821,1.767,8.826
		c1.513,1.004,5.045-1.017,6.05-2.021c1.004-1.005,0.508-6.806-0.757-8.318C113.023,173.773,107.983,175.546,107.228,176.799z"/>
	<path fill="none" stroke="#0000FE" stroke-width="3.6298" d="M120.337,170.241c1.141-1.135,6.056-2.529,7.061-1.513
		c1.004,1.016,1.004,8.059,0.248,9.074c-0.757,1.017-4.538,2.776-5.796,2.021C120.591,179.067,119.581,170.997,120.337,170.241z"/>
	<path fill="none" stroke="#0000FE" stroke-width="3.6298" d="M84.541,219.902c-0.963,1.3,2.394,8.259,4.159,9.264
		c1.767,1.004,5.229,1.004,6.239,0c1.01-1.005-0.567-9.004-1.323-9.76C92.859,218.649,85.298,218.886,84.541,219.902z"/>
	<path fill="none" stroke="#0000FE" stroke-width="3.6298" d="M104.457,221.415c-1.205,1.796,0.496,7.054,1.761,7.562
		c1.264,0.508,9.582,0.26,10.338-0.496c0.757-0.756-1.512-7.314-3.024-8.07S104.965,220.658,104.457,221.415z"/>
	<path fill="none" stroke="#0000FE" stroke-width="3.6298" d="M124.118,218.26c-1.353,1.689,0,6.05,2.646,7.184
		c1.306,0.556,5.548-1.252,6.552-2.517c1.005-1.264-3.024-6.806-4.537-7.562C128.779,215.365,125.128,216.995,124.118,218.26z"/>
	<path fill="none" stroke="#0000FE" stroke-width="3.6298" d="M135.207,208.311c-0.773,1.028,3.527,8.33,5.04,8.07
		c1.512-0.26,2.776-1.761,3.532-3.024c0.757-1.265-1.016-8.838-3.532-8.578C137.729,205.038,135.964,207.307,135.207,208.311z"/>
	<path fill="none" stroke="#0000FE" stroke-width="3.6298" d="M166.46,225.704c-1.714,1.287-1.265,5.789-0.757,7.054
		c0.509,1.265,8.579,1.772,8.827,0.508c0.248-1.264,2.021-6.05,0-7.313C172.51,224.688,167.464,224.947,166.46,225.704z"/>
	<path fill="none" stroke="#0000FE" stroke-width="3.6298" d="M166.46,242.589c-1.631,1.653-1.749,6.297-0.496,7.81
		c1.252,1.513,7.81,1.513,8.566,0c0.756-1.513,1.512-6.546,0-8.059C173.018,240.828,167.712,241.324,166.46,242.589z"/>
	<path fill="none" stroke="#0000FE" stroke-width="3.6298" d="M194.947,211.076c-0.638,1.642,3.025,4.785,4.537,4.785
		c1.513,0,5.554-4.029,5.046-5.542c-0.509-1.512-2.517-4.537-4.537-3.78C197.973,207.295,195.443,209.812,194.947,211.076z"/>
	<path fill="none" stroke="#0000FE" stroke-width="3.6298" d="M203.773,219.395c-1.063,1.405,2.269,4.549,3.025,5.553
		c0.756,1.005,6.085-4.95,5.541-6.31c-1.004-2.517-1.264-2.269-3.024-3.024C207.555,214.856,204.53,218.39,203.773,219.395z"/>
	<path fill="none" stroke="#0000FE" stroke-width="3.6298" d="M213.097,169.236c-1.997,1.205-2.505,7.326-2.009,8.578
		c0.496,1.253,8.472,1.761,7.562,1.761c-1.523,0,1.749-7.563,0.496-8.578C217.894,169.98,214.349,168.48,213.097,169.236z"/>
	<path fill="none" stroke="#0000FE" stroke-width="3.6298" d="M224.947,175.038c-1.382,0.827-2.776,6.794-2.021,7.81
		c0.757,1.017,4.041,2.27,5.294,1.513c1.252-0.756,3.532-7.054,2.269-8.318C229.225,174.778,226.212,174.282,224.947,175.038z"/>
	<path fill="none" stroke="#0000FE" stroke-width="3.6298" d="M212.021,121.094c-0.721,2.203-0.993,9.576,0.26,9.576
		c1.252,0,6.806-1.01,7.562-2.269c0.757-1.259,1.513-7.563,0-8.318C218.331,119.327,212.27,120.337,212.021,121.094z"/>
	<path fill="none" stroke="#0000FE" stroke-width="3.6298" d="M223.364,115.8c-0.686,1.052,0,8.064,1.513,8.82
		c1.512,0.757,6.05-0.502,6.05-1.513c0-1.01-0.06-7.184-1.95-8.696C227.582,113.301,223.86,115.044,223.364,115.8z"/>
	<path fill="none" stroke="#0000FE" stroke-width="3.6298" d="M196.897,86.556c0,1.04,3.036,7.568,4.041,7.314
		c1.004-0.254,5.942-4.939,4.537-5.548c0.437,0.189-3.593-6.504-4.289-6.304C199.426,82.526,196.897,85.292,196.897,86.556z"/>
	<path fill="none" stroke="#0000FE" stroke-width="3.6298" d="M204.53,78.557c0,1.259,3.272,6.05,4.785,5.796
		s3.533-4.035,3.533-5.548s-3.273-6.298-4.538-5.541C207.047,74.02,204.53,77.801,204.53,78.557z"/>
	<path fill="none" stroke="#0000FE" stroke-width="3.6298" d="M167.405,65.637c-0.91,0.555-1.501,7.562-0.496,8.063
		c1.004,0.503,7.81,0.757,8.566,0c0.756-0.756,0.248-6.806,0-7.562C175.227,65.382,168.657,64.88,167.405,65.637z"/>
	<path fill="none" stroke="#0000FE" stroke-width="3.6298" d="M168.858,48.746c-0.969,0.803-1.193,7.124-0.189,7.627
		c1.005,0.502,6.239,1.447,7.243,0.691c1.005-0.757,2.257-6.807,0.248-7.563S170.371,47.487,168.858,48.746z"/>
	<path fill="none" stroke="#0000FE" stroke-width="4.8397" d="M97.396,70.676c1.011,0.254,8.318,1.01,8.318,1.01"/>
	<path fill="none" stroke="#0000FE" stroke-width="4.8397" d="M117.313,71.94c1.258,0,9.198,2.014,9.198,2.014"/>
	<line fill="none" stroke="#0000FE" stroke-width="4.8397" x1="134.203" y1="79.248" x2="139.242" y2="83.785"/>
	<line fill="none" stroke="#0000FE" stroke-width="4.8397" x1="77.487" y1="115.546" x2="86.562" y2="114.287"/>
	<line fill="none" stroke="#0000FE" stroke-width="4.8397" x1="98.909" y1="113.779" x2="105.467" y2="115.044"/>
	<path fill="none" stroke="#0000FE" stroke-width="4.8397" d="M115.298,117.561c1.004,0,7.562,3.533,7.562,3.533"/>
	<line fill="none" stroke="#0000FE" stroke-width="4.8397" x1="75.721" y1="179.575" x2="85.552" y2="180.579"/>
	<line fill="none" stroke="#0000FE" stroke-width="4.8397" x1="97.148" y1="181.088" x2="106.979" y2="179.823"/>
	<line fill="none" stroke="#0000FE" stroke-width="4.8397" x1="116.556" y1="177.803" x2="120.337" y2="176.29"/>
	<path fill="none" stroke="#0000FE" stroke-width="4.8397" d="M95.128,225.195c1.011,0.509,9.329-0.248,9.329-0.248"/>
	<path fill="none" stroke="#0000FE" stroke-width="4.8397" d="M116.811,224.439c0.756-0.496,6.806-3.273,6.806-3.273"/>
	<line fill="none" stroke="#0000FE" stroke-width="4.8397" x1="132.69" y1="217.138" x2="136.974" y2="213.097"/>
	<line fill="none" stroke="#0000FE" stroke-width="4.8397" x1="169.496" y1="241.336" x2="170.749" y2="234.271"/>
	<line fill="none" stroke="#0000FE" stroke-width="4.8397" x1="205.546" y1="217.634" x2="203.525" y2="214.856"/>
	<line fill="none" stroke="#0000FE" stroke-width="4.8397" x1="223.436" y1="178.063" x2="219.654" y2="176.29"/>
	<line fill="none" stroke="#0000FE" stroke-width="4.8397" x1="205.534" y1="81.582" x2="203.455" y2="84.796"/>
	<path fill="none" stroke="#0000FE" stroke-width="4.8397" d="M171.883,58.576c-0.248,1.011-0.188,7.816-0.188,7.816"/>
</g>
</svg>
