<?xml version="1.0" encoding="utf-8"?>
<!-- Generator: Adobe Illustrator 16.0.0, SVG Export Plug-In . SVG Version: 6.00 Build 0)  -->
<!DOCTYPE svg PUBLIC "-//W3C//DTD SVG 1.1//EN" "http://www.w3.org/Graphics/SVG/1.1/DTD/svg11.dtd">
<svg version="1.1" xmlns="http://www.w3.org/2000/svg" xmlns:xlink="http://www.w3.org/1999/xlink" x="0px" y="0px"
	 width="297.638px" height="359.354px" viewBox="0 0 297.638 359.354" enable-background="new 0 0 297.638 359.354"
	 xml:space="preserve">
<g id="rond_blanc">
	<g>
		<path fill="#FFFFFF" d="M148.811,296.425c-81.395,0-147.614-66.22-147.614-147.614S67.416,1.197,148.811,1.197
			s147.614,66.219,147.614,147.614S230.205,296.425,148.811,296.425z"/>
		<path fill="#1A171B" d="M148.811,2.394c39.109,0,75.878,15.23,103.532,42.884c27.655,27.655,42.885,64.423,42.885,103.533
			s-15.229,75.878-42.885,103.532c-27.654,27.655-64.423,42.885-103.532,42.885s-75.878-15.229-103.533-42.885
			C17.624,224.688,2.394,187.92,2.394,148.811s15.23-75.878,42.884-103.533C72.933,17.624,109.701,2.394,148.811,2.394 M148.811,0
			C66.625,0,0,66.625,0,148.811c0,82.186,66.625,148.811,148.811,148.811c82.186,0,148.811-66.625,148.811-148.811
			C297.621,66.625,230.996,0,148.811,0L148.811,0z"/>
	</g>
</g>
<g id="rond_rouge">
	<circle fill="none" stroke="#FF0000" stroke-width="43.0825" cx="148.811" cy="148.81" r="120.94"/>
</g>
<g id="Calque_3">
	<path d="M71.358,171.05v7.721c0,0,12.624,0.105,13.25,0v-4.591c0,0,3.443-13.667,18.258-13.667s18.571,13.667,18.571,13.667v4.59
		h54.148v-4.59c0,0,3.965-13.667,18.884-13.667c14.92,0,18.467,13.667,18.467,13.667v4.59h12.312c0,0,0-75.326,0-73.657
		c0,1.669,0.052-3.756-3.13-3.756H109.23c0,0-3.443,1.043-3.443,3.86c0,2.818,0,16.171,0,16.171s-18.988,0-20.554,0
		c-1.565,0-3.13,2.817-3.443,4.487c-0.313,1.669-1.982,21.492-1.982,21.492s-1.043,0.104-1.878,0.104
		c-0.834,0-3.182,1.878-3.182,3.183s-0.052,20.396-0.052,20.396H71.358z"/>
	<circle cx="103.335" cy="178.823" r="16.328"/>
	<circle cx="194.521" cy="178.823" r="16.328"/>
	<path fill="#FFFFFF" d="M86.521,127.901c0,0-2.086,18.936-1.982,19.144c0.209,0.452,0.278,0.834,0.87,0.844
		c0.634,0.009,20.067,0,20.067,0s1.356-0.104,1.356-1.043c0-0.94,0-19.154,0-19.154s-0.209-1.46-1.566-1.46
		c-1.355,0-17.283,0-17.701,0C87.146,126.231,86.66,127.126,86.521,127.901z"/>
</g>
<g id="M4">
	<g>
		<path fill-rule="evenodd" clip-rule="evenodd" fill="#FFFFFF" d="M8.377,358.157c-3.959,0-7.18-3.222-7.18-7.181v-44.978
			c0-3.96,3.221-7.182,7.18-7.182h280.884c3.959,0,7.181,3.222,7.181,7.182v44.978c0,3.959-3.222,7.181-7.181,7.181H8.377z"/>
		<path d="M289.261,300.015c3.299,0,5.983,2.685,5.983,5.984v44.978c0,3.299-2.685,5.983-5.983,5.983H8.377
			c-3.299,0-5.983-2.685-5.983-5.983v-44.978c0-3.3,2.684-5.984,5.983-5.984H289.261 M289.261,297.621H8.377
			c-4.626,0-8.377,3.752-8.377,8.378v44.978c0,4.628,3.75,8.377,8.377,8.377h280.884c4.627,0,8.377-3.749,8.377-8.377v-44.978
			C297.638,301.373,293.888,297.621,289.261,297.621L289.261,297.621z"/>
	</g>
</g>
<g id="PL">
	<g>
		<path d="M100.551,311.783h17.161c3.737,0,6.537,0.889,8.398,2.665c1.86,1.778,2.792,4.308,2.792,7.59
			c0,3.372-1.015,6.009-3.042,7.907c-2.029,1.9-5.124,2.849-9.287,2.849h-5.652v12.397h-10.369V311.783z M110.92,326.025h2.53
			c1.99,0,3.388-0.344,4.193-1.035c0.805-0.692,1.208-1.576,1.208-2.655c0-1.05-0.349-1.938-1.048-2.667
			c-0.699-0.729-2.013-1.095-3.943-1.095h-2.94V326.025z"/>
		<path d="M124.936,335.894h9.913v9.298h-9.913V335.894z"/>
		<path d="M156.636,311.783h10.324v25.181h16.111v8.228h-26.436V311.783z"/>
		<path d="M187.174,335.894h9.912v9.298h-9.912V335.894z"/>
	</g>
</g>
</svg>
