<?xml version="1.0" encoding="utf-8"?>
<!-- Generator: Adobe Illustrator 16.0.0, SVG Export Plug-In . SVG Version: 6.00 Build 0)  -->
<!DOCTYPE svg PUBLIC "-//W3C//DTD SVG 1.1//EN" "http://www.w3.org/Graphics/SVG/1.1/DTD/svg11.dtd">
<svg version="1.1" xmlns="http://www.w3.org/2000/svg" xmlns:xlink="http://www.w3.org/1999/xlink" x="0px" y="0px"
	 width="297.638px" height="297.638px" viewBox="0 0 297.638 297.638" enable-background="new 0 0 297.638 297.638"
	 xml:space="preserve">
<g id="rond_blanc">
	<g>
		<path fill="#FFFFFF" d="M148.819,296.44c-81.399,0-147.623-66.223-147.623-147.621C1.197,67.42,67.42,1.197,148.819,1.197
			c81.398,0,147.621,66.223,147.621,147.623C296.44,230.218,230.218,296.44,148.819,296.44z"/>
		<path fill="#1A171B" d="M148.819,2.394c39.111,0,75.882,15.231,103.538,42.887c27.655,27.656,42.887,64.427,42.887,103.539
			c0,39.111-15.231,75.882-42.887,103.538c-27.656,27.655-64.427,42.887-103.538,42.887c-39.112,0-75.882-15.231-103.539-42.887
			C17.625,224.701,2.394,187.931,2.394,148.819c0-39.112,15.231-75.883,42.887-103.539C72.937,17.625,109.708,2.394,148.819,2.394
			 M148.819,0C66.628,0,0,66.628,0,148.819c0,82.189,66.628,148.818,148.819,148.818c82.189,0,148.818-66.629,148.818-148.818
			C297.638,66.628,231.009,0,148.819,0L148.819,0z"/>
	</g>
</g>
<g id="rond_rouge">
	<circle fill="none" stroke="#FF0000" stroke-width="43.0849" cx="148.819" cy="148.818" r="120.947"/>
</g>
<g id="Calque_3">
	<path d="M68.968,168.666v7.721c0,0,12.624,0.105,13.25,0v-4.591c0,0,3.444-13.667,18.259-13.667
		c14.816,0,18.572,13.667,18.572,13.667v4.59h54.151v-4.59c0,0,3.965-13.667,18.885-13.667c14.921,0,18.468,13.667,18.468,13.667
		v4.59h12.313c0,0,0-75.33,0-73.661c0,1.669,0.051-3.756-3.131-3.756H106.843c0,0-3.443,1.043-3.443,3.86c0,2.818,0,16.172,0,16.172
		s-18.989,0-20.555,0c-1.565,0-3.13,2.817-3.443,4.488c-0.313,1.669-1.982,21.493-1.982,21.493s-1.043,0.104-1.878,0.104
		c-0.834,0-3.182,1.879-3.182,3.183c0,1.305-0.053,20.398-0.053,20.398H68.968z"/>
	<circle cx="100.947" cy="176.439" r="16.329"/>
	<circle cx="192.138" cy="176.439" r="16.329"/>
	<path fill="#FFFFFF" d="M84.131,125.515c0,0-2.085,18.938-1.982,19.146c0.209,0.451,0.278,0.834,0.869,0.844
		c0.634,0.009,20.068,0,20.068,0s1.356-0.104,1.356-1.044s0-19.155,0-19.155s-0.209-1.46-1.566-1.46c-1.355,0-17.284,0-17.703,0
		C84.758,123.845,84.271,124.74,84.131,125.515z"/>
</g>
</svg>
