<?xml version="1.0" encoding="utf-8"?>
<!-- Generator: Adobe Illustrator 16.0.0, SVG Export Plug-In . SVG Version: 6.00 Build 0)  -->
<!DOCTYPE svg PUBLIC "-//W3C//DTD SVG 1.1//EN" "http://www.w3.org/Graphics/SVG/1.1/DTD/svg11.dtd">
<svg version="1.1" xmlns="http://www.w3.org/2000/svg" xmlns:xlink="http://www.w3.org/1999/xlink" x="0px" y="0px"
	 width="297.638px" height="297.638px" viewBox="0 0 297.638 297.638" enable-background="new 0 0 297.638 297.638"
	 xml:space="preserve">
<g id="rond_blanc">
	<g>
		<path fill="#FFFFFF" d="M148.819,296.44c-81.399,0-147.623-66.223-147.623-147.621C1.197,67.42,67.42,1.197,148.819,1.197
			c81.398,0,147.621,66.223,147.621,147.623C296.44,230.218,230.218,296.44,148.819,296.44z"/>
		<path fill="#1A171B" d="M148.819,2.394c39.111,0,75.882,15.231,103.538,42.887c27.655,27.656,42.887,64.427,42.887,103.539
			c0,39.111-15.231,75.882-42.887,103.538c-27.656,27.655-64.427,42.887-103.538,42.887c-39.112,0-75.882-15.231-103.539-42.887
			C17.625,224.701,2.394,187.931,2.394,148.819c0-39.112,15.231-75.883,42.887-103.539C72.937,17.625,109.708,2.394,148.819,2.394
			 M148.819,0C66.628,0,0,66.628,0,148.819c0,82.189,66.628,148.818,148.819,148.818c82.189,0,148.818-66.629,148.818-148.818
			C297.638,66.628,231.009,0,148.819,0L148.819,0z"/>
	</g>
</g>
<g id="rond_rouge">
	<circle fill="none" stroke="#FF0000" stroke-width="43.0849" cx="148.819" cy="148.818" r="120.947"/>
</g>
<g id="bus">
	<g>
		<path d="M74.591,128.686"/>
		<path d="M74.591,128.686l-4.411,17.646c0,0-3.958,2.035-4.072,3.846c-0.113,1.809,0,16.738,0,16.738s2.263,4.187,4.072,4.187
			s20.585,0,20.585,0v-5.544c0,0,2.149-11.536,14.365-11.536c12.214,0,13.571,11.536,13.571,11.536v5.544h57.119v-5.544
			c0,0,2.486-11.648,14.137-11.763c11.65-0.112,13.799,11.763,13.799,11.763v5.544h27.824v-48.749c0,0-1.357-2.94-3.62-2.94
			s-155.744,0-155.744,0v9.251L74.591,128.686z"/>
		<circle cx="105.073" cy="167.537" r="10.688"/>
		<circle cx="189.901" cy="167.537" r="10.688"/>
		<path fill="#FFFFFF" d="M90.991,129.865c0,0,0,14.714,0,15.27s0.454,0.895,1.132,0.905c0.688,0.009,28.841,0,28.841,0
			s1.469,0.111,1.469-0.905c0-1.019,0-15.27,0-15.27s0-1.584-1.471-1.584c-1.47,0-28.388,0.008-28.84,0
			C91.406,128.271,90.991,129.025,90.991,129.865z"/>
		<path fill="#FFFFFF" d="M125.828,129.865c0,0,0,14.714,0,15.27s0.453,0.895,1.132,0.905c0.688,0.009,28.841,0,28.841,0
			s1.47,0.111,1.47-0.905c0-1.019,0-15.27,0-15.27s-0.001-1.584-1.472-1.584c-1.47,0-28.388,0.008-28.841,0
			C126.242,128.271,125.828,129.025,125.828,129.865z"/>
		<path fill="#FFFFFF" d="M160.437,129.865c0,0,0,14.714,0,15.27s0.454,0.895,1.132,0.905c0.689,0.009,28.841,0,28.841,0
			s1.471,0.111,1.471-0.905c0-1.019,0-15.27,0-15.27s0-1.584-1.471-1.584s-28.389,0.008-28.841,0
			C160.853,128.271,160.437,129.025,160.437,129.865z"/>
		<path fill="#FFFFFF" d="M195.84,129.865c0,0,0,14.714,0,15.27s0.452,0.895,1.131,0.905c0.688,0.009,28.84,0,28.84,0
			s1.472,0.111,1.472-0.905c0-1.019,0-15.27,0-15.27s-0.002-1.584-1.473-1.584c-1.469,0-28.387,0.008-28.84,0
			C196.255,128.271,195.84,129.025,195.84,129.865z"/>
		<path fill="#FFFFFF" d="M76.854,130.092c0,0-3.997,14.807-3.883,15.032c0.227,0.49,0.302,0.905,0.943,0.916
			c0.688,0.01,12.554,0,12.554,0s1.47-0.114,1.47-1.133s0-15.042,0-15.042s-0.226-1.584-1.696-1.584c-1.471,0-7.804,0-8.257,0
			C77.532,128.281,77.004,129.252,76.854,130.092z"/>
	</g>
</g>
</svg>
