<?xml version="1.0" encoding="utf-8"?>
<!-- Generator: Adobe Illustrator 16.0.0, SVG Export Plug-In . SVG Version: 6.00 Build 0)  -->
<!DOCTYPE svg PUBLIC "-//W3C//DTD SVG 1.1//EN" "http://www.w3.org/Graphics/SVG/1.1/DTD/svg11.dtd">
<svg version="1.1" xmlns="http://www.w3.org/2000/svg" xmlns:xlink="http://www.w3.org/1999/xlink" x="0px" y="0px"
	 width="297.638px" height="359.04px" viewBox="0 0 297.638 359.04" enable-background="new 0 0 297.638 359.04"
	 xml:space="preserve">
<g id="rond_blanc">
	<g>
		<path fill="#FFFFFF" d="M148.819,296.44c-81.399,0-147.623-66.223-147.623-147.622S67.42,1.197,148.819,1.197
			c81.398,0,147.621,66.223,147.621,147.622S230.218,296.44,148.819,296.44z"/>
		<path fill="#1A171B" d="M148.819,2.394c39.111,0,75.882,15.231,103.538,42.887c27.655,27.656,42.887,64.427,42.887,103.539
			c0,39.112-15.231,75.882-42.887,103.539c-27.656,27.655-64.427,42.887-103.538,42.887c-39.112,0-75.882-15.231-103.539-42.887
			C17.625,224.701,2.394,187.931,2.394,148.819S17.625,72.937,45.281,45.28C72.937,17.625,109.708,2.394,148.819,2.394 M148.819,0
			C66.628,0,0,66.628,0,148.819c0,82.19,66.628,148.819,148.819,148.819c82.189,0,148.818-66.629,148.818-148.819
			C297.638,66.628,231.009,0,148.819,0L148.819,0z"/>
	</g>
</g>
<g id="rond_rouge">
	<circle fill="none" stroke="#FF0000" stroke-width="43.0849" cx="148.819" cy="148.818" r="120.947"/>
</g>
<g id="Calque_4">
	<path d="M73.379,142.669c0,0,12.088-6.385,15.787-10.533l-0.01,57.574h13.125v-81.784h-9.414c0,0-7.122,15.188-19.461,19.677
		L73.379,142.669z"/>
	<path d="M135.114,133.229c0,0,1.458-12.001,8.3-12.001c6.841,0,9.423,4.262,9.423,9.421c0,5.16-4.151,12.562-10.544,20.077
		c-6.393,7.514-16.712,18.844-18.955,26.021c-2.244,7.179-4.151,13.122-3.142,13.009c1.009-0.109,45.76-0.109,45.76-0.109v-13.124
		h-25.46v-2.916c0,0,25.349-21.646,25.349-39.031c0-19.403-9.646-26.693-22.432-26.693c-13.684,0-21.872,15.925-21.872,20.524
		s0,3.701,0,3.701L135.114,133.229z"/>
	<path d="M202.129,117.442l13.797-9.59v21.703h9.252v13.292h-9.42v32.133c0,0,1.178,1.684,3.868,1.516
		c2.694-0.169,5.385-0.843,5.385-0.843s4.374,14.133-2.861,14.133c-7.233,0-11.944,0-11.944,0s-8.076-4.038-8.076-9.926
		c0-5.889,0-37.35,0-37.35h-6.562v-12.955h6.562V117.442z"/>
</g>
<g id="rectangle_jaune" opacity="0.85">
	<g>
		<path fill="#EDFF00" d="M9.574,356.048c-3.629,0-6.582-2.952-6.582-6.582V224.102c0-3.63,2.953-6.583,6.582-6.583h278.489
			c3.63,0,6.582,2.953,6.582,6.583v125.364c0,3.63-2.952,6.582-6.582,6.582H9.574z"/>
		<path fill="#1A171B" d="M288.063,220.511c1.979,0,3.59,1.61,3.59,3.591v125.364c0,1.979-1.61,3.59-3.59,3.59H9.574
			c-1.979,0-3.59-1.61-3.59-3.59V224.102c0-1.98,1.611-3.591,3.59-3.591H288.063 M288.063,214.526H9.574
			c-5.288,0-9.574,4.287-9.574,9.575v125.364c0,5.288,4.287,9.574,9.574,9.574h278.489c5.287,0,9.574-4.286,9.574-9.574V224.102
			C297.638,218.813,293.351,214.526,288.063,214.526L288.063,214.526z"/>
	</g>
</g>
<g id="Calque_7">
	<g>
		<path d="M26.92,238c2.31-0.462,6.929-0.866,11.375-0.866c5.37,0,8.662,0.521,11.491,2.195c2.714,1.443,4.619,4.099,4.619,7.68
			c0,3.407-2.021,6.582-6.352,8.257v0.116c4.447,1.154,7.738,4.562,7.738,9.585c0,3.58-1.617,6.352-4.042,8.257
			c-2.83,2.252-7.564,3.522-15.302,3.522c-4.331,0-7.565-0.288-9.528-0.577V238z M35.639,252.841h2.888
			c4.677,0,7.103-1.906,7.103-4.793c0-2.945-2.252-4.505-6.237-4.505c-1.963,0-3.06,0.116-3.753,0.289V252.841z M35.639,270.105
			c0.867,0.173,1.906,0.173,3.407,0.173c3.984,0,7.507-1.559,7.507-5.658c0-3.927-3.523-5.485-7.911-5.485h-3.003V270.105z"/>
		<path d="M70.569,266.353l-2.714,9.989h-9.124l11.896-38.919h11.491l12.126,38.919h-9.47l-3.003-9.989H70.569z M80.443,259.77
			l-2.425-8.258c-0.635-2.31-1.328-5.255-1.905-7.507h-0.174c-0.52,2.311-1.155,5.255-1.732,7.507l-2.367,8.258H80.443z"/>
		<path d="M99.435,238c2.83-0.519,6.987-0.866,11.722-0.866c5.774,0,9.816,0.866,12.588,3.118c2.368,1.848,3.639,4.562,3.639,8.142
			c0,4.909-3.523,8.315-6.872,9.527v0.175c2.714,1.096,4.215,3.637,5.197,7.217c1.212,4.447,2.368,9.527,3.119,11.029h-9.008
			c-0.578-1.098-1.559-4.272-2.656-9.065c-1.097-4.908-2.771-6.179-6.409-6.237h-2.599v15.303h-8.719V238z M108.154,254.688h3.465
			c4.389,0,6.987-2.195,6.987-5.602c0-3.522-2.425-5.371-6.467-5.371c-2.136,0-3.349,0.116-3.984,0.289V254.688z"/>
		<path d="M133.672,238c2.829-0.519,6.986-0.866,11.722-0.866c5.775,0,9.816,0.866,12.588,3.118
			c2.368,1.848,3.639,4.562,3.639,8.142c0,4.909-3.523,8.315-6.871,9.527v0.175c2.714,1.096,4.214,3.637,5.196,7.217
			c1.213,4.447,2.367,9.527,3.118,11.029h-9.008c-0.577-1.098-1.56-4.272-2.657-9.065c-1.097-4.908-2.771-6.179-6.409-6.237h-2.598
			v15.303h-8.72V238z M142.392,254.688h3.464c4.389,0,6.987-2.195,6.987-5.602c0-3.522-2.426-5.371-6.467-5.371
			c-2.137,0-3.35,0.116-3.984,0.289V254.688z"/>
		<path d="M176.743,237.423v38.919h-8.777v-38.919H176.743z"/>
		<path d="M207.518,259.885h-14.32v9.239h15.995v7.218H184.42v-38.919h23.964v7.218h-15.187v8.084h14.32V259.885z"/>
		<path d="M215.193,238c2.829-0.519,6.986-0.866,11.722-0.866c5.774,0,9.816,0.866,12.588,3.118
			c2.368,1.848,3.639,4.562,3.639,8.142c0,4.909-3.523,8.315-6.873,9.527v0.175c2.714,1.096,4.216,3.637,5.198,7.217
			c1.212,4.447,2.367,9.527,3.118,11.029h-9.009c-0.577-1.098-1.559-4.272-2.655-9.065c-1.098-4.908-2.772-6.179-6.41-6.237h-2.599
			v15.303h-8.719V238z M223.912,254.688h3.465c4.389,0,6.987-2.195,6.987-5.602c0-3.522-2.426-5.371-6.468-5.371
			c-2.137,0-3.349,0.116-3.984,0.289V254.688z"/>
		<path d="M272.584,259.885h-14.32v9.239h15.995v7.218h-24.771v-38.919h23.963v7.218h-15.187v8.084h14.32V259.885z"/>
	</g>
	<g>
		<path d="M26.89,299.717c3.233-0.577,7.448-0.866,11.837-0.866c7.449,0,12.299,1.214,15.995,4.043
			c4.042,3.003,6.583,7.853,6.583,14.782c0,7.448-2.714,12.588-6.41,15.765c-4.1,3.405-10.394,5.023-18.016,5.023
			c-4.562,0-7.853-0.289-9.989-0.578V299.717z M35.667,331.418c0.75,0.173,2.021,0.173,3.06,0.173
			c8.026,0.059,13.281-4.33,13.281-13.626c0-8.373-4.735-12.357-12.357-12.357c-1.905,0-3.233,0.173-3.984,0.346V331.418z"/>
		<path d="M90.229,321.602h-14.32v9.239h15.995v7.218H67.131V299.14h23.964v7.218H75.909v8.085h14.32V321.602z"/>
		<path d="M109.567,299.717c3.233-0.577,7.449-0.866,11.837-0.866c7.449,0,12.3,1.214,15.995,4.043
			c4.042,3.003,6.583,7.853,6.583,14.782c0,7.448-2.714,12.588-6.41,15.765c-4.1,3.405-10.394,5.023-18.016,5.023
			c-4.562,0-7.853-0.289-9.989-0.578V299.717z M118.344,331.418c0.751,0.173,2.021,0.173,3.061,0.173
			c8.026,0.059,13.281-4.33,13.281-13.626c0-8.373-4.735-12.357-12.357-12.357c-1.905,0-3.233,0.173-3.984,0.346V331.418z"/>
		<path d="M172.906,321.602h-14.32v9.239h15.995v7.218h-24.772V299.14h23.964v7.218h-15.187v8.085h14.32V321.602z"/>
		<path d="M213.092,336.269c-2.714,0.925-7.854,2.195-12.993,2.195c-7.103,0-12.241-1.791-15.821-5.198
			c-3.522-3.406-5.485-8.487-5.485-14.205c0.058-12.935,9.47-20.325,22.231-20.325c5.022,0,8.892,0.981,10.798,1.848l-1.848,7.103
			c-2.137-0.981-4.735-1.674-9.008-1.674c-7.334,0-12.935,4.157-12.935,12.588c0,8.084,5.08,12.762,12.299,12.762
			c1.963,0,3.58-0.231,4.272-0.521v-8.199h-6.005v-6.872h14.494V336.269z"/>
		<path d="M243.112,321.602h-14.321v9.239h15.996v7.218h-24.771V299.14h23.963v7.218h-15.188v8.085h14.321V321.602z"/>
		<path d="M250.846,299.14h8.776v31.528h15.476v7.391h-24.252V299.14z"/>
	</g>
</g>
</svg>
