<?xml version="1.0" encoding="utf-8"?>
<!-- Generator: Adobe Illustrator 16.0.0, SVG Export Plug-In . SVG Version: 6.00 Build 0)  -->
<!DOCTYPE svg PUBLIC "-//W3C//DTD SVG 1.1//EN" "http://www.w3.org/Graphics/SVG/1.1/DTD/svg11.dtd">
<svg version="1.1" xmlns="http://www.w3.org/2000/svg" xmlns:xlink="http://www.w3.org/1999/xlink" x="0px" y="0px"
	 width="297.638px" height="262.746px" viewBox="0 0 297.638 262.746" enable-background="new 0 0 297.638 262.746"
	 xml:space="preserve">
<g id="Calque_4">
	<g>
		<path fill-rule="evenodd" clip-rule="evenodd" fill="#F3E600" d="M229.503,261.75c-74.822,0-200.328-0.393-209.831-0.657
			c-7.826-0.217-13.775-3.242-16.752-8.517c-2.957-5.24-2.483-12.073,1.298-18.747C5.303,231.916,133.52,11.997,136.396,7.792
			c2.912-4.255,7.579-6.796,12.484-6.796c5.202,0,9.91,2.764,13.255,7.783c7.373,11.059,118.828,203.342,129.789,222.653
			c5.078,8.948,6.111,17.006,2.909,22.69c-2.592,4.601-7.922,7.246-15.009,7.449C275.752,261.688,258.352,261.75,229.503,261.75z"/>
		<path fill="#010202" d="M148.88,1.994c4.858,0,9.271,2.606,12.426,7.339c7.367,11.051,118.792,203.285,129.751,222.592
			c4.828,8.507,5.887,16.419,2.907,21.709c-2.414,4.284-7.445,6.75-14.168,6.942c-4.063,0.116-21.454,0.177-50.292,0.177
			c-74.815,0-200.306-0.393-209.804-0.657c-7.462-0.207-13.113-3.052-15.911-8.011c-2.781-4.928-2.308-11.403,1.297-17.765
			c1.08-1.906,129.215-221.686,132.133-225.964C139.945,4.372,144.304,1.994,148.88,1.994 M148.88,0
			c-5.164,0-10.161,2.632-13.307,7.229C132.909,11.125,7.579,225.879,3.352,233.337c-8.146,14.376-0.958,28.273,16.293,28.752
			c9.505,0.264,136.531,0.657,209.859,0.657c26.448,0,45.903-0.051,50.349-0.178c16.771-0.479,23.001-13.896,12.938-31.628
			C282.728,213.21,170.632,19.728,162.965,8.227C159.169,2.532,153.944,0,148.88,0L148.88,0z"/>
	</g>
	<path fill-rule="evenodd" clip-rule="evenodd" fill="#E52620" d="M139.544,12.846c-2.459,3.702-121.147,207.829-125.049,214.918
		c-7.52,13.665-16.715,27.213,12.05,28.327l242.201-0.542c31.526-0.131,22.23-13.21,12.94-30.063
		c-9.288-16.854-114.762-200.762-121.84-211.694C152.769,2.862,145.296,4.192,139.544,12.846z"/>
	<polygon fill-rule="evenodd" clip-rule="evenodd" fill="#F3E600" stroke="#F3E600" stroke-width="0.9968" points="149.591,36.383 
		35.304,234.584 265.583,235.157 	"/>
</g>
<g id="Calque_1">
	<path d="M204.126,131.415h-36.011l-5.298,54.68c0.19-0.012,0.382-0.029,0.575-0.029c5.461,0,9.789,3.186,9.824,9.044v12.459h25.812
		v-12.459c0.104-5.841,4.827-9.044,9.822-9.044c0.195,0,0.385,0.018,0.575,0.029L204.126,131.415z"/>
	<path d="M217.41,195.761c0-4.727-3.832-8.559-8.56-8.559l0,0c-4.727,0-8.56,3.832-8.56,8.559v23.026c0,4.727,3.833,8.56,8.56,8.56
		l0,0c4.728,0,8.56-3.833,8.56-8.56V195.761z"/>
	<path d="M171.954,195.761c0-4.727-3.833-8.559-8.56-8.559l0,0c-4.727,0-8.56,3.832-8.56,8.559v23.026c0,4.727,3.833,8.56,8.56,8.56
		l0,0c4.727,0,8.56-3.833,8.56-8.56V195.761z"/>
	<path d="M172.642,168.117l-48.177-62.927c-0.665-1.187-1.72-2.166-3.079-2.716c-0.689-0.279-1.399-0.417-2.101-0.442
		c-0.062-0.003-0.124-0.005-0.185-0.006c-0.083,0-0.165,0-0.248,0.003c-1.276,0.025-2.556,0.436-3.647,1.271
		c-1.191,0.913-1.958,2.174-2.269,3.532L71.243,209.706c-1.284,3.174,0.247,6.787,3.42,8.073c3.174,1.284,6.787-0.249,8.072-3.422
		l37.97-93.687l42.097,54.988c2.084,2.717,5.975,3.231,8.691,1.148C174.21,174.726,174.723,170.835,172.642,168.117z"/>
	<path d="M111.296,218.233c0,3.423-2.775,6.197-6.199,6.197h-51.95c-3.424,0-6.199-2.774-6.199-6.197v-1.958
		c0-3.423,2.775-6.197,6.199-6.197h51.95c3.424,0,6.199,2.774,6.199,6.197V218.233z"/>
	<g>
		<polygon points="55.949,224.431 54.174,222.657 52.4,224.431 54.174,230.035 		"/>
		<polygon points="59.497,224.431 57.723,222.657 55.949,224.431 57.723,230.035 		"/>
		<polygon points="63.046,224.431 61.271,222.657 59.497,224.431 61.271,230.035 		"/>
		<polygon points="66.595,224.431 64.82,222.657 63.046,224.431 64.82,230.035 		"/>
		<polygon points="70.143,224.431 68.369,222.657 66.595,224.431 68.368,230.035 		"/>
		<polygon points="73.692,224.431 71.917,222.657 70.143,224.431 71.917,230.035 		"/>
		<polygon points="77.24,224.431 75.465,222.657 73.692,224.431 75.465,230.035 		"/>
		<polygon points="80.789,224.431 79.015,222.657 77.24,224.431 79.014,230.035 		"/>
		<polygon points="84.337,224.431 82.563,222.657 80.789,224.431 82.563,230.035 		"/>
		<polygon points="87.887,224.431 86.112,222.657 84.337,224.431 86.111,230.035 		"/>
		<polygon points="91.435,224.431 89.66,222.657 87.887,224.431 89.66,230.035 		"/>
		<polygon points="94.983,224.431 93.209,222.657 91.435,224.431 93.208,230.035 		"/>
		<polygon points="98.531,224.431 96.757,222.657 94.983,224.431 96.757,230.035 		"/>
		<polygon points="102.08,224.431 100.306,222.657 98.531,224.431 100.306,230.035 		"/>
		<polygon points="105.628,224.431 103.855,222.657 102.08,224.431 103.854,230.035 		"/>
	</g>
	<polygon fill="#F3E600" points="200.585,164.698 172.617,164.698 174.557,138.421 197.833,138.421 	"/>
</g>
</svg>
